G04 #@! TF.GenerationSoftware,KiCad,Pcbnew,6.0.1-79c1e3a40b~116~ubuntu20.04.1*
G04 #@! TF.CreationDate,2022-02-03T13:07:54-05:00*
G04 #@! TF.ProjectId,d-lev_afe,642d6c65-765f-4616-9665-2e6b69636164,rev?*
G04 #@! TF.SameCoordinates,Original*
G04 #@! TF.FileFunction,Copper,L1,Top*
G04 #@! TF.FilePolarity,Positive*
%FSLAX46Y46*%
G04 Gerber Fmt 4.6, Leading zero omitted, Abs format (unit mm)*
G04 Created by KiCad (PCBNEW 6.0.1-79c1e3a40b~116~ubuntu20.04.1) date 2022-02-03 13:07:54*
%MOMM*%
%LPD*%
G01*
G04 APERTURE LIST*
G04 Aperture macros list*
%AMRoundRect*
0 Rectangle with rounded corners*
0 $1 Rounding radius*
0 $2 $3 $4 $5 $6 $7 $8 $9 X,Y pos of 4 corners*
0 Add a 4 corners polygon primitive as box body*
4,1,4,$2,$3,$4,$5,$6,$7,$8,$9,$2,$3,0*
0 Add four circle primitives for the rounded corners*
1,1,$1+$1,$2,$3*
1,1,$1+$1,$4,$5*
1,1,$1+$1,$6,$7*
1,1,$1+$1,$8,$9*
0 Add four rect primitives between the rounded corners*
20,1,$1+$1,$2,$3,$4,$5,0*
20,1,$1+$1,$4,$5,$6,$7,0*
20,1,$1+$1,$6,$7,$8,$9,0*
20,1,$1+$1,$8,$9,$2,$3,0*%
G04 Aperture macros list end*
G04 #@! TA.AperFunction,ComponentPad*
%ADD10R,1.600000X1.600000*%
G04 #@! TD*
G04 #@! TA.AperFunction,ComponentPad*
%ADD11C,1.600000*%
G04 #@! TD*
G04 #@! TA.AperFunction,ComponentPad*
%ADD12RoundRect,0.250000X-0.600000X-0.600000X0.600000X-0.600000X0.600000X0.600000X-0.600000X0.600000X0*%
G04 #@! TD*
G04 #@! TA.AperFunction,ComponentPad*
%ADD13C,1.700000*%
G04 #@! TD*
G04 #@! TA.AperFunction,ComponentPad*
%ADD14R,1.700000X1.700000*%
G04 #@! TD*
G04 #@! TA.AperFunction,ComponentPad*
%ADD15O,1.600000X1.600000*%
G04 #@! TD*
G04 #@! TA.AperFunction,ComponentPad*
%ADD16R,1.500000X1.500000*%
G04 #@! TD*
G04 #@! TA.AperFunction,ComponentPad*
%ADD17C,1.500000*%
G04 #@! TD*
G04 #@! TA.AperFunction,SMDPad,CuDef*
%ADD18R,4.000000X4.000000*%
G04 #@! TD*
G04 #@! TA.AperFunction,SMDPad,CuDef*
%ADD19C,3.000000*%
G04 #@! TD*
G04 #@! TA.AperFunction,Conductor*
%ADD20C,1.000000*%
G04 #@! TD*
G04 #@! TA.AperFunction,Conductor*
%ADD21C,0.250000*%
G04 #@! TD*
G04 #@! TA.AperFunction,Conductor*
%ADD22C,0.500000*%
G04 #@! TD*
G04 APERTURE END LIST*
D10*
X-17145000Y-7620000D03*
D11*
X-17145000Y-5120000D03*
D10*
X-10795000Y-7620000D03*
D11*
X-10795000Y-5120000D03*
X-8255000Y5715000D03*
X-8255000Y3215000D03*
X15240000Y17145000D03*
X17740000Y17145000D03*
X14605000Y5715000D03*
X14605000Y3215000D03*
D12*
X-26670000Y3810000D03*
D13*
X-24130000Y3810000D03*
X-26670000Y1270000D03*
X-24130000Y1270000D03*
X-26670000Y-1270000D03*
X-24130000Y-1270000D03*
X-26670000Y-3810000D03*
X-24130000Y-3810000D03*
D14*
X25400000Y9525000D03*
D11*
X5080000Y14605000D03*
D15*
X0Y14605000D03*
D10*
X-5080000Y-1905000D03*
D15*
X-2540000Y-1905000D03*
X0Y-1905000D03*
X2540000Y-1905000D03*
X5080000Y-1905000D03*
X7620000Y-1905000D03*
X10160000Y-1905000D03*
X10160000Y5715000D03*
X7620000Y5715000D03*
X5080000Y5715000D03*
X2540000Y5715000D03*
X0Y5715000D03*
X-2540000Y5715000D03*
X-5080000Y5715000D03*
D16*
X-11430000Y-13335000D03*
D17*
X-13970000Y-13335000D03*
X-16510000Y-13335000D03*
D16*
X13335000Y9525000D03*
D17*
X13335000Y12065000D03*
X13335000Y14605000D03*
D16*
X19685000Y9525000D03*
D17*
X19685000Y12065000D03*
X19685000Y14605000D03*
D11*
X20955000Y-7620000D03*
X15955000Y-7620000D03*
D14*
X25400000Y-7620000D03*
D11*
X-8255000Y8255000D03*
D15*
X-18415000Y8255000D03*
D11*
X2540000Y10795000D03*
D15*
X7620000Y10795000D03*
D11*
X-18415000Y11430000D03*
D15*
X-8255000Y11430000D03*
D11*
X-5080000Y-10160000D03*
D15*
X0Y-10160000D03*
D11*
X0Y-5715000D03*
D15*
X-5080000Y-5715000D03*
D11*
X-18415000Y635000D03*
D15*
X-8255000Y635000D03*
D18*
X18415000Y-13970000D03*
D19*
X13843000Y-13970000D03*
X9779000Y-13970000D03*
D14*
X29210000Y1905000D03*
X0Y-13970000D03*
D11*
X5080000Y-10160000D03*
X5080000Y-5160000D03*
D10*
X17780000Y-1905000D03*
D15*
X20320000Y-1905000D03*
X22860000Y-1905000D03*
X25400000Y-1905000D03*
X25400000Y5715000D03*
X22860000Y5715000D03*
X20320000Y5715000D03*
X17780000Y5715000D03*
D20*
X-24130000Y-5715000D02*
X-22225000Y-7620000D01*
X-22225000Y-7620000D02*
X-17145000Y-7620000D01*
X-24130000Y-3810000D02*
X-24130000Y-5715000D01*
D21*
X0Y-13970000D02*
X0Y-10160000D01*
X5080000Y-10160000D02*
X0Y-10160000D01*
X7620000Y-7620000D02*
X5080000Y-10160000D01*
X15955000Y-7620000D02*
X7620000Y-7620000D01*
X20955000Y-7620000D02*
X20955000Y-11430000D01*
X20955000Y-7620000D02*
X25400000Y-7620000D01*
X20955000Y-11430000D02*
X18415000Y-13970000D01*
X-24130000Y-1270000D02*
X-20320000Y-1270000D01*
X-20320000Y-1270000D02*
X-18415000Y635000D01*
X-20320000Y3492500D02*
X-20320000Y6350000D01*
X-22542500Y1270000D02*
X-20320000Y3492500D01*
X-24130000Y1270000D02*
X-22542500Y1270000D01*
X-20320000Y6350000D02*
X-18415000Y8255000D01*
X-21590000Y5080000D02*
X-21590000Y8255000D01*
X-21590000Y8255000D02*
X-18415000Y11430000D01*
X-22860000Y3810000D02*
X-21590000Y5080000D01*
X-24130000Y3810000D02*
X-22860000Y3810000D01*
X10795000Y9525000D02*
X13335000Y9525000D01*
D22*
X13335000Y9525000D02*
X19685000Y9525000D01*
D21*
X7620000Y10795000D02*
X9525000Y10795000D01*
X9525000Y10795000D02*
X10795000Y9525000D01*
D22*
X19685000Y9525000D02*
X25400000Y9525000D01*
D21*
X5080000Y14605000D02*
X8255000Y14605000D01*
X10795000Y12065000D02*
X13335000Y12065000D01*
X8255000Y14605000D02*
X10795000Y12065000D01*
X13335000Y12065000D02*
X19685000Y12065000D01*
X-8255000Y8255000D02*
X-5080000Y8255000D01*
X-5080000Y8255000D02*
X-2540000Y5715000D01*
X-1905000Y8255000D02*
X7620000Y8255000D01*
X-5080000Y11430000D02*
X-1905000Y8255000D01*
X7620000Y8255000D02*
X10160000Y5715000D01*
X-8255000Y11430000D02*
X-5080000Y11430000D01*
X-5080000Y-10160000D02*
X-5080000Y-5715000D01*
X-5080000Y-5715000D02*
X-5080000Y-1905000D01*
X0Y-1905000D02*
X0Y-5715000D01*
X-2540000Y-1905000D02*
X0Y-1905000D01*
X2540000Y0D02*
X2540000Y-1905000D01*
X1905000Y635000D02*
X2540000Y0D01*
X-8255000Y635000D02*
X1905000Y635000D01*
X5080000Y5715000D02*
X7620000Y5715000D01*
G04 #@! TA.AperFunction,Conductor*
G36*
X26987153Y19743579D02*
G01*
X27000000Y19741024D01*
X27012169Y19743444D01*
X27022654Y19743444D01*
X27035693Y19744441D01*
X27358276Y19730357D01*
X27408146Y19728180D01*
X27419094Y19727222D01*
X27818691Y19674615D01*
X27829495Y19672709D01*
X28222990Y19585473D01*
X28233600Y19582630D01*
X28617985Y19461434D01*
X28628299Y19457681D01*
X29000679Y19303436D01*
X29010623Y19298798D01*
X29297060Y19149689D01*
X29368117Y19112699D01*
X29377637Y19107203D01*
X29717557Y18890650D01*
X29726561Y18884345D01*
X30046304Y18638997D01*
X30054724Y18631932D01*
X30351873Y18359646D01*
X30359642Y18351877D01*
X30513836Y18183604D01*
X30631932Y18054724D01*
X30638997Y18046304D01*
X30884345Y17726561D01*
X30890650Y17717557D01*
X31107203Y17377637D01*
X31112698Y17368118D01*
X31245863Y17112312D01*
X31298794Y17010632D01*
X31303436Y17000679D01*
X31433526Y16686613D01*
X31457678Y16628306D01*
X31461434Y16617985D01*
X31538403Y16373872D01*
X31582630Y16233601D01*
X31585473Y16222990D01*
X31672709Y15829495D01*
X31674615Y15818691D01*
X31725228Y15434243D01*
X31727222Y15419095D01*
X31728180Y15408145D01*
X31744441Y15035693D01*
X31743444Y15022654D01*
X31743444Y15012169D01*
X31741024Y15000000D01*
X31743579Y14987156D01*
X31746000Y14962575D01*
X31746000Y126000D01*
X31725998Y57879D01*
X31672342Y11386D01*
X31620000Y0D01*
X3033478Y0D01*
X2965357Y20002D01*
X2918864Y73658D01*
X2912481Y90849D01*
X2910694Y97000D01*
X2909470Y107341D01*
X2905507Y115593D01*
X2904004Y124626D01*
X2891910Y147041D01*
X2879666Y169732D01*
X2876969Y175025D01*
X2858215Y214081D01*
X2858214Y214082D01*
X2854781Y221232D01*
X2851187Y225507D01*
X2849262Y227432D01*
X2847491Y229362D01*
X2847445Y229447D01*
X2847568Y229559D01*
X2847096Y230094D01*
X2844010Y235814D01*
X2804413Y272417D01*
X2800848Y275846D01*
X2211478Y865216D01*
X2196336Y883964D01*
X2195221Y885189D01*
X2189571Y893940D01*
X2181393Y900387D01*
X2181391Y900389D01*
X2163200Y914729D01*
X2158759Y918675D01*
X2158697Y918602D01*
X2154733Y921961D01*
X2151056Y925638D01*
X2135308Y936892D01*
X2130638Y940398D01*
X2090353Y972156D01*
X2081719Y975188D01*
X2074266Y980514D01*
X2025150Y995203D01*
X2019508Y997036D01*
X1978633Y1011390D01*
X1978632Y1011390D01*
X1971149Y1014018D01*
X1965584Y1014500D01*
X1962876Y1014500D01*
X1960242Y1014614D01*
X1960144Y1014643D01*
X1960151Y1014807D01*
X1959447Y1014851D01*
X1953222Y1016713D01*
X1899365Y1014597D01*
X1894418Y1014500D01*
X-7186730Y1014500D01*
X-7254851Y1034502D01*
X-7297981Y1081347D01*
X-7309092Y1102245D01*
X-7326869Y1135677D01*
X-7369541Y1215933D01*
X-7369543Y1215936D01*
X-7372435Y1221375D01*
X-7376326Y1226145D01*
X-7376328Y1226149D01*
X-7499242Y1376857D01*
X-7499245Y1376860D01*
X-7503137Y1381632D01*
X-7510034Y1387338D01*
X-7657729Y1509522D01*
X-7657734Y1509525D01*
X-7662478Y1513450D01*
X-7667897Y1516380D01*
X-7667900Y1516382D01*
X-7838968Y1608878D01*
X-7838973Y1608880D01*
X-7844388Y1611808D01*
X-8041937Y1672960D01*
X-8048062Y1673604D01*
X-8048063Y1673604D01*
X-8241474Y1693932D01*
X-8241476Y1693932D01*
X-8247603Y1694576D01*
X-8373771Y1683094D01*
X-8447409Y1676393D01*
X-8447410Y1676393D01*
X-8453550Y1675834D01*
X-8651934Y1617446D01*
X-8657399Y1614589D01*
X-8829739Y1524492D01*
X-8829743Y1524489D01*
X-8835199Y1521637D01*
X-8996365Y1392057D01*
X-9129292Y1233640D01*
X-9228918Y1052422D01*
X-9230781Y1046549D01*
X-9279011Y894506D01*
X-9291447Y855304D01*
X-9292133Y849187D01*
X-9292134Y849183D01*
X-9307142Y715384D01*
X-9314499Y649794D01*
X-9313448Y637282D01*
X-9300715Y485655D01*
X-9297194Y443722D01*
X-9240193Y244934D01*
X-9237375Y239452D01*
X-9237374Y239448D01*
X-9148486Y66491D01*
X-9148483Y66487D01*
X-9145666Y61005D01*
X-9017214Y-101061D01*
X-9012521Y-105055D01*
X-9012520Y-105056D01*
X-8890872Y-208586D01*
X-8859729Y-235091D01*
X-8679211Y-335980D01*
X-8482534Y-399884D01*
X-8277191Y-424370D01*
X-8271056Y-423898D01*
X-8271054Y-423898D01*
X-8077144Y-408977D01*
X-8077140Y-408976D01*
X-8071002Y-408504D01*
X-7871822Y-352892D01*
X-7866318Y-350112D01*
X-7866316Y-350111D01*
X-7692738Y-262431D01*
X-7692736Y-262430D01*
X-7687237Y-259652D01*
X-7524278Y-132334D01*
X-7520252Y-127670D01*
X-7520249Y-127667D01*
X-7393181Y19543D01*
X-7393180Y19545D01*
X-7389152Y24211D01*
X-7303477Y175025D01*
X-7293983Y191737D01*
X-7242943Y241088D01*
X-7184427Y255500D01*
X1695616Y255500D01*
X1763737Y235498D01*
X1784711Y218595D01*
X1788211Y215095D01*
X1822237Y152783D01*
X1817172Y81968D01*
X1774625Y25132D01*
X1708105Y321D01*
X1699116Y0D01*
X-6985000Y0D01*
X-6985000Y-19620000D01*
X-7005002Y-19688121D01*
X-7058658Y-19734614D01*
X-7111000Y-19746000D01*
X-26962575Y-19746000D01*
X-26987153Y-19743579D01*
X-27000000Y-19741024D01*
X-27012169Y-19743444D01*
X-27022654Y-19743444D01*
X-27035693Y-19744441D01*
X-27358276Y-19730357D01*
X-27408146Y-19728180D01*
X-27419095Y-19727222D01*
X-27818691Y-19674615D01*
X-27829495Y-19672709D01*
X-28222990Y-19585473D01*
X-28233601Y-19582630D01*
X-28617985Y-19461434D01*
X-28628299Y-19457681D01*
X-29000679Y-19303436D01*
X-29010623Y-19298798D01*
X-29368118Y-19112698D01*
X-29377637Y-19107203D01*
X-29717557Y-18890650D01*
X-29726561Y-18884345D01*
X-30046304Y-18638997D01*
X-30054724Y-18631932D01*
X-30351873Y-18359646D01*
X-30359646Y-18351873D01*
X-30631932Y-18054724D01*
X-30638997Y-18046304D01*
X-30884345Y-17726561D01*
X-30890650Y-17717557D01*
X-31107203Y-17377637D01*
X-31112699Y-17368117D01*
X-31298798Y-17010623D01*
X-31303440Y-17000670D01*
X-31363985Y-16854500D01*
X-31457681Y-16628299D01*
X-31461437Y-16617977D01*
X-31466301Y-16602548D01*
X-31582630Y-16233600D01*
X-31585475Y-16222984D01*
X-31623113Y-16053210D01*
X-31672709Y-15829495D01*
X-31674616Y-15818683D01*
X-31674872Y-15816733D01*
X-31727222Y-15419094D01*
X-31728180Y-15408145D01*
X-31744158Y-15042186D01*
X-28858982Y-15042186D01*
X-28833421Y-15310100D01*
X-28832336Y-15314534D01*
X-28832335Y-15314540D01*
X-28803044Y-15434243D01*
X-28769453Y-15571518D01*
X-28668417Y-15820963D01*
X-28532431Y-16053210D01*
X-28452240Y-16153484D01*
X-28396659Y-16222984D01*
X-28364342Y-16263395D01*
X-28167673Y-16447113D01*
X-27946543Y-16600516D01*
X-27705584Y-16720391D01*
X-27701250Y-16721812D01*
X-27701247Y-16721813D01*
X-27454177Y-16802807D01*
X-27454171Y-16802808D01*
X-27449844Y-16804227D01*
X-27445353Y-16805007D01*
X-27445352Y-16805007D01*
X-27188462Y-16849611D01*
X-27188454Y-16849612D01*
X-27184681Y-16850267D01*
X-27180844Y-16850458D01*
X-27101223Y-16854422D01*
X-27101215Y-16854422D01*
X-27099652Y-16854500D01*
X-26931626Y-16854500D01*
X-26929358Y-16854335D01*
X-26929346Y-16854335D01*
X-26798543Y-16844844D01*
X-26731575Y-16839985D01*
X-26727120Y-16839001D01*
X-26727117Y-16839001D01*
X-26473230Y-16782947D01*
X-26473228Y-16782946D01*
X-26468774Y-16781963D01*
X-26217100Y-16686613D01*
X-26112127Y-16628306D01*
X-25985821Y-16558149D01*
X-25985820Y-16558148D01*
X-25981828Y-16555931D01*
X-25835158Y-16443996D01*
X-25771509Y-16395421D01*
X-25771505Y-16395417D01*
X-25767884Y-16392654D01*
X-25579751Y-16200203D01*
X-25472758Y-16053210D01*
X-25424058Y-15986304D01*
X-25424053Y-15986297D01*
X-25421370Y-15982610D01*
X-25296059Y-15744433D01*
X-25206443Y-15490662D01*
X-25181312Y-15363156D01*
X-25155280Y-15231083D01*
X-25155279Y-15231077D01*
X-25154399Y-15226611D01*
X-25149305Y-15124283D01*
X-25141245Y-14962383D01*
X-25141245Y-14962377D01*
X-25141018Y-14957814D01*
X-25166579Y-14689900D01*
X-25230547Y-14428482D01*
X-25331583Y-14179037D01*
X-25467569Y-13946790D01*
X-25635658Y-13736605D01*
X-25832327Y-13552887D01*
X-26053457Y-13399484D01*
X-26211403Y-13320907D01*
X-17519262Y-13320907D01*
X-17518746Y-13327051D01*
X-17512445Y-13402084D01*
X-17502778Y-13517209D01*
X-17482192Y-13589000D01*
X-17460548Y-13664480D01*
X-17448479Y-13706570D01*
X-17358434Y-13881779D01*
X-17354611Y-13886603D01*
X-17354608Y-13886607D01*
X-17309734Y-13943223D01*
X-17236073Y-14036160D01*
X-17231380Y-14040154D01*
X-17231379Y-14040155D01*
X-17206553Y-14061283D01*
X-17086055Y-14163835D01*
X-17080677Y-14166841D01*
X-17080675Y-14166842D01*
X-16929156Y-14251523D01*
X-16914096Y-14259940D01*
X-16726745Y-14320814D01*
X-16531138Y-14344139D01*
X-16525003Y-14343667D01*
X-16525001Y-14343667D01*
X-16464337Y-14338999D01*
X-16334726Y-14329026D01*
X-16144991Y-14276050D01*
X-16139487Y-14273270D01*
X-15974659Y-14190010D01*
X-15974657Y-14190009D01*
X-15969158Y-14187231D01*
X-15813926Y-14065950D01*
X-15809900Y-14061286D01*
X-15809897Y-14061283D01*
X-15689236Y-13921496D01*
X-15689235Y-13921494D01*
X-15685207Y-13916828D01*
X-15587904Y-13745544D01*
X-15525723Y-13558622D01*
X-15501034Y-13363183D01*
X-15500640Y-13335000D01*
X-15502022Y-13320907D01*
X-14979262Y-13320907D01*
X-14978746Y-13327051D01*
X-14972445Y-13402084D01*
X-14962778Y-13517209D01*
X-14942192Y-13589000D01*
X-14920548Y-13664480D01*
X-14908479Y-13706570D01*
X-14818434Y-13881779D01*
X-14814611Y-13886603D01*
X-14814608Y-13886607D01*
X-14769734Y-13943223D01*
X-14696073Y-14036160D01*
X-14691380Y-14040154D01*
X-14691379Y-14040155D01*
X-14666553Y-14061283D01*
X-14546055Y-14163835D01*
X-14540677Y-14166841D01*
X-14540675Y-14166842D01*
X-14389156Y-14251523D01*
X-14374096Y-14259940D01*
X-14186745Y-14320814D01*
X-13991138Y-14344139D01*
X-13985003Y-14343667D01*
X-13985001Y-14343667D01*
X-13924337Y-14338999D01*
X-13794726Y-14329026D01*
X-13604991Y-14276050D01*
X-13599487Y-14273270D01*
X-13434659Y-14190010D01*
X-13434657Y-14190009D01*
X-13429158Y-14187231D01*
X-13322407Y-14103828D01*
X-12433999Y-14103828D01*
X-12432791Y-14116088D01*
X-12421685Y-14171931D01*
X-12412367Y-14194427D01*
X-12370017Y-14257808D01*
X-12352808Y-14275017D01*
X-12289425Y-14317368D01*
X-12266934Y-14326684D01*
X-12211085Y-14337793D01*
X-12198830Y-14339000D01*
X-11702115Y-14339000D01*
X-11686876Y-14334525D01*
X-11685671Y-14333135D01*
X-11684000Y-14325452D01*
X-11684000Y-14320884D01*
X-11176000Y-14320884D01*
X-11171525Y-14336123D01*
X-11170135Y-14337328D01*
X-11162452Y-14338999D01*
X-10661172Y-14338999D01*
X-10648912Y-14337791D01*
X-10593069Y-14326685D01*
X-10570573Y-14317367D01*
X-10507192Y-14275017D01*
X-10489983Y-14257808D01*
X-10447632Y-14194425D01*
X-10438316Y-14171934D01*
X-10427207Y-14116085D01*
X-10426000Y-14103830D01*
X-10426000Y-13607115D01*
X-10430475Y-13591876D01*
X-10431865Y-13590671D01*
X-10439548Y-13589000D01*
X-11157885Y-13589000D01*
X-11173124Y-13593475D01*
X-11174329Y-13594865D01*
X-11176000Y-13602548D01*
X-11176000Y-14320884D01*
X-11684000Y-14320884D01*
X-11684000Y-13607115D01*
X-11688475Y-13591876D01*
X-11689865Y-13590671D01*
X-11697548Y-13589000D01*
X-12415884Y-13589000D01*
X-12431123Y-13593475D01*
X-12432328Y-13594865D01*
X-12433999Y-13602548D01*
X-12433999Y-14103828D01*
X-13322407Y-14103828D01*
X-13273926Y-14065950D01*
X-13269900Y-14061286D01*
X-13269897Y-14061283D01*
X-13149236Y-13921496D01*
X-13149235Y-13921494D01*
X-13145207Y-13916828D01*
X-13047904Y-13745544D01*
X-12985723Y-13558622D01*
X-12961034Y-13363183D01*
X-12960640Y-13335000D01*
X-12979863Y-13138948D01*
X-13002828Y-13062885D01*
X-12434000Y-13062885D01*
X-12429525Y-13078124D01*
X-12428135Y-13079329D01*
X-12420452Y-13081000D01*
X-11702115Y-13081000D01*
X-11686876Y-13076525D01*
X-11685671Y-13075135D01*
X-11684000Y-13067452D01*
X-11684000Y-13062885D01*
X-11176000Y-13062885D01*
X-11171525Y-13078124D01*
X-11170135Y-13079329D01*
X-11162452Y-13081000D01*
X-10444116Y-13081000D01*
X-10428877Y-13076525D01*
X-10427672Y-13075135D01*
X-10426001Y-13067452D01*
X-10426001Y-12566172D01*
X-10427209Y-12553912D01*
X-10438315Y-12498069D01*
X-10447633Y-12475573D01*
X-10489983Y-12412192D01*
X-10507192Y-12394983D01*
X-10570575Y-12352632D01*
X-10593066Y-12343316D01*
X-10648915Y-12332207D01*
X-10661170Y-12331000D01*
X-11157885Y-12331000D01*
X-11173124Y-12335475D01*
X-11174329Y-12336865D01*
X-11176000Y-12344548D01*
X-11176000Y-13062885D01*
X-11684000Y-13062885D01*
X-11684000Y-12349116D01*
X-11688475Y-12333877D01*
X-11689865Y-12332672D01*
X-11697548Y-12331001D01*
X-12198828Y-12331001D01*
X-12211088Y-12332209D01*
X-12266931Y-12343315D01*
X-12289427Y-12352633D01*
X-12352808Y-12394983D01*
X-12370017Y-12412192D01*
X-12412368Y-12475575D01*
X-12421684Y-12498066D01*
X-12432793Y-12553915D01*
X-12434000Y-12566170D01*
X-12434000Y-13062885D01*
X-13002828Y-13062885D01*
X-13036800Y-12950363D01*
X-13129283Y-12776429D01*
X-13253788Y-12623770D01*
X-13323415Y-12566170D01*
X-13400823Y-12502132D01*
X-13400826Y-12502130D01*
X-13405573Y-12498203D01*
X-13578857Y-12404508D01*
X-13767040Y-12346256D01*
X-13773165Y-12345612D01*
X-13773166Y-12345612D01*
X-13956824Y-12326309D01*
X-13956826Y-12326309D01*
X-13962953Y-12325665D01*
X-14034837Y-12332207D01*
X-14152996Y-12342960D01*
X-14152999Y-12342961D01*
X-14159135Y-12343519D01*
X-14165041Y-12345257D01*
X-14165045Y-12345258D01*
X-14305225Y-12386516D01*
X-14348113Y-12399138D01*
X-14353573Y-12401992D01*
X-14353572Y-12401992D01*
X-14517228Y-12487549D01*
X-14517232Y-12487552D01*
X-14522688Y-12490404D01*
X-14676212Y-12613840D01*
X-14802837Y-12764745D01*
X-14897738Y-12937371D01*
X-14899602Y-12943246D01*
X-14899603Y-12943249D01*
X-14934281Y-13052569D01*
X-14957303Y-13125142D01*
X-14967723Y-13218037D01*
X-14978418Y-13313387D01*
X-14979262Y-13320907D01*
X-15502022Y-13320907D01*
X-15519863Y-13138948D01*
X-15576800Y-12950363D01*
X-15669283Y-12776429D01*
X-15793788Y-12623770D01*
X-15863415Y-12566170D01*
X-15940823Y-12502132D01*
X-15940826Y-12502130D01*
X-15945573Y-12498203D01*
X-16118857Y-12404508D01*
X-16307040Y-12346256D01*
X-16313165Y-12345612D01*
X-16313166Y-12345612D01*
X-16496824Y-12326309D01*
X-16496826Y-12326309D01*
X-16502953Y-12325665D01*
X-16574837Y-12332207D01*
X-16692996Y-12342960D01*
X-16692999Y-12342961D01*
X-16699135Y-12343519D01*
X-16705041Y-12345257D01*
X-16705045Y-12345258D01*
X-16845225Y-12386516D01*
X-16888113Y-12399138D01*
X-16893573Y-12401992D01*
X-16893572Y-12401992D01*
X-17057228Y-12487549D01*
X-17057232Y-12487552D01*
X-17062688Y-12490404D01*
X-17216212Y-12613840D01*
X-17342837Y-12764745D01*
X-17437738Y-12937371D01*
X-17439602Y-12943246D01*
X-17439603Y-12943249D01*
X-17474281Y-13052569D01*
X-17497303Y-13125142D01*
X-17507723Y-13218037D01*
X-17518418Y-13313387D01*
X-17519262Y-13320907D01*
X-26211403Y-13320907D01*
X-26294416Y-13279609D01*
X-26298750Y-13278188D01*
X-26298753Y-13278187D01*
X-26545823Y-13197193D01*
X-26545829Y-13197192D01*
X-26550156Y-13195773D01*
X-26554648Y-13194993D01*
X-26811538Y-13150389D01*
X-26811546Y-13150388D01*
X-26815319Y-13149733D01*
X-26825282Y-13149237D01*
X-26898777Y-13145578D01*
X-26898785Y-13145578D01*
X-26900348Y-13145500D01*
X-27068374Y-13145500D01*
X-27070642Y-13145665D01*
X-27070654Y-13145665D01*
X-27201457Y-13155156D01*
X-27268425Y-13160015D01*
X-27272880Y-13160999D01*
X-27272883Y-13160999D01*
X-27526770Y-13217053D01*
X-27526772Y-13217054D01*
X-27531226Y-13218037D01*
X-27782900Y-13313387D01*
X-27786886Y-13315601D01*
X-27786888Y-13315602D01*
X-27872550Y-13363183D01*
X-28018172Y-13444069D01*
X-28021804Y-13446841D01*
X-28228491Y-13604579D01*
X-28228495Y-13604583D01*
X-28232116Y-13607346D01*
X-28420249Y-13799797D01*
X-28422934Y-13803486D01*
X-28575942Y-14013696D01*
X-28575947Y-14013703D01*
X-28578630Y-14017390D01*
X-28703941Y-14255567D01*
X-28793557Y-14509338D01*
X-28818688Y-14636844D01*
X-28829145Y-14689900D01*
X-28845601Y-14773389D01*
X-28845828Y-14777942D01*
X-28845828Y-14777945D01*
X-28857903Y-15020514D01*
X-28858982Y-15042186D01*
X-31744158Y-15042186D01*
X-31744441Y-15035693D01*
X-31743444Y-15022654D01*
X-31743444Y-15012169D01*
X-31741024Y-15000000D01*
X-31743579Y-14987153D01*
X-31746000Y-14962575D01*
X-31746000Y-3780964D01*
X-27778852Y-3780964D01*
X-27765576Y-3983522D01*
X-27764155Y-3989118D01*
X-27764154Y-3989123D01*
X-27724280Y-4146122D01*
X-27715608Y-4180269D01*
X-27713191Y-4185512D01*
X-27675990Y-4266208D01*
X-27630623Y-4364616D01*
X-27513467Y-4530389D01*
X-27509325Y-4534424D01*
X-27452363Y-4589913D01*
X-27368062Y-4672035D01*
X-27199280Y-4784812D01*
X-27193977Y-4787090D01*
X-27193974Y-4787092D01*
X-27018079Y-4862662D01*
X-27012772Y-4864942D01*
X-26939756Y-4881464D01*
X-26820421Y-4908467D01*
X-26820416Y-4908468D01*
X-26814784Y-4909742D01*
X-26809013Y-4909969D01*
X-26809011Y-4909969D01*
X-26749244Y-4912317D01*
X-26611947Y-4917712D01*
X-26511501Y-4903148D01*
X-26416769Y-4889413D01*
X-26416764Y-4889412D01*
X-26411055Y-4888584D01*
X-26405591Y-4886729D01*
X-26405586Y-4886728D01*
X-26224307Y-4825192D01*
X-26224302Y-4825190D01*
X-26218835Y-4823334D01*
X-26041724Y-4724147D01*
X-26022851Y-4708451D01*
X-25890087Y-4598031D01*
X-25885655Y-4594345D01*
X-25755853Y-4438276D01*
X-25656666Y-4261165D01*
X-25654810Y-4255698D01*
X-25654808Y-4255693D01*
X-25593272Y-4074414D01*
X-25593271Y-4074409D01*
X-25591416Y-4068945D01*
X-25590588Y-4063236D01*
X-25590587Y-4063231D01*
X-25562821Y-3871727D01*
X-25562288Y-3868053D01*
X-25560768Y-3810000D01*
X-25563436Y-3780964D01*
X-25238852Y-3780964D01*
X-25225576Y-3983522D01*
X-25224155Y-3989118D01*
X-25224154Y-3989123D01*
X-25184280Y-4146122D01*
X-25175608Y-4180269D01*
X-25173191Y-4185512D01*
X-25135990Y-4266208D01*
X-25090623Y-4364616D01*
X-24973467Y-4530389D01*
X-24922577Y-4579963D01*
X-24887741Y-4641821D01*
X-24884500Y-4670215D01*
X-24884500Y-5648235D01*
X-24885933Y-5667184D01*
X-24889174Y-5688489D01*
X-24888581Y-5695780D01*
X-24888581Y-5695783D01*
X-24884915Y-5740848D01*
X-24884500Y-5751063D01*
X-24884500Y-5759053D01*
X-24884075Y-5762697D01*
X-24881229Y-5787113D01*
X-24880796Y-5791487D01*
X-24875543Y-5856061D01*
X-24874910Y-5863847D01*
X-24872655Y-5870809D01*
X-24871482Y-5876677D01*
X-24870110Y-5882484D01*
X-24869262Y-5889754D01*
X-24844468Y-5958060D01*
X-24843060Y-5962163D01*
X-24820688Y-6031222D01*
X-24816891Y-6037479D01*
X-24814398Y-6042926D01*
X-24811730Y-6048254D01*
X-24809232Y-6055134D01*
X-24773555Y-6109551D01*
X-24769432Y-6115839D01*
X-24767085Y-6119559D01*
X-24741424Y-6161846D01*
X-24729417Y-6181633D01*
X-24725705Y-6185836D01*
X-24722051Y-6189974D01*
X-24722076Y-6189996D01*
X-24719376Y-6193041D01*
X-24716780Y-6196146D01*
X-24712766Y-6202268D01*
X-24707453Y-6207301D01*
X-24656874Y-6255215D01*
X-24654432Y-6257593D01*
X-22805723Y-8106301D01*
X-22793338Y-8120712D01*
X-22780563Y-8138071D01*
X-22774980Y-8142814D01*
X-22740521Y-8172089D01*
X-22733005Y-8179019D01*
X-22727362Y-8184662D01*
X-22705202Y-8202194D01*
X-22701827Y-8204961D01*
X-22646480Y-8251982D01*
X-22639960Y-8255311D01*
X-22634982Y-8258631D01*
X-22629909Y-8261764D01*
X-22624167Y-8266307D01*
X-22617533Y-8269407D01*
X-22617534Y-8269407D01*
X-22558383Y-8297053D01*
X-22554433Y-8298984D01*
X-22489788Y-8331993D01*
X-22482678Y-8333733D01*
X-22477058Y-8335823D01*
X-22471407Y-8337703D01*
X-22464778Y-8340801D01*
X-22457614Y-8342291D01*
X-22457611Y-8342292D01*
X-22417505Y-8350633D01*
X-22393686Y-8355587D01*
X-22389427Y-8356551D01*
X-22318892Y-8373811D01*
X-22313295Y-8374158D01*
X-22313290Y-8374159D01*
X-22307786Y-8374500D01*
X-22307788Y-8374534D01*
X-22303730Y-8374777D01*
X-22299694Y-8375137D01*
X-22292527Y-8376628D01*
X-22215569Y-8374546D01*
X-22212161Y-8374500D01*
X-18316941Y-8374500D01*
X-18248820Y-8394502D01*
X-18202327Y-8448158D01*
X-18193362Y-8475921D01*
X-18187194Y-8506931D01*
X-18184734Y-8519301D01*
X-18128484Y-8603484D01*
X-18044301Y-8659734D01*
X-17970067Y-8674500D01*
X-17145134Y-8674500D01*
X-16319934Y-8674499D01*
X-16284182Y-8667388D01*
X-16257874Y-8662156D01*
X-16257872Y-8662155D01*
X-16245699Y-8659734D01*
X-16235379Y-8652839D01*
X-16235378Y-8652838D01*
X-16171832Y-8610377D01*
X-16161516Y-8603484D01*
X-16105266Y-8519301D01*
X-16090500Y-8445067D01*
X-16090500Y-8438828D01*
X-11848999Y-8438828D01*
X-11847791Y-8451088D01*
X-11836685Y-8506931D01*
X-11827367Y-8529427D01*
X-11785017Y-8592808D01*
X-11767808Y-8610017D01*
X-11704425Y-8652368D01*
X-11681934Y-8661684D01*
X-11626085Y-8672793D01*
X-11613830Y-8674000D01*
X-11067115Y-8674000D01*
X-11051876Y-8669525D01*
X-11050671Y-8668135D01*
X-11049000Y-8660452D01*
X-11049000Y-8655884D01*
X-10541000Y-8655884D01*
X-10536525Y-8671123D01*
X-10535135Y-8672328D01*
X-10527452Y-8673999D01*
X-9976172Y-8673999D01*
X-9963912Y-8672791D01*
X-9908069Y-8661685D01*
X-9885573Y-8652367D01*
X-9822192Y-8610017D01*
X-9804983Y-8592808D01*
X-9762632Y-8529425D01*
X-9753316Y-8506934D01*
X-9742207Y-8451085D01*
X-9741000Y-8438830D01*
X-9741000Y-7892115D01*
X-9745475Y-7876876D01*
X-9746865Y-7875671D01*
X-9754548Y-7874000D01*
X-10522885Y-7874000D01*
X-10538124Y-7878475D01*
X-10539329Y-7879865D01*
X-10541000Y-7887548D01*
X-10541000Y-8655884D01*
X-11049000Y-8655884D01*
X-11049000Y-7892115D01*
X-11053475Y-7876876D01*
X-11054865Y-7875671D01*
X-11062548Y-7874000D01*
X-11830884Y-7874000D01*
X-11846123Y-7878475D01*
X-11847328Y-7879865D01*
X-11848999Y-7887548D01*
X-11848999Y-8438828D01*
X-16090500Y-8438828D01*
X-16090501Y-7347885D01*
X-11849000Y-7347885D01*
X-11844525Y-7363124D01*
X-11843135Y-7364329D01*
X-11835452Y-7366000D01*
X-11067115Y-7366000D01*
X-11051876Y-7361525D01*
X-11050671Y-7360135D01*
X-11049000Y-7352452D01*
X-11049000Y-7347885D01*
X-10541000Y-7347885D01*
X-10536525Y-7363124D01*
X-10535135Y-7364329D01*
X-10527452Y-7366000D01*
X-9759116Y-7366000D01*
X-9743877Y-7361525D01*
X-9742672Y-7360135D01*
X-9741001Y-7352452D01*
X-9741001Y-6801172D01*
X-9742209Y-6788912D01*
X-9753315Y-6733069D01*
X-9762633Y-6710573D01*
X-9804983Y-6647192D01*
X-9822192Y-6629983D01*
X-9885575Y-6587632D01*
X-9908066Y-6578316D01*
X-9963915Y-6567207D01*
X-9976170Y-6566000D01*
X-10522885Y-6566000D01*
X-10538124Y-6570475D01*
X-10539329Y-6571865D01*
X-10541000Y-6579548D01*
X-10541000Y-7347885D01*
X-11049000Y-7347885D01*
X-11049000Y-6584116D01*
X-11053475Y-6568877D01*
X-11054865Y-6567672D01*
X-11062548Y-6566001D01*
X-11613828Y-6566001D01*
X-11626088Y-6567209D01*
X-11681931Y-6578315D01*
X-11704427Y-6587633D01*
X-11767808Y-6629983D01*
X-11785017Y-6647192D01*
X-11827368Y-6710575D01*
X-11836684Y-6733066D01*
X-11847793Y-6788915D01*
X-11849000Y-6801170D01*
X-11849000Y-7347885D01*
X-16090501Y-7347885D01*
X-16090501Y-6794934D01*
X-16102747Y-6733363D01*
X-16102844Y-6732874D01*
X-16102845Y-6732871D01*
X-16105266Y-6720699D01*
X-16161516Y-6636516D01*
X-16245699Y-6580266D01*
X-16319933Y-6565500D01*
X-17144866Y-6565500D01*
X-17970066Y-6565501D01*
X-18005818Y-6572612D01*
X-18032126Y-6577844D01*
X-18032128Y-6577845D01*
X-18044301Y-6580266D01*
X-18054621Y-6587161D01*
X-18054622Y-6587162D01*
X-18088280Y-6609652D01*
X-18128484Y-6636516D01*
X-18184734Y-6720699D01*
X-18189554Y-6744934D01*
X-18193363Y-6764081D01*
X-18226270Y-6826991D01*
X-18287965Y-6862123D01*
X-18316942Y-6865500D01*
X-21860286Y-6865500D01*
X-21928407Y-6845498D01*
X-21949381Y-6828595D01*
X-23338595Y-5439381D01*
X-23372621Y-5377069D01*
X-23375500Y-5350286D01*
X-23375500Y-5105206D01*
X-18204499Y-5105206D01*
X-18203257Y-5120000D01*
X-18188344Y-5297578D01*
X-18187194Y-5311278D01*
X-18130193Y-5510066D01*
X-18127375Y-5515548D01*
X-18127374Y-5515552D01*
X-18038486Y-5688509D01*
X-18038483Y-5688513D01*
X-18035666Y-5693995D01*
X-17907214Y-5856061D01*
X-17902521Y-5860055D01*
X-17902520Y-5860056D01*
X-17823468Y-5927334D01*
X-17749729Y-5990091D01*
X-17569211Y-6090980D01*
X-17372534Y-6154884D01*
X-17167191Y-6179370D01*
X-17161056Y-6178898D01*
X-17161054Y-6178898D01*
X-16967144Y-6163977D01*
X-16967140Y-6163976D01*
X-16961002Y-6163504D01*
X-16761822Y-6107892D01*
X-16756318Y-6105112D01*
X-16756316Y-6105111D01*
X-16582738Y-6017431D01*
X-16582736Y-6017430D01*
X-16577237Y-6014652D01*
X-16414278Y-5887334D01*
X-16410252Y-5882670D01*
X-16410249Y-5882667D01*
X-16283181Y-5735457D01*
X-16283180Y-5735455D01*
X-16279152Y-5730789D01*
X-16177005Y-5550979D01*
X-16111730Y-5354753D01*
X-16085811Y-5149586D01*
X-16085398Y-5120000D01*
X-16086849Y-5105206D01*
X-11854499Y-5105206D01*
X-11853257Y-5120000D01*
X-11838344Y-5297578D01*
X-11837194Y-5311278D01*
X-11780193Y-5510066D01*
X-11777375Y-5515548D01*
X-11777374Y-5515552D01*
X-11688486Y-5688509D01*
X-11688483Y-5688513D01*
X-11685666Y-5693995D01*
X-11557214Y-5856061D01*
X-11552521Y-5860055D01*
X-11552520Y-5860056D01*
X-11473468Y-5927334D01*
X-11399729Y-5990091D01*
X-11219211Y-6090980D01*
X-11022534Y-6154884D01*
X-10817191Y-6179370D01*
X-10811056Y-6178898D01*
X-10811054Y-6178898D01*
X-10617144Y-6163977D01*
X-10617140Y-6163976D01*
X-10611002Y-6163504D01*
X-10411822Y-6107892D01*
X-10406318Y-6105112D01*
X-10406316Y-6105111D01*
X-10232738Y-6017431D01*
X-10232736Y-6017430D01*
X-10227237Y-6014652D01*
X-10064278Y-5887334D01*
X-10060252Y-5882670D01*
X-10060249Y-5882667D01*
X-9933181Y-5735457D01*
X-9933180Y-5735455D01*
X-9929152Y-5730789D01*
X-9827005Y-5550979D01*
X-9761730Y-5354753D01*
X-9735811Y-5149586D01*
X-9735398Y-5120000D01*
X-9755578Y-4914189D01*
X-9815349Y-4716217D01*
X-9879946Y-4594728D01*
X-9909541Y-4539067D01*
X-9909543Y-4539064D01*
X-9912435Y-4533625D01*
X-9916326Y-4528855D01*
X-9916328Y-4528851D01*
X-10039242Y-4378143D01*
X-10039245Y-4378140D01*
X-10043137Y-4373368D01*
X-10047886Y-4369439D01*
X-10197729Y-4245478D01*
X-10197734Y-4245475D01*
X-10202478Y-4241550D01*
X-10207897Y-4238620D01*
X-10207900Y-4238618D01*
X-10378968Y-4146122D01*
X-10378973Y-4146120D01*
X-10384388Y-4143192D01*
X-10581937Y-4082040D01*
X-10588062Y-4081396D01*
X-10588063Y-4081396D01*
X-10781474Y-4061068D01*
X-10781476Y-4061068D01*
X-10787603Y-4060424D01*
X-10881236Y-4068945D01*
X-10987409Y-4078607D01*
X-10987410Y-4078607D01*
X-10993550Y-4079166D01*
X-11191934Y-4137554D01*
X-11197399Y-4140411D01*
X-11369739Y-4230508D01*
X-11369743Y-4230511D01*
X-11375199Y-4233363D01*
X-11536365Y-4362943D01*
X-11669292Y-4521360D01*
X-11768918Y-4702578D01*
X-11831447Y-4899696D01*
X-11832133Y-4905813D01*
X-11832134Y-4905817D01*
X-11837981Y-4957943D01*
X-11854499Y-5105206D01*
X-16086849Y-5105206D01*
X-16105578Y-4914189D01*
X-16165349Y-4716217D01*
X-16229946Y-4594728D01*
X-16259541Y-4539067D01*
X-16259543Y-4539064D01*
X-16262435Y-4533625D01*
X-16266326Y-4528855D01*
X-16266328Y-4528851D01*
X-16389242Y-4378143D01*
X-16389245Y-4378140D01*
X-16393137Y-4373368D01*
X-16397886Y-4369439D01*
X-16547729Y-4245478D01*
X-16547734Y-4245475D01*
X-16552478Y-4241550D01*
X-16557897Y-4238620D01*
X-16557900Y-4238618D01*
X-16728968Y-4146122D01*
X-16728973Y-4146120D01*
X-16734388Y-4143192D01*
X-16931937Y-4082040D01*
X-16938062Y-4081396D01*
X-16938063Y-4081396D01*
X-17131474Y-4061068D01*
X-17131476Y-4061068D01*
X-17137603Y-4060424D01*
X-17231236Y-4068945D01*
X-17337409Y-4078607D01*
X-17337410Y-4078607D01*
X-17343550Y-4079166D01*
X-17541934Y-4137554D01*
X-17547399Y-4140411D01*
X-17719739Y-4230508D01*
X-17719743Y-4230511D01*
X-17725199Y-4233363D01*
X-17886365Y-4362943D01*
X-18019292Y-4521360D01*
X-18118918Y-4702578D01*
X-18181447Y-4899696D01*
X-18182133Y-4905813D01*
X-18182134Y-4905817D01*
X-18187981Y-4957943D01*
X-18204499Y-5105206D01*
X-23375500Y-5105206D01*
X-23375500Y-4675634D01*
X-23355498Y-4607513D01*
X-23345195Y-4594728D01*
X-23345655Y-4594345D01*
X-23219547Y-4442718D01*
X-23219545Y-4442715D01*
X-23215853Y-4438276D01*
X-23116666Y-4261165D01*
X-23114810Y-4255698D01*
X-23114808Y-4255693D01*
X-23053272Y-4074414D01*
X-23053271Y-4074409D01*
X-23051416Y-4068945D01*
X-23050588Y-4063236D01*
X-23050587Y-4063231D01*
X-23022821Y-3871727D01*
X-23022288Y-3868053D01*
X-23020768Y-3810000D01*
X-23039342Y-3607859D01*
X-23040910Y-3602299D01*
X-23092875Y-3418046D01*
X-23092876Y-3418044D01*
X-23094443Y-3412487D01*
X-23105022Y-3391033D01*
X-23181669Y-3235609D01*
X-23184224Y-3230428D01*
X-23305680Y-3067779D01*
X-23438789Y-2944734D01*
X-23450497Y-2933911D01*
X-23454742Y-2929987D01*
X-23459625Y-2926906D01*
X-23459629Y-2926903D01*
X-23621536Y-2824748D01*
X-23626419Y-2821667D01*
X-23814961Y-2746446D01*
X-23820621Y-2745320D01*
X-23820625Y-2745319D01*
X-24008387Y-2707971D01*
X-24008390Y-2707971D01*
X-24014054Y-2706844D01*
X-24019829Y-2706768D01*
X-24019833Y-2706768D01*
X-24121207Y-2705441D01*
X-24217029Y-2704187D01*
X-24222726Y-2705166D01*
X-24222727Y-2705166D01*
X-24367635Y-2730066D01*
X-24417090Y-2738564D01*
X-24607537Y-2808824D01*
X-24781990Y-2912612D01*
X-24786330Y-2916418D01*
X-24786334Y-2916421D01*
X-24930267Y-3042648D01*
X-24934608Y-3046455D01*
X-25060280Y-3205869D01*
X-25062969Y-3210980D01*
X-25062971Y-3210983D01*
X-25075927Y-3235609D01*
X-25154797Y-3385515D01*
X-25214993Y-3579378D01*
X-25238852Y-3780964D01*
X-25563436Y-3780964D01*
X-25579342Y-3607859D01*
X-25580910Y-3602299D01*
X-25632875Y-3418046D01*
X-25632876Y-3418044D01*
X-25634443Y-3412487D01*
X-25645022Y-3391033D01*
X-25721669Y-3235609D01*
X-25724224Y-3230428D01*
X-25845680Y-3067779D01*
X-25978789Y-2944734D01*
X-25990497Y-2933911D01*
X-25994742Y-2929987D01*
X-25999625Y-2926906D01*
X-25999629Y-2926903D01*
X-26161536Y-2824748D01*
X-26166419Y-2821667D01*
X-26354961Y-2746446D01*
X-26360621Y-2745320D01*
X-26360625Y-2745319D01*
X-26548387Y-2707971D01*
X-26548390Y-2707971D01*
X-26554054Y-2706844D01*
X-26559829Y-2706768D01*
X-26559833Y-2706768D01*
X-26661207Y-2705441D01*
X-26757029Y-2704187D01*
X-26762726Y-2705166D01*
X-26762727Y-2705166D01*
X-26907635Y-2730066D01*
X-26957090Y-2738564D01*
X-27147537Y-2808824D01*
X-27321990Y-2912612D01*
X-27326330Y-2916418D01*
X-27326334Y-2916421D01*
X-27470267Y-3042648D01*
X-27474608Y-3046455D01*
X-27600280Y-3205869D01*
X-27602969Y-3210980D01*
X-27602971Y-3210983D01*
X-27615927Y-3235609D01*
X-27694797Y-3385515D01*
X-27754993Y-3579378D01*
X-27778852Y-3780964D01*
X-31746000Y-3780964D01*
X-31746000Y-1240964D01*
X-27778852Y-1240964D01*
X-27765576Y-1443522D01*
X-27764155Y-1449118D01*
X-27764154Y-1449123D01*
X-27729700Y-1584781D01*
X-27715608Y-1640269D01*
X-27713191Y-1645512D01*
X-27678197Y-1721419D01*
X-27630623Y-1824616D01*
X-27627290Y-1829332D01*
X-27552904Y-1934586D01*
X-27513467Y-1990389D01*
X-27368062Y-2132035D01*
X-27199280Y-2244812D01*
X-27193977Y-2247090D01*
X-27193974Y-2247092D01*
X-27018079Y-2322662D01*
X-27012772Y-2324942D01*
X-26963995Y-2335979D01*
X-26820421Y-2368467D01*
X-26820416Y-2368468D01*
X-26814784Y-2369742D01*
X-26809013Y-2369969D01*
X-26809011Y-2369969D01*
X-26749244Y-2372317D01*
X-26611947Y-2377712D01*
X-26511501Y-2363148D01*
X-26416769Y-2349413D01*
X-26416764Y-2349412D01*
X-26411055Y-2348584D01*
X-26405591Y-2346729D01*
X-26405586Y-2346728D01*
X-26224307Y-2285192D01*
X-26224302Y-2285190D01*
X-26218835Y-2283334D01*
X-26041724Y-2184147D01*
X-25979066Y-2132035D01*
X-25890087Y-2058031D01*
X-25885655Y-2054345D01*
X-25755853Y-1898276D01*
X-25656666Y-1721165D01*
X-25654810Y-1715698D01*
X-25654808Y-1715693D01*
X-25593272Y-1534414D01*
X-25593271Y-1534409D01*
X-25591416Y-1528945D01*
X-25590588Y-1523236D01*
X-25590587Y-1523231D01*
X-25562821Y-1331727D01*
X-25562288Y-1328053D01*
X-25560768Y-1270000D01*
X-25563436Y-1240964D01*
X-25238852Y-1240964D01*
X-25225576Y-1443522D01*
X-25224155Y-1449118D01*
X-25224154Y-1449123D01*
X-25189700Y-1584781D01*
X-25175608Y-1640269D01*
X-25173191Y-1645512D01*
X-25138197Y-1721419D01*
X-25090623Y-1824616D01*
X-25087290Y-1829332D01*
X-25012904Y-1934586D01*
X-24973467Y-1990389D01*
X-24828062Y-2132035D01*
X-24659280Y-2244812D01*
X-24653977Y-2247090D01*
X-24653974Y-2247092D01*
X-24478079Y-2322662D01*
X-24472772Y-2324942D01*
X-24423995Y-2335979D01*
X-24280421Y-2368467D01*
X-24280416Y-2368468D01*
X-24274784Y-2369742D01*
X-24269013Y-2369969D01*
X-24269011Y-2369969D01*
X-24209244Y-2372317D01*
X-24071947Y-2377712D01*
X-23971501Y-2363148D01*
X-23876769Y-2349413D01*
X-23876764Y-2349412D01*
X-23871055Y-2348584D01*
X-23865591Y-2346729D01*
X-23865586Y-2346728D01*
X-23684307Y-2285192D01*
X-23684302Y-2285190D01*
X-23678835Y-2283334D01*
X-23501724Y-2184147D01*
X-23439066Y-2132035D01*
X-23350087Y-2058031D01*
X-23345655Y-2054345D01*
X-23215853Y-1898276D01*
X-23116666Y-1721165D01*
X-23116213Y-1721419D01*
X-23072632Y-1670151D01*
X-23003512Y-1649500D01*
X-20373920Y-1649500D01*
X-20349972Y-1652049D01*
X-20348307Y-1652128D01*
X-20338124Y-1654320D01*
X-20327783Y-1653096D01*
X-20304777Y-1650373D01*
X-20298846Y-1650023D01*
X-20298854Y-1649928D01*
X-20293676Y-1649500D01*
X-20288476Y-1649500D01*
X-20283347Y-1648646D01*
X-20283344Y-1648646D01*
X-20269435Y-1646331D01*
X-20263557Y-1645494D01*
X-20222999Y-1640694D01*
X-20222998Y-1640694D01*
X-20212659Y-1639470D01*
X-20204407Y-1635507D01*
X-20195374Y-1634004D01*
X-20186205Y-1629057D01*
X-20186203Y-1629056D01*
X-20150268Y-1609666D01*
X-20144975Y-1606969D01*
X-20105918Y-1588215D01*
X-20105914Y-1588212D01*
X-20098768Y-1584781D01*
X-20094492Y-1581186D01*
X-20092569Y-1579263D01*
X-20090637Y-1577491D01*
X-20090558Y-1577448D01*
X-20090445Y-1577572D01*
X-20089905Y-1577096D01*
X-20084186Y-1574010D01*
X-20047583Y-1534413D01*
X-20044154Y-1530848D01*
X-18901413Y-388107D01*
X-18839101Y-354081D01*
X-18773382Y-357369D01*
X-18642534Y-399884D01*
X-18437191Y-424370D01*
X-18431056Y-423898D01*
X-18431054Y-423898D01*
X-18237144Y-408977D01*
X-18237140Y-408976D01*
X-18231002Y-408504D01*
X-18031822Y-352892D01*
X-18026318Y-350112D01*
X-18026316Y-350111D01*
X-17852738Y-262431D01*
X-17852736Y-262430D01*
X-17847237Y-259652D01*
X-17684278Y-132334D01*
X-17680252Y-127670D01*
X-17680249Y-127667D01*
X-17553181Y19543D01*
X-17553180Y19545D01*
X-17549152Y24211D01*
X-17495652Y118388D01*
X-17450050Y198660D01*
X-17450048Y198664D01*
X-17447005Y204021D01*
X-17414368Y302134D01*
X-17383675Y394399D01*
X-17383674Y394402D01*
X-17381730Y400247D01*
X-17355811Y605414D01*
X-17355398Y635000D01*
X-17375578Y840811D01*
X-17435349Y1038783D01*
X-17483892Y1130079D01*
X-17529541Y1215933D01*
X-17529543Y1215936D01*
X-17532435Y1221375D01*
X-17536326Y1226145D01*
X-17536328Y1226149D01*
X-17659242Y1376857D01*
X-17659245Y1376860D01*
X-17663137Y1381632D01*
X-17670034Y1387338D01*
X-17817729Y1509522D01*
X-17817734Y1509525D01*
X-17822478Y1513450D01*
X-17827897Y1516380D01*
X-17827900Y1516382D01*
X-17998968Y1608878D01*
X-17998973Y1608880D01*
X-18004388Y1611808D01*
X-18201937Y1672960D01*
X-18208062Y1673604D01*
X-18208063Y1673604D01*
X-18401474Y1693932D01*
X-18401476Y1693932D01*
X-18407603Y1694576D01*
X-18533771Y1683094D01*
X-18607409Y1676393D01*
X-18607410Y1676393D01*
X-18613550Y1675834D01*
X-18811934Y1617446D01*
X-18817399Y1614589D01*
X-18989739Y1524492D01*
X-18989743Y1524489D01*
X-18995199Y1521637D01*
X-19156365Y1392057D01*
X-19289292Y1233640D01*
X-19388918Y1052422D01*
X-19390781Y1046549D01*
X-19439011Y894506D01*
X-19451447Y855304D01*
X-19452133Y849187D01*
X-19452134Y849183D01*
X-19467142Y715384D01*
X-19474499Y649794D01*
X-19473448Y637282D01*
X-19460715Y485655D01*
X-19457194Y443722D01*
X-19455495Y437797D01*
X-19407629Y270866D01*
X-19408080Y199871D01*
X-19439653Y147041D01*
X-20440289Y-853595D01*
X-20502601Y-887621D01*
X-20529384Y-890500D01*
X-23007208Y-890500D01*
X-23075329Y-870498D01*
X-23120214Y-820228D01*
X-23181669Y-695609D01*
X-23184224Y-690428D01*
X-23305680Y-527779D01*
X-23443247Y-400613D01*
X-23450497Y-393911D01*
X-23454742Y-389987D01*
X-23459625Y-386906D01*
X-23459629Y-386903D01*
X-23621536Y-284748D01*
X-23626419Y-281667D01*
X-23814961Y-206446D01*
X-23820621Y-205320D01*
X-23820625Y-205319D01*
X-24008387Y-167971D01*
X-24008390Y-167971D01*
X-24014054Y-166844D01*
X-24019829Y-166768D01*
X-24019833Y-166768D01*
X-24121207Y-165441D01*
X-24217029Y-164187D01*
X-24222726Y-165166D01*
X-24222727Y-165166D01*
X-24411393Y-197585D01*
X-24417090Y-198564D01*
X-24607537Y-268824D01*
X-24781990Y-372612D01*
X-24786330Y-376418D01*
X-24786334Y-376421D01*
X-24930267Y-502648D01*
X-24934608Y-506455D01*
X-25060280Y-665869D01*
X-25062969Y-670980D01*
X-25062971Y-670983D01*
X-25075927Y-695609D01*
X-25154797Y-845515D01*
X-25214993Y-1039378D01*
X-25238852Y-1240964D01*
X-25563436Y-1240964D01*
X-25578232Y-1079934D01*
X-25578813Y-1073613D01*
X-25578814Y-1073610D01*
X-25579342Y-1067859D01*
X-25580910Y-1062299D01*
X-25632875Y-878046D01*
X-25632876Y-878044D01*
X-25634443Y-872487D01*
X-25645022Y-851033D01*
X-25721669Y-695609D01*
X-25724224Y-690428D01*
X-25845680Y-527779D01*
X-25983247Y-400613D01*
X-25990497Y-393911D01*
X-25994742Y-389987D01*
X-25999625Y-386906D01*
X-25999629Y-386903D01*
X-26161536Y-284748D01*
X-26166419Y-281667D01*
X-26354961Y-206446D01*
X-26360621Y-205320D01*
X-26360625Y-205319D01*
X-26548387Y-167971D01*
X-26548390Y-167971D01*
X-26554054Y-166844D01*
X-26559829Y-166768D01*
X-26559833Y-166768D01*
X-26661207Y-165441D01*
X-26757029Y-164187D01*
X-26762726Y-165166D01*
X-26762727Y-165166D01*
X-26951393Y-197585D01*
X-26957090Y-198564D01*
X-27147537Y-268824D01*
X-27321990Y-372612D01*
X-27326330Y-376418D01*
X-27326334Y-376421D01*
X-27470267Y-502648D01*
X-27474608Y-506455D01*
X-27600280Y-665869D01*
X-27602969Y-670980D01*
X-27602971Y-670983D01*
X-27615927Y-695609D01*
X-27694797Y-845515D01*
X-27754993Y-1039378D01*
X-27778852Y-1240964D01*
X-31746000Y-1240964D01*
X-31746000Y1299036D01*
X-27778852Y1299036D01*
X-27765576Y1096478D01*
X-27764155Y1090882D01*
X-27764154Y1090877D01*
X-27729822Y955699D01*
X-27715608Y899731D01*
X-27713191Y894488D01*
X-27678197Y818581D01*
X-27630623Y715384D01*
X-27627290Y710668D01*
X-27552904Y605414D01*
X-27513467Y549611D01*
X-27368062Y407965D01*
X-27199280Y295188D01*
X-27193977Y292910D01*
X-27193974Y292908D01*
X-27021005Y218595D01*
X-27012772Y215058D01*
X-26963995Y204021D01*
X-26820421Y171533D01*
X-26820416Y171532D01*
X-26814784Y170258D01*
X-26809013Y170031D01*
X-26809011Y170031D01*
X-26749244Y167683D01*
X-26611947Y162288D01*
X-26511501Y176852D01*
X-26416769Y190587D01*
X-26416764Y190588D01*
X-26411055Y191416D01*
X-26405591Y193271D01*
X-26405586Y193272D01*
X-26224307Y254808D01*
X-26224302Y254810D01*
X-26218835Y256666D01*
X-26184586Y275846D01*
X-26144317Y298398D01*
X-26041724Y355853D01*
X-25995377Y394399D01*
X-25890087Y481969D01*
X-25885655Y485655D01*
X-25755853Y641724D01*
X-25666934Y800500D01*
X-25659490Y813792D01*
X-25659487Y813798D01*
X-25656666Y818835D01*
X-25654810Y824302D01*
X-25654808Y824307D01*
X-25593272Y1005586D01*
X-25593271Y1005591D01*
X-25591416Y1011055D01*
X-25590588Y1016764D01*
X-25590587Y1016769D01*
X-25562821Y1208273D01*
X-25562288Y1211947D01*
X-25560768Y1270000D01*
X-25563436Y1299036D01*
X-25238852Y1299036D01*
X-25225576Y1096478D01*
X-25224155Y1090882D01*
X-25224154Y1090877D01*
X-25189822Y955699D01*
X-25175608Y899731D01*
X-25173191Y894488D01*
X-25138197Y818581D01*
X-25090623Y715384D01*
X-25087290Y710668D01*
X-25012904Y605414D01*
X-24973467Y549611D01*
X-24828062Y407965D01*
X-24659280Y295188D01*
X-24653977Y292910D01*
X-24653974Y292908D01*
X-24481005Y218595D01*
X-24472772Y215058D01*
X-24423995Y204021D01*
X-24280421Y171533D01*
X-24280416Y171532D01*
X-24274784Y170258D01*
X-24269013Y170031D01*
X-24269011Y170031D01*
X-24209244Y167683D01*
X-24071947Y162288D01*
X-23971501Y176852D01*
X-23876769Y190587D01*
X-23876764Y190588D01*
X-23871055Y191416D01*
X-23865591Y193271D01*
X-23865586Y193272D01*
X-23684307Y254808D01*
X-23684302Y254810D01*
X-23678835Y256666D01*
X-23644586Y275846D01*
X-23604317Y298398D01*
X-23501724Y355853D01*
X-23455377Y394399D01*
X-23350087Y481969D01*
X-23345655Y485655D01*
X-23215853Y641724D01*
X-23116666Y818835D01*
X-23116213Y818581D01*
X-23072632Y869849D01*
X-23003512Y890500D01*
X-22596420Y890500D01*
X-22572472Y887951D01*
X-22570807Y887872D01*
X-22560624Y885680D01*
X-22550283Y886904D01*
X-22527277Y889627D01*
X-22521346Y889977D01*
X-22521354Y890072D01*
X-22516176Y890500D01*
X-22510976Y890500D01*
X-22505847Y891354D01*
X-22505844Y891354D01*
X-22491935Y893669D01*
X-22486057Y894506D01*
X-22445499Y899306D01*
X-22445498Y899306D01*
X-22435159Y900530D01*
X-22426907Y904493D01*
X-22417874Y905996D01*
X-22408705Y910943D01*
X-22408703Y910944D01*
X-22372768Y930334D01*
X-22367475Y933031D01*
X-22328418Y951785D01*
X-22328414Y951788D01*
X-22321268Y955219D01*
X-22316992Y958814D01*
X-22315069Y960737D01*
X-22313137Y962509D01*
X-22313058Y962552D01*
X-22312945Y962428D01*
X-22312405Y962904D01*
X-22306686Y965990D01*
X-22294625Y979037D01*
X-22270084Y1005586D01*
X-22266654Y1009152D01*
X-20089784Y3186022D01*
X-20071036Y3201164D01*
X-20069811Y3202279D01*
X-20061060Y3207929D01*
X-20054613Y3216107D01*
X-20054611Y3216109D01*
X-20043823Y3229794D01*
X-9314499Y3229794D01*
X-9313350Y3216109D01*
X-9303123Y3094331D01*
X-9297194Y3023722D01*
X-9240193Y2824934D01*
X-9237375Y2819452D01*
X-9237374Y2819448D01*
X-9148486Y2646491D01*
X-9148483Y2646487D01*
X-9145666Y2641005D01*
X-9017214Y2478939D01*
X-9012521Y2474945D01*
X-9012520Y2474944D01*
X-8893008Y2373232D01*
X-8859729Y2344909D01*
X-8679211Y2244020D01*
X-8482534Y2180116D01*
X-8277191Y2155630D01*
X-8271056Y2156102D01*
X-8271054Y2156102D01*
X-8077144Y2171023D01*
X-8077140Y2171024D01*
X-8071002Y2171496D01*
X-7871822Y2227108D01*
X-7866318Y2229888D01*
X-7866316Y2229889D01*
X-7692738Y2317569D01*
X-7692736Y2317570D01*
X-7687237Y2320348D01*
X-7524278Y2447666D01*
X-7520252Y2452330D01*
X-7520249Y2452333D01*
X-7393181Y2599543D01*
X-7393180Y2599545D01*
X-7389152Y2604211D01*
X-7329037Y2710031D01*
X-7290050Y2778660D01*
X-7290048Y2778664D01*
X-7287005Y2784021D01*
X-7239054Y2928168D01*
X-7223675Y2974399D01*
X-7223674Y2974402D01*
X-7221730Y2980247D01*
X-7195811Y3185414D01*
X-7195398Y3215000D01*
X-7196849Y3229794D01*
X13545501Y3229794D01*
X13546650Y3216109D01*
X13556877Y3094331D01*
X13562806Y3023722D01*
X13619807Y2824934D01*
X13622625Y2819452D01*
X13622626Y2819448D01*
X13711514Y2646491D01*
X13711517Y2646487D01*
X13714334Y2641005D01*
X13842786Y2478939D01*
X13847479Y2474945D01*
X13847480Y2474944D01*
X13966992Y2373232D01*
X14000271Y2344909D01*
X14180789Y2244020D01*
X14377466Y2180116D01*
X14582809Y2155630D01*
X14588944Y2156102D01*
X14588946Y2156102D01*
X14782856Y2171023D01*
X14782860Y2171024D01*
X14788998Y2171496D01*
X14988178Y2227108D01*
X14993682Y2229888D01*
X14993684Y2229889D01*
X15167262Y2317569D01*
X15167264Y2317570D01*
X15172763Y2320348D01*
X15335722Y2447666D01*
X15339748Y2452330D01*
X15339751Y2452333D01*
X15466819Y2599543D01*
X15466820Y2599545D01*
X15470848Y2604211D01*
X15530963Y2710031D01*
X15569950Y2778660D01*
X15569952Y2778664D01*
X15570749Y2780067D01*
X28105500Y2780067D01*
X28105501Y1029934D01*
X28109986Y1007385D01*
X28116993Y972156D01*
X28120266Y955699D01*
X28127161Y945380D01*
X28127162Y945378D01*
X28163831Y890500D01*
X28176516Y871516D01*
X28260699Y815266D01*
X28334933Y800500D01*
X29209858Y800500D01*
X30085066Y800501D01*
X30120818Y807612D01*
X30147126Y812844D01*
X30147128Y812845D01*
X30159301Y815266D01*
X30169621Y822161D01*
X30169622Y822162D01*
X30233168Y864623D01*
X30243484Y871516D01*
X30299734Y955699D01*
X30314500Y1029933D01*
X30314499Y2780066D01*
X30305575Y2824934D01*
X30302156Y2842126D01*
X30302155Y2842128D01*
X30299734Y2854301D01*
X30271970Y2895853D01*
X30250377Y2928168D01*
X30243484Y2938484D01*
X30159301Y2994734D01*
X30085067Y3009500D01*
X29210142Y3009500D01*
X28334934Y3009499D01*
X28299182Y3002388D01*
X28272874Y2997156D01*
X28272872Y2997155D01*
X28260699Y2994734D01*
X28250379Y2987839D01*
X28250378Y2987838D01*
X28205804Y2958054D01*
X28176516Y2938484D01*
X28120266Y2854301D01*
X28105500Y2780067D01*
X15570749Y2780067D01*
X15572995Y2784021D01*
X15620946Y2928168D01*
X15636325Y2974399D01*
X15636326Y2974402D01*
X15638270Y2980247D01*
X15664189Y3185414D01*
X15664602Y3215000D01*
X15644422Y3420811D01*
X15584651Y3618783D01*
X15487565Y3801375D01*
X15483674Y3806145D01*
X15483672Y3806149D01*
X15360758Y3956857D01*
X15360755Y3956860D01*
X15356863Y3961632D01*
X15349966Y3967338D01*
X15202271Y4089522D01*
X15202266Y4089525D01*
X15197522Y4093450D01*
X15192103Y4096380D01*
X15192100Y4096382D01*
X15021032Y4188878D01*
X15021027Y4188880D01*
X15015612Y4191808D01*
X14818063Y4252960D01*
X14811938Y4253604D01*
X14811937Y4253604D01*
X14618526Y4273932D01*
X14618524Y4273932D01*
X14612397Y4274576D01*
X14486229Y4263094D01*
X14412591Y4256393D01*
X14412590Y4256393D01*
X14406450Y4255834D01*
X14208066Y4197446D01*
X14202601Y4194589D01*
X14030261Y4104492D01*
X14030257Y4104489D01*
X14024801Y4101637D01*
X13863635Y3972057D01*
X13730708Y3813640D01*
X13631082Y3632422D01*
X13568553Y3435304D01*
X13567867Y3429187D01*
X13567866Y3429183D01*
X13546505Y3238741D01*
X13545501Y3229794D01*
X-7196849Y3229794D01*
X-7215578Y3420811D01*
X-7275349Y3618783D01*
X-7372435Y3801375D01*
X-7376326Y3806145D01*
X-7376328Y3806149D01*
X-7499242Y3956857D01*
X-7499245Y3956860D01*
X-7503137Y3961632D01*
X-7510034Y3967338D01*
X-7657729Y4089522D01*
X-7657734Y4089525D01*
X-7662478Y4093450D01*
X-7667897Y4096380D01*
X-7667900Y4096382D01*
X-7838968Y4188878D01*
X-7838973Y4188880D01*
X-7844388Y4191808D01*
X-8041937Y4252960D01*
X-8048062Y4253604D01*
X-8048063Y4253604D01*
X-8241474Y4273932D01*
X-8241476Y4273932D01*
X-8247603Y4274576D01*
X-8373771Y4263094D01*
X-8447409Y4256393D01*
X-8447410Y4256393D01*
X-8453550Y4255834D01*
X-8651934Y4197446D01*
X-8657399Y4194589D01*
X-8829739Y4104492D01*
X-8829743Y4104489D01*
X-8835199Y4101637D01*
X-8996365Y3972057D01*
X-9129292Y3813640D01*
X-9228918Y3632422D01*
X-9291447Y3435304D01*
X-9292133Y3429187D01*
X-9292134Y3429183D01*
X-9313495Y3238741D01*
X-9314499Y3229794D01*
X-20043823Y3229794D01*
X-20040271Y3234300D01*
X-20036325Y3238741D01*
X-20036398Y3238803D01*
X-20033039Y3242767D01*
X-20029362Y3246444D01*
X-20018108Y3262192D01*
X-20014602Y3266862D01*
X-19982844Y3307147D01*
X-19979812Y3315781D01*
X-19974486Y3323234D01*
X-19959797Y3372350D01*
X-19957964Y3377992D01*
X-19943610Y3418867D01*
X-19943610Y3418868D01*
X-19940982Y3426351D01*
X-19940500Y3431916D01*
X-19940500Y3434624D01*
X-19940386Y3437258D01*
X-19940357Y3437356D01*
X-19940193Y3437349D01*
X-19940149Y3438053D01*
X-19938287Y3444278D01*
X-19940403Y3498135D01*
X-19940500Y3503082D01*
X-19940500Y4812062D01*
X-8793108Y4812062D01*
X-8788199Y4805504D01*
X-8684388Y4747486D01*
X-8673149Y4742576D01*
X-8488285Y4682510D01*
X-8476311Y4679877D01*
X-8283292Y4656861D01*
X-8271043Y4656604D01*
X-8077231Y4671517D01*
X-8065151Y4673648D01*
X-7877939Y4725919D01*
X-7866506Y4730353D01*
X-7725251Y4801706D01*
X-7714967Y4811351D01*
X-7717205Y4817995D01*
X-8242188Y5342978D01*
X-8256132Y5350592D01*
X-8257965Y5350461D01*
X-8264580Y5346210D01*
X-8786348Y4824442D01*
X-8793108Y4812062D01*
X-19940500Y4812062D01*
X-19940500Y5723643D01*
X-9313481Y5723643D01*
X-9297217Y5529951D01*
X-9295003Y5517892D01*
X-9241424Y5331039D01*
X-9236911Y5319642D01*
X-9168016Y5185586D01*
X-9158299Y5175368D01*
X-9151498Y5177712D01*
X-8627022Y5702188D01*
X-8620644Y5713868D01*
X-7890592Y5713868D01*
X-7890461Y5712035D01*
X-7886210Y5705420D01*
X-7364599Y5183809D01*
X-7352219Y5177049D01*
X-7345485Y5182090D01*
X-7290510Y5278862D01*
X-7285517Y5290078D01*
X-7232642Y5449025D01*
X-6100256Y5449025D01*
X-6066424Y5331041D01*
X-6061908Y5319636D01*
X-5973065Y5146765D01*
X-5966413Y5136444D01*
X-5845682Y4984117D01*
X-5837159Y4975292D01*
X-5689135Y4849314D01*
X-5679066Y4842316D01*
X-5509388Y4747486D01*
X-5498149Y4742576D01*
X-5351231Y4694839D01*
X-5337133Y4694436D01*
X-5334000Y4700808D01*
X-5334000Y4709674D01*
X-4826000Y4709674D01*
X-4822027Y4696143D01*
X-4813812Y4694962D01*
X-4702939Y4725919D01*
X-4691506Y4730353D01*
X-4518002Y4817996D01*
X-4507652Y4824564D01*
X-4354481Y4944236D01*
X-4345595Y4952697D01*
X-4218591Y5099833D01*
X-4211517Y5109862D01*
X-4115511Y5278862D01*
X-4110517Y5290078D01*
X-4059377Y5443810D01*
X-4058876Y5457903D01*
X-4065065Y5461000D01*
X-4807885Y5461000D01*
X-4823124Y5456525D01*
X-4824329Y5455135D01*
X-4826000Y5447452D01*
X-4826000Y4709674D01*
X-5334000Y4709674D01*
X-5334000Y5442885D01*
X-5338475Y5458124D01*
X-5339865Y5459329D01*
X-5347548Y5461000D01*
X-6085575Y5461000D01*
X-6099106Y5457027D01*
X-6100256Y5449025D01*
X-7232642Y5449025D01*
X-7224166Y5474506D01*
X-7221446Y5486477D01*
X-7196756Y5681925D01*
X-7196264Y5688952D01*
X-7195949Y5711477D01*
X-7196244Y5718506D01*
X-7215469Y5914581D01*
X-7217852Y5926616D01*
X-7231605Y5972168D01*
X-6100060Y5972168D01*
X-6093501Y5969000D01*
X-5352115Y5969000D01*
X-5336876Y5973475D01*
X-5335671Y5974865D01*
X-5334000Y5982548D01*
X-5334000Y5987115D01*
X-4826000Y5987115D01*
X-4821525Y5971876D01*
X-4820135Y5970671D01*
X-4812452Y5969000D01*
X-4073763Y5969000D01*
X-4060232Y5972973D01*
X-4059140Y5980567D01*
X-4099032Y6112692D01*
X-4103706Y6124033D01*
X-4194957Y6295651D01*
X-4201751Y6305876D01*
X-4324605Y6456509D01*
X-4333234Y6465199D01*
X-4483014Y6589109D01*
X-4493180Y6595965D01*
X-4664164Y6688416D01*
X-4675464Y6693166D01*
X-4808693Y6734408D01*
X-4822795Y6734614D01*
X-4826000Y6727858D01*
X-4826000Y5987115D01*
X-5334000Y5987115D01*
X-5334000Y6720877D01*
X-5337973Y6734408D01*
X-5345768Y6735528D01*
X-5470837Y6698719D01*
X-5482205Y6694126D01*
X-5654464Y6604071D01*
X-5664725Y6597357D01*
X-5816213Y6475557D01*
X-5824973Y6466979D01*
X-5949920Y6318074D01*
X-5956844Y6307963D01*
X-6050490Y6137619D01*
X-6055318Y6126355D01*
X-6099756Y5986269D01*
X-6100060Y5972168D01*
X-7231605Y5972168D01*
X-7274032Y6112692D01*
X-7278706Y6124033D01*
X-7342423Y6243867D01*
X-7352283Y6253948D01*
X-7359411Y6251379D01*
X-7882978Y5727812D01*
X-7890592Y5713868D01*
X-8620644Y5713868D01*
X-8619408Y5716132D01*
X-8619539Y5717965D01*
X-8623790Y5724580D01*
X-9145753Y6246543D01*
X-9158133Y6253303D01*
X-9164521Y6248521D01*
X-9225490Y6137619D01*
X-9230318Y6126355D01*
X-9289094Y5941069D01*
X-9291642Y5929080D01*
X-9313310Y5735912D01*
X-9313481Y5723643D01*
X-19940500Y5723643D01*
X-19940500Y6140616D01*
X-19920498Y6208737D01*
X-19903595Y6229711D01*
X-19515318Y6617988D01*
X-8794270Y6617988D01*
X-8791817Y6611027D01*
X-8267812Y6087022D01*
X-8253868Y6079408D01*
X-8252035Y6079539D01*
X-8245420Y6083790D01*
X-7723223Y6605987D01*
X-7716463Y6618367D01*
X-7721122Y6624590D01*
X-7839164Y6688415D01*
X-7850469Y6693167D01*
X-8036151Y6750646D01*
X-8048164Y6753112D01*
X-8241478Y6773430D01*
X-8253746Y6773515D01*
X-8447317Y6755899D01*
X-8459366Y6753601D01*
X-8645837Y6698719D01*
X-8657205Y6694126D01*
X-8784121Y6627776D01*
X-8794270Y6617988D01*
X-19515318Y6617988D01*
X-18901413Y7231893D01*
X-18839101Y7265919D01*
X-18773382Y7262631D01*
X-18642534Y7220116D01*
X-18437191Y7195630D01*
X-18431056Y7196102D01*
X-18431054Y7196102D01*
X-18237144Y7211023D01*
X-18237140Y7211024D01*
X-18231002Y7211496D01*
X-18031822Y7267108D01*
X-18026318Y7269888D01*
X-18026316Y7269889D01*
X-17852738Y7357569D01*
X-17852736Y7357570D01*
X-17847237Y7360348D01*
X-17684278Y7487666D01*
X-17680252Y7492330D01*
X-17680249Y7492333D01*
X-17553181Y7639543D01*
X-17553180Y7639545D01*
X-17549152Y7644211D01*
X-17447005Y7824021D01*
X-17413649Y7924293D01*
X-17383675Y8014399D01*
X-17383674Y8014402D01*
X-17381730Y8020247D01*
X-17355811Y8225414D01*
X-17355398Y8255000D01*
X-17356849Y8269794D01*
X-9314499Y8269794D01*
X-9297194Y8063722D01*
X-9240193Y7864934D01*
X-9237375Y7859452D01*
X-9237374Y7859448D01*
X-9148486Y7686491D01*
X-9148483Y7686487D01*
X-9145666Y7681005D01*
X-9017214Y7518939D01*
X-8859729Y7384909D01*
X-8679211Y7284020D01*
X-8482534Y7220116D01*
X-8277191Y7195630D01*
X-8271056Y7196102D01*
X-8271054Y7196102D01*
X-8077144Y7211023D01*
X-8077140Y7211024D01*
X-8071002Y7211496D01*
X-7871822Y7267108D01*
X-7866318Y7269888D01*
X-7866316Y7269889D01*
X-7692738Y7357569D01*
X-7692736Y7357570D01*
X-7687237Y7360348D01*
X-7524278Y7487666D01*
X-7520252Y7492330D01*
X-7520249Y7492333D01*
X-7393181Y7639543D01*
X-7393180Y7639545D01*
X-7389152Y7644211D01*
X-7293983Y7811737D01*
X-7242943Y7861088D01*
X-7184427Y7875500D01*
X-5289384Y7875500D01*
X-5221263Y7855498D01*
X-5200289Y7838595D01*
X-3563320Y6201625D01*
X-3529294Y6139313D01*
X-3532313Y6074434D01*
X-3576447Y5935304D01*
X-3577133Y5929187D01*
X-3577134Y5929183D01*
X-3598812Y5735919D01*
X-3599499Y5729794D01*
X-3582194Y5523722D01*
X-3525193Y5324934D01*
X-3522375Y5319452D01*
X-3522374Y5319448D01*
X-3433486Y5146491D01*
X-3433483Y5146487D01*
X-3430666Y5141005D01*
X-3302214Y4978939D01*
X-3297521Y4974945D01*
X-3297520Y4974944D01*
X-3152695Y4851689D01*
X-3144729Y4844909D01*
X-2964211Y4744020D01*
X-2767534Y4680116D01*
X-2562191Y4655630D01*
X-2556056Y4656102D01*
X-2556054Y4656102D01*
X-2362144Y4671023D01*
X-2362140Y4671024D01*
X-2356002Y4671496D01*
X-2156822Y4727108D01*
X-2151318Y4729888D01*
X-2151316Y4729889D01*
X-1977738Y4817569D01*
X-1977736Y4817570D01*
X-1972237Y4820348D01*
X-1809278Y4947666D01*
X-1805252Y4952330D01*
X-1805249Y4952333D01*
X-1678181Y5099543D01*
X-1678180Y5099545D01*
X-1674152Y5104211D01*
X-1607657Y5221263D01*
X-1575050Y5278660D01*
X-1575048Y5278664D01*
X-1572005Y5284021D01*
X-1539368Y5382134D01*
X-1508675Y5474399D01*
X-1508674Y5474402D01*
X-1506730Y5480247D01*
X-1480811Y5685414D01*
X-1480398Y5715000D01*
X-1481849Y5729794D01*
X-1059499Y5729794D01*
X-1042194Y5523722D01*
X-985193Y5324934D01*
X-982375Y5319452D01*
X-982374Y5319448D01*
X-893486Y5146491D01*
X-893483Y5146487D01*
X-890666Y5141005D01*
X-762214Y4978939D01*
X-757521Y4974945D01*
X-757520Y4974944D01*
X-612695Y4851689D01*
X-604729Y4844909D01*
X-424211Y4744020D01*
X-227534Y4680116D01*
X-22191Y4655630D01*
X-16056Y4656102D01*
X-16054Y4656102D01*
X177856Y4671023D01*
X177860Y4671024D01*
X183998Y4671496D01*
X383178Y4727108D01*
X388682Y4729888D01*
X388684Y4729889D01*
X562262Y4817569D01*
X562264Y4817570D01*
X567763Y4820348D01*
X730722Y4947666D01*
X734748Y4952330D01*
X734751Y4952333D01*
X861819Y5099543D01*
X861820Y5099545D01*
X865848Y5104211D01*
X932343Y5221263D01*
X964950Y5278660D01*
X964952Y5278664D01*
X967995Y5284021D01*
X1000632Y5382134D01*
X1031325Y5474399D01*
X1031326Y5474402D01*
X1033270Y5480247D01*
X1059189Y5685414D01*
X1059602Y5715000D01*
X1058151Y5729794D01*
X1480501Y5729794D01*
X1497806Y5523722D01*
X1554807Y5324934D01*
X1557625Y5319452D01*
X1557626Y5319448D01*
X1646514Y5146491D01*
X1646517Y5146487D01*
X1649334Y5141005D01*
X1777786Y4978939D01*
X1782479Y4974945D01*
X1782480Y4974944D01*
X1927305Y4851689D01*
X1935271Y4844909D01*
X2115789Y4744020D01*
X2312466Y4680116D01*
X2517809Y4655630D01*
X2523944Y4656102D01*
X2523946Y4656102D01*
X2717856Y4671023D01*
X2717860Y4671024D01*
X2723998Y4671496D01*
X2923178Y4727108D01*
X2928682Y4729888D01*
X2928684Y4729889D01*
X3102262Y4817569D01*
X3102264Y4817570D01*
X3107763Y4820348D01*
X3270722Y4947666D01*
X3274748Y4952330D01*
X3274751Y4952333D01*
X3401819Y5099543D01*
X3401820Y5099545D01*
X3405848Y5104211D01*
X3472343Y5221263D01*
X3504950Y5278660D01*
X3504952Y5278664D01*
X3507995Y5284021D01*
X3540632Y5382134D01*
X3571325Y5474399D01*
X3571326Y5474402D01*
X3573270Y5480247D01*
X3599189Y5685414D01*
X3599602Y5715000D01*
X3598151Y5729794D01*
X4020501Y5729794D01*
X4037806Y5523722D01*
X4094807Y5324934D01*
X4097625Y5319452D01*
X4097626Y5319448D01*
X4186514Y5146491D01*
X4186517Y5146487D01*
X4189334Y5141005D01*
X4317786Y4978939D01*
X4322479Y4974945D01*
X4322480Y4974944D01*
X4467305Y4851689D01*
X4475271Y4844909D01*
X4655789Y4744020D01*
X4852466Y4680116D01*
X5057809Y4655630D01*
X5063944Y4656102D01*
X5063946Y4656102D01*
X5257856Y4671023D01*
X5257860Y4671024D01*
X5263998Y4671496D01*
X5463178Y4727108D01*
X5468682Y4729888D01*
X5468684Y4729889D01*
X5642262Y4817569D01*
X5642264Y4817570D01*
X5647763Y4820348D01*
X5810722Y4947666D01*
X5814748Y4952330D01*
X5814751Y4952333D01*
X5941819Y5099543D01*
X5941820Y5099545D01*
X5945848Y5104211D01*
X6012343Y5221263D01*
X6041017Y5271737D01*
X6092057Y5321088D01*
X6150573Y5335500D01*
X6552467Y5335500D01*
X6620588Y5315498D01*
X6664533Y5267094D01*
X6726514Y5146491D01*
X6726517Y5146487D01*
X6729334Y5141005D01*
X6857786Y4978939D01*
X6862479Y4974945D01*
X6862480Y4974944D01*
X7007305Y4851689D01*
X7015271Y4844909D01*
X7195789Y4744020D01*
X7392466Y4680116D01*
X7597809Y4655630D01*
X7603944Y4656102D01*
X7603946Y4656102D01*
X7797856Y4671023D01*
X7797860Y4671024D01*
X7803998Y4671496D01*
X8003178Y4727108D01*
X8008682Y4729888D01*
X8008684Y4729889D01*
X8182262Y4817569D01*
X8182264Y4817570D01*
X8187763Y4820348D01*
X8350722Y4947666D01*
X8354748Y4952330D01*
X8354751Y4952333D01*
X8481819Y5099543D01*
X8481820Y5099545D01*
X8485848Y5104211D01*
X8552343Y5221263D01*
X8584950Y5278660D01*
X8584952Y5278664D01*
X8587995Y5284021D01*
X8620633Y5382134D01*
X8651325Y5474399D01*
X8651326Y5474402D01*
X8653270Y5480247D01*
X8679189Y5685414D01*
X8679602Y5715000D01*
X8659422Y5920811D01*
X8599651Y6118783D01*
X8551108Y6210079D01*
X8505459Y6295933D01*
X8505457Y6295936D01*
X8502565Y6301375D01*
X8498674Y6306145D01*
X8498672Y6306149D01*
X8375758Y6456857D01*
X8375755Y6456860D01*
X8371863Y6461632D01*
X8365400Y6466979D01*
X8217271Y6589522D01*
X8217266Y6589525D01*
X8212522Y6593450D01*
X8207103Y6596380D01*
X8207100Y6596382D01*
X8036032Y6688878D01*
X8036027Y6688880D01*
X8030612Y6691808D01*
X7833063Y6752960D01*
X7826938Y6753604D01*
X7826937Y6753604D01*
X7633526Y6773932D01*
X7633524Y6773932D01*
X7627397Y6774576D01*
X7501229Y6763094D01*
X7427591Y6756393D01*
X7427590Y6756393D01*
X7421450Y6755834D01*
X7223066Y6697446D01*
X7217601Y6694589D01*
X7045261Y6604492D01*
X7045257Y6604489D01*
X7039801Y6601637D01*
X6878635Y6472057D01*
X6745708Y6313640D01*
X6661131Y6159796D01*
X6610788Y6109740D01*
X6550719Y6094500D01*
X6148270Y6094500D01*
X6080149Y6114502D01*
X6037019Y6161347D01*
X5965459Y6295933D01*
X5965457Y6295936D01*
X5962565Y6301375D01*
X5958674Y6306145D01*
X5958672Y6306149D01*
X5835758Y6456857D01*
X5835755Y6456860D01*
X5831863Y6461632D01*
X5825400Y6466979D01*
X5677271Y6589522D01*
X5677266Y6589525D01*
X5672522Y6593450D01*
X5667103Y6596380D01*
X5667100Y6596382D01*
X5496032Y6688878D01*
X5496027Y6688880D01*
X5490612Y6691808D01*
X5293063Y6752960D01*
X5286938Y6753604D01*
X5286937Y6753604D01*
X5093526Y6773932D01*
X5093524Y6773932D01*
X5087397Y6774576D01*
X4961229Y6763094D01*
X4887591Y6756393D01*
X4887590Y6756393D01*
X4881450Y6755834D01*
X4683066Y6697446D01*
X4677601Y6694589D01*
X4505261Y6604492D01*
X4505257Y6604489D01*
X4499801Y6601637D01*
X4338635Y6472057D01*
X4205708Y6313640D01*
X4106082Y6132422D01*
X4043553Y5935304D01*
X4042867Y5929187D01*
X4042866Y5929183D01*
X4021188Y5735919D01*
X4020501Y5729794D01*
X3598151Y5729794D01*
X3579422Y5920811D01*
X3519651Y6118783D01*
X3471108Y6210079D01*
X3425459Y6295933D01*
X3425457Y6295936D01*
X3422565Y6301375D01*
X3418674Y6306145D01*
X3418672Y6306149D01*
X3295758Y6456857D01*
X3295755Y6456860D01*
X3291863Y6461632D01*
X3285400Y6466979D01*
X3137271Y6589522D01*
X3137266Y6589525D01*
X3132522Y6593450D01*
X3127103Y6596380D01*
X3127100Y6596382D01*
X2956032Y6688878D01*
X2956027Y6688880D01*
X2950612Y6691808D01*
X2753063Y6752960D01*
X2746938Y6753604D01*
X2746937Y6753604D01*
X2553526Y6773932D01*
X2553524Y6773932D01*
X2547397Y6774576D01*
X2421229Y6763094D01*
X2347591Y6756393D01*
X2347590Y6756393D01*
X2341450Y6755834D01*
X2143066Y6697446D01*
X2137601Y6694589D01*
X1965261Y6604492D01*
X1965257Y6604489D01*
X1959801Y6601637D01*
X1798635Y6472057D01*
X1665708Y6313640D01*
X1566082Y6132422D01*
X1503553Y5935304D01*
X1502867Y5929187D01*
X1502866Y5929183D01*
X1481188Y5735919D01*
X1480501Y5729794D01*
X1058151Y5729794D01*
X1039422Y5920811D01*
X979651Y6118783D01*
X931108Y6210079D01*
X885459Y6295933D01*
X885457Y6295936D01*
X882565Y6301375D01*
X878674Y6306145D01*
X878672Y6306149D01*
X755758Y6456857D01*
X755755Y6456860D01*
X751863Y6461632D01*
X745400Y6466979D01*
X597271Y6589522D01*
X597266Y6589525D01*
X592522Y6593450D01*
X587103Y6596380D01*
X587100Y6596382D01*
X416032Y6688878D01*
X416027Y6688880D01*
X410612Y6691808D01*
X213063Y6752960D01*
X206938Y6753604D01*
X206937Y6753604D01*
X13526Y6773932D01*
X13524Y6773932D01*
X7397Y6774576D01*
X-118771Y6763094D01*
X-192409Y6756393D01*
X-192410Y6756393D01*
X-198550Y6755834D01*
X-396934Y6697446D01*
X-402399Y6694589D01*
X-574739Y6604492D01*
X-574743Y6604489D01*
X-580199Y6601637D01*
X-741365Y6472057D01*
X-874292Y6313640D01*
X-973918Y6132422D01*
X-1036447Y5935304D01*
X-1037133Y5929187D01*
X-1037134Y5929183D01*
X-1058812Y5735919D01*
X-1059499Y5729794D01*
X-1481849Y5729794D01*
X-1500578Y5920811D01*
X-1560349Y6118783D01*
X-1608892Y6210079D01*
X-1654541Y6295933D01*
X-1654543Y6295936D01*
X-1657435Y6301375D01*
X-1661326Y6306145D01*
X-1661328Y6306149D01*
X-1784242Y6456857D01*
X-1784245Y6456860D01*
X-1788137Y6461632D01*
X-1794600Y6466979D01*
X-1942729Y6589522D01*
X-1942734Y6589525D01*
X-1947478Y6593450D01*
X-1952897Y6596380D01*
X-1952900Y6596382D01*
X-2123968Y6688878D01*
X-2123973Y6688880D01*
X-2129388Y6691808D01*
X-2326937Y6752960D01*
X-2333062Y6753604D01*
X-2333063Y6753604D01*
X-2526474Y6773932D01*
X-2526476Y6773932D01*
X-2532603Y6774576D01*
X-2658771Y6763094D01*
X-2732409Y6756393D01*
X-2732410Y6756393D01*
X-2738550Y6755834D01*
X-2857322Y6720877D01*
X-2902882Y6707468D01*
X-2973878Y6707422D01*
X-3027552Y6739246D01*
X-4773522Y8485216D01*
X-4788664Y8503964D01*
X-4789779Y8505189D01*
X-4795429Y8513940D01*
X-4803607Y8520387D01*
X-4803609Y8520389D01*
X-4821800Y8534729D01*
X-4826241Y8538675D01*
X-4826303Y8538602D01*
X-4830267Y8541961D01*
X-4833944Y8545638D01*
X-4849692Y8556892D01*
X-4854362Y8560398D01*
X-4894647Y8592156D01*
X-4903281Y8595188D01*
X-4910734Y8600514D01*
X-4959850Y8615203D01*
X-4965492Y8617036D01*
X-5006367Y8631390D01*
X-5006368Y8631390D01*
X-5013851Y8634018D01*
X-5019416Y8634500D01*
X-5022124Y8634500D01*
X-5024758Y8634614D01*
X-5024856Y8634643D01*
X-5024849Y8634807D01*
X-5025553Y8634851D01*
X-5031778Y8636713D01*
X-5085635Y8634597D01*
X-5090582Y8634500D01*
X-7186730Y8634500D01*
X-7254851Y8654502D01*
X-7297981Y8701347D01*
X-7369541Y8835933D01*
X-7369543Y8835936D01*
X-7372435Y8841375D01*
X-7376326Y8846145D01*
X-7376328Y8846149D01*
X-7499242Y8996857D01*
X-7499245Y8996860D01*
X-7503137Y9001632D01*
X-7512181Y9009114D01*
X-7657729Y9129522D01*
X-7657734Y9129525D01*
X-7662478Y9133450D01*
X-7667897Y9136380D01*
X-7667900Y9136382D01*
X-7838968Y9228878D01*
X-7838973Y9228880D01*
X-7844388Y9231808D01*
X-8041937Y9292960D01*
X-8048062Y9293604D01*
X-8048063Y9293604D01*
X-8241474Y9313932D01*
X-8241476Y9313932D01*
X-8247603Y9314576D01*
X-8373771Y9303094D01*
X-8447409Y9296393D01*
X-8447410Y9296393D01*
X-8453550Y9295834D01*
X-8651934Y9237446D01*
X-8657399Y9234589D01*
X-8829739Y9144492D01*
X-8829743Y9144489D01*
X-8835199Y9141637D01*
X-8996365Y9012057D01*
X-9129292Y8853640D01*
X-9228918Y8672422D01*
X-9291447Y8475304D01*
X-9292133Y8469187D01*
X-9292134Y8469183D01*
X-9302681Y8375156D01*
X-9314499Y8269794D01*
X-17356849Y8269794D01*
X-17375578Y8460811D01*
X-17435349Y8658783D01*
X-17532435Y8841375D01*
X-17536326Y8846145D01*
X-17536328Y8846149D01*
X-17659242Y8996857D01*
X-17659245Y8996860D01*
X-17663137Y9001632D01*
X-17672181Y9009114D01*
X-17817729Y9129522D01*
X-17817734Y9129525D01*
X-17822478Y9133450D01*
X-17827897Y9136380D01*
X-17827900Y9136382D01*
X-17998968Y9228878D01*
X-17998973Y9228880D01*
X-18004388Y9231808D01*
X-18201937Y9292960D01*
X-18208062Y9293604D01*
X-18208063Y9293604D01*
X-18401474Y9313932D01*
X-18401476Y9313932D01*
X-18407603Y9314576D01*
X-18533771Y9303094D01*
X-18607409Y9296393D01*
X-18607410Y9296393D01*
X-18613550Y9295834D01*
X-18811934Y9237446D01*
X-18817399Y9234589D01*
X-18989739Y9144492D01*
X-18989743Y9144489D01*
X-18995199Y9141637D01*
X-19156365Y9012057D01*
X-19289292Y8853640D01*
X-19388918Y8672422D01*
X-19451447Y8475304D01*
X-19452133Y8469187D01*
X-19452134Y8469183D01*
X-19462681Y8375156D01*
X-19474499Y8269794D01*
X-19457194Y8063722D01*
X-19455495Y8057797D01*
X-19407629Y7890866D01*
X-19408080Y7819871D01*
X-19439653Y7767041D01*
X-20550216Y6656478D01*
X-20568964Y6641336D01*
X-20570189Y6640221D01*
X-20578940Y6634571D01*
X-20585387Y6626393D01*
X-20585389Y6626391D01*
X-20599729Y6608200D01*
X-20603675Y6603759D01*
X-20603602Y6603697D01*
X-20606961Y6599733D01*
X-20610638Y6596056D01*
X-20621892Y6580308D01*
X-20625398Y6575638D01*
X-20657156Y6535353D01*
X-20660188Y6526719D01*
X-20665514Y6519266D01*
X-20679632Y6472057D01*
X-20680201Y6470156D01*
X-20682036Y6464508D01*
X-20699018Y6416149D01*
X-20699500Y6410584D01*
X-20699500Y6407876D01*
X-20699614Y6405242D01*
X-20699643Y6405144D01*
X-20699807Y6405151D01*
X-20699851Y6404447D01*
X-20701713Y6398222D01*
X-20701304Y6387817D01*
X-20699597Y6344365D01*
X-20699500Y6339418D01*
X-20699500Y3701884D01*
X-20719502Y3633763D01*
X-20736405Y3612789D01*
X-22662789Y1686405D01*
X-22725101Y1652379D01*
X-22751884Y1649500D01*
X-23007208Y1649500D01*
X-23075329Y1669502D01*
X-23120214Y1719772D01*
X-23181669Y1844391D01*
X-23184224Y1849572D01*
X-23305680Y2012221D01*
X-23454742Y2150013D01*
X-23459625Y2153094D01*
X-23459629Y2153097D01*
X-23621536Y2255252D01*
X-23626419Y2258333D01*
X-23814961Y2333554D01*
X-23820621Y2334680D01*
X-23820625Y2334681D01*
X-24008387Y2372029D01*
X-24008390Y2372029D01*
X-24014054Y2373156D01*
X-24019829Y2373232D01*
X-24019833Y2373232D01*
X-24121207Y2374559D01*
X-24217029Y2375813D01*
X-24222726Y2374834D01*
X-24222727Y2374834D01*
X-24411393Y2342415D01*
X-24417090Y2341436D01*
X-24607537Y2271176D01*
X-24781990Y2167388D01*
X-24786330Y2163582D01*
X-24786334Y2163579D01*
X-24806277Y2146089D01*
X-24934608Y2033545D01*
X-25060280Y1874131D01*
X-25062969Y1869020D01*
X-25062971Y1869017D01*
X-25075927Y1844391D01*
X-25154797Y1694485D01*
X-25204263Y1535179D01*
X-25212229Y1509522D01*
X-25214993Y1500622D01*
X-25238852Y1299036D01*
X-25563436Y1299036D01*
X-25579342Y1472141D01*
X-25580910Y1477701D01*
X-25632875Y1661954D01*
X-25632876Y1661956D01*
X-25634443Y1667513D01*
X-25637446Y1673604D01*
X-25721669Y1844391D01*
X-25724224Y1849572D01*
X-25845680Y2012221D01*
X-25994742Y2150013D01*
X-25999625Y2153094D01*
X-25999629Y2153097D01*
X-26161536Y2255252D01*
X-26166419Y2258333D01*
X-26354961Y2333554D01*
X-26360621Y2334680D01*
X-26360625Y2334681D01*
X-26548387Y2372029D01*
X-26548390Y2372029D01*
X-26554054Y2373156D01*
X-26559829Y2373232D01*
X-26559833Y2373232D01*
X-26661207Y2374559D01*
X-26757029Y2375813D01*
X-26762726Y2374834D01*
X-26762727Y2374834D01*
X-26951393Y2342415D01*
X-26957090Y2341436D01*
X-27147537Y2271176D01*
X-27321990Y2167388D01*
X-27326330Y2163582D01*
X-27326334Y2163579D01*
X-27346277Y2146089D01*
X-27474608Y2033545D01*
X-27600280Y1874131D01*
X-27602969Y1869020D01*
X-27602971Y1869017D01*
X-27615927Y1844391D01*
X-27694797Y1694485D01*
X-27744263Y1535179D01*
X-27752229Y1509522D01*
X-27754993Y1500622D01*
X-27778852Y1299036D01*
X-31746000Y1299036D01*
X-31746000Y3162244D01*
X-27774500Y3162244D01*
X-27767798Y3100552D01*
X-27765026Y3093159D01*
X-27765026Y3093157D01*
X-27762184Y3085576D01*
X-27717071Y2965236D01*
X-27711691Y2958057D01*
X-27711689Y2958054D01*
X-27667840Y2899547D01*
X-27630404Y2849596D01*
X-27623224Y2844215D01*
X-27521946Y2768311D01*
X-27521943Y2768309D01*
X-27514764Y2762929D01*
X-27435653Y2733272D01*
X-27386843Y2714974D01*
X-27386841Y2714974D01*
X-27379448Y2712202D01*
X-27371598Y2711349D01*
X-27371597Y2711349D01*
X-27321153Y2705869D01*
X-27317756Y2705500D01*
X-26022244Y2705500D01*
X-26018847Y2705869D01*
X-25968403Y2711349D01*
X-25968402Y2711349D01*
X-25960552Y2712202D01*
X-25953159Y2714974D01*
X-25953157Y2714974D01*
X-25904347Y2733272D01*
X-25825236Y2762929D01*
X-25818057Y2768309D01*
X-25818054Y2768311D01*
X-25716776Y2844215D01*
X-25709596Y2849596D01*
X-25672160Y2899547D01*
X-25628311Y2958054D01*
X-25628309Y2958057D01*
X-25622929Y2965236D01*
X-25577816Y3085576D01*
X-25574974Y3093157D01*
X-25574974Y3093159D01*
X-25572202Y3100552D01*
X-25565500Y3162244D01*
X-25565500Y3839036D01*
X-25238852Y3839036D01*
X-25225576Y3636478D01*
X-25224155Y3630882D01*
X-25224154Y3630877D01*
X-25190441Y3498135D01*
X-25175608Y3439731D01*
X-25173191Y3434488D01*
X-25094856Y3264567D01*
X-25090623Y3255384D01*
X-25087290Y3250668D01*
X-24981199Y3100552D01*
X-24973467Y3089611D01*
X-24828062Y2947965D01*
X-24659280Y2835188D01*
X-24653977Y2832910D01*
X-24653974Y2832908D01*
X-24478079Y2757338D01*
X-24472772Y2755058D01*
X-24399756Y2738536D01*
X-24280421Y2711533D01*
X-24280416Y2711532D01*
X-24274784Y2710258D01*
X-24269013Y2710031D01*
X-24269011Y2710031D01*
X-24209244Y2707683D01*
X-24071947Y2702288D01*
X-23971501Y2716852D01*
X-23876769Y2730587D01*
X-23876764Y2730588D01*
X-23871055Y2731416D01*
X-23865591Y2733271D01*
X-23865586Y2733272D01*
X-23684307Y2794808D01*
X-23684302Y2794810D01*
X-23678835Y2796666D01*
X-23501724Y2895853D01*
X-23462869Y2928168D01*
X-23350087Y3021969D01*
X-23345655Y3025655D01*
X-23276834Y3108403D01*
X-23219547Y3177282D01*
X-23219545Y3177285D01*
X-23215853Y3181724D01*
X-23116666Y3358835D01*
X-23116213Y3358581D01*
X-23072632Y3409849D01*
X-23003512Y3430500D01*
X-22913920Y3430500D01*
X-22889972Y3427951D01*
X-22888307Y3427872D01*
X-22878124Y3425680D01*
X-22867783Y3426904D01*
X-22844777Y3429627D01*
X-22838846Y3429977D01*
X-22838854Y3430072D01*
X-22833676Y3430500D01*
X-22828476Y3430500D01*
X-22823347Y3431354D01*
X-22823344Y3431354D01*
X-22809435Y3433669D01*
X-22803557Y3434506D01*
X-22762999Y3439306D01*
X-22762998Y3439306D01*
X-22752659Y3440530D01*
X-22744407Y3444493D01*
X-22735374Y3445996D01*
X-22726205Y3450943D01*
X-22726203Y3450944D01*
X-22690268Y3470334D01*
X-22684975Y3473031D01*
X-22645918Y3491785D01*
X-22645914Y3491788D01*
X-22638768Y3495219D01*
X-22634492Y3498814D01*
X-22632569Y3500737D01*
X-22630637Y3502509D01*
X-22630558Y3502552D01*
X-22630445Y3502428D01*
X-22629905Y3502904D01*
X-22624186Y3505990D01*
X-22587583Y3545587D01*
X-22584154Y3549152D01*
X-21359784Y4773522D01*
X-21341036Y4788664D01*
X-21339811Y4789779D01*
X-21331060Y4795429D01*
X-21324613Y4803607D01*
X-21324611Y4803609D01*
X-21310271Y4821800D01*
X-21306322Y4826244D01*
X-21306396Y4826306D01*
X-21303043Y4830263D01*
X-21299362Y4833944D01*
X-21288135Y4849654D01*
X-21284579Y4854391D01*
X-21263258Y4881436D01*
X-21252844Y4894647D01*
X-21249811Y4903284D01*
X-21244487Y4910734D01*
X-21229798Y4959849D01*
X-21227966Y4965486D01*
X-21213610Y5006367D01*
X-21213610Y5006368D01*
X-21210982Y5013851D01*
X-21210500Y5019416D01*
X-21210500Y5022124D01*
X-21210386Y5024758D01*
X-21210357Y5024856D01*
X-21210193Y5024849D01*
X-21210149Y5025553D01*
X-21208287Y5031778D01*
X-21210403Y5085635D01*
X-21210500Y5090582D01*
X-21210500Y8045616D01*
X-21190498Y8113737D01*
X-21173595Y8134711D01*
X-18901413Y10406893D01*
X-18839101Y10440919D01*
X-18773382Y10437631D01*
X-18642534Y10395116D01*
X-18437191Y10370630D01*
X-18431056Y10371102D01*
X-18431054Y10371102D01*
X-18237144Y10386023D01*
X-18237140Y10386024D01*
X-18231002Y10386496D01*
X-18031822Y10442108D01*
X-18026318Y10444888D01*
X-18026316Y10444889D01*
X-17852738Y10532569D01*
X-17852736Y10532570D01*
X-17847237Y10535348D01*
X-17684278Y10662666D01*
X-17680252Y10667330D01*
X-17680249Y10667333D01*
X-17553181Y10814543D01*
X-17553180Y10814545D01*
X-17549152Y10819211D01*
X-17447005Y10999021D01*
X-17404522Y11126730D01*
X-17383675Y11189399D01*
X-17383674Y11189402D01*
X-17381730Y11195247D01*
X-17355811Y11400414D01*
X-17355398Y11430000D01*
X-17356849Y11444794D01*
X-9314499Y11444794D01*
X-9297194Y11238722D01*
X-9240193Y11039934D01*
X-9237375Y11034452D01*
X-9237374Y11034448D01*
X-9148486Y10861491D01*
X-9148483Y10861487D01*
X-9145666Y10856005D01*
X-9017214Y10693939D01*
X-9012521Y10689945D01*
X-9012520Y10689944D01*
X-8904247Y10597797D01*
X-8859729Y10559909D01*
X-8679211Y10459020D01*
X-8482534Y10395116D01*
X-8277191Y10370630D01*
X-8271056Y10371102D01*
X-8271054Y10371102D01*
X-8077144Y10386023D01*
X-8077140Y10386024D01*
X-8071002Y10386496D01*
X-7871822Y10442108D01*
X-7866318Y10444888D01*
X-7866316Y10444889D01*
X-7692738Y10532569D01*
X-7692736Y10532570D01*
X-7687237Y10535348D01*
X-7524278Y10662666D01*
X-7520252Y10667330D01*
X-7520249Y10667333D01*
X-7393181Y10814543D01*
X-7393180Y10814545D01*
X-7389152Y10819211D01*
X-7293983Y10986737D01*
X-7242943Y11036088D01*
X-7184427Y11050500D01*
X-5289384Y11050500D01*
X-5221263Y11030498D01*
X-5200289Y11013595D01*
X-2211478Y8024784D01*
X-2196336Y8006036D01*
X-2195221Y8004811D01*
X-2189571Y7996060D01*
X-2181393Y7989613D01*
X-2181391Y7989611D01*
X-2163200Y7975271D01*
X-2158759Y7971325D01*
X-2158697Y7971398D01*
X-2154733Y7968039D01*
X-2151056Y7964362D01*
X-2135308Y7953108D01*
X-2130638Y7949602D01*
X-2090353Y7917844D01*
X-2081719Y7914812D01*
X-2074266Y7909486D01*
X-2025150Y7894797D01*
X-2019508Y7892964D01*
X-1978633Y7878610D01*
X-1971149Y7875982D01*
X-1965584Y7875500D01*
X-1962876Y7875500D01*
X-1960242Y7875386D01*
X-1960144Y7875357D01*
X-1960151Y7875193D01*
X-1959447Y7875149D01*
X-1953222Y7873287D01*
X-1899365Y7875403D01*
X-1894418Y7875500D01*
X7410616Y7875500D01*
X7478737Y7855498D01*
X7499711Y7838595D01*
X9136680Y6201625D01*
X9170706Y6139313D01*
X9167687Y6074434D01*
X9123553Y5935304D01*
X9122867Y5929187D01*
X9122866Y5929183D01*
X9101188Y5735919D01*
X9100501Y5729794D01*
X9117806Y5523722D01*
X9174807Y5324934D01*
X9177625Y5319452D01*
X9177626Y5319448D01*
X9266514Y5146491D01*
X9266517Y5146487D01*
X9269334Y5141005D01*
X9397786Y4978939D01*
X9402479Y4974945D01*
X9402480Y4974944D01*
X9547305Y4851689D01*
X9555271Y4844909D01*
X9735789Y4744020D01*
X9932466Y4680116D01*
X10137809Y4655630D01*
X10143944Y4656102D01*
X10143946Y4656102D01*
X10337856Y4671023D01*
X10337860Y4671024D01*
X10343998Y4671496D01*
X10543178Y4727108D01*
X10548682Y4729888D01*
X10548684Y4729889D01*
X10711360Y4812062D01*
X14066892Y4812062D01*
X14071801Y4805504D01*
X14175612Y4747486D01*
X14186851Y4742576D01*
X14371715Y4682510D01*
X14383689Y4679877D01*
X14576708Y4656861D01*
X14588957Y4656604D01*
X14782769Y4671517D01*
X14794849Y4673648D01*
X14982061Y4725919D01*
X14993494Y4730353D01*
X15134749Y4801706D01*
X15145033Y4811351D01*
X15142795Y4817995D01*
X14617812Y5342978D01*
X14603868Y5350592D01*
X14602035Y5350461D01*
X14595420Y5346210D01*
X14073652Y4824442D01*
X14066892Y4812062D01*
X10711360Y4812062D01*
X10722262Y4817569D01*
X10722264Y4817570D01*
X10727763Y4820348D01*
X10890722Y4947666D01*
X10894748Y4952330D01*
X10894751Y4952333D01*
X11021819Y5099543D01*
X11021820Y5099545D01*
X11025848Y5104211D01*
X11092343Y5221263D01*
X11124950Y5278660D01*
X11124952Y5278664D01*
X11127995Y5284021D01*
X11160633Y5382134D01*
X11191325Y5474399D01*
X11191326Y5474402D01*
X11193270Y5480247D01*
X11219189Y5685414D01*
X11219602Y5715000D01*
X11218755Y5723643D01*
X13546519Y5723643D01*
X13562783Y5529951D01*
X13564997Y5517892D01*
X13618576Y5331039D01*
X13623089Y5319642D01*
X13691984Y5185586D01*
X13701701Y5175368D01*
X13708502Y5177712D01*
X14232978Y5702188D01*
X14239356Y5713868D01*
X14969408Y5713868D01*
X14969539Y5712035D01*
X14973790Y5705420D01*
X15495401Y5183809D01*
X15507781Y5177049D01*
X15514515Y5182090D01*
X15569490Y5278862D01*
X15574483Y5290078D01*
X15627358Y5449025D01*
X16759744Y5449025D01*
X16793576Y5331041D01*
X16798092Y5319636D01*
X16886935Y5146765D01*
X16893587Y5136444D01*
X17014318Y4984117D01*
X17022841Y4975292D01*
X17170865Y4849314D01*
X17180934Y4842316D01*
X17350612Y4747486D01*
X17361851Y4742576D01*
X17508769Y4694839D01*
X17522867Y4694436D01*
X17526000Y4700808D01*
X17526000Y4709674D01*
X18034000Y4709674D01*
X18037973Y4696143D01*
X18046188Y4694962D01*
X18157061Y4725919D01*
X18168494Y4730353D01*
X18341998Y4817996D01*
X18352348Y4824564D01*
X18505519Y4944236D01*
X18514405Y4952697D01*
X18641409Y5099833D01*
X18648483Y5109862D01*
X18744489Y5278862D01*
X18749483Y5290078D01*
X18800623Y5443810D01*
X18801124Y5457903D01*
X18794935Y5461000D01*
X18052115Y5461000D01*
X18036876Y5456525D01*
X18035671Y5455135D01*
X18034000Y5447452D01*
X18034000Y4709674D01*
X17526000Y4709674D01*
X17526000Y5442885D01*
X17521525Y5458124D01*
X17520135Y5459329D01*
X17512452Y5461000D01*
X16774425Y5461000D01*
X16760894Y5457027D01*
X16759744Y5449025D01*
X15627358Y5449025D01*
X15635834Y5474506D01*
X15638554Y5486477D01*
X15663244Y5681925D01*
X15663736Y5688952D01*
X15664051Y5711477D01*
X15663756Y5718506D01*
X15662649Y5729794D01*
X19260501Y5729794D01*
X19277806Y5523722D01*
X19334807Y5324934D01*
X19337625Y5319452D01*
X19337626Y5319448D01*
X19426514Y5146491D01*
X19426517Y5146487D01*
X19429334Y5141005D01*
X19557786Y4978939D01*
X19562479Y4974945D01*
X19562480Y4974944D01*
X19707305Y4851689D01*
X19715271Y4844909D01*
X19895789Y4744020D01*
X20092466Y4680116D01*
X20297809Y4655630D01*
X20303944Y4656102D01*
X20303946Y4656102D01*
X20497856Y4671023D01*
X20497860Y4671024D01*
X20503998Y4671496D01*
X20703178Y4727108D01*
X20708682Y4729888D01*
X20708684Y4729889D01*
X20882262Y4817569D01*
X20882264Y4817570D01*
X20887763Y4820348D01*
X21050722Y4947666D01*
X21054748Y4952330D01*
X21054751Y4952333D01*
X21181819Y5099543D01*
X21181820Y5099545D01*
X21185848Y5104211D01*
X21252343Y5221263D01*
X21284950Y5278660D01*
X21284952Y5278664D01*
X21287995Y5284021D01*
X21320633Y5382134D01*
X21351325Y5474399D01*
X21351326Y5474402D01*
X21353270Y5480247D01*
X21379189Y5685414D01*
X21379602Y5715000D01*
X21378151Y5729794D01*
X21800501Y5729794D01*
X21817806Y5523722D01*
X21874807Y5324934D01*
X21877625Y5319452D01*
X21877626Y5319448D01*
X21966514Y5146491D01*
X21966517Y5146487D01*
X21969334Y5141005D01*
X22097786Y4978939D01*
X22102479Y4974945D01*
X22102480Y4974944D01*
X22247305Y4851689D01*
X22255271Y4844909D01*
X22435789Y4744020D01*
X22632466Y4680116D01*
X22837809Y4655630D01*
X22843944Y4656102D01*
X22843946Y4656102D01*
X23037856Y4671023D01*
X23037860Y4671024D01*
X23043998Y4671496D01*
X23243178Y4727108D01*
X23248682Y4729888D01*
X23248684Y4729889D01*
X23422262Y4817569D01*
X23422264Y4817570D01*
X23427763Y4820348D01*
X23590722Y4947666D01*
X23594748Y4952330D01*
X23594751Y4952333D01*
X23721819Y5099543D01*
X23721820Y5099545D01*
X23725848Y5104211D01*
X23792343Y5221263D01*
X23824950Y5278660D01*
X23824952Y5278664D01*
X23827995Y5284021D01*
X23860633Y5382134D01*
X23891325Y5474399D01*
X23891326Y5474402D01*
X23893270Y5480247D01*
X23919189Y5685414D01*
X23919602Y5715000D01*
X23918151Y5729794D01*
X24340501Y5729794D01*
X24357806Y5523722D01*
X24414807Y5324934D01*
X24417625Y5319452D01*
X24417626Y5319448D01*
X24506514Y5146491D01*
X24506517Y5146487D01*
X24509334Y5141005D01*
X24637786Y4978939D01*
X24642479Y4974945D01*
X24642480Y4974944D01*
X24787305Y4851689D01*
X24795271Y4844909D01*
X24975789Y4744020D01*
X25172466Y4680116D01*
X25377809Y4655630D01*
X25383944Y4656102D01*
X25383946Y4656102D01*
X25577856Y4671023D01*
X25577860Y4671024D01*
X25583998Y4671496D01*
X25783178Y4727108D01*
X25788682Y4729888D01*
X25788684Y4729889D01*
X25962262Y4817569D01*
X25962264Y4817570D01*
X25967763Y4820348D01*
X26130722Y4947666D01*
X26134748Y4952330D01*
X26134751Y4952333D01*
X26261819Y5099543D01*
X26261820Y5099545D01*
X26265848Y5104211D01*
X26332343Y5221263D01*
X26364950Y5278660D01*
X26364952Y5278664D01*
X26367995Y5284021D01*
X26400633Y5382134D01*
X26431325Y5474399D01*
X26431326Y5474402D01*
X26433270Y5480247D01*
X26459189Y5685414D01*
X26459602Y5715000D01*
X26439422Y5920811D01*
X26379651Y6118783D01*
X26331108Y6210079D01*
X26285459Y6295933D01*
X26285457Y6295936D01*
X26282565Y6301375D01*
X26278674Y6306145D01*
X26278672Y6306149D01*
X26155758Y6456857D01*
X26155755Y6456860D01*
X26151863Y6461632D01*
X26145400Y6466979D01*
X25997271Y6589522D01*
X25997266Y6589525D01*
X25992522Y6593450D01*
X25987103Y6596380D01*
X25987100Y6596382D01*
X25816032Y6688878D01*
X25816027Y6688880D01*
X25810612Y6691808D01*
X25613063Y6752960D01*
X25606938Y6753604D01*
X25606937Y6753604D01*
X25413526Y6773932D01*
X25413524Y6773932D01*
X25407397Y6774576D01*
X25281229Y6763094D01*
X25207591Y6756393D01*
X25207590Y6756393D01*
X25201450Y6755834D01*
X25003066Y6697446D01*
X24997601Y6694589D01*
X24825261Y6604492D01*
X24825257Y6604489D01*
X24819801Y6601637D01*
X24658635Y6472057D01*
X24525708Y6313640D01*
X24426082Y6132422D01*
X24363553Y5935304D01*
X24362867Y5929187D01*
X24362866Y5929183D01*
X24341188Y5735919D01*
X24340501Y5729794D01*
X23918151Y5729794D01*
X23899422Y5920811D01*
X23839651Y6118783D01*
X23791108Y6210079D01*
X23745459Y6295933D01*
X23745457Y6295936D01*
X23742565Y6301375D01*
X23738674Y6306145D01*
X23738672Y6306149D01*
X23615758Y6456857D01*
X23615755Y6456860D01*
X23611863Y6461632D01*
X23605400Y6466979D01*
X23457271Y6589522D01*
X23457266Y6589525D01*
X23452522Y6593450D01*
X23447103Y6596380D01*
X23447100Y6596382D01*
X23276032Y6688878D01*
X23276027Y6688880D01*
X23270612Y6691808D01*
X23073063Y6752960D01*
X23066938Y6753604D01*
X23066937Y6753604D01*
X22873526Y6773932D01*
X22873524Y6773932D01*
X22867397Y6774576D01*
X22741229Y6763094D01*
X22667591Y6756393D01*
X22667590Y6756393D01*
X22661450Y6755834D01*
X22463066Y6697446D01*
X22457601Y6694589D01*
X22285261Y6604492D01*
X22285257Y6604489D01*
X22279801Y6601637D01*
X22118635Y6472057D01*
X21985708Y6313640D01*
X21886082Y6132422D01*
X21823553Y5935304D01*
X21822867Y5929187D01*
X21822866Y5929183D01*
X21801188Y5735919D01*
X21800501Y5729794D01*
X21378151Y5729794D01*
X21359422Y5920811D01*
X21299651Y6118783D01*
X21251108Y6210079D01*
X21205459Y6295933D01*
X21205457Y6295936D01*
X21202565Y6301375D01*
X21198674Y6306145D01*
X21198672Y6306149D01*
X21075758Y6456857D01*
X21075755Y6456860D01*
X21071863Y6461632D01*
X21065400Y6466979D01*
X20917271Y6589522D01*
X20917266Y6589525D01*
X20912522Y6593450D01*
X20907103Y6596380D01*
X20907100Y6596382D01*
X20736032Y6688878D01*
X20736027Y6688880D01*
X20730612Y6691808D01*
X20533063Y6752960D01*
X20526938Y6753604D01*
X20526937Y6753604D01*
X20333526Y6773932D01*
X20333524Y6773932D01*
X20327397Y6774576D01*
X20201229Y6763094D01*
X20127591Y6756393D01*
X20127590Y6756393D01*
X20121450Y6755834D01*
X19923066Y6697446D01*
X19917601Y6694589D01*
X19745261Y6604492D01*
X19745257Y6604489D01*
X19739801Y6601637D01*
X19578635Y6472057D01*
X19445708Y6313640D01*
X19346082Y6132422D01*
X19283553Y5935304D01*
X19282867Y5929187D01*
X19282866Y5929183D01*
X19261188Y5735919D01*
X19260501Y5729794D01*
X15662649Y5729794D01*
X15644531Y5914581D01*
X15642148Y5926616D01*
X15628395Y5972168D01*
X16759940Y5972168D01*
X16766499Y5969000D01*
X17507885Y5969000D01*
X17523124Y5973475D01*
X17524329Y5974865D01*
X17526000Y5982548D01*
X17526000Y5987115D01*
X18034000Y5987115D01*
X18038475Y5971876D01*
X18039865Y5970671D01*
X18047548Y5969000D01*
X18786237Y5969000D01*
X18799768Y5972973D01*
X18800860Y5980567D01*
X18760968Y6112692D01*
X18756294Y6124033D01*
X18665043Y6295651D01*
X18658249Y6305876D01*
X18535395Y6456509D01*
X18526766Y6465199D01*
X18376986Y6589109D01*
X18366820Y6595965D01*
X18195836Y6688416D01*
X18184536Y6693166D01*
X18051307Y6734408D01*
X18037205Y6734614D01*
X18034000Y6727858D01*
X18034000Y5987115D01*
X17526000Y5987115D01*
X17526000Y6720877D01*
X17522027Y6734408D01*
X17514232Y6735528D01*
X17389163Y6698719D01*
X17377795Y6694126D01*
X17205536Y6604071D01*
X17195275Y6597357D01*
X17043787Y6475557D01*
X17035027Y6466979D01*
X16910080Y6318074D01*
X16903156Y6307963D01*
X16809510Y6137619D01*
X16804682Y6126355D01*
X16760244Y5986269D01*
X16759940Y5972168D01*
X15628395Y5972168D01*
X15585968Y6112692D01*
X15581294Y6124033D01*
X15517577Y6243867D01*
X15507717Y6253948D01*
X15500589Y6251379D01*
X14977022Y5727812D01*
X14969408Y5713868D01*
X14239356Y5713868D01*
X14240592Y5716132D01*
X14240461Y5717965D01*
X14236210Y5724580D01*
X13714247Y6246543D01*
X13701867Y6253303D01*
X13695479Y6248521D01*
X13634510Y6137619D01*
X13629682Y6126355D01*
X13570906Y5941069D01*
X13568358Y5929080D01*
X13546690Y5735912D01*
X13546519Y5723643D01*
X11218755Y5723643D01*
X11199422Y5920811D01*
X11139651Y6118783D01*
X11091108Y6210079D01*
X11045459Y6295933D01*
X11045457Y6295936D01*
X11042565Y6301375D01*
X11038674Y6306145D01*
X11038672Y6306149D01*
X10915758Y6456857D01*
X10915755Y6456860D01*
X10911863Y6461632D01*
X10905400Y6466979D01*
X10757271Y6589522D01*
X10757266Y6589525D01*
X10752522Y6593450D01*
X10747103Y6596380D01*
X10747100Y6596382D01*
X10707140Y6617988D01*
X14065730Y6617988D01*
X14068183Y6611027D01*
X14592188Y6087022D01*
X14606132Y6079408D01*
X14607965Y6079539D01*
X14614580Y6083790D01*
X15136777Y6605987D01*
X15143537Y6618367D01*
X15138878Y6624590D01*
X15020836Y6688415D01*
X15009531Y6693167D01*
X14823849Y6750646D01*
X14811836Y6753112D01*
X14618522Y6773430D01*
X14606254Y6773515D01*
X14412683Y6755899D01*
X14400634Y6753601D01*
X14214163Y6698719D01*
X14202795Y6694126D01*
X14075879Y6627776D01*
X14065730Y6617988D01*
X10707140Y6617988D01*
X10576032Y6688878D01*
X10576027Y6688880D01*
X10570612Y6691808D01*
X10373063Y6752960D01*
X10366938Y6753604D01*
X10366937Y6753604D01*
X10173526Y6773932D01*
X10173524Y6773932D01*
X10167397Y6774576D01*
X10041229Y6763094D01*
X9967591Y6756393D01*
X9967590Y6756393D01*
X9961450Y6755834D01*
X9842678Y6720877D01*
X9797118Y6707468D01*
X9726122Y6707422D01*
X9672448Y6739246D01*
X7926478Y8485216D01*
X7911336Y8503964D01*
X7910221Y8505189D01*
X7904571Y8513940D01*
X7896393Y8520387D01*
X7896391Y8520389D01*
X7878200Y8534729D01*
X7873759Y8538675D01*
X7873697Y8538602D01*
X7869733Y8541961D01*
X7866056Y8545638D01*
X7850308Y8556892D01*
X7845638Y8560398D01*
X7805353Y8592156D01*
X7796719Y8595188D01*
X7789266Y8600514D01*
X7740150Y8615203D01*
X7734508Y8617036D01*
X7693633Y8631390D01*
X7693632Y8631390D01*
X7686149Y8634018D01*
X7680584Y8634500D01*
X7677876Y8634500D01*
X7675242Y8634614D01*
X7675144Y8634643D01*
X7675151Y8634807D01*
X7674447Y8634851D01*
X7668222Y8636713D01*
X7614365Y8634597D01*
X7609418Y8634500D01*
X-1695616Y8634500D01*
X-1763737Y8654502D01*
X-1784711Y8671405D01*
X-3923100Y10809794D01*
X1480501Y10809794D01*
X1481743Y10795000D01*
X1495743Y10628293D01*
X1497806Y10603722D01*
X1554807Y10404934D01*
X1557625Y10399452D01*
X1557626Y10399448D01*
X1646514Y10226491D01*
X1646517Y10226487D01*
X1649334Y10221005D01*
X1777786Y10058939D01*
X1935271Y9924909D01*
X2115789Y9824020D01*
X2312466Y9760116D01*
X2517809Y9735630D01*
X2523944Y9736102D01*
X2523946Y9736102D01*
X2717856Y9751023D01*
X2717860Y9751024D01*
X2723998Y9751496D01*
X2923178Y9807108D01*
X2928682Y9809888D01*
X2928684Y9809889D01*
X3102262Y9897569D01*
X3102264Y9897570D01*
X3107763Y9900348D01*
X3270722Y10027666D01*
X3274748Y10032330D01*
X3274751Y10032333D01*
X3401819Y10179543D01*
X3401820Y10179545D01*
X3405848Y10184211D01*
X3507995Y10364021D01*
X3555836Y10507838D01*
X3571325Y10554399D01*
X3571326Y10554402D01*
X3573270Y10560247D01*
X3599189Y10765414D01*
X3599602Y10795000D01*
X3598151Y10809794D01*
X6560501Y10809794D01*
X6561743Y10795000D01*
X6575743Y10628293D01*
X6577806Y10603722D01*
X6634807Y10404934D01*
X6637625Y10399452D01*
X6637626Y10399448D01*
X6726514Y10226491D01*
X6726517Y10226487D01*
X6729334Y10221005D01*
X6857786Y10058939D01*
X7015271Y9924909D01*
X7195789Y9824020D01*
X7392466Y9760116D01*
X7597809Y9735630D01*
X7603944Y9736102D01*
X7603946Y9736102D01*
X7797856Y9751023D01*
X7797860Y9751024D01*
X7803998Y9751496D01*
X8003178Y9807108D01*
X8008682Y9809888D01*
X8008684Y9809889D01*
X8182262Y9897569D01*
X8182264Y9897570D01*
X8187763Y9900348D01*
X8350722Y10027666D01*
X8354748Y10032330D01*
X8354751Y10032333D01*
X8481819Y10179543D01*
X8481820Y10179545D01*
X8485848Y10184211D01*
X8581017Y10351737D01*
X8632057Y10401088D01*
X8690573Y10415500D01*
X9315616Y10415500D01*
X9383737Y10395498D01*
X9404711Y10378595D01*
X10488522Y9294784D01*
X10503664Y9276036D01*
X10504779Y9274811D01*
X10510429Y9266060D01*
X10518607Y9259613D01*
X10518609Y9259611D01*
X10536800Y9245271D01*
X10541244Y9241322D01*
X10541306Y9241396D01*
X10545263Y9238043D01*
X10548944Y9234362D01*
X10564654Y9223135D01*
X10569380Y9219587D01*
X10609647Y9187844D01*
X10618284Y9184811D01*
X10625734Y9179487D01*
X10635710Y9176503D01*
X10635711Y9176503D01*
X10651046Y9171917D01*
X10674849Y9164798D01*
X10680486Y9162966D01*
X10721367Y9148610D01*
X10728851Y9145982D01*
X10734416Y9145500D01*
X10737124Y9145500D01*
X10739758Y9145386D01*
X10739856Y9145357D01*
X10739849Y9145193D01*
X10740553Y9145149D01*
X10746778Y9143287D01*
X10800635Y9145403D01*
X10805582Y9145500D01*
X12204501Y9145500D01*
X12272622Y9125498D01*
X12319115Y9071842D01*
X12330501Y9019500D01*
X12330501Y8749934D01*
X12345266Y8675699D01*
X12352161Y8665380D01*
X12352162Y8665378D01*
X12372842Y8634429D01*
X12401516Y8591516D01*
X12485699Y8535266D01*
X12559933Y8520500D01*
X13334874Y8520500D01*
X14110066Y8520501D01*
X14145818Y8527612D01*
X14172126Y8532844D01*
X14172128Y8532845D01*
X14184301Y8535266D01*
X14194621Y8542161D01*
X14194622Y8542162D01*
X14258168Y8584623D01*
X14268484Y8591516D01*
X14303463Y8643865D01*
X14317839Y8665380D01*
X14324734Y8675699D01*
X14339500Y8749933D01*
X14339500Y8894500D01*
X14359502Y8962621D01*
X14413158Y9009114D01*
X14465500Y9020500D01*
X18554501Y9020500D01*
X18622622Y9000498D01*
X18669115Y8946842D01*
X18680501Y8894500D01*
X18680501Y8749934D01*
X18695266Y8675699D01*
X18702161Y8665380D01*
X18702162Y8665378D01*
X18722842Y8634429D01*
X18751516Y8591516D01*
X18835699Y8535266D01*
X18909933Y8520500D01*
X19684874Y8520500D01*
X20460066Y8520501D01*
X20495818Y8527612D01*
X20522126Y8532844D01*
X20522128Y8532845D01*
X20534301Y8535266D01*
X20544621Y8542161D01*
X20544622Y8542162D01*
X20608168Y8584623D01*
X20618484Y8591516D01*
X20653463Y8643865D01*
X20667839Y8665380D01*
X20674734Y8675699D01*
X20689500Y8749933D01*
X20689500Y8894500D01*
X20709502Y8962621D01*
X20763158Y9009114D01*
X20815500Y9020500D01*
X24169501Y9020500D01*
X24237622Y9000498D01*
X24284115Y8946842D01*
X24295501Y8894500D01*
X24295501Y8649934D01*
X24302044Y8617036D01*
X24306993Y8592156D01*
X24310266Y8575699D01*
X24317161Y8565380D01*
X24317162Y8565378D01*
X24338900Y8532845D01*
X24366516Y8491516D01*
X24450699Y8435266D01*
X24524933Y8420500D01*
X25399858Y8420500D01*
X26275066Y8420501D01*
X26317727Y8428986D01*
X26337126Y8432844D01*
X26337128Y8432845D01*
X26349301Y8435266D01*
X26359621Y8442161D01*
X26359622Y8442162D01*
X26423168Y8484623D01*
X26433484Y8491516D01*
X26489734Y8575699D01*
X26504500Y8649933D01*
X26504499Y10400066D01*
X26497388Y10435818D01*
X26492156Y10462126D01*
X26492155Y10462128D01*
X26489734Y10474301D01*
X26467325Y10507839D01*
X26440377Y10548168D01*
X26433484Y10558484D01*
X26349301Y10614734D01*
X26275067Y10629500D01*
X25400142Y10629500D01*
X24524934Y10629499D01*
X24489182Y10622388D01*
X24462874Y10617156D01*
X24462872Y10617155D01*
X24450699Y10614734D01*
X24440379Y10607839D01*
X24440378Y10607838D01*
X24425351Y10597797D01*
X24366516Y10558484D01*
X24310266Y10474301D01*
X24295500Y10400067D01*
X24295500Y10155500D01*
X24275498Y10087379D01*
X24221842Y10040886D01*
X24169500Y10029500D01*
X20815499Y10029500D01*
X20747378Y10049502D01*
X20700885Y10103158D01*
X20689499Y10155500D01*
X20689499Y10300066D01*
X20674734Y10374301D01*
X20666586Y10386496D01*
X20625377Y10448168D01*
X20618484Y10458484D01*
X20534301Y10514734D01*
X20460067Y10529500D01*
X19685126Y10529500D01*
X18909934Y10529499D01*
X18874182Y10522388D01*
X18847874Y10517156D01*
X18847872Y10517155D01*
X18835699Y10514734D01*
X18825379Y10507839D01*
X18825378Y10507838D01*
X18764985Y10467484D01*
X18751516Y10458484D01*
X18744623Y10448168D01*
X18712483Y10400067D01*
X18695266Y10374301D01*
X18680500Y10300067D01*
X18680500Y10155500D01*
X18660498Y10087379D01*
X18606842Y10040886D01*
X18554500Y10029500D01*
X14465499Y10029500D01*
X14397378Y10049502D01*
X14350885Y10103158D01*
X14339499Y10155500D01*
X14339499Y10300066D01*
X14324734Y10374301D01*
X14316586Y10386496D01*
X14275377Y10448168D01*
X14268484Y10458484D01*
X14184301Y10514734D01*
X14110067Y10529500D01*
X13335126Y10529500D01*
X12559934Y10529499D01*
X12524182Y10522388D01*
X12497874Y10517156D01*
X12497872Y10517155D01*
X12485699Y10514734D01*
X12475379Y10507839D01*
X12475378Y10507838D01*
X12414985Y10467484D01*
X12401516Y10458484D01*
X12394623Y10448168D01*
X12362483Y10400067D01*
X12345266Y10374301D01*
X12330500Y10300067D01*
X12330500Y10030500D01*
X12310498Y9962379D01*
X12256842Y9915886D01*
X12204500Y9904500D01*
X11004384Y9904500D01*
X10936263Y9924502D01*
X10915289Y9941405D01*
X9831478Y11025216D01*
X9816336Y11043964D01*
X9815221Y11045189D01*
X9809571Y11053940D01*
X9801393Y11060387D01*
X9801391Y11060389D01*
X9783200Y11074729D01*
X9778759Y11078675D01*
X9778697Y11078602D01*
X9774733Y11081961D01*
X9771056Y11085638D01*
X9755308Y11096892D01*
X9750638Y11100398D01*
X9710353Y11132156D01*
X9701719Y11135188D01*
X9694266Y11140514D01*
X9645150Y11155203D01*
X9639508Y11157036D01*
X9598633Y11171390D01*
X9598632Y11171390D01*
X9591149Y11174018D01*
X9585584Y11174500D01*
X9582876Y11174500D01*
X9580242Y11174614D01*
X9580144Y11174643D01*
X9580151Y11174807D01*
X9579447Y11174851D01*
X9573222Y11176713D01*
X9519365Y11174597D01*
X9514418Y11174500D01*
X8688270Y11174500D01*
X8620149Y11194502D01*
X8577019Y11241347D01*
X8505459Y11375933D01*
X8505457Y11375936D01*
X8502565Y11381375D01*
X8498674Y11386145D01*
X8498672Y11386149D01*
X8375758Y11536857D01*
X8375755Y11536860D01*
X8371863Y11541632D01*
X8364966Y11547338D01*
X8217271Y11669522D01*
X8217266Y11669525D01*
X8212522Y11673450D01*
X8207103Y11676380D01*
X8207100Y11676382D01*
X8036032Y11768878D01*
X8036027Y11768880D01*
X8030612Y11771808D01*
X7833063Y11832960D01*
X7826938Y11833604D01*
X7826937Y11833604D01*
X7633526Y11853932D01*
X7633524Y11853932D01*
X7627397Y11854576D01*
X7501229Y11843094D01*
X7427591Y11836393D01*
X7427590Y11836393D01*
X7421450Y11835834D01*
X7223066Y11777446D01*
X7217601Y11774589D01*
X7045261Y11684492D01*
X7045257Y11684489D01*
X7039801Y11681637D01*
X6878635Y11552057D01*
X6745708Y11393640D01*
X6646082Y11212422D01*
X6583553Y11015304D01*
X6582867Y11009187D01*
X6582866Y11009183D01*
X6575335Y10942041D01*
X6560501Y10809794D01*
X3598151Y10809794D01*
X3579422Y11000811D01*
X3519651Y11198783D01*
X3471108Y11290079D01*
X3425459Y11375933D01*
X3425457Y11375936D01*
X3422565Y11381375D01*
X3418674Y11386145D01*
X3418672Y11386149D01*
X3295758Y11536857D01*
X3295755Y11536860D01*
X3291863Y11541632D01*
X3284966Y11547338D01*
X3137271Y11669522D01*
X3137266Y11669525D01*
X3132522Y11673450D01*
X3127103Y11676380D01*
X3127100Y11676382D01*
X2956032Y11768878D01*
X2956027Y11768880D01*
X2950612Y11771808D01*
X2753063Y11832960D01*
X2746938Y11833604D01*
X2746937Y11833604D01*
X2553526Y11853932D01*
X2553524Y11853932D01*
X2547397Y11854576D01*
X2421229Y11843094D01*
X2347591Y11836393D01*
X2347590Y11836393D01*
X2341450Y11835834D01*
X2143066Y11777446D01*
X2137601Y11774589D01*
X1965261Y11684492D01*
X1965257Y11684489D01*
X1959801Y11681637D01*
X1798635Y11552057D01*
X1665708Y11393640D01*
X1566082Y11212422D01*
X1503553Y11015304D01*
X1502867Y11009187D01*
X1502866Y11009183D01*
X1495335Y10942041D01*
X1480501Y10809794D01*
X-3923100Y10809794D01*
X-4773522Y11660216D01*
X-4788664Y11678964D01*
X-4789779Y11680189D01*
X-4795429Y11688940D01*
X-4803607Y11695387D01*
X-4803609Y11695389D01*
X-4821800Y11709729D01*
X-4826241Y11713675D01*
X-4826303Y11713602D01*
X-4830267Y11716961D01*
X-4833944Y11720638D01*
X-4849692Y11731892D01*
X-4854362Y11735398D01*
X-4894647Y11767156D01*
X-4903281Y11770188D01*
X-4910734Y11775514D01*
X-4959850Y11790203D01*
X-4965492Y11792036D01*
X-5006367Y11806390D01*
X-5006368Y11806390D01*
X-5013851Y11809018D01*
X-5019416Y11809500D01*
X-5022124Y11809500D01*
X-5024758Y11809614D01*
X-5024856Y11809643D01*
X-5024849Y11809807D01*
X-5025553Y11809851D01*
X-5031778Y11811713D01*
X-5085635Y11809597D01*
X-5090582Y11809500D01*
X-7186730Y11809500D01*
X-7254851Y11829502D01*
X-7297981Y11876347D01*
X-7369541Y12010933D01*
X-7369543Y12010936D01*
X-7372435Y12016375D01*
X-7376326Y12021145D01*
X-7376328Y12021149D01*
X-7499242Y12171857D01*
X-7499245Y12171860D01*
X-7503137Y12176632D01*
X-7510034Y12182338D01*
X-7657729Y12304522D01*
X-7657734Y12304525D01*
X-7662478Y12308450D01*
X-7667897Y12311380D01*
X-7667900Y12311382D01*
X-7838968Y12403878D01*
X-7838973Y12403880D01*
X-7844388Y12406808D01*
X-8041937Y12467960D01*
X-8048062Y12468604D01*
X-8048063Y12468604D01*
X-8241474Y12488932D01*
X-8241476Y12488932D01*
X-8247603Y12489576D01*
X-8373771Y12478094D01*
X-8447409Y12471393D01*
X-8447410Y12471393D01*
X-8453550Y12470834D01*
X-8651934Y12412446D01*
X-8657399Y12409589D01*
X-8829739Y12319492D01*
X-8829743Y12319489D01*
X-8835199Y12316637D01*
X-8996365Y12187057D01*
X-9129292Y12028640D01*
X-9228918Y11847422D01*
X-9291447Y11650304D01*
X-9292133Y11644187D01*
X-9292134Y11644183D01*
X-9305648Y11523704D01*
X-9314499Y11444794D01*
X-17356849Y11444794D01*
X-17375578Y11635811D01*
X-17435349Y11833783D01*
X-17532435Y12016375D01*
X-17536326Y12021145D01*
X-17536328Y12021149D01*
X-17659242Y12171857D01*
X-17659245Y12171860D01*
X-17663137Y12176632D01*
X-17670034Y12182338D01*
X-17817729Y12304522D01*
X-17817734Y12304525D01*
X-17822478Y12308450D01*
X-17827897Y12311380D01*
X-17827900Y12311382D01*
X-17998968Y12403878D01*
X-17998973Y12403880D01*
X-18004388Y12406808D01*
X-18201937Y12467960D01*
X-18208062Y12468604D01*
X-18208063Y12468604D01*
X-18401474Y12488932D01*
X-18401476Y12488932D01*
X-18407603Y12489576D01*
X-18533771Y12478094D01*
X-18607409Y12471393D01*
X-18607410Y12471393D01*
X-18613550Y12470834D01*
X-18811934Y12412446D01*
X-18817399Y12409589D01*
X-18989739Y12319492D01*
X-18989743Y12319489D01*
X-18995199Y12316637D01*
X-19156365Y12187057D01*
X-19289292Y12028640D01*
X-19388918Y11847422D01*
X-19451447Y11650304D01*
X-19452133Y11644187D01*
X-19452134Y11644183D01*
X-19465648Y11523704D01*
X-19474499Y11444794D01*
X-19457194Y11238722D01*
X-19455495Y11232797D01*
X-19407629Y11065866D01*
X-19408080Y10994871D01*
X-19439653Y10942041D01*
X-21820216Y8561478D01*
X-21838964Y8546336D01*
X-21840189Y8545221D01*
X-21848940Y8539571D01*
X-21855387Y8531393D01*
X-21855389Y8531391D01*
X-21869729Y8513200D01*
X-21873675Y8508759D01*
X-21873602Y8508697D01*
X-21876961Y8504733D01*
X-21880638Y8501056D01*
X-21891892Y8485308D01*
X-21895398Y8480638D01*
X-21927156Y8440353D01*
X-21930188Y8431719D01*
X-21935514Y8424266D01*
X-21938499Y8414285D01*
X-21950201Y8375156D01*
X-21952036Y8369508D01*
X-21969018Y8321149D01*
X-21969500Y8315584D01*
X-21969500Y8312876D01*
X-21969614Y8310242D01*
X-21969643Y8310144D01*
X-21969807Y8310151D01*
X-21969851Y8309447D01*
X-21971713Y8303222D01*
X-21971304Y8292817D01*
X-21969597Y8249365D01*
X-21969500Y8244418D01*
X-21969500Y5289384D01*
X-21989502Y5221263D01*
X-22006405Y5200289D01*
X-22938648Y4268046D01*
X-23000960Y4234020D01*
X-23071775Y4239085D01*
X-23128611Y4281632D01*
X-23140749Y4301413D01*
X-23181669Y4384391D01*
X-23184224Y4389572D01*
X-23305680Y4552221D01*
X-23436504Y4673154D01*
X-23450497Y4686089D01*
X-23454742Y4690013D01*
X-23459625Y4693094D01*
X-23459629Y4693097D01*
X-23621536Y4795252D01*
X-23626419Y4798333D01*
X-23814961Y4873554D01*
X-23820621Y4874680D01*
X-23820625Y4874681D01*
X-24008387Y4912029D01*
X-24008390Y4912029D01*
X-24014054Y4913156D01*
X-24019829Y4913232D01*
X-24019833Y4913232D01*
X-24121207Y4914559D01*
X-24217029Y4915813D01*
X-24222726Y4914834D01*
X-24222727Y4914834D01*
X-24387806Y4886468D01*
X-24417090Y4881436D01*
X-24607537Y4811176D01*
X-24781990Y4707388D01*
X-24786330Y4703582D01*
X-24786334Y4703579D01*
X-24841996Y4654764D01*
X-24934608Y4573545D01*
X-25060280Y4414131D01*
X-25062969Y4409020D01*
X-25062971Y4409017D01*
X-25075927Y4384391D01*
X-25154797Y4234485D01*
X-25214993Y4040622D01*
X-25238852Y3839036D01*
X-25565500Y3839036D01*
X-25565500Y4457756D01*
X-25572202Y4519448D01*
X-25622929Y4654764D01*
X-25628309Y4661943D01*
X-25628311Y4661946D01*
X-25704215Y4763224D01*
X-25709596Y4770404D01*
X-25751362Y4801706D01*
X-25818054Y4851689D01*
X-25818057Y4851691D01*
X-25825236Y4857071D01*
X-25941679Y4900723D01*
X-25953157Y4905026D01*
X-25953159Y4905026D01*
X-25960552Y4907798D01*
X-25968402Y4908651D01*
X-25968403Y4908651D01*
X-26018847Y4914131D01*
X-26018848Y4914131D01*
X-26022244Y4914500D01*
X-27317756Y4914500D01*
X-27321152Y4914131D01*
X-27321153Y4914131D01*
X-27371597Y4908651D01*
X-27371598Y4908651D01*
X-27379448Y4907798D01*
X-27386841Y4905026D01*
X-27386843Y4905026D01*
X-27398321Y4900723D01*
X-27514764Y4857071D01*
X-27521943Y4851691D01*
X-27521946Y4851689D01*
X-27588638Y4801706D01*
X-27630404Y4770404D01*
X-27635785Y4763224D01*
X-27711689Y4661946D01*
X-27711691Y4661943D01*
X-27717071Y4654764D01*
X-27767798Y4519448D01*
X-27774500Y4457756D01*
X-27774500Y3162244D01*
X-31746000Y3162244D01*
X-31746000Y14957814D01*
X-28858982Y14957814D01*
X-28833421Y14689900D01*
X-28832336Y14685466D01*
X-28832335Y14685460D01*
X-28790335Y14513820D01*
X-28769453Y14428482D01*
X-28668417Y14179037D01*
X-28532431Y13946790D01*
X-28364342Y13736605D01*
X-28167673Y13552887D01*
X-27946543Y13399484D01*
X-27705584Y13279609D01*
X-27701250Y13278188D01*
X-27701247Y13278187D01*
X-27454177Y13197193D01*
X-27454171Y13197192D01*
X-27449844Y13195773D01*
X-27445353Y13194993D01*
X-27445352Y13194993D01*
X-27188462Y13150389D01*
X-27188454Y13150388D01*
X-27184681Y13149733D01*
X-27180844Y13149542D01*
X-27101223Y13145578D01*
X-27101215Y13145578D01*
X-27099652Y13145500D01*
X-26931626Y13145500D01*
X-26929358Y13145665D01*
X-26929346Y13145665D01*
X-26798543Y13155156D01*
X-26731575Y13160015D01*
X-26727120Y13160999D01*
X-26727117Y13160999D01*
X-26473230Y13217053D01*
X-26473228Y13217054D01*
X-26468774Y13218037D01*
X-26217100Y13313387D01*
X-25981828Y13444069D01*
X-25848751Y13545630D01*
X-25771509Y13604579D01*
X-25771505Y13604583D01*
X-25767884Y13607346D01*
X-25762717Y13612631D01*
X-25633109Y13745214D01*
X-25579751Y13799797D01*
X-25472758Y13946790D01*
X-25424058Y14013696D01*
X-25424053Y14013703D01*
X-25421370Y14017390D01*
X-25296059Y14255567D01*
X-25206443Y14509338D01*
X-25184672Y14619794D01*
X-1059499Y14619794D01*
X-1057962Y14601495D01*
X-1043433Y14428482D01*
X-1042194Y14413722D01*
X-985193Y14214934D01*
X-982375Y14209452D01*
X-982374Y14209448D01*
X-893486Y14036491D01*
X-893483Y14036487D01*
X-890666Y14031005D01*
X-762214Y13868939D01*
X-757521Y13864945D01*
X-757520Y13864944D01*
X-616837Y13745214D01*
X-604729Y13734909D01*
X-424211Y13634020D01*
X-227534Y13570116D01*
X-22191Y13545630D01*
X-16056Y13546102D01*
X-16054Y13546102D01*
X177856Y13561023D01*
X177860Y13561024D01*
X183998Y13561496D01*
X383178Y13617108D01*
X388682Y13619888D01*
X388684Y13619889D01*
X562262Y13707569D01*
X562264Y13707570D01*
X567763Y13710348D01*
X730722Y13837666D01*
X734748Y13842330D01*
X734751Y13842333D01*
X861819Y13989543D01*
X861820Y13989545D01*
X865848Y13994211D01*
X916922Y14084116D01*
X964950Y14168660D01*
X964952Y14168664D01*
X967995Y14174021D01*
X1033270Y14370247D01*
X1059189Y14575414D01*
X1059602Y14605000D01*
X1058151Y14619794D01*
X4020501Y14619794D01*
X4022038Y14601495D01*
X4036567Y14428482D01*
X4037806Y14413722D01*
X4094807Y14214934D01*
X4097625Y14209452D01*
X4097626Y14209448D01*
X4186514Y14036491D01*
X4186517Y14036487D01*
X4189334Y14031005D01*
X4317786Y13868939D01*
X4322479Y13864945D01*
X4322480Y13864944D01*
X4463163Y13745214D01*
X4475271Y13734909D01*
X4655789Y13634020D01*
X4852466Y13570116D01*
X5057809Y13545630D01*
X5063944Y13546102D01*
X5063946Y13546102D01*
X5257856Y13561023D01*
X5257860Y13561024D01*
X5263998Y13561496D01*
X5463178Y13617108D01*
X5468682Y13619888D01*
X5468684Y13619889D01*
X5642262Y13707569D01*
X5642264Y13707570D01*
X5647763Y13710348D01*
X5810722Y13837666D01*
X5814748Y13842330D01*
X5814751Y13842333D01*
X5941819Y13989543D01*
X5941820Y13989545D01*
X5945848Y13994211D01*
X6041017Y14161737D01*
X6092057Y14211088D01*
X6150573Y14225500D01*
X8045616Y14225500D01*
X8113737Y14205498D01*
X8134711Y14188595D01*
X10488524Y11834781D01*
X10503661Y11816039D01*
X10504779Y11814810D01*
X10510429Y11806060D01*
X10518607Y11799613D01*
X10536799Y11785272D01*
X10541241Y11781324D01*
X10541303Y11781397D01*
X10545268Y11778037D01*
X10548943Y11774362D01*
X10553165Y11771345D01*
X10553171Y11771340D01*
X10564650Y11763138D01*
X10569399Y11759572D01*
X10609647Y11727844D01*
X10618284Y11724811D01*
X10625734Y11719487D01*
X10635710Y11716503D01*
X10635711Y11716503D01*
X10651046Y11711917D01*
X10674849Y11704798D01*
X10680486Y11702966D01*
X10721367Y11688610D01*
X10728851Y11685982D01*
X10734416Y11685500D01*
X10737124Y11685500D01*
X10739758Y11685386D01*
X10739856Y11685357D01*
X10739849Y11685193D01*
X10740553Y11685149D01*
X10746778Y11683287D01*
X10800635Y11685403D01*
X10805582Y11685500D01*
X12323686Y11685500D01*
X12391807Y11665498D01*
X12435751Y11617096D01*
X12486566Y11518221D01*
X12608927Y11363840D01*
X12613620Y11359846D01*
X12613621Y11359845D01*
X12748724Y11244864D01*
X12758945Y11236165D01*
X12764323Y11233159D01*
X12764325Y11233158D01*
X12924751Y11143499D01*
X12930904Y11140060D01*
X13118255Y11079186D01*
X13313862Y11055861D01*
X13319997Y11056333D01*
X13319999Y11056333D01*
X13379801Y11060935D01*
X13510274Y11070974D01*
X13700009Y11123950D01*
X13705513Y11126730D01*
X13870341Y11209990D01*
X13870343Y11209991D01*
X13875842Y11212769D01*
X14031074Y11334050D01*
X14035100Y11338714D01*
X14035103Y11338717D01*
X14155764Y11478504D01*
X14155765Y11478506D01*
X14159793Y11483172D01*
X14238509Y11621737D01*
X14289548Y11671088D01*
X14348065Y11685500D01*
X18673686Y11685500D01*
X18741807Y11665498D01*
X18785751Y11617096D01*
X18836566Y11518221D01*
X18958927Y11363840D01*
X18963620Y11359846D01*
X18963621Y11359845D01*
X19098724Y11244864D01*
X19108945Y11236165D01*
X19114323Y11233159D01*
X19114325Y11233158D01*
X19274751Y11143499D01*
X19280904Y11140060D01*
X19468255Y11079186D01*
X19663862Y11055861D01*
X19669997Y11056333D01*
X19669999Y11056333D01*
X19729801Y11060935D01*
X19860274Y11070974D01*
X20050009Y11123950D01*
X20055513Y11126730D01*
X20220341Y11209990D01*
X20220343Y11209991D01*
X20225842Y11212769D01*
X20381074Y11334050D01*
X20385100Y11338714D01*
X20385103Y11338717D01*
X20505764Y11478504D01*
X20505765Y11478506D01*
X20509793Y11483172D01*
X20607096Y11654456D01*
X20669277Y11841378D01*
X20693966Y12036817D01*
X20694360Y12065000D01*
X20675137Y12261052D01*
X20618200Y12449637D01*
X20585389Y12511346D01*
X20528611Y12618129D01*
X20528609Y12618132D01*
X20525717Y12623571D01*
X20401212Y12776230D01*
X20335894Y12830266D01*
X20254177Y12897868D01*
X20254174Y12897870D01*
X20249427Y12901797D01*
X20076143Y12995492D01*
X19887960Y13053744D01*
X19881835Y13054388D01*
X19881834Y13054388D01*
X19698176Y13073691D01*
X19698174Y13073691D01*
X19692047Y13074335D01*
X19610018Y13066870D01*
X19502004Y13057040D01*
X19502001Y13057039D01*
X19495865Y13056481D01*
X19489959Y13054743D01*
X19489955Y13054742D01*
X19349775Y13013484D01*
X19306887Y13000862D01*
X19301427Y12998008D01*
X19301428Y12998008D01*
X19137772Y12912451D01*
X19137768Y12912448D01*
X19132312Y12909596D01*
X18978788Y12786160D01*
X18852163Y12635255D01*
X18849198Y12629861D01*
X18849197Y12629860D01*
X18783194Y12509799D01*
X18732849Y12459741D01*
X18672779Y12444500D01*
X14346640Y12444500D01*
X14278519Y12464502D01*
X14235389Y12511346D01*
X14178611Y12618128D01*
X14175717Y12623571D01*
X14051212Y12776230D01*
X13985894Y12830266D01*
X13904177Y12897868D01*
X13904174Y12897870D01*
X13899427Y12901797D01*
X13726143Y12995492D01*
X13537960Y13053744D01*
X13531835Y13054388D01*
X13531834Y13054388D01*
X13348176Y13073691D01*
X13348174Y13073691D01*
X13342047Y13074335D01*
X13260018Y13066870D01*
X13152004Y13057040D01*
X13152001Y13057039D01*
X13145865Y13056481D01*
X13139959Y13054743D01*
X13139955Y13054742D01*
X12999775Y13013484D01*
X12956887Y13000862D01*
X12951427Y12998008D01*
X12951428Y12998008D01*
X12787772Y12912451D01*
X12787768Y12912448D01*
X12782312Y12909596D01*
X12628788Y12786160D01*
X12502163Y12635255D01*
X12499198Y12629861D01*
X12499197Y12629860D01*
X12433194Y12509799D01*
X12382849Y12459741D01*
X12322779Y12444500D01*
X11004384Y12444500D01*
X10936263Y12464502D01*
X10915289Y12481405D01*
X9657886Y13738808D01*
X12833637Y13738808D01*
X12838547Y13732249D01*
X12925726Y13683526D01*
X12936966Y13678616D01*
X13112504Y13621580D01*
X13124478Y13618947D01*
X13307760Y13597092D01*
X13320009Y13596835D01*
X13504044Y13610996D01*
X13516124Y13613127D01*
X13693892Y13662761D01*
X13705325Y13667195D01*
X13827529Y13728925D01*
X13837813Y13738570D01*
X13835575Y13745214D01*
X13347811Y14232979D01*
X13333868Y14240592D01*
X13332034Y14240461D01*
X13325420Y14236210D01*
X12840394Y13751183D01*
X12833637Y13738808D01*
X9657886Y13738808D01*
X8783751Y14612943D01*
X12326756Y14612943D01*
X12342200Y14429022D01*
X12344414Y14416960D01*
X12395290Y14239537D01*
X12399806Y14228132D01*
X12459117Y14112725D01*
X12468838Y14102504D01*
X12475637Y14104848D01*
X12962979Y14592189D01*
X12969356Y14603868D01*
X13699408Y14603868D01*
X13699539Y14602034D01*
X13703790Y14595420D01*
X14188732Y14110479D01*
X14201107Y14103722D01*
X14207841Y14108763D01*
X14253593Y14189299D01*
X14258583Y14200508D01*
X14316842Y14375641D01*
X14319560Y14387608D01*
X14343023Y14573328D01*
X14343514Y14580355D01*
X14343809Y14601495D01*
X14343516Y14608487D01*
X14342476Y14619093D01*
X18675738Y14619093D01*
X18677216Y14601495D01*
X18691699Y14429022D01*
X18692222Y14422791D01*
X18707289Y14370247D01*
X18744770Y14239537D01*
X18746521Y14233430D01*
X18836566Y14058221D01*
X18840389Y14053397D01*
X18840392Y14053393D01*
X18921758Y13950735D01*
X18958927Y13903840D01*
X18963620Y13899846D01*
X18963621Y13899845D01*
X19031198Y13842333D01*
X19108945Y13776165D01*
X19114323Y13773159D01*
X19114325Y13773158D01*
X19231683Y13707569D01*
X19280904Y13680060D01*
X19468255Y13619186D01*
X19663862Y13595861D01*
X19669997Y13596333D01*
X19669999Y13596333D01*
X19729801Y13600935D01*
X19860274Y13610974D01*
X20050009Y13663950D01*
X20055513Y13666730D01*
X20220341Y13749990D01*
X20220343Y13749991D01*
X20225842Y13752769D01*
X20381074Y13874050D01*
X20385100Y13878714D01*
X20385103Y13878717D01*
X20505764Y14018504D01*
X20505765Y14018506D01*
X20509793Y14023172D01*
X20607096Y14194456D01*
X20669277Y14381378D01*
X20693966Y14576817D01*
X20694360Y14605000D01*
X20675137Y14801052D01*
X20627808Y14957814D01*
X25141018Y14957814D01*
X25166579Y14689900D01*
X25167664Y14685466D01*
X25167665Y14685460D01*
X25209665Y14513820D01*
X25230547Y14428482D01*
X25331583Y14179037D01*
X25467569Y13946790D01*
X25635658Y13736605D01*
X25832327Y13552887D01*
X26053457Y13399484D01*
X26294416Y13279609D01*
X26298750Y13278188D01*
X26298753Y13278187D01*
X26545823Y13197193D01*
X26545829Y13197192D01*
X26550156Y13195773D01*
X26554647Y13194993D01*
X26554648Y13194993D01*
X26811538Y13150389D01*
X26811546Y13150388D01*
X26815319Y13149733D01*
X26819156Y13149542D01*
X26898777Y13145578D01*
X26898785Y13145578D01*
X26900348Y13145500D01*
X27068374Y13145500D01*
X27070642Y13145665D01*
X27070654Y13145665D01*
X27201457Y13155156D01*
X27268425Y13160015D01*
X27272880Y13160999D01*
X27272883Y13160999D01*
X27526770Y13217053D01*
X27526772Y13217054D01*
X27531226Y13218037D01*
X27782900Y13313387D01*
X28018172Y13444069D01*
X28151249Y13545630D01*
X28228491Y13604579D01*
X28228495Y13604583D01*
X28232116Y13607346D01*
X28237283Y13612631D01*
X28366891Y13745214D01*
X28420249Y13799797D01*
X28527242Y13946790D01*
X28575942Y14013696D01*
X28575947Y14013703D01*
X28578630Y14017390D01*
X28703941Y14255567D01*
X28793557Y14509338D01*
X28818688Y14636844D01*
X28844720Y14768917D01*
X28844721Y14768923D01*
X28845601Y14773389D01*
X28847464Y14810811D01*
X28858755Y15037617D01*
X28858755Y15037623D01*
X28858982Y15042186D01*
X28833421Y15310100D01*
X28830649Y15321432D01*
X28770539Y15567080D01*
X28769453Y15571518D01*
X28668417Y15820963D01*
X28532431Y16053210D01*
X28412272Y16203462D01*
X28367194Y16259829D01*
X28367193Y16259831D01*
X28364342Y16263395D01*
X28167673Y16447113D01*
X27946543Y16600516D01*
X27705584Y16720391D01*
X27701250Y16721812D01*
X27701247Y16721813D01*
X27454177Y16802807D01*
X27454171Y16802808D01*
X27449844Y16804227D01*
X27445352Y16805007D01*
X27188462Y16849611D01*
X27188454Y16849612D01*
X27184681Y16850267D01*
X27174718Y16850763D01*
X27101223Y16854422D01*
X27101215Y16854422D01*
X27099652Y16854500D01*
X26931626Y16854500D01*
X26929358Y16854335D01*
X26929346Y16854335D01*
X26798543Y16844844D01*
X26731575Y16839985D01*
X26727120Y16839001D01*
X26727117Y16839001D01*
X26473230Y16782947D01*
X26473228Y16782946D01*
X26468774Y16781963D01*
X26217100Y16686613D01*
X26213114Y16684399D01*
X26213112Y16684398D01*
X26102985Y16623228D01*
X25981828Y16555931D01*
X25931057Y16517184D01*
X25771509Y16395421D01*
X25771505Y16395417D01*
X25767884Y16392654D01*
X25764699Y16389396D01*
X25764698Y16389395D01*
X25753232Y16377666D01*
X25579751Y16200203D01*
X25577066Y16196514D01*
X25424058Y15986304D01*
X25424053Y15986297D01*
X25421370Y15982610D01*
X25296059Y15744433D01*
X25206443Y15490662D01*
X25195323Y15434243D01*
X25170855Y15310100D01*
X25154399Y15226611D01*
X25154172Y15222058D01*
X25154172Y15222055D01*
X25141386Y14965201D01*
X25141018Y14957814D01*
X20627808Y14957814D01*
X20618200Y14989637D01*
X20611156Y15002884D01*
X20528611Y15158129D01*
X20528609Y15158132D01*
X20525717Y15163571D01*
X20401212Y15316230D01*
X20335894Y15370266D01*
X20254177Y15437868D01*
X20254174Y15437870D01*
X20249427Y15441797D01*
X20076143Y15535492D01*
X19887960Y15593744D01*
X19881835Y15594388D01*
X19881834Y15594388D01*
X19698176Y15613691D01*
X19698174Y15613691D01*
X19692047Y15614335D01*
X19610018Y15606870D01*
X19502004Y15597040D01*
X19502001Y15597039D01*
X19495865Y15596481D01*
X19489959Y15594743D01*
X19489955Y15594742D01*
X19349775Y15553484D01*
X19306887Y15540862D01*
X19300100Y15537314D01*
X19137772Y15452451D01*
X19137768Y15452448D01*
X19132312Y15449596D01*
X19127512Y15445736D01*
X19127511Y15445736D01*
X19010469Y15351632D01*
X18978788Y15326160D01*
X18852163Y15175255D01*
X18845740Y15163571D01*
X18764915Y15016549D01*
X18757262Y15002629D01*
X18755398Y14996754D01*
X18755397Y14996751D01*
X18723322Y14895638D01*
X18697697Y14814858D01*
X18675738Y14619093D01*
X14342476Y14619093D01*
X14325245Y14794821D01*
X14322862Y14806859D01*
X14269517Y14983546D01*
X14264843Y14994887D01*
X14210605Y15096894D01*
X14200745Y15106975D01*
X14193618Y15104407D01*
X13707021Y14617811D01*
X13699408Y14603868D01*
X12969356Y14603868D01*
X12970592Y14606132D01*
X12970461Y14607966D01*
X12966210Y14614580D01*
X12481062Y15099727D01*
X12468687Y15106484D01*
X12462298Y15101702D01*
X12410690Y15007828D01*
X12405861Y14996562D01*
X12350050Y14820623D01*
X12347502Y14808634D01*
X12326927Y14625211D01*
X12326756Y14612943D01*
X8783751Y14612943D01*
X8561478Y14835216D01*
X8546336Y14853964D01*
X8545221Y14855189D01*
X8539571Y14863940D01*
X8531393Y14870387D01*
X8531391Y14870389D01*
X8513200Y14884729D01*
X8508759Y14888675D01*
X8508697Y14888602D01*
X8504733Y14891961D01*
X8501056Y14895638D01*
X8485308Y14906892D01*
X8480638Y14910398D01*
X8440353Y14942156D01*
X8431719Y14945188D01*
X8424266Y14950514D01*
X8375150Y14965203D01*
X8369508Y14967036D01*
X8328633Y14981390D01*
X8328632Y14981390D01*
X8321149Y14984018D01*
X8315584Y14984500D01*
X8312876Y14984500D01*
X8310242Y14984614D01*
X8310144Y14984643D01*
X8310151Y14984807D01*
X8309447Y14984851D01*
X8303222Y14986713D01*
X8249365Y14984597D01*
X8244418Y14984500D01*
X6148270Y14984500D01*
X6080149Y15004502D01*
X6037019Y15051347D01*
X5965459Y15185933D01*
X5965457Y15185936D01*
X5962565Y15191375D01*
X5958674Y15196145D01*
X5958672Y15196149D01*
X5835758Y15346857D01*
X5835755Y15346860D01*
X5831863Y15351632D01*
X5824966Y15357338D01*
X5687648Y15470937D01*
X12832783Y15470937D01*
X12835238Y15463973D01*
X13322189Y14977021D01*
X13336132Y14969408D01*
X13337966Y14969539D01*
X13344580Y14973790D01*
X13829886Y15459097D01*
X13836643Y15471472D01*
X13831984Y15477696D01*
X13731368Y15532099D01*
X13720062Y15536851D01*
X13543746Y15591430D01*
X13531733Y15593896D01*
X13348171Y15613189D01*
X13335903Y15613274D01*
X13152098Y15596547D01*
X13140049Y15594249D01*
X12962984Y15542136D01*
X12951616Y15537543D01*
X12842932Y15480724D01*
X12832783Y15470937D01*
X5687648Y15470937D01*
X5677271Y15479522D01*
X5677266Y15479525D01*
X5672522Y15483450D01*
X5667103Y15486380D01*
X5667100Y15486382D01*
X5496032Y15578878D01*
X5496027Y15578880D01*
X5490612Y15581808D01*
X5293063Y15642960D01*
X5286938Y15643604D01*
X5286937Y15643604D01*
X5093526Y15663932D01*
X5093524Y15663932D01*
X5087397Y15664576D01*
X4961229Y15653094D01*
X4887591Y15646393D01*
X4887590Y15646393D01*
X4881450Y15645834D01*
X4683066Y15587446D01*
X4677601Y15584589D01*
X4505261Y15494492D01*
X4505257Y15494489D01*
X4499801Y15491637D01*
X4338635Y15362057D01*
X4205708Y15203640D01*
X4106082Y15022422D01*
X4043553Y14825304D01*
X4042867Y14819187D01*
X4042866Y14819183D01*
X4037228Y14768917D01*
X4020501Y14619794D01*
X1058151Y14619794D01*
X1039422Y14810811D01*
X979651Y15008783D01*
X927441Y15106975D01*
X885459Y15185933D01*
X885457Y15185936D01*
X882565Y15191375D01*
X878674Y15196145D01*
X878672Y15196149D01*
X755758Y15346857D01*
X755755Y15346860D01*
X751863Y15351632D01*
X744966Y15357338D01*
X597271Y15479522D01*
X597266Y15479525D01*
X592522Y15483450D01*
X587103Y15486380D01*
X587100Y15486382D01*
X416032Y15578878D01*
X416027Y15578880D01*
X410612Y15581808D01*
X213063Y15642960D01*
X206938Y15643604D01*
X206937Y15643604D01*
X13526Y15663932D01*
X13524Y15663932D01*
X7397Y15664576D01*
X-118771Y15653094D01*
X-192409Y15646393D01*
X-192410Y15646393D01*
X-198550Y15645834D01*
X-396934Y15587446D01*
X-402399Y15584589D01*
X-574739Y15494492D01*
X-574743Y15494489D01*
X-580199Y15491637D01*
X-741365Y15362057D01*
X-874292Y15203640D01*
X-973918Y15022422D01*
X-1036447Y14825304D01*
X-1037133Y14819187D01*
X-1037134Y14819183D01*
X-1042772Y14768917D01*
X-1059499Y14619794D01*
X-25184672Y14619794D01*
X-25181312Y14636844D01*
X-25155280Y14768917D01*
X-25155279Y14768923D01*
X-25154399Y14773389D01*
X-25152536Y14810811D01*
X-25141245Y15037617D01*
X-25141245Y15037623D01*
X-25141018Y15042186D01*
X-25166579Y15310100D01*
X-25169351Y15321432D01*
X-25229461Y15567080D01*
X-25230547Y15571518D01*
X-25331583Y15820963D01*
X-25467569Y16053210D01*
X-25587728Y16203462D01*
X-25618597Y16242062D01*
X14701892Y16242062D01*
X14706801Y16235504D01*
X14810612Y16177486D01*
X14821851Y16172576D01*
X15006715Y16112510D01*
X15018689Y16109877D01*
X15211708Y16086861D01*
X15223957Y16086604D01*
X15417769Y16101517D01*
X15429849Y16103648D01*
X15617061Y16155919D01*
X15628494Y16160353D01*
X15769749Y16231706D01*
X15780033Y16241351D01*
X15777795Y16247995D01*
X15252812Y16772978D01*
X15238868Y16780592D01*
X15237035Y16780461D01*
X15230420Y16776210D01*
X14708652Y16254442D01*
X14701892Y16242062D01*
X-25618597Y16242062D01*
X-25632806Y16259829D01*
X-25632807Y16259831D01*
X-25635658Y16263395D01*
X-25832327Y16447113D01*
X-26053457Y16600516D01*
X-26294416Y16720391D01*
X-26298750Y16721812D01*
X-26298753Y16721813D01*
X-26545823Y16802807D01*
X-26545829Y16802808D01*
X-26550156Y16804227D01*
X-26554648Y16805007D01*
X-26811538Y16849611D01*
X-26811546Y16849612D01*
X-26815319Y16850267D01*
X-26825282Y16850763D01*
X-26898777Y16854422D01*
X-26898785Y16854422D01*
X-26900348Y16854500D01*
X-27068374Y16854500D01*
X-27070642Y16854335D01*
X-27070654Y16854335D01*
X-27201457Y16844844D01*
X-27268425Y16839985D01*
X-27272880Y16839001D01*
X-27272883Y16839001D01*
X-27526770Y16782947D01*
X-27526772Y16782946D01*
X-27531226Y16781963D01*
X-27782900Y16686613D01*
X-27786886Y16684399D01*
X-27786888Y16684398D01*
X-27897015Y16623228D01*
X-28018172Y16555931D01*
X-28068943Y16517184D01*
X-28228491Y16395421D01*
X-28228495Y16395417D01*
X-28232116Y16392654D01*
X-28235301Y16389396D01*
X-28235302Y16389395D01*
X-28246768Y16377666D01*
X-28420249Y16200203D01*
X-28422934Y16196514D01*
X-28575942Y15986304D01*
X-28575947Y15986297D01*
X-28578630Y15982610D01*
X-28703941Y15744433D01*
X-28793557Y15490662D01*
X-28804677Y15434243D01*
X-28829145Y15310100D01*
X-28845601Y15226611D01*
X-28845828Y15222058D01*
X-28845828Y15222055D01*
X-28858614Y14965201D01*
X-28858982Y14957814D01*
X-31746000Y14957814D01*
X-31746000Y14962575D01*
X-31743579Y14987156D01*
X-31741024Y15000000D01*
X-31743444Y15012169D01*
X-31743444Y15022654D01*
X-31744441Y15035693D01*
X-31728180Y15408145D01*
X-31727222Y15419095D01*
X-31725228Y15434243D01*
X-31674615Y15818691D01*
X-31672709Y15829495D01*
X-31585473Y16222990D01*
X-31582630Y16233601D01*
X-31538403Y16373872D01*
X-31461434Y16617985D01*
X-31457678Y16628306D01*
X-31433526Y16686613D01*
X-31303436Y17000679D01*
X-31298794Y17010632D01*
X-31245862Y17112312D01*
X-31224346Y17153643D01*
X14181519Y17153643D01*
X14197783Y16959951D01*
X14199997Y16947892D01*
X14253576Y16761039D01*
X14258089Y16749642D01*
X14326984Y16615586D01*
X14336701Y16605368D01*
X14343502Y16607712D01*
X14867978Y17132188D01*
X14874356Y17143868D01*
X15604408Y17143868D01*
X15604539Y17142035D01*
X15608790Y17135420D01*
X16130401Y16613809D01*
X16142781Y16607049D01*
X16149515Y16612090D01*
X16204490Y16708862D01*
X16209483Y16720078D01*
X16270834Y16904506D01*
X16273554Y16916477D01*
X16298244Y17111925D01*
X16298736Y17118952D01*
X16299051Y17141477D01*
X16298756Y17148506D01*
X16297649Y17159794D01*
X16680501Y17159794D01*
X16681992Y17142035D01*
X16693864Y17000670D01*
X16697806Y16953722D01*
X16754807Y16754934D01*
X16757625Y16749452D01*
X16757626Y16749448D01*
X16846514Y16576491D01*
X16846517Y16576487D01*
X16849334Y16571005D01*
X16977786Y16408939D01*
X16982479Y16404945D01*
X16982480Y16404944D01*
X17116502Y16290883D01*
X17135271Y16274909D01*
X17315789Y16174020D01*
X17512466Y16110116D01*
X17717809Y16085630D01*
X17723944Y16086102D01*
X17723946Y16086102D01*
X17917856Y16101023D01*
X17917860Y16101024D01*
X17923998Y16101496D01*
X18123178Y16157108D01*
X18128682Y16159888D01*
X18128684Y16159889D01*
X18302262Y16247569D01*
X18302264Y16247570D01*
X18307763Y16250348D01*
X18470722Y16377666D01*
X18474748Y16382330D01*
X18474751Y16382333D01*
X18601819Y16529543D01*
X18601820Y16529545D01*
X18605848Y16534211D01*
X18707995Y16714021D01*
X18773270Y16910247D01*
X18799189Y17115414D01*
X18799602Y17145000D01*
X18779422Y17350811D01*
X18719651Y17548783D01*
X18650668Y17678521D01*
X18625459Y17725933D01*
X18625457Y17725936D01*
X18622565Y17731375D01*
X18618674Y17736145D01*
X18618672Y17736149D01*
X18495758Y17886857D01*
X18495755Y17886860D01*
X18491863Y17891632D01*
X18484966Y17897338D01*
X18337271Y18019522D01*
X18337266Y18019525D01*
X18332522Y18023450D01*
X18327103Y18026380D01*
X18327100Y18026382D01*
X18156032Y18118878D01*
X18156027Y18118880D01*
X18150612Y18121808D01*
X17953063Y18182960D01*
X17946938Y18183604D01*
X17946937Y18183604D01*
X17753526Y18203932D01*
X17753524Y18203932D01*
X17747397Y18204576D01*
X17621229Y18193094D01*
X17547591Y18186393D01*
X17547590Y18186393D01*
X17541450Y18185834D01*
X17343066Y18127446D01*
X17337601Y18124589D01*
X17165261Y18034492D01*
X17165257Y18034489D01*
X17159801Y18031637D01*
X16998635Y17902057D01*
X16865708Y17743640D01*
X16766082Y17562422D01*
X16703553Y17365304D01*
X16702867Y17359187D01*
X16702866Y17359183D01*
X16681188Y17165919D01*
X16680501Y17159794D01*
X16297649Y17159794D01*
X16279531Y17344581D01*
X16277148Y17356616D01*
X16220968Y17542692D01*
X16216294Y17554033D01*
X16152577Y17673867D01*
X16142717Y17683948D01*
X16135589Y17681379D01*
X15612022Y17157812D01*
X15604408Y17143868D01*
X14874356Y17143868D01*
X14875592Y17146132D01*
X14875461Y17147965D01*
X14871210Y17154580D01*
X14349247Y17676543D01*
X14336867Y17683303D01*
X14330479Y17678521D01*
X14269510Y17567619D01*
X14264682Y17556355D01*
X14205906Y17371069D01*
X14203358Y17359080D01*
X14181690Y17165912D01*
X14181519Y17153643D01*
X-31224346Y17153643D01*
X-31112698Y17368118D01*
X-31107203Y17377637D01*
X-30890650Y17717557D01*
X-30884345Y17726561D01*
X-30638997Y18046304D01*
X-30637584Y18047988D01*
X14700730Y18047988D01*
X14703183Y18041027D01*
X15227188Y17517022D01*
X15241132Y17509408D01*
X15242965Y17509539D01*
X15249580Y17513790D01*
X15771777Y18035987D01*
X15778537Y18048367D01*
X15773878Y18054590D01*
X15655836Y18118415D01*
X15644531Y18123167D01*
X15458849Y18180646D01*
X15446836Y18183112D01*
X15253522Y18203430D01*
X15241254Y18203515D01*
X15047683Y18185899D01*
X15035634Y18183601D01*
X14849163Y18128719D01*
X14837795Y18124126D01*
X14710879Y18057776D01*
X14700730Y18047988D01*
X-30637584Y18047988D01*
X-30631932Y18054724D01*
X-30513836Y18183604D01*
X-30359642Y18351877D01*
X-30351873Y18359646D01*
X-30054724Y18631932D01*
X-30046304Y18638997D01*
X-29726561Y18884345D01*
X-29717557Y18890650D01*
X-29377637Y19107203D01*
X-29368117Y19112699D01*
X-29297060Y19149689D01*
X-29010623Y19298798D01*
X-29000679Y19303436D01*
X-28628299Y19457681D01*
X-28617985Y19461434D01*
X-28233600Y19582630D01*
X-28222990Y19585473D01*
X-27829495Y19672709D01*
X-27818691Y19674615D01*
X-27419094Y19727222D01*
X-27408146Y19728180D01*
X-27358276Y19730357D01*
X-27035693Y19744441D01*
X-27022654Y19743444D01*
X-27012169Y19743444D01*
X-27000000Y19741024D01*
X-26987153Y19743579D01*
X-26962575Y19746000D01*
X26962575Y19746000D01*
X26987153Y19743579D01*
G37*
G04 #@! TD.AperFunction*
M02*
