G04 #@! TF.GenerationSoftware,KiCad,Pcbnew,6.0.1-79c1e3a40b~116~ubuntu20.04.1*
G04 #@! TF.CreationDate,2022-02-03T13:07:55-05:00*
G04 #@! TF.ProjectId,d-lev_afe,642d6c65-765f-4616-9665-2e6b69636164,rev?*
G04 #@! TF.SameCoordinates,Original*
G04 #@! TF.FileFunction,Legend,Bot*
G04 #@! TF.FilePolarity,Positive*
%FSLAX46Y46*%
G04 Gerber Fmt 4.6, Leading zero omitted, Abs format (unit mm)*
G04 Created by KiCad (PCBNEW 6.0.1-79c1e3a40b~116~ubuntu20.04.1) date 2022-02-03 13:07:55*
%MOMM*%
%LPD*%
G01*
G04 APERTURE LIST*
G04 Aperture macros list*
%AMRoundRect*
0 Rectangle with rounded corners*
0 $1 Rounding radius*
0 $2 $3 $4 $5 $6 $7 $8 $9 X,Y pos of 4 corners*
0 Add a 4 corners polygon primitive as box body*
4,1,4,$2,$3,$4,$5,$6,$7,$8,$9,$2,$3,0*
0 Add four circle primitives for the rounded corners*
1,1,$1+$1,$2,$3*
1,1,$1+$1,$4,$5*
1,1,$1+$1,$6,$7*
1,1,$1+$1,$8,$9*
0 Add four rect primitives between the rounded corners*
20,1,$1+$1,$2,$3,$4,$5,0*
20,1,$1+$1,$4,$5,$6,$7,0*
20,1,$1+$1,$6,$7,$8,$9,0*
20,1,$1+$1,$8,$9,$2,$3,0*%
G04 Aperture macros list end*
%ADD10C,0.150000*%
%ADD11C,0.120000*%
%ADD12R,1.600000X1.600000*%
%ADD13C,1.600000*%
%ADD14C,3.200000*%
%ADD15RoundRect,0.250000X-0.600000X-0.600000X0.600000X-0.600000X0.600000X0.600000X-0.600000X0.600000X0*%
%ADD16C,1.700000*%
%ADD17R,1.700000X1.700000*%
%ADD18O,1.600000X1.600000*%
%ADD19R,1.500000X1.500000*%
%ADD20C,1.500000*%
%ADD21R,4.000000X4.000000*%
%ADD22C,3.000000*%
G04 APERTURE END LIST*
D10*
X10691666Y-16692619D02*
X10644047Y-16645000D01*
X10548809Y-16597380D01*
X10310714Y-16597380D01*
X10215476Y-16645000D01*
X10167857Y-16692619D01*
X10120238Y-16787857D01*
X10120238Y-16883095D01*
X10167857Y-17025952D01*
X10739285Y-17597380D01*
X10120238Y-17597380D01*
X9691666Y-16930714D02*
X9691666Y-17930714D01*
X9691666Y-16978333D02*
X9596428Y-16930714D01*
X9405952Y-16930714D01*
X9310714Y-16978333D01*
X9263095Y-17025952D01*
X9215476Y-17121190D01*
X9215476Y-17406904D01*
X9263095Y-17502142D01*
X9310714Y-17549761D01*
X9405952Y-17597380D01*
X9596428Y-17597380D01*
X9691666Y-17549761D01*
X8453571Y-17073571D02*
X8786904Y-17073571D01*
X8786904Y-17597380D02*
X8786904Y-16597380D01*
X8310714Y-16597380D01*
X15279523Y-17597380D02*
X15850952Y-17597380D01*
X15565238Y-17597380D02*
X15565238Y-16597380D01*
X15660476Y-16740238D01*
X15755714Y-16835476D01*
X15850952Y-16883095D01*
X14850952Y-17502142D02*
X14803333Y-17549761D01*
X14850952Y-17597380D01*
X14898571Y-17549761D01*
X14850952Y-17502142D01*
X14850952Y-17597380D01*
X13898571Y-16597380D02*
X14374761Y-16597380D01*
X14422380Y-17073571D01*
X14374761Y-17025952D01*
X14279523Y-16978333D01*
X14041428Y-16978333D01*
X13946190Y-17025952D01*
X13898571Y-17073571D01*
X13850952Y-17168809D01*
X13850952Y-17406904D01*
X13898571Y-17502142D01*
X13946190Y-17549761D01*
X14041428Y-17597380D01*
X14279523Y-17597380D01*
X14374761Y-17549761D01*
X14422380Y-17502142D01*
X13422380Y-16930714D02*
X13422380Y-17930714D01*
X13422380Y-16978333D02*
X13327142Y-16930714D01*
X13136666Y-16930714D01*
X13041428Y-16978333D01*
X12993809Y-17025952D01*
X12946190Y-17121190D01*
X12946190Y-17406904D01*
X12993809Y-17502142D01*
X13041428Y-17549761D01*
X13136666Y-17597380D01*
X13327142Y-17597380D01*
X13422380Y-17549761D01*
X12184285Y-17073571D02*
X12517619Y-17073571D01*
X12517619Y-17597380D02*
X12517619Y-16597380D01*
X12041428Y-16597380D01*
X19010238Y-17597380D02*
X19581666Y-17597380D01*
X19295952Y-17597380D02*
X19295952Y-16597380D01*
X19391190Y-16740238D01*
X19486428Y-16835476D01*
X19581666Y-16883095D01*
X18581666Y-16930714D02*
X18581666Y-17930714D01*
X18581666Y-16978333D02*
X18486428Y-16930714D01*
X18295952Y-16930714D01*
X18200714Y-16978333D01*
X18153095Y-17025952D01*
X18105476Y-17121190D01*
X18105476Y-17406904D01*
X18153095Y-17502142D01*
X18200714Y-17549761D01*
X18295952Y-17597380D01*
X18486428Y-17597380D01*
X18581666Y-17549761D01*
X17343571Y-17073571D02*
X17676904Y-17073571D01*
X17676904Y-17597380D02*
X17676904Y-16597380D01*
X17200714Y-16597380D01*
D11*
X20615000Y-11770000D02*
X16215000Y-11770000D01*
X16215000Y-16170000D02*
X20615000Y-16170000D01*
X20615000Y-16170000D02*
X20615000Y-11770000D01*
X16215000Y-11770000D02*
X16215000Y-16170000D01*
X15593000Y-13970000D02*
G75*
G03*
X15593000Y-13970000I-1750000J0D01*
G01*
X11529000Y-13970000D02*
G75*
G03*
X11529000Y-13970000I-1750000J0D01*
G01*
%LPC*%
D12*
X-17145000Y-7620000D03*
D13*
X-17145000Y-5120000D03*
D12*
X-10795000Y-7620000D03*
D13*
X-10795000Y-5120000D03*
X-8255000Y5715000D03*
X-8255000Y3215000D03*
X15240000Y17145000D03*
X17740000Y17145000D03*
X14605000Y5715000D03*
X14605000Y3215000D03*
D14*
X-27000000Y15000000D03*
D15*
X-26670000Y3810000D03*
D16*
X-24130000Y3810000D03*
X-26670000Y1270000D03*
X-24130000Y1270000D03*
X-26670000Y-1270000D03*
X-24130000Y-1270000D03*
X-26670000Y-3810000D03*
X-24130000Y-3810000D03*
D17*
X25400000Y9525000D03*
D13*
X5080000Y14605000D03*
D18*
X0Y14605000D03*
D12*
X-5080000Y-1905000D03*
D18*
X-2540000Y-1905000D03*
X0Y-1905000D03*
X2540000Y-1905000D03*
X5080000Y-1905000D03*
X7620000Y-1905000D03*
X10160000Y-1905000D03*
X10160000Y5715000D03*
X7620000Y5715000D03*
X5080000Y5715000D03*
X2540000Y5715000D03*
X0Y5715000D03*
X-2540000Y5715000D03*
X-5080000Y5715000D03*
D19*
X-11430000Y-13335000D03*
D20*
X-13970000Y-13335000D03*
X-16510000Y-13335000D03*
D19*
X13335000Y9525000D03*
D20*
X13335000Y12065000D03*
X13335000Y14605000D03*
D19*
X19685000Y9525000D03*
D20*
X19685000Y12065000D03*
X19685000Y14605000D03*
D13*
X20955000Y-7620000D03*
X15955000Y-7620000D03*
D14*
X27000000Y15000000D03*
X27000000Y-15000000D03*
D17*
X25400000Y-7620000D03*
D13*
X-8255000Y8255000D03*
D18*
X-18415000Y8255000D03*
D13*
X2540000Y10795000D03*
D18*
X7620000Y10795000D03*
D13*
X-18415000Y11430000D03*
D18*
X-8255000Y11430000D03*
D13*
X-5080000Y-10160000D03*
D18*
X0Y-10160000D03*
D13*
X0Y-5715000D03*
D18*
X-5080000Y-5715000D03*
D13*
X-18415000Y635000D03*
D18*
X-8255000Y635000D03*
D14*
X-27000000Y-15000000D03*
D17*
X29210000Y1905000D03*
X0Y-13970000D03*
D13*
X5080000Y-10160000D03*
X5080000Y-5160000D03*
D12*
X17780000Y-1905000D03*
D18*
X20320000Y-1905000D03*
X22860000Y-1905000D03*
X25400000Y-1905000D03*
X25400000Y5715000D03*
X22860000Y5715000D03*
X20320000Y5715000D03*
X17780000Y5715000D03*
D21*
X18415000Y-13970000D03*
D22*
X13843000Y-13970000D03*
X9779000Y-13970000D03*
M02*
