G04 #@! TF.GenerationSoftware,KiCad,Pcbnew,6.0.1-79c1e3a40b~116~ubuntu20.04.1*
G04 #@! TF.CreationDate,2022-02-03T13:07:55-05:00*
G04 #@! TF.ProjectId,d-lev_afe,642d6c65-765f-4616-9665-2e6b69636164,rev?*
G04 #@! TF.SameCoordinates,Original*
G04 #@! TF.FileFunction,Soldermask,Top*
G04 #@! TF.FilePolarity,Negative*
%FSLAX46Y46*%
G04 Gerber Fmt 4.6, Leading zero omitted, Abs format (unit mm)*
G04 Created by KiCad (PCBNEW 6.0.1-79c1e3a40b~116~ubuntu20.04.1) date 2022-02-03 13:07:55*
%MOMM*%
%LPD*%
G01*
G04 APERTURE LIST*
G04 Aperture macros list*
%AMRoundRect*
0 Rectangle with rounded corners*
0 $1 Rounding radius*
0 $2 $3 $4 $5 $6 $7 $8 $9 X,Y pos of 4 corners*
0 Add a 4 corners polygon primitive as box body*
4,1,4,$2,$3,$4,$5,$6,$7,$8,$9,$2,$3,0*
0 Add four circle primitives for the rounded corners*
1,1,$1+$1,$2,$3*
1,1,$1+$1,$4,$5*
1,1,$1+$1,$6,$7*
1,1,$1+$1,$8,$9*
0 Add four rect primitives between the rounded corners*
20,1,$1+$1,$2,$3,$4,$5,0*
20,1,$1+$1,$4,$5,$6,$7,0*
20,1,$1+$1,$6,$7,$8,$9,0*
20,1,$1+$1,$8,$9,$2,$3,0*%
G04 Aperture macros list end*
%ADD10R,1.600000X1.600000*%
%ADD11C,1.600000*%
%ADD12C,3.200000*%
%ADD13RoundRect,0.250000X-0.600000X-0.600000X0.600000X-0.600000X0.600000X0.600000X-0.600000X0.600000X0*%
%ADD14C,1.700000*%
%ADD15R,1.700000X1.700000*%
%ADD16O,1.600000X1.600000*%
%ADD17R,1.500000X1.500000*%
%ADD18C,1.500000*%
%ADD19R,4.000000X4.000000*%
%ADD20C,3.000000*%
G04 APERTURE END LIST*
D10*
X-17145000Y-7620000D03*
D11*
X-17145000Y-5120000D03*
D10*
X-10795000Y-7620000D03*
D11*
X-10795000Y-5120000D03*
X-8255000Y5715000D03*
X-8255000Y3215000D03*
X15240000Y17145000D03*
X17740000Y17145000D03*
X14605000Y5715000D03*
X14605000Y3215000D03*
D12*
X-27000000Y15000000D03*
D13*
X-26670000Y3810000D03*
D14*
X-24130000Y3810000D03*
X-26670000Y1270000D03*
X-24130000Y1270000D03*
X-26670000Y-1270000D03*
X-24130000Y-1270000D03*
X-26670000Y-3810000D03*
X-24130000Y-3810000D03*
D15*
X25400000Y9525000D03*
D11*
X5080000Y14605000D03*
D16*
X0Y14605000D03*
D10*
X-5080000Y-1905000D03*
D16*
X-2540000Y-1905000D03*
X0Y-1905000D03*
X2540000Y-1905000D03*
X5080000Y-1905000D03*
X7620000Y-1905000D03*
X10160000Y-1905000D03*
X10160000Y5715000D03*
X7620000Y5715000D03*
X5080000Y5715000D03*
X2540000Y5715000D03*
X0Y5715000D03*
X-2540000Y5715000D03*
X-5080000Y5715000D03*
D17*
X-11430000Y-13335000D03*
D18*
X-13970000Y-13335000D03*
X-16510000Y-13335000D03*
D17*
X13335000Y9525000D03*
D18*
X13335000Y12065000D03*
X13335000Y14605000D03*
D17*
X19685000Y9525000D03*
D18*
X19685000Y12065000D03*
X19685000Y14605000D03*
D11*
X20955000Y-7620000D03*
X15955000Y-7620000D03*
D12*
X27000000Y15000000D03*
X27000000Y-15000000D03*
D15*
X25400000Y-7620000D03*
D11*
X-8255000Y8255000D03*
D16*
X-18415000Y8255000D03*
D11*
X2540000Y10795000D03*
D16*
X7620000Y10795000D03*
D11*
X-18415000Y11430000D03*
D16*
X-8255000Y11430000D03*
D11*
X-5080000Y-10160000D03*
D16*
X0Y-10160000D03*
D11*
X0Y-5715000D03*
D16*
X-5080000Y-5715000D03*
D11*
X-18415000Y635000D03*
D16*
X-8255000Y635000D03*
D19*
X18415000Y-13970000D03*
D20*
X13843000Y-13970000D03*
D12*
X-27000000Y-15000000D03*
D20*
X9779000Y-13970000D03*
D15*
X29210000Y1905000D03*
X0Y-13970000D03*
D11*
X5080000Y-10160000D03*
X5080000Y-5160000D03*
D10*
X17780000Y-1905000D03*
D16*
X20320000Y-1905000D03*
X22860000Y-1905000D03*
X25400000Y-1905000D03*
X25400000Y5715000D03*
X22860000Y5715000D03*
X20320000Y5715000D03*
X17780000Y5715000D03*
M02*
