M48
; DRILL file {KiCad 6.0.1-79c1e3a40b~116~ubuntu20.04.1} date Thu 03 Feb 2022 01:09:26 PM EST
; FORMAT={-:-/ absolute / metric / decimal}
; #@! TF.CreationDate,2022-02-03T13:09:26-05:00
; #@! TF.GenerationSoftware,Kicad,Pcbnew,6.0.1-79c1e3a40b~116~ubuntu20.04.1
; #@! TF.FileFunction,Plated,1,2,PTH
FMAT,2
METRIC
; #@! TA.AperFunction,Plated,PTH,ComponentDrill
T1C0.800
; #@! TA.AperFunction,Plated,PTH,ComponentDrill
T2C1.000
%
G90
G05
T1
X-18.415Y11.43
X-18.415Y8.255
X-18.415Y0.635
X-17.145Y-5.12
X-17.145Y-7.62
X-16.51Y-13.335
X-13.97Y-13.335
X-11.43Y-13.335
X-10.795Y-5.12
X-10.795Y-7.62
X-8.255Y11.43
X-8.255Y8.255
X-8.255Y5.715
X-8.255Y3.215
X-8.255Y0.635
X-5.08Y5.715
X-5.08Y-1.905
X-5.08Y-5.715
X-5.08Y-10.16
X-2.54Y5.715
X-2.54Y-1.905
X0.0Y14.605
X0.0Y5.715
X0.0Y-1.905
X0.0Y-5.715
X0.0Y-10.16
X2.54Y10.795
X2.54Y5.715
X2.54Y-1.905
X5.08Y14.605
X5.08Y5.715
X5.08Y-1.905
X5.08Y-5.16
X5.08Y-10.16
X7.62Y10.795
X7.62Y5.715
X7.62Y-1.905
X10.16Y5.715
X10.16Y-1.905
X13.335Y14.605
X13.335Y12.065
X13.335Y9.525
X14.605Y5.715
X14.605Y3.215
X15.24Y17.145
X15.955Y-7.62
X17.74Y17.145
X17.78Y5.715
X17.78Y-1.905
X19.685Y14.605
X19.685Y12.065
X19.685Y9.525
X20.32Y5.715
X20.32Y-1.905
X20.955Y-7.62
X22.86Y5.715
X22.86Y-1.905
X25.4Y5.715
X25.4Y-1.905
T2
X-26.67Y3.81
X-26.67Y1.27
X-26.67Y-1.27
X-26.67Y-3.81
X-24.13Y3.81
X-24.13Y1.27
X-24.13Y-1.27
X-24.13Y-3.81
X0.0Y-13.97
X25.4Y9.525
X25.4Y-7.62
X29.21Y1.905
T0
M30
