%FSLAX45Y45*%
G04 Gerber Fmt 4.5, Leading zero omitted, Abs format (unit mm)*
G04 Created by KiCad (PCBNEW 6.0.1-79c1e3a40b~116~ubuntu20.04.1) date 2022-02-03 13:09:32*
%MOMM*%
%LPD*%
G01*
G04 APERTURE LIST*
%TA.AperFunction,Profile*%
%ADD10C,0.150000*%
%TD*%
%ADD11C,0.200000*%
%ADD12C,0.320000*%
G04 APERTURE END LIST*
D10*
X-3200000Y-1500000D02*
X-3200000Y1500000D01*
X2700000Y-2000000D02*
G75*
G03*
X3200000Y-1500000I0J500000D01*
G01*
X2700000Y-2000000D02*
X-2700000Y-2000000D01*
X3200000Y1500000D02*
X3200000Y-1500000D01*
X3200000Y1500000D02*
G75*
G03*
X2700000Y2000000I-500000J0D01*
G01*
X-2700000Y2000000D02*
X2700000Y2000000D01*
X-3200000Y-1500000D02*
G75*
G03*
X-2700000Y-2000000I500000J0D01*
G01*
X-2700000Y2000000D02*
G75*
G03*
X-3200000Y1500000I0J-500000D01*
G01*
D11*
D12*
X-2860000Y1660000D02*
X-2540000Y1340000D01*
X-2540000Y1660000D02*
X-2860000Y1340000D01*
X-2860000Y-1340000D02*
X-2540000Y-1660000D01*
X-2540000Y-1340000D02*
X-2860000Y-1660000D01*
X2540000Y1660000D02*
X2860000Y1340000D01*
X2860000Y1660000D02*
X2540000Y1340000D01*
X2540000Y-1340000D02*
X2860000Y-1660000D01*
X2860000Y-1340000D02*
X2540000Y-1660000D01*
D11*
X-2949881Y-2317976D02*
X-2949881Y-2117976D01*
X-2902262Y-2117976D01*
X-2873690Y-2127500D01*
X-2854643Y-2146548D01*
X-2845119Y-2165595D01*
X-2835595Y-2203690D01*
X-2835595Y-2232262D01*
X-2845119Y-2270357D01*
X-2854643Y-2289405D01*
X-2873690Y-2308452D01*
X-2902262Y-2317976D01*
X-2949881Y-2317976D01*
X-2749881Y-2317976D02*
X-2749881Y-2184643D01*
X-2749881Y-2222738D02*
X-2740357Y-2203690D01*
X-2730833Y-2194167D01*
X-2711786Y-2184643D01*
X-2692738Y-2184643D01*
X-2626071Y-2317976D02*
X-2626071Y-2184643D01*
X-2626071Y-2117976D02*
X-2635595Y-2127500D01*
X-2626071Y-2137024D01*
X-2616548Y-2127500D01*
X-2626071Y-2117976D01*
X-2626071Y-2137024D01*
X-2502262Y-2317976D02*
X-2521310Y-2308452D01*
X-2530833Y-2289405D01*
X-2530833Y-2117976D01*
X-2397500Y-2317976D02*
X-2416548Y-2308452D01*
X-2426071Y-2289405D01*
X-2426071Y-2117976D01*
X-2168929Y-2317976D02*
X-2168929Y-2117976D01*
X-2102262Y-2260833D01*
X-2035595Y-2117976D01*
X-2035595Y-2317976D01*
X-1854643Y-2317976D02*
X-1854643Y-2213214D01*
X-1864167Y-2194167D01*
X-1883214Y-2184643D01*
X-1921309Y-2184643D01*
X-1940357Y-2194167D01*
X-1854643Y-2308452D02*
X-1873690Y-2317976D01*
X-1921309Y-2317976D01*
X-1940357Y-2308452D01*
X-1949881Y-2289405D01*
X-1949881Y-2270357D01*
X-1940357Y-2251310D01*
X-1921309Y-2241786D01*
X-1873690Y-2241786D01*
X-1854643Y-2232262D01*
X-1759405Y-2184643D02*
X-1759405Y-2384643D01*
X-1759405Y-2194167D02*
X-1740357Y-2184643D01*
X-1702262Y-2184643D01*
X-1683214Y-2194167D01*
X-1673690Y-2203690D01*
X-1664167Y-2222738D01*
X-1664167Y-2279881D01*
X-1673690Y-2298929D01*
X-1683214Y-2308452D01*
X-1702262Y-2317976D01*
X-1740357Y-2317976D01*
X-1759405Y-2308452D01*
X-1578452Y-2298929D02*
X-1568928Y-2308452D01*
X-1578452Y-2317976D01*
X-1587976Y-2308452D01*
X-1578452Y-2298929D01*
X-1578452Y-2317976D01*
X-1578452Y-2194167D02*
X-1568928Y-2203690D01*
X-1578452Y-2213214D01*
X-1587976Y-2203690D01*
X-1578452Y-2194167D01*
X-1578452Y-2213214D01*
X-3407500Y-2547500D02*
X-3207500Y-2747500D01*
X-3207500Y-2547500D02*
X-3407500Y-2747500D01*
X-2968928Y-2537976D02*
X-2845119Y-2537976D01*
X-2911786Y-2614167D01*
X-2883214Y-2614167D01*
X-2864167Y-2623690D01*
X-2854643Y-2633214D01*
X-2845119Y-2652262D01*
X-2845119Y-2699881D01*
X-2854643Y-2718929D01*
X-2864167Y-2728452D01*
X-2883214Y-2737976D01*
X-2940357Y-2737976D01*
X-2959405Y-2728452D01*
X-2968928Y-2718929D01*
X-2759405Y-2718929D02*
X-2749881Y-2728452D01*
X-2759405Y-2737976D01*
X-2768929Y-2728452D01*
X-2759405Y-2718929D01*
X-2759405Y-2737976D01*
X-2673690Y-2557024D02*
X-2664167Y-2547500D01*
X-2645119Y-2537976D01*
X-2597500Y-2537976D01*
X-2578452Y-2547500D01*
X-2568929Y-2557024D01*
X-2559405Y-2576071D01*
X-2559405Y-2595119D01*
X-2568929Y-2623690D01*
X-2683214Y-2737976D01*
X-2559405Y-2737976D01*
X-2435595Y-2537976D02*
X-2416548Y-2537976D01*
X-2397500Y-2547500D01*
X-2387976Y-2557024D01*
X-2378452Y-2576071D01*
X-2368929Y-2614167D01*
X-2368929Y-2661786D01*
X-2378452Y-2699881D01*
X-2387976Y-2718929D01*
X-2397500Y-2728452D01*
X-2416548Y-2737976D01*
X-2435595Y-2737976D01*
X-2454643Y-2728452D01*
X-2464167Y-2718929D01*
X-2473690Y-2699881D01*
X-2483214Y-2661786D01*
X-2483214Y-2614167D01*
X-2473690Y-2576071D01*
X-2464167Y-2557024D01*
X-2454643Y-2547500D01*
X-2435595Y-2537976D01*
X-2245119Y-2537976D02*
X-2226071Y-2537976D01*
X-2207024Y-2547500D01*
X-2197500Y-2557024D01*
X-2187976Y-2576071D01*
X-2178452Y-2614167D01*
X-2178452Y-2661786D01*
X-2187976Y-2699881D01*
X-2197500Y-2718929D01*
X-2207024Y-2728452D01*
X-2226071Y-2737976D01*
X-2245119Y-2737976D01*
X-2264167Y-2728452D01*
X-2273690Y-2718929D01*
X-2283214Y-2699881D01*
X-2292738Y-2661786D01*
X-2292738Y-2614167D01*
X-2283214Y-2576071D01*
X-2273690Y-2557024D01*
X-2264167Y-2547500D01*
X-2245119Y-2537976D01*
X-2092738Y-2737976D02*
X-2092738Y-2604643D01*
X-2092738Y-2623690D02*
X-2083214Y-2614167D01*
X-2064167Y-2604643D01*
X-2035595Y-2604643D01*
X-2016548Y-2614167D01*
X-2007024Y-2633214D01*
X-2007024Y-2737976D01*
X-2007024Y-2633214D02*
X-1997500Y-2614167D01*
X-1978452Y-2604643D01*
X-1949881Y-2604643D01*
X-1930833Y-2614167D01*
X-1921309Y-2633214D01*
X-1921309Y-2737976D01*
X-1826071Y-2737976D02*
X-1826071Y-2604643D01*
X-1826071Y-2623690D02*
X-1816548Y-2614167D01*
X-1797500Y-2604643D01*
X-1768928Y-2604643D01*
X-1749881Y-2614167D01*
X-1740357Y-2633214D01*
X-1740357Y-2737976D01*
X-1740357Y-2633214D02*
X-1730833Y-2614167D01*
X-1711786Y-2604643D01*
X-1683214Y-2604643D01*
X-1664167Y-2614167D01*
X-1654643Y-2633214D01*
X-1654643Y-2737976D01*
X-1264167Y-2528452D02*
X-1435595Y-2785595D01*
X-1007024Y-2537976D02*
X-987976Y-2537976D01*
X-968928Y-2547500D01*
X-959405Y-2557024D01*
X-949881Y-2576071D01*
X-940357Y-2614167D01*
X-940357Y-2661786D01*
X-949881Y-2699881D01*
X-959405Y-2718929D01*
X-968928Y-2728452D01*
X-987976Y-2737976D01*
X-1007024Y-2737976D01*
X-1026071Y-2728452D01*
X-1035595Y-2718929D01*
X-1045119Y-2699881D01*
X-1054643Y-2661786D01*
X-1054643Y-2614167D01*
X-1045119Y-2576071D01*
X-1035595Y-2557024D01*
X-1026071Y-2547500D01*
X-1007024Y-2537976D01*
X-854643Y-2718929D02*
X-845119Y-2728452D01*
X-854643Y-2737976D01*
X-864167Y-2728452D01*
X-854643Y-2718929D01*
X-854643Y-2737976D01*
X-654643Y-2737976D02*
X-768928Y-2737976D01*
X-711786Y-2737976D02*
X-711786Y-2537976D01*
X-730833Y-2566548D01*
X-749881Y-2585595D01*
X-768928Y-2595119D01*
X-578452Y-2557024D02*
X-568929Y-2547500D01*
X-549881Y-2537976D01*
X-502262Y-2537976D01*
X-483214Y-2547500D01*
X-473690Y-2557024D01*
X-464167Y-2576071D01*
X-464167Y-2595119D01*
X-473690Y-2623690D01*
X-587976Y-2737976D01*
X-464167Y-2737976D01*
X-292738Y-2537976D02*
X-330833Y-2537976D01*
X-349881Y-2547500D01*
X-359405Y-2557024D01*
X-378452Y-2585595D01*
X-387976Y-2623690D01*
X-387976Y-2699881D01*
X-378452Y-2718929D01*
X-368928Y-2728452D01*
X-349881Y-2737976D01*
X-311786Y-2737976D01*
X-292738Y-2728452D01*
X-283214Y-2718929D01*
X-273690Y-2699881D01*
X-273690Y-2652262D01*
X-283214Y-2633214D01*
X-292738Y-2623690D01*
X-311786Y-2614167D01*
X-349881Y-2614167D01*
X-368928Y-2623690D01*
X-378452Y-2633214D01*
X-387976Y-2652262D01*
X-149881Y-2537976D02*
X-130833Y-2537976D01*
X-111786Y-2547500D01*
X-102262Y-2557024D01*
X-92738Y-2576071D01*
X-83214Y-2614167D01*
X-83214Y-2661786D01*
X-92738Y-2699881D01*
X-102262Y-2718929D01*
X-111786Y-2728452D01*
X-130833Y-2737976D01*
X-149881Y-2737976D01*
X-168929Y-2728452D01*
X-178452Y-2718929D01*
X-187976Y-2699881D01*
X-197500Y-2661786D01*
X-197500Y-2614167D01*
X-187976Y-2576071D01*
X-178452Y-2557024D01*
X-168929Y-2547500D01*
X-149881Y-2537976D01*
X-7024Y-2537976D02*
X-7024Y-2576071D01*
X69167Y-2537976D02*
X69167Y-2576071D01*
X364405Y-2814167D02*
X354881Y-2804643D01*
X335833Y-2776071D01*
X326310Y-2757024D01*
X316786Y-2728452D01*
X307262Y-2680833D01*
X307262Y-2642738D01*
X316786Y-2595119D01*
X326310Y-2566548D01*
X335833Y-2547500D01*
X354881Y-2518929D01*
X364405Y-2509405D01*
X526310Y-2604643D02*
X526310Y-2737976D01*
X478690Y-2528452D02*
X431071Y-2671310D01*
X554881Y-2671310D01*
X783452Y-2737976D02*
X783452Y-2537976D01*
X869167Y-2737976D02*
X869167Y-2633214D01*
X859643Y-2614167D01*
X840595Y-2604643D01*
X812024Y-2604643D01*
X792976Y-2614167D01*
X783452Y-2623690D01*
X992976Y-2737976D02*
X973928Y-2728452D01*
X964405Y-2718929D01*
X954881Y-2699881D01*
X954881Y-2642738D01*
X964405Y-2623690D01*
X973928Y-2614167D01*
X992976Y-2604643D01*
X1021548Y-2604643D01*
X1040595Y-2614167D01*
X1050119Y-2623690D01*
X1059643Y-2642738D01*
X1059643Y-2699881D01*
X1050119Y-2718929D01*
X1040595Y-2728452D01*
X1021548Y-2737976D01*
X992976Y-2737976D01*
X1173929Y-2737976D02*
X1154881Y-2728452D01*
X1145357Y-2709405D01*
X1145357Y-2537976D01*
X1326310Y-2728452D02*
X1307262Y-2737976D01*
X1269167Y-2737976D01*
X1250119Y-2728452D01*
X1240595Y-2709405D01*
X1240595Y-2633214D01*
X1250119Y-2614167D01*
X1269167Y-2604643D01*
X1307262Y-2604643D01*
X1326310Y-2614167D01*
X1335833Y-2633214D01*
X1335833Y-2652262D01*
X1240595Y-2671310D01*
X1412024Y-2728452D02*
X1431071Y-2737976D01*
X1469167Y-2737976D01*
X1488214Y-2728452D01*
X1497738Y-2709405D01*
X1497738Y-2699881D01*
X1488214Y-2680833D01*
X1469167Y-2671310D01*
X1440595Y-2671310D01*
X1421548Y-2661786D01*
X1412024Y-2642738D01*
X1412024Y-2633214D01*
X1421548Y-2614167D01*
X1440595Y-2604643D01*
X1469167Y-2604643D01*
X1488214Y-2614167D01*
X1564405Y-2814167D02*
X1573928Y-2804643D01*
X1592976Y-2776071D01*
X1602500Y-2757024D01*
X1612024Y-2728452D01*
X1621548Y-2680833D01*
X1621548Y-2642738D01*
X1612024Y-2595119D01*
X1602500Y-2566548D01*
X1592976Y-2547500D01*
X1573928Y-2518929D01*
X1564405Y-2509405D01*
X1926309Y-2814167D02*
X1916786Y-2804643D01*
X1897738Y-2776071D01*
X1888214Y-2757024D01*
X1878690Y-2728452D01*
X1869167Y-2680833D01*
X1869167Y-2642738D01*
X1878690Y-2595119D01*
X1888214Y-2566548D01*
X1897738Y-2547500D01*
X1916786Y-2518929D01*
X1926309Y-2509405D01*
X2002500Y-2604643D02*
X2002500Y-2737976D01*
X2002500Y-2623690D02*
X2012024Y-2614167D01*
X2031071Y-2604643D01*
X2059643Y-2604643D01*
X2078690Y-2614167D01*
X2088214Y-2633214D01*
X2088214Y-2737976D01*
X2212024Y-2737976D02*
X2192976Y-2728452D01*
X2183452Y-2718929D01*
X2173929Y-2699881D01*
X2173929Y-2642738D01*
X2183452Y-2623690D01*
X2192976Y-2614167D01*
X2212024Y-2604643D01*
X2240595Y-2604643D01*
X2259643Y-2614167D01*
X2269167Y-2623690D01*
X2278690Y-2642738D01*
X2278690Y-2699881D01*
X2269167Y-2718929D01*
X2259643Y-2728452D01*
X2240595Y-2737976D01*
X2212024Y-2737976D01*
X2335833Y-2604643D02*
X2412024Y-2604643D01*
X2364405Y-2537976D02*
X2364405Y-2709405D01*
X2373929Y-2728452D01*
X2392976Y-2737976D01*
X2412024Y-2737976D01*
X2631071Y-2604643D02*
X2631071Y-2804643D01*
X2631071Y-2614167D02*
X2650119Y-2604643D01*
X2688214Y-2604643D01*
X2707262Y-2614167D01*
X2716786Y-2623690D01*
X2726310Y-2642738D01*
X2726310Y-2699881D01*
X2716786Y-2718929D01*
X2707262Y-2728452D01*
X2688214Y-2737976D01*
X2650119Y-2737976D01*
X2631071Y-2728452D01*
X2840595Y-2737976D02*
X2821548Y-2728452D01*
X2812024Y-2709405D01*
X2812024Y-2537976D01*
X3002500Y-2737976D02*
X3002500Y-2633214D01*
X2992976Y-2614167D01*
X2973928Y-2604643D01*
X2935833Y-2604643D01*
X2916786Y-2614167D01*
X3002500Y-2728452D02*
X2983452Y-2737976D01*
X2935833Y-2737976D01*
X2916786Y-2728452D01*
X2907262Y-2709405D01*
X2907262Y-2690357D01*
X2916786Y-2671310D01*
X2935833Y-2661786D01*
X2983452Y-2661786D01*
X3002500Y-2652262D01*
X3069167Y-2604643D02*
X3145357Y-2604643D01*
X3097738Y-2537976D02*
X3097738Y-2709405D01*
X3107262Y-2728452D01*
X3126309Y-2737976D01*
X3145357Y-2737976D01*
X3288214Y-2728452D02*
X3269167Y-2737976D01*
X3231071Y-2737976D01*
X3212024Y-2728452D01*
X3202500Y-2709405D01*
X3202500Y-2633214D01*
X3212024Y-2614167D01*
X3231071Y-2604643D01*
X3269167Y-2604643D01*
X3288214Y-2614167D01*
X3297738Y-2633214D01*
X3297738Y-2652262D01*
X3202500Y-2671310D01*
X3469167Y-2737976D02*
X3469167Y-2537976D01*
X3469167Y-2728452D02*
X3450119Y-2737976D01*
X3412024Y-2737976D01*
X3392976Y-2728452D01*
X3383452Y-2718929D01*
X3373928Y-2699881D01*
X3373928Y-2642738D01*
X3383452Y-2623690D01*
X3392976Y-2614167D01*
X3412024Y-2604643D01*
X3450119Y-2604643D01*
X3469167Y-2614167D01*
X3545357Y-2814167D02*
X3554881Y-2804643D01*
X3573928Y-2776071D01*
X3583452Y-2757024D01*
X3592976Y-2728452D01*
X3602500Y-2680833D01*
X3602500Y-2642738D01*
X3592976Y-2595119D01*
X3583452Y-2566548D01*
X3573928Y-2547500D01*
X3554881Y-2518929D01*
X3545357Y-2509405D01*
M02*
