%FSLAX45Y45*%
G04 Gerber Fmt 4.5, Leading zero omitted, Abs format (unit mm)*
G04 Created by KiCad (PCBNEW 6.0.1-79c1e3a40b~116~ubuntu20.04.1) date 2022-02-03 13:12:14*
%MOMM*%
%LPD*%
G01*
G04 APERTURE LIST*
%TA.AperFunction,Profile*%
%ADD10C,0.150000*%
%TD*%
%ADD11C,0.200000*%
%ADD12C,0.080000*%
%ADD13C,0.100000*%
G04 APERTURE END LIST*
D10*
X-4000000Y-81000D02*
X-4000000Y4145000D01*
X4000000Y4145000D02*
G75*
G03*
X3700000Y4445000I-300000J0D01*
G01*
X4000000Y4145000D02*
X4000000Y-81000D01*
X3700000Y-381000D02*
X-3700000Y-381000D01*
X3700000Y-381000D02*
G75*
G03*
X4000000Y-81000I0J300000D01*
G01*
X-3700000Y4445000D02*
G75*
G03*
X-4000000Y4145000I0J-300000D01*
G01*
X-4000000Y-81000D02*
G75*
G03*
X-3700000Y-381000I300000J0D01*
G01*
X-3700000Y4445000D02*
X3700000Y4445000D01*
D11*
D12*
X-3596000Y3659500D02*
X-3516000Y3579500D01*
X-3516000Y3659500D02*
X-3596000Y3579500D01*
X-3596000Y2897500D02*
X-3516000Y2817500D01*
X-3516000Y2897500D02*
X-3596000Y2817500D01*
X-3342000Y3659500D02*
X-3262000Y3579500D01*
X-3262000Y3659500D02*
X-3342000Y3579500D01*
X-3342000Y2897500D02*
X-3262000Y2817500D01*
X-3262000Y2897500D02*
X-3342000Y2817500D01*
X-3088000Y3659500D02*
X-3008000Y3579500D01*
X-3008000Y3659500D02*
X-3088000Y3579500D01*
X-3088000Y2897500D02*
X-3008000Y2817500D01*
X-3008000Y2897500D02*
X-3088000Y2817500D01*
X-2834000Y3659500D02*
X-2754000Y3579500D01*
X-2754000Y3659500D02*
X-2834000Y3579500D01*
X-2834000Y2897500D02*
X-2754000Y2817500D01*
X-2754000Y2897500D02*
X-2834000Y2817500D01*
X-2580000Y3659500D02*
X-2500000Y3579500D01*
X-2500000Y3659500D02*
X-2580000Y3579500D01*
X-2580000Y2897500D02*
X-2500000Y2817500D01*
X-2500000Y2897500D02*
X-2580000Y2817500D01*
X-2326000Y3659500D02*
X-2246000Y3579500D01*
X-2246000Y3659500D02*
X-2326000Y3579500D01*
X-2326000Y2897500D02*
X-2246000Y2817500D01*
X-2246000Y2897500D02*
X-2326000Y2817500D01*
X-2262500Y2135500D02*
X-2182500Y2055500D01*
X-2182500Y2135500D02*
X-2262500Y2055500D01*
X-2072000Y3659500D02*
X-1992000Y3579500D01*
X-1992000Y3659500D02*
X-2072000Y3579500D01*
X-2072000Y2897500D02*
X-1992000Y2817500D01*
X-1992000Y2897500D02*
X-2072000Y2817500D01*
X-2072000Y2516500D02*
X-1992000Y2436500D01*
X-1992000Y2516500D02*
X-2072000Y2436500D01*
X-1818000Y3659500D02*
X-1738000Y3579500D01*
X-1738000Y3659500D02*
X-1818000Y3579500D01*
X-1818000Y2897500D02*
X-1738000Y2817500D01*
X-1738000Y2897500D02*
X-1818000Y2817500D01*
X-1754500Y2135500D02*
X-1674500Y2055500D01*
X-1674500Y2135500D02*
X-1754500Y2055500D01*
X-1564000Y2516500D02*
X-1484000Y2436500D01*
X-1484000Y2516500D02*
X-1564000Y2436500D01*
X-1500500Y3147500D02*
X-1420500Y3067500D01*
X-1420500Y3147500D02*
X-1500500Y3067500D01*
X-1500500Y2897500D02*
X-1420500Y2817500D01*
X-1420500Y2897500D02*
X-1500500Y2817500D01*
X-1183000Y2580000D02*
X-1103000Y2500000D01*
X-1103000Y2580000D02*
X-1183000Y2500000D01*
X-1183000Y2326000D02*
X-1103000Y2246000D01*
X-1103000Y2326000D02*
X-1183000Y2246000D01*
X-1183000Y2072000D02*
X-1103000Y1992000D01*
X-1103000Y2072000D02*
X-1183000Y1992000D01*
X-1183000Y1818000D02*
X-1103000Y1738000D01*
X-1103000Y1818000D02*
X-1183000Y1738000D01*
X-1183000Y1564000D02*
X-1103000Y1484000D01*
X-1103000Y1564000D02*
X-1183000Y1484000D01*
X-1183000Y1310000D02*
X-1103000Y1230000D01*
X-1103000Y1310000D02*
X-1183000Y1230000D01*
X-1183000Y1056000D02*
X-1103000Y976000D01*
X-1103000Y1056000D02*
X-1183000Y976000D01*
X-1183000Y802000D02*
X-1103000Y722000D01*
X-1103000Y802000D02*
X-1183000Y722000D01*
X-671000Y2897500D02*
X-591000Y2817500D01*
X-591000Y2897500D02*
X-671000Y2817500D01*
X-421000Y2897500D02*
X-341000Y2817500D01*
X-341000Y2897500D02*
X-421000Y2817500D01*
X-421000Y2580000D02*
X-341000Y2500000D01*
X-341000Y2580000D02*
X-421000Y2500000D01*
X-421000Y2326000D02*
X-341000Y2246000D01*
X-341000Y2326000D02*
X-421000Y2246000D01*
X-421000Y2072000D02*
X-341000Y1992000D01*
X-341000Y2072000D02*
X-421000Y1992000D01*
X-421000Y1818000D02*
X-341000Y1738000D01*
X-341000Y1818000D02*
X-421000Y1738000D01*
X-421000Y1564000D02*
X-341000Y1484000D01*
X-341000Y1564000D02*
X-421000Y1484000D01*
X-421000Y1310000D02*
X-341000Y1230000D01*
X-341000Y1310000D02*
X-421000Y1230000D01*
X-421000Y1056000D02*
X-341000Y976000D01*
X-341000Y1056000D02*
X-421000Y976000D01*
X-421000Y802000D02*
X-341000Y722000D01*
X-341000Y802000D02*
X-421000Y722000D01*
X-40000Y2834000D02*
X40000Y2754000D01*
X40000Y2834000D02*
X-40000Y2754000D01*
X-40000Y2326000D02*
X40000Y2246000D01*
X40000Y2326000D02*
X-40000Y2246000D01*
X722000Y3532500D02*
X802000Y3452500D01*
X802000Y3532500D02*
X722000Y3452500D01*
X722000Y3024500D02*
X802000Y2944500D01*
X802000Y3024500D02*
X722000Y2944500D01*
X722000Y2580000D02*
X802000Y2500000D01*
X802000Y2580000D02*
X722000Y2500000D01*
X722000Y2326000D02*
X802000Y2246000D01*
X802000Y2326000D02*
X722000Y2246000D01*
X722000Y2072000D02*
X802000Y1992000D01*
X802000Y2072000D02*
X722000Y1992000D01*
X722000Y1818000D02*
X802000Y1738000D01*
X802000Y1818000D02*
X722000Y1738000D01*
X722000Y1564000D02*
X802000Y1484000D01*
X802000Y1564000D02*
X722000Y1484000D01*
X722000Y1310000D02*
X802000Y1230000D01*
X802000Y1310000D02*
X722000Y1230000D01*
X722000Y1056000D02*
X802000Y976000D01*
X802000Y1056000D02*
X722000Y976000D01*
X722000Y802000D02*
X802000Y722000D01*
X802000Y802000D02*
X722000Y722000D01*
X1234000Y2897500D02*
X1314000Y2817500D01*
X1314000Y2897500D02*
X1234000Y2817500D01*
X1484000Y3592000D02*
X1564000Y3512000D01*
X1564000Y3592000D02*
X1484000Y3512000D01*
X1484000Y3342000D02*
X1564000Y3262000D01*
X1564000Y3342000D02*
X1484000Y3262000D01*
X1484000Y2897500D02*
X1564000Y2817500D01*
X1564000Y2897500D02*
X1484000Y2817500D01*
X1484000Y2580000D02*
X1564000Y2500000D01*
X1564000Y2580000D02*
X1484000Y2500000D01*
X1484000Y2326000D02*
X1564000Y2246000D01*
X1564000Y2326000D02*
X1484000Y2246000D01*
X1484000Y2072000D02*
X1564000Y1992000D01*
X1564000Y2072000D02*
X1484000Y1992000D01*
X1484000Y1818000D02*
X1564000Y1738000D01*
X1564000Y1818000D02*
X1484000Y1738000D01*
X1484000Y1564000D02*
X1564000Y1484000D01*
X1564000Y1564000D02*
X1484000Y1484000D01*
X1484000Y1310000D02*
X1564000Y1230000D01*
X1564000Y1310000D02*
X1484000Y1230000D01*
X1484000Y1056000D02*
X1564000Y976000D01*
X1564000Y1056000D02*
X1484000Y976000D01*
X1484000Y802000D02*
X1564000Y722000D01*
X1564000Y802000D02*
X1484000Y722000D01*
X1865000Y2834000D02*
X1945000Y2754000D01*
X1945000Y2834000D02*
X1865000Y2754000D01*
X1865000Y2326000D02*
X1945000Y2246000D01*
X1945000Y2326000D02*
X1865000Y2246000D01*
X1928500Y3342000D02*
X2008500Y3262000D01*
X2008500Y3342000D02*
X1928500Y3262000D01*
X2182500Y3342000D02*
X2262500Y3262000D01*
X2262500Y3342000D02*
X2182500Y3262000D01*
X2436500Y3342000D02*
X2516500Y3262000D01*
X2516500Y3342000D02*
X2436500Y3262000D01*
X2881000Y3592000D02*
X2961000Y3512000D01*
X2961000Y3592000D02*
X2881000Y3512000D01*
X2881000Y3342000D02*
X2961000Y3262000D01*
X2961000Y3342000D02*
X2881000Y3262000D01*
D13*
X-3633000Y0D02*
G75*
G03*
X-3633000Y0I-50000J0D01*
G01*
X-3379000Y0D02*
G75*
G03*
X-3379000Y0I-50000J0D01*
G01*
X-3125000Y0D02*
G75*
G03*
X-3125000Y0I-50000J0D01*
G01*
X-2871000Y0D02*
G75*
G03*
X-2871000Y0I-50000J0D01*
G01*
X-2617000Y0D02*
G75*
G03*
X-2617000Y0I-50000J0D01*
G01*
X-2363000Y0D02*
G75*
G03*
X-2363000Y0I-50000J0D01*
G01*
X-2109000Y0D02*
G75*
G03*
X-2109000Y0I-50000J0D01*
G01*
X-1855000Y0D02*
G75*
G03*
X-1855000Y0I-50000J0D01*
G01*
X-1601000Y0D02*
G75*
G03*
X-1601000Y0I-50000J0D01*
G01*
X-1347000Y0D02*
G75*
G03*
X-1347000Y0I-50000J0D01*
G01*
X-1093000Y0D02*
G75*
G03*
X-1093000Y0I-50000J0D01*
G01*
X-839000Y0D02*
G75*
G03*
X-839000Y0I-50000J0D01*
G01*
X-585000Y0D02*
G75*
G03*
X-585000Y0I-50000J0D01*
G01*
X-331000Y0D02*
G75*
G03*
X-331000Y0I-50000J0D01*
G01*
X-77000Y0D02*
G75*
G03*
X-77000Y0I-50000J0D01*
G01*
X177000Y0D02*
G75*
G03*
X177000Y0I-50000J0D01*
G01*
X304000Y508000D02*
G75*
G03*
X304000Y508000I-50000J0D01*
G01*
X431000Y0D02*
G75*
G03*
X431000Y0I-50000J0D01*
G01*
X685000Y0D02*
G75*
G03*
X685000Y0I-50000J0D01*
G01*
X939000Y0D02*
G75*
G03*
X939000Y0I-50000J0D01*
G01*
X1193000Y0D02*
G75*
G03*
X1193000Y0I-50000J0D01*
G01*
X1447000Y0D02*
G75*
G03*
X1447000Y0I-50000J0D01*
G01*
X1701000Y0D02*
G75*
G03*
X1701000Y0I-50000J0D01*
G01*
X1955000Y0D02*
G75*
G03*
X1955000Y0I-50000J0D01*
G01*
X2209000Y0D02*
G75*
G03*
X2209000Y0I-50000J0D01*
G01*
X2463000Y0D02*
G75*
G03*
X2463000Y0I-50000J0D01*
G01*
X2717000Y2413000D02*
G75*
G03*
X2717000Y2413000I-50000J0D01*
G01*
X2717000Y2159000D02*
G75*
G03*
X2717000Y2159000I-50000J0D01*
G01*
X2717000Y1905000D02*
G75*
G03*
X2717000Y1905000I-50000J0D01*
G01*
X2717000Y1651000D02*
G75*
G03*
X2717000Y1651000I-50000J0D01*
G01*
X2717000Y0D02*
G75*
G03*
X2717000Y0I-50000J0D01*
G01*
X2971000Y2413000D02*
G75*
G03*
X2971000Y2413000I-50000J0D01*
G01*
X2971000Y2159000D02*
G75*
G03*
X2971000Y2159000I-50000J0D01*
G01*
X2971000Y1905000D02*
G75*
G03*
X2971000Y1905000I-50000J0D01*
G01*
X2971000Y1651000D02*
G75*
G03*
X2971000Y1651000I-50000J0D01*
G01*
X2971000Y0D02*
G75*
G03*
X2971000Y0I-50000J0D01*
G01*
X3225000Y0D02*
G75*
G03*
X3225000Y0I-50000J0D01*
G01*
X3479000Y0D02*
G75*
G03*
X3479000Y0I-50000J0D01*
G01*
X3733000Y0D02*
G75*
G03*
X3733000Y0I-50000J0D01*
G01*
D11*
X-3749881Y-698976D02*
X-3749881Y-498976D01*
X-3702262Y-498976D01*
X-3673690Y-508500D01*
X-3654643Y-527548D01*
X-3645119Y-546595D01*
X-3635595Y-584690D01*
X-3635595Y-613262D01*
X-3645119Y-651357D01*
X-3654643Y-670405D01*
X-3673690Y-689452D01*
X-3702262Y-698976D01*
X-3749881Y-698976D01*
X-3549881Y-698976D02*
X-3549881Y-565643D01*
X-3549881Y-603738D02*
X-3540357Y-584690D01*
X-3530833Y-575167D01*
X-3511786Y-565643D01*
X-3492738Y-565643D01*
X-3426071Y-698976D02*
X-3426071Y-565643D01*
X-3426071Y-498976D02*
X-3435595Y-508500D01*
X-3426071Y-518024D01*
X-3416548Y-508500D01*
X-3426071Y-498976D01*
X-3426071Y-518024D01*
X-3302262Y-698976D02*
X-3321309Y-689452D01*
X-3330833Y-670405D01*
X-3330833Y-498976D01*
X-3197500Y-698976D02*
X-3216548Y-689452D01*
X-3226071Y-670405D01*
X-3226071Y-498976D01*
X-2968928Y-698976D02*
X-2968928Y-498976D01*
X-2902262Y-641833D01*
X-2835595Y-498976D01*
X-2835595Y-698976D01*
X-2654643Y-698976D02*
X-2654643Y-594214D01*
X-2664167Y-575167D01*
X-2683214Y-565643D01*
X-2721310Y-565643D01*
X-2740357Y-575167D01*
X-2654643Y-689452D02*
X-2673690Y-698976D01*
X-2721310Y-698976D01*
X-2740357Y-689452D01*
X-2749881Y-670405D01*
X-2749881Y-651357D01*
X-2740357Y-632310D01*
X-2721310Y-622786D01*
X-2673690Y-622786D01*
X-2654643Y-613262D01*
X-2559405Y-565643D02*
X-2559405Y-765643D01*
X-2559405Y-575167D02*
X-2540357Y-565643D01*
X-2502262Y-565643D01*
X-2483214Y-575167D01*
X-2473690Y-584690D01*
X-2464167Y-603738D01*
X-2464167Y-660881D01*
X-2473690Y-679929D01*
X-2483214Y-689452D01*
X-2502262Y-698976D01*
X-2540357Y-698976D01*
X-2559405Y-689452D01*
X-2378452Y-679929D02*
X-2368929Y-689452D01*
X-2378452Y-698976D01*
X-2387976Y-689452D01*
X-2378452Y-679929D01*
X-2378452Y-698976D01*
X-2378452Y-575167D02*
X-2368929Y-584690D01*
X-2378452Y-594214D01*
X-2387976Y-584690D01*
X-2378452Y-575167D01*
X-2378452Y-594214D01*
D12*
X-4087500Y-988500D02*
X-4007500Y-1068500D01*
X-4007500Y-988500D02*
X-4087500Y-1068500D01*
D11*
X-3711786Y-918976D02*
X-3692738Y-918976D01*
X-3673690Y-928500D01*
X-3664167Y-938024D01*
X-3654643Y-957071D01*
X-3645119Y-995167D01*
X-3645119Y-1042786D01*
X-3654643Y-1080881D01*
X-3664167Y-1099929D01*
X-3673690Y-1109452D01*
X-3692738Y-1118976D01*
X-3711786Y-1118976D01*
X-3730833Y-1109452D01*
X-3740357Y-1099929D01*
X-3749881Y-1080881D01*
X-3759405Y-1042786D01*
X-3759405Y-995167D01*
X-3749881Y-957071D01*
X-3740357Y-938024D01*
X-3730833Y-928500D01*
X-3711786Y-918976D01*
X-3559405Y-1099929D02*
X-3549881Y-1109452D01*
X-3559405Y-1118976D01*
X-3568928Y-1109452D01*
X-3559405Y-1099929D01*
X-3559405Y-1118976D01*
X-3435595Y-1004690D02*
X-3454643Y-995167D01*
X-3464167Y-985643D01*
X-3473690Y-966595D01*
X-3473690Y-957071D01*
X-3464167Y-938024D01*
X-3454643Y-928500D01*
X-3435595Y-918976D01*
X-3397500Y-918976D01*
X-3378452Y-928500D01*
X-3368928Y-938024D01*
X-3359405Y-957071D01*
X-3359405Y-966595D01*
X-3368928Y-985643D01*
X-3378452Y-995167D01*
X-3397500Y-1004690D01*
X-3435595Y-1004690D01*
X-3454643Y-1014214D01*
X-3464167Y-1023738D01*
X-3473690Y-1042786D01*
X-3473690Y-1080881D01*
X-3464167Y-1099929D01*
X-3454643Y-1109452D01*
X-3435595Y-1118976D01*
X-3397500Y-1118976D01*
X-3378452Y-1109452D01*
X-3368928Y-1099929D01*
X-3359405Y-1080881D01*
X-3359405Y-1042786D01*
X-3368928Y-1023738D01*
X-3378452Y-1014214D01*
X-3397500Y-1004690D01*
X-3235595Y-918976D02*
X-3216548Y-918976D01*
X-3197500Y-928500D01*
X-3187976Y-938024D01*
X-3178452Y-957071D01*
X-3168928Y-995167D01*
X-3168928Y-1042786D01*
X-3178452Y-1080881D01*
X-3187976Y-1099929D01*
X-3197500Y-1109452D01*
X-3216548Y-1118976D01*
X-3235595Y-1118976D01*
X-3254643Y-1109452D01*
X-3264167Y-1099929D01*
X-3273690Y-1080881D01*
X-3283214Y-1042786D01*
X-3283214Y-995167D01*
X-3273690Y-957071D01*
X-3264167Y-938024D01*
X-3254643Y-928500D01*
X-3235595Y-918976D01*
X-3045119Y-918976D02*
X-3026071Y-918976D01*
X-3007024Y-928500D01*
X-2997500Y-938024D01*
X-2987976Y-957071D01*
X-2978452Y-995167D01*
X-2978452Y-1042786D01*
X-2987976Y-1080881D01*
X-2997500Y-1099929D01*
X-3007024Y-1109452D01*
X-3026071Y-1118976D01*
X-3045119Y-1118976D01*
X-3064167Y-1109452D01*
X-3073690Y-1099929D01*
X-3083214Y-1080881D01*
X-3092738Y-1042786D01*
X-3092738Y-995167D01*
X-3083214Y-957071D01*
X-3073690Y-938024D01*
X-3064167Y-928500D01*
X-3045119Y-918976D01*
X-2892738Y-1118976D02*
X-2892738Y-985643D01*
X-2892738Y-1004690D02*
X-2883214Y-995167D01*
X-2864167Y-985643D01*
X-2835595Y-985643D01*
X-2816548Y-995167D01*
X-2807024Y-1014214D01*
X-2807024Y-1118976D01*
X-2807024Y-1014214D02*
X-2797500Y-995167D01*
X-2778452Y-985643D01*
X-2749881Y-985643D01*
X-2730833Y-995167D01*
X-2721310Y-1014214D01*
X-2721310Y-1118976D01*
X-2626071Y-1118976D02*
X-2626071Y-985643D01*
X-2626071Y-1004690D02*
X-2616548Y-995167D01*
X-2597500Y-985643D01*
X-2568929Y-985643D01*
X-2549881Y-995167D01*
X-2540357Y-1014214D01*
X-2540357Y-1118976D01*
X-2540357Y-1014214D02*
X-2530833Y-995167D01*
X-2511786Y-985643D01*
X-2483214Y-985643D01*
X-2464167Y-995167D01*
X-2454643Y-1014214D01*
X-2454643Y-1118976D01*
X-2064167Y-909452D02*
X-2235595Y-1166595D01*
X-1807024Y-918976D02*
X-1787976Y-918976D01*
X-1768928Y-928500D01*
X-1759405Y-938024D01*
X-1749881Y-957071D01*
X-1740357Y-995167D01*
X-1740357Y-1042786D01*
X-1749881Y-1080881D01*
X-1759405Y-1099929D01*
X-1768928Y-1109452D01*
X-1787976Y-1118976D01*
X-1807024Y-1118976D01*
X-1826071Y-1109452D01*
X-1835595Y-1099929D01*
X-1845119Y-1080881D01*
X-1854643Y-1042786D01*
X-1854643Y-995167D01*
X-1845119Y-957071D01*
X-1835595Y-938024D01*
X-1826071Y-928500D01*
X-1807024Y-918976D01*
X-1654643Y-1099929D02*
X-1645119Y-1109452D01*
X-1654643Y-1118976D01*
X-1664167Y-1109452D01*
X-1654643Y-1099929D01*
X-1654643Y-1118976D01*
X-1521309Y-918976D02*
X-1502262Y-918976D01*
X-1483214Y-928500D01*
X-1473690Y-938024D01*
X-1464167Y-957071D01*
X-1454643Y-995167D01*
X-1454643Y-1042786D01*
X-1464167Y-1080881D01*
X-1473690Y-1099929D01*
X-1483214Y-1109452D01*
X-1502262Y-1118976D01*
X-1521309Y-1118976D01*
X-1540357Y-1109452D01*
X-1549881Y-1099929D01*
X-1559405Y-1080881D01*
X-1568928Y-1042786D01*
X-1568928Y-995167D01*
X-1559405Y-957071D01*
X-1549881Y-938024D01*
X-1540357Y-928500D01*
X-1521309Y-918976D01*
X-1387976Y-918976D02*
X-1264167Y-918976D01*
X-1330833Y-995167D01*
X-1302262Y-995167D01*
X-1283214Y-1004690D01*
X-1273690Y-1014214D01*
X-1264167Y-1033262D01*
X-1264167Y-1080881D01*
X-1273690Y-1099929D01*
X-1283214Y-1109452D01*
X-1302262Y-1118976D01*
X-1359405Y-1118976D01*
X-1378452Y-1109452D01*
X-1387976Y-1099929D01*
X-1073690Y-1118976D02*
X-1187976Y-1118976D01*
X-1130833Y-1118976D02*
X-1130833Y-918976D01*
X-1149881Y-947548D01*
X-1168929Y-966595D01*
X-1187976Y-976119D01*
X-892738Y-918976D02*
X-987976Y-918976D01*
X-997500Y-1014214D01*
X-987976Y-1004690D01*
X-968928Y-995167D01*
X-921309Y-995167D01*
X-902262Y-1004690D01*
X-892738Y-1014214D01*
X-883214Y-1033262D01*
X-883214Y-1080881D01*
X-892738Y-1099929D01*
X-902262Y-1109452D01*
X-921309Y-1118976D01*
X-968928Y-1118976D01*
X-987976Y-1109452D01*
X-997500Y-1099929D01*
X-807024Y-918976D02*
X-807024Y-957071D01*
X-730833Y-918976D02*
X-730833Y-957071D01*
X-435595Y-1195167D02*
X-445119Y-1185643D01*
X-464167Y-1157071D01*
X-473690Y-1138024D01*
X-483214Y-1109452D01*
X-492738Y-1061833D01*
X-492738Y-1023738D01*
X-483214Y-976119D01*
X-473690Y-947548D01*
X-464167Y-928500D01*
X-445119Y-899928D01*
X-435595Y-890405D01*
X-378452Y-918976D02*
X-245119Y-918976D01*
X-330833Y-1118976D01*
X-64167Y-1118976D02*
X-178452Y-1118976D01*
X-121309Y-1118976D02*
X-121309Y-918976D01*
X-140357Y-947548D01*
X-159405Y-966595D01*
X-178452Y-976119D01*
X173929Y-1118976D02*
X173929Y-918976D01*
X259643Y-1118976D02*
X259643Y-1014214D01*
X250119Y-995167D01*
X231071Y-985643D01*
X202500Y-985643D01*
X183452Y-995167D01*
X173929Y-1004690D01*
X383452Y-1118976D02*
X364405Y-1109452D01*
X354881Y-1099929D01*
X345357Y-1080881D01*
X345357Y-1023738D01*
X354881Y-1004690D01*
X364405Y-995167D01*
X383452Y-985643D01*
X412024Y-985643D01*
X431071Y-995167D01*
X440595Y-1004690D01*
X450119Y-1023738D01*
X450119Y-1080881D01*
X440595Y-1099929D01*
X431071Y-1109452D01*
X412024Y-1118976D01*
X383452Y-1118976D01*
X564405Y-1118976D02*
X545357Y-1109452D01*
X535833Y-1090405D01*
X535833Y-918976D01*
X716786Y-1109452D02*
X697738Y-1118976D01*
X659643Y-1118976D01*
X640595Y-1109452D01*
X631071Y-1090405D01*
X631071Y-1014214D01*
X640595Y-995167D01*
X659643Y-985643D01*
X697738Y-985643D01*
X716786Y-995167D01*
X726309Y-1014214D01*
X726309Y-1033262D01*
X631071Y-1052310D01*
X802500Y-1109452D02*
X821548Y-1118976D01*
X859643Y-1118976D01*
X878690Y-1109452D01*
X888214Y-1090405D01*
X888214Y-1080881D01*
X878690Y-1061833D01*
X859643Y-1052310D01*
X831071Y-1052310D01*
X812024Y-1042786D01*
X802500Y-1023738D01*
X802500Y-1014214D01*
X812024Y-995167D01*
X831071Y-985643D01*
X859643Y-985643D01*
X878690Y-995167D01*
X954881Y-1195167D02*
X964405Y-1185643D01*
X983452Y-1157071D01*
X992976Y-1138024D01*
X1002500Y-1109452D01*
X1012024Y-1061833D01*
X1012024Y-1023738D01*
X1002500Y-976119D01*
X992976Y-947548D01*
X983452Y-928500D01*
X964405Y-899928D01*
X954881Y-890405D01*
D13*
X-4007500Y-1292500D02*
G75*
G03*
X-4007500Y-1292500I-50000J0D01*
G01*
D11*
X-3645119Y-1382976D02*
X-3759405Y-1382976D01*
X-3702262Y-1382976D02*
X-3702262Y-1182976D01*
X-3721309Y-1211548D01*
X-3740357Y-1230595D01*
X-3759405Y-1240119D01*
X-3559405Y-1363929D02*
X-3549881Y-1373452D01*
X-3559405Y-1382976D01*
X-3568928Y-1373452D01*
X-3559405Y-1363929D01*
X-3559405Y-1382976D01*
X-3426071Y-1182976D02*
X-3407024Y-1182976D01*
X-3387976Y-1192500D01*
X-3378452Y-1202024D01*
X-3368928Y-1221071D01*
X-3359405Y-1259167D01*
X-3359405Y-1306786D01*
X-3368928Y-1344881D01*
X-3378452Y-1363929D01*
X-3387976Y-1373452D01*
X-3407024Y-1382976D01*
X-3426071Y-1382976D01*
X-3445119Y-1373452D01*
X-3454643Y-1363929D01*
X-3464167Y-1344881D01*
X-3473690Y-1306786D01*
X-3473690Y-1259167D01*
X-3464167Y-1221071D01*
X-3454643Y-1202024D01*
X-3445119Y-1192500D01*
X-3426071Y-1182976D01*
X-3235595Y-1182976D02*
X-3216548Y-1182976D01*
X-3197500Y-1192500D01*
X-3187976Y-1202024D01*
X-3178452Y-1221071D01*
X-3168928Y-1259167D01*
X-3168928Y-1306786D01*
X-3178452Y-1344881D01*
X-3187976Y-1363929D01*
X-3197500Y-1373452D01*
X-3216548Y-1382976D01*
X-3235595Y-1382976D01*
X-3254643Y-1373452D01*
X-3264167Y-1363929D01*
X-3273690Y-1344881D01*
X-3283214Y-1306786D01*
X-3283214Y-1259167D01*
X-3273690Y-1221071D01*
X-3264167Y-1202024D01*
X-3254643Y-1192500D01*
X-3235595Y-1182976D01*
X-3045119Y-1182976D02*
X-3026071Y-1182976D01*
X-3007024Y-1192500D01*
X-2997500Y-1202024D01*
X-2987976Y-1221071D01*
X-2978452Y-1259167D01*
X-2978452Y-1306786D01*
X-2987976Y-1344881D01*
X-2997500Y-1363929D01*
X-3007024Y-1373452D01*
X-3026071Y-1382976D01*
X-3045119Y-1382976D01*
X-3064167Y-1373452D01*
X-3073690Y-1363929D01*
X-3083214Y-1344881D01*
X-3092738Y-1306786D01*
X-3092738Y-1259167D01*
X-3083214Y-1221071D01*
X-3073690Y-1202024D01*
X-3064167Y-1192500D01*
X-3045119Y-1182976D01*
X-2892738Y-1382976D02*
X-2892738Y-1249643D01*
X-2892738Y-1268690D02*
X-2883214Y-1259167D01*
X-2864167Y-1249643D01*
X-2835595Y-1249643D01*
X-2816548Y-1259167D01*
X-2807024Y-1278214D01*
X-2807024Y-1382976D01*
X-2807024Y-1278214D02*
X-2797500Y-1259167D01*
X-2778452Y-1249643D01*
X-2749881Y-1249643D01*
X-2730833Y-1259167D01*
X-2721310Y-1278214D01*
X-2721310Y-1382976D01*
X-2626071Y-1382976D02*
X-2626071Y-1249643D01*
X-2626071Y-1268690D02*
X-2616548Y-1259167D01*
X-2597500Y-1249643D01*
X-2568929Y-1249643D01*
X-2549881Y-1259167D01*
X-2540357Y-1278214D01*
X-2540357Y-1382976D01*
X-2540357Y-1278214D02*
X-2530833Y-1259167D01*
X-2511786Y-1249643D01*
X-2483214Y-1249643D01*
X-2464167Y-1259167D01*
X-2454643Y-1278214D01*
X-2454643Y-1382976D01*
X-2064167Y-1173452D02*
X-2235595Y-1430595D01*
X-1807024Y-1182976D02*
X-1787976Y-1182976D01*
X-1768928Y-1192500D01*
X-1759405Y-1202024D01*
X-1749881Y-1221071D01*
X-1740357Y-1259167D01*
X-1740357Y-1306786D01*
X-1749881Y-1344881D01*
X-1759405Y-1363929D01*
X-1768928Y-1373452D01*
X-1787976Y-1382976D01*
X-1807024Y-1382976D01*
X-1826071Y-1373452D01*
X-1835595Y-1363929D01*
X-1845119Y-1344881D01*
X-1854643Y-1306786D01*
X-1854643Y-1259167D01*
X-1845119Y-1221071D01*
X-1835595Y-1202024D01*
X-1826071Y-1192500D01*
X-1807024Y-1182976D01*
X-1654643Y-1363929D02*
X-1645119Y-1373452D01*
X-1654643Y-1382976D01*
X-1664167Y-1373452D01*
X-1654643Y-1363929D01*
X-1654643Y-1382976D01*
X-1521309Y-1182976D02*
X-1502262Y-1182976D01*
X-1483214Y-1192500D01*
X-1473690Y-1202024D01*
X-1464167Y-1221071D01*
X-1454643Y-1259167D01*
X-1454643Y-1306786D01*
X-1464167Y-1344881D01*
X-1473690Y-1363929D01*
X-1483214Y-1373452D01*
X-1502262Y-1382976D01*
X-1521309Y-1382976D01*
X-1540357Y-1373452D01*
X-1549881Y-1363929D01*
X-1559405Y-1344881D01*
X-1568928Y-1306786D01*
X-1568928Y-1259167D01*
X-1559405Y-1221071D01*
X-1549881Y-1202024D01*
X-1540357Y-1192500D01*
X-1521309Y-1182976D01*
X-1387976Y-1182976D02*
X-1264167Y-1182976D01*
X-1330833Y-1259167D01*
X-1302262Y-1259167D01*
X-1283214Y-1268690D01*
X-1273690Y-1278214D01*
X-1264167Y-1297262D01*
X-1264167Y-1344881D01*
X-1273690Y-1363929D01*
X-1283214Y-1373452D01*
X-1302262Y-1382976D01*
X-1359405Y-1382976D01*
X-1378452Y-1373452D01*
X-1387976Y-1363929D01*
X-1168929Y-1382976D02*
X-1130833Y-1382976D01*
X-1111786Y-1373452D01*
X-1102262Y-1363929D01*
X-1083214Y-1335357D01*
X-1073690Y-1297262D01*
X-1073690Y-1221071D01*
X-1083214Y-1202024D01*
X-1092738Y-1192500D01*
X-1111786Y-1182976D01*
X-1149881Y-1182976D01*
X-1168929Y-1192500D01*
X-1178452Y-1202024D01*
X-1187976Y-1221071D01*
X-1187976Y-1268690D01*
X-1178452Y-1287738D01*
X-1168929Y-1297262D01*
X-1149881Y-1306786D01*
X-1111786Y-1306786D01*
X-1092738Y-1297262D01*
X-1083214Y-1287738D01*
X-1073690Y-1268690D01*
X-902262Y-1249643D02*
X-902262Y-1382976D01*
X-949881Y-1173452D02*
X-997500Y-1316310D01*
X-873690Y-1316310D01*
X-807024Y-1182976D02*
X-807024Y-1221071D01*
X-730833Y-1182976D02*
X-730833Y-1221071D01*
X-435595Y-1459167D02*
X-445119Y-1449643D01*
X-464167Y-1421071D01*
X-473690Y-1402024D01*
X-483214Y-1373452D01*
X-492738Y-1325833D01*
X-492738Y-1287738D01*
X-483214Y-1240119D01*
X-473690Y-1211548D01*
X-464167Y-1192500D01*
X-445119Y-1163929D01*
X-435595Y-1154405D01*
X-378452Y-1182976D02*
X-254643Y-1182976D01*
X-321310Y-1259167D01*
X-292738Y-1259167D01*
X-273690Y-1268690D01*
X-264167Y-1278214D01*
X-254643Y-1297262D01*
X-254643Y-1344881D01*
X-264167Y-1363929D01*
X-273690Y-1373452D01*
X-292738Y-1382976D01*
X-349881Y-1382976D01*
X-368928Y-1373452D01*
X-378452Y-1363929D01*
X-159405Y-1382976D02*
X-121309Y-1382976D01*
X-102262Y-1373452D01*
X-92738Y-1363929D01*
X-73690Y-1335357D01*
X-64167Y-1297262D01*
X-64167Y-1221071D01*
X-73690Y-1202024D01*
X-83214Y-1192500D01*
X-102262Y-1182976D01*
X-140357Y-1182976D01*
X-159405Y-1192500D01*
X-168929Y-1202024D01*
X-178452Y-1221071D01*
X-178452Y-1268690D01*
X-168929Y-1287738D01*
X-159405Y-1297262D01*
X-140357Y-1306786D01*
X-102262Y-1306786D01*
X-83214Y-1297262D01*
X-73690Y-1287738D01*
X-64167Y-1268690D01*
X173929Y-1382976D02*
X173929Y-1182976D01*
X259643Y-1382976D02*
X259643Y-1278214D01*
X250119Y-1259167D01*
X231071Y-1249643D01*
X202500Y-1249643D01*
X183452Y-1259167D01*
X173929Y-1268690D01*
X383452Y-1382976D02*
X364405Y-1373452D01*
X354881Y-1363929D01*
X345357Y-1344881D01*
X345357Y-1287738D01*
X354881Y-1268690D01*
X364405Y-1259167D01*
X383452Y-1249643D01*
X412024Y-1249643D01*
X431071Y-1259167D01*
X440595Y-1268690D01*
X450119Y-1287738D01*
X450119Y-1344881D01*
X440595Y-1363929D01*
X431071Y-1373452D01*
X412024Y-1382976D01*
X383452Y-1382976D01*
X564405Y-1382976D02*
X545357Y-1373452D01*
X535833Y-1354405D01*
X535833Y-1182976D01*
X716786Y-1373452D02*
X697738Y-1382976D01*
X659643Y-1382976D01*
X640595Y-1373452D01*
X631071Y-1354405D01*
X631071Y-1278214D01*
X640595Y-1259167D01*
X659643Y-1249643D01*
X697738Y-1249643D01*
X716786Y-1259167D01*
X726309Y-1278214D01*
X726309Y-1297262D01*
X631071Y-1316310D01*
X802500Y-1373452D02*
X821548Y-1382976D01*
X859643Y-1382976D01*
X878690Y-1373452D01*
X888214Y-1354405D01*
X888214Y-1344881D01*
X878690Y-1325833D01*
X859643Y-1316310D01*
X831071Y-1316310D01*
X812024Y-1306786D01*
X802500Y-1287738D01*
X802500Y-1278214D01*
X812024Y-1259167D01*
X831071Y-1249643D01*
X859643Y-1249643D01*
X878690Y-1259167D01*
X954881Y-1459167D02*
X964405Y-1449643D01*
X983452Y-1421071D01*
X992976Y-1402024D01*
X1002500Y-1373452D01*
X1012024Y-1325833D01*
X1012024Y-1287738D01*
X1002500Y-1240119D01*
X992976Y-1211548D01*
X983452Y-1192500D01*
X964405Y-1163929D01*
X954881Y-1154405D01*
M02*
