%FSLAX45Y45*%
G04 Gerber Fmt 4.5, Leading zero omitted, Abs format (unit mm)*
G04 Created by KiCad (PCBNEW 6.0.1-79c1e3a40b~116~ubuntu20.04.1) date 2022-02-03 13:12:14*
%MOMM*%
%LPD*%
G01*
G04 APERTURE LIST*
%TA.AperFunction,Profile*%
%ADD10C,0.150000*%
%TD*%
%ADD11C,0.200000*%
%ADD12C,0.320000*%
G04 APERTURE END LIST*
D10*
X-4000000Y-81000D02*
X-4000000Y4145000D01*
X4000000Y4145000D02*
G75*
G03*
X3700000Y4445000I-300000J0D01*
G01*
X4000000Y4145000D02*
X4000000Y-81000D01*
X3700000Y-381000D02*
X-3700000Y-381000D01*
X3700000Y-381000D02*
G75*
G03*
X4000000Y-81000I0J300000D01*
G01*
X-3700000Y4445000D02*
G75*
G03*
X-4000000Y4145000I0J-300000D01*
G01*
X-4000000Y-81000D02*
G75*
G03*
X-3700000Y-381000I300000J0D01*
G01*
X-3700000Y4445000D02*
X3700000Y4445000D01*
D11*
D12*
X-160000Y3531000D02*
X160000Y3211000D01*
X160000Y3531000D02*
X-160000Y3211000D01*
D11*
X-3749881Y-698976D02*
X-3749881Y-498976D01*
X-3702262Y-498976D01*
X-3673690Y-508500D01*
X-3654643Y-527548D01*
X-3645119Y-546595D01*
X-3635595Y-584690D01*
X-3635595Y-613262D01*
X-3645119Y-651357D01*
X-3654643Y-670405D01*
X-3673690Y-689452D01*
X-3702262Y-698976D01*
X-3749881Y-698976D01*
X-3549881Y-698976D02*
X-3549881Y-565643D01*
X-3549881Y-603738D02*
X-3540357Y-584690D01*
X-3530833Y-575167D01*
X-3511786Y-565643D01*
X-3492738Y-565643D01*
X-3426071Y-698976D02*
X-3426071Y-565643D01*
X-3426071Y-498976D02*
X-3435595Y-508500D01*
X-3426071Y-518024D01*
X-3416548Y-508500D01*
X-3426071Y-498976D01*
X-3426071Y-518024D01*
X-3302262Y-698976D02*
X-3321309Y-689452D01*
X-3330833Y-670405D01*
X-3330833Y-498976D01*
X-3197500Y-698976D02*
X-3216548Y-689452D01*
X-3226071Y-670405D01*
X-3226071Y-498976D01*
X-2968928Y-698976D02*
X-2968928Y-498976D01*
X-2902262Y-641833D01*
X-2835595Y-498976D01*
X-2835595Y-698976D01*
X-2654643Y-698976D02*
X-2654643Y-594214D01*
X-2664167Y-575167D01*
X-2683214Y-565643D01*
X-2721310Y-565643D01*
X-2740357Y-575167D01*
X-2654643Y-689452D02*
X-2673690Y-698976D01*
X-2721310Y-698976D01*
X-2740357Y-689452D01*
X-2749881Y-670405D01*
X-2749881Y-651357D01*
X-2740357Y-632310D01*
X-2721310Y-622786D01*
X-2673690Y-622786D01*
X-2654643Y-613262D01*
X-2559405Y-565643D02*
X-2559405Y-765643D01*
X-2559405Y-575167D02*
X-2540357Y-565643D01*
X-2502262Y-565643D01*
X-2483214Y-575167D01*
X-2473690Y-584690D01*
X-2464167Y-603738D01*
X-2464167Y-660881D01*
X-2473690Y-679929D01*
X-2483214Y-689452D01*
X-2502262Y-698976D01*
X-2540357Y-698976D01*
X-2559405Y-689452D01*
X-2378452Y-679929D02*
X-2368929Y-689452D01*
X-2378452Y-698976D01*
X-2387976Y-689452D01*
X-2378452Y-679929D01*
X-2378452Y-698976D01*
X-2378452Y-575167D02*
X-2368929Y-584690D01*
X-2378452Y-594214D01*
X-2387976Y-584690D01*
X-2378452Y-575167D01*
X-2378452Y-594214D01*
X-4207500Y-928500D02*
X-4007500Y-1128500D01*
X-4007500Y-928500D02*
X-4207500Y-1128500D01*
X-3768928Y-918976D02*
X-3645119Y-918976D01*
X-3711786Y-995167D01*
X-3683214Y-995167D01*
X-3664167Y-1004690D01*
X-3654643Y-1014214D01*
X-3645119Y-1033262D01*
X-3645119Y-1080881D01*
X-3654643Y-1099929D01*
X-3664167Y-1109452D01*
X-3683214Y-1118976D01*
X-3740357Y-1118976D01*
X-3759405Y-1109452D01*
X-3768928Y-1099929D01*
X-3559405Y-1099929D02*
X-3549881Y-1109452D01*
X-3559405Y-1118976D01*
X-3568928Y-1109452D01*
X-3559405Y-1099929D01*
X-3559405Y-1118976D01*
X-3473690Y-938024D02*
X-3464167Y-928500D01*
X-3445119Y-918976D01*
X-3397500Y-918976D01*
X-3378452Y-928500D01*
X-3368928Y-938024D01*
X-3359405Y-957071D01*
X-3359405Y-976119D01*
X-3368928Y-1004690D01*
X-3483214Y-1118976D01*
X-3359405Y-1118976D01*
X-3235595Y-918976D02*
X-3216548Y-918976D01*
X-3197500Y-928500D01*
X-3187976Y-938024D01*
X-3178452Y-957071D01*
X-3168928Y-995167D01*
X-3168928Y-1042786D01*
X-3178452Y-1080881D01*
X-3187976Y-1099929D01*
X-3197500Y-1109452D01*
X-3216548Y-1118976D01*
X-3235595Y-1118976D01*
X-3254643Y-1109452D01*
X-3264167Y-1099929D01*
X-3273690Y-1080881D01*
X-3283214Y-1042786D01*
X-3283214Y-995167D01*
X-3273690Y-957071D01*
X-3264167Y-938024D01*
X-3254643Y-928500D01*
X-3235595Y-918976D01*
X-3045119Y-918976D02*
X-3026071Y-918976D01*
X-3007024Y-928500D01*
X-2997500Y-938024D01*
X-2987976Y-957071D01*
X-2978452Y-995167D01*
X-2978452Y-1042786D01*
X-2987976Y-1080881D01*
X-2997500Y-1099929D01*
X-3007024Y-1109452D01*
X-3026071Y-1118976D01*
X-3045119Y-1118976D01*
X-3064167Y-1109452D01*
X-3073690Y-1099929D01*
X-3083214Y-1080881D01*
X-3092738Y-1042786D01*
X-3092738Y-995167D01*
X-3083214Y-957071D01*
X-3073690Y-938024D01*
X-3064167Y-928500D01*
X-3045119Y-918976D01*
X-2892738Y-1118976D02*
X-2892738Y-985643D01*
X-2892738Y-1004690D02*
X-2883214Y-995167D01*
X-2864167Y-985643D01*
X-2835595Y-985643D01*
X-2816548Y-995167D01*
X-2807024Y-1014214D01*
X-2807024Y-1118976D01*
X-2807024Y-1014214D02*
X-2797500Y-995167D01*
X-2778452Y-985643D01*
X-2749881Y-985643D01*
X-2730833Y-995167D01*
X-2721310Y-1014214D01*
X-2721310Y-1118976D01*
X-2626071Y-1118976D02*
X-2626071Y-985643D01*
X-2626071Y-1004690D02*
X-2616548Y-995167D01*
X-2597500Y-985643D01*
X-2568929Y-985643D01*
X-2549881Y-995167D01*
X-2540357Y-1014214D01*
X-2540357Y-1118976D01*
X-2540357Y-1014214D02*
X-2530833Y-995167D01*
X-2511786Y-985643D01*
X-2483214Y-985643D01*
X-2464167Y-995167D01*
X-2454643Y-1014214D01*
X-2454643Y-1118976D01*
X-2064167Y-909452D02*
X-2235595Y-1166595D01*
X-1807024Y-918976D02*
X-1787976Y-918976D01*
X-1768928Y-928500D01*
X-1759405Y-938024D01*
X-1749881Y-957071D01*
X-1740357Y-995167D01*
X-1740357Y-1042786D01*
X-1749881Y-1080881D01*
X-1759405Y-1099929D01*
X-1768928Y-1109452D01*
X-1787976Y-1118976D01*
X-1807024Y-1118976D01*
X-1826071Y-1109452D01*
X-1835595Y-1099929D01*
X-1845119Y-1080881D01*
X-1854643Y-1042786D01*
X-1854643Y-995167D01*
X-1845119Y-957071D01*
X-1835595Y-938024D01*
X-1826071Y-928500D01*
X-1807024Y-918976D01*
X-1654643Y-1099929D02*
X-1645119Y-1109452D01*
X-1654643Y-1118976D01*
X-1664167Y-1109452D01*
X-1654643Y-1099929D01*
X-1654643Y-1118976D01*
X-1454643Y-1118976D02*
X-1568928Y-1118976D01*
X-1511786Y-1118976D02*
X-1511786Y-918976D01*
X-1530833Y-947548D01*
X-1549881Y-966595D01*
X-1568928Y-976119D01*
X-1378452Y-938024D02*
X-1368929Y-928500D01*
X-1349881Y-918976D01*
X-1302262Y-918976D01*
X-1283214Y-928500D01*
X-1273690Y-938024D01*
X-1264167Y-957071D01*
X-1264167Y-976119D01*
X-1273690Y-1004690D01*
X-1387976Y-1118976D01*
X-1264167Y-1118976D01*
X-1092738Y-918976D02*
X-1130833Y-918976D01*
X-1149881Y-928500D01*
X-1159405Y-938024D01*
X-1178452Y-966595D01*
X-1187976Y-1004690D01*
X-1187976Y-1080881D01*
X-1178452Y-1099929D01*
X-1168929Y-1109452D01*
X-1149881Y-1118976D01*
X-1111786Y-1118976D01*
X-1092738Y-1109452D01*
X-1083214Y-1099929D01*
X-1073690Y-1080881D01*
X-1073690Y-1033262D01*
X-1083214Y-1014214D01*
X-1092738Y-1004690D01*
X-1111786Y-995167D01*
X-1149881Y-995167D01*
X-1168929Y-1004690D01*
X-1178452Y-1014214D01*
X-1187976Y-1033262D01*
X-949881Y-918976D02*
X-930833Y-918976D01*
X-911786Y-928500D01*
X-902262Y-938024D01*
X-892738Y-957071D01*
X-883214Y-995167D01*
X-883214Y-1042786D01*
X-892738Y-1080881D01*
X-902262Y-1099929D01*
X-911786Y-1109452D01*
X-930833Y-1118976D01*
X-949881Y-1118976D01*
X-968928Y-1109452D01*
X-978452Y-1099929D01*
X-987976Y-1080881D01*
X-997500Y-1042786D01*
X-997500Y-995167D01*
X-987976Y-957071D01*
X-978452Y-938024D01*
X-968928Y-928500D01*
X-949881Y-918976D01*
X-807024Y-918976D02*
X-807024Y-957071D01*
X-730833Y-918976D02*
X-730833Y-957071D01*
X-435595Y-1195167D02*
X-445119Y-1185643D01*
X-464167Y-1157071D01*
X-473690Y-1138024D01*
X-483214Y-1109452D01*
X-492738Y-1061833D01*
X-492738Y-1023738D01*
X-483214Y-976119D01*
X-473690Y-947548D01*
X-464167Y-928500D01*
X-445119Y-899928D01*
X-435595Y-890405D01*
X-254643Y-1118976D02*
X-368928Y-1118976D01*
X-311786Y-1118976D02*
X-311786Y-918976D01*
X-330833Y-947548D01*
X-349881Y-966595D01*
X-368928Y-976119D01*
X-16548Y-1118976D02*
X-16548Y-918976D01*
X69167Y-1118976D02*
X69167Y-1014214D01*
X59643Y-995167D01*
X40595Y-985643D01*
X12024Y-985643D01*
X-7024Y-995167D01*
X-16548Y-1004690D01*
X192976Y-1118976D02*
X173929Y-1109452D01*
X164405Y-1099929D01*
X154881Y-1080881D01*
X154881Y-1023738D01*
X164405Y-1004690D01*
X173929Y-995167D01*
X192976Y-985643D01*
X221548Y-985643D01*
X240595Y-995167D01*
X250119Y-1004690D01*
X259643Y-1023738D01*
X259643Y-1080881D01*
X250119Y-1099929D01*
X240595Y-1109452D01*
X221548Y-1118976D01*
X192976Y-1118976D01*
X373928Y-1118976D02*
X354881Y-1109452D01*
X345357Y-1090405D01*
X345357Y-918976D01*
X526310Y-1109452D02*
X507262Y-1118976D01*
X469167Y-1118976D01*
X450119Y-1109452D01*
X440595Y-1090405D01*
X440595Y-1014214D01*
X450119Y-995167D01*
X469167Y-985643D01*
X507262Y-985643D01*
X526310Y-995167D01*
X535833Y-1014214D01*
X535833Y-1033262D01*
X440595Y-1052310D01*
X602500Y-1195167D02*
X612024Y-1185643D01*
X631071Y-1157071D01*
X640595Y-1138024D01*
X650119Y-1109452D01*
X659643Y-1061833D01*
X659643Y-1023738D01*
X650119Y-976119D01*
X640595Y-947548D01*
X631071Y-928500D01*
X612024Y-899928D01*
X602500Y-890405D01*
X964405Y-1195167D02*
X954881Y-1185643D01*
X935833Y-1157071D01*
X926309Y-1138024D01*
X916786Y-1109452D01*
X907262Y-1061833D01*
X907262Y-1023738D01*
X916786Y-976119D01*
X926309Y-947548D01*
X935833Y-928500D01*
X954881Y-899928D01*
X964405Y-890405D01*
X1040595Y-985643D02*
X1040595Y-1118976D01*
X1040595Y-1004690D02*
X1050119Y-995167D01*
X1069167Y-985643D01*
X1097738Y-985643D01*
X1116786Y-995167D01*
X1126310Y-1014214D01*
X1126310Y-1118976D01*
X1250119Y-1118976D02*
X1231071Y-1109452D01*
X1221548Y-1099929D01*
X1212024Y-1080881D01*
X1212024Y-1023738D01*
X1221548Y-1004690D01*
X1231071Y-995167D01*
X1250119Y-985643D01*
X1278690Y-985643D01*
X1297738Y-995167D01*
X1307262Y-1004690D01*
X1316786Y-1023738D01*
X1316786Y-1080881D01*
X1307262Y-1099929D01*
X1297738Y-1109452D01*
X1278690Y-1118976D01*
X1250119Y-1118976D01*
X1373929Y-985643D02*
X1450119Y-985643D01*
X1402500Y-918976D02*
X1402500Y-1090405D01*
X1412024Y-1109452D01*
X1431071Y-1118976D01*
X1450119Y-1118976D01*
X1669167Y-985643D02*
X1669167Y-1185643D01*
X1669167Y-995167D02*
X1688214Y-985643D01*
X1726309Y-985643D01*
X1745357Y-995167D01*
X1754881Y-1004690D01*
X1764405Y-1023738D01*
X1764405Y-1080881D01*
X1754881Y-1099929D01*
X1745357Y-1109452D01*
X1726309Y-1118976D01*
X1688214Y-1118976D01*
X1669167Y-1109452D01*
X1878690Y-1118976D02*
X1859643Y-1109452D01*
X1850119Y-1090405D01*
X1850119Y-918976D01*
X2040595Y-1118976D02*
X2040595Y-1014214D01*
X2031071Y-995167D01*
X2012024Y-985643D01*
X1973928Y-985643D01*
X1954881Y-995167D01*
X2040595Y-1109452D02*
X2021548Y-1118976D01*
X1973928Y-1118976D01*
X1954881Y-1109452D01*
X1945357Y-1090405D01*
X1945357Y-1071357D01*
X1954881Y-1052310D01*
X1973928Y-1042786D01*
X2021548Y-1042786D01*
X2040595Y-1033262D01*
X2107262Y-985643D02*
X2183452Y-985643D01*
X2135833Y-918976D02*
X2135833Y-1090405D01*
X2145357Y-1109452D01*
X2164405Y-1118976D01*
X2183452Y-1118976D01*
X2326310Y-1109452D02*
X2307262Y-1118976D01*
X2269167Y-1118976D01*
X2250119Y-1109452D01*
X2240595Y-1090405D01*
X2240595Y-1014214D01*
X2250119Y-995167D01*
X2269167Y-985643D01*
X2307262Y-985643D01*
X2326310Y-995167D01*
X2335833Y-1014214D01*
X2335833Y-1033262D01*
X2240595Y-1052310D01*
X2507262Y-1118976D02*
X2507262Y-918976D01*
X2507262Y-1109452D02*
X2488214Y-1118976D01*
X2450119Y-1118976D01*
X2431071Y-1109452D01*
X2421548Y-1099929D01*
X2412024Y-1080881D01*
X2412024Y-1023738D01*
X2421548Y-1004690D01*
X2431071Y-995167D01*
X2450119Y-985643D01*
X2488214Y-985643D01*
X2507262Y-995167D01*
X2583452Y-1195167D02*
X2592976Y-1185643D01*
X2612024Y-1157071D01*
X2621548Y-1138024D01*
X2631071Y-1109452D01*
X2640595Y-1061833D01*
X2640595Y-1023738D01*
X2631071Y-976119D01*
X2621548Y-947548D01*
X2612024Y-928500D01*
X2592976Y-899928D01*
X2583452Y-890405D01*
M02*
