M48
; DRILL file {KiCad 6.0.1-79c1e3a40b~116~ubuntu20.04.1} date Thu 03 Feb 2022 01:12:12 PM EST
; FORMAT={-:-/ absolute / metric / decimal}
; #@! TF.CreationDate,2022-02-03T13:12:12-05:00
; #@! TF.GenerationSoftware,Kicad,Pcbnew,6.0.1-79c1e3a40b~116~ubuntu20.04.1
; #@! TF.FileFunction,Plated,1,2,PTH
FMAT,2
METRIC
; #@! TA.AperFunction,Plated,PTH,ComponentDrill
T1C0.800
; #@! TA.AperFunction,Plated,PTH,ComponentDrill
T2C1.000
%
G90
G05
T1
X-35.56Y36.195
X-35.56Y28.575
X-33.02Y36.195
X-33.02Y28.575
X-30.48Y36.195
X-30.48Y28.575
X-27.94Y36.195
X-27.94Y28.575
X-25.4Y36.195
X-25.4Y28.575
X-22.86Y36.195
X-22.86Y28.575
X-22.225Y20.955
X-20.32Y36.195
X-20.32Y28.575
X-20.32Y24.765
X-17.78Y36.195
X-17.78Y28.575
X-17.145Y20.955
X-15.24Y24.765
X-14.605Y31.075
X-14.605Y28.575
X-11.43Y25.4
X-11.43Y22.86
X-11.43Y20.32
X-11.43Y17.78
X-11.43Y15.24
X-11.43Y12.7
X-11.43Y10.16
X-11.43Y7.62
X-6.31Y28.575
X-3.81Y28.575
X-3.81Y25.4
X-3.81Y22.86
X-3.81Y20.32
X-3.81Y17.78
X-3.81Y15.24
X-3.81Y12.7
X-3.81Y10.16
X-3.81Y7.62
X0.0Y27.94
X0.0Y22.86
X7.62Y34.925
X7.62Y29.845
X7.62Y25.4
X7.62Y22.86
X7.62Y20.32
X7.62Y17.78
X7.62Y15.24
X7.62Y12.7
X7.62Y10.16
X7.62Y7.62
X12.74Y28.575
X15.24Y35.52
X15.24Y33.02
X15.24Y28.575
X15.24Y25.4
X15.24Y22.86
X15.24Y20.32
X15.24Y17.78
X15.24Y15.24
X15.24Y12.7
X15.24Y10.16
X15.24Y7.62
X19.05Y27.94
X19.05Y22.86
X19.685Y33.02
X22.225Y33.02
X24.765Y33.02
X29.21Y35.52
X29.21Y33.02
T2
X-36.83Y0.0
X-34.29Y0.0
X-31.75Y0.0
X-29.21Y0.0
X-26.67Y0.0
X-24.13Y0.0
X-21.59Y0.0
X-19.05Y0.0
X-16.51Y0.0
X-13.97Y0.0
X-11.43Y0.0
X-8.89Y0.0
X-6.35Y0.0
X-3.81Y0.0
X-1.27Y0.0
X1.27Y0.0
X2.54Y5.08
X3.81Y0.0
X6.35Y0.0
X8.89Y0.0
X11.43Y0.0
X13.97Y0.0
X16.51Y0.0
X19.05Y0.0
X21.59Y0.0
X24.13Y0.0
X26.67Y24.13
X26.67Y21.59
X26.67Y19.05
X26.67Y16.51
X26.67Y0.0
X29.21Y24.13
X29.21Y21.59
X29.21Y19.05
X29.21Y16.51
X29.21Y0.0
X31.75Y0.0
X34.29Y0.0
X36.83Y0.0
T0
M30
