%FSLAX45Y45*%
G04 Gerber Fmt 4.5, Leading zero omitted, Abs format (unit mm)*
G04 Created by KiCad (PCBNEW 6.0.1-79c1e3a40b~116~ubuntu20.04.1) date 2022-02-03 13:14:27*
%MOMM*%
%LPD*%
G01*
G04 APERTURE LIST*
%TA.AperFunction,Profile*%
%ADD10C,0.100000*%
%TD*%
%TA.AperFunction,Profile*%
%ADD11C,0.150000*%
%TD*%
%ADD12C,0.200000*%
%ADD13C,0.040000*%
%ADD14C,0.080000*%
%ADD15C,0.100000*%
%ADD16C,0.170000*%
G04 APERTURE END LIST*
D10*
X-5000000Y-9400000D02*
X-5000000Y0D01*
D11*
X4700000Y-9700000D02*
G75*
G03*
X5000000Y-9400000I0J300000D01*
G01*
X-4700000Y300000D02*
X4700000Y300000D01*
X-4700000Y300000D02*
G75*
G03*
X-5000000Y0I0J-300000D01*
G01*
X5000000Y0D02*
G75*
G03*
X4700000Y300000I-300000J0D01*
G01*
X-5000000Y-9400000D02*
G75*
G03*
X-4700000Y-9700000I300000J0D01*
G01*
X5000000Y0D02*
X5000000Y-9400000D01*
X4700000Y-9700000D02*
X-4700000Y-9700000D01*
D12*
D13*
X-2115500Y-7663500D02*
X-2075500Y-7703500D01*
X-2075500Y-7663500D02*
X-2115500Y-7703500D01*
X-1861500Y-7790501D02*
X-1821500Y-7830501D01*
X-1821500Y-7790501D02*
X-1861500Y-7830501D01*
X-1607500Y-7917500D02*
X-1567500Y-7957500D01*
X-1567500Y-7917500D02*
X-1607500Y-7957500D01*
X-1544000Y-3218500D02*
X-1504000Y-3258500D01*
X-1504000Y-3218500D02*
X-1544000Y-3258500D01*
X-1544000Y-3472500D02*
X-1504000Y-3512500D01*
X-1504000Y-3472500D02*
X-1544000Y-3512500D01*
X-1544000Y-234000D02*
X-1504000Y-274000D01*
X-1504000Y-234000D02*
X-1544000Y-274000D01*
X-1544000Y-3980501D02*
X-1504000Y-4020501D01*
X-1504000Y-3980501D02*
X-1544000Y-4020501D01*
X-1544000Y-2964500D02*
X-1504000Y-3004500D01*
X-1504000Y-2964500D02*
X-1544000Y-3004500D01*
X-1480500Y-6012500D02*
X-1440500Y-6052500D01*
X-1440500Y-6012500D02*
X-1480500Y-6052500D01*
X-1480500Y-7536500D02*
X-1440500Y-7576500D01*
X-1440500Y-7536500D02*
X-1480500Y-7576500D01*
X-1417000Y-297500D02*
X-1377000Y-337500D01*
X-1377000Y-297500D02*
X-1417000Y-337500D01*
X-1417000Y-2520000D02*
X-1377000Y-2560000D01*
X-1377000Y-2520000D02*
X-1417000Y-2560000D01*
X-1353500Y-5822000D02*
X-1313500Y-5862000D01*
X-1313500Y-5822000D02*
X-1353500Y-5862000D01*
X-1353500Y-7663500D02*
X-1313500Y-7703500D01*
X-1313500Y-7663500D02*
X-1353500Y-7703500D01*
X-1353500Y-8044500D02*
X-1313500Y-8084500D01*
X-1313500Y-8044500D02*
X-1353500Y-8084500D01*
X-1290000Y-361000D02*
X-1250000Y-401000D01*
X-1250000Y-361000D02*
X-1290000Y-401000D01*
X-1226500Y-5631500D02*
X-1186500Y-5671500D01*
X-1186500Y-5631500D02*
X-1226500Y-5671500D01*
X-1226500Y-7790500D02*
X-1186500Y-7830500D01*
X-1186500Y-7790500D02*
X-1226500Y-7830500D01*
X-1163000Y-424500D02*
X-1123000Y-464500D01*
X-1123000Y-424500D02*
X-1163000Y-464500D01*
X-1163000Y-2012000D02*
X-1123000Y-2052000D01*
X-1123000Y-2012000D02*
X-1163000Y-2052000D01*
X-1099500Y-5441000D02*
X-1059500Y-5481000D01*
X-1059500Y-5441000D02*
X-1099500Y-5481000D01*
X-1099500Y-7917500D02*
X-1059500Y-7957500D01*
X-1059500Y-7917500D02*
X-1099500Y-7957500D01*
X-1036000Y-488000D02*
X-996000Y-528000D01*
X-996000Y-488000D02*
X-1036000Y-528000D01*
X-909000Y-551500D02*
X-869000Y-591500D01*
X-869000Y-551500D02*
X-909000Y-591500D01*
X-782000Y-742000D02*
X-742000Y-782000D01*
X-742000Y-742000D02*
X-782000Y-782000D01*
X-591500Y-869000D02*
X-551500Y-909000D01*
X-551500Y-869000D02*
X-591500Y-909000D01*
X-591500Y-1567500D02*
X-551500Y-1607500D01*
X-551500Y-1567500D02*
X-591500Y-1607500D01*
X-210500Y-7600000D02*
X-170500Y-7640000D01*
X-170500Y-7600000D02*
X-210500Y-7640000D01*
X-147000Y-678500D02*
X-107000Y-718500D01*
X-107000Y-678500D02*
X-147000Y-718500D01*
X-147000Y-8489000D02*
X-107000Y-8529000D01*
X-107000Y-8489000D02*
X-147000Y-8529000D01*
X170500Y-678500D02*
X210500Y-718500D01*
X210500Y-678500D02*
X170500Y-718500D01*
X742000Y-2456500D02*
X782000Y-2496500D01*
X782000Y-2456500D02*
X742000Y-2496500D01*
X869000Y-1885000D02*
X909000Y-1925000D01*
X909000Y-1885000D02*
X869000Y-1925000D01*
X1440500Y-5187000D02*
X1480500Y-5227000D01*
X1480500Y-5187000D02*
X1440500Y-5227000D01*
X1440500Y-4679000D02*
X1480500Y-4719000D01*
X1480500Y-4679000D02*
X1440500Y-4719000D01*
X1440500Y-4933000D02*
X1480500Y-4973000D01*
X1480500Y-4933000D02*
X1440500Y-4973000D01*
X1440500Y-5441000D02*
X1480500Y-5481000D01*
X1480500Y-5441000D02*
X1440500Y-5481000D01*
X2456500Y-8489000D02*
X2496500Y-8529000D01*
X2496500Y-8489000D02*
X2456500Y-8529000D01*
X2583500Y-7092000D02*
X2623500Y-7132000D01*
X2623500Y-7092000D02*
X2583500Y-7132000D01*
X2583500Y-8806500D02*
X2623500Y-8846500D01*
X2623500Y-8806500D02*
X2583500Y-8846500D01*
X2710500Y-7282500D02*
X2750500Y-7322500D01*
X2750500Y-7282500D02*
X2710500Y-7322500D01*
X2710500Y-8933500D02*
X2750500Y-8973500D01*
X2750500Y-8933500D02*
X2710500Y-8973500D01*
X2837500Y-7790500D02*
X2877500Y-7830500D01*
X2877500Y-7790500D02*
X2837500Y-7830500D01*
X3218500Y-6838000D02*
X3258500Y-6878000D01*
X3258500Y-6838000D02*
X3218500Y-6878000D01*
D14*
X-1674500Y-6477000D02*
G75*
G03*
X-1674500Y-6477000I-40000J0D01*
G01*
X-1674500Y-6794500D02*
G75*
G03*
X-1674500Y-6794500I-40000J0D01*
G01*
X-1674500Y-7112000D02*
G75*
G03*
X-1674500Y-7112000I-40000J0D01*
G01*
X-1611000Y-4381500D02*
G75*
G03*
X-1611000Y-4381500I-40000J0D01*
G01*
X-1611000Y-4762500D02*
G75*
G03*
X-1611000Y-4762500I-40000J0D01*
G01*
X-658500Y-6477000D02*
G75*
G03*
X-658500Y-6477000I-40000J0D01*
G01*
X-658500Y-6794500D02*
G75*
G03*
X-658500Y-6794500I-40000J0D01*
G01*
X-658500Y-7112000D02*
G75*
G03*
X-658500Y-7112000I-40000J0D01*
G01*
X-595000Y-3048000D02*
G75*
G03*
X-595000Y-3048000I-40000J0D01*
G01*
X-595000Y-4064000D02*
G75*
G03*
X-595000Y-4064000I-40000J0D01*
G01*
X-595000Y-4381500D02*
G75*
G03*
X-595000Y-4381500I-40000J0D01*
G01*
X-595000Y-4762500D02*
G75*
G03*
X-595000Y-4762500I-40000J0D01*
G01*
X-468000Y-2603500D02*
G75*
G03*
X-468000Y-2603500I-40000J0D01*
G01*
X-404500Y-5207000D02*
G75*
G03*
X-404500Y-5207000I-40000J0D01*
G01*
X-277500Y-1143000D02*
G75*
G03*
X-277500Y-1143000I-40000J0D01*
G01*
X-277500Y-2159000D02*
G75*
G03*
X-277500Y-2159000I-40000J0D01*
G01*
X-214000Y-2603500D02*
G75*
G03*
X-214000Y-2603500I-40000J0D01*
G01*
X-214000Y-3048000D02*
G75*
G03*
X-214000Y-3048000I-40000J0D01*
G01*
X-214000Y-4064000D02*
G75*
G03*
X-214000Y-4064000I-40000J0D01*
G01*
X-214000Y-4508500D02*
G75*
G03*
X-214000Y-4508500I-40000J0D01*
G01*
X-150500Y-5207000D02*
G75*
G03*
X-150500Y-5207000I-40000J0D01*
G01*
X40000Y-1143000D02*
G75*
G03*
X40000Y-1143000I-40000J0D01*
G01*
X40000Y-2159000D02*
G75*
G03*
X40000Y-2159000I-40000J0D01*
G01*
X40000Y-2603500D02*
G75*
G03*
X40000Y-2603500I-40000J0D01*
G01*
X103500Y-5207000D02*
G75*
G03*
X103500Y-5207000I-40000J0D01*
G01*
X103500Y-6794500D02*
G75*
G03*
X103500Y-6794500I-40000J0D01*
G01*
X103500Y-7810500D02*
G75*
G03*
X103500Y-7810500I-40000J0D01*
G01*
X167000Y-3048000D02*
G75*
G03*
X167000Y-3048000I-40000J0D01*
G01*
X167000Y-4064000D02*
G75*
G03*
X167000Y-4064000I-40000J0D01*
G01*
X286000Y-4508500D02*
G75*
G03*
X286000Y-4508500I-40000J0D01*
G01*
X421000Y-1143000D02*
G75*
G03*
X421000Y-1143000I-40000J0D01*
G01*
X421000Y-1397000D02*
G75*
G03*
X421000Y-1397000I-40000J0D01*
G01*
X421000Y-1651000D02*
G75*
G03*
X421000Y-1651000I-40000J0D01*
G01*
X421000Y-1905000D02*
G75*
G03*
X421000Y-1905000I-40000J0D01*
G01*
X421000Y-5588000D02*
G75*
G03*
X421000Y-5588000I-40000J0D01*
G01*
X421000Y-6794500D02*
G75*
G03*
X421000Y-6794500I-40000J0D01*
G01*
X421000Y-7810500D02*
G75*
G03*
X421000Y-7810500I-40000J0D01*
G01*
X675000Y-3238500D02*
G75*
G03*
X675000Y-3238500I-40000J0D01*
G01*
X675000Y-5588000D02*
G75*
G03*
X675000Y-5588000I-40000J0D01*
G01*
X738500Y-6794500D02*
G75*
G03*
X738500Y-6794500I-40000J0D01*
G01*
X738500Y-7810500D02*
G75*
G03*
X738500Y-7810500I-40000J0D01*
G01*
X929000Y-5588000D02*
G75*
G03*
X929000Y-5588000I-40000J0D01*
G01*
X933000Y-825500D02*
G75*
G03*
X933000Y-825500I-40000J0D01*
G01*
X1056000Y-6223000D02*
G75*
G03*
X1056000Y-6223000I-40000J0D01*
G01*
X1056000Y-6473000D02*
G75*
G03*
X1056000Y-6473000I-40000J0D01*
G01*
X1056000Y-6794500D02*
G75*
G03*
X1056000Y-6794500I-40000J0D01*
G01*
X1056000Y-7810500D02*
G75*
G03*
X1056000Y-7810500I-40000J0D01*
G01*
X1183000Y-825500D02*
G75*
G03*
X1183000Y-825500I-40000J0D01*
G01*
X1183000Y-1143000D02*
G75*
G03*
X1183000Y-1143000I-40000J0D01*
G01*
X1183000Y-1397000D02*
G75*
G03*
X1183000Y-1397000I-40000J0D01*
G01*
X1183000Y-1651000D02*
G75*
G03*
X1183000Y-1651000I-40000J0D01*
G01*
X1183000Y-1905000D02*
G75*
G03*
X1183000Y-1905000I-40000J0D01*
G01*
X1373500Y-6794500D02*
G75*
G03*
X1373500Y-6794500I-40000J0D01*
G01*
X1373500Y-7810500D02*
G75*
G03*
X1373500Y-7810500I-40000J0D01*
G01*
X1377500Y-6477000D02*
G75*
G03*
X1377500Y-6477000I-40000J0D01*
G01*
X1564000Y-1143000D02*
G75*
G03*
X1564000Y-1143000I-40000J0D01*
G01*
X1564000Y-2159000D02*
G75*
G03*
X1564000Y-2159000I-40000J0D01*
G01*
X1627500Y-6477000D02*
G75*
G03*
X1627500Y-6477000I-40000J0D01*
G01*
X1691000Y-3238500D02*
G75*
G03*
X1691000Y-3238500I-40000J0D01*
G01*
X1691000Y-6794500D02*
G75*
G03*
X1691000Y-6794500I-40000J0D01*
G01*
X1691000Y-7810500D02*
G75*
G03*
X1691000Y-7810500I-40000J0D01*
G01*
X2008500Y-6794500D02*
G75*
G03*
X2008500Y-6794500I-40000J0D01*
G01*
X2008500Y-7810500D02*
G75*
G03*
X2008500Y-7810500I-40000J0D01*
G01*
X2326000Y-6794500D02*
G75*
G03*
X2326000Y-6794500I-40000J0D01*
G01*
X2326000Y-7810500D02*
G75*
G03*
X2326000Y-7810500I-40000J0D01*
G01*
X4294500Y-6858000D02*
G75*
G03*
X4294500Y-6858000I-40000J0D01*
G01*
X4544500Y-6858000D02*
G75*
G03*
X4544500Y-6858000I-40000J0D01*
G01*
D15*
X-4572000Y-902500D02*
X-4572000Y-1002500D01*
X-4622000Y-952500D02*
X-4522000Y-952500D01*
X-4572000Y-1791500D02*
X-4572000Y-1891500D01*
X-4622000Y-1841500D02*
X-4522000Y-1841500D01*
X-4572000Y-2680500D02*
X-4572000Y-2780500D01*
X-4622000Y-2730500D02*
X-4522000Y-2730500D01*
X-3492500Y-1855000D02*
X-3492500Y-1955000D01*
X-3542500Y-1905000D02*
X-3442500Y-1905000D01*
X-3492500Y-2109000D02*
X-3492500Y-2209000D01*
X-3542500Y-2159000D02*
X-3442500Y-2159000D01*
X-3492500Y-2363000D02*
X-3492500Y-2463000D01*
X-3542500Y-2413000D02*
X-3442500Y-2413000D01*
X-3492500Y-2617000D02*
X-3492500Y-2717000D01*
X-3542500Y-2667000D02*
X-3442500Y-2667000D01*
X-3492500Y-4395000D02*
X-3492500Y-4495000D01*
X-3542500Y-4445000D02*
X-3442500Y-4445000D01*
X-3492500Y-4649000D02*
X-3492500Y-4749000D01*
X-3542500Y-4699000D02*
X-3442500Y-4699000D01*
X-3492500Y-4903000D02*
X-3492500Y-5003000D01*
X-3542500Y-4953000D02*
X-3442500Y-4953000D01*
X-3492500Y-5157000D02*
X-3492500Y-5257000D01*
X-3542500Y-5207000D02*
X-3442500Y-5207000D01*
X-3492500Y-5411000D02*
X-3492500Y-5511000D01*
X-3542500Y-5461000D02*
X-3442500Y-5461000D01*
X-3492500Y-5665000D02*
X-3492500Y-5765000D01*
X-3542500Y-5715000D02*
X-3442500Y-5715000D01*
X-3492500Y-5919000D02*
X-3492500Y-6019000D01*
X-3542500Y-5969000D02*
X-3442500Y-5969000D01*
X-3492500Y-6173000D02*
X-3492500Y-6273000D01*
X-3542500Y-6223000D02*
X-3442500Y-6223000D01*
X-3238500Y-1855000D02*
X-3238500Y-1955000D01*
X-3288500Y-1905000D02*
X-3188500Y-1905000D01*
X-3238500Y-2109000D02*
X-3238500Y-2209000D01*
X-3288500Y-2159000D02*
X-3188500Y-2159000D01*
X-3238500Y-2363000D02*
X-3238500Y-2463000D01*
X-3288500Y-2413000D02*
X-3188500Y-2413000D01*
X-3238500Y-2617000D02*
X-3238500Y-2717000D01*
X-3288500Y-2667000D02*
X-3188500Y-2667000D01*
X-3238500Y-4395000D02*
X-3238500Y-4495000D01*
X-3288500Y-4445000D02*
X-3188500Y-4445000D01*
X-3238500Y-4649000D02*
X-3238500Y-4749000D01*
X-3288500Y-4699000D02*
X-3188500Y-4699000D01*
X-3238500Y-4903000D02*
X-3238500Y-5003000D01*
X-3288500Y-4953000D02*
X-3188500Y-4953000D01*
X-3238500Y-5157000D02*
X-3238500Y-5257000D01*
X-3288500Y-5207000D02*
X-3188500Y-5207000D01*
X-3238500Y-5411000D02*
X-3238500Y-5511000D01*
X-3288500Y-5461000D02*
X-3188500Y-5461000D01*
X-3238500Y-5665000D02*
X-3238500Y-5765000D01*
X-3288500Y-5715000D02*
X-3188500Y-5715000D01*
X-3238500Y-5919000D02*
X-3238500Y-6019000D01*
X-3288500Y-5969000D02*
X-3188500Y-5969000D01*
X-3238500Y-6173000D02*
X-3238500Y-6273000D01*
X-3288500Y-6223000D02*
X-3188500Y-6223000D01*
X-2667000Y-2871000D02*
X-2667000Y-2971000D01*
X-2717000Y-2921000D02*
X-2617000Y-2921000D01*
X-2288000Y-1093000D02*
X-2288000Y-1193000D01*
X-2338000Y-1143000D02*
X-2238000Y-1143000D01*
X-2288000Y-1347000D02*
X-2288000Y-1447000D01*
X-2338000Y-1397000D02*
X-2238000Y-1397000D01*
X-2288000Y-1601000D02*
X-2288000Y-1701000D01*
X-2338000Y-1651000D02*
X-2238000Y-1651000D01*
X-2288000Y-1855000D02*
X-2288000Y-1955000D01*
X-2338000Y-1905000D02*
X-2238000Y-1905000D01*
X-2288000Y-2109000D02*
X-2288000Y-2209000D01*
X-2338000Y-2159000D02*
X-2238000Y-2159000D01*
X-2288000Y-2363000D02*
X-2288000Y-2463000D01*
X-2338000Y-2413000D02*
X-2238000Y-2413000D01*
X-2288000Y-2617000D02*
X-2288000Y-2717000D01*
X-2338000Y-2667000D02*
X-2238000Y-2667000D01*
X-2288000Y-2871000D02*
X-2288000Y-2971000D01*
X-2338000Y-2921000D02*
X-2238000Y-2921000D01*
X-2288000Y-3125000D02*
X-2288000Y-3225000D01*
X-2338000Y-3175000D02*
X-2238000Y-3175000D01*
X-2288000Y-3379000D02*
X-2288000Y-3479000D01*
X-2338000Y-3429000D02*
X-2238000Y-3429000D01*
X-2288000Y-3633000D02*
X-2288000Y-3733000D01*
X-2338000Y-3683000D02*
X-2238000Y-3683000D01*
X-2288000Y-3887000D02*
X-2288000Y-3987000D01*
X-2338000Y-3937000D02*
X-2238000Y-3937000D01*
X-2288000Y-4141000D02*
X-2288000Y-4241000D01*
X-2338000Y-4191000D02*
X-2238000Y-4191000D01*
X-2288000Y-4395000D02*
X-2288000Y-4495000D01*
X-2338000Y-4445000D02*
X-2238000Y-4445000D01*
X-2288000Y-4649000D02*
X-2288000Y-4749000D01*
X-2338000Y-4699000D02*
X-2238000Y-4699000D01*
X-2288000Y-4903000D02*
X-2288000Y-5003000D01*
X-2338000Y-4953000D02*
X-2238000Y-4953000D01*
X-2288000Y-5157000D02*
X-2288000Y-5257000D01*
X-2338000Y-5207000D02*
X-2238000Y-5207000D01*
X-2288000Y-5411000D02*
X-2288000Y-5511000D01*
X-2338000Y-5461000D02*
X-2238000Y-5461000D01*
X-2288000Y-5665000D02*
X-2288000Y-5765000D01*
X-2338000Y-5715000D02*
X-2238000Y-5715000D01*
X-2288000Y-5919000D02*
X-2288000Y-6019000D01*
X-2338000Y-5969000D02*
X-2238000Y-5969000D01*
X-2288000Y-6173000D02*
X-2288000Y-6273000D01*
X-2338000Y-6223000D02*
X-2238000Y-6223000D01*
X-2288000Y-6427000D02*
X-2288000Y-6527000D01*
X-2338000Y-6477000D02*
X-2238000Y-6477000D01*
X-2159000Y-8395500D02*
X-2159000Y-8495500D01*
X-2209000Y-8445500D02*
X-2109000Y-8445500D01*
X-2159000Y-8649500D02*
X-2159000Y-8749500D01*
X-2209000Y-8699500D02*
X-2109000Y-8699500D01*
X-2034000Y-1093000D02*
X-2034000Y-1193000D01*
X-2084000Y-1143000D02*
X-1984000Y-1143000D01*
X-2034000Y-1347000D02*
X-2034000Y-1447000D01*
X-2084000Y-1397000D02*
X-1984000Y-1397000D01*
X-2034000Y-1601000D02*
X-2034000Y-1701000D01*
X-2084000Y-1651000D02*
X-1984000Y-1651000D01*
X-2034000Y-1855000D02*
X-2034000Y-1955000D01*
X-2084000Y-1905000D02*
X-1984000Y-1905000D01*
X-2034000Y-2109000D02*
X-2034000Y-2209000D01*
X-2084000Y-2159000D02*
X-1984000Y-2159000D01*
X-2034000Y-2363000D02*
X-2034000Y-2463000D01*
X-2084000Y-2413000D02*
X-1984000Y-2413000D01*
X-2034000Y-2617000D02*
X-2034000Y-2717000D01*
X-2084000Y-2667000D02*
X-1984000Y-2667000D01*
X-2034000Y-2871000D02*
X-2034000Y-2971000D01*
X-2084000Y-2921000D02*
X-1984000Y-2921000D01*
X-2034000Y-3125000D02*
X-2034000Y-3225000D01*
X-2084000Y-3175000D02*
X-1984000Y-3175000D01*
X-2034000Y-3379000D02*
X-2034000Y-3479000D01*
X-2084000Y-3429000D02*
X-1984000Y-3429000D01*
X-2034000Y-3633000D02*
X-2034000Y-3733000D01*
X-2084000Y-3683000D02*
X-1984000Y-3683000D01*
X-2034000Y-3887000D02*
X-2034000Y-3987000D01*
X-2084000Y-3937000D02*
X-1984000Y-3937000D01*
X-2034000Y-4141000D02*
X-2034000Y-4241000D01*
X-2084000Y-4191000D02*
X-1984000Y-4191000D01*
X-2034000Y-4395000D02*
X-2034000Y-4495000D01*
X-2084000Y-4445000D02*
X-1984000Y-4445000D01*
X-2034000Y-4649000D02*
X-2034000Y-4749000D01*
X-2084000Y-4699000D02*
X-1984000Y-4699000D01*
X-2034000Y-4903000D02*
X-2034000Y-5003000D01*
X-2084000Y-4953000D02*
X-1984000Y-4953000D01*
X-2034000Y-5157000D02*
X-2034000Y-5257000D01*
X-2084000Y-5207000D02*
X-1984000Y-5207000D01*
X-2034000Y-5411000D02*
X-2034000Y-5511000D01*
X-2084000Y-5461000D02*
X-1984000Y-5461000D01*
X-2034000Y-5665000D02*
X-2034000Y-5765000D01*
X-2084000Y-5715000D02*
X-1984000Y-5715000D01*
X-2034000Y-5919000D02*
X-2034000Y-6019000D01*
X-2084000Y-5969000D02*
X-1984000Y-5969000D01*
X-2034000Y-6173000D02*
X-2034000Y-6273000D01*
X-2084000Y-6223000D02*
X-1984000Y-6223000D01*
X-2034000Y-6427000D02*
X-2034000Y-6527000D01*
X-2084000Y-6477000D02*
X-1984000Y-6477000D01*
X-1905000Y-8395500D02*
X-1905000Y-8495500D01*
X-1955000Y-8445500D02*
X-1855000Y-8445500D01*
X-1905000Y-8649500D02*
X-1905000Y-8749500D01*
X-1955000Y-8699500D02*
X-1855000Y-8699500D01*
X-1651000Y-8395500D02*
X-1651000Y-8495500D01*
X-1701000Y-8445500D02*
X-1601000Y-8445500D01*
X-1651000Y-8649500D02*
X-1651000Y-8749500D01*
X-1701000Y-8699500D02*
X-1601000Y-8699500D01*
X-1397000Y-8395500D02*
X-1397000Y-8495500D01*
X-1447000Y-8445500D02*
X-1347000Y-8445500D01*
X-1397000Y-8649500D02*
X-1397000Y-8749500D01*
X-1447000Y-8699500D02*
X-1347000Y-8699500D01*
X-889000Y-5157000D02*
X-889000Y-5257000D01*
X-939000Y-5207000D02*
X-839000Y-5207000D01*
X90000Y50000D02*
X90000Y-50000D01*
X40000Y0D02*
X140000Y0D01*
X344000Y50000D02*
X344000Y-50000D01*
X294000Y0D02*
X394000Y0D01*
X381000Y-8395500D02*
X381000Y-8495500D01*
X331000Y-8445500D02*
X431000Y-8445500D01*
X381000Y-8649500D02*
X381000Y-8749500D01*
X331000Y-8699500D02*
X431000Y-8699500D01*
X598000Y50000D02*
X598000Y-50000D01*
X548000Y0D02*
X648000Y0D01*
X635000Y-8395500D02*
X635000Y-8495500D01*
X585000Y-8445500D02*
X685000Y-8445500D01*
X635000Y-8649500D02*
X635000Y-8749500D01*
X585000Y-8699500D02*
X685000Y-8699500D01*
X852000Y50000D02*
X852000Y-50000D01*
X802000Y0D02*
X902000Y0D01*
X889000Y-8395500D02*
X889000Y-8495500D01*
X839000Y-8445500D02*
X939000Y-8445500D01*
X889000Y-8649500D02*
X889000Y-8749500D01*
X839000Y-8699500D02*
X939000Y-8699500D01*
X1106000Y50000D02*
X1106000Y-50000D01*
X1056000Y0D02*
X1156000Y0D01*
X1143000Y-8395500D02*
X1143000Y-8495500D01*
X1093000Y-8445500D02*
X1193000Y-8445500D01*
X1143000Y-8649500D02*
X1143000Y-8749500D01*
X1093000Y-8699500D02*
X1193000Y-8699500D01*
X1360000Y50000D02*
X1360000Y-50000D01*
X1310000Y0D02*
X1410000Y0D01*
X1397000Y-8395500D02*
X1397000Y-8495500D01*
X1347000Y-8445500D02*
X1447000Y-8445500D01*
X1397000Y-8649500D02*
X1397000Y-8749500D01*
X1347000Y-8699500D02*
X1447000Y-8699500D01*
X1614000Y50000D02*
X1614000Y-50000D01*
X1564000Y0D02*
X1664000Y0D01*
X1651000Y-3569500D02*
X1651000Y-3669500D01*
X1601000Y-3619500D02*
X1701000Y-3619500D01*
X1651000Y-5601500D02*
X1651000Y-5701500D01*
X1601000Y-5651500D02*
X1701000Y-5651500D01*
X1651000Y-5982500D02*
X1651000Y-6082500D01*
X1601000Y-6032500D02*
X1701000Y-6032500D01*
X1651000Y-8395500D02*
X1651000Y-8495500D01*
X1601000Y-8445500D02*
X1701000Y-8445500D01*
X1651000Y-8649500D02*
X1651000Y-8749500D01*
X1601000Y-8699500D02*
X1701000Y-8699500D01*
X1868000Y50000D02*
X1868000Y-50000D01*
X1818000Y0D02*
X1918000Y0D01*
X1905000Y-8395500D02*
X1905000Y-8495500D01*
X1855000Y-8445500D02*
X1955000Y-8445500D01*
X1905000Y-8649500D02*
X1905000Y-8749500D01*
X1855000Y-8699500D02*
X1955000Y-8699500D01*
X2032000Y-1093000D02*
X2032000Y-1193000D01*
X1982000Y-1143000D02*
X2082000Y-1143000D01*
X2032000Y-1347000D02*
X2032000Y-1447000D01*
X1982000Y-1397000D02*
X2082000Y-1397000D01*
X2032000Y-1601000D02*
X2032000Y-1701000D01*
X1982000Y-1651000D02*
X2082000Y-1651000D01*
X2032000Y-1855000D02*
X2032000Y-1955000D01*
X1982000Y-1905000D02*
X2082000Y-1905000D01*
X2032000Y-2109000D02*
X2032000Y-2209000D01*
X1982000Y-2159000D02*
X2082000Y-2159000D01*
X2032000Y-2363000D02*
X2032000Y-2463000D01*
X1982000Y-2413000D02*
X2082000Y-2413000D01*
X2032000Y-2617000D02*
X2032000Y-2717000D01*
X1982000Y-2667000D02*
X2082000Y-2667000D01*
X2032000Y-2871000D02*
X2032000Y-2971000D01*
X1982000Y-2921000D02*
X2082000Y-2921000D01*
X2032000Y-3125000D02*
X2032000Y-3225000D01*
X1982000Y-3175000D02*
X2082000Y-3175000D01*
X2032000Y-3379000D02*
X2032000Y-3479000D01*
X1982000Y-3429000D02*
X2082000Y-3429000D01*
X2032000Y-3633000D02*
X2032000Y-3733000D01*
X1982000Y-3683000D02*
X2082000Y-3683000D01*
X2032000Y-3887000D02*
X2032000Y-3987000D01*
X1982000Y-3937000D02*
X2082000Y-3937000D01*
X2032000Y-4141000D02*
X2032000Y-4241000D01*
X1982000Y-4191000D02*
X2082000Y-4191000D01*
X2032000Y-4395000D02*
X2032000Y-4495000D01*
X1982000Y-4445000D02*
X2082000Y-4445000D01*
X2032000Y-4649000D02*
X2032000Y-4749000D01*
X1982000Y-4699000D02*
X2082000Y-4699000D01*
X2032000Y-4903000D02*
X2032000Y-5003000D01*
X1982000Y-4953000D02*
X2082000Y-4953000D01*
X2032000Y-5157000D02*
X2032000Y-5257000D01*
X1982000Y-5207000D02*
X2082000Y-5207000D01*
X2032000Y-5411000D02*
X2032000Y-5511000D01*
X1982000Y-5461000D02*
X2082000Y-5461000D01*
X2032000Y-5665000D02*
X2032000Y-5765000D01*
X1982000Y-5715000D02*
X2082000Y-5715000D01*
X2032000Y-5919000D02*
X2032000Y-6019000D01*
X1982000Y-5969000D02*
X2082000Y-5969000D01*
X2032000Y-6173000D02*
X2032000Y-6273000D01*
X1982000Y-6223000D02*
X2082000Y-6223000D01*
X2032000Y-6427000D02*
X2032000Y-6527000D01*
X1982000Y-6477000D02*
X2082000Y-6477000D01*
X2122000Y50000D02*
X2122000Y-50000D01*
X2072000Y0D02*
X2172000Y0D01*
X2159000Y-8395500D02*
X2159000Y-8495500D01*
X2109000Y-8445500D02*
X2209000Y-8445500D01*
X2159000Y-8649500D02*
X2159000Y-8749500D01*
X2109000Y-8699500D02*
X2209000Y-8699500D01*
X2286000Y-1093000D02*
X2286000Y-1193000D01*
X2236000Y-1143000D02*
X2336000Y-1143000D01*
X2286000Y-1347000D02*
X2286000Y-1447000D01*
X2236000Y-1397000D02*
X2336000Y-1397000D01*
X2286000Y-1601000D02*
X2286000Y-1701000D01*
X2236000Y-1651000D02*
X2336000Y-1651000D01*
X2286000Y-1855000D02*
X2286000Y-1955000D01*
X2236000Y-1905000D02*
X2336000Y-1905000D01*
X2286000Y-2109000D02*
X2286000Y-2209000D01*
X2236000Y-2159000D02*
X2336000Y-2159000D01*
X2286000Y-2363000D02*
X2286000Y-2463000D01*
X2236000Y-2413000D02*
X2336000Y-2413000D01*
X2286000Y-2617000D02*
X2286000Y-2717000D01*
X2236000Y-2667000D02*
X2336000Y-2667000D01*
X2286000Y-2871000D02*
X2286000Y-2971000D01*
X2236000Y-2921000D02*
X2336000Y-2921000D01*
X2286000Y-3125000D02*
X2286000Y-3225000D01*
X2236000Y-3175000D02*
X2336000Y-3175000D01*
X2286000Y-3379000D02*
X2286000Y-3479000D01*
X2236000Y-3429000D02*
X2336000Y-3429000D01*
X2286000Y-3633000D02*
X2286000Y-3733000D01*
X2236000Y-3683000D02*
X2336000Y-3683000D01*
X2286000Y-3887000D02*
X2286000Y-3987000D01*
X2236000Y-3937000D02*
X2336000Y-3937000D01*
X2286000Y-4141000D02*
X2286000Y-4241000D01*
X2236000Y-4191000D02*
X2336000Y-4191000D01*
X2286000Y-4395000D02*
X2286000Y-4495000D01*
X2236000Y-4445000D02*
X2336000Y-4445000D01*
X2286000Y-4649000D02*
X2286000Y-4749000D01*
X2236000Y-4699000D02*
X2336000Y-4699000D01*
X2286000Y-4903000D02*
X2286000Y-5003000D01*
X2236000Y-4953000D02*
X2336000Y-4953000D01*
X2286000Y-5157000D02*
X2286000Y-5257000D01*
X2236000Y-5207000D02*
X2336000Y-5207000D01*
X2286000Y-5411000D02*
X2286000Y-5511000D01*
X2236000Y-5461000D02*
X2336000Y-5461000D01*
X2286000Y-5665000D02*
X2286000Y-5765000D01*
X2236000Y-5715000D02*
X2336000Y-5715000D01*
X2286000Y-5919000D02*
X2286000Y-6019000D01*
X2236000Y-5969000D02*
X2336000Y-5969000D01*
X2286000Y-6173000D02*
X2286000Y-6273000D01*
X2236000Y-6223000D02*
X2336000Y-6223000D01*
X2286000Y-6427000D02*
X2286000Y-6527000D01*
X2236000Y-6477000D02*
X2336000Y-6477000D01*
X2376000Y50000D02*
X2376000Y-50000D01*
X2326000Y0D02*
X2426000Y0D01*
X2630000Y50000D02*
X2630000Y-50000D01*
X2580000Y0D02*
X2680000Y0D01*
X2884000Y50000D02*
X2884000Y-50000D01*
X2834000Y0D02*
X2934000Y0D01*
X3119500Y-902500D02*
X3119500Y-1002500D01*
X3069500Y-952500D02*
X3169500Y-952500D01*
X3138000Y50000D02*
X3138000Y-50000D01*
X3088000Y0D02*
X3188000Y0D01*
X3238500Y-1855000D02*
X3238500Y-1955000D01*
X3188500Y-1905000D02*
X3288500Y-1905000D01*
X3238500Y-2109000D02*
X3238500Y-2209000D01*
X3188500Y-2159000D02*
X3288500Y-2159000D01*
X3238500Y-2363000D02*
X3238500Y-2463000D01*
X3188500Y-2413000D02*
X3288500Y-2413000D01*
X3238500Y-2617000D02*
X3238500Y-2717000D01*
X3188500Y-2667000D02*
X3288500Y-2667000D01*
X3238500Y-4395000D02*
X3238500Y-4495000D01*
X3188500Y-4445000D02*
X3288500Y-4445000D01*
X3238500Y-4649000D02*
X3238500Y-4749000D01*
X3188500Y-4699000D02*
X3288500Y-4699000D01*
X3238500Y-4903000D02*
X3238500Y-5003000D01*
X3188500Y-4953000D02*
X3288500Y-4953000D01*
X3238500Y-5157000D02*
X3238500Y-5257000D01*
X3188500Y-5207000D02*
X3288500Y-5207000D01*
X3238500Y-5411000D02*
X3238500Y-5511000D01*
X3188500Y-5461000D02*
X3288500Y-5461000D01*
X3238500Y-5665000D02*
X3238500Y-5765000D01*
X3188500Y-5715000D02*
X3288500Y-5715000D01*
X3238500Y-5919000D02*
X3238500Y-6019000D01*
X3188500Y-5969000D02*
X3288500Y-5969000D01*
X3238500Y-6173000D02*
X3238500Y-6273000D01*
X3188500Y-6223000D02*
X3288500Y-6223000D01*
X3369500Y-402500D02*
X3369500Y-502500D01*
X3319500Y-452500D02*
X3419500Y-452500D01*
X3392000Y50000D02*
X3392000Y-50000D01*
X3342000Y0D02*
X3442000Y0D01*
X3492500Y-1855000D02*
X3492500Y-1955000D01*
X3442500Y-1905000D02*
X3542500Y-1905000D01*
X3492500Y-2109000D02*
X3492500Y-2209000D01*
X3442500Y-2159000D02*
X3542500Y-2159000D01*
X3492500Y-2363000D02*
X3492500Y-2463000D01*
X3442500Y-2413000D02*
X3542500Y-2413000D01*
X3492500Y-2617000D02*
X3492500Y-2717000D01*
X3442500Y-2667000D02*
X3542500Y-2667000D01*
X3492500Y-4395000D02*
X3492500Y-4495000D01*
X3442500Y-4445000D02*
X3542500Y-4445000D01*
X3492500Y-4649000D02*
X3492500Y-4749000D01*
X3442500Y-4699000D02*
X3542500Y-4699000D01*
X3492500Y-4903000D02*
X3492500Y-5003000D01*
X3442500Y-4953000D02*
X3542500Y-4953000D01*
X3492500Y-5157000D02*
X3492500Y-5257000D01*
X3442500Y-5207000D02*
X3542500Y-5207000D01*
X3492500Y-5411000D02*
X3492500Y-5511000D01*
X3442500Y-5461000D02*
X3542500Y-5461000D01*
X3492500Y-5665000D02*
X3492500Y-5765000D01*
X3442500Y-5715000D02*
X3542500Y-5715000D01*
X3492500Y-5919000D02*
X3492500Y-6019000D01*
X3442500Y-5969000D02*
X3542500Y-5969000D01*
X3492500Y-6173000D02*
X3492500Y-6273000D01*
X3442500Y-6223000D02*
X3542500Y-6223000D01*
X3619500Y-902500D02*
X3619500Y-1002500D01*
X3569500Y-952500D02*
X3669500Y-952500D01*
X3646000Y50000D02*
X3646000Y-50000D01*
X3596000Y0D02*
X3696000Y0D01*
X3683000Y-7379500D02*
X3683000Y-7479500D01*
X3633000Y-7429500D02*
X3733000Y-7429500D01*
X3900000Y50000D02*
X3900000Y-50000D01*
X3850000Y0D02*
X3950000Y0D01*
X3937000Y-7379500D02*
X3937000Y-7479500D01*
X3887000Y-7429500D02*
X3987000Y-7429500D01*
X4191000Y-7379500D02*
X4191000Y-7479500D01*
X4141000Y-7429500D02*
X4241000Y-7429500D01*
D16*
X-3876895Y-7855605D02*
X-3876895Y-7735395D01*
X-3997105Y-7735395D01*
X-3997105Y-7855605D01*
X-3876895Y-7855605D01*
X-3876895Y-8251605D02*
X-3876895Y-8131395D01*
X-3997105Y-8131395D01*
X-3997105Y-8251605D01*
X-3876895Y-8251605D01*
D12*
X3417000Y-7949500D02*
X3517000Y-7849500D01*
X3417000Y-7749500D01*
X3317000Y-7849500D01*
X3417000Y-7949500D01*
X4457000Y-7949500D02*
X4557000Y-7849500D01*
X4457000Y-7749500D01*
X4357000Y-7849500D01*
X4457000Y-7949500D01*
X-4749881Y-10017976D02*
X-4749881Y-9817976D01*
X-4702262Y-9817976D01*
X-4673690Y-9827500D01*
X-4654643Y-9846548D01*
X-4645119Y-9865595D01*
X-4635595Y-9903690D01*
X-4635595Y-9932262D01*
X-4645119Y-9970357D01*
X-4654643Y-9989405D01*
X-4673690Y-10008452D01*
X-4702262Y-10017976D01*
X-4749881Y-10017976D01*
X-4549881Y-10017976D02*
X-4549881Y-9884643D01*
X-4549881Y-9922738D02*
X-4540357Y-9903690D01*
X-4530833Y-9894167D01*
X-4511786Y-9884643D01*
X-4492738Y-9884643D01*
X-4426071Y-10017976D02*
X-4426071Y-9884643D01*
X-4426071Y-9817976D02*
X-4435595Y-9827500D01*
X-4426071Y-9837024D01*
X-4416548Y-9827500D01*
X-4426071Y-9817976D01*
X-4426071Y-9837024D01*
X-4302262Y-10017976D02*
X-4321310Y-10008452D01*
X-4330833Y-9989405D01*
X-4330833Y-9817976D01*
X-4197500Y-10017976D02*
X-4216548Y-10008452D01*
X-4226071Y-9989405D01*
X-4226071Y-9817976D01*
X-3968928Y-10017976D02*
X-3968928Y-9817976D01*
X-3902262Y-9960833D01*
X-3835595Y-9817976D01*
X-3835595Y-10017976D01*
X-3654643Y-10017976D02*
X-3654643Y-9913214D01*
X-3664167Y-9894167D01*
X-3683214Y-9884643D01*
X-3721309Y-9884643D01*
X-3740357Y-9894167D01*
X-3654643Y-10008452D02*
X-3673690Y-10017976D01*
X-3721309Y-10017976D01*
X-3740357Y-10008452D01*
X-3749881Y-9989405D01*
X-3749881Y-9970357D01*
X-3740357Y-9951310D01*
X-3721309Y-9941786D01*
X-3673690Y-9941786D01*
X-3654643Y-9932262D01*
X-3559405Y-9884643D02*
X-3559405Y-10084643D01*
X-3559405Y-9894167D02*
X-3540357Y-9884643D01*
X-3502262Y-9884643D01*
X-3483214Y-9894167D01*
X-3473690Y-9903690D01*
X-3464167Y-9922738D01*
X-3464167Y-9979881D01*
X-3473690Y-9998929D01*
X-3483214Y-10008452D01*
X-3502262Y-10017976D01*
X-3540357Y-10017976D01*
X-3559405Y-10008452D01*
X-3378452Y-9998929D02*
X-3368928Y-10008452D01*
X-3378452Y-10017976D01*
X-3387976Y-10008452D01*
X-3378452Y-9998929D01*
X-3378452Y-10017976D01*
X-3378452Y-9894167D02*
X-3368928Y-9903690D01*
X-3378452Y-9913214D01*
X-3387976Y-9903690D01*
X-3378452Y-9894167D01*
X-3378452Y-9913214D01*
D13*
X-5047500Y-10327500D02*
X-5007500Y-10367500D01*
X-5007500Y-10327500D02*
X-5047500Y-10367500D01*
D12*
X-4711786Y-10237976D02*
X-4692738Y-10237976D01*
X-4673690Y-10247500D01*
X-4664167Y-10257024D01*
X-4654643Y-10276071D01*
X-4645119Y-10314167D01*
X-4645119Y-10361786D01*
X-4654643Y-10399881D01*
X-4664167Y-10418929D01*
X-4673690Y-10428452D01*
X-4692738Y-10437976D01*
X-4711786Y-10437976D01*
X-4730833Y-10428452D01*
X-4740357Y-10418929D01*
X-4749881Y-10399881D01*
X-4759405Y-10361786D01*
X-4759405Y-10314167D01*
X-4749881Y-10276071D01*
X-4740357Y-10257024D01*
X-4730833Y-10247500D01*
X-4711786Y-10237976D01*
X-4559405Y-10418929D02*
X-4549881Y-10428452D01*
X-4559405Y-10437976D01*
X-4568929Y-10428452D01*
X-4559405Y-10418929D01*
X-4559405Y-10437976D01*
X-4378452Y-10304643D02*
X-4378452Y-10437976D01*
X-4426071Y-10228452D02*
X-4473690Y-10371310D01*
X-4349881Y-10371310D01*
X-4235595Y-10237976D02*
X-4216548Y-10237976D01*
X-4197500Y-10247500D01*
X-4187976Y-10257024D01*
X-4178452Y-10276071D01*
X-4168928Y-10314167D01*
X-4168928Y-10361786D01*
X-4178452Y-10399881D01*
X-4187976Y-10418929D01*
X-4197500Y-10428452D01*
X-4216548Y-10437976D01*
X-4235595Y-10437976D01*
X-4254643Y-10428452D01*
X-4264167Y-10418929D01*
X-4273690Y-10399881D01*
X-4283214Y-10361786D01*
X-4283214Y-10314167D01*
X-4273690Y-10276071D01*
X-4264167Y-10257024D01*
X-4254643Y-10247500D01*
X-4235595Y-10237976D01*
X-4045119Y-10237976D02*
X-4026071Y-10237976D01*
X-4007024Y-10247500D01*
X-3997500Y-10257024D01*
X-3987976Y-10276071D01*
X-3978452Y-10314167D01*
X-3978452Y-10361786D01*
X-3987976Y-10399881D01*
X-3997500Y-10418929D01*
X-4007024Y-10428452D01*
X-4026071Y-10437976D01*
X-4045119Y-10437976D01*
X-4064167Y-10428452D01*
X-4073690Y-10418929D01*
X-4083214Y-10399881D01*
X-4092738Y-10361786D01*
X-4092738Y-10314167D01*
X-4083214Y-10276071D01*
X-4073690Y-10257024D01*
X-4064167Y-10247500D01*
X-4045119Y-10237976D01*
X-3892738Y-10437976D02*
X-3892738Y-10304643D01*
X-3892738Y-10323690D02*
X-3883214Y-10314167D01*
X-3864167Y-10304643D01*
X-3835595Y-10304643D01*
X-3816548Y-10314167D01*
X-3807024Y-10333214D01*
X-3807024Y-10437976D01*
X-3807024Y-10333214D02*
X-3797500Y-10314167D01*
X-3778452Y-10304643D01*
X-3749881Y-10304643D01*
X-3730833Y-10314167D01*
X-3721309Y-10333214D01*
X-3721309Y-10437976D01*
X-3626071Y-10437976D02*
X-3626071Y-10304643D01*
X-3626071Y-10323690D02*
X-3616548Y-10314167D01*
X-3597500Y-10304643D01*
X-3568928Y-10304643D01*
X-3549881Y-10314167D01*
X-3540357Y-10333214D01*
X-3540357Y-10437976D01*
X-3540357Y-10333214D02*
X-3530833Y-10314167D01*
X-3511786Y-10304643D01*
X-3483214Y-10304643D01*
X-3464167Y-10314167D01*
X-3454643Y-10333214D01*
X-3454643Y-10437976D01*
X-3064167Y-10228452D02*
X-3235595Y-10485595D01*
X-2807024Y-10237976D02*
X-2787976Y-10237976D01*
X-2768929Y-10247500D01*
X-2759405Y-10257024D01*
X-2749881Y-10276071D01*
X-2740357Y-10314167D01*
X-2740357Y-10361786D01*
X-2749881Y-10399881D01*
X-2759405Y-10418929D01*
X-2768929Y-10428452D01*
X-2787976Y-10437976D01*
X-2807024Y-10437976D01*
X-2826071Y-10428452D01*
X-2835595Y-10418929D01*
X-2845119Y-10399881D01*
X-2854643Y-10361786D01*
X-2854643Y-10314167D01*
X-2845119Y-10276071D01*
X-2835595Y-10257024D01*
X-2826071Y-10247500D01*
X-2807024Y-10237976D01*
X-2654643Y-10418929D02*
X-2645119Y-10428452D01*
X-2654643Y-10437976D01*
X-2664167Y-10428452D01*
X-2654643Y-10418929D01*
X-2654643Y-10437976D01*
X-2521310Y-10237976D02*
X-2502262Y-10237976D01*
X-2483214Y-10247500D01*
X-2473690Y-10257024D01*
X-2464167Y-10276071D01*
X-2454643Y-10314167D01*
X-2454643Y-10361786D01*
X-2464167Y-10399881D01*
X-2473690Y-10418929D01*
X-2483214Y-10428452D01*
X-2502262Y-10437976D01*
X-2521310Y-10437976D01*
X-2540357Y-10428452D01*
X-2549881Y-10418929D01*
X-2559405Y-10399881D01*
X-2568929Y-10361786D01*
X-2568929Y-10314167D01*
X-2559405Y-10276071D01*
X-2549881Y-10257024D01*
X-2540357Y-10247500D01*
X-2521310Y-10237976D01*
X-2264167Y-10437976D02*
X-2378452Y-10437976D01*
X-2321310Y-10437976D02*
X-2321310Y-10237976D01*
X-2340357Y-10266548D01*
X-2359405Y-10285595D01*
X-2378452Y-10295119D01*
X-2083214Y-10237976D02*
X-2178452Y-10237976D01*
X-2187976Y-10333214D01*
X-2178452Y-10323690D01*
X-2159405Y-10314167D01*
X-2111786Y-10314167D01*
X-2092738Y-10323690D01*
X-2083214Y-10333214D01*
X-2073690Y-10352262D01*
X-2073690Y-10399881D01*
X-2083214Y-10418929D01*
X-2092738Y-10428452D01*
X-2111786Y-10437976D01*
X-2159405Y-10437976D01*
X-2178452Y-10428452D01*
X-2187976Y-10418929D01*
X-2007024Y-10237976D02*
X-1873690Y-10237976D01*
X-1959405Y-10437976D01*
X-1807024Y-10237976D02*
X-1807024Y-10276071D01*
X-1730833Y-10237976D02*
X-1730833Y-10276071D01*
X-1435595Y-10514167D02*
X-1445119Y-10504643D01*
X-1464167Y-10476071D01*
X-1473690Y-10457024D01*
X-1483214Y-10428452D01*
X-1492738Y-10380833D01*
X-1492738Y-10342738D01*
X-1483214Y-10295119D01*
X-1473690Y-10266548D01*
X-1464167Y-10247500D01*
X-1445119Y-10218929D01*
X-1435595Y-10209405D01*
X-1273690Y-10304643D02*
X-1273690Y-10437976D01*
X-1321310Y-10228452D02*
X-1368929Y-10371310D01*
X-1245119Y-10371310D01*
X-1083214Y-10304643D02*
X-1083214Y-10437976D01*
X-1130833Y-10228452D02*
X-1178452Y-10371310D01*
X-1054643Y-10371310D01*
X-826071Y-10437976D02*
X-826071Y-10237976D01*
X-740357Y-10437976D02*
X-740357Y-10333214D01*
X-749881Y-10314167D01*
X-768928Y-10304643D01*
X-797500Y-10304643D01*
X-816548Y-10314167D01*
X-826071Y-10323690D01*
X-616548Y-10437976D02*
X-635595Y-10428452D01*
X-645119Y-10418929D01*
X-654643Y-10399881D01*
X-654643Y-10342738D01*
X-645119Y-10323690D01*
X-635595Y-10314167D01*
X-616548Y-10304643D01*
X-587976Y-10304643D01*
X-568929Y-10314167D01*
X-559405Y-10323690D01*
X-549881Y-10342738D01*
X-549881Y-10399881D01*
X-559405Y-10418929D01*
X-568929Y-10428452D01*
X-587976Y-10437976D01*
X-616548Y-10437976D01*
X-435595Y-10437976D02*
X-454643Y-10428452D01*
X-464167Y-10409405D01*
X-464167Y-10237976D01*
X-283214Y-10428452D02*
X-302262Y-10437976D01*
X-340357Y-10437976D01*
X-359405Y-10428452D01*
X-368928Y-10409405D01*
X-368928Y-10333214D01*
X-359405Y-10314167D01*
X-340357Y-10304643D01*
X-302262Y-10304643D01*
X-283214Y-10314167D01*
X-273690Y-10333214D01*
X-273690Y-10352262D01*
X-368928Y-10371310D01*
X-197500Y-10428452D02*
X-178452Y-10437976D01*
X-140357Y-10437976D01*
X-121309Y-10428452D01*
X-111786Y-10409405D01*
X-111786Y-10399881D01*
X-121309Y-10380833D01*
X-140357Y-10371310D01*
X-168929Y-10371310D01*
X-187976Y-10361786D01*
X-197500Y-10342738D01*
X-197500Y-10333214D01*
X-187976Y-10314167D01*
X-168929Y-10304643D01*
X-140357Y-10304643D01*
X-121309Y-10314167D01*
X-45119Y-10514167D02*
X-35595Y-10504643D01*
X-16548Y-10476071D01*
X-7024Y-10457024D01*
X2500Y-10428452D01*
X12024Y-10380833D01*
X12024Y-10342738D01*
X2500Y-10295119D01*
X-7024Y-10266548D01*
X-16548Y-10247500D01*
X-35595Y-10218929D01*
X-45119Y-10209405D01*
D14*
X-5007500Y-10611500D02*
G75*
G03*
X-5007500Y-10611500I-40000J0D01*
G01*
D12*
X-4711786Y-10501976D02*
X-4692738Y-10501976D01*
X-4673690Y-10511500D01*
X-4664167Y-10521024D01*
X-4654643Y-10540071D01*
X-4645119Y-10578167D01*
X-4645119Y-10625786D01*
X-4654643Y-10663881D01*
X-4664167Y-10682929D01*
X-4673690Y-10692452D01*
X-4692738Y-10701976D01*
X-4711786Y-10701976D01*
X-4730833Y-10692452D01*
X-4740357Y-10682929D01*
X-4749881Y-10663881D01*
X-4759405Y-10625786D01*
X-4759405Y-10578167D01*
X-4749881Y-10540071D01*
X-4740357Y-10521024D01*
X-4730833Y-10511500D01*
X-4711786Y-10501976D01*
X-4559405Y-10682929D02*
X-4549881Y-10692452D01*
X-4559405Y-10701976D01*
X-4568929Y-10692452D01*
X-4559405Y-10682929D01*
X-4559405Y-10701976D01*
X-4435595Y-10587690D02*
X-4454643Y-10578167D01*
X-4464167Y-10568643D01*
X-4473690Y-10549595D01*
X-4473690Y-10540071D01*
X-4464167Y-10521024D01*
X-4454643Y-10511500D01*
X-4435595Y-10501976D01*
X-4397500Y-10501976D01*
X-4378452Y-10511500D01*
X-4368929Y-10521024D01*
X-4359405Y-10540071D01*
X-4359405Y-10549595D01*
X-4368929Y-10568643D01*
X-4378452Y-10578167D01*
X-4397500Y-10587690D01*
X-4435595Y-10587690D01*
X-4454643Y-10597214D01*
X-4464167Y-10606738D01*
X-4473690Y-10625786D01*
X-4473690Y-10663881D01*
X-4464167Y-10682929D01*
X-4454643Y-10692452D01*
X-4435595Y-10701976D01*
X-4397500Y-10701976D01*
X-4378452Y-10692452D01*
X-4368929Y-10682929D01*
X-4359405Y-10663881D01*
X-4359405Y-10625786D01*
X-4368929Y-10606738D01*
X-4378452Y-10597214D01*
X-4397500Y-10587690D01*
X-4235595Y-10501976D02*
X-4216548Y-10501976D01*
X-4197500Y-10511500D01*
X-4187976Y-10521024D01*
X-4178452Y-10540071D01*
X-4168928Y-10578167D01*
X-4168928Y-10625786D01*
X-4178452Y-10663881D01*
X-4187976Y-10682929D01*
X-4197500Y-10692452D01*
X-4216548Y-10701976D01*
X-4235595Y-10701976D01*
X-4254643Y-10692452D01*
X-4264167Y-10682929D01*
X-4273690Y-10663881D01*
X-4283214Y-10625786D01*
X-4283214Y-10578167D01*
X-4273690Y-10540071D01*
X-4264167Y-10521024D01*
X-4254643Y-10511500D01*
X-4235595Y-10501976D01*
X-4045119Y-10501976D02*
X-4026071Y-10501976D01*
X-4007024Y-10511500D01*
X-3997500Y-10521024D01*
X-3987976Y-10540071D01*
X-3978452Y-10578167D01*
X-3978452Y-10625786D01*
X-3987976Y-10663881D01*
X-3997500Y-10682929D01*
X-4007024Y-10692452D01*
X-4026071Y-10701976D01*
X-4045119Y-10701976D01*
X-4064167Y-10692452D01*
X-4073690Y-10682929D01*
X-4083214Y-10663881D01*
X-4092738Y-10625786D01*
X-4092738Y-10578167D01*
X-4083214Y-10540071D01*
X-4073690Y-10521024D01*
X-4064167Y-10511500D01*
X-4045119Y-10501976D01*
X-3892738Y-10701976D02*
X-3892738Y-10568643D01*
X-3892738Y-10587690D02*
X-3883214Y-10578167D01*
X-3864167Y-10568643D01*
X-3835595Y-10568643D01*
X-3816548Y-10578167D01*
X-3807024Y-10597214D01*
X-3807024Y-10701976D01*
X-3807024Y-10597214D02*
X-3797500Y-10578167D01*
X-3778452Y-10568643D01*
X-3749881Y-10568643D01*
X-3730833Y-10578167D01*
X-3721309Y-10597214D01*
X-3721309Y-10701976D01*
X-3626071Y-10701976D02*
X-3626071Y-10568643D01*
X-3626071Y-10587690D02*
X-3616548Y-10578167D01*
X-3597500Y-10568643D01*
X-3568928Y-10568643D01*
X-3549881Y-10578167D01*
X-3540357Y-10597214D01*
X-3540357Y-10701976D01*
X-3540357Y-10597214D02*
X-3530833Y-10578167D01*
X-3511786Y-10568643D01*
X-3483214Y-10568643D01*
X-3464167Y-10578167D01*
X-3454643Y-10597214D01*
X-3454643Y-10701976D01*
X-3064167Y-10492452D02*
X-3235595Y-10749595D01*
X-2807024Y-10501976D02*
X-2787976Y-10501976D01*
X-2768929Y-10511500D01*
X-2759405Y-10521024D01*
X-2749881Y-10540071D01*
X-2740357Y-10578167D01*
X-2740357Y-10625786D01*
X-2749881Y-10663881D01*
X-2759405Y-10682929D01*
X-2768929Y-10692452D01*
X-2787976Y-10701976D01*
X-2807024Y-10701976D01*
X-2826071Y-10692452D01*
X-2835595Y-10682929D01*
X-2845119Y-10663881D01*
X-2854643Y-10625786D01*
X-2854643Y-10578167D01*
X-2845119Y-10540071D01*
X-2835595Y-10521024D01*
X-2826071Y-10511500D01*
X-2807024Y-10501976D01*
X-2654643Y-10682929D02*
X-2645119Y-10692452D01*
X-2654643Y-10701976D01*
X-2664167Y-10692452D01*
X-2654643Y-10682929D01*
X-2654643Y-10701976D01*
X-2521310Y-10501976D02*
X-2502262Y-10501976D01*
X-2483214Y-10511500D01*
X-2473690Y-10521024D01*
X-2464167Y-10540071D01*
X-2454643Y-10578167D01*
X-2454643Y-10625786D01*
X-2464167Y-10663881D01*
X-2473690Y-10682929D01*
X-2483214Y-10692452D01*
X-2502262Y-10701976D01*
X-2521310Y-10701976D01*
X-2540357Y-10692452D01*
X-2549881Y-10682929D01*
X-2559405Y-10663881D01*
X-2568929Y-10625786D01*
X-2568929Y-10578167D01*
X-2559405Y-10540071D01*
X-2549881Y-10521024D01*
X-2540357Y-10511500D01*
X-2521310Y-10501976D01*
X-2387976Y-10501976D02*
X-2264167Y-10501976D01*
X-2330833Y-10578167D01*
X-2302262Y-10578167D01*
X-2283214Y-10587690D01*
X-2273690Y-10597214D01*
X-2264167Y-10616262D01*
X-2264167Y-10663881D01*
X-2273690Y-10682929D01*
X-2283214Y-10692452D01*
X-2302262Y-10701976D01*
X-2359405Y-10701976D01*
X-2378452Y-10692452D01*
X-2387976Y-10682929D01*
X-2073690Y-10701976D02*
X-2187976Y-10701976D01*
X-2130833Y-10701976D02*
X-2130833Y-10501976D01*
X-2149881Y-10530548D01*
X-2168929Y-10549595D01*
X-2187976Y-10559119D01*
X-1892738Y-10501976D02*
X-1987976Y-10501976D01*
X-1997500Y-10597214D01*
X-1987976Y-10587690D01*
X-1968928Y-10578167D01*
X-1921309Y-10578167D01*
X-1902262Y-10587690D01*
X-1892738Y-10597214D01*
X-1883214Y-10616262D01*
X-1883214Y-10663881D01*
X-1892738Y-10682929D01*
X-1902262Y-10692452D01*
X-1921309Y-10701976D01*
X-1968928Y-10701976D01*
X-1987976Y-10692452D01*
X-1997500Y-10682929D01*
X-1807024Y-10501976D02*
X-1807024Y-10540071D01*
X-1730833Y-10501976D02*
X-1730833Y-10540071D01*
X-1435595Y-10778167D02*
X-1445119Y-10768643D01*
X-1464167Y-10740071D01*
X-1473690Y-10721024D01*
X-1483214Y-10692452D01*
X-1492738Y-10644833D01*
X-1492738Y-10606738D01*
X-1483214Y-10559119D01*
X-1473690Y-10530548D01*
X-1464167Y-10511500D01*
X-1445119Y-10482929D01*
X-1435595Y-10473405D01*
X-1273690Y-10501976D02*
X-1311786Y-10501976D01*
X-1330833Y-10511500D01*
X-1340357Y-10521024D01*
X-1359405Y-10549595D01*
X-1368929Y-10587690D01*
X-1368929Y-10663881D01*
X-1359405Y-10682929D01*
X-1349881Y-10692452D01*
X-1330833Y-10701976D01*
X-1292738Y-10701976D01*
X-1273690Y-10692452D01*
X-1264167Y-10682929D01*
X-1254643Y-10663881D01*
X-1254643Y-10616262D01*
X-1264167Y-10597214D01*
X-1273690Y-10587690D01*
X-1292738Y-10578167D01*
X-1330833Y-10578167D01*
X-1349881Y-10587690D01*
X-1359405Y-10597214D01*
X-1368929Y-10616262D01*
X-1187976Y-10501976D02*
X-1054643Y-10501976D01*
X-1140357Y-10701976D01*
X-826071Y-10701976D02*
X-826071Y-10501976D01*
X-740357Y-10701976D02*
X-740357Y-10597214D01*
X-749881Y-10578167D01*
X-768928Y-10568643D01*
X-797500Y-10568643D01*
X-816548Y-10578167D01*
X-826071Y-10587690D01*
X-616548Y-10701976D02*
X-635595Y-10692452D01*
X-645119Y-10682929D01*
X-654643Y-10663881D01*
X-654643Y-10606738D01*
X-645119Y-10587690D01*
X-635595Y-10578167D01*
X-616548Y-10568643D01*
X-587976Y-10568643D01*
X-568929Y-10578167D01*
X-559405Y-10587690D01*
X-549881Y-10606738D01*
X-549881Y-10663881D01*
X-559405Y-10682929D01*
X-568929Y-10692452D01*
X-587976Y-10701976D01*
X-616548Y-10701976D01*
X-435595Y-10701976D02*
X-454643Y-10692452D01*
X-464167Y-10673405D01*
X-464167Y-10501976D01*
X-283214Y-10692452D02*
X-302262Y-10701976D01*
X-340357Y-10701976D01*
X-359405Y-10692452D01*
X-368928Y-10673405D01*
X-368928Y-10597214D01*
X-359405Y-10578167D01*
X-340357Y-10568643D01*
X-302262Y-10568643D01*
X-283214Y-10578167D01*
X-273690Y-10597214D01*
X-273690Y-10616262D01*
X-368928Y-10635310D01*
X-197500Y-10692452D02*
X-178452Y-10701976D01*
X-140357Y-10701976D01*
X-121309Y-10692452D01*
X-111786Y-10673405D01*
X-111786Y-10663881D01*
X-121309Y-10644833D01*
X-140357Y-10635310D01*
X-168929Y-10635310D01*
X-187976Y-10625786D01*
X-197500Y-10606738D01*
X-197500Y-10597214D01*
X-187976Y-10578167D01*
X-168929Y-10568643D01*
X-140357Y-10568643D01*
X-121309Y-10578167D01*
X-45119Y-10778167D02*
X-35595Y-10768643D01*
X-16548Y-10740071D01*
X-7024Y-10721024D01*
X2500Y-10692452D01*
X12024Y-10644833D01*
X12024Y-10606738D01*
X2500Y-10559119D01*
X-7024Y-10530548D01*
X-16548Y-10511500D01*
X-35595Y-10482929D01*
X-45119Y-10473405D01*
D15*
X-5057500Y-10825500D02*
X-5057500Y-10925500D01*
X-5107500Y-10875500D02*
X-5007500Y-10875500D01*
D12*
X-4645119Y-10965976D02*
X-4759405Y-10965976D01*
X-4702262Y-10965976D02*
X-4702262Y-10765976D01*
X-4721310Y-10794548D01*
X-4740357Y-10813595D01*
X-4759405Y-10823119D01*
X-4559405Y-10946929D02*
X-4549881Y-10956452D01*
X-4559405Y-10965976D01*
X-4568929Y-10956452D01*
X-4559405Y-10946929D01*
X-4559405Y-10965976D01*
X-4426071Y-10765976D02*
X-4407024Y-10765976D01*
X-4387976Y-10775500D01*
X-4378452Y-10785024D01*
X-4368929Y-10804071D01*
X-4359405Y-10842167D01*
X-4359405Y-10889786D01*
X-4368929Y-10927881D01*
X-4378452Y-10946929D01*
X-4387976Y-10956452D01*
X-4407024Y-10965976D01*
X-4426071Y-10965976D01*
X-4445119Y-10956452D01*
X-4454643Y-10946929D01*
X-4464167Y-10927881D01*
X-4473690Y-10889786D01*
X-4473690Y-10842167D01*
X-4464167Y-10804071D01*
X-4454643Y-10785024D01*
X-4445119Y-10775500D01*
X-4426071Y-10765976D01*
X-4235595Y-10765976D02*
X-4216548Y-10765976D01*
X-4197500Y-10775500D01*
X-4187976Y-10785024D01*
X-4178452Y-10804071D01*
X-4168928Y-10842167D01*
X-4168928Y-10889786D01*
X-4178452Y-10927881D01*
X-4187976Y-10946929D01*
X-4197500Y-10956452D01*
X-4216548Y-10965976D01*
X-4235595Y-10965976D01*
X-4254643Y-10956452D01*
X-4264167Y-10946929D01*
X-4273690Y-10927881D01*
X-4283214Y-10889786D01*
X-4283214Y-10842167D01*
X-4273690Y-10804071D01*
X-4264167Y-10785024D01*
X-4254643Y-10775500D01*
X-4235595Y-10765976D01*
X-4045119Y-10765976D02*
X-4026071Y-10765976D01*
X-4007024Y-10775500D01*
X-3997500Y-10785024D01*
X-3987976Y-10804071D01*
X-3978452Y-10842167D01*
X-3978452Y-10889786D01*
X-3987976Y-10927881D01*
X-3997500Y-10946929D01*
X-4007024Y-10956452D01*
X-4026071Y-10965976D01*
X-4045119Y-10965976D01*
X-4064167Y-10956452D01*
X-4073690Y-10946929D01*
X-4083214Y-10927881D01*
X-4092738Y-10889786D01*
X-4092738Y-10842167D01*
X-4083214Y-10804071D01*
X-4073690Y-10785024D01*
X-4064167Y-10775500D01*
X-4045119Y-10765976D01*
X-3892738Y-10965976D02*
X-3892738Y-10832643D01*
X-3892738Y-10851690D02*
X-3883214Y-10842167D01*
X-3864167Y-10832643D01*
X-3835595Y-10832643D01*
X-3816548Y-10842167D01*
X-3807024Y-10861214D01*
X-3807024Y-10965976D01*
X-3807024Y-10861214D02*
X-3797500Y-10842167D01*
X-3778452Y-10832643D01*
X-3749881Y-10832643D01*
X-3730833Y-10842167D01*
X-3721309Y-10861214D01*
X-3721309Y-10965976D01*
X-3626071Y-10965976D02*
X-3626071Y-10832643D01*
X-3626071Y-10851690D02*
X-3616548Y-10842167D01*
X-3597500Y-10832643D01*
X-3568928Y-10832643D01*
X-3549881Y-10842167D01*
X-3540357Y-10861214D01*
X-3540357Y-10965976D01*
X-3540357Y-10861214D02*
X-3530833Y-10842167D01*
X-3511786Y-10832643D01*
X-3483214Y-10832643D01*
X-3464167Y-10842167D01*
X-3454643Y-10861214D01*
X-3454643Y-10965976D01*
X-3064167Y-10756452D02*
X-3235595Y-11013595D01*
X-2807024Y-10765976D02*
X-2787976Y-10765976D01*
X-2768929Y-10775500D01*
X-2759405Y-10785024D01*
X-2749881Y-10804071D01*
X-2740357Y-10842167D01*
X-2740357Y-10889786D01*
X-2749881Y-10927881D01*
X-2759405Y-10946929D01*
X-2768929Y-10956452D01*
X-2787976Y-10965976D01*
X-2807024Y-10965976D01*
X-2826071Y-10956452D01*
X-2835595Y-10946929D01*
X-2845119Y-10927881D01*
X-2854643Y-10889786D01*
X-2854643Y-10842167D01*
X-2845119Y-10804071D01*
X-2835595Y-10785024D01*
X-2826071Y-10775500D01*
X-2807024Y-10765976D01*
X-2654643Y-10946929D02*
X-2645119Y-10956452D01*
X-2654643Y-10965976D01*
X-2664167Y-10956452D01*
X-2654643Y-10946929D01*
X-2654643Y-10965976D01*
X-2521310Y-10765976D02*
X-2502262Y-10765976D01*
X-2483214Y-10775500D01*
X-2473690Y-10785024D01*
X-2464167Y-10804071D01*
X-2454643Y-10842167D01*
X-2454643Y-10889786D01*
X-2464167Y-10927881D01*
X-2473690Y-10946929D01*
X-2483214Y-10956452D01*
X-2502262Y-10965976D01*
X-2521310Y-10965976D01*
X-2540357Y-10956452D01*
X-2549881Y-10946929D01*
X-2559405Y-10927881D01*
X-2568929Y-10889786D01*
X-2568929Y-10842167D01*
X-2559405Y-10804071D01*
X-2549881Y-10785024D01*
X-2540357Y-10775500D01*
X-2521310Y-10765976D01*
X-2387976Y-10765976D02*
X-2264167Y-10765976D01*
X-2330833Y-10842167D01*
X-2302262Y-10842167D01*
X-2283214Y-10851690D01*
X-2273690Y-10861214D01*
X-2264167Y-10880262D01*
X-2264167Y-10927881D01*
X-2273690Y-10946929D01*
X-2283214Y-10956452D01*
X-2302262Y-10965976D01*
X-2359405Y-10965976D01*
X-2378452Y-10956452D01*
X-2387976Y-10946929D01*
X-2168929Y-10965976D02*
X-2130833Y-10965976D01*
X-2111786Y-10956452D01*
X-2102262Y-10946929D01*
X-2083214Y-10918357D01*
X-2073690Y-10880262D01*
X-2073690Y-10804071D01*
X-2083214Y-10785024D01*
X-2092738Y-10775500D01*
X-2111786Y-10765976D01*
X-2149881Y-10765976D01*
X-2168929Y-10775500D01*
X-2178452Y-10785024D01*
X-2187976Y-10804071D01*
X-2187976Y-10851690D01*
X-2178452Y-10870738D01*
X-2168929Y-10880262D01*
X-2149881Y-10889786D01*
X-2111786Y-10889786D01*
X-2092738Y-10880262D01*
X-2083214Y-10870738D01*
X-2073690Y-10851690D01*
X-1902262Y-10832643D02*
X-1902262Y-10965976D01*
X-1949881Y-10756452D02*
X-1997500Y-10899310D01*
X-1873690Y-10899310D01*
X-1807024Y-10765976D02*
X-1807024Y-10804071D01*
X-1730833Y-10765976D02*
X-1730833Y-10804071D01*
X-1435595Y-11042167D02*
X-1445119Y-11032643D01*
X-1464167Y-11004071D01*
X-1473690Y-10985024D01*
X-1483214Y-10956452D01*
X-1492738Y-10908833D01*
X-1492738Y-10870738D01*
X-1483214Y-10823119D01*
X-1473690Y-10794548D01*
X-1464167Y-10775500D01*
X-1445119Y-10746929D01*
X-1435595Y-10737405D01*
X-1254643Y-10965976D02*
X-1368929Y-10965976D01*
X-1311786Y-10965976D02*
X-1311786Y-10765976D01*
X-1330833Y-10794548D01*
X-1349881Y-10813595D01*
X-1368929Y-10823119D01*
X-1159405Y-10965976D02*
X-1121310Y-10965976D01*
X-1102262Y-10956452D01*
X-1092738Y-10946929D01*
X-1073690Y-10918357D01*
X-1064167Y-10880262D01*
X-1064167Y-10804071D01*
X-1073690Y-10785024D01*
X-1083214Y-10775500D01*
X-1102262Y-10765976D01*
X-1140357Y-10765976D01*
X-1159405Y-10775500D01*
X-1168929Y-10785024D01*
X-1178452Y-10804071D01*
X-1178452Y-10851690D01*
X-1168929Y-10870738D01*
X-1159405Y-10880262D01*
X-1140357Y-10889786D01*
X-1102262Y-10889786D01*
X-1083214Y-10880262D01*
X-1073690Y-10870738D01*
X-1064167Y-10851690D01*
X-940357Y-10765976D02*
X-921309Y-10765976D01*
X-902262Y-10775500D01*
X-892738Y-10785024D01*
X-883214Y-10804071D01*
X-873690Y-10842167D01*
X-873690Y-10889786D01*
X-883214Y-10927881D01*
X-892738Y-10946929D01*
X-902262Y-10956452D01*
X-921309Y-10965976D01*
X-940357Y-10965976D01*
X-959405Y-10956452D01*
X-968928Y-10946929D01*
X-978452Y-10927881D01*
X-987976Y-10889786D01*
X-987976Y-10842167D01*
X-978452Y-10804071D01*
X-968928Y-10785024D01*
X-959405Y-10775500D01*
X-940357Y-10765976D01*
X-635595Y-10965976D02*
X-635595Y-10765976D01*
X-549881Y-10965976D02*
X-549881Y-10861214D01*
X-559405Y-10842167D01*
X-578452Y-10832643D01*
X-607024Y-10832643D01*
X-626071Y-10842167D01*
X-635595Y-10851690D01*
X-426071Y-10965976D02*
X-445119Y-10956452D01*
X-454643Y-10946929D01*
X-464167Y-10927881D01*
X-464167Y-10870738D01*
X-454643Y-10851690D01*
X-445119Y-10842167D01*
X-426071Y-10832643D01*
X-397500Y-10832643D01*
X-378452Y-10842167D01*
X-368928Y-10851690D01*
X-359405Y-10870738D01*
X-359405Y-10927881D01*
X-368928Y-10946929D01*
X-378452Y-10956452D01*
X-397500Y-10965976D01*
X-426071Y-10965976D01*
X-245119Y-10965976D02*
X-264167Y-10956452D01*
X-273690Y-10937405D01*
X-273690Y-10765976D01*
X-92738Y-10956452D02*
X-111786Y-10965976D01*
X-149881Y-10965976D01*
X-168929Y-10956452D01*
X-178452Y-10937405D01*
X-178452Y-10861214D01*
X-168929Y-10842167D01*
X-149881Y-10832643D01*
X-111786Y-10832643D01*
X-92738Y-10842167D01*
X-83214Y-10861214D01*
X-83214Y-10880262D01*
X-178452Y-10899310D01*
X-7024Y-10956452D02*
X12024Y-10965976D01*
X50119Y-10965976D01*
X69167Y-10956452D01*
X78690Y-10937405D01*
X78690Y-10927881D01*
X69167Y-10908833D01*
X50119Y-10899310D01*
X21548Y-10899310D01*
X2500Y-10889786D01*
X-7024Y-10870738D01*
X-7024Y-10861214D01*
X2500Y-10842167D01*
X21548Y-10832643D01*
X50119Y-10832643D01*
X69167Y-10842167D01*
X145357Y-11042167D02*
X154881Y-11032643D01*
X173929Y-11004071D01*
X183452Y-10985024D01*
X192976Y-10956452D01*
X202500Y-10908833D01*
X202500Y-10870738D01*
X192976Y-10823119D01*
X183452Y-10794548D01*
X173929Y-10775500D01*
X154881Y-10746929D01*
X145357Y-10737405D01*
D16*
X-5032395Y-11199605D02*
X-5032395Y-11079395D01*
X-5152605Y-11079395D01*
X-5152605Y-11199605D01*
X-5032395Y-11199605D01*
D12*
X-4645119Y-11229976D02*
X-4759405Y-11229976D01*
X-4702262Y-11229976D02*
X-4702262Y-11029976D01*
X-4721310Y-11058548D01*
X-4740357Y-11077595D01*
X-4759405Y-11087119D01*
X-4559405Y-11210928D02*
X-4549881Y-11220452D01*
X-4559405Y-11229976D01*
X-4568929Y-11220452D01*
X-4559405Y-11210928D01*
X-4559405Y-11229976D01*
X-4483214Y-11029976D02*
X-4349881Y-11029976D01*
X-4435595Y-11229976D01*
X-4235595Y-11029976D02*
X-4216548Y-11029976D01*
X-4197500Y-11039500D01*
X-4187976Y-11049024D01*
X-4178452Y-11068071D01*
X-4168928Y-11106167D01*
X-4168928Y-11153786D01*
X-4178452Y-11191881D01*
X-4187976Y-11210928D01*
X-4197500Y-11220452D01*
X-4216548Y-11229976D01*
X-4235595Y-11229976D01*
X-4254643Y-11220452D01*
X-4264167Y-11210928D01*
X-4273690Y-11191881D01*
X-4283214Y-11153786D01*
X-4283214Y-11106167D01*
X-4273690Y-11068071D01*
X-4264167Y-11049024D01*
X-4254643Y-11039500D01*
X-4235595Y-11029976D01*
X-4045119Y-11029976D02*
X-4026071Y-11029976D01*
X-4007024Y-11039500D01*
X-3997500Y-11049024D01*
X-3987976Y-11068071D01*
X-3978452Y-11106167D01*
X-3978452Y-11153786D01*
X-3987976Y-11191881D01*
X-3997500Y-11210928D01*
X-4007024Y-11220452D01*
X-4026071Y-11229976D01*
X-4045119Y-11229976D01*
X-4064167Y-11220452D01*
X-4073690Y-11210928D01*
X-4083214Y-11191881D01*
X-4092738Y-11153786D01*
X-4092738Y-11106167D01*
X-4083214Y-11068071D01*
X-4073690Y-11049024D01*
X-4064167Y-11039500D01*
X-4045119Y-11029976D01*
X-3892738Y-11229976D02*
X-3892738Y-11096643D01*
X-3892738Y-11115690D02*
X-3883214Y-11106167D01*
X-3864167Y-11096643D01*
X-3835595Y-11096643D01*
X-3816548Y-11106167D01*
X-3807024Y-11125214D01*
X-3807024Y-11229976D01*
X-3807024Y-11125214D02*
X-3797500Y-11106167D01*
X-3778452Y-11096643D01*
X-3749881Y-11096643D01*
X-3730833Y-11106167D01*
X-3721309Y-11125214D01*
X-3721309Y-11229976D01*
X-3626071Y-11229976D02*
X-3626071Y-11096643D01*
X-3626071Y-11115690D02*
X-3616548Y-11106167D01*
X-3597500Y-11096643D01*
X-3568928Y-11096643D01*
X-3549881Y-11106167D01*
X-3540357Y-11125214D01*
X-3540357Y-11229976D01*
X-3540357Y-11125214D02*
X-3530833Y-11106167D01*
X-3511786Y-11096643D01*
X-3483214Y-11096643D01*
X-3464167Y-11106167D01*
X-3454643Y-11125214D01*
X-3454643Y-11229976D01*
X-3064167Y-11020452D02*
X-3235595Y-11277595D01*
X-2807024Y-11029976D02*
X-2787976Y-11029976D01*
X-2768929Y-11039500D01*
X-2759405Y-11049024D01*
X-2749881Y-11068071D01*
X-2740357Y-11106167D01*
X-2740357Y-11153786D01*
X-2749881Y-11191881D01*
X-2759405Y-11210928D01*
X-2768929Y-11220452D01*
X-2787976Y-11229976D01*
X-2807024Y-11229976D01*
X-2826071Y-11220452D01*
X-2835595Y-11210928D01*
X-2845119Y-11191881D01*
X-2854643Y-11153786D01*
X-2854643Y-11106167D01*
X-2845119Y-11068071D01*
X-2835595Y-11049024D01*
X-2826071Y-11039500D01*
X-2807024Y-11029976D01*
X-2654643Y-11210928D02*
X-2645119Y-11220452D01*
X-2654643Y-11229976D01*
X-2664167Y-11220452D01*
X-2654643Y-11210928D01*
X-2654643Y-11229976D01*
X-2521310Y-11029976D02*
X-2502262Y-11029976D01*
X-2483214Y-11039500D01*
X-2473690Y-11049024D01*
X-2464167Y-11068071D01*
X-2454643Y-11106167D01*
X-2454643Y-11153786D01*
X-2464167Y-11191881D01*
X-2473690Y-11210928D01*
X-2483214Y-11220452D01*
X-2502262Y-11229976D01*
X-2521310Y-11229976D01*
X-2540357Y-11220452D01*
X-2549881Y-11210928D01*
X-2559405Y-11191881D01*
X-2568929Y-11153786D01*
X-2568929Y-11106167D01*
X-2559405Y-11068071D01*
X-2549881Y-11049024D01*
X-2540357Y-11039500D01*
X-2521310Y-11029976D01*
X-2283214Y-11029976D02*
X-2321310Y-11029976D01*
X-2340357Y-11039500D01*
X-2349881Y-11049024D01*
X-2368929Y-11077595D01*
X-2378452Y-11115690D01*
X-2378452Y-11191881D01*
X-2368929Y-11210928D01*
X-2359405Y-11220452D01*
X-2340357Y-11229976D01*
X-2302262Y-11229976D01*
X-2283214Y-11220452D01*
X-2273690Y-11210928D01*
X-2264167Y-11191881D01*
X-2264167Y-11144262D01*
X-2273690Y-11125214D01*
X-2283214Y-11115690D01*
X-2302262Y-11106167D01*
X-2340357Y-11106167D01*
X-2359405Y-11115690D01*
X-2368929Y-11125214D01*
X-2378452Y-11144262D01*
X-2092738Y-11029976D02*
X-2130833Y-11029976D01*
X-2149881Y-11039500D01*
X-2159405Y-11049024D01*
X-2178452Y-11077595D01*
X-2187976Y-11115690D01*
X-2187976Y-11191881D01*
X-2178452Y-11210928D01*
X-2168929Y-11220452D01*
X-2149881Y-11229976D01*
X-2111786Y-11229976D01*
X-2092738Y-11220452D01*
X-2083214Y-11210928D01*
X-2073690Y-11191881D01*
X-2073690Y-11144262D01*
X-2083214Y-11125214D01*
X-2092738Y-11115690D01*
X-2111786Y-11106167D01*
X-2149881Y-11106167D01*
X-2168929Y-11115690D01*
X-2178452Y-11125214D01*
X-2187976Y-11144262D01*
X-1978452Y-11229976D02*
X-1940357Y-11229976D01*
X-1921309Y-11220452D01*
X-1911786Y-11210928D01*
X-1892738Y-11182357D01*
X-1883214Y-11144262D01*
X-1883214Y-11068071D01*
X-1892738Y-11049024D01*
X-1902262Y-11039500D01*
X-1921309Y-11029976D01*
X-1959405Y-11029976D01*
X-1978452Y-11039500D01*
X-1987976Y-11049024D01*
X-1997500Y-11068071D01*
X-1997500Y-11115690D01*
X-1987976Y-11134738D01*
X-1978452Y-11144262D01*
X-1959405Y-11153786D01*
X-1921309Y-11153786D01*
X-1902262Y-11144262D01*
X-1892738Y-11134738D01*
X-1883214Y-11115690D01*
X-1807024Y-11029976D02*
X-1807024Y-11068071D01*
X-1730833Y-11029976D02*
X-1730833Y-11068071D01*
X-1435595Y-11306167D02*
X-1445119Y-11296643D01*
X-1464167Y-11268071D01*
X-1473690Y-11249024D01*
X-1483214Y-11220452D01*
X-1492738Y-11172833D01*
X-1492738Y-11134738D01*
X-1483214Y-11087119D01*
X-1473690Y-11058548D01*
X-1464167Y-11039500D01*
X-1445119Y-11010929D01*
X-1435595Y-11001405D01*
X-1368929Y-11049024D02*
X-1359405Y-11039500D01*
X-1340357Y-11029976D01*
X-1292738Y-11029976D01*
X-1273690Y-11039500D01*
X-1264167Y-11049024D01*
X-1254643Y-11068071D01*
X-1254643Y-11087119D01*
X-1264167Y-11115690D01*
X-1378452Y-11229976D01*
X-1254643Y-11229976D01*
X-1016548Y-11229976D02*
X-1016548Y-11029976D01*
X-930833Y-11229976D02*
X-930833Y-11125214D01*
X-940357Y-11106167D01*
X-959405Y-11096643D01*
X-987976Y-11096643D01*
X-1007024Y-11106167D01*
X-1016548Y-11115690D01*
X-807024Y-11229976D02*
X-826071Y-11220452D01*
X-835595Y-11210928D01*
X-845119Y-11191881D01*
X-845119Y-11134738D01*
X-835595Y-11115690D01*
X-826071Y-11106167D01*
X-807024Y-11096643D01*
X-778452Y-11096643D01*
X-759405Y-11106167D01*
X-749881Y-11115690D01*
X-740357Y-11134738D01*
X-740357Y-11191881D01*
X-749881Y-11210928D01*
X-759405Y-11220452D01*
X-778452Y-11229976D01*
X-807024Y-11229976D01*
X-626071Y-11229976D02*
X-645119Y-11220452D01*
X-654643Y-11201405D01*
X-654643Y-11029976D01*
X-473690Y-11220452D02*
X-492738Y-11229976D01*
X-530833Y-11229976D01*
X-549881Y-11220452D01*
X-559405Y-11201405D01*
X-559405Y-11125214D01*
X-549881Y-11106167D01*
X-530833Y-11096643D01*
X-492738Y-11096643D01*
X-473690Y-11106167D01*
X-464167Y-11125214D01*
X-464167Y-11144262D01*
X-559405Y-11163310D01*
X-387976Y-11220452D02*
X-368928Y-11229976D01*
X-330833Y-11229976D01*
X-311786Y-11220452D01*
X-302262Y-11201405D01*
X-302262Y-11191881D01*
X-311786Y-11172833D01*
X-330833Y-11163310D01*
X-359405Y-11163310D01*
X-378452Y-11153786D01*
X-387976Y-11134738D01*
X-387976Y-11125214D01*
X-378452Y-11106167D01*
X-359405Y-11096643D01*
X-330833Y-11096643D01*
X-311786Y-11106167D01*
X-235595Y-11306167D02*
X-226071Y-11296643D01*
X-207024Y-11268071D01*
X-197500Y-11249024D01*
X-187976Y-11220452D01*
X-178452Y-11172833D01*
X-178452Y-11134738D01*
X-187976Y-11087119D01*
X-197500Y-11058548D01*
X-207024Y-11039500D01*
X-226071Y-11010929D01*
X-235595Y-11001405D01*
X-5107500Y-11529500D02*
X-5007500Y-11429500D01*
X-5107500Y-11329500D01*
X-5207500Y-11429500D01*
X-5107500Y-11529500D01*
X-4759405Y-11339024D02*
X-4749881Y-11329500D01*
X-4730833Y-11319976D01*
X-4683214Y-11319976D01*
X-4664167Y-11329500D01*
X-4654643Y-11339024D01*
X-4645119Y-11358071D01*
X-4645119Y-11377119D01*
X-4654643Y-11405690D01*
X-4768929Y-11519976D01*
X-4645119Y-11519976D01*
X-4559405Y-11500928D02*
X-4549881Y-11510452D01*
X-4559405Y-11519976D01*
X-4568929Y-11510452D01*
X-4559405Y-11500928D01*
X-4559405Y-11519976D01*
X-4426071Y-11319976D02*
X-4407024Y-11319976D01*
X-4387976Y-11329500D01*
X-4378452Y-11339024D01*
X-4368929Y-11358071D01*
X-4359405Y-11396167D01*
X-4359405Y-11443786D01*
X-4368929Y-11481881D01*
X-4378452Y-11500928D01*
X-4387976Y-11510452D01*
X-4407024Y-11519976D01*
X-4426071Y-11519976D01*
X-4445119Y-11510452D01*
X-4454643Y-11500928D01*
X-4464167Y-11481881D01*
X-4473690Y-11443786D01*
X-4473690Y-11396167D01*
X-4464167Y-11358071D01*
X-4454643Y-11339024D01*
X-4445119Y-11329500D01*
X-4426071Y-11319976D01*
X-4235595Y-11319976D02*
X-4216548Y-11319976D01*
X-4197500Y-11329500D01*
X-4187976Y-11339024D01*
X-4178452Y-11358071D01*
X-4168928Y-11396167D01*
X-4168928Y-11443786D01*
X-4178452Y-11481881D01*
X-4187976Y-11500928D01*
X-4197500Y-11510452D01*
X-4216548Y-11519976D01*
X-4235595Y-11519976D01*
X-4254643Y-11510452D01*
X-4264167Y-11500928D01*
X-4273690Y-11481881D01*
X-4283214Y-11443786D01*
X-4283214Y-11396167D01*
X-4273690Y-11358071D01*
X-4264167Y-11339024D01*
X-4254643Y-11329500D01*
X-4235595Y-11319976D01*
X-4045119Y-11319976D02*
X-4026071Y-11319976D01*
X-4007024Y-11329500D01*
X-3997500Y-11339024D01*
X-3987976Y-11358071D01*
X-3978452Y-11396167D01*
X-3978452Y-11443786D01*
X-3987976Y-11481881D01*
X-3997500Y-11500928D01*
X-4007024Y-11510452D01*
X-4026071Y-11519976D01*
X-4045119Y-11519976D01*
X-4064167Y-11510452D01*
X-4073690Y-11500928D01*
X-4083214Y-11481881D01*
X-4092738Y-11443786D01*
X-4092738Y-11396167D01*
X-4083214Y-11358071D01*
X-4073690Y-11339024D01*
X-4064167Y-11329500D01*
X-4045119Y-11319976D01*
X-3892738Y-11519976D02*
X-3892738Y-11386643D01*
X-3892738Y-11405690D02*
X-3883214Y-11396167D01*
X-3864167Y-11386643D01*
X-3835595Y-11386643D01*
X-3816548Y-11396167D01*
X-3807024Y-11415214D01*
X-3807024Y-11519976D01*
X-3807024Y-11415214D02*
X-3797500Y-11396167D01*
X-3778452Y-11386643D01*
X-3749881Y-11386643D01*
X-3730833Y-11396167D01*
X-3721309Y-11415214D01*
X-3721309Y-11519976D01*
X-3626071Y-11519976D02*
X-3626071Y-11386643D01*
X-3626071Y-11405690D02*
X-3616548Y-11396167D01*
X-3597500Y-11386643D01*
X-3568928Y-11386643D01*
X-3549881Y-11396167D01*
X-3540357Y-11415214D01*
X-3540357Y-11519976D01*
X-3540357Y-11415214D02*
X-3530833Y-11396167D01*
X-3511786Y-11386643D01*
X-3483214Y-11386643D01*
X-3464167Y-11396167D01*
X-3454643Y-11415214D01*
X-3454643Y-11519976D01*
X-3064167Y-11310452D02*
X-3235595Y-11567595D01*
X-2807024Y-11319976D02*
X-2787976Y-11319976D01*
X-2768929Y-11329500D01*
X-2759405Y-11339024D01*
X-2749881Y-11358071D01*
X-2740357Y-11396167D01*
X-2740357Y-11443786D01*
X-2749881Y-11481881D01*
X-2759405Y-11500928D01*
X-2768929Y-11510452D01*
X-2787976Y-11519976D01*
X-2807024Y-11519976D01*
X-2826071Y-11510452D01*
X-2835595Y-11500928D01*
X-2845119Y-11481881D01*
X-2854643Y-11443786D01*
X-2854643Y-11396167D01*
X-2845119Y-11358071D01*
X-2835595Y-11339024D01*
X-2826071Y-11329500D01*
X-2807024Y-11319976D01*
X-2654643Y-11500928D02*
X-2645119Y-11510452D01*
X-2654643Y-11519976D01*
X-2664167Y-11510452D01*
X-2654643Y-11500928D01*
X-2654643Y-11519976D01*
X-2521310Y-11319976D02*
X-2502262Y-11319976D01*
X-2483214Y-11329500D01*
X-2473690Y-11339024D01*
X-2464167Y-11358071D01*
X-2454643Y-11396167D01*
X-2454643Y-11443786D01*
X-2464167Y-11481881D01*
X-2473690Y-11500928D01*
X-2483214Y-11510452D01*
X-2502262Y-11519976D01*
X-2521310Y-11519976D01*
X-2540357Y-11510452D01*
X-2549881Y-11500928D01*
X-2559405Y-11481881D01*
X-2568929Y-11443786D01*
X-2568929Y-11396167D01*
X-2559405Y-11358071D01*
X-2549881Y-11339024D01*
X-2540357Y-11329500D01*
X-2521310Y-11319976D01*
X-2387976Y-11319976D02*
X-2254643Y-11319976D01*
X-2340357Y-11519976D01*
X-2149881Y-11405690D02*
X-2168929Y-11396167D01*
X-2178452Y-11386643D01*
X-2187976Y-11367595D01*
X-2187976Y-11358071D01*
X-2178452Y-11339024D01*
X-2168929Y-11329500D01*
X-2149881Y-11319976D01*
X-2111786Y-11319976D01*
X-2092738Y-11329500D01*
X-2083214Y-11339024D01*
X-2073690Y-11358071D01*
X-2073690Y-11367595D01*
X-2083214Y-11386643D01*
X-2092738Y-11396167D01*
X-2111786Y-11405690D01*
X-2149881Y-11405690D01*
X-2168929Y-11415214D01*
X-2178452Y-11424738D01*
X-2187976Y-11443786D01*
X-2187976Y-11481881D01*
X-2178452Y-11500928D01*
X-2168929Y-11510452D01*
X-2149881Y-11519976D01*
X-2111786Y-11519976D01*
X-2092738Y-11510452D01*
X-2083214Y-11500928D01*
X-2073690Y-11481881D01*
X-2073690Y-11443786D01*
X-2083214Y-11424738D01*
X-2092738Y-11415214D01*
X-2111786Y-11405690D01*
X-2007024Y-11319976D02*
X-1873690Y-11319976D01*
X-1959405Y-11519976D01*
X-1807024Y-11319976D02*
X-1807024Y-11358071D01*
X-1730833Y-11319976D02*
X-1730833Y-11358071D01*
X-1435595Y-11596167D02*
X-1445119Y-11586643D01*
X-1464167Y-11558071D01*
X-1473690Y-11539024D01*
X-1483214Y-11510452D01*
X-1492738Y-11462833D01*
X-1492738Y-11424738D01*
X-1483214Y-11377119D01*
X-1473690Y-11348548D01*
X-1464167Y-11329500D01*
X-1445119Y-11300928D01*
X-1435595Y-11291405D01*
X-1368929Y-11339024D02*
X-1359405Y-11329500D01*
X-1340357Y-11319976D01*
X-1292738Y-11319976D01*
X-1273690Y-11329500D01*
X-1264167Y-11339024D01*
X-1254643Y-11358071D01*
X-1254643Y-11377119D01*
X-1264167Y-11405690D01*
X-1378452Y-11519976D01*
X-1254643Y-11519976D01*
X-1016548Y-11519976D02*
X-1016548Y-11319976D01*
X-930833Y-11519976D02*
X-930833Y-11415214D01*
X-940357Y-11396167D01*
X-959405Y-11386643D01*
X-987976Y-11386643D01*
X-1007024Y-11396167D01*
X-1016548Y-11405690D01*
X-807024Y-11519976D02*
X-826071Y-11510452D01*
X-835595Y-11500928D01*
X-845119Y-11481881D01*
X-845119Y-11424738D01*
X-835595Y-11405690D01*
X-826071Y-11396167D01*
X-807024Y-11386643D01*
X-778452Y-11386643D01*
X-759405Y-11396167D01*
X-749881Y-11405690D01*
X-740357Y-11424738D01*
X-740357Y-11481881D01*
X-749881Y-11500928D01*
X-759405Y-11510452D01*
X-778452Y-11519976D01*
X-807024Y-11519976D01*
X-626071Y-11519976D02*
X-645119Y-11510452D01*
X-654643Y-11491405D01*
X-654643Y-11319976D01*
X-473690Y-11510452D02*
X-492738Y-11519976D01*
X-530833Y-11519976D01*
X-549881Y-11510452D01*
X-559405Y-11491405D01*
X-559405Y-11415214D01*
X-549881Y-11396167D01*
X-530833Y-11386643D01*
X-492738Y-11386643D01*
X-473690Y-11396167D01*
X-464167Y-11415214D01*
X-464167Y-11434262D01*
X-559405Y-11453309D01*
X-387976Y-11510452D02*
X-368928Y-11519976D01*
X-330833Y-11519976D01*
X-311786Y-11510452D01*
X-302262Y-11491405D01*
X-302262Y-11481881D01*
X-311786Y-11462833D01*
X-330833Y-11453309D01*
X-359405Y-11453309D01*
X-378452Y-11443786D01*
X-387976Y-11424738D01*
X-387976Y-11415214D01*
X-378452Y-11396167D01*
X-359405Y-11386643D01*
X-330833Y-11386643D01*
X-311786Y-11396167D01*
X-235595Y-11596167D02*
X-226071Y-11586643D01*
X-207024Y-11558071D01*
X-197500Y-11539024D01*
X-187976Y-11510452D01*
X-178452Y-11462833D01*
X-178452Y-11424738D01*
X-187976Y-11377119D01*
X-197500Y-11348548D01*
X-207024Y-11329500D01*
X-226071Y-11300928D01*
X-235595Y-11291405D01*
M02*
