G04 #@! TF.GenerationSoftware,KiCad,Pcbnew,6.0.1-79c1e3a40b~116~ubuntu20.04.1*
G04 #@! TF.CreationDate,2022-02-03T13:14:22-05:00*
G04 #@! TF.ProjectId,d-lev_main,642d6c65-765f-46d6-9169-6e2e6b696361,rev?*
G04 #@! TF.SameCoordinates,Original*
G04 #@! TF.FileFunction,Legend,Bot*
G04 #@! TF.FilePolarity,Positive*
%FSLAX46Y46*%
G04 Gerber Fmt 4.6, Leading zero omitted, Abs format (unit mm)*
G04 Created by KiCad (PCBNEW 6.0.1-79c1e3a40b~116~ubuntu20.04.1) date 2022-02-03 13:14:22*
%MOMM*%
%LPD*%
G01*
G04 APERTURE LIST*
G04 Aperture macros list*
%AMRoundRect*
0 Rectangle with rounded corners*
0 $1 Rounding radius*
0 $2 $3 $4 $5 $6 $7 $8 $9 X,Y pos of 4 corners*
0 Add a 4 corners polygon primitive as box body*
4,1,4,$2,$3,$4,$5,$6,$7,$8,$9,$2,$3,0*
0 Add four circle primitives for the rounded corners*
1,1,$1+$1,$2,$3*
1,1,$1+$1,$4,$5*
1,1,$1+$1,$6,$7*
1,1,$1+$1,$8,$9*
0 Add four rect primitives between the rounded corners*
20,1,$1+$1,$2,$3,$4,$5,0*
20,1,$1+$1,$4,$5,$6,$7,0*
20,1,$1+$1,$6,$7,$8,$9,0*
20,1,$1+$1,$8,$9,$2,$3,0*%
G04 Aperture macros list end*
%ADD10C,0.150000*%
%ADD11C,0.120000*%
%ADD12C,1.600000*%
%ADD13C,3.200000*%
%ADD14R,1.700000X1.700000*%
%ADD15O,1.700000X1.700000*%
%ADD16RoundRect,0.250000X0.600000X0.600000X-0.600000X0.600000X-0.600000X-0.600000X0.600000X-0.600000X0*%
%ADD17C,1.700000*%
%ADD18RoundRect,0.250000X-0.600000X-0.600000X0.600000X-0.600000X0.600000X0.600000X-0.600000X0.600000X0*%
%ADD19RoundRect,0.250000X0.600000X-0.600000X0.600000X0.600000X-0.600000X0.600000X-0.600000X-0.600000X0*%
%ADD20O,1.600000X1.600000*%
%ADD21R,1.550000X1.550000*%
%ADD22C,1.550000*%
%ADD23R,1.600000X1.600000*%
%ADD24R,1.500000X1.500000*%
%ADD25C,1.500000*%
%ADD26RoundRect,0.249640X1.330360X-1.330360X1.330360X1.330360X-1.330360X1.330360X-1.330360X-1.330360X0*%
%ADD27C,3.160000*%
%ADD28C,3.000000*%
G04 APERTURE END LIST*
D10*
X42103333Y547619D02*
X42103333Y-166666D01*
X42150952Y-309523D01*
X42246190Y-404761D01*
X42389047Y-452380D01*
X42484285Y-452380D01*
X41722380Y547619D02*
X41103333Y547619D01*
X41436666Y166666D01*
X41293809Y166666D01*
X41198571Y119047D01*
X41150952Y71428D01*
X41103333Y-23809D01*
X41103333Y-261904D01*
X41150952Y-357142D01*
X41198571Y-404761D01*
X41293809Y-452380D01*
X41579523Y-452380D01*
X41674761Y-404761D01*
X41722380Y-357142D01*
D11*
X-430000Y-1330000D02*
X-430000Y1330000D01*
X37730000Y1330000D02*
X-430000Y1330000D01*
X37730000Y-1330000D02*
X-430000Y-1330000D01*
X40330000Y0D02*
X40330000Y1330000D01*
X37730000Y-1330000D02*
X37730000Y1330000D01*
X40330000Y1330000D02*
X39000000Y1330000D01*
%LPC*%
D12*
X11430000Y-8255000D03*
X8930000Y-8255000D03*
D13*
X-46500000Y0D03*
X46500000Y0D03*
X-46500000Y-55000000D03*
X46500000Y-55000000D03*
X-46500000Y-94000000D03*
X46500000Y-94000000D03*
D14*
X-20340000Y-11430000D03*
D15*
X-22880000Y-11430000D03*
X-20340000Y-13970000D03*
X-22880000Y-13970000D03*
X-20340000Y-16510000D03*
X-22880000Y-16510000D03*
X-20340000Y-19050000D03*
X-22880000Y-19050000D03*
X-20340000Y-21590000D03*
X-22880000Y-21590000D03*
X-20340000Y-24130000D03*
X-22880000Y-24130000D03*
X-20340000Y-26670000D03*
X-22880000Y-26670000D03*
X-20340000Y-29210000D03*
X-22880000Y-29210000D03*
X-20340000Y-31750000D03*
X-22880000Y-31750000D03*
X-20340000Y-34290000D03*
X-22880000Y-34290000D03*
X-20340000Y-36830000D03*
X-22880000Y-36830000D03*
X-20340000Y-39370000D03*
X-22880000Y-39370000D03*
X-20340000Y-41910000D03*
X-22880000Y-41910000D03*
X-20340000Y-44450000D03*
X-22880000Y-44450000D03*
X-20340000Y-46990000D03*
X-22880000Y-46990000D03*
X-20340000Y-49530000D03*
X-22880000Y-49530000D03*
X-20340000Y-52070000D03*
X-22880000Y-52070000D03*
X-20340000Y-54610000D03*
X-22880000Y-54610000D03*
X-20340000Y-57150000D03*
X-22880000Y-57150000D03*
X-20340000Y-59690000D03*
X-22880000Y-59690000D03*
X-20340000Y-62230000D03*
X-22880000Y-62230000D03*
X-20340000Y-64770000D03*
X-22880000Y-64770000D03*
D14*
X22860000Y-11430000D03*
D15*
X20320000Y-11430000D03*
X22860000Y-13970000D03*
X20320000Y-13970000D03*
X22860000Y-16510000D03*
X20320000Y-16510000D03*
X22860000Y-19050000D03*
X20320000Y-19050000D03*
X22860000Y-21590000D03*
X20320000Y-21590000D03*
X22860000Y-24130000D03*
X20320000Y-24130000D03*
X22860000Y-26670000D03*
X20320000Y-26670000D03*
X22860000Y-29210000D03*
X20320000Y-29210000D03*
X22860000Y-31750000D03*
X20320000Y-31750000D03*
X22860000Y-34290000D03*
X20320000Y-34290000D03*
X22860000Y-36830000D03*
X20320000Y-36830000D03*
X22860000Y-39370000D03*
X20320000Y-39370000D03*
X22860000Y-41910000D03*
X20320000Y-41910000D03*
X22860000Y-44450000D03*
X20320000Y-44450000D03*
X22860000Y-46990000D03*
X20320000Y-46990000D03*
X22860000Y-49530000D03*
X20320000Y-49530000D03*
X22860000Y-52070000D03*
X20320000Y-52070000D03*
X22860000Y-54610000D03*
X20320000Y-54610000D03*
X22860000Y-57150000D03*
X20320000Y-57150000D03*
X22860000Y-59690000D03*
X20320000Y-59690000D03*
X22860000Y-62230000D03*
X20320000Y-62230000D03*
X22860000Y-64770000D03*
X20320000Y-64770000D03*
D16*
X34925000Y-26670000D03*
D17*
X32385000Y-26670000D03*
X34925000Y-24130000D03*
X32385000Y-24130000D03*
X34925000Y-21590000D03*
X32385000Y-21590000D03*
X34925000Y-19050000D03*
X32385000Y-19050000D03*
D18*
X-34925000Y-44450000D03*
D17*
X-32385000Y-44450000D03*
X-34925000Y-46990000D03*
X-32385000Y-46990000D03*
X-34925000Y-49530000D03*
X-32385000Y-49530000D03*
X-34925000Y-52070000D03*
X-32385000Y-52070000D03*
X-34925000Y-54610000D03*
X-32385000Y-54610000D03*
X-34925000Y-57150000D03*
X-32385000Y-57150000D03*
X-34925000Y-59690000D03*
X-32385000Y-59690000D03*
X-34925000Y-62230000D03*
X-32385000Y-62230000D03*
D18*
X32385000Y-44450000D03*
D17*
X34925000Y-44450000D03*
X32385000Y-46990000D03*
X34925000Y-46990000D03*
X32385000Y-49530000D03*
X34925000Y-49530000D03*
X32385000Y-52070000D03*
X34925000Y-52070000D03*
X32385000Y-54610000D03*
X34925000Y-54610000D03*
X32385000Y-57150000D03*
X34925000Y-57150000D03*
X32385000Y-59690000D03*
X34925000Y-59690000D03*
X32385000Y-62230000D03*
X34925000Y-62230000D03*
D18*
X-34925000Y-19050000D03*
D17*
X-32385000Y-19050000D03*
X-34925000Y-21590000D03*
X-32385000Y-21590000D03*
X-34925000Y-24130000D03*
X-32385000Y-24130000D03*
X-34925000Y-26670000D03*
X-32385000Y-26670000D03*
D19*
X-21590000Y-86995000D03*
D17*
X-21590000Y-84455000D03*
X-19050000Y-86995000D03*
X-19050000Y-84455000D03*
X-16510000Y-86995000D03*
X-16510000Y-84455000D03*
X-13970000Y-86995000D03*
X-13970000Y-84455000D03*
D12*
X0Y-21590000D03*
D20*
X0Y-11430000D03*
D12*
X15240000Y-21590000D03*
D20*
X15240000Y-11430000D03*
D12*
X-3175000Y-11430000D03*
D20*
X-3175000Y-21590000D03*
D21*
X36195000Y-9525000D03*
D22*
X33695000Y-4525000D03*
X31195000Y-9525000D03*
D23*
X3810000Y-11430000D03*
D20*
X3810000Y-13970000D03*
X3810000Y-16510000D03*
X3810000Y-19050000D03*
X11430000Y-19050000D03*
X11430000Y-16510000D03*
X11430000Y-13970000D03*
X11430000Y-11430000D03*
D12*
X-2540000Y-45085000D03*
X2460000Y-45085000D03*
D24*
X0Y-26035000D03*
D25*
X-2540000Y-26035000D03*
X-5080000Y-26035000D03*
D12*
X-6350000Y-43815000D03*
D20*
X-16510000Y-43815000D03*
D12*
X-6350000Y-40640000D03*
D20*
X-6350000Y-30480000D03*
D12*
X-2540000Y-30480000D03*
D20*
X-2540000Y-40640000D03*
D12*
X1270000Y-40640000D03*
D20*
X1270000Y-30480000D03*
D12*
X10160000Y-62230000D03*
X10160000Y-64730000D03*
X15875000Y-64770000D03*
X13375000Y-64770000D03*
D26*
X-39370000Y-81915000D03*
D27*
X-39370000Y-77955000D03*
D24*
X8890000Y-55880000D03*
D25*
X6350000Y-55880000D03*
X3810000Y-55880000D03*
D24*
X-4445000Y-52070000D03*
D25*
X-1905000Y-52070000D03*
X635000Y-52070000D03*
D12*
X13335000Y-78105000D03*
D20*
X13335000Y-67945000D03*
D12*
X16510000Y-78105000D03*
D20*
X16510000Y-67945000D03*
D12*
X10160000Y-78105000D03*
D20*
X10160000Y-67945000D03*
D12*
X19685000Y-78105000D03*
D20*
X19685000Y-67945000D03*
D12*
X6350000Y-32385000D03*
D20*
X16510000Y-32385000D03*
D12*
X6985000Y-78105000D03*
D20*
X6985000Y-67945000D03*
D12*
X3810000Y-78105000D03*
D20*
X3810000Y-67945000D03*
D12*
X-6350000Y-47625000D03*
D20*
X-16510000Y-47625000D03*
D12*
X635000Y-78105000D03*
D20*
X635000Y-67945000D03*
D12*
X-6985000Y-71120000D03*
D20*
X-17145000Y-71120000D03*
D12*
X22860000Y-67945000D03*
D20*
X22860000Y-78105000D03*
D12*
X-17145000Y-67945000D03*
D20*
X-6985000Y-67945000D03*
D12*
X-6985000Y-64770000D03*
D20*
X-17145000Y-64770000D03*
D14*
X16510000Y-60325000D03*
X16510000Y-56515000D03*
X-8890000Y-52070000D03*
X16510000Y-36195000D03*
X-45720000Y-27305000D03*
D12*
X42545000Y-68580000D03*
X45045000Y-68580000D03*
D14*
X-26670000Y-29210000D03*
X-45720000Y-9525000D03*
X-45720000Y-18415000D03*
D19*
X3810000Y-86995000D03*
D17*
X3810000Y-84455000D03*
X6350000Y-86995000D03*
X6350000Y-84455000D03*
X8890000Y-86995000D03*
X8890000Y-84455000D03*
X11430000Y-86995000D03*
X11430000Y-84455000D03*
X13970000Y-86995000D03*
X13970000Y-84455000D03*
X16510000Y-86995000D03*
X16510000Y-84455000D03*
X19050000Y-86995000D03*
X19050000Y-84455000D03*
X21590000Y-86995000D03*
X21590000Y-84455000D03*
D14*
X41910000Y-74295000D03*
D15*
X39370000Y-74295000D03*
X36830000Y-74295000D03*
D28*
X44570000Y-78495000D03*
X34170000Y-78495000D03*
D14*
X39000000Y0D03*
D15*
X36460000Y0D03*
X33920000Y0D03*
X31380000Y0D03*
X28840000Y0D03*
X26300000Y0D03*
X23760000Y0D03*
X21220000Y0D03*
X18680000Y0D03*
X16140000Y0D03*
X13600000Y0D03*
X11060000Y0D03*
X8520000Y0D03*
X5980000Y0D03*
X3440000Y0D03*
X900000Y0D03*
M02*
