M48
; DRILL file {KiCad 6.0.1-79c1e3a40b~116~ubuntu20.04.1} date Thu 03 Feb 2022 01:14:25 PM EST
; FORMAT={-:-/ absolute / metric / decimal}
; #@! TF.CreationDate,2022-02-03T13:14:25-05:00
; #@! TF.GenerationSoftware,Kicad,Pcbnew,6.0.1-79c1e3a40b~116~ubuntu20.04.1
; #@! TF.FileFunction,Plated,1,2,PTH
FMAT,2
METRIC
; #@! TA.AperFunction,Plated,PTH,ViaDrill
T1C0.400
; #@! TA.AperFunction,Plated,PTH,ComponentDrill
T2C0.800
; #@! TA.AperFunction,Plated,PTH,ComponentDrill
T3C1.000
; #@! TA.AperFunction,Plated,PTH,ComponentDrill
T4C1.700
; #@! TA.AperFunction,Plated,PTH,ComponentDrill
T5C2.000
%
G90
G05
T1
X-20.955Y-76.835
X-18.415Y-78.105
X-15.875Y-79.375
X-15.24Y-32.385
X-15.24Y-34.925
X-15.24Y-2.54
X-15.24Y-40.005
X-15.24Y-29.845
X-14.605Y-60.325
X-14.605Y-75.565
X-13.97Y-3.175
X-13.97Y-25.4
X-13.335Y-58.42
X-13.335Y-76.835
X-13.335Y-80.645
X-12.7Y-3.81
X-12.065Y-56.515
X-12.065Y-78.105
X-11.43Y-4.445
X-11.43Y-20.32
X-10.795Y-54.61
X-10.795Y-79.375
X-10.16Y-5.08
X-8.89Y-5.715
X-7.62Y-7.62
X-5.715Y-8.89
X-5.715Y-15.875
X-1.905Y-76.2
X-1.27Y-6.985
X-1.27Y-85.09
X1.905Y-6.985
X7.62Y-24.765
X8.89Y-19.05
X14.605Y-52.07
X14.605Y-46.99
X14.605Y-49.53
X14.605Y-54.61
X24.765Y-85.09
X26.035Y-71.12
X26.035Y-88.265
X27.305Y-73.025
X27.305Y-89.535
X28.575Y-78.105
X32.385Y-68.58
T2
X-17.145Y-64.77
X-17.145Y-67.945
X-17.145Y-71.12
X-16.51Y-43.815
X-16.51Y-47.625
X-6.985Y-64.77
X-6.985Y-67.945
X-6.985Y-71.12
X-6.35Y-30.48
X-6.35Y-40.64
X-6.35Y-43.815
X-6.35Y-47.625
X-5.08Y-26.035
X-4.445Y-52.07
X-3.175Y-11.43
X-3.175Y-21.59
X-2.54Y-26.035
X-2.54Y-30.48
X-2.54Y-40.64
X-2.54Y-45.085
X-1.905Y-52.07
X0.0Y-11.43
X0.0Y-21.59
X0.0Y-26.035
X0.635Y-52.07
X0.635Y-67.945
X0.635Y-78.105
X1.27Y-30.48
X1.27Y-40.64
X2.46Y-45.085
X3.81Y-11.43
X3.81Y-13.97
X3.81Y-16.51
X3.81Y-19.05
X3.81Y-55.88
X3.81Y-67.945
X3.81Y-78.105
X6.35Y-32.385
X6.35Y-55.88
X6.985Y-67.945
X6.985Y-78.105
X8.89Y-55.88
X8.93Y-8.255
X10.16Y-62.23
X10.16Y-64.73
X10.16Y-67.945
X10.16Y-78.105
X11.43Y-8.255
X11.43Y-11.43
X11.43Y-13.97
X11.43Y-16.51
X11.43Y-19.05
X13.335Y-67.945
X13.335Y-78.105
X13.375Y-64.77
X15.24Y-11.43
X15.24Y-21.59
X15.875Y-64.77
X16.51Y-32.385
X16.51Y-67.945
X16.51Y-78.105
X19.685Y-67.945
X19.685Y-78.105
X22.86Y-67.945
X22.86Y-78.105
X42.545Y-68.58
X45.045Y-68.58
T3
X-45.72Y-9.525
X-45.72Y-18.415
X-45.72Y-27.305
X-34.925Y-19.05
X-34.925Y-21.59
X-34.925Y-24.13
X-34.925Y-26.67
X-34.925Y-44.45
X-34.925Y-46.99
X-34.925Y-49.53
X-34.925Y-52.07
X-34.925Y-54.61
X-34.925Y-57.15
X-34.925Y-59.69
X-34.925Y-62.23
X-32.385Y-19.05
X-32.385Y-21.59
X-32.385Y-24.13
X-32.385Y-26.67
X-32.385Y-44.45
X-32.385Y-46.99
X-32.385Y-49.53
X-32.385Y-52.07
X-32.385Y-54.61
X-32.385Y-57.15
X-32.385Y-59.69
X-32.385Y-62.23
X-26.67Y-29.21
X-22.88Y-11.43
X-22.88Y-13.97
X-22.88Y-16.51
X-22.88Y-19.05
X-22.88Y-21.59
X-22.88Y-24.13
X-22.88Y-26.67
X-22.88Y-29.21
X-22.88Y-31.75
X-22.88Y-34.29
X-22.88Y-36.83
X-22.88Y-39.37
X-22.88Y-41.91
X-22.88Y-44.45
X-22.88Y-46.99
X-22.88Y-49.53
X-22.88Y-52.07
X-22.88Y-54.61
X-22.88Y-57.15
X-22.88Y-59.69
X-22.88Y-62.23
X-22.88Y-64.77
X-21.59Y-84.455
X-21.59Y-86.995
X-20.34Y-11.43
X-20.34Y-13.97
X-20.34Y-16.51
X-20.34Y-19.05
X-20.34Y-21.59
X-20.34Y-24.13
X-20.34Y-26.67
X-20.34Y-29.21
X-20.34Y-31.75
X-20.34Y-34.29
X-20.34Y-36.83
X-20.34Y-39.37
X-20.34Y-41.91
X-20.34Y-44.45
X-20.34Y-46.99
X-20.34Y-49.53
X-20.34Y-52.07
X-20.34Y-54.61
X-20.34Y-57.15
X-20.34Y-59.69
X-20.34Y-62.23
X-20.34Y-64.77
X-19.05Y-84.455
X-19.05Y-86.995
X-16.51Y-84.455
X-16.51Y-86.995
X-13.97Y-84.455
X-13.97Y-86.995
X-8.89Y-52.07
X0.9Y0.0
X3.44Y0.0
X3.81Y-84.455
X3.81Y-86.995
X5.98Y0.0
X6.35Y-84.455
X6.35Y-86.995
X8.52Y0.0
X8.89Y-84.455
X8.89Y-86.995
X11.06Y0.0
X11.43Y-84.455
X11.43Y-86.995
X13.6Y0.0
X13.97Y-84.455
X13.97Y-86.995
X16.14Y0.0
X16.51Y-36.195
X16.51Y-56.515
X16.51Y-60.325
X16.51Y-84.455
X16.51Y-86.995
X18.68Y0.0
X19.05Y-84.455
X19.05Y-86.995
X20.32Y-11.43
X20.32Y-13.97
X20.32Y-16.51
X20.32Y-19.05
X20.32Y-21.59
X20.32Y-24.13
X20.32Y-26.67
X20.32Y-29.21
X20.32Y-31.75
X20.32Y-34.29
X20.32Y-36.83
X20.32Y-39.37
X20.32Y-41.91
X20.32Y-44.45
X20.32Y-46.99
X20.32Y-49.53
X20.32Y-52.07
X20.32Y-54.61
X20.32Y-57.15
X20.32Y-59.69
X20.32Y-62.23
X20.32Y-64.77
X21.22Y0.0
X21.59Y-84.455
X21.59Y-86.995
X22.86Y-11.43
X22.86Y-13.97
X22.86Y-16.51
X22.86Y-19.05
X22.86Y-21.59
X22.86Y-24.13
X22.86Y-26.67
X22.86Y-29.21
X22.86Y-31.75
X22.86Y-34.29
X22.86Y-36.83
X22.86Y-39.37
X22.86Y-41.91
X22.86Y-44.45
X22.86Y-46.99
X22.86Y-49.53
X22.86Y-52.07
X22.86Y-54.61
X22.86Y-57.15
X22.86Y-59.69
X22.86Y-62.23
X22.86Y-64.77
X23.76Y0.0
X26.3Y0.0
X28.84Y0.0
X31.195Y-9.525
X31.38Y0.0
X32.385Y-19.05
X32.385Y-21.59
X32.385Y-24.13
X32.385Y-26.67
X32.385Y-44.45
X32.385Y-46.99
X32.385Y-49.53
X32.385Y-52.07
X32.385Y-54.61
X32.385Y-57.15
X32.385Y-59.69
X32.385Y-62.23
X33.695Y-4.525
X33.92Y0.0
X34.925Y-19.05
X34.925Y-21.59
X34.925Y-24.13
X34.925Y-26.67
X34.925Y-44.45
X34.925Y-46.99
X34.925Y-49.53
X34.925Y-52.07
X34.925Y-54.61
X34.925Y-57.15
X34.925Y-59.69
X34.925Y-62.23
X36.195Y-9.525
X36.46Y0.0
X36.83Y-74.295
X39.0Y0.0
X39.37Y-74.295
X41.91Y-74.295
T4
X-39.37Y-77.955
X-39.37Y-81.915
T5
X34.17Y-78.495
X44.57Y-78.495
T0
M30
