%FSLAX45Y45*%
G04 Gerber Fmt 4.5, Leading zero omitted, Abs format (unit mm)*
G04 Created by KiCad (PCBNEW 6.0.1-79c1e3a40b~116~ubuntu20.04.1) date 2022-02-03 13:14:27*
%MOMM*%
%LPD*%
G01*
G04 APERTURE LIST*
%TA.AperFunction,Profile*%
%ADD10C,0.100000*%
%TD*%
%TA.AperFunction,Profile*%
%ADD11C,0.150000*%
%TD*%
%ADD12C,0.200000*%
%ADD13C,0.320000*%
G04 APERTURE END LIST*
D10*
X-5000000Y-9400000D02*
X-5000000Y0D01*
D11*
X4700000Y-9700000D02*
G75*
G03*
X5000000Y-9400000I0J300000D01*
G01*
X-4700000Y300000D02*
X4700000Y300000D01*
X-4700000Y300000D02*
G75*
G03*
X-5000000Y0I0J-300000D01*
G01*
X5000000Y0D02*
G75*
G03*
X4700000Y300000I-300000J0D01*
G01*
X-5000000Y-9400000D02*
G75*
G03*
X-4700000Y-9700000I300000J0D01*
G01*
X5000000Y0D02*
X5000000Y-9400000D01*
X4700000Y-9700000D02*
X-4700000Y-9700000D01*
D12*
D13*
X-4810000Y160000D02*
X-4490000Y-160000D01*
X-4490000Y160000D02*
X-4810000Y-160000D01*
X-4810000Y-5340000D02*
X-4490000Y-5660000D01*
X-4490000Y-5340000D02*
X-4810000Y-5660000D01*
X-4810000Y-9240000D02*
X-4490000Y-9560000D01*
X-4490000Y-9240000D02*
X-4810000Y-9560000D01*
X4490000Y160000D02*
X4810000Y-160000D01*
X4810000Y160000D02*
X4490000Y-160000D01*
X4490000Y-5340000D02*
X4810000Y-5660000D01*
X4810000Y-5340000D02*
X4490000Y-5660000D01*
X4490000Y-9240000D02*
X4810000Y-9560000D01*
X4810000Y-9240000D02*
X4490000Y-9560000D01*
D12*
X-4749881Y-10017976D02*
X-4749881Y-9817976D01*
X-4702262Y-9817976D01*
X-4673690Y-9827500D01*
X-4654643Y-9846548D01*
X-4645119Y-9865595D01*
X-4635595Y-9903690D01*
X-4635595Y-9932262D01*
X-4645119Y-9970357D01*
X-4654643Y-9989405D01*
X-4673690Y-10008452D01*
X-4702262Y-10017976D01*
X-4749881Y-10017976D01*
X-4549881Y-10017976D02*
X-4549881Y-9884643D01*
X-4549881Y-9922738D02*
X-4540357Y-9903690D01*
X-4530833Y-9894167D01*
X-4511786Y-9884643D01*
X-4492738Y-9884643D01*
X-4426071Y-10017976D02*
X-4426071Y-9884643D01*
X-4426071Y-9817976D02*
X-4435595Y-9827500D01*
X-4426071Y-9837024D01*
X-4416548Y-9827500D01*
X-4426071Y-9817976D01*
X-4426071Y-9837024D01*
X-4302262Y-10017976D02*
X-4321310Y-10008452D01*
X-4330833Y-9989405D01*
X-4330833Y-9817976D01*
X-4197500Y-10017976D02*
X-4216548Y-10008452D01*
X-4226071Y-9989405D01*
X-4226071Y-9817976D01*
X-3968928Y-10017976D02*
X-3968928Y-9817976D01*
X-3902262Y-9960833D01*
X-3835595Y-9817976D01*
X-3835595Y-10017976D01*
X-3654643Y-10017976D02*
X-3654643Y-9913214D01*
X-3664167Y-9894167D01*
X-3683214Y-9884643D01*
X-3721309Y-9884643D01*
X-3740357Y-9894167D01*
X-3654643Y-10008452D02*
X-3673690Y-10017976D01*
X-3721309Y-10017976D01*
X-3740357Y-10008452D01*
X-3749881Y-9989405D01*
X-3749881Y-9970357D01*
X-3740357Y-9951310D01*
X-3721309Y-9941786D01*
X-3673690Y-9941786D01*
X-3654643Y-9932262D01*
X-3559405Y-9884643D02*
X-3559405Y-10084643D01*
X-3559405Y-9894167D02*
X-3540357Y-9884643D01*
X-3502262Y-9884643D01*
X-3483214Y-9894167D01*
X-3473690Y-9903690D01*
X-3464167Y-9922738D01*
X-3464167Y-9979881D01*
X-3473690Y-9998929D01*
X-3483214Y-10008452D01*
X-3502262Y-10017976D01*
X-3540357Y-10017976D01*
X-3559405Y-10008452D01*
X-3378452Y-9998929D02*
X-3368928Y-10008452D01*
X-3378452Y-10017976D01*
X-3387976Y-10008452D01*
X-3378452Y-9998929D01*
X-3378452Y-10017976D01*
X-3378452Y-9894167D02*
X-3368928Y-9903690D01*
X-3378452Y-9913214D01*
X-3387976Y-9903690D01*
X-3378452Y-9894167D01*
X-3378452Y-9913214D01*
X-5207500Y-10247500D02*
X-5007500Y-10447500D01*
X-5007500Y-10247500D02*
X-5207500Y-10447500D01*
X-4768929Y-10237976D02*
X-4645119Y-10237976D01*
X-4711786Y-10314167D01*
X-4683214Y-10314167D01*
X-4664167Y-10323690D01*
X-4654643Y-10333214D01*
X-4645119Y-10352262D01*
X-4645119Y-10399881D01*
X-4654643Y-10418929D01*
X-4664167Y-10428452D01*
X-4683214Y-10437976D01*
X-4740357Y-10437976D01*
X-4759405Y-10428452D01*
X-4768929Y-10418929D01*
X-4559405Y-10418929D02*
X-4549881Y-10428452D01*
X-4559405Y-10437976D01*
X-4568929Y-10428452D01*
X-4559405Y-10418929D01*
X-4559405Y-10437976D01*
X-4473690Y-10257024D02*
X-4464167Y-10247500D01*
X-4445119Y-10237976D01*
X-4397500Y-10237976D01*
X-4378452Y-10247500D01*
X-4368929Y-10257024D01*
X-4359405Y-10276071D01*
X-4359405Y-10295119D01*
X-4368929Y-10323690D01*
X-4483214Y-10437976D01*
X-4359405Y-10437976D01*
X-4235595Y-10237976D02*
X-4216548Y-10237976D01*
X-4197500Y-10247500D01*
X-4187976Y-10257024D01*
X-4178452Y-10276071D01*
X-4168928Y-10314167D01*
X-4168928Y-10361786D01*
X-4178452Y-10399881D01*
X-4187976Y-10418929D01*
X-4197500Y-10428452D01*
X-4216548Y-10437976D01*
X-4235595Y-10437976D01*
X-4254643Y-10428452D01*
X-4264167Y-10418929D01*
X-4273690Y-10399881D01*
X-4283214Y-10361786D01*
X-4283214Y-10314167D01*
X-4273690Y-10276071D01*
X-4264167Y-10257024D01*
X-4254643Y-10247500D01*
X-4235595Y-10237976D01*
X-4045119Y-10237976D02*
X-4026071Y-10237976D01*
X-4007024Y-10247500D01*
X-3997500Y-10257024D01*
X-3987976Y-10276071D01*
X-3978452Y-10314167D01*
X-3978452Y-10361786D01*
X-3987976Y-10399881D01*
X-3997500Y-10418929D01*
X-4007024Y-10428452D01*
X-4026071Y-10437976D01*
X-4045119Y-10437976D01*
X-4064167Y-10428452D01*
X-4073690Y-10418929D01*
X-4083214Y-10399881D01*
X-4092738Y-10361786D01*
X-4092738Y-10314167D01*
X-4083214Y-10276071D01*
X-4073690Y-10257024D01*
X-4064167Y-10247500D01*
X-4045119Y-10237976D01*
X-3892738Y-10437976D02*
X-3892738Y-10304643D01*
X-3892738Y-10323690D02*
X-3883214Y-10314167D01*
X-3864167Y-10304643D01*
X-3835595Y-10304643D01*
X-3816548Y-10314167D01*
X-3807024Y-10333214D01*
X-3807024Y-10437976D01*
X-3807024Y-10333214D02*
X-3797500Y-10314167D01*
X-3778452Y-10304643D01*
X-3749881Y-10304643D01*
X-3730833Y-10314167D01*
X-3721309Y-10333214D01*
X-3721309Y-10437976D01*
X-3626071Y-10437976D02*
X-3626071Y-10304643D01*
X-3626071Y-10323690D02*
X-3616548Y-10314167D01*
X-3597500Y-10304643D01*
X-3568928Y-10304643D01*
X-3549881Y-10314167D01*
X-3540357Y-10333214D01*
X-3540357Y-10437976D01*
X-3540357Y-10333214D02*
X-3530833Y-10314167D01*
X-3511786Y-10304643D01*
X-3483214Y-10304643D01*
X-3464167Y-10314167D01*
X-3454643Y-10333214D01*
X-3454643Y-10437976D01*
X-3064167Y-10228452D02*
X-3235595Y-10485595D01*
X-2807024Y-10237976D02*
X-2787976Y-10237976D01*
X-2768929Y-10247500D01*
X-2759405Y-10257024D01*
X-2749881Y-10276071D01*
X-2740357Y-10314167D01*
X-2740357Y-10361786D01*
X-2749881Y-10399881D01*
X-2759405Y-10418929D01*
X-2768929Y-10428452D01*
X-2787976Y-10437976D01*
X-2807024Y-10437976D01*
X-2826071Y-10428452D01*
X-2835595Y-10418929D01*
X-2845119Y-10399881D01*
X-2854643Y-10361786D01*
X-2854643Y-10314167D01*
X-2845119Y-10276071D01*
X-2835595Y-10257024D01*
X-2826071Y-10247500D01*
X-2807024Y-10237976D01*
X-2654643Y-10418929D02*
X-2645119Y-10428452D01*
X-2654643Y-10437976D01*
X-2664167Y-10428452D01*
X-2654643Y-10418929D01*
X-2654643Y-10437976D01*
X-2454643Y-10437976D02*
X-2568929Y-10437976D01*
X-2511786Y-10437976D02*
X-2511786Y-10237976D01*
X-2530833Y-10266548D01*
X-2549881Y-10285595D01*
X-2568929Y-10295119D01*
X-2378452Y-10257024D02*
X-2368929Y-10247500D01*
X-2349881Y-10237976D01*
X-2302262Y-10237976D01*
X-2283214Y-10247500D01*
X-2273690Y-10257024D01*
X-2264167Y-10276071D01*
X-2264167Y-10295119D01*
X-2273690Y-10323690D01*
X-2387976Y-10437976D01*
X-2264167Y-10437976D01*
X-2092738Y-10237976D02*
X-2130833Y-10237976D01*
X-2149881Y-10247500D01*
X-2159405Y-10257024D01*
X-2178452Y-10285595D01*
X-2187976Y-10323690D01*
X-2187976Y-10399881D01*
X-2178452Y-10418929D01*
X-2168929Y-10428452D01*
X-2149881Y-10437976D01*
X-2111786Y-10437976D01*
X-2092738Y-10428452D01*
X-2083214Y-10418929D01*
X-2073690Y-10399881D01*
X-2073690Y-10352262D01*
X-2083214Y-10333214D01*
X-2092738Y-10323690D01*
X-2111786Y-10314167D01*
X-2149881Y-10314167D01*
X-2168929Y-10323690D01*
X-2178452Y-10333214D01*
X-2187976Y-10352262D01*
X-1949881Y-10237976D02*
X-1930833Y-10237976D01*
X-1911786Y-10247500D01*
X-1902262Y-10257024D01*
X-1892738Y-10276071D01*
X-1883214Y-10314167D01*
X-1883214Y-10361786D01*
X-1892738Y-10399881D01*
X-1902262Y-10418929D01*
X-1911786Y-10428452D01*
X-1930833Y-10437976D01*
X-1949881Y-10437976D01*
X-1968928Y-10428452D01*
X-1978452Y-10418929D01*
X-1987976Y-10399881D01*
X-1997500Y-10361786D01*
X-1997500Y-10314167D01*
X-1987976Y-10276071D01*
X-1978452Y-10257024D01*
X-1968928Y-10247500D01*
X-1949881Y-10237976D01*
X-1807024Y-10237976D02*
X-1807024Y-10276071D01*
X-1730833Y-10237976D02*
X-1730833Y-10276071D01*
X-1435595Y-10514167D02*
X-1445119Y-10504643D01*
X-1464167Y-10476071D01*
X-1473690Y-10457024D01*
X-1483214Y-10428452D01*
X-1492738Y-10380833D01*
X-1492738Y-10342738D01*
X-1483214Y-10295119D01*
X-1473690Y-10266548D01*
X-1464167Y-10247500D01*
X-1445119Y-10218929D01*
X-1435595Y-10209405D01*
X-1273690Y-10237976D02*
X-1311786Y-10237976D01*
X-1330833Y-10247500D01*
X-1340357Y-10257024D01*
X-1359405Y-10285595D01*
X-1368929Y-10323690D01*
X-1368929Y-10399881D01*
X-1359405Y-10418929D01*
X-1349881Y-10428452D01*
X-1330833Y-10437976D01*
X-1292738Y-10437976D01*
X-1273690Y-10428452D01*
X-1264167Y-10418929D01*
X-1254643Y-10399881D01*
X-1254643Y-10352262D01*
X-1264167Y-10333214D01*
X-1273690Y-10323690D01*
X-1292738Y-10314167D01*
X-1330833Y-10314167D01*
X-1349881Y-10323690D01*
X-1359405Y-10333214D01*
X-1368929Y-10352262D01*
X-1016548Y-10437976D02*
X-1016548Y-10237976D01*
X-930833Y-10437976D02*
X-930833Y-10333214D01*
X-940357Y-10314167D01*
X-959405Y-10304643D01*
X-987976Y-10304643D01*
X-1007024Y-10314167D01*
X-1016548Y-10323690D01*
X-807024Y-10437976D02*
X-826071Y-10428452D01*
X-835595Y-10418929D01*
X-845119Y-10399881D01*
X-845119Y-10342738D01*
X-835595Y-10323690D01*
X-826071Y-10314167D01*
X-807024Y-10304643D01*
X-778452Y-10304643D01*
X-759405Y-10314167D01*
X-749881Y-10323690D01*
X-740357Y-10342738D01*
X-740357Y-10399881D01*
X-749881Y-10418929D01*
X-759405Y-10428452D01*
X-778452Y-10437976D01*
X-807024Y-10437976D01*
X-626071Y-10437976D02*
X-645119Y-10428452D01*
X-654643Y-10409405D01*
X-654643Y-10237976D01*
X-473690Y-10428452D02*
X-492738Y-10437976D01*
X-530833Y-10437976D01*
X-549881Y-10428452D01*
X-559405Y-10409405D01*
X-559405Y-10333214D01*
X-549881Y-10314167D01*
X-530833Y-10304643D01*
X-492738Y-10304643D01*
X-473690Y-10314167D01*
X-464167Y-10333214D01*
X-464167Y-10352262D01*
X-559405Y-10371310D01*
X-387976Y-10428452D02*
X-368928Y-10437976D01*
X-330833Y-10437976D01*
X-311786Y-10428452D01*
X-302262Y-10409405D01*
X-302262Y-10399881D01*
X-311786Y-10380833D01*
X-330833Y-10371310D01*
X-359405Y-10371310D01*
X-378452Y-10361786D01*
X-387976Y-10342738D01*
X-387976Y-10333214D01*
X-378452Y-10314167D01*
X-359405Y-10304643D01*
X-330833Y-10304643D01*
X-311786Y-10314167D01*
X-235595Y-10514167D02*
X-226071Y-10504643D01*
X-207024Y-10476071D01*
X-197500Y-10457024D01*
X-187976Y-10428452D01*
X-178452Y-10380833D01*
X-178452Y-10342738D01*
X-187976Y-10295119D01*
X-197500Y-10266548D01*
X-207024Y-10247500D01*
X-226071Y-10218929D01*
X-235595Y-10209405D01*
X126309Y-10514167D02*
X116786Y-10504643D01*
X97738Y-10476071D01*
X88214Y-10457024D01*
X78690Y-10428452D01*
X69167Y-10380833D01*
X69167Y-10342738D01*
X78690Y-10295119D01*
X88214Y-10266548D01*
X97738Y-10247500D01*
X116786Y-10218929D01*
X126309Y-10209405D01*
X202500Y-10304643D02*
X202500Y-10437976D01*
X202500Y-10323690D02*
X212024Y-10314167D01*
X231071Y-10304643D01*
X259643Y-10304643D01*
X278690Y-10314167D01*
X288214Y-10333214D01*
X288214Y-10437976D01*
X412024Y-10437976D02*
X392976Y-10428452D01*
X383452Y-10418929D01*
X373928Y-10399881D01*
X373928Y-10342738D01*
X383452Y-10323690D01*
X392976Y-10314167D01*
X412024Y-10304643D01*
X440595Y-10304643D01*
X459643Y-10314167D01*
X469167Y-10323690D01*
X478690Y-10342738D01*
X478690Y-10399881D01*
X469167Y-10418929D01*
X459643Y-10428452D01*
X440595Y-10437976D01*
X412024Y-10437976D01*
X535833Y-10304643D02*
X612024Y-10304643D01*
X564405Y-10237976D02*
X564405Y-10409405D01*
X573929Y-10428452D01*
X592976Y-10437976D01*
X612024Y-10437976D01*
X831071Y-10304643D02*
X831071Y-10504643D01*
X831071Y-10314167D02*
X850119Y-10304643D01*
X888214Y-10304643D01*
X907262Y-10314167D01*
X916786Y-10323690D01*
X926309Y-10342738D01*
X926309Y-10399881D01*
X916786Y-10418929D01*
X907262Y-10428452D01*
X888214Y-10437976D01*
X850119Y-10437976D01*
X831071Y-10428452D01*
X1040595Y-10437976D02*
X1021548Y-10428452D01*
X1012024Y-10409405D01*
X1012024Y-10237976D01*
X1202500Y-10437976D02*
X1202500Y-10333214D01*
X1192976Y-10314167D01*
X1173929Y-10304643D01*
X1135833Y-10304643D01*
X1116786Y-10314167D01*
X1202500Y-10428452D02*
X1183452Y-10437976D01*
X1135833Y-10437976D01*
X1116786Y-10428452D01*
X1107262Y-10409405D01*
X1107262Y-10390357D01*
X1116786Y-10371310D01*
X1135833Y-10361786D01*
X1183452Y-10361786D01*
X1202500Y-10352262D01*
X1269167Y-10304643D02*
X1345357Y-10304643D01*
X1297738Y-10237976D02*
X1297738Y-10409405D01*
X1307262Y-10428452D01*
X1326310Y-10437976D01*
X1345357Y-10437976D01*
X1488214Y-10428452D02*
X1469167Y-10437976D01*
X1431071Y-10437976D01*
X1412024Y-10428452D01*
X1402500Y-10409405D01*
X1402500Y-10333214D01*
X1412024Y-10314167D01*
X1431071Y-10304643D01*
X1469167Y-10304643D01*
X1488214Y-10314167D01*
X1497738Y-10333214D01*
X1497738Y-10352262D01*
X1402500Y-10371310D01*
X1669167Y-10437976D02*
X1669167Y-10237976D01*
X1669167Y-10428452D02*
X1650119Y-10437976D01*
X1612024Y-10437976D01*
X1592976Y-10428452D01*
X1583452Y-10418929D01*
X1573928Y-10399881D01*
X1573928Y-10342738D01*
X1583452Y-10323690D01*
X1592976Y-10314167D01*
X1612024Y-10304643D01*
X1650119Y-10304643D01*
X1669167Y-10314167D01*
X1745357Y-10514167D02*
X1754881Y-10504643D01*
X1773928Y-10476071D01*
X1783452Y-10457024D01*
X1792976Y-10428452D01*
X1802500Y-10380833D01*
X1802500Y-10342738D01*
X1792976Y-10295119D01*
X1783452Y-10266548D01*
X1773928Y-10247500D01*
X1754881Y-10218929D01*
X1745357Y-10209405D01*
M02*
