G04 #@! TF.GenerationSoftware,KiCad,Pcbnew,6.0.1-79c1e3a40b~116~ubuntu20.04.1*
G04 #@! TF.CreationDate,2022-02-03T13:13:36-05:00*
G04 #@! TF.ProjectId,d-lev_8mm_tuner,642d6c65-765f-4386-9d6d-5f74756e6572,rev?*
G04 #@! TF.SameCoordinates,Original*
G04 #@! TF.FileFunction,Copper,L1,Top*
G04 #@! TF.FilePolarity,Positive*
%FSLAX46Y46*%
G04 Gerber Fmt 4.6, Leading zero omitted, Abs format (unit mm)*
G04 Created by KiCad (PCBNEW 6.0.1-79c1e3a40b~116~ubuntu20.04.1) date 2022-02-03 13:13:36*
%MOMM*%
%LPD*%
G01*
G04 APERTURE LIST*
G04 #@! TA.AperFunction,ComponentPad*
%ADD10R,1.700000X1.700000*%
G04 #@! TD*
G04 #@! TA.AperFunction,ComponentPad*
%ADD11C,1.700000*%
G04 #@! TD*
G04 #@! TA.AperFunction,ComponentPad*
%ADD12R,1.800000X1.800000*%
G04 #@! TD*
G04 #@! TA.AperFunction,ComponentPad*
%ADD13C,1.800000*%
G04 #@! TD*
G04 #@! TA.AperFunction,ConnectorPad*
%ADD14C,5.000000*%
G04 #@! TD*
G04 #@! TA.AperFunction,ComponentPad*
%ADD15C,2.900000*%
G04 #@! TD*
G04 #@! TA.AperFunction,ComponentPad*
%ADD16O,1.700000X1.700000*%
G04 #@! TD*
G04 #@! TA.AperFunction,Conductor*
%ADD17C,0.500000*%
G04 #@! TD*
G04 APERTURE END LIST*
D10*
X-22800000Y-7620000D03*
D11*
X-20260000Y-7620000D03*
X-17720000Y-7620000D03*
X-15180000Y-7620000D03*
X-12640000Y-7620000D03*
X-12640000Y7620000D03*
X-15180000Y7620000D03*
X-17720000Y7620000D03*
X-20260000Y7620000D03*
X-22800000Y7620000D03*
D12*
X42170000Y8840000D03*
D13*
X42170000Y11380000D03*
D12*
X7120000Y8840000D03*
D13*
X7120000Y11380000D03*
D12*
X18800000Y8840000D03*
D13*
X18800000Y11380000D03*
D12*
X24640000Y18950000D03*
D13*
X24640000Y21490000D03*
D12*
X30480000Y8840000D03*
D13*
X30480000Y11380000D03*
D12*
X36330000Y-1270000D03*
D13*
X36330000Y1270000D03*
D12*
X42170000Y-11380000D03*
D13*
X42170000Y-8840000D03*
D12*
X30480000Y-11380000D03*
D13*
X30480000Y-8840000D03*
D12*
X24640000Y-21490000D03*
D13*
X24640000Y-18950000D03*
D12*
X18800000Y-11380000D03*
D13*
X18800000Y-8840000D03*
D12*
X7120000Y-11380000D03*
D13*
X7120000Y-8840000D03*
D12*
X12960000Y-1270000D03*
D13*
X12960000Y1270000D03*
D12*
X24640000Y-1270000D03*
D13*
X24640000Y1270000D03*
D12*
X-40890000Y17700000D03*
D13*
X-43430000Y17700000D03*
D12*
X-40890000Y5900000D03*
D13*
X-43430000Y5900000D03*
D12*
X-40890000Y-5900000D03*
D13*
X-43430000Y-5900000D03*
D12*
X-40890000Y-17700000D03*
D13*
X-43430000Y-17700000D03*
D14*
X-1215000Y7516000D03*
D15*
X-1215000Y7516000D03*
D10*
X-38050000Y-26190000D03*
D16*
X-35510000Y-26190000D03*
X-32970000Y-26190000D03*
X-30430000Y-26190000D03*
X-27890000Y-26190000D03*
X-25350000Y-26190000D03*
X-22810000Y-26190000D03*
X-20270000Y-26190000D03*
X-17730000Y-26190000D03*
X-15190000Y-26190000D03*
X-12650000Y-26190000D03*
X-10110000Y-26190000D03*
X-7570000Y-26190000D03*
X-5030000Y-26190000D03*
X-2490000Y-26190000D03*
X50000Y-26190000D03*
X2590000Y-26190000D03*
X5130000Y-26190000D03*
X7670000Y-26190000D03*
X10210000Y-26190000D03*
X12750000Y-26190000D03*
X15290000Y-26190000D03*
X17830000Y-26190000D03*
X20370000Y-26190000D03*
X22910000Y-26190000D03*
X25450000Y-26190000D03*
X27990000Y-26190000D03*
X30530000Y-26190000D03*
X33070000Y-26190000D03*
X35610000Y-26190000D03*
D17*
X-12640000Y-19110000D02*
X-7570000Y-24180000D01*
X-12640000Y-7620000D02*
X-12640000Y-19110000D01*
X-7570000Y-24180000D02*
X-7570000Y-26190000D01*
G04 #@! TA.AperFunction,Conductor*
G36*
X46487066Y30243552D02*
G01*
X46499699Y30241024D01*
X46511871Y30243430D01*
X46523283Y30243417D01*
X46535336Y30244310D01*
X46867653Y30228559D01*
X46879240Y30227471D01*
X47140249Y30190753D01*
X47238220Y30176971D01*
X47249651Y30174822D01*
X47602468Y30091407D01*
X47613649Y30088211D01*
X47718541Y30052920D01*
X47957259Y29972600D01*
X47968106Y29968383D01*
X48197956Y29866576D01*
X48299579Y29821564D01*
X48309981Y29816369D01*
X48541044Y29687316D01*
X48626488Y29639594D01*
X48636376Y29633456D01*
X48935231Y29428225D01*
X48944510Y29421200D01*
X49223134Y29189286D01*
X49231726Y29181436D01*
X49487784Y28924782D01*
X49495614Y28916172D01*
X49726882Y28637008D01*
X49733885Y28627713D01*
X49938418Y28328388D01*
X49944534Y28318485D01*
X50120576Y28001563D01*
X50125751Y27991139D01*
X50271795Y27659338D01*
X50275987Y27648481D01*
X50280823Y27633996D01*
X50362220Y27390203D01*
X50390797Y27304610D01*
X50393967Y27293420D01*
X50466786Y26982196D01*
X50476562Y26940413D01*
X50478687Y26928969D01*
X50528354Y26569859D01*
X50529414Y26558270D01*
X50543906Y26236742D01*
X50544393Y26225932D01*
X50543472Y26213871D01*
X50543459Y26202470D01*
X50541024Y26190301D01*
X50543431Y26178126D01*
X50543607Y26177236D01*
X50546000Y26152798D01*
X50546000Y-26152798D01*
X50543607Y-26177236D01*
X50541024Y-26190301D01*
X50543459Y-26202470D01*
X50543472Y-26213871D01*
X50544393Y-26225929D01*
X50538192Y-26363522D01*
X50529414Y-26558270D01*
X50528354Y-26569859D01*
X50493422Y-26822430D01*
X50480699Y-26914424D01*
X50478687Y-26928969D01*
X50476564Y-26940405D01*
X50394114Y-27292793D01*
X50393969Y-27293413D01*
X50390799Y-27304604D01*
X50342312Y-27449829D01*
X50275987Y-27648481D01*
X50271795Y-27659338D01*
X50125751Y-27991139D01*
X50120576Y-28001563D01*
X49944534Y-28318485D01*
X49938418Y-28328388D01*
X49733885Y-28627713D01*
X49726882Y-28637008D01*
X49495614Y-28916172D01*
X49487784Y-28924782D01*
X49231726Y-29181436D01*
X49223134Y-29189286D01*
X48944510Y-29421200D01*
X48935231Y-29428225D01*
X48636376Y-29633456D01*
X48626492Y-29639591D01*
X48309981Y-29816369D01*
X48299579Y-29821564D01*
X48197956Y-29866576D01*
X47968106Y-29968383D01*
X47957259Y-29972600D01*
X47718541Y-30052920D01*
X47613649Y-30088211D01*
X47602468Y-30091407D01*
X47249651Y-30174822D01*
X47238220Y-30176971D01*
X47140249Y-30190753D01*
X46879240Y-30227471D01*
X46867653Y-30228559D01*
X46535336Y-30244310D01*
X46523283Y-30243417D01*
X46511871Y-30243430D01*
X46499699Y-30241024D01*
X46487066Y-30243552D01*
X46462352Y-30246000D01*
X-46462352Y-30246000D01*
X-46487066Y-30243552D01*
X-46499699Y-30241024D01*
X-46511871Y-30243430D01*
X-46523283Y-30243417D01*
X-46535336Y-30244310D01*
X-46867653Y-30228559D01*
X-46879240Y-30227471D01*
X-47140249Y-30190753D01*
X-47238220Y-30176971D01*
X-47249651Y-30174822D01*
X-47602468Y-30091407D01*
X-47613649Y-30088211D01*
X-47718541Y-30052920D01*
X-47957259Y-29972600D01*
X-47968106Y-29968383D01*
X-48197956Y-29866576D01*
X-48299579Y-29821564D01*
X-48309981Y-29816369D01*
X-48626492Y-29639591D01*
X-48636376Y-29633456D01*
X-48935231Y-29428225D01*
X-48944510Y-29421200D01*
X-49223134Y-29189286D01*
X-49231726Y-29181436D01*
X-49487784Y-28924782D01*
X-49495614Y-28916172D01*
X-49726882Y-28637008D01*
X-49733885Y-28627713D01*
X-49938418Y-28328388D01*
X-49944534Y-28318485D01*
X-50120576Y-28001563D01*
X-50125751Y-27991139D01*
X-50271795Y-27659338D01*
X-50275987Y-27648481D01*
X-50342312Y-27449829D01*
X-50390799Y-27304604D01*
X-50393969Y-27293413D01*
X-50394114Y-27292793D01*
X-50476564Y-26940405D01*
X-50478687Y-26928969D01*
X-50480698Y-26914424D01*
X-50493422Y-26822430D01*
X-50528354Y-26569859D01*
X-50529414Y-26558270D01*
X-50538192Y-26363522D01*
X-50544111Y-26232186D01*
X-48358982Y-26232186D01*
X-48333421Y-26500100D01*
X-48332336Y-26504534D01*
X-48332335Y-26504540D01*
X-48297669Y-26646208D01*
X-48269453Y-26761518D01*
X-48168417Y-27010963D01*
X-48032431Y-27243210D01*
X-47864342Y-27453395D01*
X-47667673Y-27637113D01*
X-47446543Y-27790516D01*
X-47205584Y-27910391D01*
X-47201250Y-27911812D01*
X-47201247Y-27911813D01*
X-46954177Y-27992807D01*
X-46954171Y-27992808D01*
X-46949844Y-27994227D01*
X-46945353Y-27995007D01*
X-46945352Y-27995007D01*
X-46688462Y-28039611D01*
X-46688454Y-28039612D01*
X-46684681Y-28040267D01*
X-46680844Y-28040458D01*
X-46601223Y-28044422D01*
X-46601215Y-28044422D01*
X-46599652Y-28044500D01*
X-46431626Y-28044500D01*
X-46429358Y-28044335D01*
X-46429346Y-28044335D01*
X-46298543Y-28034844D01*
X-46231575Y-28029985D01*
X-46227120Y-28029001D01*
X-46227117Y-28029001D01*
X-45973230Y-27972947D01*
X-45973228Y-27972946D01*
X-45968774Y-27971963D01*
X-45717100Y-27876613D01*
X-45481828Y-27745931D01*
X-45335158Y-27633996D01*
X-45271509Y-27585421D01*
X-45271505Y-27585417D01*
X-45267884Y-27582654D01*
X-45079751Y-27390203D01*
X-45012429Y-27297712D01*
X-44924058Y-27176304D01*
X-44924053Y-27176297D01*
X-44921370Y-27172610D01*
X-44861506Y-27058828D01*
X-39153999Y-27058828D01*
X-39152791Y-27071088D01*
X-39141685Y-27126931D01*
X-39132367Y-27149427D01*
X-39090017Y-27212808D01*
X-39072808Y-27230017D01*
X-39009425Y-27272368D01*
X-38986934Y-27281684D01*
X-38931085Y-27292793D01*
X-38918830Y-27294000D01*
X-38322115Y-27294000D01*
X-38306876Y-27289525D01*
X-38305671Y-27288135D01*
X-38304000Y-27280452D01*
X-38304000Y-27275884D01*
X-37796000Y-27275884D01*
X-37791525Y-27291123D01*
X-37790135Y-27292328D01*
X-37782452Y-27293999D01*
X-37181172Y-27293999D01*
X-37168912Y-27292791D01*
X-37113069Y-27281685D01*
X-37090573Y-27272367D01*
X-37027192Y-27230017D01*
X-37009983Y-27212808D01*
X-36967632Y-27149425D01*
X-36958316Y-27126934D01*
X-36947207Y-27071085D01*
X-36946000Y-27058830D01*
X-36946000Y-26462115D01*
X-36950475Y-26446876D01*
X-36951865Y-26445671D01*
X-36959548Y-26444000D01*
X-37777885Y-26444000D01*
X-37793124Y-26448475D01*
X-37794329Y-26449865D01*
X-37796000Y-26457548D01*
X-37796000Y-27275884D01*
X-38304000Y-27275884D01*
X-38304000Y-26462115D01*
X-38308475Y-26446876D01*
X-38309865Y-26445671D01*
X-38317548Y-26444000D01*
X-39135884Y-26444000D01*
X-39151123Y-26448475D01*
X-39152328Y-26449865D01*
X-39153999Y-26457548D01*
X-39153999Y-27058828D01*
X-44861506Y-27058828D01*
X-44796059Y-26934433D01*
X-44706443Y-26680662D01*
X-44681312Y-26553156D01*
X-44655280Y-26421083D01*
X-44655279Y-26421077D01*
X-44654399Y-26416611D01*
X-44645218Y-26232186D01*
X-44641672Y-26160964D01*
X-36618852Y-26160964D01*
X-36605576Y-26363522D01*
X-36604155Y-26369118D01*
X-36604154Y-26369123D01*
X-36572045Y-26495548D01*
X-36555608Y-26560269D01*
X-36553191Y-26565512D01*
X-36516088Y-26645994D01*
X-36470623Y-26744616D01*
X-36353467Y-26910389D01*
X-36208062Y-27052035D01*
X-36039280Y-27164812D01*
X-36033977Y-27167090D01*
X-36033974Y-27167092D01*
X-35945293Y-27205192D01*
X-35852772Y-27244942D01*
X-35787860Y-27259630D01*
X-35660421Y-27288467D01*
X-35660416Y-27288468D01*
X-35654784Y-27289742D01*
X-35649013Y-27289969D01*
X-35649011Y-27289969D01*
X-35589244Y-27292317D01*
X-35451947Y-27297712D01*
X-35341404Y-27281684D01*
X-35256769Y-27269413D01*
X-35256764Y-27269412D01*
X-35251055Y-27268584D01*
X-35245591Y-27266729D01*
X-35245586Y-27266728D01*
X-35064307Y-27205192D01*
X-35064302Y-27205190D01*
X-35058835Y-27203334D01*
X-35052981Y-27200056D01*
X-34922408Y-27126931D01*
X-34881724Y-27104147D01*
X-34841971Y-27071085D01*
X-34730087Y-26978031D01*
X-34725655Y-26974345D01*
X-34595853Y-26818276D01*
X-34496666Y-26641165D01*
X-34494810Y-26635698D01*
X-34494808Y-26635693D01*
X-34433272Y-26454414D01*
X-34433271Y-26454409D01*
X-34431416Y-26448945D01*
X-34430588Y-26443236D01*
X-34430587Y-26443231D01*
X-34402821Y-26251727D01*
X-34402288Y-26248053D01*
X-34400768Y-26190000D01*
X-34403436Y-26160964D01*
X-34078852Y-26160964D01*
X-34065576Y-26363522D01*
X-34064155Y-26369118D01*
X-34064154Y-26369123D01*
X-34032045Y-26495548D01*
X-34015608Y-26560269D01*
X-34013191Y-26565512D01*
X-33976088Y-26645994D01*
X-33930623Y-26744616D01*
X-33813467Y-26910389D01*
X-33668062Y-27052035D01*
X-33499280Y-27164812D01*
X-33493977Y-27167090D01*
X-33493974Y-27167092D01*
X-33405293Y-27205192D01*
X-33312772Y-27244942D01*
X-33247860Y-27259630D01*
X-33120421Y-27288467D01*
X-33120416Y-27288468D01*
X-33114784Y-27289742D01*
X-33109013Y-27289969D01*
X-33109011Y-27289969D01*
X-33049244Y-27292317D01*
X-32911947Y-27297712D01*
X-32801404Y-27281684D01*
X-32716769Y-27269413D01*
X-32716764Y-27269412D01*
X-32711055Y-27268584D01*
X-32705591Y-27266729D01*
X-32705586Y-27266728D01*
X-32524307Y-27205192D01*
X-32524302Y-27205190D01*
X-32518835Y-27203334D01*
X-32512981Y-27200056D01*
X-32382408Y-27126931D01*
X-32341724Y-27104147D01*
X-32301971Y-27071085D01*
X-32190087Y-26978031D01*
X-32185655Y-26974345D01*
X-32055853Y-26818276D01*
X-31956666Y-26641165D01*
X-31954810Y-26635698D01*
X-31954808Y-26635693D01*
X-31893272Y-26454414D01*
X-31893271Y-26454409D01*
X-31891416Y-26448945D01*
X-31890588Y-26443236D01*
X-31890587Y-26443231D01*
X-31862821Y-26251727D01*
X-31862288Y-26248053D01*
X-31860768Y-26190000D01*
X-31863436Y-26160964D01*
X-31538852Y-26160964D01*
X-31525576Y-26363522D01*
X-31524155Y-26369118D01*
X-31524154Y-26369123D01*
X-31492045Y-26495548D01*
X-31475608Y-26560269D01*
X-31473191Y-26565512D01*
X-31436088Y-26645994D01*
X-31390623Y-26744616D01*
X-31273467Y-26910389D01*
X-31128062Y-27052035D01*
X-30959280Y-27164812D01*
X-30953977Y-27167090D01*
X-30953974Y-27167092D01*
X-30865293Y-27205192D01*
X-30772772Y-27244942D01*
X-30707860Y-27259630D01*
X-30580421Y-27288467D01*
X-30580416Y-27288468D01*
X-30574784Y-27289742D01*
X-30569013Y-27289969D01*
X-30569011Y-27289969D01*
X-30509244Y-27292317D01*
X-30371947Y-27297712D01*
X-30261404Y-27281684D01*
X-30176769Y-27269413D01*
X-30176764Y-27269412D01*
X-30171055Y-27268584D01*
X-30165591Y-27266729D01*
X-30165586Y-27266728D01*
X-29984307Y-27205192D01*
X-29984302Y-27205190D01*
X-29978835Y-27203334D01*
X-29972981Y-27200056D01*
X-29842408Y-27126931D01*
X-29801724Y-27104147D01*
X-29761971Y-27071085D01*
X-29650087Y-26978031D01*
X-29645655Y-26974345D01*
X-29515853Y-26818276D01*
X-29416666Y-26641165D01*
X-29414810Y-26635698D01*
X-29414808Y-26635693D01*
X-29353272Y-26454414D01*
X-29353271Y-26454409D01*
X-29351416Y-26448945D01*
X-29350588Y-26443236D01*
X-29350587Y-26443231D01*
X-29322821Y-26251727D01*
X-29322288Y-26248053D01*
X-29320768Y-26190000D01*
X-29323436Y-26160964D01*
X-28998852Y-26160964D01*
X-28985576Y-26363522D01*
X-28984155Y-26369118D01*
X-28984154Y-26369123D01*
X-28952045Y-26495548D01*
X-28935608Y-26560269D01*
X-28933191Y-26565512D01*
X-28896088Y-26645994D01*
X-28850623Y-26744616D01*
X-28733467Y-26910389D01*
X-28588062Y-27052035D01*
X-28419280Y-27164812D01*
X-28413977Y-27167090D01*
X-28413974Y-27167092D01*
X-28325293Y-27205192D01*
X-28232772Y-27244942D01*
X-28167860Y-27259630D01*
X-28040421Y-27288467D01*
X-28040416Y-27288468D01*
X-28034784Y-27289742D01*
X-28029013Y-27289969D01*
X-28029011Y-27289969D01*
X-27969244Y-27292317D01*
X-27831947Y-27297712D01*
X-27721404Y-27281684D01*
X-27636769Y-27269413D01*
X-27636764Y-27269412D01*
X-27631055Y-27268584D01*
X-27625591Y-27266729D01*
X-27625586Y-27266728D01*
X-27444307Y-27205192D01*
X-27444302Y-27205190D01*
X-27438835Y-27203334D01*
X-27432981Y-27200056D01*
X-27302408Y-27126931D01*
X-27261724Y-27104147D01*
X-27221971Y-27071085D01*
X-27110087Y-26978031D01*
X-27105655Y-26974345D01*
X-26975853Y-26818276D01*
X-26876666Y-26641165D01*
X-26874810Y-26635698D01*
X-26874808Y-26635693D01*
X-26813272Y-26454414D01*
X-26813271Y-26454409D01*
X-26811416Y-26448945D01*
X-26810588Y-26443236D01*
X-26810587Y-26443231D01*
X-26782821Y-26251727D01*
X-26782288Y-26248053D01*
X-26780768Y-26190000D01*
X-26783436Y-26160964D01*
X-26458852Y-26160964D01*
X-26445576Y-26363522D01*
X-26444155Y-26369118D01*
X-26444154Y-26369123D01*
X-26412045Y-26495548D01*
X-26395608Y-26560269D01*
X-26393191Y-26565512D01*
X-26356088Y-26645994D01*
X-26310623Y-26744616D01*
X-26193467Y-26910389D01*
X-26048062Y-27052035D01*
X-25879280Y-27164812D01*
X-25873977Y-27167090D01*
X-25873974Y-27167092D01*
X-25785293Y-27205192D01*
X-25692772Y-27244942D01*
X-25627860Y-27259630D01*
X-25500421Y-27288467D01*
X-25500416Y-27288468D01*
X-25494784Y-27289742D01*
X-25489013Y-27289969D01*
X-25489011Y-27289969D01*
X-25429244Y-27292317D01*
X-25291947Y-27297712D01*
X-25181404Y-27281684D01*
X-25096769Y-27269413D01*
X-25096764Y-27269412D01*
X-25091055Y-27268584D01*
X-25085591Y-27266729D01*
X-25085586Y-27266728D01*
X-24904307Y-27205192D01*
X-24904302Y-27205190D01*
X-24898835Y-27203334D01*
X-24892981Y-27200056D01*
X-24762408Y-27126931D01*
X-24721724Y-27104147D01*
X-24681971Y-27071085D01*
X-24570087Y-26978031D01*
X-24565655Y-26974345D01*
X-24435853Y-26818276D01*
X-24336666Y-26641165D01*
X-24334810Y-26635698D01*
X-24334808Y-26635693D01*
X-24273272Y-26454414D01*
X-24273271Y-26454409D01*
X-24271416Y-26448945D01*
X-24270588Y-26443236D01*
X-24270587Y-26443231D01*
X-24242821Y-26251727D01*
X-24242288Y-26248053D01*
X-24240768Y-26190000D01*
X-24243436Y-26160964D01*
X-23918852Y-26160964D01*
X-23905576Y-26363522D01*
X-23904155Y-26369118D01*
X-23904154Y-26369123D01*
X-23872045Y-26495548D01*
X-23855608Y-26560269D01*
X-23853191Y-26565512D01*
X-23816088Y-26645994D01*
X-23770623Y-26744616D01*
X-23653467Y-26910389D01*
X-23508062Y-27052035D01*
X-23339280Y-27164812D01*
X-23333977Y-27167090D01*
X-23333974Y-27167092D01*
X-23245293Y-27205192D01*
X-23152772Y-27244942D01*
X-23087860Y-27259630D01*
X-22960421Y-27288467D01*
X-22960416Y-27288468D01*
X-22954784Y-27289742D01*
X-22949013Y-27289969D01*
X-22949011Y-27289969D01*
X-22889244Y-27292317D01*
X-22751947Y-27297712D01*
X-22641404Y-27281684D01*
X-22556769Y-27269413D01*
X-22556764Y-27269412D01*
X-22551055Y-27268584D01*
X-22545591Y-27266729D01*
X-22545586Y-27266728D01*
X-22364307Y-27205192D01*
X-22364302Y-27205190D01*
X-22358835Y-27203334D01*
X-22352981Y-27200056D01*
X-22222408Y-27126931D01*
X-22181724Y-27104147D01*
X-22141971Y-27071085D01*
X-22030087Y-26978031D01*
X-22025655Y-26974345D01*
X-21895853Y-26818276D01*
X-21796666Y-26641165D01*
X-21794810Y-26635698D01*
X-21794808Y-26635693D01*
X-21733272Y-26454414D01*
X-21733271Y-26454409D01*
X-21731416Y-26448945D01*
X-21730588Y-26443236D01*
X-21730587Y-26443231D01*
X-21702821Y-26251727D01*
X-21702288Y-26248053D01*
X-21700768Y-26190000D01*
X-21703436Y-26160964D01*
X-21378852Y-26160964D01*
X-21365576Y-26363522D01*
X-21364155Y-26369118D01*
X-21364154Y-26369123D01*
X-21332045Y-26495548D01*
X-21315608Y-26560269D01*
X-21313191Y-26565512D01*
X-21276088Y-26645994D01*
X-21230623Y-26744616D01*
X-21113467Y-26910389D01*
X-20968062Y-27052035D01*
X-20799280Y-27164812D01*
X-20793977Y-27167090D01*
X-20793974Y-27167092D01*
X-20705293Y-27205192D01*
X-20612772Y-27244942D01*
X-20547860Y-27259630D01*
X-20420421Y-27288467D01*
X-20420416Y-27288468D01*
X-20414784Y-27289742D01*
X-20409013Y-27289969D01*
X-20409011Y-27289969D01*
X-20349244Y-27292317D01*
X-20211947Y-27297712D01*
X-20101404Y-27281684D01*
X-20016769Y-27269413D01*
X-20016764Y-27269412D01*
X-20011055Y-27268584D01*
X-20005591Y-27266729D01*
X-20005586Y-27266728D01*
X-19824307Y-27205192D01*
X-19824302Y-27205190D01*
X-19818835Y-27203334D01*
X-19812981Y-27200056D01*
X-19682408Y-27126931D01*
X-19641724Y-27104147D01*
X-19601971Y-27071085D01*
X-19490087Y-26978031D01*
X-19485655Y-26974345D01*
X-19355853Y-26818276D01*
X-19256666Y-26641165D01*
X-19254810Y-26635698D01*
X-19254808Y-26635693D01*
X-19193272Y-26454414D01*
X-19193271Y-26454409D01*
X-19191416Y-26448945D01*
X-19190588Y-26443236D01*
X-19190587Y-26443231D01*
X-19162821Y-26251727D01*
X-19162288Y-26248053D01*
X-19160768Y-26190000D01*
X-19163436Y-26160964D01*
X-18838852Y-26160964D01*
X-18825576Y-26363522D01*
X-18824155Y-26369118D01*
X-18824154Y-26369123D01*
X-18792045Y-26495548D01*
X-18775608Y-26560269D01*
X-18773191Y-26565512D01*
X-18736088Y-26645994D01*
X-18690623Y-26744616D01*
X-18573467Y-26910389D01*
X-18428062Y-27052035D01*
X-18259280Y-27164812D01*
X-18253977Y-27167090D01*
X-18253974Y-27167092D01*
X-18165293Y-27205192D01*
X-18072772Y-27244942D01*
X-18007860Y-27259630D01*
X-17880421Y-27288467D01*
X-17880416Y-27288468D01*
X-17874784Y-27289742D01*
X-17869013Y-27289969D01*
X-17869011Y-27289969D01*
X-17809244Y-27292317D01*
X-17671947Y-27297712D01*
X-17561404Y-27281684D01*
X-17476769Y-27269413D01*
X-17476764Y-27269412D01*
X-17471055Y-27268584D01*
X-17465591Y-27266729D01*
X-17465586Y-27266728D01*
X-17284307Y-27205192D01*
X-17284302Y-27205190D01*
X-17278835Y-27203334D01*
X-17272981Y-27200056D01*
X-17142408Y-27126931D01*
X-17101724Y-27104147D01*
X-17061971Y-27071085D01*
X-16950087Y-26978031D01*
X-16945655Y-26974345D01*
X-16815853Y-26818276D01*
X-16716666Y-26641165D01*
X-16714810Y-26635698D01*
X-16714808Y-26635693D01*
X-16653272Y-26454414D01*
X-16653271Y-26454409D01*
X-16651416Y-26448945D01*
X-16650588Y-26443236D01*
X-16650587Y-26443231D01*
X-16622821Y-26251727D01*
X-16622288Y-26248053D01*
X-16620768Y-26190000D01*
X-16623436Y-26160964D01*
X-16298852Y-26160964D01*
X-16285576Y-26363522D01*
X-16284155Y-26369118D01*
X-16284154Y-26369123D01*
X-16252045Y-26495548D01*
X-16235608Y-26560269D01*
X-16233191Y-26565512D01*
X-16196088Y-26645994D01*
X-16150623Y-26744616D01*
X-16033467Y-26910389D01*
X-15888062Y-27052035D01*
X-15719280Y-27164812D01*
X-15713977Y-27167090D01*
X-15713974Y-27167092D01*
X-15625293Y-27205192D01*
X-15532772Y-27244942D01*
X-15467860Y-27259630D01*
X-15340421Y-27288467D01*
X-15340416Y-27288468D01*
X-15334784Y-27289742D01*
X-15329013Y-27289969D01*
X-15329011Y-27289969D01*
X-15269244Y-27292317D01*
X-15131947Y-27297712D01*
X-15021404Y-27281684D01*
X-14936769Y-27269413D01*
X-14936764Y-27269412D01*
X-14931055Y-27268584D01*
X-14925591Y-27266729D01*
X-14925586Y-27266728D01*
X-14744307Y-27205192D01*
X-14744302Y-27205190D01*
X-14738835Y-27203334D01*
X-14732981Y-27200056D01*
X-14602408Y-27126931D01*
X-14561724Y-27104147D01*
X-14521971Y-27071085D01*
X-14410087Y-26978031D01*
X-14405655Y-26974345D01*
X-14275853Y-26818276D01*
X-14176666Y-26641165D01*
X-14174810Y-26635698D01*
X-14174808Y-26635693D01*
X-14113272Y-26454414D01*
X-14113271Y-26454409D01*
X-14111416Y-26448945D01*
X-14110588Y-26443236D01*
X-14110587Y-26443231D01*
X-14082821Y-26251727D01*
X-14082288Y-26248053D01*
X-14080768Y-26190000D01*
X-14083436Y-26160964D01*
X-13758852Y-26160964D01*
X-13745576Y-26363522D01*
X-13744155Y-26369118D01*
X-13744154Y-26369123D01*
X-13712045Y-26495548D01*
X-13695608Y-26560269D01*
X-13693191Y-26565512D01*
X-13656088Y-26645994D01*
X-13610623Y-26744616D01*
X-13493467Y-26910389D01*
X-13348062Y-27052035D01*
X-13179280Y-27164812D01*
X-13173977Y-27167090D01*
X-13173974Y-27167092D01*
X-13085293Y-27205192D01*
X-12992772Y-27244942D01*
X-12927860Y-27259630D01*
X-12800421Y-27288467D01*
X-12800416Y-27288468D01*
X-12794784Y-27289742D01*
X-12789013Y-27289969D01*
X-12789011Y-27289969D01*
X-12729244Y-27292317D01*
X-12591947Y-27297712D01*
X-12481404Y-27281684D01*
X-12396769Y-27269413D01*
X-12396764Y-27269412D01*
X-12391055Y-27268584D01*
X-12385591Y-27266729D01*
X-12385586Y-27266728D01*
X-12204307Y-27205192D01*
X-12204302Y-27205190D01*
X-12198835Y-27203334D01*
X-12192981Y-27200056D01*
X-12062408Y-27126931D01*
X-12021724Y-27104147D01*
X-11981971Y-27071085D01*
X-11870087Y-26978031D01*
X-11865655Y-26974345D01*
X-11735853Y-26818276D01*
X-11636666Y-26641165D01*
X-11634810Y-26635698D01*
X-11634808Y-26635693D01*
X-11573272Y-26454414D01*
X-11573271Y-26454409D01*
X-11571416Y-26448945D01*
X-11570588Y-26443236D01*
X-11570587Y-26443231D01*
X-11542821Y-26251727D01*
X-11542288Y-26248053D01*
X-11540768Y-26190000D01*
X-11543436Y-26160964D01*
X-11218852Y-26160964D01*
X-11205576Y-26363522D01*
X-11204155Y-26369118D01*
X-11204154Y-26369123D01*
X-11172045Y-26495548D01*
X-11155608Y-26560269D01*
X-11153191Y-26565512D01*
X-11116088Y-26645994D01*
X-11070623Y-26744616D01*
X-10953467Y-26910389D01*
X-10808062Y-27052035D01*
X-10639280Y-27164812D01*
X-10633977Y-27167090D01*
X-10633974Y-27167092D01*
X-10545293Y-27205192D01*
X-10452772Y-27244942D01*
X-10387860Y-27259630D01*
X-10260421Y-27288467D01*
X-10260416Y-27288468D01*
X-10254784Y-27289742D01*
X-10249013Y-27289969D01*
X-10249011Y-27289969D01*
X-10189244Y-27292317D01*
X-10051947Y-27297712D01*
X-9941404Y-27281684D01*
X-9856769Y-27269413D01*
X-9856764Y-27269412D01*
X-9851055Y-27268584D01*
X-9845591Y-27266729D01*
X-9845586Y-27266728D01*
X-9664307Y-27205192D01*
X-9664302Y-27205190D01*
X-9658835Y-27203334D01*
X-9652981Y-27200056D01*
X-9522408Y-27126931D01*
X-9481724Y-27104147D01*
X-9441971Y-27071085D01*
X-9330087Y-26978031D01*
X-9325655Y-26974345D01*
X-9195853Y-26818276D01*
X-9096666Y-26641165D01*
X-9094810Y-26635698D01*
X-9094808Y-26635693D01*
X-9033272Y-26454414D01*
X-9033271Y-26454409D01*
X-9031416Y-26448945D01*
X-9030588Y-26443236D01*
X-9030587Y-26443231D01*
X-9002821Y-26251727D01*
X-9002288Y-26248053D01*
X-9000768Y-26190000D01*
X-9019342Y-25987859D01*
X-9024958Y-25967945D01*
X-9072875Y-25798046D01*
X-9072876Y-25798044D01*
X-9074443Y-25792487D01*
X-9085022Y-25771033D01*
X-9161669Y-25615609D01*
X-9164224Y-25610428D01*
X-9285680Y-25447779D01*
X-9434742Y-25309987D01*
X-9439625Y-25306906D01*
X-9439629Y-25306903D01*
X-9597349Y-25207390D01*
X-9606419Y-25201667D01*
X-9794961Y-25126446D01*
X-9800621Y-25125320D01*
X-9800625Y-25125319D01*
X-9988387Y-25087971D01*
X-9988390Y-25087971D01*
X-9994054Y-25086844D01*
X-9999829Y-25086768D01*
X-9999833Y-25086768D01*
X-10101207Y-25085441D01*
X-10197029Y-25084187D01*
X-10202726Y-25085166D01*
X-10202727Y-25085166D01*
X-10333470Y-25107632D01*
X-10397090Y-25118564D01*
X-10587537Y-25188824D01*
X-10761990Y-25292612D01*
X-10766330Y-25296418D01*
X-10766334Y-25296421D01*
X-10844640Y-25365094D01*
X-10914608Y-25426455D01*
X-11040280Y-25585869D01*
X-11042969Y-25590980D01*
X-11042971Y-25590983D01*
X-11055213Y-25614251D01*
X-11134797Y-25765515D01*
X-11194993Y-25959378D01*
X-11218852Y-26160964D01*
X-11543436Y-26160964D01*
X-11559342Y-25987859D01*
X-11564958Y-25967945D01*
X-11612875Y-25798046D01*
X-11612876Y-25798044D01*
X-11614443Y-25792487D01*
X-11625022Y-25771033D01*
X-11701669Y-25615609D01*
X-11704224Y-25610428D01*
X-11825680Y-25447779D01*
X-11974742Y-25309987D01*
X-11979625Y-25306906D01*
X-11979629Y-25306903D01*
X-12137349Y-25207390D01*
X-12146419Y-25201667D01*
X-12334961Y-25126446D01*
X-12340621Y-25125320D01*
X-12340625Y-25125319D01*
X-12528387Y-25087971D01*
X-12528390Y-25087971D01*
X-12534054Y-25086844D01*
X-12539829Y-25086768D01*
X-12539833Y-25086768D01*
X-12641207Y-25085441D01*
X-12737029Y-25084187D01*
X-12742726Y-25085166D01*
X-12742727Y-25085166D01*
X-12873470Y-25107632D01*
X-12937090Y-25118564D01*
X-13127537Y-25188824D01*
X-13301990Y-25292612D01*
X-13306330Y-25296418D01*
X-13306334Y-25296421D01*
X-13384640Y-25365094D01*
X-13454608Y-25426455D01*
X-13580280Y-25585869D01*
X-13582969Y-25590980D01*
X-13582971Y-25590983D01*
X-13595213Y-25614251D01*
X-13674797Y-25765515D01*
X-13734993Y-25959378D01*
X-13758852Y-26160964D01*
X-14083436Y-26160964D01*
X-14099342Y-25987859D01*
X-14104958Y-25967945D01*
X-14152875Y-25798046D01*
X-14152876Y-25798044D01*
X-14154443Y-25792487D01*
X-14165022Y-25771033D01*
X-14241669Y-25615609D01*
X-14244224Y-25610428D01*
X-14365680Y-25447779D01*
X-14514742Y-25309987D01*
X-14519625Y-25306906D01*
X-14519629Y-25306903D01*
X-14677349Y-25207390D01*
X-14686419Y-25201667D01*
X-14874961Y-25126446D01*
X-14880621Y-25125320D01*
X-14880625Y-25125319D01*
X-15068387Y-25087971D01*
X-15068390Y-25087971D01*
X-15074054Y-25086844D01*
X-15079829Y-25086768D01*
X-15079833Y-25086768D01*
X-15181207Y-25085441D01*
X-15277029Y-25084187D01*
X-15282726Y-25085166D01*
X-15282727Y-25085166D01*
X-15413470Y-25107632D01*
X-15477090Y-25118564D01*
X-15667537Y-25188824D01*
X-15841990Y-25292612D01*
X-15846330Y-25296418D01*
X-15846334Y-25296421D01*
X-15924640Y-25365094D01*
X-15994608Y-25426455D01*
X-16120280Y-25585869D01*
X-16122969Y-25590980D01*
X-16122971Y-25590983D01*
X-16135213Y-25614251D01*
X-16214797Y-25765515D01*
X-16274993Y-25959378D01*
X-16298852Y-26160964D01*
X-16623436Y-26160964D01*
X-16639342Y-25987859D01*
X-16644958Y-25967945D01*
X-16692875Y-25798046D01*
X-16692876Y-25798044D01*
X-16694443Y-25792487D01*
X-16705022Y-25771033D01*
X-16781669Y-25615609D01*
X-16784224Y-25610428D01*
X-16905680Y-25447779D01*
X-17054742Y-25309987D01*
X-17059625Y-25306906D01*
X-17059629Y-25306903D01*
X-17217349Y-25207390D01*
X-17226419Y-25201667D01*
X-17414961Y-25126446D01*
X-17420621Y-25125320D01*
X-17420625Y-25125319D01*
X-17608387Y-25087971D01*
X-17608390Y-25087971D01*
X-17614054Y-25086844D01*
X-17619829Y-25086768D01*
X-17619833Y-25086768D01*
X-17721207Y-25085441D01*
X-17817029Y-25084187D01*
X-17822726Y-25085166D01*
X-17822727Y-25085166D01*
X-17953470Y-25107632D01*
X-18017090Y-25118564D01*
X-18207537Y-25188824D01*
X-18381990Y-25292612D01*
X-18386330Y-25296418D01*
X-18386334Y-25296421D01*
X-18464640Y-25365094D01*
X-18534608Y-25426455D01*
X-18660280Y-25585869D01*
X-18662969Y-25590980D01*
X-18662971Y-25590983D01*
X-18675213Y-25614251D01*
X-18754797Y-25765515D01*
X-18814993Y-25959378D01*
X-18838852Y-26160964D01*
X-19163436Y-26160964D01*
X-19179342Y-25987859D01*
X-19184958Y-25967945D01*
X-19232875Y-25798046D01*
X-19232876Y-25798044D01*
X-19234443Y-25792487D01*
X-19245022Y-25771033D01*
X-19321669Y-25615609D01*
X-19324224Y-25610428D01*
X-19445680Y-25447779D01*
X-19594742Y-25309987D01*
X-19599625Y-25306906D01*
X-19599629Y-25306903D01*
X-19757349Y-25207390D01*
X-19766419Y-25201667D01*
X-19954961Y-25126446D01*
X-19960621Y-25125320D01*
X-19960625Y-25125319D01*
X-20148387Y-25087971D01*
X-20148390Y-25087971D01*
X-20154054Y-25086844D01*
X-20159829Y-25086768D01*
X-20159833Y-25086768D01*
X-20261207Y-25085441D01*
X-20357029Y-25084187D01*
X-20362726Y-25085166D01*
X-20362727Y-25085166D01*
X-20493470Y-25107632D01*
X-20557090Y-25118564D01*
X-20747537Y-25188824D01*
X-20921990Y-25292612D01*
X-20926330Y-25296418D01*
X-20926334Y-25296421D01*
X-21004640Y-25365094D01*
X-21074608Y-25426455D01*
X-21200280Y-25585869D01*
X-21202969Y-25590980D01*
X-21202971Y-25590983D01*
X-21215213Y-25614251D01*
X-21294797Y-25765515D01*
X-21354993Y-25959378D01*
X-21378852Y-26160964D01*
X-21703436Y-26160964D01*
X-21719342Y-25987859D01*
X-21724958Y-25967945D01*
X-21772875Y-25798046D01*
X-21772876Y-25798044D01*
X-21774443Y-25792487D01*
X-21785022Y-25771033D01*
X-21861669Y-25615609D01*
X-21864224Y-25610428D01*
X-21985680Y-25447779D01*
X-22134742Y-25309987D01*
X-22139625Y-25306906D01*
X-22139629Y-25306903D01*
X-22297349Y-25207390D01*
X-22306419Y-25201667D01*
X-22494961Y-25126446D01*
X-22500621Y-25125320D01*
X-22500625Y-25125319D01*
X-22688387Y-25087971D01*
X-22688390Y-25087971D01*
X-22694054Y-25086844D01*
X-22699829Y-25086768D01*
X-22699833Y-25086768D01*
X-22801207Y-25085441D01*
X-22897029Y-25084187D01*
X-22902726Y-25085166D01*
X-22902727Y-25085166D01*
X-23033470Y-25107632D01*
X-23097090Y-25118564D01*
X-23287537Y-25188824D01*
X-23461990Y-25292612D01*
X-23466330Y-25296418D01*
X-23466334Y-25296421D01*
X-23544640Y-25365094D01*
X-23614608Y-25426455D01*
X-23740280Y-25585869D01*
X-23742969Y-25590980D01*
X-23742971Y-25590983D01*
X-23755213Y-25614251D01*
X-23834797Y-25765515D01*
X-23894993Y-25959378D01*
X-23918852Y-26160964D01*
X-24243436Y-26160964D01*
X-24259342Y-25987859D01*
X-24264958Y-25967945D01*
X-24312875Y-25798046D01*
X-24312876Y-25798044D01*
X-24314443Y-25792487D01*
X-24325022Y-25771033D01*
X-24401669Y-25615609D01*
X-24404224Y-25610428D01*
X-24525680Y-25447779D01*
X-24674742Y-25309987D01*
X-24679625Y-25306906D01*
X-24679629Y-25306903D01*
X-24837349Y-25207390D01*
X-24846419Y-25201667D01*
X-25034961Y-25126446D01*
X-25040621Y-25125320D01*
X-25040625Y-25125319D01*
X-25228387Y-25087971D01*
X-25228390Y-25087971D01*
X-25234054Y-25086844D01*
X-25239829Y-25086768D01*
X-25239833Y-25086768D01*
X-25341207Y-25085441D01*
X-25437029Y-25084187D01*
X-25442726Y-25085166D01*
X-25442727Y-25085166D01*
X-25573470Y-25107632D01*
X-25637090Y-25118564D01*
X-25827537Y-25188824D01*
X-26001990Y-25292612D01*
X-26006330Y-25296418D01*
X-26006334Y-25296421D01*
X-26084640Y-25365094D01*
X-26154608Y-25426455D01*
X-26280280Y-25585869D01*
X-26282969Y-25590980D01*
X-26282971Y-25590983D01*
X-26295213Y-25614251D01*
X-26374797Y-25765515D01*
X-26434993Y-25959378D01*
X-26458852Y-26160964D01*
X-26783436Y-26160964D01*
X-26799342Y-25987859D01*
X-26804958Y-25967945D01*
X-26852875Y-25798046D01*
X-26852876Y-25798044D01*
X-26854443Y-25792487D01*
X-26865022Y-25771033D01*
X-26941669Y-25615609D01*
X-26944224Y-25610428D01*
X-27065680Y-25447779D01*
X-27214742Y-25309987D01*
X-27219625Y-25306906D01*
X-27219629Y-25306903D01*
X-27377349Y-25207390D01*
X-27386419Y-25201667D01*
X-27574961Y-25126446D01*
X-27580621Y-25125320D01*
X-27580625Y-25125319D01*
X-27768387Y-25087971D01*
X-27768390Y-25087971D01*
X-27774054Y-25086844D01*
X-27779829Y-25086768D01*
X-27779833Y-25086768D01*
X-27881207Y-25085441D01*
X-27977029Y-25084187D01*
X-27982726Y-25085166D01*
X-27982727Y-25085166D01*
X-28113470Y-25107632D01*
X-28177090Y-25118564D01*
X-28367537Y-25188824D01*
X-28541990Y-25292612D01*
X-28546330Y-25296418D01*
X-28546334Y-25296421D01*
X-28624640Y-25365094D01*
X-28694608Y-25426455D01*
X-28820280Y-25585869D01*
X-28822969Y-25590980D01*
X-28822971Y-25590983D01*
X-28835213Y-25614251D01*
X-28914797Y-25765515D01*
X-28974993Y-25959378D01*
X-28998852Y-26160964D01*
X-29323436Y-26160964D01*
X-29339342Y-25987859D01*
X-29344958Y-25967945D01*
X-29392875Y-25798046D01*
X-29392876Y-25798044D01*
X-29394443Y-25792487D01*
X-29405022Y-25771033D01*
X-29481669Y-25615609D01*
X-29484224Y-25610428D01*
X-29605680Y-25447779D01*
X-29754742Y-25309987D01*
X-29759625Y-25306906D01*
X-29759629Y-25306903D01*
X-29917349Y-25207390D01*
X-29926419Y-25201667D01*
X-30114961Y-25126446D01*
X-30120621Y-25125320D01*
X-30120625Y-25125319D01*
X-30308387Y-25087971D01*
X-30308390Y-25087971D01*
X-30314054Y-25086844D01*
X-30319829Y-25086768D01*
X-30319833Y-25086768D01*
X-30421207Y-25085441D01*
X-30517029Y-25084187D01*
X-30522726Y-25085166D01*
X-30522727Y-25085166D01*
X-30653470Y-25107632D01*
X-30717090Y-25118564D01*
X-30907537Y-25188824D01*
X-31081990Y-25292612D01*
X-31086330Y-25296418D01*
X-31086334Y-25296421D01*
X-31164640Y-25365094D01*
X-31234608Y-25426455D01*
X-31360280Y-25585869D01*
X-31362969Y-25590980D01*
X-31362971Y-25590983D01*
X-31375213Y-25614251D01*
X-31454797Y-25765515D01*
X-31514993Y-25959378D01*
X-31538852Y-26160964D01*
X-31863436Y-26160964D01*
X-31879342Y-25987859D01*
X-31884958Y-25967945D01*
X-31932875Y-25798046D01*
X-31932876Y-25798044D01*
X-31934443Y-25792487D01*
X-31945022Y-25771033D01*
X-32021669Y-25615609D01*
X-32024224Y-25610428D01*
X-32145680Y-25447779D01*
X-32294742Y-25309987D01*
X-32299625Y-25306906D01*
X-32299629Y-25306903D01*
X-32457349Y-25207390D01*
X-32466419Y-25201667D01*
X-32654961Y-25126446D01*
X-32660621Y-25125320D01*
X-32660625Y-25125319D01*
X-32848387Y-25087971D01*
X-32848390Y-25087971D01*
X-32854054Y-25086844D01*
X-32859829Y-25086768D01*
X-32859833Y-25086768D01*
X-32961207Y-25085441D01*
X-33057029Y-25084187D01*
X-33062726Y-25085166D01*
X-33062727Y-25085166D01*
X-33193470Y-25107632D01*
X-33257090Y-25118564D01*
X-33447537Y-25188824D01*
X-33621990Y-25292612D01*
X-33626330Y-25296418D01*
X-33626334Y-25296421D01*
X-33704640Y-25365094D01*
X-33774608Y-25426455D01*
X-33900280Y-25585869D01*
X-33902969Y-25590980D01*
X-33902971Y-25590983D01*
X-33915213Y-25614251D01*
X-33994797Y-25765515D01*
X-34054993Y-25959378D01*
X-34078852Y-26160964D01*
X-34403436Y-26160964D01*
X-34419342Y-25987859D01*
X-34424958Y-25967945D01*
X-34472875Y-25798046D01*
X-34472876Y-25798044D01*
X-34474443Y-25792487D01*
X-34485022Y-25771033D01*
X-34561669Y-25615609D01*
X-34564224Y-25610428D01*
X-34685680Y-25447779D01*
X-34834742Y-25309987D01*
X-34839625Y-25306906D01*
X-34839629Y-25306903D01*
X-34997349Y-25207390D01*
X-35006419Y-25201667D01*
X-35194961Y-25126446D01*
X-35200621Y-25125320D01*
X-35200625Y-25125319D01*
X-35388387Y-25087971D01*
X-35388390Y-25087971D01*
X-35394054Y-25086844D01*
X-35399829Y-25086768D01*
X-35399833Y-25086768D01*
X-35501207Y-25085441D01*
X-35597029Y-25084187D01*
X-35602726Y-25085166D01*
X-35602727Y-25085166D01*
X-35733470Y-25107632D01*
X-35797090Y-25118564D01*
X-35987537Y-25188824D01*
X-36161990Y-25292612D01*
X-36166330Y-25296418D01*
X-36166334Y-25296421D01*
X-36244640Y-25365094D01*
X-36314608Y-25426455D01*
X-36440280Y-25585869D01*
X-36442969Y-25590980D01*
X-36442971Y-25590983D01*
X-36455213Y-25614251D01*
X-36534797Y-25765515D01*
X-36594993Y-25959378D01*
X-36618852Y-26160964D01*
X-44641672Y-26160964D01*
X-44641245Y-26152383D01*
X-44641245Y-26152377D01*
X-44641018Y-26147814D01*
X-44662955Y-25917885D01*
X-39154000Y-25917885D01*
X-39149525Y-25933124D01*
X-39148135Y-25934329D01*
X-39140452Y-25936000D01*
X-38322115Y-25936000D01*
X-38306876Y-25931525D01*
X-38305671Y-25930135D01*
X-38304000Y-25922452D01*
X-38304000Y-25917885D01*
X-37796000Y-25917885D01*
X-37791525Y-25933124D01*
X-37790135Y-25934329D01*
X-37782452Y-25936000D01*
X-36964116Y-25936000D01*
X-36948877Y-25931525D01*
X-36947672Y-25930135D01*
X-36946001Y-25922452D01*
X-36946001Y-25321172D01*
X-36947209Y-25308912D01*
X-36958315Y-25253069D01*
X-36967633Y-25230573D01*
X-37009983Y-25167192D01*
X-37027192Y-25149983D01*
X-37090575Y-25107632D01*
X-37113066Y-25098316D01*
X-37168915Y-25087207D01*
X-37181170Y-25086000D01*
X-37777885Y-25086000D01*
X-37793124Y-25090475D01*
X-37794329Y-25091865D01*
X-37796000Y-25099548D01*
X-37796000Y-25917885D01*
X-38304000Y-25917885D01*
X-38304000Y-25104116D01*
X-38308475Y-25088877D01*
X-38309865Y-25087672D01*
X-38317548Y-25086001D01*
X-38918828Y-25086001D01*
X-38931088Y-25087209D01*
X-38986931Y-25098315D01*
X-39009427Y-25107633D01*
X-39072808Y-25149983D01*
X-39090017Y-25167192D01*
X-39132368Y-25230575D01*
X-39141684Y-25253066D01*
X-39152793Y-25308915D01*
X-39154000Y-25321170D01*
X-39154000Y-25917885D01*
X-44662955Y-25917885D01*
X-44666579Y-25879900D01*
X-44687968Y-25792487D01*
X-44729461Y-25622920D01*
X-44730547Y-25618482D01*
X-44831583Y-25369037D01*
X-44937102Y-25188824D01*
X-44965259Y-25140735D01*
X-44965260Y-25140734D01*
X-44967569Y-25136790D01*
X-45135658Y-24926605D01*
X-45332327Y-24742887D01*
X-45553457Y-24589484D01*
X-45794416Y-24469609D01*
X-45798750Y-24468188D01*
X-45798753Y-24468187D01*
X-46045823Y-24387193D01*
X-46045829Y-24387192D01*
X-46050156Y-24385773D01*
X-46054648Y-24384993D01*
X-46311538Y-24340389D01*
X-46311546Y-24340388D01*
X-46315319Y-24339733D01*
X-46325282Y-24339237D01*
X-46398777Y-24335578D01*
X-46398785Y-24335578D01*
X-46400348Y-24335500D01*
X-46568374Y-24335500D01*
X-46570642Y-24335665D01*
X-46570654Y-24335665D01*
X-46701457Y-24345156D01*
X-46768425Y-24350015D01*
X-46772880Y-24350999D01*
X-46772883Y-24350999D01*
X-47026770Y-24407053D01*
X-47026772Y-24407054D01*
X-47031226Y-24408037D01*
X-47282900Y-24503387D01*
X-47518172Y-24634069D01*
X-47521804Y-24636841D01*
X-47728491Y-24794579D01*
X-47728495Y-24794583D01*
X-47732116Y-24797346D01*
X-47920249Y-24989797D01*
X-47922934Y-24993486D01*
X-48075942Y-25203696D01*
X-48075947Y-25203703D01*
X-48078630Y-25207390D01*
X-48203941Y-25445567D01*
X-48293557Y-25699338D01*
X-48313012Y-25798046D01*
X-48339873Y-25934329D01*
X-48345601Y-25963389D01*
X-48345828Y-25967942D01*
X-48345828Y-25967945D01*
X-48358070Y-26213871D01*
X-48358982Y-26232186D01*
X-50544111Y-26232186D01*
X-50544393Y-26225929D01*
X-50543472Y-26213871D01*
X-50543459Y-26202470D01*
X-50541024Y-26190301D01*
X-50543607Y-26177236D01*
X-50546000Y-26152798D01*
X-50546000Y-18674461D01*
X-44040101Y-18674461D01*
X-44030219Y-18686950D01*
X-43987801Y-18715292D01*
X-43977693Y-18720780D01*
X-43793436Y-18799943D01*
X-43782503Y-18803495D01*
X-43586909Y-18847754D01*
X-43575500Y-18849256D01*
X-43375114Y-18857129D01*
X-43363632Y-18856527D01*
X-43165164Y-18827751D01*
X-43153981Y-18825066D01*
X-42964083Y-18760604D01*
X-42953580Y-18755928D01*
X-42828170Y-18685696D01*
X-42818307Y-18675619D01*
X-42821262Y-18667949D01*
X-43417189Y-18072021D01*
X-43431132Y-18064408D01*
X-43432966Y-18064539D01*
X-43439580Y-18068790D01*
X-44033908Y-18663119D01*
X-44040101Y-18674461D01*
X-50546000Y-18674461D01*
X-50546000Y-17675428D01*
X-44588169Y-17675428D01*
X-44575053Y-17875531D01*
X-44573252Y-17886901D01*
X-44523891Y-18081263D01*
X-44520050Y-18092110D01*
X-44436093Y-18274227D01*
X-44430342Y-18284188D01*
X-44417219Y-18302758D01*
X-44406629Y-18311147D01*
X-44393331Y-18304120D01*
X-43802021Y-17712811D01*
X-43795644Y-17701132D01*
X-43065592Y-17701132D01*
X-43065461Y-17702966D01*
X-43061210Y-17709580D01*
X-42465963Y-18304826D01*
X-42453588Y-18311583D01*
X-42447008Y-18306657D01*
X-42374072Y-18176420D01*
X-42369396Y-18165917D01*
X-42304934Y-17976019D01*
X-42302250Y-17964837D01*
X-42295195Y-17916184D01*
X-42265625Y-17851639D01*
X-42205852Y-17813326D01*
X-42134856Y-17813412D01*
X-42075176Y-17851867D01*
X-42045760Y-17916483D01*
X-42044499Y-17934260D01*
X-42044499Y-18625066D01*
X-42029734Y-18699301D01*
X-41973484Y-18783484D01*
X-41889301Y-18839734D01*
X-41815067Y-18854500D01*
X-40890150Y-18854500D01*
X-39964934Y-18854499D01*
X-39929182Y-18847388D01*
X-39902874Y-18842156D01*
X-39902872Y-18842155D01*
X-39890699Y-18839734D01*
X-39880379Y-18832839D01*
X-39880378Y-18832838D01*
X-39816832Y-18790377D01*
X-39806516Y-18783484D01*
X-39750266Y-18699301D01*
X-39735500Y-18625067D01*
X-39735501Y-16774934D01*
X-39750266Y-16700699D01*
X-39806516Y-16616516D01*
X-39890699Y-16560266D01*
X-39964933Y-16545500D01*
X-40889850Y-16545500D01*
X-41815066Y-16545501D01*
X-41850818Y-16552612D01*
X-41877126Y-16557844D01*
X-41877128Y-16557845D01*
X-41889301Y-16560266D01*
X-41899621Y-16567161D01*
X-41899622Y-16567162D01*
X-41960015Y-16607516D01*
X-41973484Y-16616516D01*
X-42029734Y-16700699D01*
X-42044500Y-16774933D01*
X-42044500Y-17449968D01*
X-42064502Y-17518089D01*
X-42118158Y-17564582D01*
X-42188432Y-17574686D01*
X-42253012Y-17545192D01*
X-42291769Y-17484169D01*
X-42346464Y-17290233D01*
X-42350587Y-17279492D01*
X-42439282Y-17099636D01*
X-42442429Y-17094501D01*
X-42452263Y-17087120D01*
X-42464679Y-17093890D01*
X-43057979Y-17687189D01*
X-43065592Y-17701132D01*
X-43795644Y-17701132D01*
X-43794408Y-17698868D01*
X-43794539Y-17697034D01*
X-43798790Y-17690420D01*
X-44395523Y-17093688D01*
X-44407898Y-17086931D01*
X-44413864Y-17091397D01*
X-44498033Y-17251375D01*
X-44502438Y-17262009D01*
X-44561905Y-17453525D01*
X-44564297Y-17464779D01*
X-44587868Y-17663927D01*
X-44588169Y-17675428D01*
X-50546000Y-17675428D01*
X-50546000Y-16725113D01*
X-44040774Y-16725113D01*
X-44037287Y-16733502D01*
X-43442811Y-17327979D01*
X-43428868Y-17335592D01*
X-43427034Y-17335461D01*
X-43420420Y-17331210D01*
X-42826364Y-16737153D01*
X-42819607Y-16724778D01*
X-42825637Y-16716722D01*
X-42898964Y-16670456D01*
X-42909215Y-16665233D01*
X-43095473Y-16590924D01*
X-43106509Y-16587655D01*
X-43303191Y-16548532D01*
X-43314636Y-16547329D01*
X-43515148Y-16544705D01*
X-43526628Y-16545608D01*
X-43724260Y-16579567D01*
X-43735380Y-16582547D01*
X-43923522Y-16651956D01*
X-43933900Y-16656906D01*
X-44031176Y-16714780D01*
X-44040774Y-16725113D01*
X-50546000Y-16725113D01*
X-50546000Y-6874461D01*
X-44040101Y-6874461D01*
X-44030219Y-6886950D01*
X-43987801Y-6915292D01*
X-43977693Y-6920780D01*
X-43793436Y-6999943D01*
X-43782503Y-7003495D01*
X-43586909Y-7047754D01*
X-43575500Y-7049256D01*
X-43375114Y-7057129D01*
X-43363632Y-7056527D01*
X-43165164Y-7027751D01*
X-43153981Y-7025066D01*
X-42964083Y-6960604D01*
X-42953580Y-6955928D01*
X-42828170Y-6885696D01*
X-42818307Y-6875619D01*
X-42821262Y-6867949D01*
X-43417189Y-6272021D01*
X-43431132Y-6264408D01*
X-43432966Y-6264539D01*
X-43439580Y-6268790D01*
X-44033908Y-6863119D01*
X-44040101Y-6874461D01*
X-50546000Y-6874461D01*
X-50546000Y-5875428D01*
X-44588169Y-5875428D01*
X-44575053Y-6075531D01*
X-44573252Y-6086901D01*
X-44523891Y-6281263D01*
X-44520050Y-6292110D01*
X-44436093Y-6474227D01*
X-44430342Y-6484188D01*
X-44417219Y-6502758D01*
X-44406629Y-6511147D01*
X-44393331Y-6504120D01*
X-43802021Y-5912811D01*
X-43795644Y-5901132D01*
X-43065592Y-5901132D01*
X-43065461Y-5902966D01*
X-43061210Y-5909580D01*
X-42465963Y-6504826D01*
X-42453588Y-6511583D01*
X-42447008Y-6506657D01*
X-42374072Y-6376420D01*
X-42369396Y-6365917D01*
X-42304934Y-6176019D01*
X-42302250Y-6164837D01*
X-42295195Y-6116184D01*
X-42265625Y-6051639D01*
X-42205852Y-6013326D01*
X-42134856Y-6013412D01*
X-42075176Y-6051867D01*
X-42045760Y-6116483D01*
X-42044499Y-6134260D01*
X-42044499Y-6825066D01*
X-42029734Y-6899301D01*
X-41973484Y-6983484D01*
X-41963168Y-6990377D01*
X-41917363Y-7020983D01*
X-41889301Y-7039734D01*
X-41815067Y-7054500D01*
X-40890150Y-7054500D01*
X-39964934Y-7054499D01*
X-39929182Y-7047388D01*
X-39902874Y-7042156D01*
X-39902872Y-7042155D01*
X-39890699Y-7039734D01*
X-39880379Y-7032839D01*
X-39880378Y-7032838D01*
X-39816832Y-6990377D01*
X-39806516Y-6983484D01*
X-39750266Y-6899301D01*
X-39735500Y-6825067D01*
X-39735500Y-6744933D01*
X-23904500Y-6744933D01*
X-23904499Y-8495066D01*
X-23897461Y-8530453D01*
X-23893332Y-8551210D01*
X-23889734Y-8569301D01*
X-23882839Y-8579620D01*
X-23882838Y-8579622D01*
X-23842484Y-8640015D01*
X-23833484Y-8653484D01*
X-23749301Y-8709734D01*
X-23675067Y-8724500D01*
X-22800142Y-8724500D01*
X-21924934Y-8724499D01*
X-21889182Y-8717388D01*
X-21862874Y-8712156D01*
X-21862872Y-8712155D01*
X-21850699Y-8709734D01*
X-21840379Y-8702839D01*
X-21840378Y-8702838D01*
X-21776832Y-8660377D01*
X-21766516Y-8653484D01*
X-21710266Y-8569301D01*
X-21695500Y-8495067D01*
X-21695501Y-7590964D01*
X-21368852Y-7590964D01*
X-21355576Y-7793522D01*
X-21354155Y-7799118D01*
X-21354154Y-7799123D01*
X-21334336Y-7877153D01*
X-21305608Y-7990269D01*
X-21303191Y-7995512D01*
X-21266085Y-8076002D01*
X-21220623Y-8174616D01*
X-21103467Y-8340389D01*
X-20958062Y-8482035D01*
X-20789280Y-8594812D01*
X-20783977Y-8597090D01*
X-20783974Y-8597092D01*
X-20652717Y-8653484D01*
X-20602772Y-8674942D01*
X-20529756Y-8691464D01*
X-20410421Y-8718467D01*
X-20410416Y-8718468D01*
X-20404784Y-8719742D01*
X-20399013Y-8719969D01*
X-20399011Y-8719969D01*
X-20339244Y-8722317D01*
X-20201947Y-8727712D01*
X-20094652Y-8712155D01*
X-20006769Y-8699413D01*
X-20006764Y-8699412D01*
X-20001055Y-8698584D01*
X-19995591Y-8696729D01*
X-19995586Y-8696728D01*
X-19814307Y-8635192D01*
X-19814302Y-8635190D01*
X-19808835Y-8633334D01*
X-19802974Y-8630052D01*
X-19733533Y-8591163D01*
X-19675050Y-8558411D01*
X-18294050Y-8558411D01*
X-18284170Y-8570898D01*
X-18253841Y-8591163D01*
X-18243736Y-8596650D01*
X-18067923Y-8672185D01*
X-18056980Y-8675740D01*
X-17870354Y-8717970D01*
X-17858945Y-8719472D01*
X-17667742Y-8726984D01*
X-17656260Y-8726382D01*
X-17466894Y-8698926D01*
X-17455698Y-8696238D01*
X-17274507Y-8634731D01*
X-17263998Y-8630052D01*
X-17154909Y-8568959D01*
X-17145045Y-8558881D01*
X-17148000Y-8551210D01*
X-17707188Y-7992022D01*
X-17721132Y-7984408D01*
X-17722965Y-7984539D01*
X-17729580Y-7988790D01*
X-18287854Y-8547064D01*
X-18294050Y-8558411D01*
X-19675050Y-8558411D01*
X-19631724Y-8534147D01*
X-19592031Y-8501135D01*
X-19480087Y-8408031D01*
X-19475655Y-8404345D01*
X-19345853Y-8248276D01*
X-19246666Y-8071165D01*
X-19244810Y-8065698D01*
X-19244808Y-8065693D01*
X-19183272Y-7884414D01*
X-19183271Y-7884409D01*
X-19181416Y-7878945D01*
X-19180588Y-7873236D01*
X-19180587Y-7873231D01*
X-19158307Y-7719567D01*
X-19152288Y-7678053D01*
X-19150768Y-7620000D01*
X-19152905Y-7596743D01*
X-18827972Y-7596743D01*
X-18815458Y-7787676D01*
X-18813657Y-7799046D01*
X-18766557Y-7984502D01*
X-18762716Y-7995348D01*
X-18682608Y-8169116D01*
X-18676854Y-8179083D01*
X-18671342Y-8186882D01*
X-18660753Y-8195270D01*
X-18647452Y-8188242D01*
X-18092022Y-7632812D01*
X-18085644Y-7621132D01*
X-17355592Y-7621132D01*
X-17355461Y-7622965D01*
X-17351210Y-7629580D01*
X-16792705Y-8188085D01*
X-16780325Y-8194845D01*
X-16773745Y-8189919D01*
X-16709948Y-8076002D01*
X-16705269Y-8065493D01*
X-16643762Y-7884302D01*
X-16641074Y-7873106D01*
X-16613322Y-7681699D01*
X-16612692Y-7674318D01*
X-16611367Y-7623704D01*
X-16611610Y-7616305D01*
X-16613938Y-7590964D01*
X-16288852Y-7590964D01*
X-16275576Y-7793522D01*
X-16274155Y-7799118D01*
X-16274154Y-7799123D01*
X-16254336Y-7877153D01*
X-16225608Y-7990269D01*
X-16223191Y-7995512D01*
X-16186085Y-8076002D01*
X-16140623Y-8174616D01*
X-16023467Y-8340389D01*
X-15878062Y-8482035D01*
X-15709280Y-8594812D01*
X-15703977Y-8597090D01*
X-15703974Y-8597092D01*
X-15572717Y-8653484D01*
X-15522772Y-8674942D01*
X-15449756Y-8691464D01*
X-15330421Y-8718467D01*
X-15330416Y-8718468D01*
X-15324784Y-8719742D01*
X-15319013Y-8719969D01*
X-15319011Y-8719969D01*
X-15259244Y-8722317D01*
X-15121947Y-8727712D01*
X-15014652Y-8712155D01*
X-14926769Y-8699413D01*
X-14926764Y-8699412D01*
X-14921055Y-8698584D01*
X-14915591Y-8696729D01*
X-14915586Y-8696728D01*
X-14734307Y-8635192D01*
X-14734302Y-8635190D01*
X-14728835Y-8633334D01*
X-14722974Y-8630052D01*
X-14653533Y-8591163D01*
X-14551724Y-8534147D01*
X-14512031Y-8501135D01*
X-14400087Y-8408031D01*
X-14395655Y-8404345D01*
X-14265853Y-8248276D01*
X-14166666Y-8071165D01*
X-14164810Y-8065698D01*
X-14164808Y-8065693D01*
X-14103272Y-7884414D01*
X-14103271Y-7884409D01*
X-14101416Y-7878945D01*
X-14100588Y-7873236D01*
X-14100587Y-7873231D01*
X-14078307Y-7719567D01*
X-14072288Y-7678053D01*
X-14070768Y-7620000D01*
X-14073436Y-7590964D01*
X-13748852Y-7590964D01*
X-13735576Y-7793522D01*
X-13734155Y-7799118D01*
X-13734154Y-7799123D01*
X-13714336Y-7877153D01*
X-13685608Y-7990269D01*
X-13683191Y-7995512D01*
X-13646085Y-8076002D01*
X-13600623Y-8174616D01*
X-13483467Y-8340389D01*
X-13338062Y-8482035D01*
X-13333258Y-8485245D01*
X-13200498Y-8573953D01*
X-13154970Y-8628430D01*
X-13144500Y-8678718D01*
X-13144500Y-19039376D01*
X-13145841Y-19051381D01*
X-13145345Y-19051421D01*
X-13146065Y-19060368D01*
X-13148046Y-19069124D01*
X-13147490Y-19078084D01*
X-13144742Y-19122382D01*
X-13144500Y-19130184D01*
X-13144500Y-19146226D01*
X-13143865Y-19150657D01*
X-13143865Y-19150662D01*
X-13143035Y-19156453D01*
X-13142004Y-19166514D01*
X-13139098Y-19213359D01*
X-13136051Y-19221799D01*
X-13135370Y-19225089D01*
X-13131418Y-19240938D01*
X-13130473Y-19244168D01*
X-13129201Y-19253052D01*
X-13125486Y-19261223D01*
X-13109782Y-19295763D01*
X-13105970Y-19305128D01*
X-13093078Y-19340837D01*
X-13093076Y-19340840D01*
X-13090028Y-19349284D01*
X-13084732Y-19356533D01*
X-13083160Y-19359490D01*
X-13074907Y-19373614D01*
X-13073102Y-19376437D01*
X-13069388Y-19384605D01*
X-13063531Y-19391402D01*
X-13063530Y-19391404D01*
X-13038757Y-19420153D01*
X-13032475Y-19428064D01*
X-13024527Y-19438944D01*
X-13013665Y-19449806D01*
X-13007307Y-19456652D01*
X-12975056Y-19494082D01*
X-12967521Y-19498966D01*
X-12960949Y-19504699D01*
X-12949545Y-19513926D01*
X-8111405Y-24352066D01*
X-8077379Y-24414378D01*
X-8074500Y-24441161D01*
X-8074500Y-25133214D01*
X-8094502Y-25201335D01*
X-8136077Y-25241499D01*
X-8217022Y-25289656D01*
X-8217023Y-25289657D01*
X-8221990Y-25292612D01*
X-8226330Y-25296418D01*
X-8226334Y-25296421D01*
X-8304640Y-25365094D01*
X-8374608Y-25426455D01*
X-8500280Y-25585869D01*
X-8502969Y-25590980D01*
X-8502971Y-25590983D01*
X-8515213Y-25614251D01*
X-8594797Y-25765515D01*
X-8654993Y-25959378D01*
X-8678852Y-26160964D01*
X-8665576Y-26363522D01*
X-8664155Y-26369118D01*
X-8664154Y-26369123D01*
X-8632045Y-26495548D01*
X-8615608Y-26560269D01*
X-8613191Y-26565512D01*
X-8576088Y-26645994D01*
X-8530623Y-26744616D01*
X-8413467Y-26910389D01*
X-8268062Y-27052035D01*
X-8099280Y-27164812D01*
X-8093977Y-27167090D01*
X-8093974Y-27167092D01*
X-8005293Y-27205192D01*
X-7912772Y-27244942D01*
X-7847860Y-27259630D01*
X-7720421Y-27288467D01*
X-7720416Y-27288468D01*
X-7714784Y-27289742D01*
X-7709013Y-27289969D01*
X-7709011Y-27289969D01*
X-7649244Y-27292317D01*
X-7511947Y-27297712D01*
X-7401404Y-27281684D01*
X-7316769Y-27269413D01*
X-7316764Y-27269412D01*
X-7311055Y-27268584D01*
X-7305591Y-27266729D01*
X-7305586Y-27266728D01*
X-7124307Y-27205192D01*
X-7124302Y-27205190D01*
X-7118835Y-27203334D01*
X-7112981Y-27200056D01*
X-6982408Y-27126931D01*
X-6941724Y-27104147D01*
X-6901971Y-27071085D01*
X-6790087Y-26978031D01*
X-6785655Y-26974345D01*
X-6655853Y-26818276D01*
X-6556666Y-26641165D01*
X-6554810Y-26635698D01*
X-6554808Y-26635693D01*
X-6493272Y-26454414D01*
X-6493271Y-26454409D01*
X-6491416Y-26448945D01*
X-6490588Y-26443236D01*
X-6490587Y-26443231D01*
X-6462821Y-26251727D01*
X-6462288Y-26248053D01*
X-6460768Y-26190000D01*
X-6463436Y-26160964D01*
X-6138852Y-26160964D01*
X-6125576Y-26363522D01*
X-6124155Y-26369118D01*
X-6124154Y-26369123D01*
X-6092045Y-26495548D01*
X-6075608Y-26560269D01*
X-6073191Y-26565512D01*
X-6036088Y-26645994D01*
X-5990623Y-26744616D01*
X-5873467Y-26910389D01*
X-5728062Y-27052035D01*
X-5559280Y-27164812D01*
X-5553977Y-27167090D01*
X-5553974Y-27167092D01*
X-5465293Y-27205192D01*
X-5372772Y-27244942D01*
X-5307860Y-27259630D01*
X-5180421Y-27288467D01*
X-5180416Y-27288468D01*
X-5174784Y-27289742D01*
X-5169013Y-27289969D01*
X-5169011Y-27289969D01*
X-5109244Y-27292317D01*
X-4971947Y-27297712D01*
X-4861404Y-27281684D01*
X-4776769Y-27269413D01*
X-4776764Y-27269412D01*
X-4771055Y-27268584D01*
X-4765591Y-27266729D01*
X-4765586Y-27266728D01*
X-4584307Y-27205192D01*
X-4584302Y-27205190D01*
X-4578835Y-27203334D01*
X-4572981Y-27200056D01*
X-4442408Y-27126931D01*
X-4401724Y-27104147D01*
X-4361971Y-27071085D01*
X-4250087Y-26978031D01*
X-4245655Y-26974345D01*
X-4115853Y-26818276D01*
X-4016666Y-26641165D01*
X-4014810Y-26635698D01*
X-4014808Y-26635693D01*
X-3953272Y-26454414D01*
X-3953271Y-26454409D01*
X-3951416Y-26448945D01*
X-3950588Y-26443236D01*
X-3950587Y-26443231D01*
X-3922821Y-26251727D01*
X-3922288Y-26248053D01*
X-3920768Y-26190000D01*
X-3923436Y-26160964D01*
X-3598852Y-26160964D01*
X-3585576Y-26363522D01*
X-3584155Y-26369118D01*
X-3584154Y-26369123D01*
X-3552045Y-26495548D01*
X-3535608Y-26560269D01*
X-3533191Y-26565512D01*
X-3496088Y-26645994D01*
X-3450623Y-26744616D01*
X-3333467Y-26910389D01*
X-3188062Y-27052035D01*
X-3019280Y-27164812D01*
X-3013977Y-27167090D01*
X-3013974Y-27167092D01*
X-2925293Y-27205192D01*
X-2832772Y-27244942D01*
X-2767860Y-27259630D01*
X-2640421Y-27288467D01*
X-2640416Y-27288468D01*
X-2634784Y-27289742D01*
X-2629013Y-27289969D01*
X-2629011Y-27289969D01*
X-2569244Y-27292317D01*
X-2431947Y-27297712D01*
X-2321404Y-27281684D01*
X-2236769Y-27269413D01*
X-2236764Y-27269412D01*
X-2231055Y-27268584D01*
X-2225591Y-27266729D01*
X-2225586Y-27266728D01*
X-2044307Y-27205192D01*
X-2044302Y-27205190D01*
X-2038835Y-27203334D01*
X-2032981Y-27200056D01*
X-1902408Y-27126931D01*
X-1861724Y-27104147D01*
X-1821971Y-27071085D01*
X-1710087Y-26978031D01*
X-1705655Y-26974345D01*
X-1575853Y-26818276D01*
X-1476666Y-26641165D01*
X-1474810Y-26635698D01*
X-1474808Y-26635693D01*
X-1414137Y-26456962D01*
X-1021329Y-26456962D01*
X-996557Y-26554502D01*
X-992716Y-26565348D01*
X-912606Y-26739120D01*
X-906855Y-26749081D01*
X-796421Y-26905343D01*
X-788943Y-26914098D01*
X-651886Y-27047612D01*
X-642942Y-27054855D01*
X-483844Y-27161161D01*
X-473734Y-27166651D01*
X-297923Y-27242185D01*
X-286980Y-27245740D01*
X-221668Y-27260519D01*
X-207595Y-27259630D01*
X-204172Y-27250681D01*
X304000Y-27250681D01*
X307966Y-27264187D01*
X316672Y-27265433D01*
X495497Y-27204730D01*
X505994Y-27200056D01*
X672958Y-27106552D01*
X682430Y-27100042D01*
X829553Y-26977682D01*
X837682Y-26969553D01*
X960042Y-26822430D01*
X966552Y-26812958D01*
X1060056Y-26645994D01*
X1064730Y-26635497D01*
X1125443Y-26456644D01*
X1124210Y-26447993D01*
X1110642Y-26444000D01*
X322115Y-26444000D01*
X306876Y-26448475D01*
X305671Y-26449865D01*
X304000Y-26457548D01*
X304000Y-27250681D01*
X-204172Y-27250681D01*
X-204000Y-27250232D01*
X-204000Y-26462115D01*
X-208475Y-26446876D01*
X-209865Y-26445671D01*
X-217548Y-26444000D01*
X-1006506Y-26444000D01*
X-1020037Y-26447973D01*
X-1021329Y-26456962D01*
X-1414137Y-26456962D01*
X-1413272Y-26454414D01*
X-1413271Y-26454409D01*
X-1411416Y-26448945D01*
X-1410588Y-26443236D01*
X-1410587Y-26443231D01*
X-1382821Y-26251727D01*
X-1382288Y-26248053D01*
X-1380768Y-26190000D01*
X-1383436Y-26160964D01*
X1481148Y-26160964D01*
X1494424Y-26363522D01*
X1495845Y-26369118D01*
X1495846Y-26369123D01*
X1527955Y-26495548D01*
X1544392Y-26560269D01*
X1546809Y-26565512D01*
X1583912Y-26645994D01*
X1629377Y-26744616D01*
X1746533Y-26910389D01*
X1891938Y-27052035D01*
X2060720Y-27164812D01*
X2066023Y-27167090D01*
X2066026Y-27167092D01*
X2154707Y-27205192D01*
X2247228Y-27244942D01*
X2312140Y-27259630D01*
X2439579Y-27288467D01*
X2439584Y-27288468D01*
X2445216Y-27289742D01*
X2450987Y-27289969D01*
X2450989Y-27289969D01*
X2510756Y-27292317D01*
X2648053Y-27297712D01*
X2758596Y-27281684D01*
X2843231Y-27269413D01*
X2843236Y-27269412D01*
X2848945Y-27268584D01*
X2854409Y-27266729D01*
X2854414Y-27266728D01*
X3035693Y-27205192D01*
X3035698Y-27205190D01*
X3041165Y-27203334D01*
X3047019Y-27200056D01*
X3177592Y-27126931D01*
X3218276Y-27104147D01*
X3258029Y-27071085D01*
X3369913Y-26978031D01*
X3374345Y-26974345D01*
X3504147Y-26818276D01*
X3603334Y-26641165D01*
X3605190Y-26635698D01*
X3605192Y-26635693D01*
X3666728Y-26454414D01*
X3666729Y-26454409D01*
X3668584Y-26448945D01*
X3669412Y-26443236D01*
X3669413Y-26443231D01*
X3697179Y-26251727D01*
X3697712Y-26248053D01*
X3699232Y-26190000D01*
X3696564Y-26160964D01*
X4021148Y-26160964D01*
X4034424Y-26363522D01*
X4035845Y-26369118D01*
X4035846Y-26369123D01*
X4067955Y-26495548D01*
X4084392Y-26560269D01*
X4086809Y-26565512D01*
X4123912Y-26645994D01*
X4169377Y-26744616D01*
X4286533Y-26910389D01*
X4431938Y-27052035D01*
X4600720Y-27164812D01*
X4606023Y-27167090D01*
X4606026Y-27167092D01*
X4694707Y-27205192D01*
X4787228Y-27244942D01*
X4852140Y-27259630D01*
X4979579Y-27288467D01*
X4979584Y-27288468D01*
X4985216Y-27289742D01*
X4990987Y-27289969D01*
X4990989Y-27289969D01*
X5050756Y-27292317D01*
X5188053Y-27297712D01*
X5298596Y-27281684D01*
X5383231Y-27269413D01*
X5383236Y-27269412D01*
X5388945Y-27268584D01*
X5394409Y-27266729D01*
X5394414Y-27266728D01*
X5575693Y-27205192D01*
X5575698Y-27205190D01*
X5581165Y-27203334D01*
X5587019Y-27200056D01*
X5717592Y-27126931D01*
X5758276Y-27104147D01*
X5798029Y-27071085D01*
X5909913Y-26978031D01*
X5914345Y-26974345D01*
X6044147Y-26818276D01*
X6143334Y-26641165D01*
X6145190Y-26635698D01*
X6145192Y-26635693D01*
X6206728Y-26454414D01*
X6206729Y-26454409D01*
X6208584Y-26448945D01*
X6209412Y-26443236D01*
X6209413Y-26443231D01*
X6237179Y-26251727D01*
X6237712Y-26248053D01*
X6239232Y-26190000D01*
X6236564Y-26160964D01*
X6561148Y-26160964D01*
X6574424Y-26363522D01*
X6575845Y-26369118D01*
X6575846Y-26369123D01*
X6607955Y-26495548D01*
X6624392Y-26560269D01*
X6626809Y-26565512D01*
X6663912Y-26645994D01*
X6709377Y-26744616D01*
X6826533Y-26910389D01*
X6971938Y-27052035D01*
X7140720Y-27164812D01*
X7146023Y-27167090D01*
X7146026Y-27167092D01*
X7234707Y-27205192D01*
X7327228Y-27244942D01*
X7392140Y-27259630D01*
X7519579Y-27288467D01*
X7519584Y-27288468D01*
X7525216Y-27289742D01*
X7530987Y-27289969D01*
X7530989Y-27289969D01*
X7590756Y-27292317D01*
X7728053Y-27297712D01*
X7838596Y-27281684D01*
X7923231Y-27269413D01*
X7923236Y-27269412D01*
X7928945Y-27268584D01*
X7934409Y-27266729D01*
X7934414Y-27266728D01*
X8115693Y-27205192D01*
X8115698Y-27205190D01*
X8121165Y-27203334D01*
X8127019Y-27200056D01*
X8257592Y-27126931D01*
X8298276Y-27104147D01*
X8338029Y-27071085D01*
X8449913Y-26978031D01*
X8454345Y-26974345D01*
X8584147Y-26818276D01*
X8683334Y-26641165D01*
X8685190Y-26635698D01*
X8685192Y-26635693D01*
X8746728Y-26454414D01*
X8746729Y-26454409D01*
X8748584Y-26448945D01*
X8749412Y-26443236D01*
X8749413Y-26443231D01*
X8777179Y-26251727D01*
X8777712Y-26248053D01*
X8779232Y-26190000D01*
X8776564Y-26160964D01*
X9101148Y-26160964D01*
X9114424Y-26363522D01*
X9115845Y-26369118D01*
X9115846Y-26369123D01*
X9147955Y-26495548D01*
X9164392Y-26560269D01*
X9166809Y-26565512D01*
X9203912Y-26645994D01*
X9249377Y-26744616D01*
X9366533Y-26910389D01*
X9511938Y-27052035D01*
X9680720Y-27164812D01*
X9686023Y-27167090D01*
X9686026Y-27167092D01*
X9774707Y-27205192D01*
X9867228Y-27244942D01*
X9932140Y-27259630D01*
X10059579Y-27288467D01*
X10059584Y-27288468D01*
X10065216Y-27289742D01*
X10070987Y-27289969D01*
X10070989Y-27289969D01*
X10130756Y-27292317D01*
X10268053Y-27297712D01*
X10378596Y-27281684D01*
X10463231Y-27269413D01*
X10463236Y-27269412D01*
X10468945Y-27268584D01*
X10474409Y-27266729D01*
X10474414Y-27266728D01*
X10655693Y-27205192D01*
X10655698Y-27205190D01*
X10661165Y-27203334D01*
X10667019Y-27200056D01*
X10797592Y-27126931D01*
X10838276Y-27104147D01*
X10878029Y-27071085D01*
X10989913Y-26978031D01*
X10994345Y-26974345D01*
X11124147Y-26818276D01*
X11223334Y-26641165D01*
X11225190Y-26635698D01*
X11225192Y-26635693D01*
X11286728Y-26454414D01*
X11286729Y-26454409D01*
X11288584Y-26448945D01*
X11289412Y-26443236D01*
X11289413Y-26443231D01*
X11317179Y-26251727D01*
X11317712Y-26248053D01*
X11319232Y-26190000D01*
X11316564Y-26160964D01*
X11641148Y-26160964D01*
X11654424Y-26363522D01*
X11655845Y-26369118D01*
X11655846Y-26369123D01*
X11687955Y-26495548D01*
X11704392Y-26560269D01*
X11706809Y-26565512D01*
X11743912Y-26645994D01*
X11789377Y-26744616D01*
X11906533Y-26910389D01*
X12051938Y-27052035D01*
X12220720Y-27164812D01*
X12226023Y-27167090D01*
X12226026Y-27167092D01*
X12314707Y-27205192D01*
X12407228Y-27244942D01*
X12472140Y-27259630D01*
X12599579Y-27288467D01*
X12599584Y-27288468D01*
X12605216Y-27289742D01*
X12610987Y-27289969D01*
X12610989Y-27289969D01*
X12670756Y-27292317D01*
X12808053Y-27297712D01*
X12918596Y-27281684D01*
X13003231Y-27269413D01*
X13003236Y-27269412D01*
X13008945Y-27268584D01*
X13014409Y-27266729D01*
X13014414Y-27266728D01*
X13195693Y-27205192D01*
X13195698Y-27205190D01*
X13201165Y-27203334D01*
X13207019Y-27200056D01*
X13337592Y-27126931D01*
X13378276Y-27104147D01*
X13418029Y-27071085D01*
X13529913Y-26978031D01*
X13534345Y-26974345D01*
X13664147Y-26818276D01*
X13763334Y-26641165D01*
X13765190Y-26635698D01*
X13765192Y-26635693D01*
X13826728Y-26454414D01*
X13826729Y-26454409D01*
X13828584Y-26448945D01*
X13829412Y-26443236D01*
X13829413Y-26443231D01*
X13857179Y-26251727D01*
X13857712Y-26248053D01*
X13859232Y-26190000D01*
X13856564Y-26160964D01*
X14181148Y-26160964D01*
X14194424Y-26363522D01*
X14195845Y-26369118D01*
X14195846Y-26369123D01*
X14227955Y-26495548D01*
X14244392Y-26560269D01*
X14246809Y-26565512D01*
X14283912Y-26645994D01*
X14329377Y-26744616D01*
X14446533Y-26910389D01*
X14591938Y-27052035D01*
X14760720Y-27164812D01*
X14766023Y-27167090D01*
X14766026Y-27167092D01*
X14854707Y-27205192D01*
X14947228Y-27244942D01*
X15012140Y-27259630D01*
X15139579Y-27288467D01*
X15139584Y-27288468D01*
X15145216Y-27289742D01*
X15150987Y-27289969D01*
X15150989Y-27289969D01*
X15210756Y-27292317D01*
X15348053Y-27297712D01*
X15458596Y-27281684D01*
X15543231Y-27269413D01*
X15543236Y-27269412D01*
X15548945Y-27268584D01*
X15554409Y-27266729D01*
X15554414Y-27266728D01*
X15735693Y-27205192D01*
X15735698Y-27205190D01*
X15741165Y-27203334D01*
X15747019Y-27200056D01*
X15877592Y-27126931D01*
X15918276Y-27104147D01*
X15958029Y-27071085D01*
X16069913Y-26978031D01*
X16074345Y-26974345D01*
X16204147Y-26818276D01*
X16303334Y-26641165D01*
X16305190Y-26635698D01*
X16305192Y-26635693D01*
X16366728Y-26454414D01*
X16366729Y-26454409D01*
X16368584Y-26448945D01*
X16369412Y-26443236D01*
X16369413Y-26443231D01*
X16397179Y-26251727D01*
X16397712Y-26248053D01*
X16399232Y-26190000D01*
X16396564Y-26160964D01*
X16721148Y-26160964D01*
X16734424Y-26363522D01*
X16735845Y-26369118D01*
X16735846Y-26369123D01*
X16767955Y-26495548D01*
X16784392Y-26560269D01*
X16786809Y-26565512D01*
X16823912Y-26645994D01*
X16869377Y-26744616D01*
X16986533Y-26910389D01*
X17131938Y-27052035D01*
X17300720Y-27164812D01*
X17306023Y-27167090D01*
X17306026Y-27167092D01*
X17394707Y-27205192D01*
X17487228Y-27244942D01*
X17552140Y-27259630D01*
X17679579Y-27288467D01*
X17679584Y-27288468D01*
X17685216Y-27289742D01*
X17690987Y-27289969D01*
X17690989Y-27289969D01*
X17750756Y-27292317D01*
X17888053Y-27297712D01*
X17998596Y-27281684D01*
X18083231Y-27269413D01*
X18083236Y-27269412D01*
X18088945Y-27268584D01*
X18094409Y-27266729D01*
X18094414Y-27266728D01*
X18275693Y-27205192D01*
X18275698Y-27205190D01*
X18281165Y-27203334D01*
X18287019Y-27200056D01*
X18417592Y-27126931D01*
X18458276Y-27104147D01*
X18498029Y-27071085D01*
X18609913Y-26978031D01*
X18614345Y-26974345D01*
X18744147Y-26818276D01*
X18843334Y-26641165D01*
X18845190Y-26635698D01*
X18845192Y-26635693D01*
X18906728Y-26454414D01*
X18906729Y-26454409D01*
X18908584Y-26448945D01*
X18909412Y-26443236D01*
X18909413Y-26443231D01*
X18937179Y-26251727D01*
X18937712Y-26248053D01*
X18939232Y-26190000D01*
X18936564Y-26160964D01*
X19261148Y-26160964D01*
X19274424Y-26363522D01*
X19275845Y-26369118D01*
X19275846Y-26369123D01*
X19307955Y-26495548D01*
X19324392Y-26560269D01*
X19326809Y-26565512D01*
X19363912Y-26645994D01*
X19409377Y-26744616D01*
X19526533Y-26910389D01*
X19671938Y-27052035D01*
X19840720Y-27164812D01*
X19846023Y-27167090D01*
X19846026Y-27167092D01*
X19934707Y-27205192D01*
X20027228Y-27244942D01*
X20092140Y-27259630D01*
X20219579Y-27288467D01*
X20219584Y-27288468D01*
X20225216Y-27289742D01*
X20230987Y-27289969D01*
X20230989Y-27289969D01*
X20290756Y-27292317D01*
X20428053Y-27297712D01*
X20538596Y-27281684D01*
X20623231Y-27269413D01*
X20623236Y-27269412D01*
X20628945Y-27268584D01*
X20634409Y-27266729D01*
X20634414Y-27266728D01*
X20815693Y-27205192D01*
X20815698Y-27205190D01*
X20821165Y-27203334D01*
X20827019Y-27200056D01*
X20957592Y-27126931D01*
X20998276Y-27104147D01*
X21038029Y-27071085D01*
X21149913Y-26978031D01*
X21154345Y-26974345D01*
X21284147Y-26818276D01*
X21383334Y-26641165D01*
X21385190Y-26635698D01*
X21385192Y-26635693D01*
X21446728Y-26454414D01*
X21446729Y-26454409D01*
X21448584Y-26448945D01*
X21449412Y-26443236D01*
X21449413Y-26443231D01*
X21477179Y-26251727D01*
X21477712Y-26248053D01*
X21479232Y-26190000D01*
X21476564Y-26160964D01*
X21801148Y-26160964D01*
X21814424Y-26363522D01*
X21815845Y-26369118D01*
X21815846Y-26369123D01*
X21847955Y-26495548D01*
X21864392Y-26560269D01*
X21866809Y-26565512D01*
X21903912Y-26645994D01*
X21949377Y-26744616D01*
X22066533Y-26910389D01*
X22211938Y-27052035D01*
X22380720Y-27164812D01*
X22386023Y-27167090D01*
X22386026Y-27167092D01*
X22474707Y-27205192D01*
X22567228Y-27244942D01*
X22632140Y-27259630D01*
X22759579Y-27288467D01*
X22759584Y-27288468D01*
X22765216Y-27289742D01*
X22770987Y-27289969D01*
X22770989Y-27289969D01*
X22830756Y-27292317D01*
X22968053Y-27297712D01*
X23078596Y-27281684D01*
X23163231Y-27269413D01*
X23163236Y-27269412D01*
X23168945Y-27268584D01*
X23174409Y-27266729D01*
X23174414Y-27266728D01*
X23355693Y-27205192D01*
X23355698Y-27205190D01*
X23361165Y-27203334D01*
X23367019Y-27200056D01*
X23497592Y-27126931D01*
X23538276Y-27104147D01*
X23578029Y-27071085D01*
X23689913Y-26978031D01*
X23694345Y-26974345D01*
X23824147Y-26818276D01*
X23923334Y-26641165D01*
X23925190Y-26635698D01*
X23925192Y-26635693D01*
X23986728Y-26454414D01*
X23986729Y-26454409D01*
X23988584Y-26448945D01*
X23989412Y-26443236D01*
X23989413Y-26443231D01*
X24017179Y-26251727D01*
X24017712Y-26248053D01*
X24019232Y-26190000D01*
X24016564Y-26160964D01*
X24341148Y-26160964D01*
X24354424Y-26363522D01*
X24355845Y-26369118D01*
X24355846Y-26369123D01*
X24387955Y-26495548D01*
X24404392Y-26560269D01*
X24406809Y-26565512D01*
X24443912Y-26645994D01*
X24489377Y-26744616D01*
X24606533Y-26910389D01*
X24751938Y-27052035D01*
X24920720Y-27164812D01*
X24926023Y-27167090D01*
X24926026Y-27167092D01*
X25014707Y-27205192D01*
X25107228Y-27244942D01*
X25172140Y-27259630D01*
X25299579Y-27288467D01*
X25299584Y-27288468D01*
X25305216Y-27289742D01*
X25310987Y-27289969D01*
X25310989Y-27289969D01*
X25370756Y-27292317D01*
X25508053Y-27297712D01*
X25618596Y-27281684D01*
X25703231Y-27269413D01*
X25703236Y-27269412D01*
X25708945Y-27268584D01*
X25714409Y-27266729D01*
X25714414Y-27266728D01*
X25895693Y-27205192D01*
X25895698Y-27205190D01*
X25901165Y-27203334D01*
X25907019Y-27200056D01*
X26037592Y-27126931D01*
X26078276Y-27104147D01*
X26118029Y-27071085D01*
X26229913Y-26978031D01*
X26234345Y-26974345D01*
X26364147Y-26818276D01*
X26463334Y-26641165D01*
X26465190Y-26635698D01*
X26465192Y-26635693D01*
X26526728Y-26454414D01*
X26526729Y-26454409D01*
X26528584Y-26448945D01*
X26529412Y-26443236D01*
X26529413Y-26443231D01*
X26557179Y-26251727D01*
X26557712Y-26248053D01*
X26559232Y-26190000D01*
X26556564Y-26160964D01*
X26881148Y-26160964D01*
X26894424Y-26363522D01*
X26895845Y-26369118D01*
X26895846Y-26369123D01*
X26927955Y-26495548D01*
X26944392Y-26560269D01*
X26946809Y-26565512D01*
X26983912Y-26645994D01*
X27029377Y-26744616D01*
X27146533Y-26910389D01*
X27291938Y-27052035D01*
X27460720Y-27164812D01*
X27466023Y-27167090D01*
X27466026Y-27167092D01*
X27554707Y-27205192D01*
X27647228Y-27244942D01*
X27712140Y-27259630D01*
X27839579Y-27288467D01*
X27839584Y-27288468D01*
X27845216Y-27289742D01*
X27850987Y-27289969D01*
X27850989Y-27289969D01*
X27910756Y-27292317D01*
X28048053Y-27297712D01*
X28158596Y-27281684D01*
X28243231Y-27269413D01*
X28243236Y-27269412D01*
X28248945Y-27268584D01*
X28254409Y-27266729D01*
X28254414Y-27266728D01*
X28435693Y-27205192D01*
X28435698Y-27205190D01*
X28441165Y-27203334D01*
X28447019Y-27200056D01*
X28577592Y-27126931D01*
X28618276Y-27104147D01*
X28658029Y-27071085D01*
X28769913Y-26978031D01*
X28774345Y-26974345D01*
X28904147Y-26818276D01*
X29003334Y-26641165D01*
X29005190Y-26635698D01*
X29005192Y-26635693D01*
X29066728Y-26454414D01*
X29066729Y-26454409D01*
X29068584Y-26448945D01*
X29069412Y-26443236D01*
X29069413Y-26443231D01*
X29097179Y-26251727D01*
X29097712Y-26248053D01*
X29099232Y-26190000D01*
X29096564Y-26160964D01*
X29421148Y-26160964D01*
X29434424Y-26363522D01*
X29435845Y-26369118D01*
X29435846Y-26369123D01*
X29467955Y-26495548D01*
X29484392Y-26560269D01*
X29486809Y-26565512D01*
X29523912Y-26645994D01*
X29569377Y-26744616D01*
X29686533Y-26910389D01*
X29831938Y-27052035D01*
X30000720Y-27164812D01*
X30006023Y-27167090D01*
X30006026Y-27167092D01*
X30094707Y-27205192D01*
X30187228Y-27244942D01*
X30252140Y-27259630D01*
X30379579Y-27288467D01*
X30379584Y-27288468D01*
X30385216Y-27289742D01*
X30390987Y-27289969D01*
X30390989Y-27289969D01*
X30450756Y-27292317D01*
X30588053Y-27297712D01*
X30698596Y-27281684D01*
X30783231Y-27269413D01*
X30783236Y-27269412D01*
X30788945Y-27268584D01*
X30794409Y-27266729D01*
X30794414Y-27266728D01*
X30975693Y-27205192D01*
X30975698Y-27205190D01*
X30981165Y-27203334D01*
X30987019Y-27200056D01*
X31117592Y-27126931D01*
X31158276Y-27104147D01*
X31198029Y-27071085D01*
X31309913Y-26978031D01*
X31314345Y-26974345D01*
X31444147Y-26818276D01*
X31543334Y-26641165D01*
X31545190Y-26635698D01*
X31545192Y-26635693D01*
X31606728Y-26454414D01*
X31606729Y-26454409D01*
X31608584Y-26448945D01*
X31609412Y-26443236D01*
X31609413Y-26443231D01*
X31637179Y-26251727D01*
X31637712Y-26248053D01*
X31639232Y-26190000D01*
X31636564Y-26160964D01*
X31961148Y-26160964D01*
X31974424Y-26363522D01*
X31975845Y-26369118D01*
X31975846Y-26369123D01*
X32007955Y-26495548D01*
X32024392Y-26560269D01*
X32026809Y-26565512D01*
X32063912Y-26645994D01*
X32109377Y-26744616D01*
X32226533Y-26910389D01*
X32371938Y-27052035D01*
X32540720Y-27164812D01*
X32546023Y-27167090D01*
X32546026Y-27167092D01*
X32634707Y-27205192D01*
X32727228Y-27244942D01*
X32792140Y-27259630D01*
X32919579Y-27288467D01*
X32919584Y-27288468D01*
X32925216Y-27289742D01*
X32930987Y-27289969D01*
X32930989Y-27289969D01*
X32990756Y-27292317D01*
X33128053Y-27297712D01*
X33238596Y-27281684D01*
X33323231Y-27269413D01*
X33323236Y-27269412D01*
X33328945Y-27268584D01*
X33334409Y-27266729D01*
X33334414Y-27266728D01*
X33515693Y-27205192D01*
X33515698Y-27205190D01*
X33521165Y-27203334D01*
X33527019Y-27200056D01*
X33657592Y-27126931D01*
X33698276Y-27104147D01*
X33738029Y-27071085D01*
X33849913Y-26978031D01*
X33854345Y-26974345D01*
X33984147Y-26818276D01*
X34083334Y-26641165D01*
X34085190Y-26635698D01*
X34085192Y-26635693D01*
X34146728Y-26454414D01*
X34146729Y-26454409D01*
X34148584Y-26448945D01*
X34149412Y-26443236D01*
X34149413Y-26443231D01*
X34177179Y-26251727D01*
X34177712Y-26248053D01*
X34179232Y-26190000D01*
X34176564Y-26160964D01*
X34501148Y-26160964D01*
X34514424Y-26363522D01*
X34515845Y-26369118D01*
X34515846Y-26369123D01*
X34547955Y-26495548D01*
X34564392Y-26560269D01*
X34566809Y-26565512D01*
X34603912Y-26645994D01*
X34649377Y-26744616D01*
X34766533Y-26910389D01*
X34911938Y-27052035D01*
X35080720Y-27164812D01*
X35086023Y-27167090D01*
X35086026Y-27167092D01*
X35174707Y-27205192D01*
X35267228Y-27244942D01*
X35332140Y-27259630D01*
X35459579Y-27288467D01*
X35459584Y-27288468D01*
X35465216Y-27289742D01*
X35470987Y-27289969D01*
X35470989Y-27289969D01*
X35530756Y-27292317D01*
X35668053Y-27297712D01*
X35778596Y-27281684D01*
X35863231Y-27269413D01*
X35863236Y-27269412D01*
X35868945Y-27268584D01*
X35874409Y-27266729D01*
X35874414Y-27266728D01*
X36055693Y-27205192D01*
X36055698Y-27205190D01*
X36061165Y-27203334D01*
X36067019Y-27200056D01*
X36197592Y-27126931D01*
X36238276Y-27104147D01*
X36278029Y-27071085D01*
X36389913Y-26978031D01*
X36394345Y-26974345D01*
X36524147Y-26818276D01*
X36623334Y-26641165D01*
X36625190Y-26635698D01*
X36625192Y-26635693D01*
X36686728Y-26454414D01*
X36686729Y-26454409D01*
X36688584Y-26448945D01*
X36689412Y-26443236D01*
X36689413Y-26443231D01*
X36717179Y-26251727D01*
X36717712Y-26248053D01*
X36718127Y-26232186D01*
X44641018Y-26232186D01*
X44666579Y-26500100D01*
X44667664Y-26504534D01*
X44667665Y-26504540D01*
X44702331Y-26646208D01*
X44730547Y-26761518D01*
X44831583Y-27010963D01*
X44967569Y-27243210D01*
X45135658Y-27453395D01*
X45332327Y-27637113D01*
X45553457Y-27790516D01*
X45794416Y-27910391D01*
X45798750Y-27911812D01*
X45798753Y-27911813D01*
X46045823Y-27992807D01*
X46045829Y-27992808D01*
X46050156Y-27994227D01*
X46054647Y-27995007D01*
X46054648Y-27995007D01*
X46311538Y-28039611D01*
X46311546Y-28039612D01*
X46315319Y-28040267D01*
X46319156Y-28040458D01*
X46398777Y-28044422D01*
X46398785Y-28044422D01*
X46400348Y-28044500D01*
X46568374Y-28044500D01*
X46570642Y-28044335D01*
X46570654Y-28044335D01*
X46701457Y-28034844D01*
X46768425Y-28029985D01*
X46772880Y-28029001D01*
X46772883Y-28029001D01*
X47026770Y-27972947D01*
X47026772Y-27972946D01*
X47031226Y-27971963D01*
X47282900Y-27876613D01*
X47518172Y-27745931D01*
X47664842Y-27633996D01*
X47728491Y-27585421D01*
X47728495Y-27585417D01*
X47732116Y-27582654D01*
X47920249Y-27390203D01*
X47987571Y-27297712D01*
X48075942Y-27176304D01*
X48075947Y-27176297D01*
X48078630Y-27172610D01*
X48203941Y-26934433D01*
X48293557Y-26680662D01*
X48318688Y-26553156D01*
X48344720Y-26421083D01*
X48344721Y-26421077D01*
X48345601Y-26416611D01*
X48354782Y-26232186D01*
X48358755Y-26152383D01*
X48358755Y-26152377D01*
X48358982Y-26147814D01*
X48333421Y-25879900D01*
X48312032Y-25792487D01*
X48270539Y-25622920D01*
X48269453Y-25618482D01*
X48168417Y-25369037D01*
X48062898Y-25188824D01*
X48034741Y-25140735D01*
X48034740Y-25140734D01*
X48032431Y-25136790D01*
X47864342Y-24926605D01*
X47667673Y-24742887D01*
X47446543Y-24589484D01*
X47205584Y-24469609D01*
X47201250Y-24468188D01*
X47201247Y-24468187D01*
X46954177Y-24387193D01*
X46954171Y-24387192D01*
X46949844Y-24385773D01*
X46945352Y-24384993D01*
X46688462Y-24340389D01*
X46688454Y-24340388D01*
X46684681Y-24339733D01*
X46674718Y-24339237D01*
X46601223Y-24335578D01*
X46601215Y-24335578D01*
X46599652Y-24335500D01*
X46431626Y-24335500D01*
X46429358Y-24335665D01*
X46429346Y-24335665D01*
X46298543Y-24345156D01*
X46231575Y-24350015D01*
X46227120Y-24350999D01*
X46227117Y-24350999D01*
X45973230Y-24407053D01*
X45973228Y-24407054D01*
X45968774Y-24408037D01*
X45717100Y-24503387D01*
X45481828Y-24634069D01*
X45478196Y-24636841D01*
X45271509Y-24794579D01*
X45271505Y-24794583D01*
X45267884Y-24797346D01*
X45079751Y-24989797D01*
X45077066Y-24993486D01*
X44924058Y-25203696D01*
X44924053Y-25203703D01*
X44921370Y-25207390D01*
X44796059Y-25445567D01*
X44706443Y-25699338D01*
X44686988Y-25798046D01*
X44660127Y-25934329D01*
X44654399Y-25963389D01*
X44654172Y-25967942D01*
X44654172Y-25967945D01*
X44641930Y-26213871D01*
X44641018Y-26232186D01*
X36718127Y-26232186D01*
X36719232Y-26190000D01*
X36700658Y-25987859D01*
X36695042Y-25967945D01*
X36647125Y-25798046D01*
X36647124Y-25798044D01*
X36645557Y-25792487D01*
X36634978Y-25771033D01*
X36558331Y-25615609D01*
X36555776Y-25610428D01*
X36434320Y-25447779D01*
X36285258Y-25309987D01*
X36280375Y-25306906D01*
X36280371Y-25306903D01*
X36122651Y-25207390D01*
X36113581Y-25201667D01*
X35925039Y-25126446D01*
X35919379Y-25125320D01*
X35919375Y-25125319D01*
X35731613Y-25087971D01*
X35731610Y-25087971D01*
X35725946Y-25086844D01*
X35720171Y-25086768D01*
X35720167Y-25086768D01*
X35618793Y-25085441D01*
X35522971Y-25084187D01*
X35517274Y-25085166D01*
X35517273Y-25085166D01*
X35386530Y-25107632D01*
X35322910Y-25118564D01*
X35132463Y-25188824D01*
X34958010Y-25292612D01*
X34953670Y-25296418D01*
X34953666Y-25296421D01*
X34875360Y-25365094D01*
X34805392Y-25426455D01*
X34679720Y-25585869D01*
X34677031Y-25590980D01*
X34677029Y-25590983D01*
X34664787Y-25614251D01*
X34585203Y-25765515D01*
X34525007Y-25959378D01*
X34501148Y-26160964D01*
X34176564Y-26160964D01*
X34160658Y-25987859D01*
X34155042Y-25967945D01*
X34107125Y-25798046D01*
X34107124Y-25798044D01*
X34105557Y-25792487D01*
X34094978Y-25771033D01*
X34018331Y-25615609D01*
X34015776Y-25610428D01*
X33894320Y-25447779D01*
X33745258Y-25309987D01*
X33740375Y-25306906D01*
X33740371Y-25306903D01*
X33582651Y-25207390D01*
X33573581Y-25201667D01*
X33385039Y-25126446D01*
X33379379Y-25125320D01*
X33379375Y-25125319D01*
X33191613Y-25087971D01*
X33191610Y-25087971D01*
X33185946Y-25086844D01*
X33180171Y-25086768D01*
X33180167Y-25086768D01*
X33078793Y-25085441D01*
X32982971Y-25084187D01*
X32977274Y-25085166D01*
X32977273Y-25085166D01*
X32846530Y-25107632D01*
X32782910Y-25118564D01*
X32592463Y-25188824D01*
X32418010Y-25292612D01*
X32413670Y-25296418D01*
X32413666Y-25296421D01*
X32335360Y-25365094D01*
X32265392Y-25426455D01*
X32139720Y-25585869D01*
X32137031Y-25590980D01*
X32137029Y-25590983D01*
X32124787Y-25614251D01*
X32045203Y-25765515D01*
X31985007Y-25959378D01*
X31961148Y-26160964D01*
X31636564Y-26160964D01*
X31620658Y-25987859D01*
X31615042Y-25967945D01*
X31567125Y-25798046D01*
X31567124Y-25798044D01*
X31565557Y-25792487D01*
X31554978Y-25771033D01*
X31478331Y-25615609D01*
X31475776Y-25610428D01*
X31354320Y-25447779D01*
X31205258Y-25309987D01*
X31200375Y-25306906D01*
X31200371Y-25306903D01*
X31042651Y-25207390D01*
X31033581Y-25201667D01*
X30845039Y-25126446D01*
X30839379Y-25125320D01*
X30839375Y-25125319D01*
X30651613Y-25087971D01*
X30651610Y-25087971D01*
X30645946Y-25086844D01*
X30640171Y-25086768D01*
X30640167Y-25086768D01*
X30538793Y-25085441D01*
X30442971Y-25084187D01*
X30437274Y-25085166D01*
X30437273Y-25085166D01*
X30306530Y-25107632D01*
X30242910Y-25118564D01*
X30052463Y-25188824D01*
X29878010Y-25292612D01*
X29873670Y-25296418D01*
X29873666Y-25296421D01*
X29795360Y-25365094D01*
X29725392Y-25426455D01*
X29599720Y-25585869D01*
X29597031Y-25590980D01*
X29597029Y-25590983D01*
X29584787Y-25614251D01*
X29505203Y-25765515D01*
X29445007Y-25959378D01*
X29421148Y-26160964D01*
X29096564Y-26160964D01*
X29080658Y-25987859D01*
X29075042Y-25967945D01*
X29027125Y-25798046D01*
X29027124Y-25798044D01*
X29025557Y-25792487D01*
X29014978Y-25771033D01*
X28938331Y-25615609D01*
X28935776Y-25610428D01*
X28814320Y-25447779D01*
X28665258Y-25309987D01*
X28660375Y-25306906D01*
X28660371Y-25306903D01*
X28502651Y-25207390D01*
X28493581Y-25201667D01*
X28305039Y-25126446D01*
X28299379Y-25125320D01*
X28299375Y-25125319D01*
X28111613Y-25087971D01*
X28111610Y-25087971D01*
X28105946Y-25086844D01*
X28100171Y-25086768D01*
X28100167Y-25086768D01*
X27998793Y-25085441D01*
X27902971Y-25084187D01*
X27897274Y-25085166D01*
X27897273Y-25085166D01*
X27766530Y-25107632D01*
X27702910Y-25118564D01*
X27512463Y-25188824D01*
X27338010Y-25292612D01*
X27333670Y-25296418D01*
X27333666Y-25296421D01*
X27255360Y-25365094D01*
X27185392Y-25426455D01*
X27059720Y-25585869D01*
X27057031Y-25590980D01*
X27057029Y-25590983D01*
X27044787Y-25614251D01*
X26965203Y-25765515D01*
X26905007Y-25959378D01*
X26881148Y-26160964D01*
X26556564Y-26160964D01*
X26540658Y-25987859D01*
X26535042Y-25967945D01*
X26487125Y-25798046D01*
X26487124Y-25798044D01*
X26485557Y-25792487D01*
X26474978Y-25771033D01*
X26398331Y-25615609D01*
X26395776Y-25610428D01*
X26274320Y-25447779D01*
X26125258Y-25309987D01*
X26120375Y-25306906D01*
X26120371Y-25306903D01*
X25962651Y-25207390D01*
X25953581Y-25201667D01*
X25765039Y-25126446D01*
X25759379Y-25125320D01*
X25759375Y-25125319D01*
X25571613Y-25087971D01*
X25571610Y-25087971D01*
X25565946Y-25086844D01*
X25560171Y-25086768D01*
X25560167Y-25086768D01*
X25458793Y-25085441D01*
X25362971Y-25084187D01*
X25357274Y-25085166D01*
X25357273Y-25085166D01*
X25226530Y-25107632D01*
X25162910Y-25118564D01*
X24972463Y-25188824D01*
X24798010Y-25292612D01*
X24793670Y-25296418D01*
X24793666Y-25296421D01*
X24715360Y-25365094D01*
X24645392Y-25426455D01*
X24519720Y-25585869D01*
X24517031Y-25590980D01*
X24517029Y-25590983D01*
X24504787Y-25614251D01*
X24425203Y-25765515D01*
X24365007Y-25959378D01*
X24341148Y-26160964D01*
X24016564Y-26160964D01*
X24000658Y-25987859D01*
X23995042Y-25967945D01*
X23947125Y-25798046D01*
X23947124Y-25798044D01*
X23945557Y-25792487D01*
X23934978Y-25771033D01*
X23858331Y-25615609D01*
X23855776Y-25610428D01*
X23734320Y-25447779D01*
X23585258Y-25309987D01*
X23580375Y-25306906D01*
X23580371Y-25306903D01*
X23422651Y-25207390D01*
X23413581Y-25201667D01*
X23225039Y-25126446D01*
X23219379Y-25125320D01*
X23219375Y-25125319D01*
X23031613Y-25087971D01*
X23031610Y-25087971D01*
X23025946Y-25086844D01*
X23020171Y-25086768D01*
X23020167Y-25086768D01*
X22918793Y-25085441D01*
X22822971Y-25084187D01*
X22817274Y-25085166D01*
X22817273Y-25085166D01*
X22686530Y-25107632D01*
X22622910Y-25118564D01*
X22432463Y-25188824D01*
X22258010Y-25292612D01*
X22253670Y-25296418D01*
X22253666Y-25296421D01*
X22175360Y-25365094D01*
X22105392Y-25426455D01*
X21979720Y-25585869D01*
X21977031Y-25590980D01*
X21977029Y-25590983D01*
X21964787Y-25614251D01*
X21885203Y-25765515D01*
X21825007Y-25959378D01*
X21801148Y-26160964D01*
X21476564Y-26160964D01*
X21460658Y-25987859D01*
X21455042Y-25967945D01*
X21407125Y-25798046D01*
X21407124Y-25798044D01*
X21405557Y-25792487D01*
X21394978Y-25771033D01*
X21318331Y-25615609D01*
X21315776Y-25610428D01*
X21194320Y-25447779D01*
X21045258Y-25309987D01*
X21040375Y-25306906D01*
X21040371Y-25306903D01*
X20882651Y-25207390D01*
X20873581Y-25201667D01*
X20685039Y-25126446D01*
X20679379Y-25125320D01*
X20679375Y-25125319D01*
X20491613Y-25087971D01*
X20491610Y-25087971D01*
X20485946Y-25086844D01*
X20480171Y-25086768D01*
X20480167Y-25086768D01*
X20378793Y-25085441D01*
X20282971Y-25084187D01*
X20277274Y-25085166D01*
X20277273Y-25085166D01*
X20146530Y-25107632D01*
X20082910Y-25118564D01*
X19892463Y-25188824D01*
X19718010Y-25292612D01*
X19713670Y-25296418D01*
X19713666Y-25296421D01*
X19635360Y-25365094D01*
X19565392Y-25426455D01*
X19439720Y-25585869D01*
X19437031Y-25590980D01*
X19437029Y-25590983D01*
X19424787Y-25614251D01*
X19345203Y-25765515D01*
X19285007Y-25959378D01*
X19261148Y-26160964D01*
X18936564Y-26160964D01*
X18920658Y-25987859D01*
X18915042Y-25967945D01*
X18867125Y-25798046D01*
X18867124Y-25798044D01*
X18865557Y-25792487D01*
X18854978Y-25771033D01*
X18778331Y-25615609D01*
X18775776Y-25610428D01*
X18654320Y-25447779D01*
X18505258Y-25309987D01*
X18500375Y-25306906D01*
X18500371Y-25306903D01*
X18342651Y-25207390D01*
X18333581Y-25201667D01*
X18145039Y-25126446D01*
X18139379Y-25125320D01*
X18139375Y-25125319D01*
X17951613Y-25087971D01*
X17951610Y-25087971D01*
X17945946Y-25086844D01*
X17940171Y-25086768D01*
X17940167Y-25086768D01*
X17838793Y-25085441D01*
X17742971Y-25084187D01*
X17737274Y-25085166D01*
X17737273Y-25085166D01*
X17606530Y-25107632D01*
X17542910Y-25118564D01*
X17352463Y-25188824D01*
X17178010Y-25292612D01*
X17173670Y-25296418D01*
X17173666Y-25296421D01*
X17095360Y-25365094D01*
X17025392Y-25426455D01*
X16899720Y-25585869D01*
X16897031Y-25590980D01*
X16897029Y-25590983D01*
X16884787Y-25614251D01*
X16805203Y-25765515D01*
X16745007Y-25959378D01*
X16721148Y-26160964D01*
X16396564Y-26160964D01*
X16380658Y-25987859D01*
X16375042Y-25967945D01*
X16327125Y-25798046D01*
X16327124Y-25798044D01*
X16325557Y-25792487D01*
X16314978Y-25771033D01*
X16238331Y-25615609D01*
X16235776Y-25610428D01*
X16114320Y-25447779D01*
X15965258Y-25309987D01*
X15960375Y-25306906D01*
X15960371Y-25306903D01*
X15802651Y-25207390D01*
X15793581Y-25201667D01*
X15605039Y-25126446D01*
X15599379Y-25125320D01*
X15599375Y-25125319D01*
X15411613Y-25087971D01*
X15411610Y-25087971D01*
X15405946Y-25086844D01*
X15400171Y-25086768D01*
X15400167Y-25086768D01*
X15298793Y-25085441D01*
X15202971Y-25084187D01*
X15197274Y-25085166D01*
X15197273Y-25085166D01*
X15066530Y-25107632D01*
X15002910Y-25118564D01*
X14812463Y-25188824D01*
X14638010Y-25292612D01*
X14633670Y-25296418D01*
X14633666Y-25296421D01*
X14555360Y-25365094D01*
X14485392Y-25426455D01*
X14359720Y-25585869D01*
X14357031Y-25590980D01*
X14357029Y-25590983D01*
X14344787Y-25614251D01*
X14265203Y-25765515D01*
X14205007Y-25959378D01*
X14181148Y-26160964D01*
X13856564Y-26160964D01*
X13840658Y-25987859D01*
X13835042Y-25967945D01*
X13787125Y-25798046D01*
X13787124Y-25798044D01*
X13785557Y-25792487D01*
X13774978Y-25771033D01*
X13698331Y-25615609D01*
X13695776Y-25610428D01*
X13574320Y-25447779D01*
X13425258Y-25309987D01*
X13420375Y-25306906D01*
X13420371Y-25306903D01*
X13262651Y-25207390D01*
X13253581Y-25201667D01*
X13065039Y-25126446D01*
X13059379Y-25125320D01*
X13059375Y-25125319D01*
X12871613Y-25087971D01*
X12871610Y-25087971D01*
X12865946Y-25086844D01*
X12860171Y-25086768D01*
X12860167Y-25086768D01*
X12758793Y-25085441D01*
X12662971Y-25084187D01*
X12657274Y-25085166D01*
X12657273Y-25085166D01*
X12526530Y-25107632D01*
X12462910Y-25118564D01*
X12272463Y-25188824D01*
X12098010Y-25292612D01*
X12093670Y-25296418D01*
X12093666Y-25296421D01*
X12015360Y-25365094D01*
X11945392Y-25426455D01*
X11819720Y-25585869D01*
X11817031Y-25590980D01*
X11817029Y-25590983D01*
X11804787Y-25614251D01*
X11725203Y-25765515D01*
X11665007Y-25959378D01*
X11641148Y-26160964D01*
X11316564Y-26160964D01*
X11300658Y-25987859D01*
X11295042Y-25967945D01*
X11247125Y-25798046D01*
X11247124Y-25798044D01*
X11245557Y-25792487D01*
X11234978Y-25771033D01*
X11158331Y-25615609D01*
X11155776Y-25610428D01*
X11034320Y-25447779D01*
X10885258Y-25309987D01*
X10880375Y-25306906D01*
X10880371Y-25306903D01*
X10722651Y-25207390D01*
X10713581Y-25201667D01*
X10525039Y-25126446D01*
X10519379Y-25125320D01*
X10519375Y-25125319D01*
X10331613Y-25087971D01*
X10331610Y-25087971D01*
X10325946Y-25086844D01*
X10320171Y-25086768D01*
X10320167Y-25086768D01*
X10218793Y-25085441D01*
X10122971Y-25084187D01*
X10117274Y-25085166D01*
X10117273Y-25085166D01*
X9986530Y-25107632D01*
X9922910Y-25118564D01*
X9732463Y-25188824D01*
X9558010Y-25292612D01*
X9553670Y-25296418D01*
X9553666Y-25296421D01*
X9475360Y-25365094D01*
X9405392Y-25426455D01*
X9279720Y-25585869D01*
X9277031Y-25590980D01*
X9277029Y-25590983D01*
X9264787Y-25614251D01*
X9185203Y-25765515D01*
X9125007Y-25959378D01*
X9101148Y-26160964D01*
X8776564Y-26160964D01*
X8760658Y-25987859D01*
X8755042Y-25967945D01*
X8707125Y-25798046D01*
X8707124Y-25798044D01*
X8705557Y-25792487D01*
X8694978Y-25771033D01*
X8618331Y-25615609D01*
X8615776Y-25610428D01*
X8494320Y-25447779D01*
X8345258Y-25309987D01*
X8340375Y-25306906D01*
X8340371Y-25306903D01*
X8182651Y-25207390D01*
X8173581Y-25201667D01*
X7985039Y-25126446D01*
X7979379Y-25125320D01*
X7979375Y-25125319D01*
X7791613Y-25087971D01*
X7791610Y-25087971D01*
X7785946Y-25086844D01*
X7780171Y-25086768D01*
X7780167Y-25086768D01*
X7678793Y-25085441D01*
X7582971Y-25084187D01*
X7577274Y-25085166D01*
X7577273Y-25085166D01*
X7446530Y-25107632D01*
X7382910Y-25118564D01*
X7192463Y-25188824D01*
X7018010Y-25292612D01*
X7013670Y-25296418D01*
X7013666Y-25296421D01*
X6935360Y-25365094D01*
X6865392Y-25426455D01*
X6739720Y-25585869D01*
X6737031Y-25590980D01*
X6737029Y-25590983D01*
X6724787Y-25614251D01*
X6645203Y-25765515D01*
X6585007Y-25959378D01*
X6561148Y-26160964D01*
X6236564Y-26160964D01*
X6220658Y-25987859D01*
X6215042Y-25967945D01*
X6167125Y-25798046D01*
X6167124Y-25798044D01*
X6165557Y-25792487D01*
X6154978Y-25771033D01*
X6078331Y-25615609D01*
X6075776Y-25610428D01*
X5954320Y-25447779D01*
X5805258Y-25309987D01*
X5800375Y-25306906D01*
X5800371Y-25306903D01*
X5642651Y-25207390D01*
X5633581Y-25201667D01*
X5445039Y-25126446D01*
X5439379Y-25125320D01*
X5439375Y-25125319D01*
X5251613Y-25087971D01*
X5251610Y-25087971D01*
X5245946Y-25086844D01*
X5240171Y-25086768D01*
X5240167Y-25086768D01*
X5138793Y-25085441D01*
X5042971Y-25084187D01*
X5037274Y-25085166D01*
X5037273Y-25085166D01*
X4906530Y-25107632D01*
X4842910Y-25118564D01*
X4652463Y-25188824D01*
X4478010Y-25292612D01*
X4473670Y-25296418D01*
X4473666Y-25296421D01*
X4395360Y-25365094D01*
X4325392Y-25426455D01*
X4199720Y-25585869D01*
X4197031Y-25590980D01*
X4197029Y-25590983D01*
X4184787Y-25614251D01*
X4105203Y-25765515D01*
X4045007Y-25959378D01*
X4021148Y-26160964D01*
X3696564Y-26160964D01*
X3680658Y-25987859D01*
X3675042Y-25967945D01*
X3627125Y-25798046D01*
X3627124Y-25798044D01*
X3625557Y-25792487D01*
X3614978Y-25771033D01*
X3538331Y-25615609D01*
X3535776Y-25610428D01*
X3414320Y-25447779D01*
X3265258Y-25309987D01*
X3260375Y-25306906D01*
X3260371Y-25306903D01*
X3102651Y-25207390D01*
X3093581Y-25201667D01*
X2905039Y-25126446D01*
X2899379Y-25125320D01*
X2899375Y-25125319D01*
X2711613Y-25087971D01*
X2711610Y-25087971D01*
X2705946Y-25086844D01*
X2700171Y-25086768D01*
X2700167Y-25086768D01*
X2598793Y-25085441D01*
X2502971Y-25084187D01*
X2497274Y-25085166D01*
X2497273Y-25085166D01*
X2366530Y-25107632D01*
X2302910Y-25118564D01*
X2112463Y-25188824D01*
X1938010Y-25292612D01*
X1933670Y-25296418D01*
X1933666Y-25296421D01*
X1855360Y-25365094D01*
X1785392Y-25426455D01*
X1659720Y-25585869D01*
X1657031Y-25590980D01*
X1657029Y-25590983D01*
X1644787Y-25614251D01*
X1565203Y-25765515D01*
X1505007Y-25959378D01*
X1481148Y-26160964D01*
X-1383436Y-26160964D01*
X-1399342Y-25987859D01*
X-1404958Y-25967945D01*
X-1414870Y-25932799D01*
X-1022057Y-25932799D01*
X-1015325Y-25936000D01*
X-222115Y-25936000D01*
X-206876Y-25931525D01*
X-205671Y-25930135D01*
X-204000Y-25922452D01*
X-204000Y-25917885D01*
X304000Y-25917885D01*
X308475Y-25933124D01*
X309865Y-25934329D01*
X317548Y-25936000D01*
X1107398Y-25936000D01*
X1120929Y-25932027D01*
X1122098Y-25923892D01*
X1086658Y-25798231D01*
X1082533Y-25787484D01*
X997903Y-25615871D01*
X991893Y-25606063D01*
X877400Y-25452739D01*
X869710Y-25444199D01*
X729192Y-25314304D01*
X720067Y-25307303D01*
X558236Y-25205195D01*
X547989Y-25199974D01*
X370260Y-25129068D01*
X359232Y-25125801D01*
X321769Y-25118350D01*
X308894Y-25119502D01*
X304000Y-25134658D01*
X304000Y-25917885D01*
X-204000Y-25917885D01*
X-204000Y-25131500D01*
X-207806Y-25118538D01*
X-222721Y-25116602D01*
X-231268Y-25118071D01*
X-242380Y-25121048D01*
X-421905Y-25187279D01*
X-432283Y-25192229D01*
X-596727Y-25290063D01*
X-606039Y-25296829D01*
X-749903Y-25422994D01*
X-757820Y-25431337D01*
X-876282Y-25581605D01*
X-882550Y-25591256D01*
X-971642Y-25760592D01*
X-976047Y-25771227D01*
X-1021838Y-25918698D01*
X-1022057Y-25932799D01*
X-1414870Y-25932799D01*
X-1452875Y-25798046D01*
X-1452876Y-25798044D01*
X-1454443Y-25792487D01*
X-1465022Y-25771033D01*
X-1541669Y-25615609D01*
X-1544224Y-25610428D01*
X-1665680Y-25447779D01*
X-1814742Y-25309987D01*
X-1819625Y-25306906D01*
X-1819629Y-25306903D01*
X-1977349Y-25207390D01*
X-1986419Y-25201667D01*
X-2174961Y-25126446D01*
X-2180621Y-25125320D01*
X-2180625Y-25125319D01*
X-2368387Y-25087971D01*
X-2368390Y-25087971D01*
X-2374054Y-25086844D01*
X-2379829Y-25086768D01*
X-2379833Y-25086768D01*
X-2481207Y-25085441D01*
X-2577029Y-25084187D01*
X-2582726Y-25085166D01*
X-2582727Y-25085166D01*
X-2713470Y-25107632D01*
X-2777090Y-25118564D01*
X-2967537Y-25188824D01*
X-3141990Y-25292612D01*
X-3146330Y-25296418D01*
X-3146334Y-25296421D01*
X-3224640Y-25365094D01*
X-3294608Y-25426455D01*
X-3420280Y-25585869D01*
X-3422969Y-25590980D01*
X-3422971Y-25590983D01*
X-3435213Y-25614251D01*
X-3514797Y-25765515D01*
X-3574993Y-25959378D01*
X-3598852Y-26160964D01*
X-3923436Y-26160964D01*
X-3939342Y-25987859D01*
X-3944958Y-25967945D01*
X-3992875Y-25798046D01*
X-3992876Y-25798044D01*
X-3994443Y-25792487D01*
X-4005022Y-25771033D01*
X-4081669Y-25615609D01*
X-4084224Y-25610428D01*
X-4205680Y-25447779D01*
X-4354742Y-25309987D01*
X-4359625Y-25306906D01*
X-4359629Y-25306903D01*
X-4517349Y-25207390D01*
X-4526419Y-25201667D01*
X-4714961Y-25126446D01*
X-4720621Y-25125320D01*
X-4720625Y-25125319D01*
X-4908387Y-25087971D01*
X-4908390Y-25087971D01*
X-4914054Y-25086844D01*
X-4919829Y-25086768D01*
X-4919833Y-25086768D01*
X-5021207Y-25085441D01*
X-5117029Y-25084187D01*
X-5122726Y-25085166D01*
X-5122727Y-25085166D01*
X-5253470Y-25107632D01*
X-5317090Y-25118564D01*
X-5507537Y-25188824D01*
X-5681990Y-25292612D01*
X-5686330Y-25296418D01*
X-5686334Y-25296421D01*
X-5764640Y-25365094D01*
X-5834608Y-25426455D01*
X-5960280Y-25585869D01*
X-5962969Y-25590980D01*
X-5962971Y-25590983D01*
X-5975213Y-25614251D01*
X-6054797Y-25765515D01*
X-6114993Y-25959378D01*
X-6138852Y-26160964D01*
X-6463436Y-26160964D01*
X-6479342Y-25987859D01*
X-6484958Y-25967945D01*
X-6532875Y-25798046D01*
X-6532876Y-25798044D01*
X-6534443Y-25792487D01*
X-6545022Y-25771033D01*
X-6621669Y-25615609D01*
X-6624224Y-25610428D01*
X-6745680Y-25447779D01*
X-6894742Y-25309987D01*
X-6899625Y-25306906D01*
X-6899629Y-25306903D01*
X-7006735Y-25239325D01*
X-7053674Y-25186058D01*
X-7065500Y-25132763D01*
X-7065500Y-24250625D01*
X-7064159Y-24238620D01*
X-7064655Y-24238580D01*
X-7063935Y-24229633D01*
X-7061954Y-24220877D01*
X-7065258Y-24167619D01*
X-7065500Y-24159817D01*
X-7065500Y-24143774D01*
X-7066966Y-24133536D01*
X-7067996Y-24123481D01*
X-7070346Y-24085601D01*
X-7070346Y-24085599D01*
X-7070902Y-24076642D01*
X-7073949Y-24068201D01*
X-7074628Y-24064923D01*
X-7078584Y-24049055D01*
X-7079527Y-24045831D01*
X-7080799Y-24036948D01*
X-7084513Y-24028779D01*
X-7084515Y-24028773D01*
X-7100225Y-23994221D01*
X-7104039Y-23984852D01*
X-7116923Y-23949163D01*
X-7119972Y-23940716D01*
X-7125269Y-23933466D01*
X-7126846Y-23930499D01*
X-7135093Y-23916386D01*
X-7136898Y-23913563D01*
X-7140612Y-23905395D01*
X-7171247Y-23869842D01*
X-7177525Y-23861936D01*
X-7185473Y-23851056D01*
X-7196335Y-23840194D01*
X-7202693Y-23833347D01*
X-7229085Y-23802718D01*
X-7234944Y-23795918D01*
X-7242479Y-23791034D01*
X-7249051Y-23785301D01*
X-7260455Y-23776074D01*
X-10471596Y-20564933D01*
X23485500Y-20564933D01*
X23485501Y-22415066D01*
X23500266Y-22489301D01*
X23556516Y-22573484D01*
X23640699Y-22629734D01*
X23714933Y-22644500D01*
X24639850Y-22644500D01*
X25565066Y-22644499D01*
X25600818Y-22637388D01*
X25627126Y-22632156D01*
X25627128Y-22632155D01*
X25639301Y-22629734D01*
X25649621Y-22622839D01*
X25649622Y-22622838D01*
X25713168Y-22580377D01*
X25723484Y-22573484D01*
X25779734Y-22489301D01*
X25794500Y-22415067D01*
X25794499Y-20564934D01*
X25779734Y-20490699D01*
X25723484Y-20406516D01*
X25639301Y-20350266D01*
X25565067Y-20335500D01*
X24874267Y-20335500D01*
X24806146Y-20315498D01*
X24759653Y-20261842D01*
X24749549Y-20191568D01*
X24779043Y-20126988D01*
X24838769Y-20088604D01*
X24856188Y-20084804D01*
X24904835Y-20077751D01*
X24916019Y-20075066D01*
X25105917Y-20010604D01*
X25116420Y-20005928D01*
X25241830Y-19935696D01*
X25251693Y-19925619D01*
X25248738Y-19917949D01*
X24652811Y-19322021D01*
X24638868Y-19314408D01*
X24637034Y-19314539D01*
X24630420Y-19318790D01*
X24036092Y-19913119D01*
X24029899Y-19924461D01*
X24039781Y-19936950D01*
X24082199Y-19965292D01*
X24092307Y-19970780D01*
X24276564Y-20049943D01*
X24287497Y-20053495D01*
X24433833Y-20086608D01*
X24495860Y-20121151D01*
X24529364Y-20183745D01*
X24523710Y-20254516D01*
X24480691Y-20310995D01*
X24413966Y-20335251D01*
X24406037Y-20335501D01*
X23714934Y-20335501D01*
X23679182Y-20342612D01*
X23652874Y-20347844D01*
X23652872Y-20347845D01*
X23640699Y-20350266D01*
X23630379Y-20357161D01*
X23630378Y-20357162D01*
X23569985Y-20397516D01*
X23556516Y-20406516D01*
X23500266Y-20490699D01*
X23485500Y-20564933D01*
X-10471596Y-20564933D01*
X-12098595Y-18937934D01*
X-12105424Y-18925428D01*
X23481831Y-18925428D01*
X23494947Y-19125531D01*
X23496748Y-19136901D01*
X23546109Y-19331263D01*
X23549950Y-19342110D01*
X23633907Y-19524227D01*
X23639658Y-19534188D01*
X23652781Y-19552758D01*
X23663371Y-19561147D01*
X23676669Y-19554120D01*
X24267979Y-18962811D01*
X24274356Y-18951132D01*
X25004408Y-18951132D01*
X25004539Y-18952966D01*
X25008790Y-18959580D01*
X25604037Y-19554826D01*
X25616412Y-19561583D01*
X25622992Y-19556657D01*
X25695928Y-19426420D01*
X25700604Y-19415917D01*
X25765066Y-19226019D01*
X25767751Y-19214836D01*
X25796823Y-19014328D01*
X25797453Y-19006945D01*
X25798847Y-18953704D01*
X25798604Y-18946305D01*
X25780066Y-18744553D01*
X25777969Y-18733238D01*
X25723535Y-18540231D01*
X25719413Y-18529492D01*
X25630718Y-18349636D01*
X25627571Y-18344501D01*
X25617737Y-18337120D01*
X25605321Y-18343890D01*
X25012021Y-18937189D01*
X25004408Y-18951132D01*
X24274356Y-18951132D01*
X24275592Y-18948868D01*
X24275461Y-18947034D01*
X24271210Y-18940420D01*
X23674477Y-18343688D01*
X23662102Y-18336931D01*
X23656136Y-18341397D01*
X23571967Y-18501375D01*
X23567562Y-18512009D01*
X23508095Y-18703525D01*
X23505703Y-18714779D01*
X23482132Y-18913927D01*
X23481831Y-18925428D01*
X-12105424Y-18925428D01*
X-12132621Y-18875622D01*
X-12135500Y-18848839D01*
X-12135500Y-17975113D01*
X24029226Y-17975113D01*
X24032713Y-17983502D01*
X24627189Y-18577979D01*
X24641132Y-18585592D01*
X24642966Y-18585461D01*
X24649580Y-18581210D01*
X25243636Y-17987153D01*
X25250393Y-17974778D01*
X25244363Y-17966722D01*
X25171036Y-17920456D01*
X25160785Y-17915233D01*
X24974527Y-17840924D01*
X24963491Y-17837655D01*
X24766809Y-17798532D01*
X24755364Y-17797329D01*
X24554852Y-17794705D01*
X24543372Y-17795608D01*
X24345740Y-17829567D01*
X24334620Y-17832547D01*
X24146478Y-17901956D01*
X24136100Y-17906906D01*
X24038824Y-17964780D01*
X24029226Y-17975113D01*
X-12135500Y-17975113D01*
X-12135500Y-10454933D01*
X5965500Y-10454933D01*
X5965501Y-12305066D01*
X5980266Y-12379301D01*
X6036516Y-12463484D01*
X6120699Y-12519734D01*
X6194933Y-12534500D01*
X7119850Y-12534500D01*
X8045066Y-12534499D01*
X8080818Y-12527388D01*
X8107126Y-12522156D01*
X8107128Y-12522155D01*
X8119301Y-12519734D01*
X8129621Y-12512839D01*
X8129622Y-12512838D01*
X8193168Y-12470377D01*
X8203484Y-12463484D01*
X8259734Y-12379301D01*
X8274500Y-12305067D01*
X8274499Y-10454934D01*
X8274499Y-10454933D01*
X17645500Y-10454933D01*
X17645501Y-12305066D01*
X17660266Y-12379301D01*
X17716516Y-12463484D01*
X17800699Y-12519734D01*
X17874933Y-12534500D01*
X18799850Y-12534500D01*
X19725066Y-12534499D01*
X19760818Y-12527388D01*
X19787126Y-12522156D01*
X19787128Y-12522155D01*
X19799301Y-12519734D01*
X19809621Y-12512839D01*
X19809622Y-12512838D01*
X19873168Y-12470377D01*
X19883484Y-12463484D01*
X19939734Y-12379301D01*
X19954500Y-12305067D01*
X19954499Y-10454934D01*
X19954499Y-10454933D01*
X29325500Y-10454933D01*
X29325501Y-12305066D01*
X29340266Y-12379301D01*
X29396516Y-12463484D01*
X29480699Y-12519734D01*
X29554933Y-12534500D01*
X30479850Y-12534500D01*
X31405066Y-12534499D01*
X31440818Y-12527388D01*
X31467126Y-12522156D01*
X31467128Y-12522155D01*
X31479301Y-12519734D01*
X31489621Y-12512839D01*
X31489622Y-12512838D01*
X31553168Y-12470377D01*
X31563484Y-12463484D01*
X31619734Y-12379301D01*
X31634500Y-12305067D01*
X31634499Y-10454934D01*
X31634499Y-10454933D01*
X41015500Y-10454933D01*
X41015501Y-12305066D01*
X41030266Y-12379301D01*
X41086516Y-12463484D01*
X41170699Y-12519734D01*
X41244933Y-12534500D01*
X42169850Y-12534500D01*
X43095066Y-12534499D01*
X43130818Y-12527388D01*
X43157126Y-12522156D01*
X43157128Y-12522155D01*
X43169301Y-12519734D01*
X43179621Y-12512839D01*
X43179622Y-12512838D01*
X43243168Y-12470377D01*
X43253484Y-12463484D01*
X43309734Y-12379301D01*
X43324500Y-12305067D01*
X43324499Y-10454934D01*
X43309734Y-10380699D01*
X43253484Y-10296516D01*
X43169301Y-10240266D01*
X43095067Y-10225500D01*
X42404267Y-10225500D01*
X42336146Y-10205498D01*
X42289653Y-10151842D01*
X42279549Y-10081568D01*
X42309043Y-10016988D01*
X42368769Y-9978604D01*
X42386188Y-9974804D01*
X42434835Y-9967751D01*
X42446019Y-9965066D01*
X42635917Y-9900604D01*
X42646420Y-9895928D01*
X42771830Y-9825696D01*
X42781693Y-9815619D01*
X42778738Y-9807949D01*
X42182811Y-9212021D01*
X42168868Y-9204408D01*
X42167034Y-9204539D01*
X42160420Y-9208790D01*
X41566092Y-9803119D01*
X41559899Y-9814461D01*
X41569781Y-9826950D01*
X41612199Y-9855292D01*
X41622307Y-9860780D01*
X41806564Y-9939943D01*
X41817497Y-9943495D01*
X41963833Y-9976608D01*
X42025860Y-10011151D01*
X42059364Y-10073745D01*
X42053710Y-10144516D01*
X42010691Y-10200995D01*
X41943966Y-10225251D01*
X41936037Y-10225501D01*
X41244934Y-10225501D01*
X41209182Y-10232612D01*
X41182874Y-10237844D01*
X41182872Y-10237845D01*
X41170699Y-10240266D01*
X41160379Y-10247161D01*
X41160378Y-10247162D01*
X41099985Y-10287516D01*
X41086516Y-10296516D01*
X41030266Y-10380699D01*
X41015500Y-10454933D01*
X31634499Y-10454933D01*
X31619734Y-10380699D01*
X31563484Y-10296516D01*
X31479301Y-10240266D01*
X31405067Y-10225500D01*
X30714267Y-10225500D01*
X30646146Y-10205498D01*
X30599653Y-10151842D01*
X30589549Y-10081568D01*
X30619043Y-10016988D01*
X30678769Y-9978604D01*
X30696188Y-9974804D01*
X30744835Y-9967751D01*
X30756019Y-9965066D01*
X30945917Y-9900604D01*
X30956420Y-9895928D01*
X31081830Y-9825696D01*
X31091693Y-9815619D01*
X31088738Y-9807949D01*
X30492811Y-9212021D01*
X30478868Y-9204408D01*
X30477034Y-9204539D01*
X30470420Y-9208790D01*
X29876092Y-9803119D01*
X29869899Y-9814461D01*
X29879781Y-9826950D01*
X29922199Y-9855292D01*
X29932307Y-9860780D01*
X30116564Y-9939943D01*
X30127497Y-9943495D01*
X30273833Y-9976608D01*
X30335860Y-10011151D01*
X30369364Y-10073745D01*
X30363710Y-10144516D01*
X30320691Y-10200995D01*
X30253966Y-10225251D01*
X30246037Y-10225501D01*
X29554934Y-10225501D01*
X29519182Y-10232612D01*
X29492874Y-10237844D01*
X29492872Y-10237845D01*
X29480699Y-10240266D01*
X29470379Y-10247161D01*
X29470378Y-10247162D01*
X29409985Y-10287516D01*
X29396516Y-10296516D01*
X29340266Y-10380699D01*
X29325500Y-10454933D01*
X19954499Y-10454933D01*
X19939734Y-10380699D01*
X19883484Y-10296516D01*
X19799301Y-10240266D01*
X19725067Y-10225500D01*
X19034267Y-10225500D01*
X18966146Y-10205498D01*
X18919653Y-10151842D01*
X18909549Y-10081568D01*
X18939043Y-10016988D01*
X18998769Y-9978604D01*
X19016188Y-9974804D01*
X19064835Y-9967751D01*
X19076019Y-9965066D01*
X19265917Y-9900604D01*
X19276420Y-9895928D01*
X19401830Y-9825696D01*
X19411693Y-9815619D01*
X19408738Y-9807949D01*
X18812811Y-9212021D01*
X18798868Y-9204408D01*
X18797034Y-9204539D01*
X18790420Y-9208790D01*
X18196092Y-9803119D01*
X18189899Y-9814461D01*
X18199781Y-9826950D01*
X18242199Y-9855292D01*
X18252307Y-9860780D01*
X18436564Y-9939943D01*
X18447497Y-9943495D01*
X18593833Y-9976608D01*
X18655860Y-10011151D01*
X18689364Y-10073745D01*
X18683710Y-10144516D01*
X18640691Y-10200995D01*
X18573966Y-10225251D01*
X18566037Y-10225501D01*
X17874934Y-10225501D01*
X17839182Y-10232612D01*
X17812874Y-10237844D01*
X17812872Y-10237845D01*
X17800699Y-10240266D01*
X17790379Y-10247161D01*
X17790378Y-10247162D01*
X17729985Y-10287516D01*
X17716516Y-10296516D01*
X17660266Y-10380699D01*
X17645500Y-10454933D01*
X8274499Y-10454933D01*
X8259734Y-10380699D01*
X8203484Y-10296516D01*
X8119301Y-10240266D01*
X8045067Y-10225500D01*
X7354267Y-10225500D01*
X7286146Y-10205498D01*
X7239653Y-10151842D01*
X7229549Y-10081568D01*
X7259043Y-10016988D01*
X7318769Y-9978604D01*
X7336188Y-9974804D01*
X7384835Y-9967751D01*
X7396019Y-9965066D01*
X7585917Y-9900604D01*
X7596420Y-9895928D01*
X7721830Y-9825696D01*
X7731693Y-9815619D01*
X7728738Y-9807949D01*
X7132811Y-9212021D01*
X7118868Y-9204408D01*
X7117034Y-9204539D01*
X7110420Y-9208790D01*
X6516092Y-9803119D01*
X6509899Y-9814461D01*
X6519781Y-9826950D01*
X6562199Y-9855292D01*
X6572307Y-9860780D01*
X6756564Y-9939943D01*
X6767497Y-9943495D01*
X6913833Y-9976608D01*
X6975860Y-10011151D01*
X7009364Y-10073745D01*
X7003710Y-10144516D01*
X6960691Y-10200995D01*
X6893966Y-10225251D01*
X6886037Y-10225501D01*
X6194934Y-10225501D01*
X6159182Y-10232612D01*
X6132874Y-10237844D01*
X6132872Y-10237845D01*
X6120699Y-10240266D01*
X6110379Y-10247161D01*
X6110378Y-10247162D01*
X6049985Y-10287516D01*
X6036516Y-10296516D01*
X5980266Y-10380699D01*
X5965500Y-10454933D01*
X-12135500Y-10454933D01*
X-12135500Y-8815428D01*
X5961831Y-8815428D01*
X5974947Y-9015531D01*
X5976748Y-9026901D01*
X6026109Y-9221263D01*
X6029950Y-9232110D01*
X6113907Y-9414227D01*
X6119658Y-9424188D01*
X6132781Y-9442758D01*
X6143371Y-9451147D01*
X6156669Y-9444120D01*
X6747979Y-8852811D01*
X6754356Y-8841132D01*
X7484408Y-8841132D01*
X7484539Y-8842966D01*
X7488790Y-8849580D01*
X8084037Y-9444826D01*
X8096412Y-9451583D01*
X8102992Y-9446657D01*
X8175928Y-9316420D01*
X8180604Y-9305917D01*
X8245066Y-9116019D01*
X8247751Y-9104836D01*
X8276823Y-8904328D01*
X8277453Y-8896945D01*
X8278847Y-8843704D01*
X8278604Y-8836305D01*
X8276686Y-8815428D01*
X17641831Y-8815428D01*
X17654947Y-9015531D01*
X17656748Y-9026901D01*
X17706109Y-9221263D01*
X17709950Y-9232110D01*
X17793907Y-9414227D01*
X17799658Y-9424188D01*
X17812781Y-9442758D01*
X17823371Y-9451147D01*
X17836669Y-9444120D01*
X18427979Y-8852811D01*
X18434356Y-8841132D01*
X19164408Y-8841132D01*
X19164539Y-8842966D01*
X19168790Y-8849580D01*
X19764037Y-9444826D01*
X19776412Y-9451583D01*
X19782992Y-9446657D01*
X19855928Y-9316420D01*
X19860604Y-9305917D01*
X19925066Y-9116019D01*
X19927751Y-9104836D01*
X19956823Y-8904328D01*
X19957453Y-8896945D01*
X19958847Y-8843704D01*
X19958604Y-8836305D01*
X19956686Y-8815428D01*
X29321831Y-8815428D01*
X29334947Y-9015531D01*
X29336748Y-9026901D01*
X29386109Y-9221263D01*
X29389950Y-9232110D01*
X29473907Y-9414227D01*
X29479658Y-9424188D01*
X29492781Y-9442758D01*
X29503371Y-9451147D01*
X29516669Y-9444120D01*
X30107979Y-8852811D01*
X30114356Y-8841132D01*
X30844408Y-8841132D01*
X30844539Y-8842966D01*
X30848790Y-8849580D01*
X31444037Y-9444826D01*
X31456412Y-9451583D01*
X31462992Y-9446657D01*
X31535928Y-9316420D01*
X31540604Y-9305917D01*
X31605066Y-9116019D01*
X31607751Y-9104836D01*
X31636823Y-8904328D01*
X31637453Y-8896945D01*
X31638847Y-8843704D01*
X31638604Y-8836305D01*
X31636686Y-8815428D01*
X41011831Y-8815428D01*
X41024947Y-9015531D01*
X41026748Y-9026901D01*
X41076109Y-9221263D01*
X41079950Y-9232110D01*
X41163907Y-9414227D01*
X41169658Y-9424188D01*
X41182781Y-9442758D01*
X41193371Y-9451147D01*
X41206669Y-9444120D01*
X41797979Y-8852811D01*
X41804356Y-8841132D01*
X42534408Y-8841132D01*
X42534539Y-8842966D01*
X42538790Y-8849580D01*
X43134037Y-9444826D01*
X43146412Y-9451583D01*
X43152992Y-9446657D01*
X43225928Y-9316420D01*
X43230604Y-9305917D01*
X43295066Y-9116019D01*
X43297751Y-9104836D01*
X43326823Y-8904328D01*
X43327453Y-8896945D01*
X43328847Y-8843704D01*
X43328604Y-8836305D01*
X43310066Y-8634553D01*
X43307969Y-8623238D01*
X43253535Y-8430231D01*
X43249413Y-8419492D01*
X43160718Y-8239636D01*
X43157571Y-8234501D01*
X43147737Y-8227120D01*
X43135321Y-8233890D01*
X42542021Y-8827189D01*
X42534408Y-8841132D01*
X41804356Y-8841132D01*
X41805592Y-8838868D01*
X41805461Y-8837034D01*
X41801210Y-8830420D01*
X41204477Y-8233688D01*
X41192102Y-8226931D01*
X41186136Y-8231397D01*
X41101967Y-8391375D01*
X41097562Y-8402009D01*
X41038095Y-8593525D01*
X41035703Y-8604779D01*
X41012132Y-8803927D01*
X41011831Y-8815428D01*
X31636686Y-8815428D01*
X31620066Y-8634553D01*
X31617969Y-8623238D01*
X31563535Y-8430231D01*
X31559413Y-8419492D01*
X31470718Y-8239636D01*
X31467571Y-8234501D01*
X31457737Y-8227120D01*
X31445321Y-8233890D01*
X30852021Y-8827189D01*
X30844408Y-8841132D01*
X30114356Y-8841132D01*
X30115592Y-8838868D01*
X30115461Y-8837034D01*
X30111210Y-8830420D01*
X29514477Y-8233688D01*
X29502102Y-8226931D01*
X29496136Y-8231397D01*
X29411967Y-8391375D01*
X29407562Y-8402009D01*
X29348095Y-8593525D01*
X29345703Y-8604779D01*
X29322132Y-8803927D01*
X29321831Y-8815428D01*
X19956686Y-8815428D01*
X19940066Y-8634553D01*
X19937969Y-8623238D01*
X19883535Y-8430231D01*
X19879413Y-8419492D01*
X19790718Y-8239636D01*
X19787571Y-8234501D01*
X19777737Y-8227120D01*
X19765321Y-8233890D01*
X19172021Y-8827189D01*
X19164408Y-8841132D01*
X18434356Y-8841132D01*
X18435592Y-8838868D01*
X18435461Y-8837034D01*
X18431210Y-8830420D01*
X17834477Y-8233688D01*
X17822102Y-8226931D01*
X17816136Y-8231397D01*
X17731967Y-8391375D01*
X17727562Y-8402009D01*
X17668095Y-8593525D01*
X17665703Y-8604779D01*
X17642132Y-8803927D01*
X17641831Y-8815428D01*
X8276686Y-8815428D01*
X8260066Y-8634553D01*
X8257969Y-8623238D01*
X8203535Y-8430231D01*
X8199413Y-8419492D01*
X8110718Y-8239636D01*
X8107571Y-8234501D01*
X8097737Y-8227120D01*
X8085321Y-8233890D01*
X7492021Y-8827189D01*
X7484408Y-8841132D01*
X6754356Y-8841132D01*
X6755592Y-8838868D01*
X6755461Y-8837034D01*
X6751210Y-8830420D01*
X6154477Y-8233688D01*
X6142102Y-8226931D01*
X6136136Y-8231397D01*
X6051967Y-8391375D01*
X6047562Y-8402009D01*
X5988095Y-8593525D01*
X5985703Y-8604779D01*
X5962132Y-8803927D01*
X5961831Y-8815428D01*
X-12135500Y-8815428D01*
X-12135500Y-8677314D01*
X-12115498Y-8609193D01*
X-12071069Y-8567382D01*
X-12011724Y-8534147D01*
X-11972031Y-8501135D01*
X-11860087Y-8408031D01*
X-11855655Y-8404345D01*
X-11725853Y-8248276D01*
X-11626666Y-8071165D01*
X-11624810Y-8065698D01*
X-11624808Y-8065693D01*
X-11563272Y-7884414D01*
X-11563271Y-7884409D01*
X-11561416Y-7878945D01*
X-11560588Y-7873236D01*
X-11560587Y-7873231D01*
X-11559410Y-7865113D01*
X6509226Y-7865113D01*
X6512713Y-7873502D01*
X7107189Y-8467979D01*
X7121132Y-8475592D01*
X7122966Y-8475461D01*
X7129580Y-8471210D01*
X7723636Y-7877153D01*
X7730210Y-7865113D01*
X18189226Y-7865113D01*
X18192713Y-7873502D01*
X18787189Y-8467979D01*
X18801132Y-8475592D01*
X18802966Y-8475461D01*
X18809580Y-8471210D01*
X19403636Y-7877153D01*
X19410210Y-7865113D01*
X29869226Y-7865113D01*
X29872713Y-7873502D01*
X30467189Y-8467979D01*
X30481132Y-8475592D01*
X30482966Y-8475461D01*
X30489580Y-8471210D01*
X31083636Y-7877153D01*
X31090210Y-7865113D01*
X41559226Y-7865113D01*
X41562713Y-7873502D01*
X42157189Y-8467979D01*
X42171132Y-8475592D01*
X42172966Y-8475461D01*
X42179580Y-8471210D01*
X42773636Y-7877153D01*
X42780393Y-7864778D01*
X42774363Y-7856722D01*
X42701036Y-7810456D01*
X42690785Y-7805233D01*
X42504527Y-7730924D01*
X42493491Y-7727655D01*
X42296809Y-7688532D01*
X42285364Y-7687329D01*
X42084852Y-7684705D01*
X42073372Y-7685608D01*
X41875740Y-7719567D01*
X41864620Y-7722547D01*
X41676478Y-7791956D01*
X41666100Y-7796906D01*
X41568824Y-7854780D01*
X41559226Y-7865113D01*
X31090210Y-7865113D01*
X31090393Y-7864778D01*
X31084363Y-7856722D01*
X31011036Y-7810456D01*
X31000785Y-7805233D01*
X30814527Y-7730924D01*
X30803491Y-7727655D01*
X30606809Y-7688532D01*
X30595364Y-7687329D01*
X30394852Y-7684705D01*
X30383372Y-7685608D01*
X30185740Y-7719567D01*
X30174620Y-7722547D01*
X29986478Y-7791956D01*
X29976100Y-7796906D01*
X29878824Y-7854780D01*
X29869226Y-7865113D01*
X19410210Y-7865113D01*
X19410393Y-7864778D01*
X19404363Y-7856722D01*
X19331036Y-7810456D01*
X19320785Y-7805233D01*
X19134527Y-7730924D01*
X19123491Y-7727655D01*
X18926809Y-7688532D01*
X18915364Y-7687329D01*
X18714852Y-7684705D01*
X18703372Y-7685608D01*
X18505740Y-7719567D01*
X18494620Y-7722547D01*
X18306478Y-7791956D01*
X18296100Y-7796906D01*
X18198824Y-7854780D01*
X18189226Y-7865113D01*
X7730210Y-7865113D01*
X7730393Y-7864778D01*
X7724363Y-7856722D01*
X7651036Y-7810456D01*
X7640785Y-7805233D01*
X7454527Y-7730924D01*
X7443491Y-7727655D01*
X7246809Y-7688532D01*
X7235364Y-7687329D01*
X7034852Y-7684705D01*
X7023372Y-7685608D01*
X6825740Y-7719567D01*
X6814620Y-7722547D01*
X6626478Y-7791956D01*
X6616100Y-7796906D01*
X6518824Y-7854780D01*
X6509226Y-7865113D01*
X-11559410Y-7865113D01*
X-11538307Y-7719567D01*
X-11532288Y-7678053D01*
X-11530768Y-7620000D01*
X-11542203Y-7495551D01*
X-11548813Y-7423613D01*
X-11548814Y-7423610D01*
X-11549342Y-7417859D01*
X-11555727Y-7395221D01*
X-11602875Y-7228046D01*
X-11602876Y-7228044D01*
X-11604443Y-7222487D01*
X-11614926Y-7201228D01*
X-11691669Y-7045609D01*
X-11694224Y-7040428D01*
X-11815680Y-6877779D01*
X-11964742Y-6739987D01*
X-11969625Y-6736906D01*
X-11969629Y-6736903D01*
X-12131536Y-6634748D01*
X-12136419Y-6631667D01*
X-12324961Y-6556446D01*
X-12330621Y-6555320D01*
X-12330625Y-6555319D01*
X-12518387Y-6517971D01*
X-12518390Y-6517971D01*
X-12524054Y-6516844D01*
X-12529829Y-6516768D01*
X-12529833Y-6516768D01*
X-12631207Y-6515441D01*
X-12727029Y-6514187D01*
X-12732726Y-6515166D01*
X-12732727Y-6515166D01*
X-12820603Y-6530266D01*
X-12927090Y-6548564D01*
X-13117537Y-6618824D01*
X-13291990Y-6722612D01*
X-13296330Y-6726418D01*
X-13296334Y-6726421D01*
X-13440267Y-6852648D01*
X-13444608Y-6856455D01*
X-13448183Y-6860990D01*
X-13448184Y-6860991D01*
X-13453669Y-6867949D01*
X-13570280Y-7015869D01*
X-13572969Y-7020980D01*
X-13572971Y-7020983D01*
X-13591988Y-7057129D01*
X-13664797Y-7195515D01*
X-13724993Y-7389378D01*
X-13748852Y-7590964D01*
X-14073436Y-7590964D01*
X-14082203Y-7495551D01*
X-14088813Y-7423613D01*
X-14088814Y-7423610D01*
X-14089342Y-7417859D01*
X-14095727Y-7395221D01*
X-14142875Y-7228046D01*
X-14142876Y-7228044D01*
X-14144443Y-7222487D01*
X-14154926Y-7201228D01*
X-14231669Y-7045609D01*
X-14234224Y-7040428D01*
X-14355680Y-6877779D01*
X-14504742Y-6739987D01*
X-14509625Y-6736906D01*
X-14509629Y-6736903D01*
X-14671536Y-6634748D01*
X-14676419Y-6631667D01*
X-14864961Y-6556446D01*
X-14870621Y-6555320D01*
X-14870625Y-6555319D01*
X-15058387Y-6517971D01*
X-15058390Y-6517971D01*
X-15064054Y-6516844D01*
X-15069829Y-6516768D01*
X-15069833Y-6516768D01*
X-15171207Y-6515441D01*
X-15267029Y-6514187D01*
X-15272726Y-6515166D01*
X-15272727Y-6515166D01*
X-15360603Y-6530266D01*
X-15467090Y-6548564D01*
X-15657537Y-6618824D01*
X-15831990Y-6722612D01*
X-15836330Y-6726418D01*
X-15836334Y-6726421D01*
X-15980267Y-6852648D01*
X-15984608Y-6856455D01*
X-15988183Y-6860990D01*
X-15988184Y-6860991D01*
X-15993669Y-6867949D01*
X-16110280Y-7015869D01*
X-16112969Y-7020980D01*
X-16112971Y-7020983D01*
X-16131988Y-7057129D01*
X-16204797Y-7195515D01*
X-16264993Y-7389378D01*
X-16288852Y-7590964D01*
X-16613938Y-7590964D01*
X-16629307Y-7423707D01*
X-16631405Y-7412386D01*
X-16683342Y-7228231D01*
X-16687467Y-7217484D01*
X-16771002Y-7048092D01*
X-16777990Y-7042847D01*
X-16790409Y-7049619D01*
X-17347978Y-7607188D01*
X-17355592Y-7621132D01*
X-18085644Y-7621132D01*
X-18084408Y-7618868D01*
X-18084539Y-7617035D01*
X-18088790Y-7610420D01*
X-18648496Y-7050714D01*
X-18660876Y-7043954D01*
X-18666842Y-7048420D01*
X-18741644Y-7190595D01*
X-18746047Y-7201228D01*
X-18802787Y-7383959D01*
X-18805181Y-7395221D01*
X-18827671Y-7585241D01*
X-18827972Y-7596743D01*
X-19152905Y-7596743D01*
X-19162203Y-7495551D01*
X-19168813Y-7423613D01*
X-19168814Y-7423610D01*
X-19169342Y-7417859D01*
X-19175727Y-7395221D01*
X-19222875Y-7228046D01*
X-19222876Y-7228044D01*
X-19224443Y-7222487D01*
X-19234926Y-7201228D01*
X-19311669Y-7045609D01*
X-19314224Y-7040428D01*
X-19435680Y-6877779D01*
X-19584742Y-6739987D01*
X-19589625Y-6736906D01*
X-19589629Y-6736903D01*
X-19677291Y-6681593D01*
X-18294295Y-6681593D01*
X-18290808Y-6689982D01*
X-17732812Y-7247978D01*
X-17718868Y-7255592D01*
X-17717035Y-7255461D01*
X-17710420Y-7251210D01*
X-17152619Y-6693409D01*
X-17145859Y-6681029D01*
X-17151889Y-6672974D01*
X-17211761Y-6635197D01*
X-17222012Y-6629974D01*
X-17399740Y-6559068D01*
X-17410768Y-6555801D01*
X-17598439Y-6518471D01*
X-17609885Y-6517268D01*
X-17801208Y-6514764D01*
X-17812688Y-6515667D01*
X-18001263Y-6548070D01*
X-18012383Y-6551050D01*
X-18191905Y-6617279D01*
X-18202283Y-6622229D01*
X-18284697Y-6671260D01*
X-18294295Y-6681593D01*
X-19677291Y-6681593D01*
X-19751536Y-6634748D01*
X-19756419Y-6631667D01*
X-19944961Y-6556446D01*
X-19950621Y-6555320D01*
X-19950625Y-6555319D01*
X-20138387Y-6517971D01*
X-20138390Y-6517971D01*
X-20144054Y-6516844D01*
X-20149829Y-6516768D01*
X-20149833Y-6516768D01*
X-20251207Y-6515441D01*
X-20347029Y-6514187D01*
X-20352726Y-6515166D01*
X-20352727Y-6515166D01*
X-20440603Y-6530266D01*
X-20547090Y-6548564D01*
X-20737537Y-6618824D01*
X-20911990Y-6722612D01*
X-20916330Y-6726418D01*
X-20916334Y-6726421D01*
X-21060267Y-6852648D01*
X-21064608Y-6856455D01*
X-21068183Y-6860990D01*
X-21068184Y-6860991D01*
X-21073669Y-6867949D01*
X-21190280Y-7015869D01*
X-21192969Y-7020980D01*
X-21192971Y-7020983D01*
X-21211988Y-7057129D01*
X-21284797Y-7195515D01*
X-21344993Y-7389378D01*
X-21368852Y-7590964D01*
X-21695501Y-7590964D01*
X-21695501Y-6744934D01*
X-21705749Y-6693409D01*
X-21707844Y-6682874D01*
X-21707845Y-6682872D01*
X-21710266Y-6670699D01*
X-21736346Y-6631667D01*
X-21759623Y-6596832D01*
X-21766516Y-6586516D01*
X-21850699Y-6530266D01*
X-21924933Y-6515500D01*
X-22799858Y-6515500D01*
X-23675066Y-6515501D01*
X-23710818Y-6522612D01*
X-23737126Y-6527844D01*
X-23737128Y-6527845D01*
X-23749301Y-6530266D01*
X-23759621Y-6537161D01*
X-23759622Y-6537162D01*
X-23792406Y-6559068D01*
X-23833484Y-6586516D01*
X-23889734Y-6670699D01*
X-23904500Y-6744933D01*
X-39735500Y-6744933D01*
X-39735501Y-4974934D01*
X-39750266Y-4900699D01*
X-39806516Y-4816516D01*
X-39890699Y-4760266D01*
X-39964933Y-4745500D01*
X-40889850Y-4745500D01*
X-41815066Y-4745501D01*
X-41850818Y-4752612D01*
X-41877126Y-4757844D01*
X-41877128Y-4757845D01*
X-41889301Y-4760266D01*
X-41899621Y-4767161D01*
X-41899622Y-4767162D01*
X-41960015Y-4807516D01*
X-41973484Y-4816516D01*
X-42029734Y-4900699D01*
X-42044500Y-4974933D01*
X-42044500Y-5649968D01*
X-42064502Y-5718089D01*
X-42118158Y-5764582D01*
X-42188432Y-5774686D01*
X-42253012Y-5745192D01*
X-42291769Y-5684169D01*
X-42346464Y-5490233D01*
X-42350587Y-5479492D01*
X-42439282Y-5299636D01*
X-42442429Y-5294501D01*
X-42452263Y-5287120D01*
X-42464679Y-5293890D01*
X-43057979Y-5887189D01*
X-43065592Y-5901132D01*
X-43795644Y-5901132D01*
X-43794408Y-5898868D01*
X-43794539Y-5897034D01*
X-43798790Y-5890420D01*
X-44395523Y-5293688D01*
X-44407898Y-5286931D01*
X-44413864Y-5291397D01*
X-44498033Y-5451375D01*
X-44502438Y-5462009D01*
X-44561905Y-5653525D01*
X-44564297Y-5664779D01*
X-44587868Y-5863927D01*
X-44588169Y-5875428D01*
X-50546000Y-5875428D01*
X-50546000Y-4925113D01*
X-44040774Y-4925113D01*
X-44037287Y-4933502D01*
X-43442811Y-5527979D01*
X-43428868Y-5535592D01*
X-43427034Y-5535461D01*
X-43420420Y-5531210D01*
X-42826364Y-4937153D01*
X-42819607Y-4924778D01*
X-42825637Y-4916722D01*
X-42898964Y-4870456D01*
X-42909215Y-4865233D01*
X-43095473Y-4790924D01*
X-43106509Y-4787655D01*
X-43303191Y-4748532D01*
X-43314636Y-4747329D01*
X-43515148Y-4744705D01*
X-43526628Y-4745608D01*
X-43724260Y-4779567D01*
X-43735380Y-4782547D01*
X-43923522Y-4851956D01*
X-43933900Y-4856906D01*
X-44031176Y-4914780D01*
X-44040774Y-4925113D01*
X-50546000Y-4925113D01*
X-50546000Y-344933D01*
X11805500Y-344933D01*
X11805501Y-2195066D01*
X11820266Y-2269301D01*
X11876516Y-2353484D01*
X11960699Y-2409734D01*
X12034933Y-2424500D01*
X12959850Y-2424500D01*
X13885066Y-2424499D01*
X13920818Y-2417388D01*
X13947126Y-2412156D01*
X13947128Y-2412155D01*
X13959301Y-2409734D01*
X13969621Y-2402839D01*
X13969622Y-2402838D01*
X14033168Y-2360377D01*
X14043484Y-2353484D01*
X14099734Y-2269301D01*
X14114500Y-2195067D01*
X14114499Y-344934D01*
X14114499Y-344933D01*
X23485500Y-344933D01*
X23485501Y-2195066D01*
X23500266Y-2269301D01*
X23556516Y-2353484D01*
X23640699Y-2409734D01*
X23714933Y-2424500D01*
X24639850Y-2424500D01*
X25565066Y-2424499D01*
X25600818Y-2417388D01*
X25627126Y-2412156D01*
X25627128Y-2412155D01*
X25639301Y-2409734D01*
X25649621Y-2402839D01*
X25649622Y-2402838D01*
X25713168Y-2360377D01*
X25723484Y-2353484D01*
X25779734Y-2269301D01*
X25794500Y-2195067D01*
X25794499Y-344934D01*
X25794499Y-344933D01*
X35175500Y-344933D01*
X35175501Y-2195066D01*
X35190266Y-2269301D01*
X35246516Y-2353484D01*
X35330699Y-2409734D01*
X35404933Y-2424500D01*
X36329850Y-2424500D01*
X37255066Y-2424499D01*
X37290818Y-2417388D01*
X37317126Y-2412156D01*
X37317128Y-2412155D01*
X37329301Y-2409734D01*
X37339621Y-2402839D01*
X37339622Y-2402838D01*
X37403168Y-2360377D01*
X37413484Y-2353484D01*
X37469734Y-2269301D01*
X37484500Y-2195067D01*
X37484499Y-344934D01*
X37469734Y-270699D01*
X37413484Y-186516D01*
X37329301Y-130266D01*
X37255067Y-115500D01*
X36564267Y-115500D01*
X36496146Y-95498D01*
X36449653Y-41842D01*
X36439549Y28432D01*
X36469043Y93012D01*
X36528769Y131396D01*
X36546188Y135196D01*
X36594835Y142249D01*
X36606019Y144934D01*
X36795917Y209396D01*
X36806420Y214072D01*
X36931830Y284304D01*
X36941693Y294381D01*
X36938738Y302051D01*
X36342811Y897979D01*
X36328868Y905592D01*
X36327034Y905461D01*
X36320420Y901210D01*
X35726092Y306881D01*
X35719899Y295539D01*
X35729781Y283050D01*
X35772199Y254708D01*
X35782307Y249220D01*
X35966564Y170057D01*
X35977497Y166505D01*
X36123833Y133392D01*
X36185860Y98849D01*
X36219364Y36255D01*
X36213710Y-34516D01*
X36170691Y-90995D01*
X36103966Y-115251D01*
X36096037Y-115501D01*
X35404934Y-115501D01*
X35369182Y-122612D01*
X35342874Y-127844D01*
X35342872Y-127845D01*
X35330699Y-130266D01*
X35320379Y-137161D01*
X35320378Y-137162D01*
X35259985Y-177516D01*
X35246516Y-186516D01*
X35190266Y-270699D01*
X35175500Y-344933D01*
X25794499Y-344933D01*
X25779734Y-270699D01*
X25723484Y-186516D01*
X25639301Y-130266D01*
X25565067Y-115500D01*
X24874267Y-115500D01*
X24806146Y-95498D01*
X24759653Y-41842D01*
X24749549Y28432D01*
X24779043Y93012D01*
X24838769Y131396D01*
X24856188Y135196D01*
X24904835Y142249D01*
X24916019Y144934D01*
X25105917Y209396D01*
X25116420Y214072D01*
X25241830Y284304D01*
X25251693Y294381D01*
X25248738Y302051D01*
X24652811Y897979D01*
X24638868Y905592D01*
X24637034Y905461D01*
X24630420Y901210D01*
X24036092Y306881D01*
X24029899Y295539D01*
X24039781Y283050D01*
X24082199Y254708D01*
X24092307Y249220D01*
X24276564Y170057D01*
X24287497Y166505D01*
X24433833Y133392D01*
X24495860Y98849D01*
X24529364Y36255D01*
X24523710Y-34516D01*
X24480691Y-90995D01*
X24413966Y-115251D01*
X24406037Y-115501D01*
X23714934Y-115501D01*
X23679182Y-122612D01*
X23652874Y-127844D01*
X23652872Y-127845D01*
X23640699Y-130266D01*
X23630379Y-137161D01*
X23630378Y-137162D01*
X23569985Y-177516D01*
X23556516Y-186516D01*
X23500266Y-270699D01*
X23485500Y-344933D01*
X14114499Y-344933D01*
X14099734Y-270699D01*
X14043484Y-186516D01*
X13959301Y-130266D01*
X13885067Y-115500D01*
X13194267Y-115500D01*
X13126146Y-95498D01*
X13079653Y-41842D01*
X13069549Y28432D01*
X13099043Y93012D01*
X13158769Y131396D01*
X13176188Y135196D01*
X13224835Y142249D01*
X13236019Y144934D01*
X13425917Y209396D01*
X13436420Y214072D01*
X13561830Y284304D01*
X13571693Y294381D01*
X13568738Y302051D01*
X12972811Y897979D01*
X12958868Y905592D01*
X12957034Y905461D01*
X12950420Y901210D01*
X12356092Y306881D01*
X12349899Y295539D01*
X12359781Y283050D01*
X12402199Y254708D01*
X12412307Y249220D01*
X12596564Y170057D01*
X12607497Y166505D01*
X12753833Y133392D01*
X12815860Y98849D01*
X12849364Y36255D01*
X12843710Y-34516D01*
X12800691Y-90995D01*
X12733966Y-115251D01*
X12726037Y-115501D01*
X12034934Y-115501D01*
X11999182Y-122612D01*
X11972874Y-127844D01*
X11972872Y-127845D01*
X11960699Y-130266D01*
X11950379Y-137161D01*
X11950378Y-137162D01*
X11889985Y-177516D01*
X11876516Y-186516D01*
X11820266Y-270699D01*
X11805500Y-344933D01*
X-50546000Y-344933D01*
X-50546000Y1294572D01*
X11801831Y1294572D01*
X11814947Y1094469D01*
X11816748Y1083099D01*
X11866109Y888737D01*
X11869950Y877890D01*
X11953907Y695773D01*
X11959658Y685812D01*
X11972781Y667242D01*
X11983371Y658853D01*
X11996669Y665880D01*
X12587979Y1257189D01*
X12594356Y1268868D01*
X13324408Y1268868D01*
X13324539Y1267034D01*
X13328790Y1260420D01*
X13924037Y665174D01*
X13936412Y658417D01*
X13942992Y663343D01*
X14015928Y793580D01*
X14020604Y804083D01*
X14085066Y993981D01*
X14087751Y1005164D01*
X14116823Y1205672D01*
X14117453Y1213055D01*
X14118847Y1266296D01*
X14118604Y1273695D01*
X14116686Y1294572D01*
X23481831Y1294572D01*
X23494947Y1094469D01*
X23496748Y1083099D01*
X23546109Y888737D01*
X23549950Y877890D01*
X23633907Y695773D01*
X23639658Y685812D01*
X23652781Y667242D01*
X23663371Y658853D01*
X23676669Y665880D01*
X24267979Y1257189D01*
X24274356Y1268868D01*
X25004408Y1268868D01*
X25004539Y1267034D01*
X25008790Y1260420D01*
X25604037Y665174D01*
X25616412Y658417D01*
X25622992Y663343D01*
X25695928Y793580D01*
X25700604Y804083D01*
X25765066Y993981D01*
X25767751Y1005164D01*
X25796823Y1205672D01*
X25797453Y1213055D01*
X25798847Y1266296D01*
X25798604Y1273695D01*
X25796686Y1294572D01*
X35171831Y1294572D01*
X35184947Y1094469D01*
X35186748Y1083099D01*
X35236109Y888737D01*
X35239950Y877890D01*
X35323907Y695773D01*
X35329658Y685812D01*
X35342781Y667242D01*
X35353371Y658853D01*
X35366669Y665880D01*
X35957979Y1257189D01*
X35964356Y1268868D01*
X36694408Y1268868D01*
X36694539Y1267034D01*
X36698790Y1260420D01*
X37294037Y665174D01*
X37306412Y658417D01*
X37312992Y663343D01*
X37385928Y793580D01*
X37390604Y804083D01*
X37455066Y993981D01*
X37457751Y1005164D01*
X37486823Y1205672D01*
X37487453Y1213055D01*
X37488847Y1266296D01*
X37488604Y1273695D01*
X37470066Y1475447D01*
X37467969Y1486762D01*
X37413535Y1679769D01*
X37409413Y1690508D01*
X37320718Y1870364D01*
X37317571Y1875499D01*
X37307737Y1882880D01*
X37295321Y1876110D01*
X36702021Y1282811D01*
X36694408Y1268868D01*
X35964356Y1268868D01*
X35965592Y1271132D01*
X35965461Y1272966D01*
X35961210Y1279580D01*
X35364477Y1876312D01*
X35352102Y1883069D01*
X35346136Y1878603D01*
X35261967Y1718625D01*
X35257562Y1707991D01*
X35198095Y1516475D01*
X35195703Y1505221D01*
X35172132Y1306073D01*
X35171831Y1294572D01*
X25796686Y1294572D01*
X25780066Y1475447D01*
X25777969Y1486762D01*
X25723535Y1679769D01*
X25719413Y1690508D01*
X25630718Y1870364D01*
X25627571Y1875499D01*
X25617737Y1882880D01*
X25605321Y1876110D01*
X25012021Y1282811D01*
X25004408Y1268868D01*
X24274356Y1268868D01*
X24275592Y1271132D01*
X24275461Y1272966D01*
X24271210Y1279580D01*
X23674477Y1876312D01*
X23662102Y1883069D01*
X23656136Y1878603D01*
X23571967Y1718625D01*
X23567562Y1707991D01*
X23508095Y1516475D01*
X23505703Y1505221D01*
X23482132Y1306073D01*
X23481831Y1294572D01*
X14116686Y1294572D01*
X14100066Y1475447D01*
X14097969Y1486762D01*
X14043535Y1679769D01*
X14039413Y1690508D01*
X13950718Y1870364D01*
X13947571Y1875499D01*
X13937737Y1882880D01*
X13925321Y1876110D01*
X13332021Y1282811D01*
X13324408Y1268868D01*
X12594356Y1268868D01*
X12595592Y1271132D01*
X12595461Y1272966D01*
X12591210Y1279580D01*
X11994477Y1876312D01*
X11982102Y1883069D01*
X11976136Y1878603D01*
X11891967Y1718625D01*
X11887562Y1707991D01*
X11828095Y1516475D01*
X11825703Y1505221D01*
X11802132Y1306073D01*
X11801831Y1294572D01*
X-50546000Y1294572D01*
X-50546000Y2244887D01*
X12349226Y2244887D01*
X12352713Y2236498D01*
X12947189Y1642021D01*
X12961132Y1634408D01*
X12962966Y1634539D01*
X12969580Y1638790D01*
X13563636Y2232847D01*
X13570210Y2244887D01*
X24029226Y2244887D01*
X24032713Y2236498D01*
X24627189Y1642021D01*
X24641132Y1634408D01*
X24642966Y1634539D01*
X24649580Y1638790D01*
X25243636Y2232847D01*
X25250210Y2244887D01*
X35719226Y2244887D01*
X35722713Y2236498D01*
X36317189Y1642021D01*
X36331132Y1634408D01*
X36332966Y1634539D01*
X36339580Y1638790D01*
X36933636Y2232847D01*
X36940393Y2245222D01*
X36934363Y2253278D01*
X36861036Y2299544D01*
X36850785Y2304767D01*
X36664527Y2379076D01*
X36653491Y2382345D01*
X36456809Y2421468D01*
X36445364Y2422671D01*
X36244852Y2425295D01*
X36233372Y2424392D01*
X36035740Y2390433D01*
X36024620Y2387453D01*
X35836478Y2318044D01*
X35826100Y2313094D01*
X35728824Y2255220D01*
X35719226Y2244887D01*
X25250210Y2244887D01*
X25250393Y2245222D01*
X25244363Y2253278D01*
X25171036Y2299544D01*
X25160785Y2304767D01*
X24974527Y2379076D01*
X24963491Y2382345D01*
X24766809Y2421468D01*
X24755364Y2422671D01*
X24554852Y2425295D01*
X24543372Y2424392D01*
X24345740Y2390433D01*
X24334620Y2387453D01*
X24146478Y2318044D01*
X24136100Y2313094D01*
X24038824Y2255220D01*
X24029226Y2244887D01*
X13570210Y2244887D01*
X13570393Y2245222D01*
X13564363Y2253278D01*
X13491036Y2299544D01*
X13480785Y2304767D01*
X13294527Y2379076D01*
X13283491Y2382345D01*
X13086809Y2421468D01*
X13075364Y2422671D01*
X12874852Y2425295D01*
X12863372Y2424392D01*
X12665740Y2390433D01*
X12654620Y2387453D01*
X12466478Y2318044D01*
X12456100Y2313094D01*
X12358824Y2255220D01*
X12349226Y2244887D01*
X-50546000Y2244887D01*
X-50546000Y4925539D01*
X-44040101Y4925539D01*
X-44030219Y4913050D01*
X-43987801Y4884708D01*
X-43977693Y4879220D01*
X-43793436Y4800057D01*
X-43782503Y4796505D01*
X-43586909Y4752246D01*
X-43575500Y4750744D01*
X-43375114Y4742871D01*
X-43363632Y4743473D01*
X-43165164Y4772249D01*
X-43153981Y4774934D01*
X-42964083Y4839396D01*
X-42953580Y4844072D01*
X-42828170Y4914304D01*
X-42818307Y4924381D01*
X-42821262Y4932051D01*
X-43417189Y5527979D01*
X-43431132Y5535592D01*
X-43432966Y5535461D01*
X-43439580Y5531210D01*
X-44033908Y4936881D01*
X-44040101Y4925539D01*
X-50546000Y4925539D01*
X-50546000Y5924572D01*
X-44588169Y5924572D01*
X-44575053Y5724469D01*
X-44573252Y5713099D01*
X-44523891Y5518737D01*
X-44520050Y5507890D01*
X-44436093Y5325773D01*
X-44430342Y5315812D01*
X-44417219Y5297242D01*
X-44406629Y5288853D01*
X-44393331Y5295880D01*
X-43802021Y5887189D01*
X-43795644Y5898868D01*
X-43065592Y5898868D01*
X-43065461Y5897034D01*
X-43061210Y5890420D01*
X-42465963Y5295174D01*
X-42453588Y5288417D01*
X-42447008Y5293343D01*
X-42374072Y5423580D01*
X-42369396Y5434083D01*
X-42304934Y5623981D01*
X-42302250Y5635163D01*
X-42295195Y5683816D01*
X-42265625Y5748361D01*
X-42205852Y5786674D01*
X-42134856Y5786588D01*
X-42075176Y5748133D01*
X-42045760Y5683517D01*
X-42044499Y5665740D01*
X-42044499Y4974934D01*
X-42029734Y4900699D01*
X-41973484Y4816516D01*
X-41889301Y4760266D01*
X-41815067Y4745500D01*
X-40890150Y4745500D01*
X-39964934Y4745501D01*
X-39929182Y4752612D01*
X-39902874Y4757844D01*
X-39902872Y4757845D01*
X-39890699Y4760266D01*
X-39880379Y4767161D01*
X-39880378Y4767162D01*
X-39816832Y4809623D01*
X-39806516Y4816516D01*
X-39750266Y4900699D01*
X-39735500Y4974933D01*
X-39735501Y6825066D01*
X-39750266Y6899301D01*
X-39806516Y6983484D01*
X-39890699Y7039734D01*
X-39964933Y7054500D01*
X-40889850Y7054500D01*
X-41815066Y7054499D01*
X-41850818Y7047388D01*
X-41877126Y7042156D01*
X-41877128Y7042155D01*
X-41889301Y7039734D01*
X-41899621Y7032839D01*
X-41899622Y7032838D01*
X-41953602Y6996769D01*
X-41973484Y6983484D01*
X-42029734Y6899301D01*
X-42044500Y6825067D01*
X-42044500Y6150032D01*
X-42064502Y6081911D01*
X-42118158Y6035418D01*
X-42188432Y6025314D01*
X-42253012Y6054808D01*
X-42291769Y6115831D01*
X-42346464Y6309767D01*
X-42350587Y6320508D01*
X-42439282Y6500364D01*
X-42442429Y6505499D01*
X-42452263Y6512880D01*
X-42464679Y6506110D01*
X-43057979Y5912811D01*
X-43065592Y5898868D01*
X-43795644Y5898868D01*
X-43794408Y5901132D01*
X-43794539Y5902966D01*
X-43798790Y5909580D01*
X-44395523Y6506312D01*
X-44407898Y6513069D01*
X-44413864Y6508603D01*
X-44498033Y6348625D01*
X-44502438Y6337991D01*
X-44561905Y6146475D01*
X-44564297Y6135221D01*
X-44587868Y5936073D01*
X-44588169Y5924572D01*
X-50546000Y5924572D01*
X-50546000Y6874887D01*
X-44040774Y6874887D01*
X-44037287Y6866498D01*
X-43442811Y6272021D01*
X-43428868Y6264408D01*
X-43427034Y6264539D01*
X-43420420Y6268790D01*
X-42826364Y6862847D01*
X-42819607Y6875222D01*
X-42825637Y6883278D01*
X-42898964Y6929544D01*
X-42909215Y6934767D01*
X-43095473Y7009076D01*
X-43106509Y7012345D01*
X-43303191Y7051468D01*
X-43314636Y7052671D01*
X-43515148Y7055295D01*
X-43526628Y7054392D01*
X-43724260Y7020433D01*
X-43735380Y7017453D01*
X-43923522Y6948044D01*
X-43933900Y6943094D01*
X-44031176Y6885220D01*
X-44040774Y6874887D01*
X-50546000Y6874887D01*
X-50546000Y7649036D01*
X-23908852Y7649036D01*
X-23895576Y7446478D01*
X-23894155Y7440882D01*
X-23894154Y7440877D01*
X-23873881Y7361055D01*
X-23845608Y7249731D01*
X-23843191Y7244488D01*
X-23806085Y7163998D01*
X-23760623Y7065384D01*
X-23757290Y7060668D01*
X-23664621Y6929544D01*
X-23643467Y6899611D01*
X-23639325Y6895576D01*
X-23546842Y6805484D01*
X-23498062Y6757965D01*
X-23329280Y6645188D01*
X-23323977Y6642910D01*
X-23323974Y6642908D01*
X-23149189Y6567815D01*
X-23142772Y6565058D01*
X-23069756Y6548536D01*
X-22950421Y6521533D01*
X-22950416Y6521532D01*
X-22944784Y6520258D01*
X-22939013Y6520031D01*
X-22939011Y6520031D01*
X-22879244Y6517683D01*
X-22741947Y6512288D01*
X-22641501Y6526852D01*
X-22546769Y6540587D01*
X-22546764Y6540588D01*
X-22541055Y6541416D01*
X-22535591Y6543271D01*
X-22535586Y6543272D01*
X-22354307Y6604808D01*
X-22354302Y6604810D01*
X-22348835Y6606666D01*
X-22342974Y6609948D01*
X-22237348Y6669102D01*
X-22171724Y6705853D01*
X-22109066Y6757965D01*
X-22020087Y6831969D01*
X-22015655Y6835655D01*
X-21958537Y6904331D01*
X-21889547Y6987282D01*
X-21889545Y6987285D01*
X-21885853Y6991724D01*
X-21786666Y7168835D01*
X-21784810Y7174302D01*
X-21784808Y7174307D01*
X-21723272Y7355586D01*
X-21723271Y7355591D01*
X-21721416Y7361055D01*
X-21720588Y7366764D01*
X-21720587Y7366769D01*
X-21698950Y7516000D01*
X-21692288Y7561947D01*
X-21690768Y7620000D01*
X-21693436Y7649036D01*
X-21368852Y7649036D01*
X-21355576Y7446478D01*
X-21354155Y7440882D01*
X-21354154Y7440877D01*
X-21333881Y7361055D01*
X-21305608Y7249731D01*
X-21303191Y7244488D01*
X-21266085Y7163998D01*
X-21220623Y7065384D01*
X-21217290Y7060668D01*
X-21124621Y6929544D01*
X-21103467Y6899611D01*
X-21099325Y6895576D01*
X-21006842Y6805484D01*
X-20958062Y6757965D01*
X-20789280Y6645188D01*
X-20783977Y6642910D01*
X-20783974Y6642908D01*
X-20609189Y6567815D01*
X-20602772Y6565058D01*
X-20529756Y6548536D01*
X-20410421Y6521533D01*
X-20410416Y6521532D01*
X-20404784Y6520258D01*
X-20399013Y6520031D01*
X-20399011Y6520031D01*
X-20339244Y6517683D01*
X-20201947Y6512288D01*
X-20101501Y6526852D01*
X-20006769Y6540587D01*
X-20006764Y6540588D01*
X-20001055Y6541416D01*
X-19995591Y6543271D01*
X-19995586Y6543272D01*
X-19814307Y6604808D01*
X-19814302Y6604810D01*
X-19808835Y6606666D01*
X-19802974Y6609948D01*
X-19697348Y6669102D01*
X-19675051Y6681589D01*
X-18294050Y6681589D01*
X-18284170Y6669102D01*
X-18253841Y6648837D01*
X-18243736Y6643350D01*
X-18067923Y6567815D01*
X-18056980Y6564260D01*
X-17870354Y6522030D01*
X-17858945Y6520528D01*
X-17667742Y6513016D01*
X-17656260Y6513618D01*
X-17466894Y6541074D01*
X-17455698Y6543762D01*
X-17274507Y6605269D01*
X-17263998Y6609948D01*
X-17154909Y6671041D01*
X-17145045Y6681119D01*
X-17148000Y6688790D01*
X-17707188Y7247978D01*
X-17721132Y7255592D01*
X-17722965Y7255461D01*
X-17729580Y7251210D01*
X-18287854Y6692936D01*
X-18294050Y6681589D01*
X-19675051Y6681589D01*
X-19631724Y6705853D01*
X-19569066Y6757965D01*
X-19480087Y6831969D01*
X-19475655Y6835655D01*
X-19418537Y6904331D01*
X-19349547Y6987282D01*
X-19349545Y6987285D01*
X-19345853Y6991724D01*
X-19246666Y7168835D01*
X-19244810Y7174302D01*
X-19244808Y7174307D01*
X-19183272Y7355586D01*
X-19183271Y7355591D01*
X-19181416Y7361055D01*
X-19180588Y7366764D01*
X-19180587Y7366769D01*
X-19158950Y7516000D01*
X-19152288Y7561947D01*
X-19150768Y7620000D01*
X-19152905Y7643257D01*
X-18827972Y7643257D01*
X-18815458Y7452324D01*
X-18813657Y7440954D01*
X-18766557Y7255498D01*
X-18762716Y7244652D01*
X-18682608Y7070884D01*
X-18676854Y7060917D01*
X-18671342Y7053118D01*
X-18660753Y7044730D01*
X-18647452Y7051758D01*
X-18092022Y7607188D01*
X-18085644Y7618868D01*
X-17355592Y7618868D01*
X-17355461Y7617035D01*
X-17351210Y7610420D01*
X-16792705Y7051915D01*
X-16780325Y7045155D01*
X-16773745Y7050081D01*
X-16709948Y7163998D01*
X-16705269Y7174507D01*
X-16643762Y7355698D01*
X-16641074Y7366894D01*
X-16613322Y7558301D01*
X-16612692Y7565682D01*
X-16611367Y7616296D01*
X-16611610Y7623695D01*
X-16613938Y7649036D01*
X-16288852Y7649036D01*
X-16275576Y7446478D01*
X-16274155Y7440882D01*
X-16274154Y7440877D01*
X-16253881Y7361055D01*
X-16225608Y7249731D01*
X-16223191Y7244488D01*
X-16186085Y7163998D01*
X-16140623Y7065384D01*
X-16137290Y7060668D01*
X-16044621Y6929544D01*
X-16023467Y6899611D01*
X-16019325Y6895576D01*
X-15926842Y6805484D01*
X-15878062Y6757965D01*
X-15709280Y6645188D01*
X-15703977Y6642910D01*
X-15703974Y6642908D01*
X-15529189Y6567815D01*
X-15522772Y6565058D01*
X-15449756Y6548536D01*
X-15330421Y6521533D01*
X-15330416Y6521532D01*
X-15324784Y6520258D01*
X-15319013Y6520031D01*
X-15319011Y6520031D01*
X-15259244Y6517683D01*
X-15121947Y6512288D01*
X-15021501Y6526852D01*
X-14926769Y6540587D01*
X-14926764Y6540588D01*
X-14921055Y6541416D01*
X-14915591Y6543271D01*
X-14915586Y6543272D01*
X-14734307Y6604808D01*
X-14734302Y6604810D01*
X-14728835Y6606666D01*
X-14722974Y6609948D01*
X-14617348Y6669102D01*
X-14551724Y6705853D01*
X-14489066Y6757965D01*
X-14400087Y6831969D01*
X-14395655Y6835655D01*
X-14338537Y6904331D01*
X-14269547Y6987282D01*
X-14269545Y6987285D01*
X-14265853Y6991724D01*
X-14166666Y7168835D01*
X-14164810Y7174302D01*
X-14164808Y7174307D01*
X-14103272Y7355586D01*
X-14103271Y7355591D01*
X-14101416Y7361055D01*
X-14100588Y7366764D01*
X-14100587Y7366769D01*
X-14078950Y7516000D01*
X-14072288Y7561947D01*
X-14070768Y7620000D01*
X-14073436Y7649036D01*
X-13748852Y7649036D01*
X-13735576Y7446478D01*
X-13734155Y7440882D01*
X-13734154Y7440877D01*
X-13713881Y7361055D01*
X-13685608Y7249731D01*
X-13683191Y7244488D01*
X-13646085Y7163998D01*
X-13600623Y7065384D01*
X-13597290Y7060668D01*
X-13504621Y6929544D01*
X-13483467Y6899611D01*
X-13479325Y6895576D01*
X-13386842Y6805484D01*
X-13338062Y6757965D01*
X-13169280Y6645188D01*
X-13163977Y6642910D01*
X-13163974Y6642908D01*
X-12989189Y6567815D01*
X-12982772Y6565058D01*
X-12909756Y6548536D01*
X-12790421Y6521533D01*
X-12790416Y6521532D01*
X-12784784Y6520258D01*
X-12779013Y6520031D01*
X-12779011Y6520031D01*
X-12719244Y6517683D01*
X-12581947Y6512288D01*
X-12481501Y6526852D01*
X-12386769Y6540587D01*
X-12386764Y6540588D01*
X-12381055Y6541416D01*
X-12375591Y6543271D01*
X-12375586Y6543272D01*
X-12194307Y6604808D01*
X-12194302Y6604810D01*
X-12188835Y6606666D01*
X-12182974Y6609948D01*
X-12077348Y6669102D01*
X-12011724Y6705853D01*
X-11949066Y6757965D01*
X-11860087Y6831969D01*
X-11855655Y6835655D01*
X-11798537Y6904331D01*
X-11729547Y6987282D01*
X-11729545Y6987285D01*
X-11725853Y6991724D01*
X-11626666Y7168835D01*
X-11624810Y7174302D01*
X-11624808Y7174307D01*
X-11563272Y7355586D01*
X-11563271Y7355591D01*
X-11561416Y7361055D01*
X-11560588Y7366764D01*
X-11560587Y7366769D01*
X-11538950Y7516000D01*
X-11534760Y7544897D01*
X-3974384Y7544897D01*
X-3974195Y7541105D01*
X-3959428Y7244488D01*
X-3957870Y7213184D01*
X-3957229Y7209453D01*
X-3957228Y7209445D01*
X-3903988Y6899611D01*
X-3901625Y6885858D01*
X-3900537Y6882219D01*
X-3900536Y6882216D01*
X-3828967Y6642908D01*
X-3806463Y6567659D01*
X-3804950Y6564188D01*
X-3804948Y6564182D01*
X-3782691Y6513117D01*
X-3673764Y6263197D01*
X-3671841Y6259926D01*
X-3671839Y6259922D01*
X-3507371Y5980153D01*
X-3507366Y5980145D01*
X-3505448Y5976883D01*
X-3503147Y5973868D01*
X-3312811Y5724469D01*
X-3303954Y5712863D01*
X-3301306Y5710144D01*
X-3301301Y5710139D01*
X-3126996Y5531210D01*
X-3072202Y5474962D01*
X-3069258Y5472591D01*
X-3069255Y5472588D01*
X-2998190Y5415348D01*
X-2813547Y5266626D01*
X-2531736Y5090873D01*
X-2230853Y4950249D01*
X-2141949Y4921105D01*
X-2048222Y4890380D01*
X-1915254Y4846791D01*
X-1589512Y4781997D01*
X-1585739Y4781710D01*
X-1585732Y4781709D01*
X-1262122Y4757092D01*
X-1262117Y4757092D01*
X-1258345Y4756805D01*
X-926550Y4771582D01*
X-598933Y4826112D01*
X-595299Y4827178D01*
X-595295Y4827179D01*
X-453025Y4868917D01*
X-280241Y4919607D01*
X-251276Y4932051D01*
X21432Y5049215D01*
X24912Y5050710D01*
X312103Y5217525D01*
X577175Y5417633D01*
X816286Y5648137D01*
X845334Y5683816D01*
X1023582Y5902761D01*
X1023583Y5902762D01*
X1025973Y5905698D01*
X1027995Y5908902D01*
X1201176Y6183377D01*
X1201179Y6183383D01*
X1203199Y6186584D01*
X1345397Y6486727D01*
X1450506Y6801780D01*
X1517005Y7127178D01*
X1543930Y7458209D01*
X1544535Y7516000D01*
X1541542Y7565656D01*
X1524777Y7843744D01*
X1524777Y7843748D01*
X1524549Y7847522D01*
X1522975Y7856139D01*
X1465559Y8170519D01*
X1465558Y8170523D01*
X1464879Y8174241D01*
X1460208Y8189286D01*
X1431815Y8280726D01*
X1366391Y8491426D01*
X1364301Y8496089D01*
X1280247Y8683554D01*
X1230510Y8794482D01*
X1059205Y9079018D01*
X1056878Y9082002D01*
X1056873Y9082009D01*
X857294Y9337918D01*
X857292Y9337921D01*
X854958Y9340913D01*
X620726Y9576374D01*
X599865Y9592820D01*
X381371Y9765067D01*
X5965500Y9765067D01*
X5965501Y7914934D01*
X5972467Y7879910D01*
X5977215Y7856041D01*
X5980266Y7840699D01*
X6036516Y7756516D01*
X6120699Y7700266D01*
X6194933Y7685500D01*
X7119850Y7685500D01*
X8045066Y7685501D01*
X8080818Y7692612D01*
X8107126Y7697844D01*
X8107128Y7697845D01*
X8119301Y7700266D01*
X8129621Y7707161D01*
X8129622Y7707162D01*
X8193168Y7749623D01*
X8203484Y7756516D01*
X8259734Y7840699D01*
X8274500Y7914933D01*
X8274499Y9765066D01*
X8274499Y9765067D01*
X17645500Y9765067D01*
X17645501Y7914934D01*
X17652467Y7879910D01*
X17657215Y7856041D01*
X17660266Y7840699D01*
X17716516Y7756516D01*
X17800699Y7700266D01*
X17874933Y7685500D01*
X18799850Y7685500D01*
X19725066Y7685501D01*
X19760818Y7692612D01*
X19787126Y7697844D01*
X19787128Y7697845D01*
X19799301Y7700266D01*
X19809621Y7707161D01*
X19809622Y7707162D01*
X19873168Y7749623D01*
X19883484Y7756516D01*
X19939734Y7840699D01*
X19954500Y7914933D01*
X19954499Y9765066D01*
X19954499Y9765067D01*
X29325500Y9765067D01*
X29325501Y7914934D01*
X29332467Y7879910D01*
X29337215Y7856041D01*
X29340266Y7840699D01*
X29396516Y7756516D01*
X29480699Y7700266D01*
X29554933Y7685500D01*
X30479850Y7685500D01*
X31405066Y7685501D01*
X31440818Y7692612D01*
X31467126Y7697844D01*
X31467128Y7697845D01*
X31479301Y7700266D01*
X31489621Y7707161D01*
X31489622Y7707162D01*
X31553168Y7749623D01*
X31563484Y7756516D01*
X31619734Y7840699D01*
X31634500Y7914933D01*
X31634499Y9765066D01*
X31634499Y9765067D01*
X41015500Y9765067D01*
X41015501Y7914934D01*
X41022467Y7879910D01*
X41027215Y7856041D01*
X41030266Y7840699D01*
X41086516Y7756516D01*
X41170699Y7700266D01*
X41244933Y7685500D01*
X42169850Y7685500D01*
X43095066Y7685501D01*
X43130818Y7692612D01*
X43157126Y7697844D01*
X43157128Y7697845D01*
X43169301Y7700266D01*
X43179621Y7707161D01*
X43179622Y7707162D01*
X43243168Y7749623D01*
X43253484Y7756516D01*
X43309734Y7840699D01*
X43324500Y7914933D01*
X43324499Y9765066D01*
X43309734Y9839301D01*
X43253484Y9923484D01*
X43169301Y9979734D01*
X43095067Y9994500D01*
X42404267Y9994500D01*
X42336146Y10014502D01*
X42289653Y10068158D01*
X42279549Y10138432D01*
X42309043Y10203012D01*
X42368769Y10241396D01*
X42386188Y10245196D01*
X42434835Y10252249D01*
X42446019Y10254934D01*
X42635917Y10319396D01*
X42646420Y10324072D01*
X42771830Y10394304D01*
X42781693Y10404381D01*
X42778738Y10412051D01*
X42182811Y11007979D01*
X42168868Y11015592D01*
X42167034Y11015461D01*
X42160420Y11011210D01*
X41566092Y10416881D01*
X41559899Y10405539D01*
X41569781Y10393050D01*
X41612199Y10364708D01*
X41622307Y10359220D01*
X41806564Y10280057D01*
X41817497Y10276505D01*
X41963833Y10243392D01*
X42025860Y10208849D01*
X42059364Y10146255D01*
X42053710Y10075484D01*
X42010691Y10019005D01*
X41943966Y9994749D01*
X41936037Y9994499D01*
X41244934Y9994499D01*
X41209182Y9987388D01*
X41182874Y9982156D01*
X41182872Y9982155D01*
X41170699Y9979734D01*
X41160379Y9972839D01*
X41160378Y9972838D01*
X41135700Y9956348D01*
X41086516Y9923484D01*
X41030266Y9839301D01*
X41015500Y9765067D01*
X31634499Y9765067D01*
X31619734Y9839301D01*
X31563484Y9923484D01*
X31479301Y9979734D01*
X31405067Y9994500D01*
X30714267Y9994500D01*
X30646146Y10014502D01*
X30599653Y10068158D01*
X30589549Y10138432D01*
X30619043Y10203012D01*
X30678769Y10241396D01*
X30696188Y10245196D01*
X30744835Y10252249D01*
X30756019Y10254934D01*
X30945917Y10319396D01*
X30956420Y10324072D01*
X31081830Y10394304D01*
X31091693Y10404381D01*
X31088738Y10412051D01*
X30492811Y11007979D01*
X30478868Y11015592D01*
X30477034Y11015461D01*
X30470420Y11011210D01*
X29876092Y10416881D01*
X29869899Y10405539D01*
X29879781Y10393050D01*
X29922199Y10364708D01*
X29932307Y10359220D01*
X30116564Y10280057D01*
X30127497Y10276505D01*
X30273833Y10243392D01*
X30335860Y10208849D01*
X30369364Y10146255D01*
X30363710Y10075484D01*
X30320691Y10019005D01*
X30253966Y9994749D01*
X30246037Y9994499D01*
X29554934Y9994499D01*
X29519182Y9987388D01*
X29492874Y9982156D01*
X29492872Y9982155D01*
X29480699Y9979734D01*
X29470379Y9972839D01*
X29470378Y9972838D01*
X29445700Y9956348D01*
X29396516Y9923484D01*
X29340266Y9839301D01*
X29325500Y9765067D01*
X19954499Y9765067D01*
X19939734Y9839301D01*
X19883484Y9923484D01*
X19799301Y9979734D01*
X19725067Y9994500D01*
X19034267Y9994500D01*
X18966146Y10014502D01*
X18919653Y10068158D01*
X18909549Y10138432D01*
X18939043Y10203012D01*
X18998769Y10241396D01*
X19016188Y10245196D01*
X19064835Y10252249D01*
X19076019Y10254934D01*
X19265917Y10319396D01*
X19276420Y10324072D01*
X19401830Y10394304D01*
X19411693Y10404381D01*
X19408738Y10412051D01*
X18812811Y11007979D01*
X18798868Y11015592D01*
X18797034Y11015461D01*
X18790420Y11011210D01*
X18196092Y10416881D01*
X18189899Y10405539D01*
X18199781Y10393050D01*
X18242199Y10364708D01*
X18252307Y10359220D01*
X18436564Y10280057D01*
X18447497Y10276505D01*
X18593833Y10243392D01*
X18655860Y10208849D01*
X18689364Y10146255D01*
X18683710Y10075484D01*
X18640691Y10019005D01*
X18573966Y9994749D01*
X18566037Y9994499D01*
X17874934Y9994499D01*
X17839182Y9987388D01*
X17812874Y9982156D01*
X17812872Y9982155D01*
X17800699Y9979734D01*
X17790379Y9972839D01*
X17790378Y9972838D01*
X17765700Y9956348D01*
X17716516Y9923484D01*
X17660266Y9839301D01*
X17645500Y9765067D01*
X8274499Y9765067D01*
X8259734Y9839301D01*
X8203484Y9923484D01*
X8119301Y9979734D01*
X8045067Y9994500D01*
X7354267Y9994500D01*
X7286146Y10014502D01*
X7239653Y10068158D01*
X7229549Y10138432D01*
X7259043Y10203012D01*
X7318769Y10241396D01*
X7336188Y10245196D01*
X7384835Y10252249D01*
X7396019Y10254934D01*
X7585917Y10319396D01*
X7596420Y10324072D01*
X7721830Y10394304D01*
X7731693Y10404381D01*
X7728738Y10412051D01*
X7132811Y11007979D01*
X7118868Y11015592D01*
X7117034Y11015461D01*
X7110420Y11011210D01*
X6516092Y10416881D01*
X6509899Y10405539D01*
X6519781Y10393050D01*
X6562199Y10364708D01*
X6572307Y10359220D01*
X6756564Y10280057D01*
X6767497Y10276505D01*
X6913833Y10243392D01*
X6975860Y10208849D01*
X7009364Y10146255D01*
X7003710Y10075484D01*
X6960691Y10019005D01*
X6893966Y9994749D01*
X6886037Y9994499D01*
X6194934Y9994499D01*
X6159182Y9987388D01*
X6132874Y9982156D01*
X6132872Y9982155D01*
X6120699Y9979734D01*
X6110379Y9972839D01*
X6110378Y9972838D01*
X6085700Y9956348D01*
X6036516Y9923484D01*
X5980266Y9839301D01*
X5965500Y9765067D01*
X381371Y9765067D01*
X362885Y9779640D01*
X359904Y9781990D01*
X76269Y9954782D01*
X-64982Y10019005D01*
X-222619Y10090679D01*
X-222627Y10090682D01*
X-226071Y10092248D01*
X-542736Y10192396D01*
X-687320Y10219585D01*
X-865415Y10253075D01*
X-865420Y10253076D01*
X-869139Y10253775D01*
X-1200551Y10275497D01*
X-1204331Y10275289D01*
X-1204332Y10275289D01*
X-1299345Y10270060D01*
X-1532173Y10257247D01*
X-1535900Y10256586D01*
X-1535904Y10256586D01*
X-1794604Y10210737D01*
X-1859201Y10199289D01*
X-1862826Y10198184D01*
X-1862831Y10198183D01*
X-2058877Y10138432D01*
X-2176897Y10102462D01*
X-2480659Y9968170D01*
X-2766089Y9798358D01*
X-2769090Y9796043D01*
X-2769094Y9796040D01*
X-2809242Y9765066D01*
X-3029050Y9595485D01*
X-3031751Y9592826D01*
X-3031758Y9592820D01*
X-3263026Y9365155D01*
X-3265734Y9362489D01*
X-3472713Y9102747D01*
X-3646988Y8820020D01*
X-3786035Y8518404D01*
X-3828237Y8387352D01*
X-3882445Y8219017D01*
X-3887839Y8202268D01*
X-3888558Y8198552D01*
X-3888560Y8198544D01*
X-3943432Y7914933D01*
X-3950927Y7876192D01*
X-3951194Y7872416D01*
X-3951195Y7872411D01*
X-3972914Y7565656D01*
X-3974384Y7544897D01*
X-11534760Y7544897D01*
X-11532288Y7561947D01*
X-11530768Y7620000D01*
X-11544260Y7766832D01*
X-11548813Y7816387D01*
X-11548814Y7816390D01*
X-11549342Y7822141D01*
X-11555727Y7844779D01*
X-11602875Y8011954D01*
X-11602876Y8011956D01*
X-11604443Y8017513D01*
X-11614926Y8038772D01*
X-11691669Y8194391D01*
X-11694224Y8199572D01*
X-11815680Y8362221D01*
X-11964742Y8500013D01*
X-11969625Y8503094D01*
X-11969629Y8503097D01*
X-12131536Y8605252D01*
X-12136419Y8608333D01*
X-12324961Y8683554D01*
X-12330621Y8684680D01*
X-12330625Y8684681D01*
X-12518387Y8722029D01*
X-12518390Y8722029D01*
X-12524054Y8723156D01*
X-12529829Y8723232D01*
X-12529833Y8723232D01*
X-12631207Y8724559D01*
X-12727029Y8725813D01*
X-12732726Y8724834D01*
X-12732727Y8724834D01*
X-12921393Y8692415D01*
X-12927090Y8691436D01*
X-13117537Y8621176D01*
X-13291990Y8517388D01*
X-13296330Y8513582D01*
X-13296334Y8513579D01*
X-13440267Y8387352D01*
X-13444608Y8383545D01*
X-13570280Y8224131D01*
X-13572969Y8219020D01*
X-13572971Y8219017D01*
X-13587406Y8191580D01*
X-13664797Y8044485D01*
X-13724993Y7850622D01*
X-13748852Y7649036D01*
X-14073436Y7649036D01*
X-14084260Y7766832D01*
X-14088813Y7816387D01*
X-14088814Y7816390D01*
X-14089342Y7822141D01*
X-14095727Y7844779D01*
X-14142875Y8011954D01*
X-14142876Y8011956D01*
X-14144443Y8017513D01*
X-14154926Y8038772D01*
X-14231669Y8194391D01*
X-14234224Y8199572D01*
X-14355680Y8362221D01*
X-14504742Y8500013D01*
X-14509625Y8503094D01*
X-14509629Y8503097D01*
X-14671536Y8605252D01*
X-14676419Y8608333D01*
X-14864961Y8683554D01*
X-14870621Y8684680D01*
X-14870625Y8684681D01*
X-15058387Y8722029D01*
X-15058390Y8722029D01*
X-15064054Y8723156D01*
X-15069829Y8723232D01*
X-15069833Y8723232D01*
X-15171207Y8724559D01*
X-15267029Y8725813D01*
X-15272726Y8724834D01*
X-15272727Y8724834D01*
X-15461393Y8692415D01*
X-15467090Y8691436D01*
X-15657537Y8621176D01*
X-15831990Y8517388D01*
X-15836330Y8513582D01*
X-15836334Y8513579D01*
X-15980267Y8387352D01*
X-15984608Y8383545D01*
X-16110280Y8224131D01*
X-16112969Y8219020D01*
X-16112971Y8219017D01*
X-16127406Y8191580D01*
X-16204797Y8044485D01*
X-16264993Y7850622D01*
X-16288852Y7649036D01*
X-16613938Y7649036D01*
X-16629307Y7816293D01*
X-16631405Y7827614D01*
X-16683342Y8011769D01*
X-16687467Y8022516D01*
X-16771002Y8191908D01*
X-16777990Y8197153D01*
X-16790409Y8190381D01*
X-17347978Y7632812D01*
X-17355592Y7618868D01*
X-18085644Y7618868D01*
X-18084408Y7621132D01*
X-18084539Y7622965D01*
X-18088790Y7629580D01*
X-18648496Y8189286D01*
X-18660876Y8196046D01*
X-18666842Y8191580D01*
X-18741644Y8049405D01*
X-18746047Y8038772D01*
X-18802787Y7856041D01*
X-18805181Y7844779D01*
X-18827671Y7654759D01*
X-18827972Y7643257D01*
X-19152905Y7643257D01*
X-19164260Y7766832D01*
X-19168813Y7816387D01*
X-19168814Y7816390D01*
X-19169342Y7822141D01*
X-19175727Y7844779D01*
X-19222875Y8011954D01*
X-19222876Y8011956D01*
X-19224443Y8017513D01*
X-19234926Y8038772D01*
X-19311669Y8194391D01*
X-19314224Y8199572D01*
X-19435680Y8362221D01*
X-19584742Y8500013D01*
X-19589625Y8503094D01*
X-19589629Y8503097D01*
X-19677291Y8558407D01*
X-18294295Y8558407D01*
X-18290808Y8550018D01*
X-17732812Y7992022D01*
X-17718868Y7984408D01*
X-17717035Y7984539D01*
X-17710420Y7988790D01*
X-17152619Y8546591D01*
X-17145859Y8558971D01*
X-17151889Y8567026D01*
X-17211761Y8604803D01*
X-17222012Y8610026D01*
X-17399740Y8680932D01*
X-17410768Y8684199D01*
X-17598439Y8721529D01*
X-17609885Y8722732D01*
X-17801208Y8725236D01*
X-17812688Y8724333D01*
X-18001263Y8691930D01*
X-18012383Y8688950D01*
X-18191905Y8622721D01*
X-18202283Y8617771D01*
X-18284697Y8568740D01*
X-18294295Y8558407D01*
X-19677291Y8558407D01*
X-19751536Y8605252D01*
X-19756419Y8608333D01*
X-19944961Y8683554D01*
X-19950621Y8684680D01*
X-19950625Y8684681D01*
X-20138387Y8722029D01*
X-20138390Y8722029D01*
X-20144054Y8723156D01*
X-20149829Y8723232D01*
X-20149833Y8723232D01*
X-20251207Y8724559D01*
X-20347029Y8725813D01*
X-20352726Y8724834D01*
X-20352727Y8724834D01*
X-20541393Y8692415D01*
X-20547090Y8691436D01*
X-20737537Y8621176D01*
X-20911990Y8517388D01*
X-20916330Y8513582D01*
X-20916334Y8513579D01*
X-21060267Y8387352D01*
X-21064608Y8383545D01*
X-21190280Y8224131D01*
X-21192969Y8219020D01*
X-21192971Y8219017D01*
X-21207406Y8191580D01*
X-21284797Y8044485D01*
X-21344993Y7850622D01*
X-21368852Y7649036D01*
X-21693436Y7649036D01*
X-21704260Y7766832D01*
X-21708813Y7816387D01*
X-21708814Y7816390D01*
X-21709342Y7822141D01*
X-21715727Y7844779D01*
X-21762875Y8011954D01*
X-21762876Y8011956D01*
X-21764443Y8017513D01*
X-21774926Y8038772D01*
X-21851669Y8194391D01*
X-21854224Y8199572D01*
X-21975680Y8362221D01*
X-22124742Y8500013D01*
X-22129625Y8503094D01*
X-22129629Y8503097D01*
X-22291536Y8605252D01*
X-22296419Y8608333D01*
X-22484961Y8683554D01*
X-22490621Y8684680D01*
X-22490625Y8684681D01*
X-22678387Y8722029D01*
X-22678390Y8722029D01*
X-22684054Y8723156D01*
X-22689829Y8723232D01*
X-22689833Y8723232D01*
X-22791207Y8724559D01*
X-22887029Y8725813D01*
X-22892726Y8724834D01*
X-22892727Y8724834D01*
X-23081393Y8692415D01*
X-23087090Y8691436D01*
X-23277537Y8621176D01*
X-23451990Y8517388D01*
X-23456330Y8513582D01*
X-23456334Y8513579D01*
X-23600267Y8387352D01*
X-23604608Y8383545D01*
X-23730280Y8224131D01*
X-23732969Y8219020D01*
X-23732971Y8219017D01*
X-23747406Y8191580D01*
X-23824797Y8044485D01*
X-23884993Y7850622D01*
X-23908852Y7649036D01*
X-50546000Y7649036D01*
X-50546000Y11404572D01*
X5961831Y11404572D01*
X5974947Y11204469D01*
X5976748Y11193099D01*
X6026109Y10998737D01*
X6029950Y10987890D01*
X6113907Y10805773D01*
X6119658Y10795812D01*
X6132781Y10777242D01*
X6143371Y10768853D01*
X6156669Y10775880D01*
X6747979Y11367189D01*
X6754356Y11378868D01*
X7484408Y11378868D01*
X7484539Y11377034D01*
X7488790Y11370420D01*
X8084037Y10775174D01*
X8096412Y10768417D01*
X8102992Y10773343D01*
X8175928Y10903580D01*
X8180604Y10914083D01*
X8245066Y11103981D01*
X8247751Y11115164D01*
X8276823Y11315672D01*
X8277453Y11323055D01*
X8278847Y11376296D01*
X8278604Y11383695D01*
X8276686Y11404572D01*
X17641831Y11404572D01*
X17654947Y11204469D01*
X17656748Y11193099D01*
X17706109Y10998737D01*
X17709950Y10987890D01*
X17793907Y10805773D01*
X17799658Y10795812D01*
X17812781Y10777242D01*
X17823371Y10768853D01*
X17836669Y10775880D01*
X18427979Y11367189D01*
X18434356Y11378868D01*
X19164408Y11378868D01*
X19164539Y11377034D01*
X19168790Y11370420D01*
X19764037Y10775174D01*
X19776412Y10768417D01*
X19782992Y10773343D01*
X19855928Y10903580D01*
X19860604Y10914083D01*
X19925066Y11103981D01*
X19927751Y11115164D01*
X19956823Y11315672D01*
X19957453Y11323055D01*
X19958847Y11376296D01*
X19958604Y11383695D01*
X19956686Y11404572D01*
X29321831Y11404572D01*
X29334947Y11204469D01*
X29336748Y11193099D01*
X29386109Y10998737D01*
X29389950Y10987890D01*
X29473907Y10805773D01*
X29479658Y10795812D01*
X29492781Y10777242D01*
X29503371Y10768853D01*
X29516669Y10775880D01*
X30107979Y11367189D01*
X30114356Y11378868D01*
X30844408Y11378868D01*
X30844539Y11377034D01*
X30848790Y11370420D01*
X31444037Y10775174D01*
X31456412Y10768417D01*
X31462992Y10773343D01*
X31535928Y10903580D01*
X31540604Y10914083D01*
X31605066Y11103981D01*
X31607751Y11115164D01*
X31636823Y11315672D01*
X31637453Y11323055D01*
X31638847Y11376296D01*
X31638604Y11383695D01*
X31636686Y11404572D01*
X41011831Y11404572D01*
X41024947Y11204469D01*
X41026748Y11193099D01*
X41076109Y10998737D01*
X41079950Y10987890D01*
X41163907Y10805773D01*
X41169658Y10795812D01*
X41182781Y10777242D01*
X41193371Y10768853D01*
X41206669Y10775880D01*
X41797979Y11367189D01*
X41804356Y11378868D01*
X42534408Y11378868D01*
X42534539Y11377034D01*
X42538790Y11370420D01*
X43134037Y10775174D01*
X43146412Y10768417D01*
X43152992Y10773343D01*
X43225928Y10903580D01*
X43230604Y10914083D01*
X43295066Y11103981D01*
X43297751Y11115164D01*
X43326823Y11315672D01*
X43327453Y11323055D01*
X43328847Y11376296D01*
X43328604Y11383695D01*
X43310066Y11585447D01*
X43307969Y11596762D01*
X43253535Y11789769D01*
X43249413Y11800508D01*
X43160718Y11980364D01*
X43157571Y11985499D01*
X43147737Y11992880D01*
X43135321Y11986110D01*
X42542021Y11392811D01*
X42534408Y11378868D01*
X41804356Y11378868D01*
X41805592Y11381132D01*
X41805461Y11382966D01*
X41801210Y11389580D01*
X41204477Y11986312D01*
X41192102Y11993069D01*
X41186136Y11988603D01*
X41101967Y11828625D01*
X41097562Y11817991D01*
X41038095Y11626475D01*
X41035703Y11615221D01*
X41012132Y11416073D01*
X41011831Y11404572D01*
X31636686Y11404572D01*
X31620066Y11585447D01*
X31617969Y11596762D01*
X31563535Y11789769D01*
X31559413Y11800508D01*
X31470718Y11980364D01*
X31467571Y11985499D01*
X31457737Y11992880D01*
X31445321Y11986110D01*
X30852021Y11392811D01*
X30844408Y11378868D01*
X30114356Y11378868D01*
X30115592Y11381132D01*
X30115461Y11382966D01*
X30111210Y11389580D01*
X29514477Y11986312D01*
X29502102Y11993069D01*
X29496136Y11988603D01*
X29411967Y11828625D01*
X29407562Y11817991D01*
X29348095Y11626475D01*
X29345703Y11615221D01*
X29322132Y11416073D01*
X29321831Y11404572D01*
X19956686Y11404572D01*
X19940066Y11585447D01*
X19937969Y11596762D01*
X19883535Y11789769D01*
X19879413Y11800508D01*
X19790718Y11980364D01*
X19787571Y11985499D01*
X19777737Y11992880D01*
X19765321Y11986110D01*
X19172021Y11392811D01*
X19164408Y11378868D01*
X18434356Y11378868D01*
X18435592Y11381132D01*
X18435461Y11382966D01*
X18431210Y11389580D01*
X17834477Y11986312D01*
X17822102Y11993069D01*
X17816136Y11988603D01*
X17731967Y11828625D01*
X17727562Y11817991D01*
X17668095Y11626475D01*
X17665703Y11615221D01*
X17642132Y11416073D01*
X17641831Y11404572D01*
X8276686Y11404572D01*
X8260066Y11585447D01*
X8257969Y11596762D01*
X8203535Y11789769D01*
X8199413Y11800508D01*
X8110718Y11980364D01*
X8107571Y11985499D01*
X8097737Y11992880D01*
X8085321Y11986110D01*
X7492021Y11392811D01*
X7484408Y11378868D01*
X6754356Y11378868D01*
X6755592Y11381132D01*
X6755461Y11382966D01*
X6751210Y11389580D01*
X6154477Y11986312D01*
X6142102Y11993069D01*
X6136136Y11988603D01*
X6051967Y11828625D01*
X6047562Y11817991D01*
X5988095Y11626475D01*
X5985703Y11615221D01*
X5962132Y11416073D01*
X5961831Y11404572D01*
X-50546000Y11404572D01*
X-50546000Y12354887D01*
X6509226Y12354887D01*
X6512713Y12346498D01*
X7107189Y11752021D01*
X7121132Y11744408D01*
X7122966Y11744539D01*
X7129580Y11748790D01*
X7723636Y12342847D01*
X7730210Y12354887D01*
X18189226Y12354887D01*
X18192713Y12346498D01*
X18787189Y11752021D01*
X18801132Y11744408D01*
X18802966Y11744539D01*
X18809580Y11748790D01*
X19403636Y12342847D01*
X19410210Y12354887D01*
X29869226Y12354887D01*
X29872713Y12346498D01*
X30467189Y11752021D01*
X30481132Y11744408D01*
X30482966Y11744539D01*
X30489580Y11748790D01*
X31083636Y12342847D01*
X31090210Y12354887D01*
X41559226Y12354887D01*
X41562713Y12346498D01*
X42157189Y11752021D01*
X42171132Y11744408D01*
X42172966Y11744539D01*
X42179580Y11748790D01*
X42773636Y12342847D01*
X42780393Y12355222D01*
X42774363Y12363278D01*
X42701036Y12409544D01*
X42690785Y12414767D01*
X42504527Y12489076D01*
X42493491Y12492345D01*
X42296809Y12531468D01*
X42285364Y12532671D01*
X42084852Y12535295D01*
X42073372Y12534392D01*
X41875740Y12500433D01*
X41864620Y12497453D01*
X41676478Y12428044D01*
X41666100Y12423094D01*
X41568824Y12365220D01*
X41559226Y12354887D01*
X31090210Y12354887D01*
X31090393Y12355222D01*
X31084363Y12363278D01*
X31011036Y12409544D01*
X31000785Y12414767D01*
X30814527Y12489076D01*
X30803491Y12492345D01*
X30606809Y12531468D01*
X30595364Y12532671D01*
X30394852Y12535295D01*
X30383372Y12534392D01*
X30185740Y12500433D01*
X30174620Y12497453D01*
X29986478Y12428044D01*
X29976100Y12423094D01*
X29878824Y12365220D01*
X29869226Y12354887D01*
X19410210Y12354887D01*
X19410393Y12355222D01*
X19404363Y12363278D01*
X19331036Y12409544D01*
X19320785Y12414767D01*
X19134527Y12489076D01*
X19123491Y12492345D01*
X18926809Y12531468D01*
X18915364Y12532671D01*
X18714852Y12535295D01*
X18703372Y12534392D01*
X18505740Y12500433D01*
X18494620Y12497453D01*
X18306478Y12428044D01*
X18296100Y12423094D01*
X18198824Y12365220D01*
X18189226Y12354887D01*
X7730210Y12354887D01*
X7730393Y12355222D01*
X7724363Y12363278D01*
X7651036Y12409544D01*
X7640785Y12414767D01*
X7454527Y12489076D01*
X7443491Y12492345D01*
X7246809Y12531468D01*
X7235364Y12532671D01*
X7034852Y12535295D01*
X7023372Y12534392D01*
X6825740Y12500433D01*
X6814620Y12497453D01*
X6626478Y12428044D01*
X6616100Y12423094D01*
X6518824Y12365220D01*
X6509226Y12354887D01*
X-50546000Y12354887D01*
X-50546000Y16725539D01*
X-44040101Y16725539D01*
X-44030219Y16713050D01*
X-43987801Y16684708D01*
X-43977693Y16679220D01*
X-43793436Y16600057D01*
X-43782503Y16596505D01*
X-43586909Y16552246D01*
X-43575500Y16550744D01*
X-43375114Y16542871D01*
X-43363632Y16543473D01*
X-43165164Y16572249D01*
X-43153981Y16574934D01*
X-42964083Y16639396D01*
X-42953580Y16644072D01*
X-42828170Y16714304D01*
X-42818307Y16724381D01*
X-42821262Y16732051D01*
X-43417189Y17327979D01*
X-43431132Y17335592D01*
X-43432966Y17335461D01*
X-43439580Y17331210D01*
X-44033908Y16736881D01*
X-44040101Y16725539D01*
X-50546000Y16725539D01*
X-50546000Y17724572D01*
X-44588169Y17724572D01*
X-44575053Y17524469D01*
X-44573252Y17513099D01*
X-44523891Y17318737D01*
X-44520050Y17307890D01*
X-44436093Y17125773D01*
X-44430342Y17115812D01*
X-44417219Y17097242D01*
X-44406629Y17088853D01*
X-44393331Y17095880D01*
X-43802021Y17687189D01*
X-43795644Y17698868D01*
X-43065592Y17698868D01*
X-43065461Y17697034D01*
X-43061210Y17690420D01*
X-42465963Y17095174D01*
X-42453588Y17088417D01*
X-42447008Y17093343D01*
X-42374072Y17223580D01*
X-42369396Y17234083D01*
X-42304934Y17423981D01*
X-42302250Y17435163D01*
X-42295195Y17483816D01*
X-42265625Y17548361D01*
X-42205852Y17586674D01*
X-42134856Y17586588D01*
X-42075176Y17548133D01*
X-42045760Y17483517D01*
X-42044499Y17465740D01*
X-42044499Y16774934D01*
X-42029734Y16700699D01*
X-41973484Y16616516D01*
X-41889301Y16560266D01*
X-41815067Y16545500D01*
X-40890150Y16545500D01*
X-39964934Y16545501D01*
X-39929182Y16552612D01*
X-39902874Y16557844D01*
X-39902872Y16557845D01*
X-39890699Y16560266D01*
X-39880379Y16567161D01*
X-39880378Y16567162D01*
X-39816832Y16609623D01*
X-39806516Y16616516D01*
X-39750266Y16700699D01*
X-39735500Y16774933D01*
X-39735501Y18625066D01*
X-39750266Y18699301D01*
X-39806516Y18783484D01*
X-39890699Y18839734D01*
X-39964933Y18854500D01*
X-40889850Y18854500D01*
X-41815066Y18854499D01*
X-41850818Y18847388D01*
X-41877126Y18842156D01*
X-41877128Y18842155D01*
X-41889301Y18839734D01*
X-41899621Y18832839D01*
X-41899622Y18832838D01*
X-41960015Y18792484D01*
X-41973484Y18783484D01*
X-42029734Y18699301D01*
X-42044500Y18625067D01*
X-42044500Y17950032D01*
X-42064502Y17881911D01*
X-42118158Y17835418D01*
X-42188432Y17825314D01*
X-42253012Y17854808D01*
X-42291769Y17915831D01*
X-42346464Y18109767D01*
X-42350587Y18120508D01*
X-42439282Y18300364D01*
X-42442429Y18305499D01*
X-42452263Y18312880D01*
X-42464679Y18306110D01*
X-43057979Y17712811D01*
X-43065592Y17698868D01*
X-43795644Y17698868D01*
X-43794408Y17701132D01*
X-43794539Y17702966D01*
X-43798790Y17709580D01*
X-44395523Y18306312D01*
X-44407898Y18313069D01*
X-44413864Y18308603D01*
X-44498033Y18148625D01*
X-44502438Y18137991D01*
X-44561905Y17946475D01*
X-44564297Y17935221D01*
X-44587868Y17736073D01*
X-44588169Y17724572D01*
X-50546000Y17724572D01*
X-50546000Y18674887D01*
X-44040774Y18674887D01*
X-44037287Y18666498D01*
X-43442811Y18072021D01*
X-43428868Y18064408D01*
X-43427034Y18064539D01*
X-43420420Y18068790D01*
X-42826364Y18662847D01*
X-42819607Y18675222D01*
X-42825637Y18683278D01*
X-42898964Y18729544D01*
X-42909215Y18734767D01*
X-43095473Y18809076D01*
X-43106509Y18812345D01*
X-43303191Y18851468D01*
X-43314636Y18852671D01*
X-43515148Y18855295D01*
X-43526628Y18854392D01*
X-43724260Y18820433D01*
X-43735380Y18817453D01*
X-43923522Y18748044D01*
X-43933900Y18743094D01*
X-44031176Y18685220D01*
X-44040774Y18674887D01*
X-50546000Y18674887D01*
X-50546000Y19875067D01*
X23485500Y19875067D01*
X23485501Y18024934D01*
X23500266Y17950699D01*
X23556516Y17866516D01*
X23640699Y17810266D01*
X23714933Y17795500D01*
X24639850Y17795500D01*
X25565066Y17795501D01*
X25600818Y17802612D01*
X25627126Y17807844D01*
X25627128Y17807845D01*
X25639301Y17810266D01*
X25649621Y17817161D01*
X25649622Y17817162D01*
X25713168Y17859623D01*
X25723484Y17866516D01*
X25779734Y17950699D01*
X25794500Y18024933D01*
X25794499Y19875066D01*
X25779734Y19949301D01*
X25723484Y20033484D01*
X25639301Y20089734D01*
X25565067Y20104500D01*
X24874267Y20104500D01*
X24806146Y20124502D01*
X24759653Y20178158D01*
X24749549Y20248432D01*
X24779043Y20313012D01*
X24838769Y20351396D01*
X24856188Y20355196D01*
X24904835Y20362249D01*
X24916019Y20364934D01*
X25105917Y20429396D01*
X25116420Y20434072D01*
X25241830Y20504304D01*
X25251693Y20514381D01*
X25248738Y20522051D01*
X24652811Y21117979D01*
X24638868Y21125592D01*
X24637034Y21125461D01*
X24630420Y21121210D01*
X24036092Y20526881D01*
X24029899Y20515539D01*
X24039781Y20503050D01*
X24082199Y20474708D01*
X24092307Y20469220D01*
X24276564Y20390057D01*
X24287497Y20386505D01*
X24433833Y20353392D01*
X24495860Y20318849D01*
X24529364Y20256255D01*
X24523710Y20185484D01*
X24480691Y20129005D01*
X24413966Y20104749D01*
X24406037Y20104499D01*
X23714934Y20104499D01*
X23679182Y20097388D01*
X23652874Y20092156D01*
X23652872Y20092155D01*
X23640699Y20089734D01*
X23630379Y20082839D01*
X23630378Y20082838D01*
X23569985Y20042484D01*
X23556516Y20033484D01*
X23500266Y19949301D01*
X23485500Y19875067D01*
X-50546000Y19875067D01*
X-50546000Y21514572D01*
X23481831Y21514572D01*
X23494947Y21314469D01*
X23496748Y21303099D01*
X23546109Y21108737D01*
X23549950Y21097890D01*
X23633907Y20915773D01*
X23639658Y20905812D01*
X23652781Y20887242D01*
X23663371Y20878853D01*
X23676669Y20885880D01*
X24267979Y21477189D01*
X24274356Y21488868D01*
X25004408Y21488868D01*
X25004539Y21487034D01*
X25008790Y21480420D01*
X25604037Y20885174D01*
X25616412Y20878417D01*
X25622992Y20883343D01*
X25695928Y21013580D01*
X25700604Y21024083D01*
X25765066Y21213981D01*
X25767751Y21225164D01*
X25796823Y21425672D01*
X25797453Y21433055D01*
X25798847Y21486296D01*
X25798604Y21493695D01*
X25780066Y21695447D01*
X25777969Y21706762D01*
X25723535Y21899769D01*
X25719413Y21910508D01*
X25630718Y22090364D01*
X25627571Y22095499D01*
X25617737Y22102880D01*
X25605321Y22096110D01*
X25012021Y21502811D01*
X25004408Y21488868D01*
X24274356Y21488868D01*
X24275592Y21491132D01*
X24275461Y21492966D01*
X24271210Y21499580D01*
X23674477Y22096312D01*
X23662102Y22103069D01*
X23656136Y22098603D01*
X23571967Y21938625D01*
X23567562Y21927991D01*
X23508095Y21736475D01*
X23505703Y21725221D01*
X23482132Y21526073D01*
X23481831Y21514572D01*
X-50546000Y21514572D01*
X-50546000Y22464887D01*
X24029226Y22464887D01*
X24032713Y22456498D01*
X24627189Y21862021D01*
X24641132Y21854408D01*
X24642966Y21854539D01*
X24649580Y21858790D01*
X25243636Y22452847D01*
X25250393Y22465222D01*
X25244363Y22473278D01*
X25171036Y22519544D01*
X25160785Y22524767D01*
X24974527Y22599076D01*
X24963491Y22602345D01*
X24766809Y22641468D01*
X24755364Y22642671D01*
X24554852Y22645295D01*
X24543372Y22644392D01*
X24345740Y22610433D01*
X24334620Y22607453D01*
X24146478Y22538044D01*
X24136100Y22533094D01*
X24038824Y22475220D01*
X24029226Y22464887D01*
X-50546000Y22464887D01*
X-50546000Y26147814D01*
X-48358982Y26147814D01*
X-48333421Y25879900D01*
X-48269453Y25618482D01*
X-48168417Y25369037D01*
X-48032431Y25136790D01*
X-47864342Y24926605D01*
X-47667673Y24742887D01*
X-47446543Y24589484D01*
X-47205584Y24469609D01*
X-47201250Y24468188D01*
X-47201247Y24468187D01*
X-46954177Y24387193D01*
X-46954171Y24387192D01*
X-46949844Y24385773D01*
X-46945353Y24384993D01*
X-46945352Y24384993D01*
X-46688462Y24340389D01*
X-46688454Y24340388D01*
X-46684681Y24339733D01*
X-46680844Y24339542D01*
X-46601223Y24335578D01*
X-46601215Y24335578D01*
X-46599652Y24335500D01*
X-46431626Y24335500D01*
X-46429358Y24335665D01*
X-46429346Y24335665D01*
X-46298543Y24345156D01*
X-46231575Y24350015D01*
X-46227120Y24350999D01*
X-46227117Y24350999D01*
X-45973230Y24407053D01*
X-45973228Y24407054D01*
X-45968774Y24408037D01*
X-45717100Y24503387D01*
X-45481828Y24634069D01*
X-45335158Y24746004D01*
X-45271509Y24794579D01*
X-45271505Y24794583D01*
X-45267884Y24797346D01*
X-45079751Y24989797D01*
X-44972758Y25136790D01*
X-44924058Y25203696D01*
X-44924053Y25203703D01*
X-44921370Y25207390D01*
X-44796059Y25445567D01*
X-44706443Y25699338D01*
X-44681312Y25826844D01*
X-44655280Y25958917D01*
X-44655279Y25958923D01*
X-44654399Y25963389D01*
X-44645218Y26147814D01*
X44641018Y26147814D01*
X44666579Y25879900D01*
X44730547Y25618482D01*
X44831583Y25369037D01*
X44967569Y25136790D01*
X45135658Y24926605D01*
X45332327Y24742887D01*
X45553457Y24589484D01*
X45794416Y24469609D01*
X45798750Y24468188D01*
X45798753Y24468187D01*
X46045823Y24387193D01*
X46045829Y24387192D01*
X46050156Y24385773D01*
X46054647Y24384993D01*
X46054648Y24384993D01*
X46311538Y24340389D01*
X46311546Y24340388D01*
X46315319Y24339733D01*
X46319156Y24339542D01*
X46398777Y24335578D01*
X46398785Y24335578D01*
X46400348Y24335500D01*
X46568374Y24335500D01*
X46570642Y24335665D01*
X46570654Y24335665D01*
X46701457Y24345156D01*
X46768425Y24350015D01*
X46772880Y24350999D01*
X46772883Y24350999D01*
X47026770Y24407053D01*
X47026772Y24407054D01*
X47031226Y24408037D01*
X47282900Y24503387D01*
X47518172Y24634069D01*
X47664842Y24746004D01*
X47728491Y24794579D01*
X47728495Y24794583D01*
X47732116Y24797346D01*
X47920249Y24989797D01*
X48027242Y25136790D01*
X48075942Y25203696D01*
X48075947Y25203703D01*
X48078630Y25207390D01*
X48203941Y25445567D01*
X48293557Y25699338D01*
X48318688Y25826844D01*
X48344720Y25958917D01*
X48344721Y25958923D01*
X48345601Y25963389D01*
X48354782Y26147814D01*
X48358755Y26227617D01*
X48358755Y26227623D01*
X48358982Y26232186D01*
X48333421Y26500100D01*
X48316352Y26569859D01*
X48270539Y26757080D01*
X48269453Y26761518D01*
X48168417Y27010963D01*
X48032431Y27243210D01*
X47864342Y27453395D01*
X47667673Y27637113D01*
X47446543Y27790516D01*
X47205584Y27910391D01*
X47201250Y27911812D01*
X47201247Y27911813D01*
X46954177Y27992807D01*
X46954171Y27992808D01*
X46949844Y27994227D01*
X46936903Y27996474D01*
X46688462Y28039611D01*
X46688454Y28039612D01*
X46684681Y28040267D01*
X46674718Y28040763D01*
X46601223Y28044422D01*
X46601215Y28044422D01*
X46599652Y28044500D01*
X46431626Y28044500D01*
X46429358Y28044335D01*
X46429346Y28044335D01*
X46298543Y28034844D01*
X46231575Y28029985D01*
X46227120Y28029001D01*
X46227117Y28029001D01*
X45973230Y27972947D01*
X45973228Y27972946D01*
X45968774Y27971963D01*
X45717100Y27876613D01*
X45481828Y27745931D01*
X45478196Y27743159D01*
X45271509Y27585421D01*
X45271505Y27585417D01*
X45267884Y27582654D01*
X45079751Y27390203D01*
X45053851Y27354621D01*
X44924058Y27176304D01*
X44924053Y27176297D01*
X44921370Y27172610D01*
X44796059Y26934433D01*
X44706443Y26680662D01*
X44684604Y26569859D01*
X44670855Y26500100D01*
X44654399Y26416611D01*
X44654172Y26412058D01*
X44654172Y26412055D01*
X44642483Y26177236D01*
X44641018Y26147814D01*
X-44645218Y26147814D01*
X-44641245Y26227617D01*
X-44641245Y26227623D01*
X-44641018Y26232186D01*
X-44666579Y26500100D01*
X-44683648Y26569859D01*
X-44729461Y26757080D01*
X-44730547Y26761518D01*
X-44831583Y27010963D01*
X-44967569Y27243210D01*
X-45135658Y27453395D01*
X-45332327Y27637113D01*
X-45553457Y27790516D01*
X-45794416Y27910391D01*
X-45798750Y27911812D01*
X-45798753Y27911813D01*
X-46045823Y27992807D01*
X-46045829Y27992808D01*
X-46050156Y27994227D01*
X-46063097Y27996474D01*
X-46311538Y28039611D01*
X-46311546Y28039612D01*
X-46315319Y28040267D01*
X-46325282Y28040763D01*
X-46398777Y28044422D01*
X-46398785Y28044422D01*
X-46400348Y28044500D01*
X-46568374Y28044500D01*
X-46570642Y28044335D01*
X-46570654Y28044335D01*
X-46701457Y28034844D01*
X-46768425Y28029985D01*
X-46772880Y28029001D01*
X-46772883Y28029001D01*
X-47026770Y27972947D01*
X-47026772Y27972946D01*
X-47031226Y27971963D01*
X-47282900Y27876613D01*
X-47518172Y27745931D01*
X-47521804Y27743159D01*
X-47728491Y27585421D01*
X-47728495Y27585417D01*
X-47732116Y27582654D01*
X-47920249Y27390203D01*
X-47946149Y27354621D01*
X-48075942Y27176304D01*
X-48075947Y27176297D01*
X-48078630Y27172610D01*
X-48203941Y26934433D01*
X-48293557Y26680662D01*
X-48315396Y26569859D01*
X-48329145Y26500100D01*
X-48345601Y26416611D01*
X-48345828Y26412058D01*
X-48345828Y26412055D01*
X-48357517Y26177236D01*
X-48358982Y26147814D01*
X-50546000Y26147814D01*
X-50546000Y26152798D01*
X-50543607Y26177236D01*
X-50543431Y26178126D01*
X-50541024Y26190301D01*
X-50543459Y26202470D01*
X-50543472Y26213871D01*
X-50544393Y26225932D01*
X-50543905Y26236742D01*
X-50529414Y26558270D01*
X-50528354Y26569859D01*
X-50478687Y26928969D01*
X-50476562Y26940413D01*
X-50466785Y26982196D01*
X-50393967Y27293420D01*
X-50390797Y27304610D01*
X-50362219Y27390203D01*
X-50280823Y27633996D01*
X-50275987Y27648481D01*
X-50271795Y27659338D01*
X-50125751Y27991139D01*
X-50120576Y28001563D01*
X-49944534Y28318485D01*
X-49938418Y28328388D01*
X-49733885Y28627713D01*
X-49726882Y28637008D01*
X-49495614Y28916172D01*
X-49487784Y28924782D01*
X-49231726Y29181436D01*
X-49223134Y29189286D01*
X-48944510Y29421200D01*
X-48935231Y29428225D01*
X-48636376Y29633456D01*
X-48626488Y29639594D01*
X-48541044Y29687316D01*
X-48309981Y29816369D01*
X-48299579Y29821564D01*
X-48197956Y29866576D01*
X-47968106Y29968383D01*
X-47957259Y29972600D01*
X-47718541Y30052920D01*
X-47613649Y30088211D01*
X-47602468Y30091407D01*
X-47249651Y30174822D01*
X-47238220Y30176971D01*
X-47140249Y30190753D01*
X-46879240Y30227471D01*
X-46867653Y30228559D01*
X-46535336Y30244310D01*
X-46523283Y30243417D01*
X-46511871Y30243430D01*
X-46499699Y30241024D01*
X-46487066Y30243552D01*
X-46462352Y30246000D01*
X46462352Y30246000D01*
X46487066Y30243552D01*
G37*
G04 #@! TD.AperFunction*
M02*
