%FSLAX45Y45*%
G04 Gerber Fmt 4.5, Leading zero omitted, Abs format (unit mm)*
G04 Created by KiCad (PCBNEW 6.0.1-79c1e3a40b~116~ubuntu20.04.1) date 2022-02-03 13:13:47*
%MOMM*%
%LPD*%
G01*
G04 APERTURE LIST*
%TA.AperFunction,Profile*%
%ADD10C,0.150000*%
%TD*%
%ADD11C,0.200000*%
%ADD12C,0.090000*%
%ADD13C,0.100000*%
%ADD14C,0.250000*%
G04 APERTURE END LIST*
D10*
X-5080000Y-2619000D02*
X-5080000Y2619000D01*
X-4650000Y3050000D02*
G75*
G03*
X-5080000Y2619000I500J-430500D01*
G01*
X4650000Y-3050000D02*
G75*
G03*
X5080000Y-2619000I-500J430500D01*
G01*
X4650000Y-3050000D02*
X-4650000Y-3050000D01*
X5080000Y2619000D02*
X5080000Y-2619000D01*
X5080000Y2619000D02*
G75*
G03*
X4650000Y3050000I-430500J500D01*
G01*
X-4650000Y3050000D02*
X4650000Y3050000D01*
X-5080000Y-2619000D02*
G75*
G03*
X-4650000Y-3050000I430500J-500D01*
G01*
D11*
D12*
X-4388000Y1815000D02*
X-4298000Y1725000D01*
X-4298000Y1815000D02*
X-4388000Y1725000D01*
X-4388000Y635000D02*
X-4298000Y545000D01*
X-4298000Y635000D02*
X-4388000Y545000D01*
X-4388000Y-545000D02*
X-4298000Y-635000D01*
X-4298000Y-545000D02*
X-4388000Y-635000D01*
X-4388000Y-1725000D02*
X-4298000Y-1815000D01*
X-4298000Y-1725000D02*
X-4388000Y-1815000D01*
X-4134000Y1815000D02*
X-4044000Y1725000D01*
X-4044000Y1815000D02*
X-4134000Y1725000D01*
X-4134000Y635000D02*
X-4044000Y545000D01*
X-4044000Y635000D02*
X-4134000Y545000D01*
X-4134000Y-545000D02*
X-4044000Y-635000D01*
X-4044000Y-545000D02*
X-4134000Y-635000D01*
X-4134000Y-1725000D02*
X-4044000Y-1815000D01*
X-4044000Y-1725000D02*
X-4134000Y-1815000D01*
X667000Y1183000D02*
X757000Y1093000D01*
X757000Y1183000D02*
X667000Y1093000D01*
X667000Y929000D02*
X757000Y839000D01*
X757000Y929000D02*
X667000Y839000D01*
X667000Y-839000D02*
X757000Y-929000D01*
X757000Y-839000D02*
X667000Y-929000D01*
X667000Y-1093000D02*
X757000Y-1183000D01*
X757000Y-1093000D02*
X667000Y-1183000D01*
X1251000Y172000D02*
X1341000Y82000D01*
X1341000Y172000D02*
X1251000Y82000D01*
X1251000Y-82000D02*
X1341000Y-172000D01*
X1341000Y-82000D02*
X1251000Y-172000D01*
X1835000Y1183000D02*
X1925000Y1093000D01*
X1925000Y1183000D02*
X1835000Y1093000D01*
X1835000Y929000D02*
X1925000Y839000D01*
X1925000Y929000D02*
X1835000Y839000D01*
X1835000Y-839000D02*
X1925000Y-929000D01*
X1925000Y-839000D02*
X1835000Y-929000D01*
X1835000Y-1093000D02*
X1925000Y-1183000D01*
X1925000Y-1093000D02*
X1835000Y-1183000D01*
X2419000Y2194000D02*
X2509000Y2104000D01*
X2509000Y2194000D02*
X2419000Y2104000D01*
X2419000Y1940000D02*
X2509000Y1850000D01*
X2509000Y1940000D02*
X2419000Y1850000D01*
X2419000Y172000D02*
X2509000Y82000D01*
X2509000Y172000D02*
X2419000Y82000D01*
X2419000Y-82000D02*
X2509000Y-172000D01*
X2509000Y-82000D02*
X2419000Y-172000D01*
X2419000Y-1850000D02*
X2509000Y-1940000D01*
X2509000Y-1850000D02*
X2419000Y-1940000D01*
X2419000Y-2104000D02*
X2509000Y-2194000D01*
X2509000Y-2104000D02*
X2419000Y-2194000D01*
X3003000Y1183000D02*
X3093000Y1093000D01*
X3093000Y1183000D02*
X3003000Y1093000D01*
X3003000Y929000D02*
X3093000Y839000D01*
X3093000Y929000D02*
X3003000Y839000D01*
X3003000Y-839000D02*
X3093000Y-929000D01*
X3093000Y-839000D02*
X3003000Y-929000D01*
X3003000Y-1093000D02*
X3093000Y-1183000D01*
X3093000Y-1093000D02*
X3003000Y-1183000D01*
X3588000Y172000D02*
X3678000Y82000D01*
X3678000Y172000D02*
X3588000Y82000D01*
X3588000Y-82000D02*
X3678000Y-172000D01*
X3678000Y-82000D02*
X3588000Y-172000D01*
X4172000Y1183000D02*
X4262000Y1093000D01*
X4262000Y1183000D02*
X4172000Y1093000D01*
X4172000Y929000D02*
X4262000Y839000D01*
X4262000Y929000D02*
X4172000Y839000D01*
X4172000Y-839000D02*
X4262000Y-929000D01*
X4262000Y-839000D02*
X4172000Y-929000D01*
X4172000Y-1093000D02*
X4262000Y-1183000D01*
X4262000Y-1093000D02*
X4172000Y-1183000D01*
D13*
X-3755000Y-2619000D02*
G75*
G03*
X-3755000Y-2619000I-50000J0D01*
G01*
X-3501000Y-2619000D02*
G75*
G03*
X-3501000Y-2619000I-50000J0D01*
G01*
X-3247000Y-2619000D02*
G75*
G03*
X-3247000Y-2619000I-50000J0D01*
G01*
X-2993000Y-2619000D02*
G75*
G03*
X-2993000Y-2619000I-50000J0D01*
G01*
X-2739000Y-2619000D02*
G75*
G03*
X-2739000Y-2619000I-50000J0D01*
G01*
X-2485000Y-2619000D02*
G75*
G03*
X-2485000Y-2619000I-50000J0D01*
G01*
X-2231000Y-2619000D02*
G75*
G03*
X-2231000Y-2619000I-50000J0D01*
G01*
X-2230000Y762000D02*
G75*
G03*
X-2230000Y762000I-50000J0D01*
G01*
X-2230000Y-762000D02*
G75*
G03*
X-2230000Y-762000I-50000J0D01*
G01*
X-1977000Y-2619000D02*
G75*
G03*
X-1977000Y-2619000I-50000J0D01*
G01*
X-1976000Y762000D02*
G75*
G03*
X-1976000Y762000I-50000J0D01*
G01*
X-1976000Y-762000D02*
G75*
G03*
X-1976000Y-762000I-50000J0D01*
G01*
X-1723000Y-2619000D02*
G75*
G03*
X-1723000Y-2619000I-50000J0D01*
G01*
X-1722000Y762000D02*
G75*
G03*
X-1722000Y762000I-50000J0D01*
G01*
X-1722000Y-762000D02*
G75*
G03*
X-1722000Y-762000I-50000J0D01*
G01*
X-1469000Y-2619000D02*
G75*
G03*
X-1469000Y-2619000I-50000J0D01*
G01*
X-1468000Y762000D02*
G75*
G03*
X-1468000Y762000I-50000J0D01*
G01*
X-1468000Y-762000D02*
G75*
G03*
X-1468000Y-762000I-50000J0D01*
G01*
X-1215000Y-2619000D02*
G75*
G03*
X-1215000Y-2619000I-50000J0D01*
G01*
X-1214000Y762000D02*
G75*
G03*
X-1214000Y762000I-50000J0D01*
G01*
X-1214000Y-762000D02*
G75*
G03*
X-1214000Y-762000I-50000J0D01*
G01*
X-961000Y-2619000D02*
G75*
G03*
X-961000Y-2619000I-50000J0D01*
G01*
X-707000Y-2619000D02*
G75*
G03*
X-707000Y-2619000I-50000J0D01*
G01*
X-453000Y-2619000D02*
G75*
G03*
X-453000Y-2619000I-50000J0D01*
G01*
X-199000Y-2619000D02*
G75*
G03*
X-199000Y-2619000I-50000J0D01*
G01*
X55000Y-2619000D02*
G75*
G03*
X55000Y-2619000I-50000J0D01*
G01*
X309000Y-2619000D02*
G75*
G03*
X309000Y-2619000I-50000J0D01*
G01*
X563000Y-2619000D02*
G75*
G03*
X563000Y-2619000I-50000J0D01*
G01*
X817000Y-2619000D02*
G75*
G03*
X817000Y-2619000I-50000J0D01*
G01*
X1071000Y-2619000D02*
G75*
G03*
X1071000Y-2619000I-50000J0D01*
G01*
X1325000Y-2619000D02*
G75*
G03*
X1325000Y-2619000I-50000J0D01*
G01*
X1579000Y-2619000D02*
G75*
G03*
X1579000Y-2619000I-50000J0D01*
G01*
X1833000Y-2619000D02*
G75*
G03*
X1833000Y-2619000I-50000J0D01*
G01*
X2087000Y-2619000D02*
G75*
G03*
X2087000Y-2619000I-50000J0D01*
G01*
X2341000Y-2619000D02*
G75*
G03*
X2341000Y-2619000I-50000J0D01*
G01*
X2595000Y-2619000D02*
G75*
G03*
X2595000Y-2619000I-50000J0D01*
G01*
X2849000Y-2619000D02*
G75*
G03*
X2849000Y-2619000I-50000J0D01*
G01*
X3103000Y-2619000D02*
G75*
G03*
X3103000Y-2619000I-50000J0D01*
G01*
X3357000Y-2619000D02*
G75*
G03*
X3357000Y-2619000I-50000J0D01*
G01*
X3611000Y-2619000D02*
G75*
G03*
X3611000Y-2619000I-50000J0D01*
G01*
D14*
X-121500Y876600D02*
X-121500Y626600D01*
X-246500Y751600D02*
X3500Y751600D01*
D11*
X-4829881Y-3367976D02*
X-4829881Y-3167976D01*
X-4782262Y-3167976D01*
X-4753691Y-3177500D01*
X-4734643Y-3196548D01*
X-4725119Y-3215595D01*
X-4715596Y-3253690D01*
X-4715596Y-3282262D01*
X-4725119Y-3320357D01*
X-4734643Y-3339405D01*
X-4753691Y-3358452D01*
X-4782262Y-3367976D01*
X-4829881Y-3367976D01*
X-4629881Y-3367976D02*
X-4629881Y-3234643D01*
X-4629881Y-3272738D02*
X-4620357Y-3253690D01*
X-4610834Y-3244167D01*
X-4591786Y-3234643D01*
X-4572738Y-3234643D01*
X-4506072Y-3367976D02*
X-4506072Y-3234643D01*
X-4506072Y-3167976D02*
X-4515596Y-3177500D01*
X-4506072Y-3187024D01*
X-4496548Y-3177500D01*
X-4506072Y-3167976D01*
X-4506072Y-3187024D01*
X-4382262Y-3367976D02*
X-4401310Y-3358452D01*
X-4410834Y-3339405D01*
X-4410834Y-3167976D01*
X-4277500Y-3367976D02*
X-4296548Y-3358452D01*
X-4306072Y-3339405D01*
X-4306072Y-3167976D01*
X-4048929Y-3367976D02*
X-4048929Y-3167976D01*
X-3982262Y-3310833D01*
X-3915595Y-3167976D01*
X-3915595Y-3367976D01*
X-3734643Y-3367976D02*
X-3734643Y-3263214D01*
X-3744167Y-3244167D01*
X-3763214Y-3234643D01*
X-3801310Y-3234643D01*
X-3820357Y-3244167D01*
X-3734643Y-3358452D02*
X-3753691Y-3367976D01*
X-3801310Y-3367976D01*
X-3820357Y-3358452D01*
X-3829881Y-3339405D01*
X-3829881Y-3320357D01*
X-3820357Y-3301309D01*
X-3801310Y-3291786D01*
X-3753691Y-3291786D01*
X-3734643Y-3282262D01*
X-3639405Y-3234643D02*
X-3639405Y-3434643D01*
X-3639405Y-3244167D02*
X-3620357Y-3234643D01*
X-3582262Y-3234643D01*
X-3563214Y-3244167D01*
X-3553691Y-3253690D01*
X-3544167Y-3272738D01*
X-3544167Y-3329881D01*
X-3553691Y-3348928D01*
X-3563214Y-3358452D01*
X-3582262Y-3367976D01*
X-3620357Y-3367976D01*
X-3639405Y-3358452D01*
X-3458453Y-3348928D02*
X-3448929Y-3358452D01*
X-3458453Y-3367976D01*
X-3467976Y-3358452D01*
X-3458453Y-3348928D01*
X-3458453Y-3367976D01*
X-3458453Y-3244167D02*
X-3448929Y-3253690D01*
X-3458453Y-3263214D01*
X-3467976Y-3253690D01*
X-3458453Y-3244167D01*
X-3458453Y-3263214D01*
D12*
X-5177500Y-3652500D02*
X-5087500Y-3742500D01*
X-5087500Y-3652500D02*
X-5177500Y-3742500D01*
D11*
X-4791786Y-3587976D02*
X-4772738Y-3587976D01*
X-4753691Y-3597500D01*
X-4744167Y-3607024D01*
X-4734643Y-3626071D01*
X-4725119Y-3664167D01*
X-4725119Y-3711786D01*
X-4734643Y-3749881D01*
X-4744167Y-3768928D01*
X-4753691Y-3778452D01*
X-4772738Y-3787976D01*
X-4791786Y-3787976D01*
X-4810834Y-3778452D01*
X-4820357Y-3768928D01*
X-4829881Y-3749881D01*
X-4839405Y-3711786D01*
X-4839405Y-3664167D01*
X-4829881Y-3626071D01*
X-4820357Y-3607024D01*
X-4810834Y-3597500D01*
X-4791786Y-3587976D01*
X-4639405Y-3768928D02*
X-4629881Y-3778452D01*
X-4639405Y-3787976D01*
X-4648929Y-3778452D01*
X-4639405Y-3768928D01*
X-4639405Y-3787976D01*
X-4534643Y-3787976D02*
X-4496548Y-3787976D01*
X-4477500Y-3778452D01*
X-4467976Y-3768928D01*
X-4448929Y-3740357D01*
X-4439405Y-3702262D01*
X-4439405Y-3626071D01*
X-4448929Y-3607024D01*
X-4458453Y-3597500D01*
X-4477500Y-3587976D01*
X-4515596Y-3587976D01*
X-4534643Y-3597500D01*
X-4544167Y-3607024D01*
X-4553691Y-3626071D01*
X-4553691Y-3673690D01*
X-4544167Y-3692738D01*
X-4534643Y-3702262D01*
X-4515596Y-3711786D01*
X-4477500Y-3711786D01*
X-4458453Y-3702262D01*
X-4448929Y-3692738D01*
X-4439405Y-3673690D01*
X-4315596Y-3587976D02*
X-4296548Y-3587976D01*
X-4277500Y-3597500D01*
X-4267976Y-3607024D01*
X-4258453Y-3626071D01*
X-4248929Y-3664167D01*
X-4248929Y-3711786D01*
X-4258453Y-3749881D01*
X-4267976Y-3768928D01*
X-4277500Y-3778452D01*
X-4296548Y-3787976D01*
X-4315596Y-3787976D01*
X-4334643Y-3778452D01*
X-4344167Y-3768928D01*
X-4353691Y-3749881D01*
X-4363215Y-3711786D01*
X-4363215Y-3664167D01*
X-4353691Y-3626071D01*
X-4344167Y-3607024D01*
X-4334643Y-3597500D01*
X-4315596Y-3587976D01*
X-4125119Y-3587976D02*
X-4106072Y-3587976D01*
X-4087024Y-3597500D01*
X-4077500Y-3607024D01*
X-4067976Y-3626071D01*
X-4058453Y-3664167D01*
X-4058453Y-3711786D01*
X-4067976Y-3749881D01*
X-4077500Y-3768928D01*
X-4087024Y-3778452D01*
X-4106072Y-3787976D01*
X-4125119Y-3787976D01*
X-4144167Y-3778452D01*
X-4153691Y-3768928D01*
X-4163214Y-3749881D01*
X-4172738Y-3711786D01*
X-4172738Y-3664167D01*
X-4163214Y-3626071D01*
X-4153691Y-3607024D01*
X-4144167Y-3597500D01*
X-4125119Y-3587976D01*
X-3972738Y-3787976D02*
X-3972738Y-3654643D01*
X-3972738Y-3673690D02*
X-3963214Y-3664167D01*
X-3944167Y-3654643D01*
X-3915595Y-3654643D01*
X-3896548Y-3664167D01*
X-3887024Y-3683214D01*
X-3887024Y-3787976D01*
X-3887024Y-3683214D02*
X-3877500Y-3664167D01*
X-3858453Y-3654643D01*
X-3829881Y-3654643D01*
X-3810834Y-3664167D01*
X-3801310Y-3683214D01*
X-3801310Y-3787976D01*
X-3706072Y-3787976D02*
X-3706072Y-3654643D01*
X-3706072Y-3673690D02*
X-3696548Y-3664167D01*
X-3677500Y-3654643D01*
X-3648929Y-3654643D01*
X-3629881Y-3664167D01*
X-3620357Y-3683214D01*
X-3620357Y-3787976D01*
X-3620357Y-3683214D02*
X-3610834Y-3664167D01*
X-3591786Y-3654643D01*
X-3563214Y-3654643D01*
X-3544167Y-3664167D01*
X-3534643Y-3683214D01*
X-3534643Y-3787976D01*
X-3144167Y-3578452D02*
X-3315595Y-3835595D01*
X-2887024Y-3587976D02*
X-2867976Y-3587976D01*
X-2848929Y-3597500D01*
X-2839405Y-3607024D01*
X-2829881Y-3626071D01*
X-2820357Y-3664167D01*
X-2820357Y-3711786D01*
X-2829881Y-3749881D01*
X-2839405Y-3768928D01*
X-2848929Y-3778452D01*
X-2867976Y-3787976D01*
X-2887024Y-3787976D01*
X-2906072Y-3778452D01*
X-2915595Y-3768928D01*
X-2925119Y-3749881D01*
X-2934643Y-3711786D01*
X-2934643Y-3664167D01*
X-2925119Y-3626071D01*
X-2915595Y-3607024D01*
X-2906072Y-3597500D01*
X-2887024Y-3587976D01*
X-2734643Y-3768928D02*
X-2725119Y-3778452D01*
X-2734643Y-3787976D01*
X-2744167Y-3778452D01*
X-2734643Y-3768928D01*
X-2734643Y-3787976D01*
X-2601310Y-3587976D02*
X-2582262Y-3587976D01*
X-2563215Y-3597500D01*
X-2553691Y-3607024D01*
X-2544167Y-3626071D01*
X-2534643Y-3664167D01*
X-2534643Y-3711786D01*
X-2544167Y-3749881D01*
X-2553691Y-3768928D01*
X-2563215Y-3778452D01*
X-2582262Y-3787976D01*
X-2601310Y-3787976D01*
X-2620357Y-3778452D01*
X-2629881Y-3768928D01*
X-2639405Y-3749881D01*
X-2648929Y-3711786D01*
X-2648929Y-3664167D01*
X-2639405Y-3626071D01*
X-2629881Y-3607024D01*
X-2620357Y-3597500D01*
X-2601310Y-3587976D01*
X-2467976Y-3587976D02*
X-2344167Y-3587976D01*
X-2410834Y-3664167D01*
X-2382262Y-3664167D01*
X-2363215Y-3673690D01*
X-2353691Y-3683214D01*
X-2344167Y-3702262D01*
X-2344167Y-3749881D01*
X-2353691Y-3768928D01*
X-2363215Y-3778452D01*
X-2382262Y-3787976D01*
X-2439405Y-3787976D01*
X-2458453Y-3778452D01*
X-2467976Y-3768928D01*
X-2163215Y-3587976D02*
X-2258453Y-3587976D01*
X-2267976Y-3683214D01*
X-2258453Y-3673690D01*
X-2239405Y-3664167D01*
X-2191786Y-3664167D01*
X-2172738Y-3673690D01*
X-2163215Y-3683214D01*
X-2153691Y-3702262D01*
X-2153691Y-3749881D01*
X-2163215Y-3768928D01*
X-2172738Y-3778452D01*
X-2191786Y-3787976D01*
X-2239405Y-3787976D01*
X-2258453Y-3778452D01*
X-2267976Y-3768928D01*
X-1982262Y-3654643D02*
X-1982262Y-3787976D01*
X-2029881Y-3578452D02*
X-2077500Y-3721309D01*
X-1953691Y-3721309D01*
X-1887024Y-3587976D02*
X-1887024Y-3626071D01*
X-1810834Y-3587976D02*
X-1810834Y-3626071D01*
X-1515595Y-3864167D02*
X-1525119Y-3854643D01*
X-1544167Y-3826071D01*
X-1553691Y-3807024D01*
X-1563214Y-3778452D01*
X-1572738Y-3730833D01*
X-1572738Y-3692738D01*
X-1563214Y-3645119D01*
X-1553691Y-3616548D01*
X-1544167Y-3597500D01*
X-1525119Y-3568928D01*
X-1515595Y-3559405D01*
X-1458453Y-3587976D02*
X-1334643Y-3587976D01*
X-1401310Y-3664167D01*
X-1372738Y-3664167D01*
X-1353691Y-3673690D01*
X-1344167Y-3683214D01*
X-1334643Y-3702262D01*
X-1334643Y-3749881D01*
X-1344167Y-3768928D01*
X-1353691Y-3778452D01*
X-1372738Y-3787976D01*
X-1429881Y-3787976D01*
X-1448929Y-3778452D01*
X-1458453Y-3768928D01*
X-1163215Y-3654643D02*
X-1163215Y-3787976D01*
X-1210834Y-3578452D02*
X-1258453Y-3721309D01*
X-1134643Y-3721309D01*
X-906072Y-3787976D02*
X-906072Y-3587976D01*
X-820357Y-3787976D02*
X-820357Y-3683214D01*
X-829881Y-3664167D01*
X-848929Y-3654643D01*
X-877500Y-3654643D01*
X-896548Y-3664167D01*
X-906072Y-3673690D01*
X-696548Y-3787976D02*
X-715595Y-3778452D01*
X-725119Y-3768928D01*
X-734643Y-3749881D01*
X-734643Y-3692738D01*
X-725119Y-3673690D01*
X-715595Y-3664167D01*
X-696548Y-3654643D01*
X-667976Y-3654643D01*
X-648929Y-3664167D01*
X-639405Y-3673690D01*
X-629881Y-3692738D01*
X-629881Y-3749881D01*
X-639405Y-3768928D01*
X-648929Y-3778452D01*
X-667976Y-3787976D01*
X-696548Y-3787976D01*
X-515595Y-3787976D02*
X-534643Y-3778452D01*
X-544167Y-3759405D01*
X-544167Y-3587976D01*
X-363214Y-3778452D02*
X-382262Y-3787976D01*
X-420357Y-3787976D01*
X-439405Y-3778452D01*
X-448929Y-3759405D01*
X-448929Y-3683214D01*
X-439405Y-3664167D01*
X-420357Y-3654643D01*
X-382262Y-3654643D01*
X-363214Y-3664167D01*
X-353691Y-3683214D01*
X-353691Y-3702262D01*
X-448929Y-3721309D01*
X-277500Y-3778452D02*
X-258453Y-3787976D01*
X-220357Y-3787976D01*
X-201310Y-3778452D01*
X-191786Y-3759405D01*
X-191786Y-3749881D01*
X-201310Y-3730833D01*
X-220357Y-3721309D01*
X-248929Y-3721309D01*
X-267976Y-3711786D01*
X-277500Y-3692738D01*
X-277500Y-3683214D01*
X-267976Y-3664167D01*
X-248929Y-3654643D01*
X-220357Y-3654643D01*
X-201310Y-3664167D01*
X-125119Y-3864167D02*
X-115595Y-3854643D01*
X-96548Y-3826071D01*
X-87024Y-3807024D01*
X-77500Y-3778452D01*
X-67976Y-3730833D01*
X-67976Y-3692738D01*
X-77500Y-3645119D01*
X-87024Y-3616548D01*
X-96548Y-3597500D01*
X-115595Y-3568928D01*
X-125119Y-3559405D01*
D13*
X-5087500Y-3961500D02*
G75*
G03*
X-5087500Y-3961500I-50000J0D01*
G01*
D11*
X-4725119Y-4051976D02*
X-4839405Y-4051976D01*
X-4782262Y-4051976D02*
X-4782262Y-3851976D01*
X-4801310Y-3880548D01*
X-4820357Y-3899595D01*
X-4839405Y-3909119D01*
X-4639405Y-4032928D02*
X-4629881Y-4042452D01*
X-4639405Y-4051976D01*
X-4648929Y-4042452D01*
X-4639405Y-4032928D01*
X-4639405Y-4051976D01*
X-4506072Y-3851976D02*
X-4487024Y-3851976D01*
X-4467976Y-3861500D01*
X-4458453Y-3871024D01*
X-4448929Y-3890071D01*
X-4439405Y-3928167D01*
X-4439405Y-3975786D01*
X-4448929Y-4013881D01*
X-4458453Y-4032928D01*
X-4467976Y-4042452D01*
X-4487024Y-4051976D01*
X-4506072Y-4051976D01*
X-4525119Y-4042452D01*
X-4534643Y-4032928D01*
X-4544167Y-4013881D01*
X-4553691Y-3975786D01*
X-4553691Y-3928167D01*
X-4544167Y-3890071D01*
X-4534643Y-3871024D01*
X-4525119Y-3861500D01*
X-4506072Y-3851976D01*
X-4315596Y-3851976D02*
X-4296548Y-3851976D01*
X-4277500Y-3861500D01*
X-4267976Y-3871024D01*
X-4258453Y-3890071D01*
X-4248929Y-3928167D01*
X-4248929Y-3975786D01*
X-4258453Y-4013881D01*
X-4267976Y-4032928D01*
X-4277500Y-4042452D01*
X-4296548Y-4051976D01*
X-4315596Y-4051976D01*
X-4334643Y-4042452D01*
X-4344167Y-4032928D01*
X-4353691Y-4013881D01*
X-4363215Y-3975786D01*
X-4363215Y-3928167D01*
X-4353691Y-3890071D01*
X-4344167Y-3871024D01*
X-4334643Y-3861500D01*
X-4315596Y-3851976D01*
X-4125119Y-3851976D02*
X-4106072Y-3851976D01*
X-4087024Y-3861500D01*
X-4077500Y-3871024D01*
X-4067976Y-3890071D01*
X-4058453Y-3928167D01*
X-4058453Y-3975786D01*
X-4067976Y-4013881D01*
X-4077500Y-4032928D01*
X-4087024Y-4042452D01*
X-4106072Y-4051976D01*
X-4125119Y-4051976D01*
X-4144167Y-4042452D01*
X-4153691Y-4032928D01*
X-4163214Y-4013881D01*
X-4172738Y-3975786D01*
X-4172738Y-3928167D01*
X-4163214Y-3890071D01*
X-4153691Y-3871024D01*
X-4144167Y-3861500D01*
X-4125119Y-3851976D01*
X-3972738Y-4051976D02*
X-3972738Y-3918643D01*
X-3972738Y-3937690D02*
X-3963214Y-3928167D01*
X-3944167Y-3918643D01*
X-3915595Y-3918643D01*
X-3896548Y-3928167D01*
X-3887024Y-3947214D01*
X-3887024Y-4051976D01*
X-3887024Y-3947214D02*
X-3877500Y-3928167D01*
X-3858453Y-3918643D01*
X-3829881Y-3918643D01*
X-3810834Y-3928167D01*
X-3801310Y-3947214D01*
X-3801310Y-4051976D01*
X-3706072Y-4051976D02*
X-3706072Y-3918643D01*
X-3706072Y-3937690D02*
X-3696548Y-3928167D01*
X-3677500Y-3918643D01*
X-3648929Y-3918643D01*
X-3629881Y-3928167D01*
X-3620357Y-3947214D01*
X-3620357Y-4051976D01*
X-3620357Y-3947214D02*
X-3610834Y-3928167D01*
X-3591786Y-3918643D01*
X-3563214Y-3918643D01*
X-3544167Y-3928167D01*
X-3534643Y-3947214D01*
X-3534643Y-4051976D01*
X-3144167Y-3842452D02*
X-3315595Y-4099595D01*
X-2887024Y-3851976D02*
X-2867976Y-3851976D01*
X-2848929Y-3861500D01*
X-2839405Y-3871024D01*
X-2829881Y-3890071D01*
X-2820357Y-3928167D01*
X-2820357Y-3975786D01*
X-2829881Y-4013881D01*
X-2839405Y-4032928D01*
X-2848929Y-4042452D01*
X-2867976Y-4051976D01*
X-2887024Y-4051976D01*
X-2906072Y-4042452D01*
X-2915595Y-4032928D01*
X-2925119Y-4013881D01*
X-2934643Y-3975786D01*
X-2934643Y-3928167D01*
X-2925119Y-3890071D01*
X-2915595Y-3871024D01*
X-2906072Y-3861500D01*
X-2887024Y-3851976D01*
X-2734643Y-4032928D02*
X-2725119Y-4042452D01*
X-2734643Y-4051976D01*
X-2744167Y-4042452D01*
X-2734643Y-4032928D01*
X-2734643Y-4051976D01*
X-2601310Y-3851976D02*
X-2582262Y-3851976D01*
X-2563215Y-3861500D01*
X-2553691Y-3871024D01*
X-2544167Y-3890071D01*
X-2534643Y-3928167D01*
X-2534643Y-3975786D01*
X-2544167Y-4013881D01*
X-2553691Y-4032928D01*
X-2563215Y-4042452D01*
X-2582262Y-4051976D01*
X-2601310Y-4051976D01*
X-2620357Y-4042452D01*
X-2629881Y-4032928D01*
X-2639405Y-4013881D01*
X-2648929Y-3975786D01*
X-2648929Y-3928167D01*
X-2639405Y-3890071D01*
X-2629881Y-3871024D01*
X-2620357Y-3861500D01*
X-2601310Y-3851976D01*
X-2467976Y-3851976D02*
X-2344167Y-3851976D01*
X-2410834Y-3928167D01*
X-2382262Y-3928167D01*
X-2363215Y-3937690D01*
X-2353691Y-3947214D01*
X-2344167Y-3966262D01*
X-2344167Y-4013881D01*
X-2353691Y-4032928D01*
X-2363215Y-4042452D01*
X-2382262Y-4051976D01*
X-2439405Y-4051976D01*
X-2458453Y-4042452D01*
X-2467976Y-4032928D01*
X-2248929Y-4051976D02*
X-2210834Y-4051976D01*
X-2191786Y-4042452D01*
X-2182262Y-4032928D01*
X-2163215Y-4004357D01*
X-2153691Y-3966262D01*
X-2153691Y-3890071D01*
X-2163215Y-3871024D01*
X-2172738Y-3861500D01*
X-2191786Y-3851976D01*
X-2229881Y-3851976D01*
X-2248929Y-3861500D01*
X-2258453Y-3871024D01*
X-2267976Y-3890071D01*
X-2267976Y-3937690D01*
X-2258453Y-3956738D01*
X-2248929Y-3966262D01*
X-2229881Y-3975786D01*
X-2191786Y-3975786D01*
X-2172738Y-3966262D01*
X-2163215Y-3956738D01*
X-2153691Y-3937690D01*
X-1982262Y-3918643D02*
X-1982262Y-4051976D01*
X-2029881Y-3842452D02*
X-2077500Y-3985309D01*
X-1953691Y-3985309D01*
X-1887024Y-3851976D02*
X-1887024Y-3890071D01*
X-1810834Y-3851976D02*
X-1810834Y-3890071D01*
X-1515595Y-4128167D02*
X-1525119Y-4118643D01*
X-1544167Y-4090071D01*
X-1553691Y-4071024D01*
X-1563214Y-4042452D01*
X-1572738Y-3994833D01*
X-1572738Y-3956738D01*
X-1563214Y-3909119D01*
X-1553691Y-3880548D01*
X-1544167Y-3861500D01*
X-1525119Y-3832928D01*
X-1515595Y-3823405D01*
X-1353691Y-3918643D02*
X-1353691Y-4051976D01*
X-1401310Y-3842452D02*
X-1448929Y-3985309D01*
X-1325119Y-3985309D01*
X-1210834Y-3851976D02*
X-1191786Y-3851976D01*
X-1172738Y-3861500D01*
X-1163215Y-3871024D01*
X-1153691Y-3890071D01*
X-1144167Y-3928167D01*
X-1144167Y-3975786D01*
X-1153691Y-4013881D01*
X-1163215Y-4032928D01*
X-1172738Y-4042452D01*
X-1191786Y-4051976D01*
X-1210834Y-4051976D01*
X-1229881Y-4042452D01*
X-1239405Y-4032928D01*
X-1248929Y-4013881D01*
X-1258453Y-3975786D01*
X-1258453Y-3928167D01*
X-1248929Y-3890071D01*
X-1239405Y-3871024D01*
X-1229881Y-3861500D01*
X-1210834Y-3851976D01*
X-906072Y-4051976D02*
X-906072Y-3851976D01*
X-820357Y-4051976D02*
X-820357Y-3947214D01*
X-829881Y-3928167D01*
X-848929Y-3918643D01*
X-877500Y-3918643D01*
X-896548Y-3928167D01*
X-906072Y-3937690D01*
X-696548Y-4051976D02*
X-715595Y-4042452D01*
X-725119Y-4032928D01*
X-734643Y-4013881D01*
X-734643Y-3956738D01*
X-725119Y-3937690D01*
X-715595Y-3928167D01*
X-696548Y-3918643D01*
X-667976Y-3918643D01*
X-648929Y-3928167D01*
X-639405Y-3937690D01*
X-629881Y-3956738D01*
X-629881Y-4013881D01*
X-639405Y-4032928D01*
X-648929Y-4042452D01*
X-667976Y-4051976D01*
X-696548Y-4051976D01*
X-515595Y-4051976D02*
X-534643Y-4042452D01*
X-544167Y-4023405D01*
X-544167Y-3851976D01*
X-363214Y-4042452D02*
X-382262Y-4051976D01*
X-420357Y-4051976D01*
X-439405Y-4042452D01*
X-448929Y-4023405D01*
X-448929Y-3947214D01*
X-439405Y-3928167D01*
X-420357Y-3918643D01*
X-382262Y-3918643D01*
X-363214Y-3928167D01*
X-353691Y-3947214D01*
X-353691Y-3966262D01*
X-448929Y-3985309D01*
X-277500Y-4042452D02*
X-258453Y-4051976D01*
X-220357Y-4051976D01*
X-201310Y-4042452D01*
X-191786Y-4023405D01*
X-191786Y-4013881D01*
X-201310Y-3994833D01*
X-220357Y-3985309D01*
X-248929Y-3985309D01*
X-267976Y-3975786D01*
X-277500Y-3956738D01*
X-277500Y-3947214D01*
X-267976Y-3928167D01*
X-248929Y-3918643D01*
X-220357Y-3918643D01*
X-201310Y-3928167D01*
X-125119Y-4128167D02*
X-115595Y-4118643D01*
X-96548Y-4090071D01*
X-87024Y-4071024D01*
X-77500Y-4042452D01*
X-67976Y-3994833D01*
X-67976Y-3956738D01*
X-77500Y-3909119D01*
X-87024Y-3880548D01*
X-96548Y-3861500D01*
X-115595Y-3832928D01*
X-125119Y-3823405D01*
X-5187500Y-4125500D02*
X-5187500Y-4325500D01*
X-5287500Y-4225500D02*
X-5087500Y-4225500D01*
X-4839405Y-4135024D02*
X-4829881Y-4125500D01*
X-4810834Y-4115976D01*
X-4763215Y-4115976D01*
X-4744167Y-4125500D01*
X-4734643Y-4135024D01*
X-4725119Y-4154071D01*
X-4725119Y-4173119D01*
X-4734643Y-4201690D01*
X-4848929Y-4315976D01*
X-4725119Y-4315976D01*
X-4639405Y-4296929D02*
X-4629881Y-4306452D01*
X-4639405Y-4315976D01*
X-4648929Y-4306452D01*
X-4639405Y-4296929D01*
X-4639405Y-4315976D01*
X-4448929Y-4115976D02*
X-4544167Y-4115976D01*
X-4553691Y-4211214D01*
X-4544167Y-4201690D01*
X-4525119Y-4192167D01*
X-4477500Y-4192167D01*
X-4458453Y-4201690D01*
X-4448929Y-4211214D01*
X-4439405Y-4230262D01*
X-4439405Y-4277881D01*
X-4448929Y-4296929D01*
X-4458453Y-4306452D01*
X-4477500Y-4315976D01*
X-4525119Y-4315976D01*
X-4544167Y-4306452D01*
X-4553691Y-4296929D01*
X-4315596Y-4115976D02*
X-4296548Y-4115976D01*
X-4277500Y-4125500D01*
X-4267976Y-4135024D01*
X-4258453Y-4154071D01*
X-4248929Y-4192167D01*
X-4248929Y-4239786D01*
X-4258453Y-4277881D01*
X-4267976Y-4296929D01*
X-4277500Y-4306452D01*
X-4296548Y-4315976D01*
X-4315596Y-4315976D01*
X-4334643Y-4306452D01*
X-4344167Y-4296929D01*
X-4353691Y-4277881D01*
X-4363215Y-4239786D01*
X-4363215Y-4192167D01*
X-4353691Y-4154071D01*
X-4344167Y-4135024D01*
X-4334643Y-4125500D01*
X-4315596Y-4115976D01*
X-4125119Y-4115976D02*
X-4106072Y-4115976D01*
X-4087024Y-4125500D01*
X-4077500Y-4135024D01*
X-4067976Y-4154071D01*
X-4058453Y-4192167D01*
X-4058453Y-4239786D01*
X-4067976Y-4277881D01*
X-4077500Y-4296929D01*
X-4087024Y-4306452D01*
X-4106072Y-4315976D01*
X-4125119Y-4315976D01*
X-4144167Y-4306452D01*
X-4153691Y-4296929D01*
X-4163214Y-4277881D01*
X-4172738Y-4239786D01*
X-4172738Y-4192167D01*
X-4163214Y-4154071D01*
X-4153691Y-4135024D01*
X-4144167Y-4125500D01*
X-4125119Y-4115976D01*
X-3972738Y-4315976D02*
X-3972738Y-4182643D01*
X-3972738Y-4201690D02*
X-3963214Y-4192167D01*
X-3944167Y-4182643D01*
X-3915595Y-4182643D01*
X-3896548Y-4192167D01*
X-3887024Y-4211214D01*
X-3887024Y-4315976D01*
X-3887024Y-4211214D02*
X-3877500Y-4192167D01*
X-3858453Y-4182643D01*
X-3829881Y-4182643D01*
X-3810834Y-4192167D01*
X-3801310Y-4211214D01*
X-3801310Y-4315976D01*
X-3706072Y-4315976D02*
X-3706072Y-4182643D01*
X-3706072Y-4201690D02*
X-3696548Y-4192167D01*
X-3677500Y-4182643D01*
X-3648929Y-4182643D01*
X-3629881Y-4192167D01*
X-3620357Y-4211214D01*
X-3620357Y-4315976D01*
X-3620357Y-4211214D02*
X-3610834Y-4192167D01*
X-3591786Y-4182643D01*
X-3563214Y-4182643D01*
X-3544167Y-4192167D01*
X-3534643Y-4211214D01*
X-3534643Y-4315976D01*
X-3144167Y-4106452D02*
X-3315595Y-4363595D01*
X-2887024Y-4115976D02*
X-2867976Y-4115976D01*
X-2848929Y-4125500D01*
X-2839405Y-4135024D01*
X-2829881Y-4154071D01*
X-2820357Y-4192167D01*
X-2820357Y-4239786D01*
X-2829881Y-4277881D01*
X-2839405Y-4296929D01*
X-2848929Y-4306452D01*
X-2867976Y-4315976D01*
X-2887024Y-4315976D01*
X-2906072Y-4306452D01*
X-2915595Y-4296929D01*
X-2925119Y-4277881D01*
X-2934643Y-4239786D01*
X-2934643Y-4192167D01*
X-2925119Y-4154071D01*
X-2915595Y-4135024D01*
X-2906072Y-4125500D01*
X-2887024Y-4115976D01*
X-2734643Y-4296929D02*
X-2725119Y-4306452D01*
X-2734643Y-4315976D01*
X-2744167Y-4306452D01*
X-2734643Y-4296929D01*
X-2734643Y-4315976D01*
X-2601310Y-4115976D02*
X-2582262Y-4115976D01*
X-2563215Y-4125500D01*
X-2553691Y-4135024D01*
X-2544167Y-4154071D01*
X-2534643Y-4192167D01*
X-2534643Y-4239786D01*
X-2544167Y-4277881D01*
X-2553691Y-4296929D01*
X-2563215Y-4306452D01*
X-2582262Y-4315976D01*
X-2601310Y-4315976D01*
X-2620357Y-4306452D01*
X-2629881Y-4296929D01*
X-2639405Y-4277881D01*
X-2648929Y-4239786D01*
X-2648929Y-4192167D01*
X-2639405Y-4154071D01*
X-2629881Y-4135024D01*
X-2620357Y-4125500D01*
X-2601310Y-4115976D01*
X-2439405Y-4315976D02*
X-2401310Y-4315976D01*
X-2382262Y-4306452D01*
X-2372738Y-4296929D01*
X-2353691Y-4268357D01*
X-2344167Y-4230262D01*
X-2344167Y-4154071D01*
X-2353691Y-4135024D01*
X-2363215Y-4125500D01*
X-2382262Y-4115976D01*
X-2420357Y-4115976D01*
X-2439405Y-4125500D01*
X-2448929Y-4135024D01*
X-2458453Y-4154071D01*
X-2458453Y-4201690D01*
X-2448929Y-4220738D01*
X-2439405Y-4230262D01*
X-2420357Y-4239786D01*
X-2382262Y-4239786D01*
X-2363215Y-4230262D01*
X-2353691Y-4220738D01*
X-2344167Y-4201690D01*
X-2229881Y-4201690D02*
X-2248929Y-4192167D01*
X-2258453Y-4182643D01*
X-2267976Y-4163595D01*
X-2267976Y-4154071D01*
X-2258453Y-4135024D01*
X-2248929Y-4125500D01*
X-2229881Y-4115976D01*
X-2191786Y-4115976D01*
X-2172738Y-4125500D01*
X-2163215Y-4135024D01*
X-2153691Y-4154071D01*
X-2153691Y-4163595D01*
X-2163215Y-4182643D01*
X-2172738Y-4192167D01*
X-2191786Y-4201690D01*
X-2229881Y-4201690D01*
X-2248929Y-4211214D01*
X-2258453Y-4220738D01*
X-2267976Y-4239786D01*
X-2267976Y-4277881D01*
X-2258453Y-4296929D01*
X-2248929Y-4306452D01*
X-2229881Y-4315976D01*
X-2191786Y-4315976D01*
X-2172738Y-4306452D01*
X-2163215Y-4296929D01*
X-2153691Y-4277881D01*
X-2153691Y-4239786D01*
X-2163215Y-4220738D01*
X-2172738Y-4211214D01*
X-2191786Y-4201690D01*
X-1982262Y-4182643D02*
X-1982262Y-4315976D01*
X-2029881Y-4106452D02*
X-2077500Y-4249310D01*
X-1953691Y-4249310D01*
X-1887024Y-4115976D02*
X-1887024Y-4154071D01*
X-1810834Y-4115976D02*
X-1810834Y-4154071D01*
X-1515595Y-4392167D02*
X-1525119Y-4382643D01*
X-1544167Y-4354071D01*
X-1553691Y-4335024D01*
X-1563214Y-4306452D01*
X-1572738Y-4258833D01*
X-1572738Y-4220738D01*
X-1563214Y-4173119D01*
X-1553691Y-4144548D01*
X-1544167Y-4125500D01*
X-1525119Y-4096928D01*
X-1515595Y-4087405D01*
X-1334643Y-4315976D02*
X-1448929Y-4315976D01*
X-1391786Y-4315976D02*
X-1391786Y-4115976D01*
X-1410834Y-4144548D01*
X-1429881Y-4163595D01*
X-1448929Y-4173119D01*
X-1096548Y-4315976D02*
X-1096548Y-4115976D01*
X-1010834Y-4315976D02*
X-1010834Y-4211214D01*
X-1020357Y-4192167D01*
X-1039405Y-4182643D01*
X-1067976Y-4182643D01*
X-1087024Y-4192167D01*
X-1096548Y-4201690D01*
X-887024Y-4315976D02*
X-906072Y-4306452D01*
X-915595Y-4296929D01*
X-925119Y-4277881D01*
X-925119Y-4220738D01*
X-915595Y-4201690D01*
X-906072Y-4192167D01*
X-887024Y-4182643D01*
X-858453Y-4182643D01*
X-839405Y-4192167D01*
X-829881Y-4201690D01*
X-820357Y-4220738D01*
X-820357Y-4277881D01*
X-829881Y-4296929D01*
X-839405Y-4306452D01*
X-858453Y-4315976D01*
X-887024Y-4315976D01*
X-706072Y-4315976D02*
X-725119Y-4306452D01*
X-734643Y-4287405D01*
X-734643Y-4115976D01*
X-553691Y-4306452D02*
X-572738Y-4315976D01*
X-610834Y-4315976D01*
X-629881Y-4306452D01*
X-639405Y-4287405D01*
X-639405Y-4211214D01*
X-629881Y-4192167D01*
X-610834Y-4182643D01*
X-572738Y-4182643D01*
X-553691Y-4192167D01*
X-544167Y-4211214D01*
X-544167Y-4230262D01*
X-639405Y-4249310D01*
X-477500Y-4392167D02*
X-467976Y-4382643D01*
X-448929Y-4354071D01*
X-439405Y-4335024D01*
X-429881Y-4306452D01*
X-420357Y-4258833D01*
X-420357Y-4220738D01*
X-429881Y-4173119D01*
X-439405Y-4144548D01*
X-448929Y-4125500D01*
X-467976Y-4096928D01*
X-477500Y-4087405D01*
M02*
