%FSLAX45Y45*%
G04 Gerber Fmt 4.5, Leading zero omitted, Abs format (unit mm)*
G04 Created by KiCad (PCBNEW 6.0.1-79c1e3a40b~116~ubuntu20.04.1) date 2022-02-03 13:13:47*
%MOMM*%
%LPD*%
G01*
G04 APERTURE LIST*
%TA.AperFunction,Profile*%
%ADD10C,0.150000*%
%TD*%
%ADD11C,0.200000*%
%ADD12C,0.320000*%
G04 APERTURE END LIST*
D10*
X-5080000Y-2619000D02*
X-5080000Y2619000D01*
X-4650000Y3050000D02*
G75*
G03*
X-5080000Y2619000I500J-430500D01*
G01*
X4650000Y-3050000D02*
G75*
G03*
X5080000Y-2619000I-500J430500D01*
G01*
X4650000Y-3050000D02*
X-4650000Y-3050000D01*
X5080000Y2619000D02*
X5080000Y-2619000D01*
X5080000Y2619000D02*
G75*
G03*
X4650000Y3050000I-430500J500D01*
G01*
X-4650000Y3050000D02*
X4650000Y3050000D01*
X-5080000Y-2619000D02*
G75*
G03*
X-4650000Y-3050000I430500J-500D01*
G01*
D11*
D12*
X-4810000Y2779000D02*
X-4490000Y2459000D01*
X-4490000Y2779000D02*
X-4810000Y2459000D01*
X-4810000Y-2459000D02*
X-4490000Y-2779000D01*
X-4490000Y-2459000D02*
X-4810000Y-2779000D01*
X4490000Y2779000D02*
X4810000Y2459000D01*
X4810000Y2779000D02*
X4490000Y2459000D01*
X4490000Y-2459000D02*
X4810000Y-2779000D01*
X4810000Y-2459000D02*
X4490000Y-2779000D01*
D11*
X-4829881Y-3367976D02*
X-4829881Y-3167976D01*
X-4782262Y-3167976D01*
X-4753691Y-3177500D01*
X-4734643Y-3196548D01*
X-4725119Y-3215595D01*
X-4715596Y-3253690D01*
X-4715596Y-3282262D01*
X-4725119Y-3320357D01*
X-4734643Y-3339405D01*
X-4753691Y-3358452D01*
X-4782262Y-3367976D01*
X-4829881Y-3367976D01*
X-4629881Y-3367976D02*
X-4629881Y-3234643D01*
X-4629881Y-3272738D02*
X-4620357Y-3253690D01*
X-4610834Y-3244167D01*
X-4591786Y-3234643D01*
X-4572738Y-3234643D01*
X-4506072Y-3367976D02*
X-4506072Y-3234643D01*
X-4506072Y-3167976D02*
X-4515596Y-3177500D01*
X-4506072Y-3187024D01*
X-4496548Y-3177500D01*
X-4506072Y-3167976D01*
X-4506072Y-3187024D01*
X-4382262Y-3367976D02*
X-4401310Y-3358452D01*
X-4410834Y-3339405D01*
X-4410834Y-3167976D01*
X-4277500Y-3367976D02*
X-4296548Y-3358452D01*
X-4306072Y-3339405D01*
X-4306072Y-3167976D01*
X-4048929Y-3367976D02*
X-4048929Y-3167976D01*
X-3982262Y-3310833D01*
X-3915595Y-3167976D01*
X-3915595Y-3367976D01*
X-3734643Y-3367976D02*
X-3734643Y-3263214D01*
X-3744167Y-3244167D01*
X-3763214Y-3234643D01*
X-3801310Y-3234643D01*
X-3820357Y-3244167D01*
X-3734643Y-3358452D02*
X-3753691Y-3367976D01*
X-3801310Y-3367976D01*
X-3820357Y-3358452D01*
X-3829881Y-3339405D01*
X-3829881Y-3320357D01*
X-3820357Y-3301309D01*
X-3801310Y-3291786D01*
X-3753691Y-3291786D01*
X-3734643Y-3282262D01*
X-3639405Y-3234643D02*
X-3639405Y-3434643D01*
X-3639405Y-3244167D02*
X-3620357Y-3234643D01*
X-3582262Y-3234643D01*
X-3563214Y-3244167D01*
X-3553691Y-3253690D01*
X-3544167Y-3272738D01*
X-3544167Y-3329881D01*
X-3553691Y-3348928D01*
X-3563214Y-3358452D01*
X-3582262Y-3367976D01*
X-3620357Y-3367976D01*
X-3639405Y-3358452D01*
X-3458453Y-3348928D02*
X-3448929Y-3358452D01*
X-3458453Y-3367976D01*
X-3467976Y-3358452D01*
X-3458453Y-3348928D01*
X-3458453Y-3367976D01*
X-3458453Y-3244167D02*
X-3448929Y-3253690D01*
X-3458453Y-3263214D01*
X-3467976Y-3253690D01*
X-3458453Y-3244167D01*
X-3458453Y-3263214D01*
X-5287500Y-3597500D02*
X-5087500Y-3797500D01*
X-5087500Y-3597500D02*
X-5287500Y-3797500D01*
X-4848929Y-3587976D02*
X-4725119Y-3587976D01*
X-4791786Y-3664167D01*
X-4763215Y-3664167D01*
X-4744167Y-3673690D01*
X-4734643Y-3683214D01*
X-4725119Y-3702262D01*
X-4725119Y-3749881D01*
X-4734643Y-3768928D01*
X-4744167Y-3778452D01*
X-4763215Y-3787976D01*
X-4820357Y-3787976D01*
X-4839405Y-3778452D01*
X-4848929Y-3768928D01*
X-4639405Y-3768928D02*
X-4629881Y-3778452D01*
X-4639405Y-3787976D01*
X-4648929Y-3778452D01*
X-4639405Y-3768928D01*
X-4639405Y-3787976D01*
X-4553691Y-3607024D02*
X-4544167Y-3597500D01*
X-4525119Y-3587976D01*
X-4477500Y-3587976D01*
X-4458453Y-3597500D01*
X-4448929Y-3607024D01*
X-4439405Y-3626071D01*
X-4439405Y-3645119D01*
X-4448929Y-3673690D01*
X-4563215Y-3787976D01*
X-4439405Y-3787976D01*
X-4315596Y-3587976D02*
X-4296548Y-3587976D01*
X-4277500Y-3597500D01*
X-4267976Y-3607024D01*
X-4258453Y-3626071D01*
X-4248929Y-3664167D01*
X-4248929Y-3711786D01*
X-4258453Y-3749881D01*
X-4267976Y-3768928D01*
X-4277500Y-3778452D01*
X-4296548Y-3787976D01*
X-4315596Y-3787976D01*
X-4334643Y-3778452D01*
X-4344167Y-3768928D01*
X-4353691Y-3749881D01*
X-4363215Y-3711786D01*
X-4363215Y-3664167D01*
X-4353691Y-3626071D01*
X-4344167Y-3607024D01*
X-4334643Y-3597500D01*
X-4315596Y-3587976D01*
X-4125119Y-3587976D02*
X-4106072Y-3587976D01*
X-4087024Y-3597500D01*
X-4077500Y-3607024D01*
X-4067976Y-3626071D01*
X-4058453Y-3664167D01*
X-4058453Y-3711786D01*
X-4067976Y-3749881D01*
X-4077500Y-3768928D01*
X-4087024Y-3778452D01*
X-4106072Y-3787976D01*
X-4125119Y-3787976D01*
X-4144167Y-3778452D01*
X-4153691Y-3768928D01*
X-4163214Y-3749881D01*
X-4172738Y-3711786D01*
X-4172738Y-3664167D01*
X-4163214Y-3626071D01*
X-4153691Y-3607024D01*
X-4144167Y-3597500D01*
X-4125119Y-3587976D01*
X-3972738Y-3787976D02*
X-3972738Y-3654643D01*
X-3972738Y-3673690D02*
X-3963214Y-3664167D01*
X-3944167Y-3654643D01*
X-3915595Y-3654643D01*
X-3896548Y-3664167D01*
X-3887024Y-3683214D01*
X-3887024Y-3787976D01*
X-3887024Y-3683214D02*
X-3877500Y-3664167D01*
X-3858453Y-3654643D01*
X-3829881Y-3654643D01*
X-3810834Y-3664167D01*
X-3801310Y-3683214D01*
X-3801310Y-3787976D01*
X-3706072Y-3787976D02*
X-3706072Y-3654643D01*
X-3706072Y-3673690D02*
X-3696548Y-3664167D01*
X-3677500Y-3654643D01*
X-3648929Y-3654643D01*
X-3629881Y-3664167D01*
X-3620357Y-3683214D01*
X-3620357Y-3787976D01*
X-3620357Y-3683214D02*
X-3610834Y-3664167D01*
X-3591786Y-3654643D01*
X-3563214Y-3654643D01*
X-3544167Y-3664167D01*
X-3534643Y-3683214D01*
X-3534643Y-3787976D01*
X-3144167Y-3578452D02*
X-3315595Y-3835595D01*
X-2887024Y-3587976D02*
X-2867976Y-3587976D01*
X-2848929Y-3597500D01*
X-2839405Y-3607024D01*
X-2829881Y-3626071D01*
X-2820357Y-3664167D01*
X-2820357Y-3711786D01*
X-2829881Y-3749881D01*
X-2839405Y-3768928D01*
X-2848929Y-3778452D01*
X-2867976Y-3787976D01*
X-2887024Y-3787976D01*
X-2906072Y-3778452D01*
X-2915595Y-3768928D01*
X-2925119Y-3749881D01*
X-2934643Y-3711786D01*
X-2934643Y-3664167D01*
X-2925119Y-3626071D01*
X-2915595Y-3607024D01*
X-2906072Y-3597500D01*
X-2887024Y-3587976D01*
X-2734643Y-3768928D02*
X-2725119Y-3778452D01*
X-2734643Y-3787976D01*
X-2744167Y-3778452D01*
X-2734643Y-3768928D01*
X-2734643Y-3787976D01*
X-2534643Y-3787976D02*
X-2648929Y-3787976D01*
X-2591786Y-3787976D02*
X-2591786Y-3587976D01*
X-2610834Y-3616548D01*
X-2629881Y-3635595D01*
X-2648929Y-3645119D01*
X-2458453Y-3607024D02*
X-2448929Y-3597500D01*
X-2429881Y-3587976D01*
X-2382262Y-3587976D01*
X-2363215Y-3597500D01*
X-2353691Y-3607024D01*
X-2344167Y-3626071D01*
X-2344167Y-3645119D01*
X-2353691Y-3673690D01*
X-2467976Y-3787976D01*
X-2344167Y-3787976D01*
X-2172738Y-3587976D02*
X-2210834Y-3587976D01*
X-2229881Y-3597500D01*
X-2239405Y-3607024D01*
X-2258453Y-3635595D01*
X-2267976Y-3673690D01*
X-2267976Y-3749881D01*
X-2258453Y-3768928D01*
X-2248929Y-3778452D01*
X-2229881Y-3787976D01*
X-2191786Y-3787976D01*
X-2172738Y-3778452D01*
X-2163215Y-3768928D01*
X-2153691Y-3749881D01*
X-2153691Y-3702262D01*
X-2163215Y-3683214D01*
X-2172738Y-3673690D01*
X-2191786Y-3664167D01*
X-2229881Y-3664167D01*
X-2248929Y-3673690D01*
X-2258453Y-3683214D01*
X-2267976Y-3702262D01*
X-2029881Y-3587976D02*
X-2010834Y-3587976D01*
X-1991786Y-3597500D01*
X-1982262Y-3607024D01*
X-1972738Y-3626071D01*
X-1963214Y-3664167D01*
X-1963214Y-3711786D01*
X-1972738Y-3749881D01*
X-1982262Y-3768928D01*
X-1991786Y-3778452D01*
X-2010834Y-3787976D01*
X-2029881Y-3787976D01*
X-2048929Y-3778452D01*
X-2058453Y-3768928D01*
X-2067976Y-3749881D01*
X-2077500Y-3711786D01*
X-2077500Y-3664167D01*
X-2067976Y-3626071D01*
X-2058453Y-3607024D01*
X-2048929Y-3597500D01*
X-2029881Y-3587976D01*
X-1887024Y-3587976D02*
X-1887024Y-3626071D01*
X-1810834Y-3587976D02*
X-1810834Y-3626071D01*
X-1515595Y-3864167D02*
X-1525119Y-3854643D01*
X-1544167Y-3826071D01*
X-1553691Y-3807024D01*
X-1563214Y-3778452D01*
X-1572738Y-3730833D01*
X-1572738Y-3692738D01*
X-1563214Y-3645119D01*
X-1553691Y-3616548D01*
X-1544167Y-3597500D01*
X-1525119Y-3568928D01*
X-1515595Y-3559405D01*
X-1353691Y-3654643D02*
X-1353691Y-3787976D01*
X-1401310Y-3578452D02*
X-1448929Y-3721309D01*
X-1325119Y-3721309D01*
X-1096548Y-3787976D02*
X-1096548Y-3587976D01*
X-1010834Y-3787976D02*
X-1010834Y-3683214D01*
X-1020357Y-3664167D01*
X-1039405Y-3654643D01*
X-1067976Y-3654643D01*
X-1087024Y-3664167D01*
X-1096548Y-3673690D01*
X-887024Y-3787976D02*
X-906072Y-3778452D01*
X-915595Y-3768928D01*
X-925119Y-3749881D01*
X-925119Y-3692738D01*
X-915595Y-3673690D01*
X-906072Y-3664167D01*
X-887024Y-3654643D01*
X-858453Y-3654643D01*
X-839405Y-3664167D01*
X-829881Y-3673690D01*
X-820357Y-3692738D01*
X-820357Y-3749881D01*
X-829881Y-3768928D01*
X-839405Y-3778452D01*
X-858453Y-3787976D01*
X-887024Y-3787976D01*
X-706072Y-3787976D02*
X-725119Y-3778452D01*
X-734643Y-3759405D01*
X-734643Y-3587976D01*
X-553691Y-3778452D02*
X-572738Y-3787976D01*
X-610834Y-3787976D01*
X-629881Y-3778452D01*
X-639405Y-3759405D01*
X-639405Y-3683214D01*
X-629881Y-3664167D01*
X-610834Y-3654643D01*
X-572738Y-3654643D01*
X-553691Y-3664167D01*
X-544167Y-3683214D01*
X-544167Y-3702262D01*
X-639405Y-3721309D01*
X-467976Y-3778452D02*
X-448929Y-3787976D01*
X-410834Y-3787976D01*
X-391786Y-3778452D01*
X-382262Y-3759405D01*
X-382262Y-3749881D01*
X-391786Y-3730833D01*
X-410834Y-3721309D01*
X-439405Y-3721309D01*
X-458453Y-3711786D01*
X-467976Y-3692738D01*
X-467976Y-3683214D01*
X-458453Y-3664167D01*
X-439405Y-3654643D01*
X-410834Y-3654643D01*
X-391786Y-3664167D01*
X-315596Y-3864167D02*
X-306072Y-3854643D01*
X-287024Y-3826071D01*
X-277500Y-3807024D01*
X-267976Y-3778452D01*
X-258453Y-3730833D01*
X-258453Y-3692738D01*
X-267976Y-3645119D01*
X-277500Y-3616548D01*
X-287024Y-3597500D01*
X-306072Y-3568928D01*
X-315596Y-3559405D01*
X46309Y-3864167D02*
X36785Y-3854643D01*
X17738Y-3826071D01*
X8214Y-3807024D01*
X-1310Y-3778452D01*
X-10834Y-3730833D01*
X-10834Y-3692738D01*
X-1310Y-3645119D01*
X8214Y-3616548D01*
X17738Y-3597500D01*
X36785Y-3568928D01*
X46309Y-3559405D01*
X122500Y-3654643D02*
X122500Y-3787976D01*
X122500Y-3673690D02*
X132024Y-3664167D01*
X151071Y-3654643D01*
X179642Y-3654643D01*
X198690Y-3664167D01*
X208214Y-3683214D01*
X208214Y-3787976D01*
X332024Y-3787976D02*
X312976Y-3778452D01*
X303452Y-3768928D01*
X293928Y-3749881D01*
X293928Y-3692738D01*
X303452Y-3673690D01*
X312976Y-3664167D01*
X332024Y-3654643D01*
X360595Y-3654643D01*
X379642Y-3664167D01*
X389166Y-3673690D01*
X398690Y-3692738D01*
X398690Y-3749881D01*
X389166Y-3768928D01*
X379642Y-3778452D01*
X360595Y-3787976D01*
X332024Y-3787976D01*
X455833Y-3654643D02*
X532024Y-3654643D01*
X484404Y-3587976D02*
X484404Y-3759405D01*
X493928Y-3778452D01*
X512976Y-3787976D01*
X532024Y-3787976D01*
X751071Y-3654643D02*
X751071Y-3854643D01*
X751071Y-3664167D02*
X770119Y-3654643D01*
X808214Y-3654643D01*
X827262Y-3664167D01*
X836785Y-3673690D01*
X846309Y-3692738D01*
X846309Y-3749881D01*
X836785Y-3768928D01*
X827262Y-3778452D01*
X808214Y-3787976D01*
X770119Y-3787976D01*
X751071Y-3778452D01*
X960595Y-3787976D02*
X941547Y-3778452D01*
X932023Y-3759405D01*
X932023Y-3587976D01*
X1122500Y-3787976D02*
X1122500Y-3683214D01*
X1112976Y-3664167D01*
X1093928Y-3654643D01*
X1055833Y-3654643D01*
X1036785Y-3664167D01*
X1122500Y-3778452D02*
X1103452Y-3787976D01*
X1055833Y-3787976D01*
X1036785Y-3778452D01*
X1027262Y-3759405D01*
X1027262Y-3740357D01*
X1036785Y-3721309D01*
X1055833Y-3711786D01*
X1103452Y-3711786D01*
X1122500Y-3702262D01*
X1189166Y-3654643D02*
X1265357Y-3654643D01*
X1217738Y-3587976D02*
X1217738Y-3759405D01*
X1227262Y-3778452D01*
X1246309Y-3787976D01*
X1265357Y-3787976D01*
X1408214Y-3778452D02*
X1389166Y-3787976D01*
X1351071Y-3787976D01*
X1332024Y-3778452D01*
X1322500Y-3759405D01*
X1322500Y-3683214D01*
X1332024Y-3664167D01*
X1351071Y-3654643D01*
X1389166Y-3654643D01*
X1408214Y-3664167D01*
X1417738Y-3683214D01*
X1417738Y-3702262D01*
X1322500Y-3721309D01*
X1589166Y-3787976D02*
X1589166Y-3587976D01*
X1589166Y-3778452D02*
X1570119Y-3787976D01*
X1532023Y-3787976D01*
X1512976Y-3778452D01*
X1503452Y-3768928D01*
X1493928Y-3749881D01*
X1493928Y-3692738D01*
X1503452Y-3673690D01*
X1512976Y-3664167D01*
X1532023Y-3654643D01*
X1570119Y-3654643D01*
X1589166Y-3664167D01*
X1665357Y-3864167D02*
X1674881Y-3854643D01*
X1693928Y-3826071D01*
X1703452Y-3807024D01*
X1712976Y-3778452D01*
X1722500Y-3730833D01*
X1722500Y-3692738D01*
X1712976Y-3645119D01*
X1703452Y-3616548D01*
X1693928Y-3597500D01*
X1674881Y-3568928D01*
X1665357Y-3559405D01*
M02*
