G04 #@! TF.GenerationSoftware,KiCad,Pcbnew,6.0.1-79c1e3a40b~116~ubuntu20.04.1*
G04 #@! TF.CreationDate,2022-02-03T13:13:37-05:00*
G04 #@! TF.ProjectId,d-lev_8mm_tuner,642d6c65-765f-4386-9d6d-5f74756e6572,rev?*
G04 #@! TF.SameCoordinates,Original*
G04 #@! TF.FileFunction,Soldermask,Top*
G04 #@! TF.FilePolarity,Negative*
%FSLAX46Y46*%
G04 Gerber Fmt 4.6, Leading zero omitted, Abs format (unit mm)*
G04 Created by KiCad (PCBNEW 6.0.1-79c1e3a40b~116~ubuntu20.04.1) date 2022-02-03 13:13:37*
%MOMM*%
%LPD*%
G01*
G04 APERTURE LIST*
%ADD10R,1.700000X1.700000*%
%ADD11C,1.700000*%
%ADD12R,1.800000X1.800000*%
%ADD13C,1.800000*%
%ADD14C,3.200000*%
%ADD15C,5.000000*%
%ADD16C,2.900000*%
%ADD17O,1.700000X1.700000*%
G04 APERTURE END LIST*
D10*
X-22800000Y-7620000D03*
D11*
X-20260000Y-7620000D03*
X-17720000Y-7620000D03*
X-15180000Y-7620000D03*
X-12640000Y-7620000D03*
X-12640000Y7620000D03*
X-15180000Y7620000D03*
X-17720000Y7620000D03*
X-20260000Y7620000D03*
X-22800000Y7620000D03*
D12*
X42170000Y8840000D03*
D13*
X42170000Y11380000D03*
D12*
X7120000Y8840000D03*
D13*
X7120000Y11380000D03*
D12*
X18800000Y8840000D03*
D13*
X18800000Y11380000D03*
D12*
X24640000Y18950000D03*
D13*
X24640000Y21490000D03*
D12*
X30480000Y8840000D03*
D13*
X30480000Y11380000D03*
D12*
X36330000Y-1270000D03*
D13*
X36330000Y1270000D03*
D12*
X42170000Y-11380000D03*
D13*
X42170000Y-8840000D03*
D12*
X30480000Y-11380000D03*
D13*
X30480000Y-8840000D03*
D12*
X24640000Y-21490000D03*
D13*
X24640000Y-18950000D03*
D12*
X18800000Y-11380000D03*
D13*
X18800000Y-8840000D03*
D12*
X7120000Y-11380000D03*
D13*
X7120000Y-8840000D03*
D12*
X12960000Y-1270000D03*
D13*
X12960000Y1270000D03*
D12*
X24640000Y-1270000D03*
D13*
X24640000Y1270000D03*
D12*
X-40890000Y17700000D03*
D13*
X-43430000Y17700000D03*
D12*
X-40890000Y5900000D03*
D13*
X-43430000Y5900000D03*
D12*
X-40890000Y-5900000D03*
D13*
X-43430000Y-5900000D03*
D12*
X-40890000Y-17700000D03*
D13*
X-43430000Y-17700000D03*
D14*
X-46500000Y26190000D03*
X46500000Y26190000D03*
X46500000Y-26190000D03*
X-46500000Y-26190000D03*
D15*
X-1215000Y7516000D03*
D16*
X-1215000Y7516000D03*
D10*
X-38050000Y-26190000D03*
D17*
X-35510000Y-26190000D03*
X-32970000Y-26190000D03*
X-30430000Y-26190000D03*
X-27890000Y-26190000D03*
X-25350000Y-26190000D03*
X-22810000Y-26190000D03*
X-20270000Y-26190000D03*
X-17730000Y-26190000D03*
X-15190000Y-26190000D03*
X-12650000Y-26190000D03*
X-10110000Y-26190000D03*
X-7570000Y-26190000D03*
X-5030000Y-26190000D03*
X-2490000Y-26190000D03*
X50000Y-26190000D03*
X2590000Y-26190000D03*
X5130000Y-26190000D03*
X7670000Y-26190000D03*
X10210000Y-26190000D03*
X12750000Y-26190000D03*
X15290000Y-26190000D03*
X17830000Y-26190000D03*
X20370000Y-26190000D03*
X22910000Y-26190000D03*
X25450000Y-26190000D03*
X27990000Y-26190000D03*
X30530000Y-26190000D03*
X33070000Y-26190000D03*
X35610000Y-26190000D03*
M02*
