M48
; DRILL file {KiCad 6.0.1-79c1e3a40b~116~ubuntu20.04.1} date Thu 03 Feb 2022 01:13:44 PM EST
; FORMAT={-:-/ absolute / metric / decimal}
; #@! TF.CreationDate,2022-02-03T13:13:44-05:00
; #@! TF.GenerationSoftware,Kicad,Pcbnew,6.0.1-79c1e3a40b~116~ubuntu20.04.1
; #@! TF.FileFunction,Plated,1,2,PTH
FMAT,2
METRIC
; #@! TA.AperFunction,Plated,PTH,ComponentDrill
T1C0.900
; #@! TA.AperFunction,Plated,PTH,ComponentDrill
T2C1.000
; #@! TA.AperFunction,Plated,PTH,ComponentDrill
T3C2.500
%
G90
G05
T1
X-43.43Y17.7
X-43.43Y5.9
X-43.43Y-5.9
X-43.43Y-17.7
X-40.89Y17.7
X-40.89Y5.9
X-40.89Y-5.9
X-40.89Y-17.7
X7.12Y11.38
X7.12Y8.84
X7.12Y-8.84
X7.12Y-11.38
X12.96Y1.27
X12.96Y-1.27
X18.8Y11.38
X18.8Y8.84
X18.8Y-8.84
X18.8Y-11.38
X24.64Y21.49
X24.64Y18.95
X24.64Y1.27
X24.64Y-1.27
X24.64Y-18.95
X24.64Y-21.49
X30.48Y11.38
X30.48Y8.84
X30.48Y-8.84
X30.48Y-11.38
X36.33Y1.27
X36.33Y-1.27
X42.17Y11.38
X42.17Y8.84
X42.17Y-8.84
X42.17Y-11.38
T2
X-38.05Y-26.19
X-35.51Y-26.19
X-32.97Y-26.19
X-30.43Y-26.19
X-27.89Y-26.19
X-25.35Y-26.19
X-22.81Y-26.19
X-22.8Y7.62
X-22.8Y-7.62
X-20.27Y-26.19
X-20.26Y7.62
X-20.26Y-7.62
X-17.73Y-26.19
X-17.72Y7.62
X-17.72Y-7.62
X-15.19Y-26.19
X-15.18Y7.62
X-15.18Y-7.62
X-12.65Y-26.19
X-12.64Y7.62
X-12.64Y-7.62
X-10.11Y-26.19
X-7.57Y-26.19
X-5.03Y-26.19
X-2.49Y-26.19
X0.05Y-26.19
X2.59Y-26.19
X5.13Y-26.19
X7.67Y-26.19
X10.21Y-26.19
X12.75Y-26.19
X15.29Y-26.19
X17.83Y-26.19
X20.37Y-26.19
X22.91Y-26.19
X25.45Y-26.19
X27.99Y-26.19
X30.53Y-26.19
X33.07Y-26.19
X35.61Y-26.19
T3
X-1.215Y7.516
T0
M30
