<?xml version="1.0" encoding="UTF-8"?>
<!DOCTYPE svg PUBLIC "-//W3C//DTD SVG 1.1//EN" "http://www.w3.org/Graphics/SVG/1.1/DTD/svg11.dtd">
<svg xmlns="http://www.w3.org/2000/svg" xmlns:xlink="http://www.w3.org/1999/xlink" version="1.1" width="498" height="208" viewBox="-0.5 -0.5 498 208"><defs><filter id="dropShadow"><feGaussianBlur in="SourceAlpha" stdDeviation="1.7" result="blur"/><feOffset in="blur" dx="3" dy="3" result="offsetBlur"/><feFlood flood-color="#3D4574" flood-opacity="0.4" result="offsetColor"/><feComposite in="offsetColor" in2="offsetBlur" operator="in" result="offsetBlur"/><feBlend in="SourceGraphic" in2="offsetBlur"/></filter></defs><g filter="url(#dropShadow)"><rect x="120" y="180" width="70" height="20" fill="none" stroke="none" pointer-events="all"/><g fill="#000000" font-family="Helvetica" font-size="12px"><text x="121.5" y="194.5">preset knobs</text></g><path d="M 70 10 L 90 10 L 90 31.76" fill="none" stroke="#000000" stroke-width="2" stroke-miterlimit="10" pointer-events="stroke"/><path d="M 90 37.76 L 86 29.76 L 90 31.76 L 94 29.76 Z" fill="#000000" stroke="#000000" stroke-width="2" stroke-miterlimit="10" pointer-events="all"/><rect x="0" y="0" width="70" height="20" fill="none" stroke="none" pointer-events="all"/><g fill="#000000" font-family="Helvetica" text-anchor="end" font-size="12px"><text x="67.5" y="14.5">preset knobs</text></g><path d="M 20 60 L 40 40 L 140 40 L 160 60 Z" fill="#000000" stroke="#000000" stroke-width="2" stroke-miterlimit="10" pointer-events="all" transform="translate(2,3)" opacity="0.25"/><path d="M 20 60 L 40 40 L 140 40 L 160 60 Z" fill="#ffffff" stroke="#000000" stroke-width="2" stroke-miterlimit="10" pointer-events="all"/><path d="M 180 150 L 160 150 L 170 150 L 158.24 150" fill="none" stroke="#000000" stroke-width="2" stroke-miterlimit="10" pointer-events="stroke"/><path d="M 152.24 150 L 160.24 146 L 158.24 150 L 160.24 154 Z" fill="#000000" stroke="#000000" stroke-width="2" stroke-miterlimit="10" pointer-events="all"/><ellipse cx="190" cy="150" rx="10" ry="10" fill="#000000" stroke="#000000" stroke-width="2" pointer-events="all" transform="translate(2,3)" opacity="0.25"/><ellipse cx="190" cy="150" rx="10" ry="10" fill="#ffffff" stroke="#000000" stroke-width="2" pointer-events="all"/><path d="M 180 170 L 197.15 135.7" fill="none" stroke="#000000" stroke-miterlimit="10" pointer-events="stroke"/><path d="M 199.5 131 L 198.46 138.3 L 197.15 135.7 L 194.28 136.22 Z" fill="#000000" stroke="#000000" stroke-miterlimit="10" pointer-events="all"/><rect x="170" y="110" width="40" height="20" fill="none" stroke="none" pointer-events="all"/><g fill="#000000" font-family="Helvetica" text-anchor="middle" font-size="12px"><text x="189.5" y="124.5">load</text></g><path d="M 90 160 L 90 190 L 111.76 190" fill="none" stroke="#000000" stroke-width="2" stroke-miterlimit="10" pointer-events="stroke"/><path d="M 117.76 190 L 109.76 194 L 111.76 190 L 109.76 186 Z" fill="#000000" stroke="#000000" stroke-width="2" stroke-miterlimit="10" pointer-events="all"/><path d="M 20 160 L 40 140 L 140 140 L 160 160 Z" fill="#000000" stroke="#000000" stroke-width="2" stroke-miterlimit="10" transform="translate(2,3)translate(0,150)scale(1,-1)translate(0,-150)" pointer-events="all" opacity="0.25"/><path d="M 20 160 L 40 140 L 140 140 L 160 160 Z" fill="#ffffff" stroke="#000000" stroke-width="2" stroke-miterlimit="10" transform="translate(0,150)scale(1,-1)translate(0,-150)" pointer-events="all"/><path d="M 180 50 L 160 50 L 170 50 L 158.24 50" fill="none" stroke="#000000" stroke-width="2" stroke-miterlimit="10" pointer-events="stroke"/><path d="M 152.24 50 L 160.24 46 L 158.24 50 L 160.24 54 Z" fill="#000000" stroke="#000000" stroke-width="2" stroke-miterlimit="10" pointer-events="all"/><ellipse cx="190" cy="50" rx="10" ry="10" fill="#000000" stroke="#000000" stroke-width="2" pointer-events="all" transform="translate(2,3)" opacity="0.25"/><ellipse cx="190" cy="50" rx="10" ry="10" fill="#ffffff" stroke="#000000" stroke-width="2" pointer-events="all"/><path d="M 180 70 L 197.15 35.7" fill="none" stroke="#000000" stroke-miterlimit="10" pointer-events="stroke"/><path d="M 199.5 31 L 198.46 38.3 L 197.15 35.7 L 194.28 36.22 Z" fill="#000000" stroke="#000000" stroke-miterlimit="10" pointer-events="all"/><rect x="170" y="10" width="40" height="20" fill="none" stroke="none" pointer-events="all"/><g fill="#000000" font-family="Helvetica" text-anchor="middle" font-size="12px"><text x="189.5" y="24.5">stor</text></g><rect x="20" y="90" width="30" height="20" fill="#000000" stroke="#000000" stroke-width="2" pointer-events="all" transform="translate(2,3)" opacity="0.25"/><rect x="20" y="90" width="30" height="20" fill="#ffffff" stroke="#000000" stroke-width="2" pointer-events="all"/><g fill="#000000" font-family="Helvetica" text-anchor="middle" font-size="12px"><text x="34.5" y="104.5">0</text></g><rect x="100" y="90" width="30" height="20" fill="#000000" stroke="#000000" stroke-width="2" pointer-events="all" transform="translate(2,3)" opacity="0.25"/><rect x="100" y="90" width="30" height="20" fill="#ffffff" stroke="#000000" stroke-width="2" pointer-events="all"/><g fill="#000000" font-family="Helvetica" text-anchor="middle" font-size="12px"><text x="114.5" y="104.5">248</text></g><rect x="130" y="90" width="30" height="20" fill="#000000" stroke="#000000" stroke-width="2" pointer-events="all" transform="translate(2,3)" opacity="0.25"/><rect x="130" y="90" width="30" height="20" fill="#ffffff" stroke="#000000" stroke-width="2" pointer-events="all"/><g fill="#000000" font-family="Helvetica" text-anchor="middle" font-size="12px"><text x="144.5" y="104.5">249</text></g><rect x="50" y="90" width="30" height="20" fill="#000000" stroke="#000000" stroke-width="2" pointer-events="all" transform="translate(2,3)" opacity="0.25"/><rect x="50" y="90" width="30" height="20" fill="#ffffff" stroke="#000000" stroke-width="2" pointer-events="all"/><g fill="#000000" font-family="Helvetica" text-anchor="middle" font-size="12px"><text x="64.5" y="104.5">1</text></g><rect x="80" y="87" width="20" height="20" fill="none" stroke="none" pointer-events="all"/><g fill="#000000" font-family="Helvetica" font-weight="bold" text-anchor="middle" font-size="12px"><text x="89.5" y="101.5">...</text></g><path d="M 35 110 L 35 131.76" fill="none" stroke="#000000" stroke-width="2" stroke-miterlimit="10" pointer-events="stroke"/><path d="M 35 137.76 L 31 129.76 L 35 131.76 L 39 129.76 Z" fill="#000000" stroke="#000000" stroke-width="2" stroke-miterlimit="10" pointer-events="all"/><path d="M 65 110 L 65 131.76" fill="none" stroke="#000000" stroke-width="2" stroke-miterlimit="10" pointer-events="stroke"/><path d="M 65 137.76 L 61 129.76 L 65 131.76 L 69 129.76 Z" fill="#000000" stroke="#000000" stroke-width="2" stroke-miterlimit="10" pointer-events="all"/><path d="M 115 110 L 115 131.76" fill="none" stroke="#000000" stroke-width="2" stroke-miterlimit="10" pointer-events="stroke"/><path d="M 115 137.76 L 111 129.76 L 115 131.76 L 119 129.76 Z" fill="#000000" stroke="#000000" stroke-width="2" stroke-miterlimit="10" pointer-events="all"/><path d="M 145 110 L 145 131.76" fill="none" stroke="#000000" stroke-width="2" stroke-miterlimit="10" pointer-events="stroke"/><path d="M 145 137.76 L 141 129.76 L 145 131.76 L 149 129.76 Z" fill="#000000" stroke="#000000" stroke-width="2" stroke-miterlimit="10" pointer-events="all"/><path d="M 35 60 L 35 81.76" fill="none" stroke="#000000" stroke-width="2" stroke-miterlimit="10" pointer-events="stroke"/><path d="M 35 87.76 L 31 79.76 L 35 81.76 L 39 79.76 Z" fill="#000000" stroke="#000000" stroke-width="2" stroke-miterlimit="10" pointer-events="all"/><path d="M 65 60 L 65 81.76" fill="none" stroke="#000000" stroke-width="2" stroke-miterlimit="10" pointer-events="stroke"/><path d="M 65 87.76 L 61 79.76 L 65 81.76 L 69 79.76 Z" fill="#000000" stroke="#000000" stroke-width="2" stroke-miterlimit="10" pointer-events="all"/><path d="M 115 60 L 115 81.76" fill="none" stroke="#000000" stroke-width="2" stroke-miterlimit="10" pointer-events="stroke"/><path d="M 115 87.76 L 111 79.76 L 115 81.76 L 119 79.76 Z" fill="#000000" stroke="#000000" stroke-width="2" stroke-miterlimit="10" pointer-events="all"/><path d="M 145 60 L 145 81.76" fill="none" stroke="#000000" stroke-width="2" stroke-miterlimit="10" pointer-events="stroke"/><path d="M 145 87.76 L 141 79.76 L 145 81.76 L 149 79.76 Z" fill="#000000" stroke="#000000" stroke-width="2" stroke-miterlimit="10" pointer-events="all"/><rect x="400" y="180" width="70" height="20" fill="none" stroke="none" pointer-events="all"/><g fill="#000000" font-family="Helvetica" font-size="12px"><text x="401.5" y="194.5">profile knobs</text></g><path d="M 350 10 L 370 10 L 370 31.76" fill="none" stroke="#000000" stroke-width="2" stroke-miterlimit="10" pointer-events="stroke"/><path d="M 370 37.76 L 366 29.76 L 370 31.76 L 374 29.76 Z" fill="#000000" stroke="#000000" stroke-width="2" stroke-miterlimit="10" pointer-events="all"/><rect x="280" y="0" width="70" height="20" fill="none" stroke="none" pointer-events="all"/><g fill="#000000" font-family="Helvetica" text-anchor="end" font-size="12px"><text x="347.5" y="14.5">profile knobs</text></g><path d="M 300 60 L 320 40 L 420 40 L 440 60 Z" fill="#000000" stroke="#000000" stroke-width="2" stroke-miterlimit="10" pointer-events="all" transform="translate(2,3)" opacity="0.25"/><path d="M 300 60 L 320 40 L 420 40 L 440 60 Z" fill="#ffffff" stroke="#000000" stroke-width="2" stroke-miterlimit="10" pointer-events="all"/><path d="M 460 150 L 440 150 L 450 150 L 438.24 150" fill="none" stroke="#000000" stroke-width="2" stroke-miterlimit="10" pointer-events="stroke"/><path d="M 432.24 150 L 440.24 146 L 438.24 150 L 440.24 154 Z" fill="#000000" stroke="#000000" stroke-width="2" stroke-miterlimit="10" pointer-events="all"/><ellipse cx="470" cy="150" rx="10" ry="10" fill="#000000" stroke="#000000" stroke-width="2" pointer-events="all" transform="translate(2,3)" opacity="0.25"/><ellipse cx="470" cy="150" rx="10" ry="10" fill="#ffffff" stroke="#000000" stroke-width="2" pointer-events="all"/><path d="M 460 170 L 477.15 135.7" fill="none" stroke="#000000" stroke-miterlimit="10" pointer-events="stroke"/><path d="M 479.5 131 L 478.46 138.3 L 477.15 135.7 L 474.28 136.22 Z" fill="#000000" stroke="#000000" stroke-miterlimit="10" pointer-events="all"/><rect x="450" y="110" width="40" height="20" fill="none" stroke="none" pointer-events="all"/><g fill="#000000" font-family="Helvetica" text-anchor="middle" font-size="12px"><text x="469.5" y="124.5">Load</text></g><path d="M 370 160 L 370 190 L 391.76 190" fill="none" stroke="#000000" stroke-width="2" stroke-miterlimit="10" pointer-events="stroke"/><path d="M 397.76 190 L 389.76 194 L 391.76 190 L 389.76 186 Z" fill="#000000" stroke="#000000" stroke-width="2" stroke-miterlimit="10" pointer-events="all"/><path d="M 300 160 L 320 140 L 420 140 L 440 160 Z" fill="#000000" stroke="#000000" stroke-width="2" stroke-miterlimit="10" transform="translate(2,3)translate(0,150)scale(1,-1)translate(0,-150)" pointer-events="all" opacity="0.25"/><path d="M 300 160 L 320 140 L 420 140 L 440 160 Z" fill="#ffffff" stroke="#000000" stroke-width="2" stroke-miterlimit="10" transform="translate(0,150)scale(1,-1)translate(0,-150)" pointer-events="all"/><path d="M 460 50 L 440 50 L 450 50 L 438.24 50" fill="none" stroke="#000000" stroke-width="2" stroke-miterlimit="10" pointer-events="stroke"/><path d="M 432.24 50 L 440.24 46 L 438.24 50 L 440.24 54 Z" fill="#000000" stroke="#000000" stroke-width="2" stroke-miterlimit="10" pointer-events="all"/><ellipse cx="470" cy="50" rx="10" ry="10" fill="#000000" stroke="#000000" stroke-width="2" pointer-events="all" transform="translate(2,3)" opacity="0.25"/><ellipse cx="470" cy="50" rx="10" ry="10" fill="#ffffff" stroke="#000000" stroke-width="2" pointer-events="all"/><path d="M 460 70 L 477.15 35.7" fill="none" stroke="#000000" stroke-miterlimit="10" pointer-events="stroke"/><path d="M 479.5 31 L 478.46 38.3 L 477.15 35.7 L 474.28 36.22 Z" fill="#000000" stroke="#000000" stroke-miterlimit="10" pointer-events="all"/><rect x="450" y="10" width="40" height="20" fill="none" stroke="none" pointer-events="all"/><g fill="#000000" font-family="Helvetica" text-anchor="middle" font-size="12px"><text x="469.5" y="24.5">Stor</text></g><rect x="300" y="90" width="30" height="20" fill="#000000" stroke="#000000" stroke-width="2" pointer-events="all" transform="translate(2,3)" opacity="0.25"/><rect x="300" y="90" width="30" height="20" fill="#ffffff" stroke="#000000" stroke-width="2" pointer-events="all"/><g fill="#000000" font-family="Helvetica" text-anchor="middle" font-size="12px"><text x="314.5" y="104.5">0</text></g><rect x="380" y="90" width="30" height="20" fill="#000000" stroke="#000000" stroke-width="2" pointer-events="all" transform="translate(2,3)" opacity="0.25"/><rect x="380" y="90" width="30" height="20" fill="#ffffff" stroke="#000000" stroke-width="2" pointer-events="all"/><g fill="#000000" font-family="Helvetica" text-anchor="middle" font-size="12px"><text x="394.5" y="104.5">4</text></g><rect x="410" y="90" width="30" height="20" fill="#000000" stroke="#000000" stroke-width="2" pointer-events="all" transform="translate(2,3)" opacity="0.25"/><rect x="410" y="90" width="30" height="20" fill="#ffffff" stroke="#000000" stroke-width="2" pointer-events="all"/><g fill="#000000" font-family="Helvetica" text-anchor="middle" font-size="12px"><text x="424.5" y="104.5">5</text></g><rect x="330" y="90" width="30" height="20" fill="#000000" stroke="#000000" stroke-width="2" pointer-events="all" transform="translate(2,3)" opacity="0.25"/><rect x="330" y="90" width="30" height="20" fill="#ffffff" stroke="#000000" stroke-width="2" pointer-events="all"/><g fill="#000000" font-family="Helvetica" text-anchor="middle" font-size="12px"><text x="344.5" y="104.5">1</text></g><rect x="360" y="87" width="20" height="20" fill="none" stroke="none" pointer-events="all"/><g fill="#000000" font-family="Helvetica" font-weight="bold" text-anchor="middle" font-size="12px"><text x="369.5" y="101.5">...</text></g><path d="M 315 110 L 315 131.76" fill="none" stroke="#000000" stroke-width="2" stroke-miterlimit="10" pointer-events="stroke"/><path d="M 315 137.76 L 311 129.76 L 315 131.76 L 319 129.76 Z" fill="#000000" stroke="#000000" stroke-width="2" stroke-miterlimit="10" pointer-events="all"/><path d="M 345 110 L 345 131.76" fill="none" stroke="#000000" stroke-width="2" stroke-miterlimit="10" pointer-events="stroke"/><path d="M 345 137.76 L 341 129.76 L 345 131.76 L 349 129.76 Z" fill="#000000" stroke="#000000" stroke-width="2" stroke-miterlimit="10" pointer-events="all"/><path d="M 395 110 L 395 131.76" fill="none" stroke="#000000" stroke-width="2" stroke-miterlimit="10" pointer-events="stroke"/><path d="M 395 137.76 L 391 129.76 L 395 131.76 L 399 129.76 Z" fill="#000000" stroke="#000000" stroke-width="2" stroke-miterlimit="10" pointer-events="all"/><path d="M 425 110 L 425 131.76" fill="none" stroke="#000000" stroke-width="2" stroke-miterlimit="10" pointer-events="stroke"/><path d="M 425 137.76 L 421 129.76 L 425 131.76 L 429 129.76 Z" fill="#000000" stroke="#000000" stroke-width="2" stroke-miterlimit="10" pointer-events="all"/><path d="M 315 60 L 315 81.76" fill="none" stroke="#000000" stroke-width="2" stroke-miterlimit="10" pointer-events="stroke"/><path d="M 315 87.76 L 311 79.76 L 315 81.76 L 319 79.76 Z" fill="#000000" stroke="#000000" stroke-width="2" stroke-miterlimit="10" pointer-events="all"/><path d="M 345 60 L 345 81.76" fill="none" stroke="#000000" stroke-width="2" stroke-miterlimit="10" pointer-events="stroke"/><path d="M 345 87.76 L 341 79.76 L 345 81.76 L 349 79.76 Z" fill="#000000" stroke="#000000" stroke-width="2" stroke-miterlimit="10" pointer-events="all"/><path d="M 395 60 L 395 81.76" fill="none" stroke="#000000" stroke-width="2" stroke-miterlimit="10" pointer-events="stroke"/><path d="M 395 87.76 L 391 79.76 L 395 81.76 L 399 79.76 Z" fill="#000000" stroke="#000000" stroke-width="2" stroke-miterlimit="10" pointer-events="all"/><path d="M 425 60 L 425 81.76" fill="none" stroke="#000000" stroke-width="2" stroke-miterlimit="10" pointer-events="stroke"/><path d="M 425 87.76 L 421 79.76 L 425 81.76 L 429 79.76 Z" fill="#000000" stroke="#000000" stroke-width="2" stroke-miterlimit="10" pointer-events="all"/></g></svg>