<?xml version="1.0" encoding="UTF-8"?>
<!DOCTYPE svg PUBLIC "-//W3C//DTD SVG 1.1//EN" "http://www.w3.org/Graphics/SVG/1.1/DTD/svg11.dtd">
<svg xmlns="http://www.w3.org/2000/svg" xmlns:xlink="http://www.w3.org/1999/xlink" version="1.1" width="398" height="198" viewBox="-0.5 -0.5 398 198"><defs><filter id="dropShadow"><feGaussianBlur in="SourceAlpha" stdDeviation="1.7" result="blur"/><feOffset in="blur" dx="3" dy="3" result="offsetBlur"/><feFlood flood-color="#3D4574" flood-opacity="0.4" result="offsetColor"/><feComposite in="offsetColor" in2="offsetBlur" operator="in" result="offsetBlur"/><feBlend in="SourceGraphic" in2="offsetBlur"/></filter></defs><g filter="url(#dropShadow)"><path d="M 130 140.03 L 160 140.03 L 160 180.03 L 181.76 180.01" fill="none" stroke="#000000" stroke-width="2" stroke-miterlimit="10" pointer-events="stroke"/><path d="M 187.76 180 L 179.77 184.01 L 181.76 180.01 L 179.76 176.01 Z" fill="#000000" stroke="#000000" stroke-width="2" stroke-miterlimit="10" pointer-events="all"/><path d="M 130 140 L 181.76 140" fill="none" stroke="#000000" stroke-width="2" stroke-miterlimit="10" pointer-events="stroke"/><path d="M 187.76 140 L 179.76 144 L 181.76 140 L 179.76 136 Z" fill="#000000" stroke="#000000" stroke-width="2" stroke-miterlimit="10" pointer-events="all"/><rect x="10" y="120" width="120" height="40" rx="6" ry="6" fill="#000000" stroke="#000000" stroke-width="2" pointer-events="all" transform="translate(2,3)" opacity="0.25"/><rect x="10" y="120" width="120" height="40" rx="6" ry="6" fill="#ffffff" stroke="#000000" stroke-width="2" pointer-events="all"/><g fill="#000000" font-family="Helvetica" text-anchor="middle" font-size="12px"><text x="69.5" y="144.5">PM Unit</text></g><path d="M 320 120.03 L 340 120.03 L 330 120.03 L 341.76 120.01" fill="none" stroke="#000000" stroke-width="2" stroke-miterlimit="10" pointer-events="stroke"/><path d="M 347.76 120 L 339.77 124.02 L 341.76 120.01 L 339.76 116.02 Z" fill="#000000" stroke="#000000" stroke-width="2" stroke-miterlimit="10" pointer-events="all"/><rect x="260" y="100" width="60" height="40" rx="6" ry="6" fill="#000000" stroke="#000000" stroke-width="2" pointer-events="all" transform="translate(2,3)" opacity="0.25"/><rect x="260" y="100" width="60" height="40" rx="6" ry="6" fill="#ffffff" stroke="#000000" stroke-width="2" pointer-events="all"/><g fill="#000000" font-family="Helvetica" text-anchor="middle" font-size="12px"><text x="289.5" y="117.5">Sine</text><text x="289.5" y="131.5">Unit</text></g><path d="M 230 120.03 L 250 120.03 L 240 120.03 L 251.76 120.01" fill="none" stroke="#000000" stroke-width="2" stroke-miterlimit="10" pointer-events="stroke"/><path d="M 257.76 120 L 249.77 124.02 L 251.76 120.01 L 249.76 116.02 Z" fill="#000000" stroke="#000000" stroke-width="2" stroke-miterlimit="10" pointer-events="all"/><rect x="190" y="80" width="40" height="80" rx="6" ry="6" fill="#000000" stroke="#000000" stroke-width="2" pointer-events="all" transform="translate(2,3)" opacity="0.25"/><rect x="190" y="80" width="40" height="80" rx="6" ry="6" fill="#ffffff" stroke="#000000" stroke-width="2" pointer-events="all"/><g fill="#000000" font-family="Helvetica" text-anchor="middle" font-size="12px"><text x="209.5" y="117.5">Cross</text><text x="209.5" y="131.5">Mix</text></g><path d="M 20 80 L 20 100.03 L 40 100.03 L 40 111.76" fill="none" stroke="#000000" stroke-width="2" stroke-miterlimit="10" pointer-events="stroke"/><path d="M 40 117.76 L 36 109.76 L 40 111.76 L 44 109.76 Z" fill="#000000" stroke="#000000" stroke-width="2" stroke-miterlimit="10" pointer-events="all"/><ellipse cx="20" cy="70" rx="10" ry="10" fill="#000000" stroke="#000000" stroke-width="2" pointer-events="all" transform="translate(2,3)" opacity="0.25"/><ellipse cx="20" cy="70" rx="10" ry="10" fill="#ffffff" stroke="#000000" stroke-width="2" pointer-events="all"/><path d="M 10 90 L 27.15 55.7" fill="none" stroke="#000000" stroke-miterlimit="10" pointer-events="stroke"/><path d="M 29.5 51 L 28.46 58.3 L 27.15 55.7 L 24.28 56.22 Z" fill="#000000" stroke="#000000" stroke-miterlimit="10" pointer-events="all"/><rect x="0" y="30" width="40" height="20" fill="none" stroke="none" pointer-events="all"/><g transform="translate(-0.5 -0.5)"><switch><foreignObject style="overflow: visible; text-align: left;" pointer-events="none" width="100%" height="100%" requiredFeatures="http://www.w3.org/TR/SVG11/feature#Extensibility"><div xmlns="http://www.w3.org/1999/xhtml" style="display: flex; align-items: unsafe center; justify-content: unsafe center; width: 38px; height: 1px; padding-top: 40px; margin-left: 1px;"><div style="box-sizing: border-box; font-size: 0; text-align: center; "><div style="display: inline-block; font-size: 12px; font-family: Helvetica; color: #000000; line-height: 1.2; pointer-events: all; white-space: normal; word-wrap: normal; ">harm</div></div></div></foreignObject><text x="20" y="44" fill="#000000" font-family="Helvetica" font-size="12px" text-anchor="middle">harm</text></switch></g><path d="M 70 80 L 70 111.76" fill="none" stroke="#000000" stroke-width="2" stroke-miterlimit="10" pointer-events="stroke"/><path d="M 70 117.76 L 66 109.76 L 70 111.76 L 74 109.76 Z" fill="#000000" stroke="#000000" stroke-width="2" stroke-miterlimit="10" pointer-events="all"/><ellipse cx="70" cy="70" rx="10" ry="10" fill="#000000" stroke="#000000" stroke-width="2" pointer-events="all" transform="translate(2,3)" opacity="0.25"/><ellipse cx="70" cy="70" rx="10" ry="10" fill="#ffffff" stroke="#000000" stroke-width="2" pointer-events="all"/><path d="M 60 90 L 77.15 55.7" fill="none" stroke="#000000" stroke-miterlimit="10" pointer-events="stroke"/><path d="M 79.5 51 L 78.46 58.3 L 77.15 55.7 L 74.28 56.22 Z" fill="#000000" stroke="#000000" stroke-miterlimit="10" pointer-events="all"/><rect x="50" y="30" width="40" height="20" fill="none" stroke="none" pointer-events="all"/><g transform="translate(-0.5 -0.5)"><switch><foreignObject style="overflow: visible; text-align: left;" pointer-events="none" width="100%" height="100%" requiredFeatures="http://www.w3.org/TR/SVG11/feature#Extensibility"><div xmlns="http://www.w3.org/1999/xhtml" style="display: flex; align-items: unsafe center; justify-content: unsafe center; width: 38px; height: 1px; padding-top: 40px; margin-left: 51px;"><div style="box-sizing: border-box; font-size: 0; text-align: center; "><div style="display: inline-block; font-size: 12px; font-family: Helvetica; color: #000000; line-height: 1.2; pointer-events: all; white-space: normal; word-wrap: normal; ">odd</div></div></div></foreignObject><text x="70" y="44" fill="#000000" font-family="Helvetica" font-size="12px" text-anchor="middle">odd</text></switch></g><path d="M 120 80 L 120 100.03 L 100 100.03 L 100 111.76" fill="none" stroke="#000000" stroke-width="2" stroke-miterlimit="10" pointer-events="stroke"/><path d="M 100 117.76 L 96 109.76 L 100 111.76 L 104 109.76 Z" fill="#000000" stroke="#000000" stroke-width="2" stroke-miterlimit="10" pointer-events="all"/><ellipse cx="120" cy="70" rx="10" ry="10" fill="#000000" stroke="#000000" stroke-width="2" pointer-events="all" transform="translate(2,3)" opacity="0.25"/><ellipse cx="120" cy="70" rx="10" ry="10" fill="#ffffff" stroke="#000000" stroke-width="2" pointer-events="all"/><path d="M 110 90 L 127.15 55.7" fill="none" stroke="#000000" stroke-miterlimit="10" pointer-events="stroke"/><path d="M 129.5 51 L 128.46 58.3 L 127.15 55.7 L 124.28 56.22 Z" fill="#000000" stroke="#000000" stroke-miterlimit="10" pointer-events="all"/><rect x="100" y="30" width="40" height="20" fill="none" stroke="none" pointer-events="all"/><g transform="translate(-0.5 -0.5)"><switch><foreignObject style="overflow: visible; text-align: left;" pointer-events="none" width="100%" height="100%" requiredFeatures="http://www.w3.org/TR/SVG11/feature#Extensibility"><div xmlns="http://www.w3.org/1999/xhtml" style="display: flex; align-items: unsafe center; justify-content: unsafe center; width: 38px; height: 1px; padding-top: 40px; margin-left: 101px;"><div style="box-sizing: border-box; font-size: 0; text-align: center; "><div style="display: inline-block; font-size: 12px; font-family: Helvetica; color: #000000; line-height: 1.2; pointer-events: all; white-space: normal; word-wrap: normal; ">hmul</div></div></div></foreignObject><text x="120" y="44" fill="#000000" font-family="Helvetica" font-size="12px" text-anchor="middle">hmul</text></switch></g><path d="M 160 70 L 160 100.03 L 181.76 100.01" fill="none" stroke="#000000" stroke-width="2" stroke-miterlimit="10" pointer-events="stroke"/><path d="M 187.76 100 L 179.77 104.01 L 181.76 100.01 L 179.76 96.01 Z" fill="#000000" stroke="#000000" stroke-width="2" stroke-miterlimit="10" pointer-events="all"/><rect x="140" y="50" width="40" height="20" fill="none" stroke="none" pointer-events="all"/><g transform="translate(-0.5 -0.5)"><switch><foreignObject style="overflow: visible; text-align: left;" pointer-events="none" width="100%" height="100%" requiredFeatures="http://www.w3.org/TR/SVG11/feature#Extensibility"><div xmlns="http://www.w3.org/1999/xhtml" style="display: flex; align-items: unsafe center; justify-content: unsafe center; width: 38px; height: 1px; padding-top: 60px; margin-left: 141px;"><div style="box-sizing: border-box; font-size: 0; text-align: center; "><div style="display: inline-block; font-size: 12px; font-family: Helvetica; color: #000000; line-height: 1.2; pointer-events: all; white-space: normal; word-wrap: normal; ">PM in</div></div></div></foreignObject><text x="160" y="64" fill="#000000" font-family="Helvetica" font-size="12px" text-anchor="middle">PM in</text></switch></g><rect x="190" y="170" width="50" height="20" fill="none" stroke="none" pointer-events="all"/><g transform="translate(-0.5 -0.5)"><switch><foreignObject style="overflow: visible; text-align: left;" pointer-events="none" width="100%" height="100%" requiredFeatures="http://www.w3.org/TR/SVG11/feature#Extensibility"><div xmlns="http://www.w3.org/1999/xhtml" style="display: flex; align-items: unsafe center; justify-content: unsafe center; width: 48px; height: 1px; padding-top: 180px; margin-left: 191px;"><div style="box-sizing: border-box; font-size: 0; text-align: center; "><div style="display: inline-block; font-size: 12px; font-family: Helvetica; color: #000000; line-height: 1.2; pointer-events: all; white-space: normal; word-wrap: normal; ">PM out</div></div></div></foreignObject><text x="215" y="184" fill="#000000" font-family="Helvetica" font-size="12px" text-anchor="middle">PM out</text></switch></g><rect x="350" y="110" width="40" height="20" fill="none" stroke="none" pointer-events="all"/><g transform="translate(-0.5 -0.5)"><switch><foreignObject style="overflow: visible; text-align: left;" pointer-events="none" width="100%" height="100%" requiredFeatures="http://www.w3.org/TR/SVG11/feature#Extensibility"><div xmlns="http://www.w3.org/1999/xhtml" style="display: flex; align-items: unsafe center; justify-content: unsafe center; width: 38px; height: 1px; padding-top: 120px; margin-left: 351px;"><div style="box-sizing: border-box; font-size: 0; text-align: center; "><div style="display: inline-block; font-size: 12px; font-family: Helvetica; color: #000000; line-height: 1.2; pointer-events: all; white-space: normal; word-wrap: normal; ">Audio</div></div></div></foreignObject><text x="370" y="124" fill="#000000" font-family="Helvetica" font-size="12px" text-anchor="middle">Audio</text></switch></g><path d="M 210 50 L 210 70.03 L 210 60.03 L 210 71.76" fill="none" stroke="#000000" stroke-width="2" stroke-miterlimit="10" pointer-events="stroke"/><path d="M 210 77.76 L 206 69.76 L 210 71.76 L 214 69.76 Z" fill="#000000" stroke="#000000" stroke-width="2" stroke-miterlimit="10" pointer-events="all"/><ellipse cx="210" cy="40" rx="10" ry="10" fill="#000000" stroke="#000000" stroke-width="2" pointer-events="all" transform="translate(2,3)" opacity="0.25"/><ellipse cx="210" cy="40" rx="10" ry="10" fill="#ffffff" stroke="#000000" stroke-width="2" pointer-events="all"/><path d="M 200 60 L 217.15 25.7" fill="none" stroke="#000000" stroke-miterlimit="10" pointer-events="stroke"/><path d="M 219.5 21 L 218.46 28.3 L 217.15 25.7 L 214.28 26.22 Z" fill="#000000" stroke="#000000" stroke-miterlimit="10" pointer-events="all"/><rect x="190" y="0" width="40" height="20" fill="none" stroke="none" pointer-events="all"/><g transform="translate(-0.5 -0.5)"><switch><foreignObject style="overflow: visible; text-align: left;" pointer-events="none" width="100%" height="100%" requiredFeatures="http://www.w3.org/TR/SVG11/feature#Extensibility"><div xmlns="http://www.w3.org/1999/xhtml" style="display: flex; align-items: unsafe center; justify-content: unsafe center; width: 38px; height: 1px; padding-top: 10px; margin-left: 191px;"><div style="box-sizing: border-box; font-size: 0; text-align: center; "><div style="display: inline-block; font-size: 12px; font-family: Helvetica; color: #000000; line-height: 1.2; pointer-events: all; white-space: normal; word-wrap: normal; ">fm</div></div></div></foreignObject><text x="210" y="14" fill="#000000" font-family="Helvetica" font-size="12px" text-anchor="middle">fm</text></switch></g></g><switch><g requiredFeatures="http://www.w3.org/TR/SVG11/feature#Extensibility"/><a transform="translate(0,-5)" xlink:href="https://www.diagrams.net/doc/faq/svg-export-text-problems" target="_blank"></a></switch></svg>
