G04 #@! TF.GenerationSoftware,KiCad,Pcbnew,6.0.1-79c1e3a40b~116~ubuntu20.04.1*
G04 #@! TF.CreationDate,2022-02-03T13:15:32-05:00*
G04 #@! TF.ProjectId,d-lev_encoders,642d6c65-765f-4656-9e63-6f646572732e,rev?*
G04 #@! TF.SameCoordinates,Original*
G04 #@! TF.FileFunction,Legend,Top*
G04 #@! TF.FilePolarity,Positive*
%FSLAX46Y46*%
G04 Gerber Fmt 4.6, Leading zero omitted, Abs format (unit mm)*
G04 Created by KiCad (PCBNEW 6.0.1-79c1e3a40b~116~ubuntu20.04.1) date 2022-02-03 13:15:32*
%MOMM*%
%LPD*%
G01*
G04 APERTURE LIST*
%ADD10C,0.150000*%
%ADD11C,0.120000*%
%ADD12R,1.700000X1.700000*%
%ADD13R,1.200000X1.200000*%
%ADD14O,1.200000X1.200000*%
%ADD15R,2.000000X2.000000*%
%ADD16C,2.000000*%
%ADD17C,3.500000*%
G04 APERTURE END LIST*
D10*
X-7746904Y-22360000D02*
X-7842142Y-22312380D01*
X-7985000Y-22312380D01*
X-8127857Y-22360000D01*
X-8223095Y-22455238D01*
X-8270714Y-22550476D01*
X-8318333Y-22740952D01*
X-8318333Y-22883809D01*
X-8270714Y-23074285D01*
X-8223095Y-23169523D01*
X-8127857Y-23264761D01*
X-7985000Y-23312380D01*
X-7889761Y-23312380D01*
X-7746904Y-23264761D01*
X-7699285Y-23217142D01*
X-7699285Y-22883809D01*
X-7889761Y-22883809D01*
X-7270714Y-23312380D02*
X-7270714Y-22312380D01*
X-6699285Y-23312380D01*
X-6699285Y-22312380D01*
X-6223095Y-23312380D02*
X-6223095Y-22312380D01*
X-5985000Y-22312380D01*
X-5842142Y-22360000D01*
X-5746904Y-22455238D01*
X-5699285Y-22550476D01*
X-5651666Y-22740952D01*
X-5651666Y-22883809D01*
X-5699285Y-23074285D01*
X-5746904Y-23169523D01*
X-5842142Y-23264761D01*
X-5985000Y-23312380D01*
X-6223095Y-23312380D01*
X2129404Y-19820000D02*
X2034166Y-19772380D01*
X1891309Y-19772380D01*
X1748452Y-19820000D01*
X1653214Y-19915238D01*
X1605595Y-20010476D01*
X1557976Y-20200952D01*
X1557976Y-20343809D01*
X1605595Y-20534285D01*
X1653214Y-20629523D01*
X1748452Y-20724761D01*
X1891309Y-20772380D01*
X1986547Y-20772380D01*
X2129404Y-20724761D01*
X2177023Y-20677142D01*
X2177023Y-20343809D01*
X1986547Y-20343809D01*
X2605595Y-20772380D02*
X2605595Y-19772380D01*
X3177023Y-20772380D01*
X3177023Y-19772380D01*
X3653214Y-20772380D02*
X3653214Y-19772380D01*
X3891309Y-19772380D01*
X4034166Y-19820000D01*
X4129404Y-19915238D01*
X4177023Y-20010476D01*
X4224642Y-20200952D01*
X4224642Y-20343809D01*
X4177023Y-20534285D01*
X4129404Y-20629523D01*
X4034166Y-20724761D01*
X3891309Y-20772380D01*
X3653214Y-20772380D01*
X6858095Y-22360000D02*
X6762857Y-22312380D01*
X6619999Y-22312380D01*
X6477142Y-22360000D01*
X6381904Y-22455238D01*
X6334285Y-22550476D01*
X6286666Y-22740952D01*
X6286666Y-22883809D01*
X6334285Y-23074285D01*
X6381904Y-23169523D01*
X6477142Y-23264761D01*
X6619999Y-23312380D01*
X6715238Y-23312380D01*
X6858095Y-23264761D01*
X6905714Y-23217142D01*
X6905714Y-22883809D01*
X6715238Y-22883809D01*
X7334285Y-23312380D02*
X7334285Y-22312380D01*
X7905714Y-23312380D01*
X7905714Y-22312380D01*
X8381904Y-23312380D02*
X8381904Y-22312380D01*
X8620000Y-22312380D01*
X8762857Y-22360000D01*
X8858095Y-22455238D01*
X8905714Y-22550476D01*
X8953333Y-22740952D01*
X8953333Y-22883809D01*
X8905714Y-23074285D01*
X8858095Y-23169523D01*
X8762857Y-23264761D01*
X8620000Y-23312380D01*
X8381904Y-23312380D01*
X-4046547Y-20248571D02*
X-3713214Y-20248571D01*
X-3570357Y-20772380D02*
X-4046547Y-20772380D01*
X-4046547Y-19772380D01*
X-3570357Y-19772380D01*
X-3189404Y-20724761D02*
X-3046547Y-20772380D01*
X-2808452Y-20772380D01*
X-2713214Y-20724761D01*
X-2665595Y-20677142D01*
X-2617976Y-20581904D01*
X-2617976Y-20486666D01*
X-2665595Y-20391428D01*
X-2713214Y-20343809D01*
X-2808452Y-20296190D01*
X-2998928Y-20248571D01*
X-3094166Y-20200952D01*
X-3141785Y-20153333D01*
X-3189404Y-20058095D01*
X-3189404Y-19962857D01*
X-3141785Y-19867619D01*
X-3094166Y-19820000D01*
X-2998928Y-19772380D01*
X-2760833Y-19772380D01*
X-2617976Y-19820000D01*
X-2189404Y-20772380D02*
X-2189404Y-19772380D01*
X-1951309Y-19772380D01*
X-1808452Y-19820000D01*
X-1713214Y-19915238D01*
X-1665595Y-20010476D01*
X-1617976Y-20200952D01*
X-1617976Y-20343809D01*
X-1665595Y-20534285D01*
X-1713214Y-20629523D01*
X-1808452Y-20724761D01*
X-1951309Y-20772380D01*
X-2189404Y-20772380D01*
X-2095238Y-30127380D02*
X-2095238Y-29127380D01*
X-1857142Y-29127380D01*
X-1714285Y-29175000D01*
X-1619047Y-29270238D01*
X-1571428Y-29365476D01*
X-1523809Y-29555952D01*
X-1523809Y-29698809D01*
X-1571428Y-29889285D01*
X-1619047Y-29984523D01*
X-1714285Y-30079761D01*
X-1857142Y-30127380D01*
X-2095238Y-30127380D01*
X-1095238Y-29746428D02*
X-333333Y-29746428D01*
X619047Y-30127380D02*
X142857Y-30127380D01*
X142857Y-29127380D01*
X1333333Y-30079761D02*
X1238095Y-30127380D01*
X1047619Y-30127380D01*
X952380Y-30079761D01*
X904761Y-29984523D01*
X904761Y-29603571D01*
X952380Y-29508333D01*
X1047619Y-29460714D01*
X1238095Y-29460714D01*
X1333333Y-29508333D01*
X1380952Y-29603571D01*
X1380952Y-29698809D01*
X904761Y-29794047D01*
X1714285Y-29460714D02*
X1952380Y-30127380D01*
X2190476Y-29460714D01*
X-4428571Y-31213571D02*
X-4095238Y-31213571D01*
X-3952380Y-31737380D02*
X-4428571Y-31737380D01*
X-4428571Y-30737380D01*
X-3952380Y-30737380D01*
X-3523809Y-31070714D02*
X-3523809Y-31737380D01*
X-3523809Y-31165952D02*
X-3476190Y-31118333D01*
X-3380952Y-31070714D01*
X-3238095Y-31070714D01*
X-3142857Y-31118333D01*
X-3095238Y-31213571D01*
X-3095238Y-31737380D01*
X-2190476Y-31689761D02*
X-2285714Y-31737380D01*
X-2476190Y-31737380D01*
X-2571428Y-31689761D01*
X-2619047Y-31642142D01*
X-2666666Y-31546904D01*
X-2666666Y-31261190D01*
X-2619047Y-31165952D01*
X-2571428Y-31118333D01*
X-2476190Y-31070714D01*
X-2285714Y-31070714D01*
X-2190476Y-31118333D01*
X-1619047Y-31737380D02*
X-1714285Y-31689761D01*
X-1761904Y-31642142D01*
X-1809523Y-31546904D01*
X-1809523Y-31261190D01*
X-1761904Y-31165952D01*
X-1714285Y-31118333D01*
X-1619047Y-31070714D01*
X-1476190Y-31070714D01*
X-1380952Y-31118333D01*
X-1333333Y-31165952D01*
X-1285714Y-31261190D01*
X-1285714Y-31546904D01*
X-1333333Y-31642142D01*
X-1380952Y-31689761D01*
X-1476190Y-31737380D01*
X-1619047Y-31737380D01*
X-428571Y-31737380D02*
X-428571Y-30737380D01*
X-428571Y-31689761D02*
X-523809Y-31737380D01*
X-714285Y-31737380D01*
X-809523Y-31689761D01*
X-857142Y-31642142D01*
X-904761Y-31546904D01*
X-904761Y-31261190D01*
X-857142Y-31165952D01*
X-809523Y-31118333D01*
X-714285Y-31070714D01*
X-523809Y-31070714D01*
X-428571Y-31118333D01*
X428571Y-31689761D02*
X333333Y-31737380D01*
X142857Y-31737380D01*
X47619Y-31689761D01*
X0Y-31594523D01*
X0Y-31213571D01*
X47619Y-31118333D01*
X142857Y-31070714D01*
X333333Y-31070714D01*
X428571Y-31118333D01*
X476190Y-31213571D01*
X476190Y-31308809D01*
X0Y-31404047D01*
X904761Y-31737380D02*
X904761Y-31070714D01*
X904761Y-31261190D02*
X952380Y-31165952D01*
X999999Y-31118333D01*
X1095238Y-31070714D01*
X1190476Y-31070714D01*
X1476190Y-31689761D02*
X1571428Y-31737380D01*
X1761904Y-31737380D01*
X1857142Y-31689761D01*
X1904761Y-31594523D01*
X1904761Y-31546904D01*
X1857142Y-31451666D01*
X1761904Y-31404047D01*
X1619047Y-31404047D01*
X1523809Y-31356428D01*
X1476190Y-31261190D01*
X1476190Y-31213571D01*
X1523809Y-31118333D01*
X1619047Y-31070714D01*
X1761904Y-31070714D01*
X1857142Y-31118333D01*
X2952380Y-30737380D02*
X3285714Y-31737380D01*
X3619047Y-30737380D01*
X3904761Y-30832619D02*
X3952380Y-30785000D01*
X4047619Y-30737380D01*
X4285714Y-30737380D01*
X4380952Y-30785000D01*
X4428571Y-30832619D01*
X4476190Y-30927857D01*
X4476190Y-31023095D01*
X4428571Y-31165952D01*
X3857142Y-31737380D01*
X4476190Y-31737380D01*
X-11128333Y34627619D02*
X-11128333Y33913333D01*
X-11175952Y33770476D01*
X-11271190Y33675238D01*
X-11414047Y33627619D01*
X-11509285Y33627619D01*
X-10461666Y34627619D02*
X-10366428Y34627619D01*
X-10271190Y34580000D01*
X-10223571Y34532380D01*
X-10175952Y34437142D01*
X-10128333Y34246666D01*
X-10128333Y34008571D01*
X-10175952Y33818095D01*
X-10223571Y33722857D01*
X-10271190Y33675238D01*
X-10366428Y33627619D01*
X-10461666Y33627619D01*
X-10556904Y33675238D01*
X-10604523Y33722857D01*
X-10652142Y33818095D01*
X-10699761Y34008571D01*
X-10699761Y34246666D01*
X-10652142Y34437142D01*
X-10604523Y34532380D01*
X-10556904Y34580000D01*
X-10461666Y34627619D01*
D11*
X6290000Y-21650000D02*
X8950000Y-21650000D01*
X6290000Y-20320000D02*
X6290000Y-18990000D01*
X8950000Y-21590000D02*
X8950000Y-21650000D01*
X6290000Y-21590000D02*
X6290000Y-21650000D01*
X6290000Y-21590000D02*
X8950000Y-21590000D01*
X6290000Y-18990000D02*
X7620000Y-18990000D01*
X-1330000Y-21590000D02*
X1330000Y-21590000D01*
X-1330000Y-21590000D02*
X-1330000Y-21650000D01*
X-1330000Y-20320000D02*
X-1330000Y-18990000D01*
X1330000Y-21590000D02*
X1330000Y-21650000D01*
X-1330000Y-21650000D02*
X1330000Y-21650000D01*
X-1330000Y-18990000D02*
X0Y-18990000D01*
X-8315000Y-21590000D02*
X-5655000Y-21590000D01*
X-8315000Y-21590000D02*
X-8315000Y-21650000D01*
X-5655000Y-21590000D02*
X-5655000Y-21650000D01*
X-8315000Y-18990000D02*
X-6985000Y-18990000D01*
X-8315000Y-21650000D02*
X-5655000Y-21650000D01*
X-8315000Y-20320000D02*
X-8315000Y-18990000D01*
%LPC*%
D12*
X7620000Y-20320000D03*
X0Y-20320000D03*
X-6985000Y-20320000D03*
D13*
X-11430000Y32385000D03*
D14*
X-9525000Y31115000D03*
X-11430000Y29845000D03*
X-9525000Y28575000D03*
X-11430000Y27305000D03*
X-9525000Y26035000D03*
X-11430000Y24765000D03*
X-9525000Y23495000D03*
X-11430000Y22225000D03*
X-9525000Y20955000D03*
X-11430000Y19685000D03*
X-9525000Y18415000D03*
X-11430000Y17145000D03*
X-9525000Y15875000D03*
X-11430000Y14605000D03*
X-9525000Y13335000D03*
D15*
X7500000Y33020000D03*
D16*
X7500000Y28020000D03*
X7500000Y30520000D03*
D17*
X0Y36120000D03*
X0Y24920000D03*
D16*
X-7000000Y28020000D03*
X-7000000Y33020000D03*
D15*
X7500000Y12700000D03*
D16*
X7500000Y7700000D03*
X7500000Y10200000D03*
D17*
X0Y15800000D03*
X0Y4600000D03*
D16*
X-7000000Y7700000D03*
X-7000000Y12700000D03*
D15*
X7500000Y-7620000D03*
D16*
X7500000Y-12620000D03*
X7500000Y-10120000D03*
D17*
X0Y-4520000D03*
X0Y-15720000D03*
D16*
X-7000000Y-12620000D03*
X-7000000Y-7620000D03*
D15*
X7500000Y-27940000D03*
D16*
X7500000Y-32940000D03*
X7500000Y-30440000D03*
D17*
X0Y-24840000D03*
X0Y-36040000D03*
D16*
X-7000000Y-32940000D03*
X-7000000Y-27940000D03*
M02*
