M48
; DRILL file {KiCad 6.0.1-79c1e3a40b~116~ubuntu20.04.1} date Thu 03 Feb 2022 01:15:34 PM EST
; FORMAT={-:-/ absolute / metric / decimal}
; #@! TF.CreationDate,2022-02-03T13:15:34-05:00
; #@! TF.GenerationSoftware,Kicad,Pcbnew,6.0.1-79c1e3a40b~116~ubuntu20.04.1
; #@! TF.FileFunction,Plated,1,2,PTH
FMAT,2
METRIC
; #@! TA.AperFunction,Plated,PTH,ViaDrill
T1C0.400
; #@! TA.AperFunction,Plated,PTH,ComponentDrill
T2C0.800
; #@! TA.AperFunction,Plated,PTH,ComponentDrill
T3C1.000
; #@! TA.AperFunction,Plated,PTH,ComponentDrill
T4C2.200
%
G90
G05
T1
X-10.16Y-28.575
X-7.62Y22.86
X-6.35Y16.51
X-5.08Y22.86
X-5.08Y20.955
X-4.445Y33.02
X-4.445Y27.94
X-4.445Y24.765
X-4.445Y18.415
X-4.445Y-26.035
X-4.445Y-30.48
X5.08Y22.86
X5.08Y20.955
X9.525Y19.685
X9.525Y17.78
T2
X-11.43Y32.385
X-11.43Y29.845
X-11.43Y27.305
X-11.43Y24.765
X-11.43Y22.225
X-11.43Y19.685
X-11.43Y17.145
X-11.43Y14.605
X-9.525Y31.115
X-9.525Y28.575
X-9.525Y26.035
X-9.525Y23.495
X-9.525Y20.955
X-9.525Y18.415
X-9.525Y15.875
X-9.525Y13.335
T3
X-7.0Y33.02
X-7.0Y28.02
X-7.0Y12.7
X-7.0Y7.7
X-7.0Y-7.62
X-7.0Y-12.62
X-7.0Y-27.94
X-7.0Y-32.94
X-6.985Y-20.32
X0.0Y-20.32
X7.5Y33.02
X7.5Y30.52
X7.5Y28.02
X7.5Y12.7
X7.5Y10.2
X7.5Y7.7
X7.5Y-7.62
X7.5Y-10.12
X7.5Y-12.62
X7.5Y-27.94
X7.5Y-30.44
X7.5Y-32.94
X7.62Y-20.32
T4
X0.0Y36.12
X0.0Y24.92
X0.0Y15.8
X0.0Y4.6
X0.0Y-4.52
X0.0Y-15.72
X0.0Y-24.84
X0.0Y-36.04
T0
M30
