%FSLAX45Y45*%
G04 Gerber Fmt 4.5, Leading zero omitted, Abs format (unit mm)*
G04 Created by KiCad (PCBNEW 6.0.1-79c1e3a40b~116~ubuntu20.04.1) date 2022-02-03 13:15:36*
%MOMM*%
%LPD*%
G01*
G04 APERTURE LIST*
%TA.AperFunction,Profile*%
%ADD10C,0.050000*%
%TD*%
%ADD11C,0.200000*%
G04 APERTURE END LIST*
D10*
X-1333500Y-4064000D02*
X-1333500Y4064000D01*
X1333500Y-4064000D02*
X-1333500Y-4064000D01*
X1333500Y4064000D02*
X1333500Y-4064000D01*
X-1333500Y4064000D02*
X1333500Y4064000D01*
D11*
X-1078381Y-4376976D02*
X-1078381Y-4176976D01*
X-1030762Y-4176976D01*
X-1002190Y-4186500D01*
X-983143Y-4205548D01*
X-973619Y-4224595D01*
X-964095Y-4262690D01*
X-964095Y-4291262D01*
X-973619Y-4329357D01*
X-983143Y-4348405D01*
X-1002190Y-4367452D01*
X-1030762Y-4376976D01*
X-1078381Y-4376976D01*
X-878381Y-4376976D02*
X-878381Y-4243643D01*
X-878381Y-4281738D02*
X-868857Y-4262690D01*
X-859333Y-4253167D01*
X-840286Y-4243643D01*
X-821238Y-4243643D01*
X-754571Y-4376976D02*
X-754571Y-4243643D01*
X-754571Y-4176976D02*
X-764095Y-4186500D01*
X-754571Y-4196024D01*
X-745048Y-4186500D01*
X-754571Y-4176976D01*
X-754571Y-4196024D01*
X-630762Y-4376976D02*
X-649810Y-4367452D01*
X-659333Y-4348405D01*
X-659333Y-4176976D01*
X-526000Y-4376976D02*
X-545048Y-4367452D01*
X-554571Y-4348405D01*
X-554571Y-4176976D01*
X-297429Y-4376976D02*
X-297429Y-4176976D01*
X-230762Y-4319833D01*
X-164095Y-4176976D01*
X-164095Y-4376976D01*
X16857Y-4376976D02*
X16857Y-4272214D01*
X7333Y-4253167D01*
X-11714Y-4243643D01*
X-49809Y-4243643D01*
X-68857Y-4253167D01*
X16857Y-4367452D02*
X-2190Y-4376976D01*
X-49809Y-4376976D01*
X-68857Y-4367452D01*
X-78381Y-4348405D01*
X-78381Y-4329357D01*
X-68857Y-4310310D01*
X-49809Y-4300786D01*
X-2190Y-4300786D01*
X16857Y-4291262D01*
X112095Y-4243643D02*
X112095Y-4443643D01*
X112095Y-4253167D02*
X131143Y-4243643D01*
X169238Y-4243643D01*
X188286Y-4253167D01*
X197809Y-4262690D01*
X207333Y-4281738D01*
X207333Y-4338881D01*
X197809Y-4357929D01*
X188286Y-4367452D01*
X169238Y-4376976D01*
X131143Y-4376976D01*
X112095Y-4367452D01*
X293048Y-4357929D02*
X302571Y-4367452D01*
X293048Y-4376976D01*
X283524Y-4367452D01*
X293048Y-4357929D01*
X293048Y-4376976D01*
X293048Y-4253167D02*
X302571Y-4262690D01*
X293048Y-4272214D01*
X283524Y-4262690D01*
X293048Y-4253167D01*
X293048Y-4272214D01*
M02*
