G04 #@! TF.GenerationSoftware,KiCad,Pcbnew,6.0.1-79c1e3a40b~116~ubuntu20.04.1*
G04 #@! TF.CreationDate,2022-02-03T13:15:31-05:00*
G04 #@! TF.ProjectId,d-lev_encoders,642d6c65-765f-4656-9e63-6f646572732e,rev?*
G04 #@! TF.SameCoordinates,Original*
G04 #@! TF.FileFunction,Copper,L2,Bot*
G04 #@! TF.FilePolarity,Positive*
%FSLAX46Y46*%
G04 Gerber Fmt 4.6, Leading zero omitted, Abs format (unit mm)*
G04 Created by KiCad (PCBNEW 6.0.1-79c1e3a40b~116~ubuntu20.04.1) date 2022-02-03 13:15:31*
%MOMM*%
%LPD*%
G01*
G04 APERTURE LIST*
G04 #@! TA.AperFunction,ComponentPad*
%ADD10R,1.700000X1.700000*%
G04 #@! TD*
G04 #@! TA.AperFunction,ComponentPad*
%ADD11R,1.200000X1.200000*%
G04 #@! TD*
G04 #@! TA.AperFunction,ComponentPad*
%ADD12O,1.200000X1.200000*%
G04 #@! TD*
G04 #@! TA.AperFunction,ComponentPad*
%ADD13R,2.000000X2.000000*%
G04 #@! TD*
G04 #@! TA.AperFunction,ComponentPad*
%ADD14C,2.000000*%
G04 #@! TD*
G04 #@! TA.AperFunction,ComponentPad*
%ADD15C,3.500000*%
G04 #@! TD*
G04 #@! TA.AperFunction,ViaPad*
%ADD16C,0.800000*%
G04 #@! TD*
G04 #@! TA.AperFunction,Conductor*
%ADD17C,0.250000*%
G04 #@! TD*
G04 APERTURE END LIST*
D10*
X7620000Y-20320000D03*
X0Y-20320000D03*
X-6985000Y-20320000D03*
D11*
X-11430000Y32385000D03*
D12*
X-9525000Y31115000D03*
X-11430000Y29845000D03*
X-9525000Y28575000D03*
X-11430000Y27305000D03*
X-9525000Y26035000D03*
X-11430000Y24765000D03*
X-9525000Y23495000D03*
X-11430000Y22225000D03*
X-9525000Y20955000D03*
X-11430000Y19685000D03*
X-9525000Y18415000D03*
X-11430000Y17145000D03*
X-9525000Y15875000D03*
X-11430000Y14605000D03*
X-9525000Y13335000D03*
D13*
X7500000Y33020000D03*
D14*
X7500000Y28020000D03*
X7500000Y30520000D03*
D15*
X0Y36120000D03*
X0Y24920000D03*
D14*
X-7000000Y28020000D03*
X-7000000Y33020000D03*
D13*
X7500000Y12700000D03*
D14*
X7500000Y7700000D03*
X7500000Y10200000D03*
D15*
X0Y15800000D03*
X0Y4600000D03*
D14*
X-7000000Y7700000D03*
X-7000000Y12700000D03*
D13*
X7500000Y-7620000D03*
D14*
X7500000Y-12620000D03*
X7500000Y-10120000D03*
D15*
X0Y-4520000D03*
X0Y-15720000D03*
D14*
X-7000000Y-12620000D03*
X-7000000Y-7620000D03*
D13*
X7500000Y-27940000D03*
D14*
X7500000Y-32940000D03*
X7500000Y-30440000D03*
D15*
X0Y-24840000D03*
X0Y-36040000D03*
D14*
X-7000000Y-32940000D03*
X-7000000Y-27940000D03*
D16*
X-4445000Y27940000D03*
X-4445000Y33020000D03*
X-4445000Y24765000D03*
X5080000Y22860000D03*
X-5080000Y22860000D03*
X5080000Y20955000D03*
X-6350000Y16510000D03*
X-7620000Y22860000D03*
X-5080000Y20955000D03*
X9525000Y19685000D03*
X-4445000Y18415000D03*
X9525000Y17780000D03*
X-4445000Y-26035000D03*
X-4445000Y-30480000D03*
X-10160000Y-28575000D03*
D17*
X-9525000Y28575000D02*
X-7555000Y28575000D01*
X-7555000Y28575000D02*
X-7000000Y28020000D01*
X-6350000Y29845000D02*
X-11430000Y29845000D01*
X-4445000Y27940000D02*
X-6350000Y29845000D01*
X-6350000Y31115000D02*
X-9525000Y31115000D01*
X-4445000Y33020000D02*
X-6350000Y31115000D01*
X-5715000Y26035000D02*
X-9525000Y26035000D01*
X-4445000Y24765000D02*
X-5715000Y26035000D01*
X5080000Y22860000D02*
X7500000Y20440000D01*
X7500000Y20440000D02*
X7500000Y12700000D01*
X5080000Y8890000D02*
X6270000Y7700000D01*
X6270000Y7700000D02*
X7500000Y7700000D01*
X-5080000Y22860000D02*
X-6985000Y24765000D01*
X5080000Y20955000D02*
X5080000Y8890000D01*
X-6985000Y24765000D02*
X-11430000Y24765000D01*
X-8255000Y23495000D02*
X-9525000Y23495000D01*
X-6350000Y16510000D02*
X-5675489Y15835489D01*
X-5675489Y15835489D02*
X-5675489Y9024511D01*
X-5675489Y9024511D02*
X-7000000Y7700000D01*
X-7620000Y22860000D02*
X-8255000Y23495000D01*
X9525000Y19685000D02*
X11430000Y17780000D01*
X11430000Y-3690000D02*
X7500000Y-7620000D01*
X11430000Y17780000D02*
X11430000Y-3690000D01*
X-5080000Y20955000D02*
X-9525000Y20955000D01*
X9525000Y17780000D02*
X10160000Y17145000D01*
X10160000Y17145000D02*
X10160000Y0D01*
X5080000Y-5080000D02*
X5080000Y-12065000D01*
X10160000Y0D02*
X5080000Y-5080000D01*
X5635000Y-12620000D02*
X7500000Y-12620000D01*
X-4445000Y18415000D02*
X-5715000Y19685000D01*
X5080000Y-12065000D02*
X5635000Y-12620000D01*
X-5715000Y19685000D02*
X-11430000Y19685000D01*
X-4445000Y16510000D02*
X-6350000Y18415000D01*
X-6350000Y18415000D02*
X-9525000Y18415000D01*
X-4445000Y-10065000D02*
X-4445000Y16510000D01*
X-7000000Y-12620000D02*
X-4445000Y-10065000D01*
X-8890000Y-21590000D02*
X-8890000Y12046271D01*
X-8600489Y12335782D02*
X-8600489Y14950489D01*
X-8890000Y12046271D02*
X-8600489Y12335782D01*
X-8600489Y14950489D02*
X-9525000Y15875000D01*
X-4445000Y-26035000D02*
X-8890000Y-21590000D01*
X-11430000Y14605000D02*
X-11430000Y-29845000D01*
X-10795000Y-30480000D02*
X-4445000Y-30480000D01*
X-11430000Y-29845000D02*
X-10795000Y-30480000D01*
X-10160000Y12700000D02*
X-10160000Y-28575000D01*
X-9525000Y13335000D02*
X-10160000Y12700000D01*
G04 #@! TA.AperFunction,Conductor*
G36*
X2482121Y38714998D02*
G01*
X2528614Y38661342D01*
X2540000Y38609000D01*
X2540000Y-38609000D01*
X2519998Y-38677121D01*
X2466342Y-38723614D01*
X2414000Y-38735000D01*
X-2414000Y-38735000D01*
X-2482121Y-38714998D01*
X-2528614Y-38661342D01*
X-2540000Y-38609000D01*
X-2540000Y-37626047D01*
X-1220880Y-37626047D01*
X-1213490Y-37636349D01*
X-1158711Y-37680946D01*
X-1151432Y-37686061D01*
X-915940Y-37827839D01*
X-908016Y-37831876D01*
X-654892Y-37939061D01*
X-646487Y-37941939D01*
X-380773Y-38012391D01*
X-372052Y-38014055D01*
X-99058Y-38046366D01*
X-90193Y-38046784D01*
X184616Y-38040307D01*
X193476Y-38039470D01*
X464618Y-37994340D01*
X473275Y-37992261D01*
X735360Y-37909375D01*
X743621Y-37906104D01*
X991416Y-37787114D01*
X999140Y-37782708D01*
X1214483Y-37638821D01*
X1222771Y-37628903D01*
X1215514Y-37614724D01*
X12812Y-36412022D01*
X-1132Y-36404408D01*
X-2965Y-36404539D01*
X-9580Y-36408790D01*
X-1213714Y-37612924D01*
X-1220880Y-37626047D01*
X-2540000Y-37626047D01*
X-2540000Y-35981344D01*
X-2007953Y-35981344D01*
X-1997161Y-36256020D01*
X-1996186Y-36264849D01*
X-1946799Y-36535268D01*
X-1944590Y-36543871D01*
X-1857595Y-36804628D01*
X-1854191Y-36812845D01*
X-1731322Y-37058745D01*
X-1726804Y-37066384D01*
X-1597657Y-37253245D01*
X-1587337Y-37261597D01*
X-1573683Y-37254473D01*
X-372022Y-36052812D01*
X-365644Y-36041132D01*
X364408Y-36041132D01*
X364539Y-36042965D01*
X368790Y-36049580D01*
X1573657Y-37254447D01*
X1587057Y-37261764D01*
X1596961Y-37254777D01*
X1622549Y-37224336D01*
X1627767Y-37217153D01*
X1773236Y-36983901D01*
X1777388Y-36976061D01*
X1888543Y-36724632D01*
X1891549Y-36716282D01*
X1966166Y-36451709D01*
X1967967Y-36443016D01*
X2004727Y-36169336D01*
X2005255Y-36162943D01*
X2009018Y-36043222D01*
X2008891Y-36036779D01*
X1989390Y-35761365D01*
X1988137Y-35752555D01*
X1930282Y-35483830D01*
X1927800Y-35475289D01*
X1832661Y-35217401D01*
X1829003Y-35209299D01*
X1698471Y-34967382D01*
X1693709Y-34959877D01*
X1596406Y-34828139D01*
X1585281Y-34819699D01*
X1572685Y-34826525D01*
X372022Y-36027188D01*
X364408Y-36041132D01*
X-365644Y-36041132D01*
X-364408Y-36038868D01*
X-364539Y-36037035D01*
X-368790Y-36030420D01*
X-1572540Y-34826670D01*
X-1585381Y-34819658D01*
X-1596070Y-34827453D01*
X-1658948Y-34907213D01*
X-1663937Y-34914555D01*
X-1802013Y-35152269D01*
X-1805912Y-35160227D01*
X-1909112Y-35415015D01*
X-1911861Y-35423477D01*
X-1978127Y-35690247D01*
X-1979656Y-35699008D01*
X-2007674Y-35972461D01*
X-2007953Y-35981344D01*
X-2540000Y-35981344D01*
X-2540000Y-34453868D01*
X-1220775Y-34453868D01*
X-1213795Y-34466995D01*
X-12812Y-35667978D01*
X1132Y-35675592D01*
X2965Y-35675461D01*
X9580Y-35671210D01*
X1213299Y-34467491D01*
X1220153Y-34454939D01*
X1211946Y-34443869D01*
X1106593Y-34363466D01*
X1099163Y-34358586D01*
X859332Y-34224274D01*
X851282Y-34220486D01*
X594917Y-34121305D01*
X586427Y-34118693D01*
X318634Y-34056623D01*
X309856Y-34055233D01*
X35990Y-34031513D01*
X27119Y-34031373D01*
X-247366Y-34046479D01*
X-256176Y-34047593D01*
X-525777Y-34101219D01*
X-534363Y-34103568D01*
X-793708Y-34194644D01*
X-801876Y-34198179D01*
X-1045812Y-34324892D01*
X-1053380Y-34329529D01*
X-1212373Y-34443147D01*
X-1220775Y-34453868D01*
X-2540000Y-34453868D01*
X-2540000Y-26426047D01*
X-1220880Y-26426047D01*
X-1213490Y-26436349D01*
X-1158711Y-26480946D01*
X-1151432Y-26486061D01*
X-915940Y-26627839D01*
X-908016Y-26631876D01*
X-654892Y-26739061D01*
X-646487Y-26741939D01*
X-380773Y-26812391D01*
X-372052Y-26814055D01*
X-99058Y-26846366D01*
X-90193Y-26846784D01*
X184616Y-26840307D01*
X193476Y-26839470D01*
X464618Y-26794340D01*
X473275Y-26792261D01*
X735360Y-26709375D01*
X743621Y-26706104D01*
X991416Y-26587114D01*
X999140Y-26582708D01*
X1214483Y-26438821D01*
X1222771Y-26428903D01*
X1215514Y-26414724D01*
X12812Y-25212022D01*
X-1132Y-25204408D01*
X-2965Y-25204539D01*
X-9580Y-25208790D01*
X-1213714Y-26412924D01*
X-1220880Y-26426047D01*
X-2540000Y-26426047D01*
X-2540000Y-24781344D01*
X-2007953Y-24781344D01*
X-1997161Y-25056020D01*
X-1996186Y-25064849D01*
X-1946799Y-25335268D01*
X-1944590Y-25343871D01*
X-1857595Y-25604628D01*
X-1854191Y-25612845D01*
X-1731322Y-25858745D01*
X-1726804Y-25866384D01*
X-1597657Y-26053245D01*
X-1587337Y-26061597D01*
X-1573683Y-26054473D01*
X-372022Y-24852812D01*
X-365644Y-24841132D01*
X364408Y-24841132D01*
X364539Y-24842965D01*
X368790Y-24849580D01*
X1573657Y-26054447D01*
X1587057Y-26061764D01*
X1596961Y-26054777D01*
X1622549Y-26024336D01*
X1627767Y-26017153D01*
X1773236Y-25783901D01*
X1777388Y-25776061D01*
X1888543Y-25524632D01*
X1891549Y-25516282D01*
X1966166Y-25251709D01*
X1967967Y-25243016D01*
X2004727Y-24969336D01*
X2005255Y-24962943D01*
X2009018Y-24843222D01*
X2008891Y-24836779D01*
X1989390Y-24561365D01*
X1988137Y-24552555D01*
X1930282Y-24283830D01*
X1927800Y-24275289D01*
X1832661Y-24017401D01*
X1829003Y-24009299D01*
X1698471Y-23767382D01*
X1693709Y-23759877D01*
X1596406Y-23628139D01*
X1585281Y-23619699D01*
X1572685Y-23626525D01*
X372022Y-24827188D01*
X364408Y-24841132D01*
X-365644Y-24841132D01*
X-364408Y-24838868D01*
X-364539Y-24837035D01*
X-368790Y-24830420D01*
X-1572540Y-23626670D01*
X-1585381Y-23619658D01*
X-1596070Y-23627453D01*
X-1658948Y-23707213D01*
X-1663937Y-23714555D01*
X-1802013Y-23952269D01*
X-1805912Y-23960227D01*
X-1909112Y-24215015D01*
X-1911861Y-24223477D01*
X-1978127Y-24490247D01*
X-1979656Y-24499008D01*
X-2007674Y-24772461D01*
X-2007953Y-24781344D01*
X-2540000Y-24781344D01*
X-2540000Y-23253868D01*
X-1220775Y-23253868D01*
X-1213795Y-23266995D01*
X-12812Y-24467978D01*
X1132Y-24475592D01*
X2965Y-24475461D01*
X9580Y-24471210D01*
X1213299Y-23267491D01*
X1220153Y-23254939D01*
X1211946Y-23243869D01*
X1106593Y-23163466D01*
X1099163Y-23158586D01*
X859332Y-23024274D01*
X851282Y-23020486D01*
X594917Y-22921305D01*
X586427Y-22918693D01*
X318634Y-22856623D01*
X309856Y-22855233D01*
X35990Y-22831513D01*
X27119Y-22831373D01*
X-247366Y-22846479D01*
X-256176Y-22847593D01*
X-525777Y-22901219D01*
X-534363Y-22903568D01*
X-793708Y-22994644D01*
X-801876Y-22998179D01*
X-1045812Y-23124892D01*
X-1053380Y-23129529D01*
X-1212373Y-23243147D01*
X-1220775Y-23253868D01*
X-2540000Y-23253868D01*
X-2540000Y-21188828D01*
X-1103999Y-21188828D01*
X-1102791Y-21201088D01*
X-1091685Y-21256931D01*
X-1082367Y-21279427D01*
X-1040017Y-21342808D01*
X-1022808Y-21360017D01*
X-959425Y-21402368D01*
X-936934Y-21411684D01*
X-881085Y-21422793D01*
X-868830Y-21424000D01*
X-272115Y-21424000D01*
X-256876Y-21419525D01*
X-255671Y-21418135D01*
X-254000Y-21410452D01*
X-254000Y-21405884D01*
X254000Y-21405884D01*
X258475Y-21421123D01*
X259865Y-21422328D01*
X267548Y-21423999D01*
X868828Y-21423999D01*
X881088Y-21422791D01*
X936931Y-21411685D01*
X959427Y-21402367D01*
X1022808Y-21360017D01*
X1040017Y-21342808D01*
X1082368Y-21279425D01*
X1091684Y-21256934D01*
X1102793Y-21201085D01*
X1104000Y-21188830D01*
X1104000Y-20592115D01*
X1099525Y-20576876D01*
X1098135Y-20575671D01*
X1090452Y-20574000D01*
X272115Y-20574000D01*
X256876Y-20578475D01*
X255671Y-20579865D01*
X254000Y-20587548D01*
X254000Y-21405884D01*
X-254000Y-21405884D01*
X-254000Y-20592115D01*
X-258475Y-20576876D01*
X-259865Y-20575671D01*
X-267548Y-20574000D01*
X-1085884Y-20574000D01*
X-1101123Y-20578475D01*
X-1102328Y-20579865D01*
X-1103999Y-20587548D01*
X-1103999Y-21188828D01*
X-2540000Y-21188828D01*
X-2540000Y-20047885D01*
X-1104000Y-20047885D01*
X-1099525Y-20063124D01*
X-1098135Y-20064329D01*
X-1090452Y-20066000D01*
X-272115Y-20066000D01*
X-256876Y-20061525D01*
X-255671Y-20060135D01*
X-254000Y-20052452D01*
X-254000Y-20047885D01*
X254000Y-20047885D01*
X258475Y-20063124D01*
X259865Y-20064329D01*
X267548Y-20066000D01*
X1085884Y-20066000D01*
X1101123Y-20061525D01*
X1102328Y-20060135D01*
X1103999Y-20052452D01*
X1103999Y-19451172D01*
X1102791Y-19438912D01*
X1091685Y-19383069D01*
X1082367Y-19360573D01*
X1040017Y-19297192D01*
X1022808Y-19279983D01*
X959425Y-19237632D01*
X936934Y-19228316D01*
X881085Y-19217207D01*
X868830Y-19216000D01*
X272115Y-19216000D01*
X256876Y-19220475D01*
X255671Y-19221865D01*
X254000Y-19229548D01*
X254000Y-20047885D01*
X-254000Y-20047885D01*
X-254000Y-19234116D01*
X-258475Y-19218877D01*
X-259865Y-19217672D01*
X-267548Y-19216001D01*
X-868828Y-19216001D01*
X-881088Y-19217209D01*
X-936931Y-19228315D01*
X-959427Y-19237633D01*
X-1022808Y-19279983D01*
X-1040017Y-19297192D01*
X-1082368Y-19360575D01*
X-1091684Y-19383066D01*
X-1102793Y-19438915D01*
X-1104000Y-19451170D01*
X-1104000Y-20047885D01*
X-2540000Y-20047885D01*
X-2540000Y-17306047D01*
X-1220880Y-17306047D01*
X-1213490Y-17316349D01*
X-1158711Y-17360946D01*
X-1151432Y-17366061D01*
X-915940Y-17507839D01*
X-908016Y-17511876D01*
X-654892Y-17619061D01*
X-646487Y-17621939D01*
X-380773Y-17692391D01*
X-372052Y-17694055D01*
X-99058Y-17726366D01*
X-90193Y-17726784D01*
X184616Y-17720307D01*
X193476Y-17719470D01*
X464618Y-17674340D01*
X473275Y-17672261D01*
X735360Y-17589375D01*
X743621Y-17586104D01*
X991416Y-17467114D01*
X999140Y-17462708D01*
X1214483Y-17318821D01*
X1222771Y-17308903D01*
X1215514Y-17294724D01*
X12812Y-16092022D01*
X-1132Y-16084408D01*
X-2965Y-16084539D01*
X-9580Y-16088790D01*
X-1213714Y-17292924D01*
X-1220880Y-17306047D01*
X-2540000Y-17306047D01*
X-2540000Y-15661344D01*
X-2007953Y-15661344D01*
X-1997161Y-15936020D01*
X-1996186Y-15944849D01*
X-1946799Y-16215268D01*
X-1944590Y-16223871D01*
X-1857595Y-16484628D01*
X-1854191Y-16492845D01*
X-1731322Y-16738745D01*
X-1726804Y-16746384D01*
X-1597657Y-16933245D01*
X-1587337Y-16941597D01*
X-1573683Y-16934473D01*
X-372022Y-15732812D01*
X-365644Y-15721132D01*
X364408Y-15721132D01*
X364539Y-15722965D01*
X368790Y-15729580D01*
X1573657Y-16934447D01*
X1587057Y-16941764D01*
X1596961Y-16934777D01*
X1622549Y-16904336D01*
X1627767Y-16897153D01*
X1773236Y-16663901D01*
X1777388Y-16656061D01*
X1888543Y-16404632D01*
X1891549Y-16396282D01*
X1966166Y-16131709D01*
X1967967Y-16123016D01*
X2004727Y-15849336D01*
X2005255Y-15842943D01*
X2009018Y-15723222D01*
X2008891Y-15716779D01*
X1989390Y-15441365D01*
X1988137Y-15432555D01*
X1930282Y-15163830D01*
X1927800Y-15155289D01*
X1832661Y-14897401D01*
X1829003Y-14889299D01*
X1698471Y-14647382D01*
X1693709Y-14639877D01*
X1596406Y-14508139D01*
X1585281Y-14499699D01*
X1572685Y-14506525D01*
X372022Y-15707188D01*
X364408Y-15721132D01*
X-365644Y-15721132D01*
X-364408Y-15718868D01*
X-364539Y-15717035D01*
X-368790Y-15710420D01*
X-1572540Y-14506670D01*
X-1585381Y-14499658D01*
X-1596070Y-14507453D01*
X-1658948Y-14587213D01*
X-1663937Y-14594555D01*
X-1802013Y-14832269D01*
X-1805912Y-14840227D01*
X-1909112Y-15095015D01*
X-1911861Y-15103477D01*
X-1978127Y-15370247D01*
X-1979656Y-15379008D01*
X-2007674Y-15652461D01*
X-2007953Y-15661344D01*
X-2540000Y-15661344D01*
X-2540000Y-14133868D01*
X-1220775Y-14133868D01*
X-1213795Y-14146995D01*
X-12812Y-15347978D01*
X1132Y-15355592D01*
X2965Y-15355461D01*
X9580Y-15351210D01*
X1213299Y-14147491D01*
X1220153Y-14134939D01*
X1211946Y-14123869D01*
X1106593Y-14043466D01*
X1099163Y-14038586D01*
X859332Y-13904274D01*
X851282Y-13900486D01*
X594917Y-13801305D01*
X586427Y-13798693D01*
X318634Y-13736623D01*
X309856Y-13735233D01*
X35990Y-13711513D01*
X27119Y-13711373D01*
X-247366Y-13726479D01*
X-256176Y-13727593D01*
X-525777Y-13781219D01*
X-534363Y-13783568D01*
X-793708Y-13874644D01*
X-801876Y-13878179D01*
X-1045812Y-14004892D01*
X-1053380Y-14009529D01*
X-1212373Y-14123147D01*
X-1220775Y-14133868D01*
X-2540000Y-14133868D01*
X-2540000Y-6106047D01*
X-1220880Y-6106047D01*
X-1213490Y-6116349D01*
X-1158711Y-6160946D01*
X-1151432Y-6166061D01*
X-915940Y-6307839D01*
X-908016Y-6311876D01*
X-654892Y-6419061D01*
X-646487Y-6421939D01*
X-380773Y-6492391D01*
X-372052Y-6494055D01*
X-99058Y-6526366D01*
X-90193Y-6526784D01*
X184616Y-6520307D01*
X193476Y-6519470D01*
X464618Y-6474340D01*
X473275Y-6472261D01*
X735360Y-6389375D01*
X743621Y-6386104D01*
X991416Y-6267114D01*
X999140Y-6262708D01*
X1214483Y-6118821D01*
X1222771Y-6108903D01*
X1215514Y-6094724D01*
X12812Y-4892022D01*
X-1132Y-4884408D01*
X-2965Y-4884539D01*
X-9580Y-4888790D01*
X-1213714Y-6092924D01*
X-1220880Y-6106047D01*
X-2540000Y-6106047D01*
X-2540000Y-4461344D01*
X-2007953Y-4461344D01*
X-1997161Y-4736020D01*
X-1996186Y-4744849D01*
X-1946799Y-5015268D01*
X-1944590Y-5023871D01*
X-1857595Y-5284628D01*
X-1854191Y-5292845D01*
X-1731322Y-5538745D01*
X-1726804Y-5546384D01*
X-1597657Y-5733245D01*
X-1587337Y-5741597D01*
X-1573683Y-5734473D01*
X-372022Y-4532812D01*
X-365644Y-4521132D01*
X364408Y-4521132D01*
X364539Y-4522965D01*
X368790Y-4529580D01*
X1573657Y-5734447D01*
X1587057Y-5741764D01*
X1596961Y-5734777D01*
X1622549Y-5704336D01*
X1627767Y-5697153D01*
X1773236Y-5463901D01*
X1777388Y-5456061D01*
X1888543Y-5204632D01*
X1891549Y-5196282D01*
X1966166Y-4931709D01*
X1967967Y-4923016D01*
X2004727Y-4649336D01*
X2005255Y-4642943D01*
X2009018Y-4523222D01*
X2008891Y-4516779D01*
X1989390Y-4241365D01*
X1988137Y-4232555D01*
X1930282Y-3963830D01*
X1927800Y-3955289D01*
X1832661Y-3697401D01*
X1829003Y-3689299D01*
X1698471Y-3447382D01*
X1693709Y-3439877D01*
X1596406Y-3308139D01*
X1585281Y-3299699D01*
X1572685Y-3306525D01*
X372022Y-4507188D01*
X364408Y-4521132D01*
X-365644Y-4521132D01*
X-364408Y-4518868D01*
X-364539Y-4517035D01*
X-368790Y-4510420D01*
X-1572540Y-3306670D01*
X-1585381Y-3299658D01*
X-1596070Y-3307453D01*
X-1658948Y-3387213D01*
X-1663937Y-3394555D01*
X-1802013Y-3632269D01*
X-1805912Y-3640227D01*
X-1909112Y-3895015D01*
X-1911861Y-3903477D01*
X-1978127Y-4170247D01*
X-1979656Y-4179008D01*
X-2007674Y-4452461D01*
X-2007953Y-4461344D01*
X-2540000Y-4461344D01*
X-2540000Y-2933868D01*
X-1220775Y-2933868D01*
X-1213795Y-2946995D01*
X-12812Y-4147978D01*
X1132Y-4155592D01*
X2965Y-4155461D01*
X9580Y-4151210D01*
X1213299Y-2947491D01*
X1220153Y-2934939D01*
X1211946Y-2923869D01*
X1106593Y-2843466D01*
X1099163Y-2838586D01*
X859332Y-2704274D01*
X851282Y-2700486D01*
X594917Y-2601305D01*
X586427Y-2598693D01*
X318634Y-2536623D01*
X309856Y-2535233D01*
X35990Y-2511513D01*
X27119Y-2511373D01*
X-247366Y-2526479D01*
X-256176Y-2527593D01*
X-525777Y-2581219D01*
X-534363Y-2583568D01*
X-793708Y-2674644D01*
X-801876Y-2678179D01*
X-1045812Y-2804892D01*
X-1053380Y-2809529D01*
X-1212373Y-2923147D01*
X-1220775Y-2933868D01*
X-2540000Y-2933868D01*
X-2540000Y3013953D01*
X-1220880Y3013953D01*
X-1213490Y3003651D01*
X-1158711Y2959054D01*
X-1151432Y2953939D01*
X-915940Y2812161D01*
X-908016Y2808124D01*
X-654892Y2700939D01*
X-646487Y2698061D01*
X-380773Y2627609D01*
X-372052Y2625945D01*
X-99058Y2593634D01*
X-90193Y2593216D01*
X184616Y2599693D01*
X193476Y2600530D01*
X464618Y2645660D01*
X473275Y2647739D01*
X735360Y2730625D01*
X743621Y2733896D01*
X991416Y2852886D01*
X999140Y2857292D01*
X1214483Y3001179D01*
X1222771Y3011097D01*
X1215514Y3025276D01*
X12812Y4227978D01*
X-1132Y4235592D01*
X-2965Y4235461D01*
X-9580Y4231210D01*
X-1213714Y3027076D01*
X-1220880Y3013953D01*
X-2540000Y3013953D01*
X-2540000Y4658656D01*
X-2007953Y4658656D01*
X-1997161Y4383980D01*
X-1996186Y4375151D01*
X-1946799Y4104732D01*
X-1944590Y4096129D01*
X-1857595Y3835372D01*
X-1854191Y3827155D01*
X-1731322Y3581255D01*
X-1726804Y3573616D01*
X-1597657Y3386755D01*
X-1587337Y3378403D01*
X-1573683Y3385527D01*
X-372022Y4587188D01*
X-365644Y4598868D01*
X364408Y4598868D01*
X364539Y4597035D01*
X368790Y4590420D01*
X1573657Y3385553D01*
X1587057Y3378236D01*
X1596961Y3385223D01*
X1622549Y3415664D01*
X1627767Y3422847D01*
X1773236Y3656099D01*
X1777388Y3663939D01*
X1888543Y3915368D01*
X1891549Y3923718D01*
X1966166Y4188291D01*
X1967967Y4196984D01*
X2004727Y4470664D01*
X2005255Y4477057D01*
X2009018Y4596778D01*
X2008891Y4603221D01*
X1989390Y4878635D01*
X1988137Y4887445D01*
X1930282Y5156170D01*
X1927800Y5164711D01*
X1832661Y5422599D01*
X1829003Y5430701D01*
X1698471Y5672618D01*
X1693709Y5680123D01*
X1596406Y5811861D01*
X1585281Y5820301D01*
X1572685Y5813475D01*
X372022Y4612812D01*
X364408Y4598868D01*
X-365644Y4598868D01*
X-364408Y4601132D01*
X-364539Y4602965D01*
X-368790Y4609580D01*
X-1572540Y5813330D01*
X-1585381Y5820342D01*
X-1596070Y5812547D01*
X-1658948Y5732787D01*
X-1663937Y5725445D01*
X-1802013Y5487731D01*
X-1805912Y5479773D01*
X-1909112Y5224985D01*
X-1911861Y5216523D01*
X-1978127Y4949753D01*
X-1979656Y4940992D01*
X-2007674Y4667539D01*
X-2007953Y4658656D01*
X-2540000Y4658656D01*
X-2540000Y6186132D01*
X-1220775Y6186132D01*
X-1213795Y6173005D01*
X-12812Y4972022D01*
X1132Y4964408D01*
X2965Y4964539D01*
X9580Y4968790D01*
X1213299Y6172509D01*
X1220153Y6185061D01*
X1211946Y6196131D01*
X1106593Y6276534D01*
X1099163Y6281414D01*
X859332Y6415726D01*
X851282Y6419514D01*
X594917Y6518695D01*
X586427Y6521307D01*
X318634Y6583377D01*
X309856Y6584767D01*
X35990Y6608487D01*
X27119Y6608627D01*
X-247366Y6593521D01*
X-256176Y6592407D01*
X-525777Y6538781D01*
X-534363Y6536432D01*
X-793708Y6445356D01*
X-801876Y6441821D01*
X-1045812Y6315108D01*
X-1053380Y6310471D01*
X-1212373Y6196853D01*
X-1220775Y6186132D01*
X-2540000Y6186132D01*
X-2540000Y14213953D01*
X-1220880Y14213953D01*
X-1213490Y14203651D01*
X-1158711Y14159054D01*
X-1151432Y14153939D01*
X-915940Y14012161D01*
X-908016Y14008124D01*
X-654892Y13900939D01*
X-646487Y13898061D01*
X-380773Y13827609D01*
X-372052Y13825945D01*
X-99058Y13793634D01*
X-90193Y13793216D01*
X184616Y13799693D01*
X193476Y13800530D01*
X464618Y13845660D01*
X473275Y13847739D01*
X735360Y13930625D01*
X743621Y13933896D01*
X991416Y14052886D01*
X999140Y14057292D01*
X1214483Y14201179D01*
X1222771Y14211097D01*
X1215514Y14225276D01*
X12812Y15427978D01*
X-1132Y15435592D01*
X-2965Y15435461D01*
X-9580Y15431210D01*
X-1213714Y14227076D01*
X-1220880Y14213953D01*
X-2540000Y14213953D01*
X-2540000Y15858656D01*
X-2007953Y15858656D01*
X-1997161Y15583980D01*
X-1996186Y15575151D01*
X-1946799Y15304732D01*
X-1944590Y15296129D01*
X-1857595Y15035372D01*
X-1854191Y15027155D01*
X-1731322Y14781255D01*
X-1726804Y14773616D01*
X-1597657Y14586755D01*
X-1587337Y14578403D01*
X-1573683Y14585527D01*
X-372022Y15787188D01*
X-365644Y15798868D01*
X364408Y15798868D01*
X364539Y15797035D01*
X368790Y15790420D01*
X1573657Y14585553D01*
X1587057Y14578236D01*
X1596961Y14585223D01*
X1622549Y14615664D01*
X1627767Y14622847D01*
X1773236Y14856099D01*
X1777388Y14863939D01*
X1888543Y15115368D01*
X1891549Y15123718D01*
X1966166Y15388291D01*
X1967967Y15396984D01*
X2004727Y15670664D01*
X2005255Y15677057D01*
X2009018Y15796778D01*
X2008891Y15803221D01*
X1989390Y16078635D01*
X1988137Y16087445D01*
X1930282Y16356170D01*
X1927800Y16364711D01*
X1832661Y16622599D01*
X1829003Y16630701D01*
X1698471Y16872618D01*
X1693709Y16880123D01*
X1596406Y17011861D01*
X1585281Y17020301D01*
X1572685Y17013475D01*
X372022Y15812812D01*
X364408Y15798868D01*
X-365644Y15798868D01*
X-364408Y15801132D01*
X-364539Y15802965D01*
X-368790Y15809580D01*
X-1572540Y17013330D01*
X-1585381Y17020342D01*
X-1596070Y17012547D01*
X-1658948Y16932787D01*
X-1663937Y16925445D01*
X-1802013Y16687731D01*
X-1805912Y16679773D01*
X-1909112Y16424985D01*
X-1911861Y16416523D01*
X-1978127Y16149753D01*
X-1979656Y16140992D01*
X-2007674Y15867539D01*
X-2007953Y15858656D01*
X-2540000Y15858656D01*
X-2540000Y17386132D01*
X-1220775Y17386132D01*
X-1213795Y17373005D01*
X-12812Y16172022D01*
X1132Y16164408D01*
X2965Y16164539D01*
X9580Y16168790D01*
X1213299Y17372509D01*
X1220153Y17385061D01*
X1211946Y17396131D01*
X1106593Y17476534D01*
X1099163Y17481414D01*
X859332Y17615726D01*
X851282Y17619514D01*
X594917Y17718695D01*
X586427Y17721307D01*
X318634Y17783377D01*
X309856Y17784767D01*
X35990Y17808487D01*
X27119Y17808627D01*
X-247366Y17793521D01*
X-256176Y17792407D01*
X-525777Y17738781D01*
X-534363Y17736432D01*
X-793708Y17645356D01*
X-801876Y17641821D01*
X-1045812Y17515108D01*
X-1053380Y17510471D01*
X-1212373Y17396853D01*
X-1220775Y17386132D01*
X-2540000Y17386132D01*
X-2540000Y23333953D01*
X-1220880Y23333953D01*
X-1213490Y23323651D01*
X-1158711Y23279054D01*
X-1151432Y23273939D01*
X-915940Y23132161D01*
X-908016Y23128124D01*
X-654892Y23020939D01*
X-646487Y23018061D01*
X-380773Y22947609D01*
X-372052Y22945945D01*
X-99058Y22913634D01*
X-90193Y22913216D01*
X184616Y22919693D01*
X193476Y22920530D01*
X464618Y22965660D01*
X473275Y22967739D01*
X735360Y23050625D01*
X743621Y23053896D01*
X991416Y23172886D01*
X999140Y23177292D01*
X1214483Y23321179D01*
X1222771Y23331097D01*
X1215514Y23345276D01*
X12812Y24547978D01*
X-1132Y24555592D01*
X-2965Y24555461D01*
X-9580Y24551210D01*
X-1213714Y23347076D01*
X-1220880Y23333953D01*
X-2540000Y23333953D01*
X-2540000Y24978656D01*
X-2007953Y24978656D01*
X-1997161Y24703980D01*
X-1996186Y24695151D01*
X-1946799Y24424732D01*
X-1944590Y24416129D01*
X-1857595Y24155372D01*
X-1854191Y24147155D01*
X-1731322Y23901255D01*
X-1726804Y23893616D01*
X-1597657Y23706755D01*
X-1587337Y23698403D01*
X-1573683Y23705527D01*
X-372022Y24907188D01*
X-365644Y24918868D01*
X364408Y24918868D01*
X364539Y24917035D01*
X368790Y24910420D01*
X1573657Y23705553D01*
X1587057Y23698236D01*
X1596961Y23705223D01*
X1622549Y23735664D01*
X1627767Y23742847D01*
X1773236Y23976099D01*
X1777388Y23983939D01*
X1888543Y24235368D01*
X1891549Y24243718D01*
X1966166Y24508291D01*
X1967967Y24516984D01*
X2004727Y24790664D01*
X2005255Y24797057D01*
X2009018Y24916778D01*
X2008891Y24923221D01*
X1989390Y25198635D01*
X1988137Y25207445D01*
X1930282Y25476170D01*
X1927800Y25484711D01*
X1832661Y25742599D01*
X1829003Y25750701D01*
X1698471Y25992618D01*
X1693709Y26000123D01*
X1596406Y26131861D01*
X1585281Y26140301D01*
X1572685Y26133475D01*
X372022Y24932812D01*
X364408Y24918868D01*
X-365644Y24918868D01*
X-364408Y24921132D01*
X-364539Y24922965D01*
X-368790Y24929580D01*
X-1572540Y26133330D01*
X-1585381Y26140342D01*
X-1596070Y26132547D01*
X-1658948Y26052787D01*
X-1663937Y26045445D01*
X-1802013Y25807731D01*
X-1805912Y25799773D01*
X-1909112Y25544985D01*
X-1911861Y25536523D01*
X-1978127Y25269753D01*
X-1979656Y25260992D01*
X-2007674Y24987539D01*
X-2007953Y24978656D01*
X-2540000Y24978656D01*
X-2540000Y26506132D01*
X-1220775Y26506132D01*
X-1213795Y26493005D01*
X-12812Y25292022D01*
X1132Y25284408D01*
X2965Y25284539D01*
X9580Y25288790D01*
X1213299Y26492509D01*
X1220153Y26505061D01*
X1211946Y26516131D01*
X1106593Y26596534D01*
X1099163Y26601414D01*
X859332Y26735726D01*
X851282Y26739514D01*
X594917Y26838695D01*
X586427Y26841307D01*
X318634Y26903377D01*
X309856Y26904767D01*
X35990Y26928487D01*
X27119Y26928627D01*
X-247366Y26913521D01*
X-256176Y26912407D01*
X-525777Y26858781D01*
X-534363Y26856432D01*
X-793708Y26765356D01*
X-801876Y26761821D01*
X-1045812Y26635108D01*
X-1053380Y26630471D01*
X-1212373Y26516853D01*
X-1220775Y26506132D01*
X-2540000Y26506132D01*
X-2540000Y34533953D01*
X-1220880Y34533953D01*
X-1213490Y34523651D01*
X-1158711Y34479054D01*
X-1151432Y34473939D01*
X-915940Y34332161D01*
X-908016Y34328124D01*
X-654892Y34220939D01*
X-646487Y34218061D01*
X-380773Y34147609D01*
X-372052Y34145945D01*
X-99058Y34113634D01*
X-90193Y34113216D01*
X184616Y34119693D01*
X193476Y34120530D01*
X464618Y34165660D01*
X473275Y34167739D01*
X735360Y34250625D01*
X743621Y34253896D01*
X991416Y34372886D01*
X999140Y34377292D01*
X1214483Y34521179D01*
X1222771Y34531097D01*
X1215514Y34545276D01*
X12812Y35747978D01*
X-1132Y35755592D01*
X-2965Y35755461D01*
X-9580Y35751210D01*
X-1213714Y34547076D01*
X-1220880Y34533953D01*
X-2540000Y34533953D01*
X-2540000Y36178656D01*
X-2007953Y36178656D01*
X-1997161Y35903980D01*
X-1996186Y35895151D01*
X-1946799Y35624732D01*
X-1944590Y35616129D01*
X-1857595Y35355372D01*
X-1854191Y35347155D01*
X-1731322Y35101255D01*
X-1726804Y35093616D01*
X-1597657Y34906755D01*
X-1587337Y34898403D01*
X-1573683Y34905527D01*
X-372022Y36107188D01*
X-365644Y36118868D01*
X364408Y36118868D01*
X364539Y36117035D01*
X368790Y36110420D01*
X1573657Y34905553D01*
X1587057Y34898236D01*
X1596961Y34905223D01*
X1622549Y34935664D01*
X1627767Y34942847D01*
X1773236Y35176099D01*
X1777388Y35183939D01*
X1888543Y35435368D01*
X1891549Y35443718D01*
X1966166Y35708291D01*
X1967967Y35716984D01*
X2004727Y35990664D01*
X2005255Y35997057D01*
X2009018Y36116778D01*
X2008891Y36123221D01*
X1989390Y36398635D01*
X1988137Y36407445D01*
X1930282Y36676170D01*
X1927800Y36684711D01*
X1832661Y36942599D01*
X1829003Y36950701D01*
X1698471Y37192618D01*
X1693709Y37200123D01*
X1596406Y37331861D01*
X1585281Y37340301D01*
X1572685Y37333475D01*
X372022Y36132812D01*
X364408Y36118868D01*
X-365644Y36118868D01*
X-364408Y36121132D01*
X-364539Y36122965D01*
X-368790Y36129580D01*
X-1572540Y37333330D01*
X-1585381Y37340342D01*
X-1596070Y37332547D01*
X-1658948Y37252787D01*
X-1663937Y37245445D01*
X-1802013Y37007731D01*
X-1805912Y36999773D01*
X-1909112Y36744985D01*
X-1911861Y36736523D01*
X-1978127Y36469753D01*
X-1979656Y36460992D01*
X-2007674Y36187539D01*
X-2007953Y36178656D01*
X-2540000Y36178656D01*
X-2540000Y37706132D01*
X-1220775Y37706132D01*
X-1213795Y37693005D01*
X-12812Y36492022D01*
X1132Y36484408D01*
X2965Y36484539D01*
X9580Y36488790D01*
X1213299Y37692509D01*
X1220153Y37705061D01*
X1211946Y37716131D01*
X1106593Y37796534D01*
X1099163Y37801414D01*
X859332Y37935726D01*
X851282Y37939514D01*
X594917Y38038695D01*
X586427Y38041307D01*
X318634Y38103377D01*
X309856Y38104767D01*
X35990Y38128487D01*
X27119Y38128627D01*
X-247366Y38113521D01*
X-256176Y38112407D01*
X-525777Y38058781D01*
X-534363Y38056432D01*
X-793708Y37965356D01*
X-801876Y37961821D01*
X-1045812Y37835108D01*
X-1053380Y37830471D01*
X-1212373Y37716853D01*
X-1220775Y37706132D01*
X-2540000Y37706132D01*
X-2540000Y38609000D01*
X-2519998Y38677121D01*
X-2466342Y38723614D01*
X-2414000Y38735000D01*
X2414000Y38735000D01*
X2482121Y38714998D01*
G37*
G04 #@! TD.AperFunction*
G04 #@! TA.AperFunction,Conductor*
G36*
X13023121Y40365998D02*
G01*
X13069614Y40312342D01*
X13081000Y40260000D01*
X13081000Y39370000D01*
X-13081000Y39370000D01*
X-13081000Y40260000D01*
X-13060998Y40328121D01*
X-13007342Y40374614D01*
X-12955000Y40386000D01*
X12955000Y40386000D01*
X13023121Y40365998D01*
G37*
G04 #@! TD.AperFunction*
G04 #@! TA.AperFunction,Conductor*
G36*
X13081000Y-40260000D02*
G01*
X13060998Y-40328121D01*
X13007342Y-40374614D01*
X12955000Y-40386000D01*
X-12955000Y-40386000D01*
X-13023121Y-40365998D01*
X-13069614Y-40312342D01*
X-13081000Y-40260000D01*
X-13081000Y-39370000D01*
X13081000Y-39370000D01*
X13081000Y-40260000D01*
G37*
G04 #@! TD.AperFunction*
G04 #@! TA.AperFunction,Conductor*
G36*
X-3175000Y-40386000D02*
G01*
X-12955000Y-40386000D01*
X-13023121Y-40365998D01*
X-13069614Y-40312342D01*
X-13081000Y-40260000D01*
X-13081000Y-32940000D01*
X-8259292Y-32940000D01*
X-8240161Y-33158674D01*
X-8183347Y-33370703D01*
X-8181022Y-33375688D01*
X-8092905Y-33564659D01*
X-8092902Y-33564664D01*
X-8090579Y-33569646D01*
X-7964674Y-33749457D01*
X-7809457Y-33904674D01*
X-7804949Y-33907831D01*
X-7804946Y-33907833D01*
X-7634155Y-34027422D01*
X-7629646Y-34030579D01*
X-7624664Y-34032902D01*
X-7624659Y-34032905D01*
X-7523884Y-34079896D01*
X-7430703Y-34123347D01*
X-7218674Y-34180161D01*
X-7000000Y-34199292D01*
X-6781326Y-34180161D01*
X-6569297Y-34123347D01*
X-6476116Y-34079896D01*
X-6375341Y-34032905D01*
X-6375336Y-34032902D01*
X-6370354Y-34030579D01*
X-6365845Y-34027422D01*
X-6195054Y-33907833D01*
X-6195051Y-33907831D01*
X-6190543Y-33904674D01*
X-6035326Y-33749457D01*
X-5909421Y-33569646D01*
X-5907098Y-33564664D01*
X-5907095Y-33564659D01*
X-5818978Y-33375688D01*
X-5816653Y-33370703D01*
X-5759839Y-33158674D01*
X-5740708Y-32940000D01*
X-5759839Y-32721326D01*
X-5816653Y-32509297D01*
X-5860104Y-32416116D01*
X-5907095Y-32315341D01*
X-5907098Y-32315336D01*
X-5909421Y-32310354D01*
X-6035326Y-32130543D01*
X-6190543Y-31975326D01*
X-6195051Y-31972169D01*
X-6195054Y-31972167D01*
X-6365845Y-31852578D01*
X-6365847Y-31852577D01*
X-6370354Y-31849421D01*
X-6375336Y-31847098D01*
X-6375341Y-31847095D01*
X-6476116Y-31800104D01*
X-6569297Y-31756653D01*
X-6781326Y-31699839D01*
X-7000000Y-31680708D01*
X-7218674Y-31699839D01*
X-7430703Y-31756653D01*
X-7523884Y-31800104D01*
X-7624659Y-31847095D01*
X-7624664Y-31847098D01*
X-7629646Y-31849421D01*
X-7634153Y-31852577D01*
X-7634155Y-31852578D01*
X-7804946Y-31972167D01*
X-7804949Y-31972169D01*
X-7809457Y-31975326D01*
X-7964674Y-32130543D01*
X-8090579Y-32310354D01*
X-8092902Y-32315336D01*
X-8092905Y-32315341D01*
X-8139896Y-32416116D01*
X-8183347Y-32509297D01*
X-8240161Y-32721326D01*
X-8259292Y-32940000D01*
X-13081000Y-32940000D01*
X-13081000Y14605000D01*
X-12289207Y14605000D01*
X-12270431Y14426361D01*
X-12214925Y14255529D01*
X-12211622Y14249807D01*
X-12211621Y14249806D01*
X-12179352Y14193916D01*
X-12125113Y14099971D01*
X-12004922Y13966485D01*
X-11993671Y13958311D01*
X-11861439Y13862238D01*
X-11818085Y13806016D01*
X-11809500Y13760302D01*
X-11809500Y-29791080D01*
X-11812049Y-29815028D01*
X-11812128Y-29816693D01*
X-11814320Y-29826876D01*
X-11813096Y-29837217D01*
X-11810373Y-29860223D01*
X-11810023Y-29866154D01*
X-11809928Y-29866146D01*
X-11809500Y-29871324D01*
X-11809500Y-29876524D01*
X-11808646Y-29881653D01*
X-11808646Y-29881656D01*
X-11806331Y-29895565D01*
X-11805494Y-29901443D01*
X-11800967Y-29939689D01*
X-11799470Y-29952341D01*
X-11795507Y-29960593D01*
X-11794004Y-29969626D01*
X-11789057Y-29978795D01*
X-11789056Y-29978797D01*
X-11769666Y-30014732D01*
X-11766969Y-30020025D01*
X-11748215Y-30059082D01*
X-11748212Y-30059086D01*
X-11744781Y-30066232D01*
X-11741186Y-30070508D01*
X-11739263Y-30072431D01*
X-11737491Y-30074363D01*
X-11737448Y-30074442D01*
X-11737572Y-30074555D01*
X-11737096Y-30075095D01*
X-11734010Y-30080814D01*
X-11726365Y-30087881D01*
X-11694414Y-30117416D01*
X-11690848Y-30120846D01*
X-11101478Y-30710216D01*
X-11086336Y-30728964D01*
X-11085221Y-30730189D01*
X-11079571Y-30738940D01*
X-11071393Y-30745387D01*
X-11071391Y-30745389D01*
X-11053200Y-30759729D01*
X-11048759Y-30763675D01*
X-11048697Y-30763602D01*
X-11044733Y-30766961D01*
X-11041056Y-30770638D01*
X-11025308Y-30781892D01*
X-11020638Y-30785398D01*
X-10980353Y-30817156D01*
X-10971719Y-30820188D01*
X-10964266Y-30825514D01*
X-10915150Y-30840203D01*
X-10909508Y-30842036D01*
X-10868633Y-30856390D01*
X-10861149Y-30859018D01*
X-10855584Y-30859500D01*
X-10852876Y-30859500D01*
X-10850242Y-30859614D01*
X-10850144Y-30859643D01*
X-10850151Y-30859807D01*
X-10849447Y-30859851D01*
X-10843222Y-30861713D01*
X-10789365Y-30859597D01*
X-10784418Y-30859500D01*
X-5044859Y-30859500D01*
X-4976738Y-30879502D01*
X-4949478Y-30903169D01*
X-4948328Y-30904501D01*
X-4944092Y-30910805D01*
X-4826924Y-31017419D01*
X-4687707Y-31093008D01*
X-4534478Y-31133207D01*
X-4450523Y-31134526D01*
X-4383681Y-31135576D01*
X-4383678Y-31135576D01*
X-4376084Y-31135695D01*
X-4221668Y-31100329D01*
X-4151258Y-31064917D01*
X-4086928Y-31032563D01*
X-4086925Y-31032561D01*
X-4080145Y-31029151D01*
X-4074374Y-31024222D01*
X-4074371Y-31024220D01*
X-3965464Y-30931204D01*
X-3965464Y-30931203D01*
X-3959686Y-30926269D01*
X-3867245Y-30797624D01*
X-3808158Y-30650641D01*
X-3785838Y-30493807D01*
X-3785693Y-30480000D01*
X-3804724Y-30322733D01*
X-3860720Y-30174546D01*
X-3911610Y-30100500D01*
X-3946145Y-30050251D01*
X-3946146Y-30050249D01*
X-3950447Y-30043992D01*
X-4068725Y-29938611D01*
X-4076111Y-29934700D01*
X-4144494Y-29898493D01*
X-4208726Y-29864484D01*
X-4362367Y-29825892D01*
X-4369966Y-29825852D01*
X-4369967Y-29825852D01*
X-4435819Y-29825507D01*
X-4520779Y-29825062D01*
X-4528159Y-29826834D01*
X-4528161Y-29826834D01*
X-4667437Y-29860271D01*
X-4667440Y-29860272D01*
X-4674816Y-29862043D01*
X-4815586Y-29934700D01*
X-4934961Y-30038838D01*
X-4939328Y-30045051D01*
X-4939333Y-30045057D01*
X-4940664Y-30046951D01*
X-4941987Y-30048005D01*
X-4944411Y-30050697D01*
X-4944860Y-30050293D01*
X-4996198Y-30091183D01*
X-5043750Y-30100500D01*
X-10585616Y-30100500D01*
X-10653737Y-30080498D01*
X-10674711Y-30063595D01*
X-11013595Y-29724711D01*
X-11047621Y-29662399D01*
X-11050500Y-29635616D01*
X-11050500Y-28750576D01*
X-11030498Y-28682455D01*
X-10976842Y-28635962D01*
X-10906568Y-28625858D01*
X-10841988Y-28655352D01*
X-10802406Y-28720849D01*
X-10801887Y-28725553D01*
X-10747447Y-28874319D01*
X-10743211Y-28880622D01*
X-10743211Y-28880623D01*
X-10663460Y-28999304D01*
X-10659092Y-29005805D01*
X-10653473Y-29010918D01*
X-10653472Y-29010919D01*
X-10547540Y-29107309D01*
X-10541924Y-29112419D01*
X-10402707Y-29188008D01*
X-10249478Y-29228207D01*
X-10165523Y-29229526D01*
X-10098681Y-29230576D01*
X-10098678Y-29230576D01*
X-10091084Y-29230695D01*
X-9936668Y-29195329D01*
X-9866258Y-29159917D01*
X-9801928Y-29127563D01*
X-9801925Y-29127561D01*
X-9795145Y-29124151D01*
X-9789374Y-29119222D01*
X-9789371Y-29119220D01*
X-9680464Y-29026204D01*
X-9680464Y-29026203D01*
X-9674686Y-29021269D01*
X-9650269Y-28987289D01*
X-7682735Y-28987289D01*
X-7673439Y-28999304D01*
X-7633900Y-29026989D01*
X-7624410Y-29032469D01*
X-7435514Y-29120553D01*
X-7425222Y-29124299D01*
X-7223902Y-29178242D01*
X-7213107Y-29180145D01*
X-7005475Y-29198311D01*
X-6994525Y-29198311D01*
X-6786893Y-29180145D01*
X-6776098Y-29178242D01*
X-6574778Y-29124299D01*
X-6564486Y-29120553D01*
X-6375590Y-29032469D01*
X-6366100Y-29026989D01*
X-6325722Y-28998717D01*
X-6317348Y-28988242D01*
X-6324417Y-28974793D01*
X-6987188Y-28312022D01*
X-7001132Y-28304408D01*
X-7002965Y-28304539D01*
X-7009580Y-28308790D01*
X-7676305Y-28975515D01*
X-7682735Y-28987289D01*
X-9650269Y-28987289D01*
X-9582245Y-28892624D01*
X-9523158Y-28745641D01*
X-9504751Y-28616305D01*
X-9501419Y-28592891D01*
X-9501419Y-28592888D01*
X-9500838Y-28588807D01*
X-9500693Y-28575000D01*
X-9501974Y-28564410D01*
X-9518733Y-28425925D01*
X-9519724Y-28417733D01*
X-9575720Y-28269546D01*
X-9665447Y-28138992D01*
X-9738319Y-28074065D01*
X-9775874Y-28013816D01*
X-9780500Y-27979989D01*
X-9780500Y-27945475D01*
X-8258311Y-27945475D01*
X-8240145Y-28153107D01*
X-8238242Y-28163902D01*
X-8184299Y-28365222D01*
X-8180553Y-28375514D01*
X-8092469Y-28564410D01*
X-8086989Y-28573900D01*
X-8058717Y-28614278D01*
X-8048242Y-28622652D01*
X-8034793Y-28615583D01*
X-7372022Y-27952812D01*
X-7365644Y-27941132D01*
X-6635592Y-27941132D01*
X-6635461Y-27942965D01*
X-6631210Y-27949580D01*
X-5964485Y-28616305D01*
X-5952711Y-28622735D01*
X-5940696Y-28613439D01*
X-5913011Y-28573900D01*
X-5907531Y-28564410D01*
X-5819447Y-28375514D01*
X-5815701Y-28365222D01*
X-5761758Y-28163902D01*
X-5759855Y-28153107D01*
X-5741689Y-27945475D01*
X-5741689Y-27934525D01*
X-5759855Y-27726893D01*
X-5761758Y-27716098D01*
X-5815701Y-27514778D01*
X-5819447Y-27504486D01*
X-5907531Y-27315590D01*
X-5913011Y-27306100D01*
X-5941283Y-27265722D01*
X-5951758Y-27257348D01*
X-5965207Y-27264417D01*
X-6627978Y-27927188D01*
X-6635592Y-27941132D01*
X-7365644Y-27941132D01*
X-7364408Y-27938868D01*
X-7364539Y-27937035D01*
X-7368790Y-27930420D01*
X-8035515Y-27263695D01*
X-8047289Y-27257265D01*
X-8059304Y-27266561D01*
X-8086989Y-27306100D01*
X-8092469Y-27315590D01*
X-8180553Y-27504486D01*
X-8184299Y-27514778D01*
X-8238242Y-27716098D01*
X-8240145Y-27726893D01*
X-8258311Y-27934525D01*
X-8258311Y-27945475D01*
X-9780500Y-27945475D01*
X-9780500Y-26891758D01*
X-7682652Y-26891758D01*
X-7675583Y-26905207D01*
X-7012812Y-27567978D01*
X-6998868Y-27575592D01*
X-6997035Y-27575461D01*
X-6990420Y-27571210D01*
X-6323695Y-26904485D01*
X-6317265Y-26892711D01*
X-6326561Y-26880696D01*
X-6366100Y-26853011D01*
X-6375590Y-26847531D01*
X-6564486Y-26759447D01*
X-6574778Y-26755701D01*
X-6776098Y-26701758D01*
X-6786893Y-26699855D01*
X-6994525Y-26681689D01*
X-7005475Y-26681689D01*
X-7213107Y-26699855D01*
X-7223902Y-26701758D01*
X-7425222Y-26755701D01*
X-7435514Y-26759447D01*
X-7624410Y-26847531D01*
X-7633900Y-26853011D01*
X-7674278Y-26881283D01*
X-7682652Y-26891758D01*
X-9780500Y-26891758D01*
X-9780500Y12360121D01*
X-9760498Y12428242D01*
X-9706842Y12474735D01*
X-9636568Y12484839D01*
X-9628301Y12483367D01*
X-9614812Y12480500D01*
X-9435188Y12480500D01*
X-9428736Y12481872D01*
X-9428731Y12481872D01*
X-9337050Y12501360D01*
X-9290517Y12511251D01*
X-9219727Y12505849D01*
X-9163095Y12463032D01*
X-9138601Y12396395D01*
X-9154022Y12327093D01*
X-9165369Y12310002D01*
X-9169730Y12304469D01*
X-9173675Y12300030D01*
X-9173602Y12299968D01*
X-9176961Y12296004D01*
X-9180638Y12292327D01*
X-9191892Y12276579D01*
X-9195398Y12271909D01*
X-9227156Y12231624D01*
X-9230188Y12222990D01*
X-9235514Y12215537D01*
X-9250174Y12166516D01*
X-9250201Y12166427D01*
X-9252036Y12160779D01*
X-9266390Y12119904D01*
X-9269018Y12112420D01*
X-9269500Y12106855D01*
X-9269500Y12104147D01*
X-9269614Y12101513D01*
X-9269643Y12101415D01*
X-9269807Y12101422D01*
X-9269851Y12100718D01*
X-9271713Y12094493D01*
X-9270597Y12066100D01*
X-9269597Y12040636D01*
X-9269500Y12035689D01*
X-9269500Y-21536080D01*
X-9272049Y-21560028D01*
X-9272128Y-21561693D01*
X-9274320Y-21571876D01*
X-9273096Y-21582217D01*
X-9270373Y-21605223D01*
X-9270023Y-21611154D01*
X-9269928Y-21611146D01*
X-9269500Y-21616324D01*
X-9269500Y-21621524D01*
X-9268646Y-21626653D01*
X-9268646Y-21626656D01*
X-9266331Y-21640565D01*
X-9265494Y-21646443D01*
X-9259470Y-21697341D01*
X-9255507Y-21705593D01*
X-9254004Y-21714626D01*
X-9249057Y-21723795D01*
X-9249056Y-21723797D01*
X-9229666Y-21759732D01*
X-9226969Y-21765025D01*
X-9208215Y-21804082D01*
X-9208212Y-21804086D01*
X-9204781Y-21811232D01*
X-9201186Y-21815508D01*
X-9199263Y-21817431D01*
X-9197491Y-21819363D01*
X-9197448Y-21819442D01*
X-9197572Y-21819555D01*
X-9197096Y-21820095D01*
X-9194010Y-21825814D01*
X-9186365Y-21832881D01*
X-9154414Y-21862416D01*
X-9150848Y-21865846D01*
X-5134751Y-25881943D01*
X-5100725Y-25944255D01*
X-5098924Y-25987482D01*
X-5104271Y-26028096D01*
X-5086887Y-26185553D01*
X-5032447Y-26334319D01*
X-4944092Y-26465805D01*
X-4938473Y-26470918D01*
X-4938472Y-26470919D01*
X-4927097Y-26481269D01*
X-4826924Y-26572419D01*
X-4687707Y-26648008D01*
X-4534478Y-26688207D01*
X-4450523Y-26689526D01*
X-4383681Y-26690576D01*
X-4383678Y-26690576D01*
X-4376084Y-26690695D01*
X-4221668Y-26655329D01*
X-4151258Y-26619917D01*
X-4086928Y-26587563D01*
X-4086925Y-26587561D01*
X-4080145Y-26584151D01*
X-4074374Y-26579222D01*
X-4074371Y-26579220D01*
X-3965464Y-26486204D01*
X-3965464Y-26486203D01*
X-3959686Y-26481269D01*
X-3867245Y-26352624D01*
X-3808158Y-26205641D01*
X-3785838Y-26048807D01*
X-3785693Y-26035000D01*
X-3787439Y-26020567D01*
X-3803812Y-25885273D01*
X-3804724Y-25877733D01*
X-3860720Y-25729546D01*
X-3950447Y-25598992D01*
X-4068725Y-25493611D01*
X-4208726Y-25419484D01*
X-4362367Y-25380892D01*
X-4369966Y-25380852D01*
X-4369967Y-25380852D01*
X-4430374Y-25380536D01*
X-4511665Y-25380110D01*
X-4579679Y-25359752D01*
X-4600099Y-25343207D01*
X-8473595Y-21469711D01*
X-8507621Y-21407399D01*
X-8510500Y-21380616D01*
X-8510500Y-21188828D01*
X-8088999Y-21188828D01*
X-8087791Y-21201088D01*
X-8076685Y-21256931D01*
X-8067367Y-21279427D01*
X-8025017Y-21342808D01*
X-8007808Y-21360017D01*
X-7944425Y-21402368D01*
X-7921934Y-21411684D01*
X-7866085Y-21422793D01*
X-7853830Y-21424000D01*
X-7257115Y-21424000D01*
X-7241876Y-21419525D01*
X-7240671Y-21418135D01*
X-7239000Y-21410452D01*
X-7239000Y-21405884D01*
X-6731000Y-21405884D01*
X-6726525Y-21421123D01*
X-6725135Y-21422328D01*
X-6717452Y-21423999D01*
X-6116172Y-21423999D01*
X-6103912Y-21422791D01*
X-6048069Y-21411685D01*
X-6025573Y-21402367D01*
X-5962192Y-21360017D01*
X-5944983Y-21342808D01*
X-5902632Y-21279425D01*
X-5893316Y-21256934D01*
X-5882207Y-21201085D01*
X-5881000Y-21188830D01*
X-5881000Y-20592115D01*
X-5885475Y-20576876D01*
X-5886865Y-20575671D01*
X-5894548Y-20574000D01*
X-6712885Y-20574000D01*
X-6728124Y-20578475D01*
X-6729329Y-20579865D01*
X-6731000Y-20587548D01*
X-6731000Y-21405884D01*
X-7239000Y-21405884D01*
X-7239000Y-20592115D01*
X-7243475Y-20576876D01*
X-7244865Y-20575671D01*
X-7252548Y-20574000D01*
X-8070884Y-20574000D01*
X-8086123Y-20578475D01*
X-8087328Y-20579865D01*
X-8088999Y-20587548D01*
X-8088999Y-21188828D01*
X-8510500Y-21188828D01*
X-8510500Y-20047885D01*
X-8089000Y-20047885D01*
X-8084525Y-20063124D01*
X-8083135Y-20064329D01*
X-8075452Y-20066000D01*
X-7257115Y-20066000D01*
X-7241876Y-20061525D01*
X-7240671Y-20060135D01*
X-7239000Y-20052452D01*
X-7239000Y-20047885D01*
X-6731000Y-20047885D01*
X-6726525Y-20063124D01*
X-6725135Y-20064329D01*
X-6717452Y-20066000D01*
X-5899116Y-20066000D01*
X-5883877Y-20061525D01*
X-5882672Y-20060135D01*
X-5881001Y-20052452D01*
X-5881001Y-19451172D01*
X-5882209Y-19438912D01*
X-5893315Y-19383069D01*
X-5902633Y-19360573D01*
X-5944983Y-19297192D01*
X-5962192Y-19279983D01*
X-6025575Y-19237632D01*
X-6048066Y-19228316D01*
X-6103915Y-19217207D01*
X-6116170Y-19216000D01*
X-6712885Y-19216000D01*
X-6728124Y-19220475D01*
X-6729329Y-19221865D01*
X-6731000Y-19229548D01*
X-6731000Y-20047885D01*
X-7239000Y-20047885D01*
X-7239000Y-19234116D01*
X-7243475Y-19218877D01*
X-7244865Y-19217672D01*
X-7252548Y-19216001D01*
X-7853828Y-19216001D01*
X-7866088Y-19217209D01*
X-7921931Y-19228315D01*
X-7944427Y-19237633D01*
X-8007808Y-19279983D01*
X-8025017Y-19297192D01*
X-8067368Y-19360575D01*
X-8076684Y-19383066D01*
X-8087793Y-19438915D01*
X-8089000Y-19451170D01*
X-8089000Y-20047885D01*
X-8510500Y-20047885D01*
X-8510500Y-12634559D01*
X-8508336Y-12627190D01*
X-8510500Y-12605441D01*
X-8510500Y-8667289D01*
X-7682735Y-8667289D01*
X-7673439Y-8679304D01*
X-7633900Y-8706989D01*
X-7624410Y-8712469D01*
X-7435514Y-8800553D01*
X-7425222Y-8804299D01*
X-7223902Y-8858242D01*
X-7213107Y-8860145D01*
X-7005475Y-8878311D01*
X-6994525Y-8878311D01*
X-6786893Y-8860145D01*
X-6776098Y-8858242D01*
X-6574778Y-8804299D01*
X-6564486Y-8800553D01*
X-6375590Y-8712469D01*
X-6366100Y-8706989D01*
X-6325722Y-8678717D01*
X-6317348Y-8668242D01*
X-6324417Y-8654793D01*
X-6987188Y-7992022D01*
X-7001132Y-7984408D01*
X-7002965Y-7984539D01*
X-7009580Y-7988790D01*
X-7676305Y-8655515D01*
X-7682735Y-8667289D01*
X-8510500Y-8667289D01*
X-8510500Y-7625475D01*
X-8258311Y-7625475D01*
X-8240145Y-7833107D01*
X-8238242Y-7843902D01*
X-8184299Y-8045222D01*
X-8180553Y-8055514D01*
X-8092469Y-8244410D01*
X-8086989Y-8253900D01*
X-8058717Y-8294278D01*
X-8048242Y-8302652D01*
X-8034793Y-8295583D01*
X-7372022Y-7632812D01*
X-7365644Y-7621132D01*
X-6635592Y-7621132D01*
X-6635461Y-7622965D01*
X-6631210Y-7629580D01*
X-5964485Y-8296305D01*
X-5952711Y-8302735D01*
X-5940696Y-8293439D01*
X-5913011Y-8253900D01*
X-5907531Y-8244410D01*
X-5819447Y-8055514D01*
X-5815701Y-8045222D01*
X-5761758Y-7843902D01*
X-5759855Y-7833107D01*
X-5741689Y-7625475D01*
X-5741689Y-7614525D01*
X-5759855Y-7406893D01*
X-5761758Y-7396098D01*
X-5815701Y-7194778D01*
X-5819447Y-7184486D01*
X-5907531Y-6995590D01*
X-5913011Y-6986100D01*
X-5941283Y-6945722D01*
X-5951758Y-6937348D01*
X-5965207Y-6944417D01*
X-6627978Y-7607188D01*
X-6635592Y-7621132D01*
X-7365644Y-7621132D01*
X-7364408Y-7618868D01*
X-7364539Y-7617035D01*
X-7368790Y-7610420D01*
X-8035515Y-6943695D01*
X-8047289Y-6937265D01*
X-8059304Y-6946561D01*
X-8086989Y-6986100D01*
X-8092469Y-6995590D01*
X-8180553Y-7184486D01*
X-8184299Y-7194778D01*
X-8238242Y-7396098D01*
X-8240145Y-7406893D01*
X-8258311Y-7614525D01*
X-8258311Y-7625475D01*
X-8510500Y-7625475D01*
X-8510500Y-6571758D01*
X-7682652Y-6571758D01*
X-7675583Y-6585207D01*
X-7012812Y-7247978D01*
X-6998868Y-7255592D01*
X-6997035Y-7255461D01*
X-6990420Y-7251210D01*
X-6323695Y-6584485D01*
X-6317265Y-6572711D01*
X-6326561Y-6560696D01*
X-6366100Y-6533011D01*
X-6375590Y-6527531D01*
X-6564486Y-6439447D01*
X-6574778Y-6435701D01*
X-6776098Y-6381758D01*
X-6786893Y-6379855D01*
X-6994525Y-6361689D01*
X-7005475Y-6361689D01*
X-7213107Y-6379855D01*
X-7223902Y-6381758D01*
X-7425222Y-6435701D01*
X-7435514Y-6439447D01*
X-7624410Y-6527531D01*
X-7633900Y-6533011D01*
X-7674278Y-6561283D01*
X-7682652Y-6571758D01*
X-8510500Y-6571758D01*
X-8510500Y7685441D01*
X-8508336Y7692810D01*
X-8509176Y7701250D01*
X-8259890Y7701250D01*
X-8258979Y7696422D01*
X-8240161Y7481326D01*
X-8183347Y7269297D01*
X-8181022Y7264312D01*
X-8092905Y7075341D01*
X-8092902Y7075336D01*
X-8090579Y7070354D01*
X-7964674Y6890543D01*
X-7809457Y6735326D01*
X-7804949Y6732169D01*
X-7804946Y6732167D01*
X-7634155Y6612578D01*
X-7629646Y6609421D01*
X-7624664Y6607098D01*
X-7624659Y6607095D01*
X-7523884Y6560104D01*
X-7430703Y6516653D01*
X-7218674Y6459839D01*
X-7000000Y6440708D01*
X-6781326Y6459839D01*
X-6569297Y6516653D01*
X-6476116Y6560104D01*
X-6375341Y6607095D01*
X-6375336Y6607098D01*
X-6370354Y6609421D01*
X-6365845Y6612578D01*
X-6195054Y6732167D01*
X-6195051Y6732169D01*
X-6190543Y6735326D01*
X-6035326Y6890543D01*
X-5909421Y7070354D01*
X-5907098Y7075336D01*
X-5907095Y7075341D01*
X-5818978Y7264312D01*
X-5816653Y7269297D01*
X-5759839Y7481326D01*
X-5740708Y7700000D01*
X-5759839Y7918674D01*
X-5816653Y8130703D01*
X-5818976Y8135685D01*
X-5818979Y8135693D01*
X-5848042Y8198017D01*
X-5858704Y8268209D01*
X-5829725Y8333022D01*
X-5822943Y8340363D01*
X-5445273Y8718033D01*
X-5426525Y8733175D01*
X-5425300Y8734290D01*
X-5416549Y8739940D01*
X-5410102Y8748118D01*
X-5410100Y8748120D01*
X-5395760Y8766311D01*
X-5391811Y8770755D01*
X-5391885Y8770817D01*
X-5388532Y8774774D01*
X-5384851Y8778455D01*
X-5373624Y8794165D01*
X-5370068Y8798902D01*
X-5344781Y8830979D01*
X-5338333Y8839158D01*
X-5335300Y8847795D01*
X-5329976Y8855245D01*
X-5315287Y8904360D01*
X-5313455Y8909997D01*
X-5299099Y8950878D01*
X-5299099Y8950879D01*
X-5296471Y8958362D01*
X-5295989Y8963927D01*
X-5295989Y8966635D01*
X-5295875Y8969269D01*
X-5295846Y8969367D01*
X-5295682Y8969360D01*
X-5295638Y8970064D01*
X-5293776Y8976289D01*
X-5295892Y9030146D01*
X-5295989Y9035093D01*
X-5295989Y15781564D01*
X-5293439Y15805522D01*
X-5293361Y15807181D01*
X-5291168Y15817365D01*
X-5292392Y15827707D01*
X-5292392Y15827710D01*
X-5295115Y15850710D01*
X-5295465Y15856641D01*
X-5295561Y15856633D01*
X-5295989Y15861809D01*
X-5295989Y15867013D01*
X-5299162Y15886077D01*
X-5299993Y15891923D01*
X-5304795Y15932488D01*
X-5306019Y15942830D01*
X-5309982Y15951082D01*
X-5311485Y15960115D01*
X-5320968Y15977691D01*
X-5335823Y16005221D01*
X-5338520Y16010514D01*
X-5357274Y16049570D01*
X-5357275Y16049571D01*
X-5360708Y16056721D01*
X-5364302Y16060996D01*
X-5366227Y16062921D01*
X-5367998Y16064851D01*
X-5368044Y16064936D01*
X-5367921Y16065048D01*
X-5368393Y16065583D01*
X-5371479Y16071303D01*
X-5380016Y16079195D01*
X-5411075Y16107905D01*
X-5414641Y16111335D01*
X-5659857Y16356551D01*
X-5693883Y16418863D01*
X-5695505Y16463399D01*
X-5691419Y16492108D01*
X-5691419Y16492114D01*
X-5690838Y16496193D01*
X-5690693Y16510000D01*
X-5709724Y16667267D01*
X-5765720Y16815454D01*
X-5813610Y16885135D01*
X-5851145Y16939749D01*
X-5851146Y16939751D01*
X-5855447Y16946008D01*
X-5973725Y17051389D01*
X-5981111Y17055300D01*
X-6107012Y17121961D01*
X-6107011Y17121961D01*
X-6113726Y17125516D01*
X-6267367Y17164108D01*
X-6274966Y17164148D01*
X-6274967Y17164148D01*
X-6340819Y17164493D01*
X-6425779Y17164938D01*
X-6433159Y17163166D01*
X-6433161Y17163166D01*
X-6572437Y17129729D01*
X-6572440Y17129728D01*
X-6579816Y17127957D01*
X-6720586Y17055300D01*
X-6839961Y16951162D01*
X-6931050Y16821556D01*
X-6946310Y16782416D01*
X-6985324Y16682349D01*
X-6988594Y16673963D01*
X-6989586Y16666430D01*
X-6989586Y16666429D01*
X-7005354Y16546656D01*
X-7009271Y16516904D01*
X-7004036Y16469489D01*
X-6994159Y16380029D01*
X-6991887Y16359447D01*
X-6989277Y16352316D01*
X-6989277Y16352314D01*
X-6942493Y16224471D01*
X-6937447Y16210681D01*
X-6933211Y16204378D01*
X-6933211Y16204377D01*
X-6868384Y16107905D01*
X-6849092Y16079195D01*
X-6843473Y16074082D01*
X-6843472Y16074081D01*
X-6773612Y16010514D01*
X-6731924Y15972581D01*
X-6592707Y15896992D01*
X-6439478Y15856793D01*
X-6342862Y15855275D01*
X-6281228Y15854307D01*
X-6213430Y15833238D01*
X-6194112Y15817418D01*
X-6091894Y15715200D01*
X-6057868Y15652888D01*
X-6054989Y15626105D01*
X-6054989Y13811191D01*
X-6074991Y13743070D01*
X-6128647Y13696577D01*
X-6198921Y13686473D01*
X-6253260Y13707978D01*
X-6366096Y13786987D01*
X-6375592Y13792470D01*
X-6564486Y13880553D01*
X-6574778Y13884299D01*
X-6776098Y13938242D01*
X-6786893Y13940145D01*
X-6994525Y13958311D01*
X-7005475Y13958311D01*
X-7213107Y13940145D01*
X-7223902Y13938242D01*
X-7425222Y13884299D01*
X-7435514Y13880553D01*
X-7624410Y13792469D01*
X-7633900Y13786989D01*
X-7674278Y13758717D01*
X-7682652Y13748242D01*
X-7675583Y13734793D01*
X-6729885Y12789095D01*
X-6695859Y12726783D01*
X-6700924Y12655968D01*
X-6729885Y12610905D01*
X-7676305Y11664485D01*
X-7682735Y11652711D01*
X-7673439Y11640696D01*
X-7633900Y11613011D01*
X-7624410Y11607531D01*
X-7435514Y11519447D01*
X-7425222Y11515701D01*
X-7223902Y11461758D01*
X-7213107Y11459855D01*
X-7005475Y11441689D01*
X-6994525Y11441689D01*
X-6786893Y11459855D01*
X-6776098Y11461758D01*
X-6574778Y11515701D01*
X-6564486Y11519447D01*
X-6375592Y11607530D01*
X-6366096Y11613013D01*
X-6253260Y11692022D01*
X-6185986Y11714710D01*
X-6117125Y11697425D01*
X-6068541Y11645655D01*
X-6054989Y11588809D01*
X-6054989Y9233895D01*
X-6074991Y9165774D01*
X-6091894Y9144800D01*
X-6359637Y8877057D01*
X-6421949Y8843031D01*
X-6492764Y8848096D01*
X-6501983Y8851958D01*
X-6564307Y8881021D01*
X-6564315Y8881024D01*
X-6569297Y8883347D01*
X-6781326Y8940161D01*
X-7000000Y8959292D01*
X-7218674Y8940161D01*
X-7430703Y8883347D01*
X-7523884Y8839896D01*
X-7624659Y8792905D01*
X-7624664Y8792902D01*
X-7629646Y8790579D01*
X-7634153Y8787423D01*
X-7634155Y8787422D01*
X-7804946Y8667833D01*
X-7804949Y8667831D01*
X-7809457Y8664674D01*
X-7964674Y8509457D01*
X-8090579Y8329646D01*
X-8092902Y8324664D01*
X-8092905Y8324659D01*
X-8139896Y8223884D01*
X-8183347Y8130703D01*
X-8240161Y7918674D01*
X-8240640Y7913197D01*
X-8258979Y7703578D01*
X-8259890Y7701250D01*
X-8509176Y7701250D01*
X-8510500Y7714559D01*
X-8510500Y11836887D01*
X-8490498Y11905008D01*
X-8473595Y11925982D01*
X-8370273Y12029304D01*
X-8351525Y12044446D01*
X-8350300Y12045561D01*
X-8341549Y12051211D01*
X-8335102Y12059389D01*
X-8335100Y12059391D01*
X-8320760Y12077582D01*
X-8316811Y12082026D01*
X-8316885Y12082088D01*
X-8313532Y12086045D01*
X-8309851Y12089726D01*
X-8306827Y12093958D01*
X-8303466Y12097924D01*
X-8302289Y12096927D01*
X-8251893Y12136413D01*
X-8181206Y12143036D01*
X-8118160Y12110392D01*
X-8096218Y12079777D01*
X-8095219Y12080354D01*
X-8086989Y12066100D01*
X-8058717Y12025722D01*
X-8048242Y12017348D01*
X-8034793Y12024417D01*
X-7372022Y12687188D01*
X-7364408Y12701132D01*
X-7364539Y12702965D01*
X-7368790Y12709580D01*
X-8035515Y13376305D01*
X-8049459Y13383919D01*
X-8078271Y13381859D01*
X-8083998Y13379618D01*
X-8153604Y13393602D01*
X-8204600Y13442998D01*
X-8220989Y13505138D01*
X-8220989Y14896569D01*
X-8218440Y14920517D01*
X-8218361Y14922182D01*
X-8216169Y14932365D01*
X-8220116Y14965712D01*
X-8220466Y14971643D01*
X-8220561Y14971635D01*
X-8220989Y14976813D01*
X-8220989Y14982013D01*
X-8221843Y14987145D01*
X-8224158Y15001054D01*
X-8224995Y15006932D01*
X-8229795Y15047490D01*
X-8229795Y15047491D01*
X-8231019Y15057830D01*
X-8234982Y15066082D01*
X-8236485Y15075115D01*
X-8260824Y15120223D01*
X-8263520Y15125514D01*
X-8282274Y15164571D01*
X-8282277Y15164575D01*
X-8285708Y15171721D01*
X-8289303Y15175997D01*
X-8291226Y15177920D01*
X-8292998Y15179852D01*
X-8293041Y15179931D01*
X-8292917Y15180044D01*
X-8293393Y15180584D01*
X-8296479Y15186303D01*
X-8336076Y15222906D01*
X-8339641Y15226335D01*
X-8660650Y15547344D01*
X-8694676Y15609656D01*
X-8691388Y15675375D01*
X-8690439Y15678295D01*
X-8684569Y15696361D01*
X-8665793Y15875000D01*
X-8674739Y15960115D01*
X-8683879Y16047075D01*
X-8683879Y16047076D01*
X-8684569Y16053639D01*
X-8687187Y16061698D01*
X-8738033Y16218187D01*
X-8738034Y16218189D01*
X-8740075Y16224471D01*
X-8829887Y16380029D01*
X-8950078Y16513515D01*
X-8966192Y16525223D01*
X-9090054Y16615214D01*
X-9090055Y16615215D01*
X-9095396Y16619095D01*
X-9101424Y16621779D01*
X-9101426Y16621780D01*
X-9253459Y16689469D01*
X-9253460Y16689469D01*
X-9259490Y16692154D01*
X-9347339Y16710827D01*
X-9428731Y16728128D01*
X-9428736Y16728128D01*
X-9435188Y16729500D01*
X-9614812Y16729500D01*
X-9621264Y16728128D01*
X-9621269Y16728128D01*
X-9702661Y16710827D01*
X-9790510Y16692154D01*
X-9796540Y16689469D01*
X-9796541Y16689469D01*
X-9948573Y16621780D01*
X-9948575Y16621779D01*
X-9954603Y16619095D01*
X-9959944Y16615215D01*
X-9959945Y16615214D01*
X-10094578Y16517398D01*
X-10094580Y16517396D01*
X-10099922Y16513515D01*
X-10220113Y16380029D01*
X-10309925Y16224471D01*
X-10311966Y16218189D01*
X-10311967Y16218187D01*
X-10362813Y16061698D01*
X-10365431Y16053639D01*
X-10366121Y16047076D01*
X-10366121Y16047075D01*
X-10375261Y15960115D01*
X-10384207Y15875000D01*
X-10383517Y15868435D01*
X-10376904Y15805522D01*
X-10365431Y15696361D01*
X-10363391Y15690083D01*
X-10363391Y15690082D01*
X-10334752Y15601941D01*
X-10309925Y15525529D01*
X-10220113Y15369971D01*
X-10099922Y15236485D01*
X-10094580Y15232604D01*
X-10094578Y15232602D01*
X-10000941Y15164571D01*
X-9954604Y15130905D01*
X-9948576Y15128221D01*
X-9948574Y15128220D01*
X-9798003Y15061182D01*
X-9790510Y15057846D01*
X-9710508Y15040841D01*
X-9621269Y15021872D01*
X-9621264Y15021872D01*
X-9614812Y15020500D01*
X-9435188Y15020500D01*
X-9428736Y15021872D01*
X-9428731Y15021872D01*
X-9314077Y15046243D01*
X-9243286Y15040841D01*
X-9198785Y15012091D01*
X-9016894Y14830200D01*
X-8982868Y14767888D01*
X-8979989Y14741105D01*
X-8979989Y14221736D01*
X-8999991Y14153615D01*
X-9053647Y14107122D01*
X-9123921Y14097018D01*
X-9157237Y14106629D01*
X-9253455Y14149468D01*
X-9253463Y14149471D01*
X-9259490Y14152154D01*
X-9347339Y14170827D01*
X-9428731Y14188128D01*
X-9428736Y14188128D01*
X-9435188Y14189500D01*
X-9614812Y14189500D01*
X-9621264Y14188128D01*
X-9621269Y14188128D01*
X-9702661Y14170827D01*
X-9790510Y14152154D01*
X-9796540Y14149469D01*
X-9796541Y14149469D01*
X-9948573Y14081780D01*
X-9948575Y14081779D01*
X-9954603Y14079095D01*
X-9959944Y14075215D01*
X-9959945Y14075214D01*
X-10094578Y13977398D01*
X-10094580Y13977396D01*
X-10099922Y13973515D01*
X-10104343Y13968605D01*
X-10104344Y13968604D01*
X-10129968Y13940145D01*
X-10220113Y13840029D01*
X-10309925Y13684471D01*
X-10365431Y13513639D01*
X-10384207Y13335000D01*
X-10365431Y13156361D01*
X-10358612Y13135375D01*
X-10356585Y13064407D01*
X-10389350Y13007344D01*
X-10390216Y13006478D01*
X-10408964Y12991336D01*
X-10410189Y12990221D01*
X-10418940Y12984571D01*
X-10425387Y12976393D01*
X-10425389Y12976391D01*
X-10439729Y12958200D01*
X-10443675Y12953759D01*
X-10443602Y12953697D01*
X-10446961Y12949733D01*
X-10450638Y12946056D01*
X-10461892Y12930308D01*
X-10465398Y12925638D01*
X-10497156Y12885353D01*
X-10500188Y12876719D01*
X-10505514Y12869266D01*
X-10508499Y12859285D01*
X-10520201Y12820156D01*
X-10522036Y12814508D01*
X-10539018Y12766149D01*
X-10539500Y12760584D01*
X-10539500Y12757876D01*
X-10539614Y12755242D01*
X-10539643Y12755144D01*
X-10539807Y12755151D01*
X-10539851Y12754447D01*
X-10541713Y12748222D01*
X-10541304Y12737817D01*
X-10539597Y12694365D01*
X-10539500Y12689418D01*
X-10539500Y-27980187D01*
X-10559502Y-28048308D01*
X-10582670Y-28075135D01*
X-10649961Y-28133838D01*
X-10741050Y-28263444D01*
X-10798594Y-28411037D01*
X-10799586Y-28418570D01*
X-10801474Y-28425925D01*
X-10802716Y-28425606D01*
X-10828301Y-28483439D01*
X-10887566Y-28522530D01*
X-10958558Y-28523375D01*
X-11018736Y-28485704D01*
X-11048995Y-28421479D01*
X-11050500Y-28402065D01*
X-11050500Y13760302D01*
X-11030498Y13828423D01*
X-10998561Y13862238D01*
X-10866329Y13958311D01*
X-10855078Y13966485D01*
X-10734887Y14099971D01*
X-10680648Y14193916D01*
X-10648379Y14249806D01*
X-10648378Y14249807D01*
X-10645075Y14255529D01*
X-10589569Y14426361D01*
X-10570793Y14605000D01*
X-10589569Y14783639D01*
X-10626262Y14896569D01*
X-10643033Y14948187D01*
X-10643034Y14948189D01*
X-10645075Y14954471D01*
X-10655823Y14973088D01*
X-10731586Y15104311D01*
X-10734887Y15110029D01*
X-10790434Y15171721D01*
X-10850656Y15238604D01*
X-10850657Y15238605D01*
X-10855078Y15243515D01*
X-11000396Y15349095D01*
X-11006424Y15351779D01*
X-11006426Y15351780D01*
X-11158459Y15419469D01*
X-11158460Y15419469D01*
X-11164490Y15422154D01*
X-11252339Y15440827D01*
X-11333731Y15458128D01*
X-11333736Y15458128D01*
X-11340188Y15459500D01*
X-11519812Y15459500D01*
X-11526264Y15458128D01*
X-11526269Y15458128D01*
X-11607661Y15440827D01*
X-11695510Y15422154D01*
X-11701540Y15419469D01*
X-11701541Y15419469D01*
X-11853573Y15351780D01*
X-11853575Y15351779D01*
X-11859603Y15349095D01*
X-11864944Y15345215D01*
X-11864945Y15345214D01*
X-11999578Y15247398D01*
X-11999580Y15247396D01*
X-12004922Y15243515D01*
X-12009343Y15238605D01*
X-12009344Y15238604D01*
X-12069565Y15171721D01*
X-12125113Y15110029D01*
X-12128414Y15104311D01*
X-12204176Y14973088D01*
X-12214925Y14954471D01*
X-12216966Y14948189D01*
X-12216967Y14948187D01*
X-12233738Y14896569D01*
X-12270431Y14783639D01*
X-12289207Y14605000D01*
X-13081000Y14605000D01*
X-13081000Y16880000D01*
X-12241845Y16880000D01*
X-12216507Y16802019D01*
X-12211161Y16790011D01*
X-12128009Y16645987D01*
X-12120287Y16635358D01*
X-12009000Y16511762D01*
X-11999246Y16502980D01*
X-11864694Y16405222D01*
X-11853322Y16398656D01*
X-11701388Y16331010D01*
X-11698127Y16329951D01*
X-11687659Y16330750D01*
X-11684000Y16340705D01*
X-11684000Y16344026D01*
X-11176000Y16344026D01*
X-11172027Y16330495D01*
X-11163827Y16329316D01*
X-11158612Y16331010D01*
X-11006678Y16398656D01*
X-10995306Y16405222D01*
X-10860754Y16502980D01*
X-10851000Y16511762D01*
X-10739713Y16635358D01*
X-10731991Y16645987D01*
X-10648839Y16790011D01*
X-10643493Y16802019D01*
X-10620180Y16873769D01*
X-10619777Y16887867D01*
X-10626149Y16891000D01*
X-11157885Y16891000D01*
X-11173124Y16886525D01*
X-11174329Y16885135D01*
X-11176000Y16877452D01*
X-11176000Y16344026D01*
X-11684000Y16344026D01*
X-11684000Y16872885D01*
X-11688475Y16888124D01*
X-11689865Y16889329D01*
X-11697548Y16891000D01*
X-12227304Y16891000D01*
X-12240835Y16887027D01*
X-12241845Y16880000D01*
X-13081000Y16880000D01*
X-13081000Y17402133D01*
X-12240223Y17402133D01*
X-12233851Y17399000D01*
X-11702115Y17399000D01*
X-11686876Y17403475D01*
X-11685671Y17404865D01*
X-11684000Y17412548D01*
X-11684000Y17417115D01*
X-11176000Y17417115D01*
X-11171525Y17401876D01*
X-11170135Y17400671D01*
X-11162452Y17399000D01*
X-10632696Y17399000D01*
X-10619165Y17402973D01*
X-10618155Y17410000D01*
X-10643493Y17487981D01*
X-10648839Y17499989D01*
X-10731991Y17644013D01*
X-10739713Y17654642D01*
X-10851000Y17778238D01*
X-10860754Y17787020D01*
X-10995306Y17884778D01*
X-11006678Y17891344D01*
X-11158612Y17958990D01*
X-11161873Y17960049D01*
X-11172341Y17959250D01*
X-11176000Y17949295D01*
X-11176000Y17417115D01*
X-11684000Y17417115D01*
X-11684000Y17945974D01*
X-11687973Y17959505D01*
X-11696173Y17960684D01*
X-11701388Y17958990D01*
X-11853322Y17891344D01*
X-11864694Y17884778D01*
X-11999246Y17787020D01*
X-12009000Y17778238D01*
X-12120287Y17654642D01*
X-12128009Y17644013D01*
X-12211161Y17499989D01*
X-12216507Y17487981D01*
X-12239820Y17416231D01*
X-12240223Y17402133D01*
X-13081000Y17402133D01*
X-13081000Y19685000D01*
X-12289207Y19685000D01*
X-12270431Y19506361D01*
X-12214925Y19335529D01*
X-12125113Y19179971D01*
X-12120695Y19175064D01*
X-12120694Y19175063D01*
X-12050395Y19096988D01*
X-12004922Y19046485D01*
X-11999580Y19042604D01*
X-11999578Y19042602D01*
X-11880916Y18956389D01*
X-11859604Y18940905D01*
X-11853576Y18938221D01*
X-11853574Y18938220D01*
X-11812716Y18920029D01*
X-11695510Y18867846D01*
X-11616294Y18851008D01*
X-11526269Y18831872D01*
X-11526264Y18831872D01*
X-11519812Y18830500D01*
X-11340188Y18830500D01*
X-11333736Y18831872D01*
X-11333731Y18831872D01*
X-11243706Y18851008D01*
X-11164490Y18867846D01*
X-11047284Y18920029D01*
X-11006426Y18938220D01*
X-11006424Y18938221D01*
X-11000396Y18940905D01*
X-10979084Y18956389D01*
X-10860422Y19042602D01*
X-10860420Y19042604D01*
X-10855078Y19046485D01*
X-10734887Y19179971D01*
X-10720712Y19204522D01*
X-10698785Y19242500D01*
X-10647402Y19291493D01*
X-10589666Y19305500D01*
X-10140882Y19305500D01*
X-10072761Y19285498D01*
X-10026268Y19231842D01*
X-10016164Y19161568D01*
X-10045658Y19096988D01*
X-10066820Y19077565D01*
X-10099922Y19053515D01*
X-10104343Y19048605D01*
X-10104344Y19048604D01*
X-10187374Y18956389D01*
X-10220113Y18920029D01*
X-10263576Y18844749D01*
X-10292410Y18794807D01*
X-10309925Y18764471D01*
X-10311966Y18758189D01*
X-10311967Y18758187D01*
X-10324227Y18720454D01*
X-10365431Y18593639D01*
X-10384207Y18415000D01*
X-10365431Y18236361D01*
X-10309925Y18065529D01*
X-10220113Y17909971D01*
X-10215695Y17905064D01*
X-10215694Y17905063D01*
X-10119370Y17798084D01*
X-10099922Y17776485D01*
X-10094580Y17772604D01*
X-10094578Y17772602D01*
X-10076440Y17759424D01*
X-9954604Y17670905D01*
X-9948576Y17668221D01*
X-9948574Y17668220D01*
X-9796541Y17600531D01*
X-9790510Y17597846D01*
X-9702661Y17579173D01*
X-9621269Y17561872D01*
X-9621264Y17561872D01*
X-9614812Y17560500D01*
X-9435188Y17560500D01*
X-9428736Y17561872D01*
X-9428731Y17561872D01*
X-9347339Y17579173D01*
X-9259490Y17597846D01*
X-9253459Y17600531D01*
X-9101426Y17668220D01*
X-9101424Y17668221D01*
X-9095396Y17670905D01*
X-8973560Y17759424D01*
X-8955422Y17772602D01*
X-8955420Y17772604D01*
X-8950078Y17776485D01*
X-8869614Y17865849D01*
X-8834308Y17905061D01*
X-8829887Y17909971D01*
X-8807183Y17949295D01*
X-8793785Y17972500D01*
X-8742402Y18021493D01*
X-8684666Y18035500D01*
X-6559384Y18035500D01*
X-6491263Y18015498D01*
X-6470289Y17998595D01*
X-4861405Y16389711D01*
X-4827379Y16327399D01*
X-4824500Y16300616D01*
X-4824500Y-9855616D01*
X-4844502Y-9923737D01*
X-4861405Y-9944711D01*
X-6359637Y-11442943D01*
X-6421949Y-11476969D01*
X-6492764Y-11471904D01*
X-6501983Y-11468042D01*
X-6564307Y-11438979D01*
X-6564315Y-11438976D01*
X-6569297Y-11436653D01*
X-6781326Y-11379839D01*
X-7000000Y-11360708D01*
X-7218674Y-11379839D01*
X-7430703Y-11436653D01*
X-7523884Y-11480104D01*
X-7624659Y-11527095D01*
X-7624664Y-11527098D01*
X-7629646Y-11529421D01*
X-7634153Y-11532577D01*
X-7634155Y-11532578D01*
X-7804946Y-11652167D01*
X-7804949Y-11652169D01*
X-7809457Y-11655326D01*
X-7964674Y-11810543D01*
X-8090579Y-11990354D01*
X-8092902Y-11995336D01*
X-8092905Y-11995341D01*
X-8139896Y-12096116D01*
X-8183347Y-12189297D01*
X-8240161Y-12401326D01*
X-8240640Y-12406803D01*
X-8258979Y-12616422D01*
X-8259890Y-12618750D01*
X-8258979Y-12623578D01*
X-8240161Y-12838674D01*
X-8183347Y-13050703D01*
X-8181022Y-13055688D01*
X-8092905Y-13244659D01*
X-8092902Y-13244664D01*
X-8090579Y-13249646D01*
X-7964674Y-13429457D01*
X-7809457Y-13584674D01*
X-7804949Y-13587831D01*
X-7804946Y-13587833D01*
X-7634155Y-13707422D01*
X-7629646Y-13710579D01*
X-7624664Y-13712902D01*
X-7624659Y-13712905D01*
X-7523884Y-13759896D01*
X-7430703Y-13803347D01*
X-7218674Y-13860161D01*
X-7000000Y-13879292D01*
X-6781326Y-13860161D01*
X-6569297Y-13803347D01*
X-6476116Y-13759896D01*
X-6375341Y-13712905D01*
X-6375336Y-13712902D01*
X-6370354Y-13710579D01*
X-6365845Y-13707422D01*
X-6195054Y-13587833D01*
X-6195051Y-13587831D01*
X-6190543Y-13584674D01*
X-6035326Y-13429457D01*
X-5909421Y-13249646D01*
X-5907098Y-13244664D01*
X-5907095Y-13244659D01*
X-5818978Y-13055688D01*
X-5816653Y-13050703D01*
X-5759839Y-12838674D01*
X-5740708Y-12620000D01*
X-5759839Y-12401326D01*
X-5816653Y-12189297D01*
X-5818976Y-12184315D01*
X-5818979Y-12184307D01*
X-5848042Y-12121983D01*
X-5858704Y-12051791D01*
X-5829725Y-11986978D01*
X-5822943Y-11979637D01*
X-4214784Y-10371478D01*
X-4196036Y-10356336D01*
X-4194811Y-10355221D01*
X-4186060Y-10349571D01*
X-4179613Y-10341393D01*
X-4179611Y-10341391D01*
X-4165271Y-10323200D01*
X-4161325Y-10318759D01*
X-4161398Y-10318697D01*
X-4158039Y-10314733D01*
X-4154362Y-10311056D01*
X-4143108Y-10295308D01*
X-4139602Y-10290638D01*
X-4107844Y-10250353D01*
X-4104812Y-10241719D01*
X-4099486Y-10234266D01*
X-4084797Y-10185150D01*
X-4082964Y-10179508D01*
X-4068610Y-10138633D01*
X-4068610Y-10138632D01*
X-4065982Y-10131149D01*
X-4065500Y-10125584D01*
X-4065500Y-10122876D01*
X-4065386Y-10120242D01*
X-4065357Y-10120144D01*
X-4065193Y-10120151D01*
X-4065149Y-10119447D01*
X-4063287Y-10113222D01*
X-4065403Y-10059365D01*
X-4065500Y-10054418D01*
X-4065500Y16456080D01*
X-4062951Y16480028D01*
X-4062872Y16481693D01*
X-4060680Y16491876D01*
X-4064627Y16525223D01*
X-4064977Y16531154D01*
X-4065072Y16531146D01*
X-4065500Y16536324D01*
X-4065500Y16541524D01*
X-4066354Y16546656D01*
X-4068669Y16560565D01*
X-4069506Y16566443D01*
X-4074306Y16607001D01*
X-4074306Y16607002D01*
X-4075530Y16617341D01*
X-4079493Y16625593D01*
X-4080996Y16634626D01*
X-4105335Y16679734D01*
X-4108031Y16685025D01*
X-4126785Y16724082D01*
X-4126788Y16724086D01*
X-4130219Y16731232D01*
X-4133814Y16735508D01*
X-4135737Y16737431D01*
X-4137509Y16739363D01*
X-4137552Y16739442D01*
X-4137428Y16739555D01*
X-4137904Y16740095D01*
X-4140990Y16745814D01*
X-4180587Y16782417D01*
X-4184152Y16785846D01*
X-6043522Y18645216D01*
X-6058664Y18663964D01*
X-6059779Y18665189D01*
X-6065429Y18673940D01*
X-6073607Y18680387D01*
X-6073609Y18680389D01*
X-6091800Y18694729D01*
X-6096241Y18698675D01*
X-6096303Y18698602D01*
X-6100267Y18701961D01*
X-6103944Y18705638D01*
X-6119692Y18716892D01*
X-6124362Y18720398D01*
X-6164647Y18752156D01*
X-6173281Y18755188D01*
X-6180734Y18760514D01*
X-6229850Y18775203D01*
X-6235492Y18777036D01*
X-6276367Y18791390D01*
X-6276368Y18791390D01*
X-6283851Y18794018D01*
X-6289416Y18794500D01*
X-6292124Y18794500D01*
X-6294758Y18794614D01*
X-6294856Y18794643D01*
X-6294849Y18794807D01*
X-6295553Y18794851D01*
X-6301778Y18796713D01*
X-6355635Y18794597D01*
X-6360582Y18794500D01*
X-8684666Y18794500D01*
X-8752787Y18814502D01*
X-8793785Y18857500D01*
X-8826583Y18914307D01*
X-8826586Y18914311D01*
X-8829887Y18920029D01*
X-8950078Y19053515D01*
X-8983179Y19077564D01*
X-9026533Y19133786D01*
X-9032609Y19204522D01*
X-8999477Y19267314D01*
X-8937657Y19302225D01*
X-8909118Y19305500D01*
X-5924384Y19305500D01*
X-5856263Y19285498D01*
X-5835289Y19268595D01*
X-5134751Y18568057D01*
X-5100725Y18505745D01*
X-5098924Y18462518D01*
X-5104271Y18421904D01*
X-5086887Y18264447D01*
X-5084277Y18257316D01*
X-5084277Y18257314D01*
X-5074311Y18230082D01*
X-5032447Y18115681D01*
X-5028211Y18109378D01*
X-5028211Y18109377D01*
X-4953768Y17998595D01*
X-4944092Y17984195D01*
X-4938473Y17979082D01*
X-4938472Y17979081D01*
X-4832540Y17882691D01*
X-4826924Y17877581D01*
X-4687707Y17801992D01*
X-4534478Y17761793D01*
X-4450523Y17760474D01*
X-4383681Y17759424D01*
X-4383678Y17759424D01*
X-4376084Y17759305D01*
X-4221668Y17794671D01*
X-4151258Y17830083D01*
X-4086928Y17862437D01*
X-4086925Y17862439D01*
X-4080145Y17865849D01*
X-4074374Y17870778D01*
X-4074371Y17870780D01*
X-3965464Y17963796D01*
X-3965464Y17963797D01*
X-3959686Y17968731D01*
X-3867245Y18097376D01*
X-3808158Y18244359D01*
X-3785838Y18401193D01*
X-3785693Y18415000D01*
X-3787439Y18429433D01*
X-3803812Y18564727D01*
X-3804724Y18572267D01*
X-3860720Y18720454D01*
X-3885462Y18756454D01*
X-3946145Y18844749D01*
X-3946146Y18844751D01*
X-3950447Y18851008D01*
X-3957733Y18857500D01*
X-4033426Y18924939D01*
X-4068725Y18956389D01*
X-4208726Y19030516D01*
X-4362367Y19069108D01*
X-4369966Y19069148D01*
X-4369967Y19069148D01*
X-4430374Y19069464D01*
X-4511665Y19069890D01*
X-4579679Y19090248D01*
X-4600099Y19106793D01*
X-5408522Y19915216D01*
X-5423664Y19933964D01*
X-5424779Y19935189D01*
X-5430429Y19943940D01*
X-5438607Y19950387D01*
X-5438609Y19950389D01*
X-5456800Y19964729D01*
X-5461241Y19968675D01*
X-5461303Y19968602D01*
X-5465267Y19971961D01*
X-5468944Y19975638D01*
X-5484692Y19986892D01*
X-5489362Y19990398D01*
X-5529647Y20022156D01*
X-5538281Y20025188D01*
X-5545734Y20030514D01*
X-5594850Y20045203D01*
X-5600492Y20047036D01*
X-5641367Y20061390D01*
X-5641368Y20061390D01*
X-5648851Y20064018D01*
X-5654416Y20064500D01*
X-5657124Y20064500D01*
X-5659758Y20064614D01*
X-5659856Y20064643D01*
X-5659849Y20064807D01*
X-5660553Y20064851D01*
X-5666778Y20066713D01*
X-5720635Y20064597D01*
X-5725582Y20064500D01*
X-8909118Y20064500D01*
X-8977239Y20084502D01*
X-9023732Y20138158D01*
X-9033836Y20208432D01*
X-9004342Y20273012D01*
X-8983181Y20292434D01*
X-8950078Y20316485D01*
X-8869614Y20405849D01*
X-8834308Y20445061D01*
X-8829887Y20449971D01*
X-8801309Y20499469D01*
X-8793785Y20512500D01*
X-8742402Y20561493D01*
X-8684666Y20575500D01*
X-5679859Y20575500D01*
X-5611738Y20555498D01*
X-5584478Y20531831D01*
X-5583328Y20530499D01*
X-5579092Y20524195D01*
X-5461924Y20417581D01*
X-5322707Y20341992D01*
X-5169478Y20301793D01*
X-5085523Y20300474D01*
X-5018681Y20299424D01*
X-5018678Y20299424D01*
X-5011084Y20299305D01*
X-4856668Y20334671D01*
X-4786258Y20370083D01*
X-4721928Y20402437D01*
X-4721925Y20402439D01*
X-4715145Y20405849D01*
X-4709374Y20410778D01*
X-4709371Y20410780D01*
X-4600464Y20503796D01*
X-4600464Y20503797D01*
X-4594686Y20508731D01*
X-4502245Y20637376D01*
X-4443158Y20784359D01*
X-4420838Y20941193D01*
X-4420693Y20955000D01*
X-4439724Y21112267D01*
X-4495720Y21260454D01*
X-4546610Y21334500D01*
X-4581145Y21384749D01*
X-4581146Y21384751D01*
X-4585447Y21391008D01*
X-4592733Y21397500D01*
X-4683822Y21478656D01*
X-4703725Y21496389D01*
X-4711111Y21500300D01*
X-4837012Y21566961D01*
X-4837011Y21566961D01*
X-4843726Y21570516D01*
X-4997367Y21609108D01*
X-5004966Y21609148D01*
X-5004967Y21609148D01*
X-5070819Y21609493D01*
X-5155779Y21609938D01*
X-5163159Y21608166D01*
X-5163161Y21608166D01*
X-5302437Y21574729D01*
X-5302440Y21574728D01*
X-5309816Y21572957D01*
X-5450586Y21500300D01*
X-5569961Y21396162D01*
X-5574328Y21389949D01*
X-5574333Y21389943D01*
X-5575664Y21388049D01*
X-5576987Y21386995D01*
X-5579411Y21384303D01*
X-5579860Y21384707D01*
X-5631198Y21343817D01*
X-5678750Y21334500D01*
X-8684666Y21334500D01*
X-8752787Y21354502D01*
X-8793785Y21397500D01*
X-8826583Y21454307D01*
X-8826586Y21454311D01*
X-8829887Y21460029D01*
X-8931035Y21572366D01*
X-8945656Y21588604D01*
X-8945657Y21588605D01*
X-8950078Y21593515D01*
X-8971539Y21609108D01*
X-9090054Y21695214D01*
X-9090055Y21695215D01*
X-9095396Y21699095D01*
X-9101424Y21701779D01*
X-9101426Y21701780D01*
X-9253459Y21769469D01*
X-9253460Y21769469D01*
X-9259490Y21772154D01*
X-9347339Y21790827D01*
X-9428731Y21808128D01*
X-9428736Y21808128D01*
X-9435188Y21809500D01*
X-9614812Y21809500D01*
X-9621264Y21808128D01*
X-9621269Y21808128D01*
X-9702661Y21790827D01*
X-9790510Y21772154D01*
X-9796540Y21769469D01*
X-9796541Y21769469D01*
X-9948573Y21701780D01*
X-9948575Y21701779D01*
X-9954603Y21699095D01*
X-9959944Y21695215D01*
X-9959945Y21695214D01*
X-10094578Y21597398D01*
X-10094580Y21597396D01*
X-10099922Y21593515D01*
X-10104343Y21588605D01*
X-10104344Y21588604D01*
X-10187374Y21496389D01*
X-10220113Y21460029D01*
X-10260577Y21389943D01*
X-10287208Y21343817D01*
X-10309925Y21304471D01*
X-10311966Y21298189D01*
X-10311967Y21298187D01*
X-10324227Y21260454D01*
X-10365431Y21133639D01*
X-10384207Y20955000D01*
X-10365431Y20776361D01*
X-10309925Y20605529D01*
X-10220113Y20449971D01*
X-10215695Y20445064D01*
X-10215694Y20445063D01*
X-10119370Y20338084D01*
X-10099922Y20316485D01*
X-10066821Y20292436D01*
X-10023467Y20236214D01*
X-10017391Y20165478D01*
X-10050523Y20102686D01*
X-10112343Y20067775D01*
X-10140882Y20064500D01*
X-10589666Y20064500D01*
X-10657787Y20084502D01*
X-10698785Y20127500D01*
X-10731583Y20184307D01*
X-10731586Y20184311D01*
X-10734887Y20190029D01*
X-10855078Y20323515D01*
X-10868099Y20332976D01*
X-10995054Y20425214D01*
X-10995055Y20425215D01*
X-11000396Y20429095D01*
X-11006424Y20431779D01*
X-11006426Y20431780D01*
X-11158459Y20499469D01*
X-11158460Y20499469D01*
X-11164490Y20502154D01*
X-11268184Y20524195D01*
X-11333731Y20538128D01*
X-11333736Y20538128D01*
X-11340188Y20539500D01*
X-11519812Y20539500D01*
X-11526264Y20538128D01*
X-11526269Y20538128D01*
X-11591816Y20524195D01*
X-11695510Y20502154D01*
X-11701540Y20499469D01*
X-11701541Y20499469D01*
X-11853573Y20431780D01*
X-11853575Y20431779D01*
X-11859603Y20429095D01*
X-11864944Y20425215D01*
X-11864945Y20425214D01*
X-11999578Y20327398D01*
X-11999580Y20327396D01*
X-12004922Y20323515D01*
X-12125113Y20190029D01*
X-12155061Y20138158D01*
X-12197410Y20064807D01*
X-12214925Y20034471D01*
X-12216966Y20028189D01*
X-12216967Y20028187D01*
X-12221022Y20015707D01*
X-12270431Y19863639D01*
X-12289207Y19685000D01*
X-13081000Y19685000D01*
X-13081000Y21960000D01*
X-12241845Y21960000D01*
X-12216507Y21882019D01*
X-12211161Y21870011D01*
X-12128009Y21725987D01*
X-12120287Y21715358D01*
X-12009000Y21591762D01*
X-11999246Y21582980D01*
X-11864694Y21485222D01*
X-11853322Y21478656D01*
X-11701388Y21411010D01*
X-11698127Y21409951D01*
X-11687659Y21410750D01*
X-11684000Y21420705D01*
X-11684000Y21424026D01*
X-11176000Y21424026D01*
X-11172027Y21410495D01*
X-11163827Y21409316D01*
X-11158612Y21411010D01*
X-11006678Y21478656D01*
X-10995306Y21485222D01*
X-10860754Y21582980D01*
X-10851000Y21591762D01*
X-10739713Y21715358D01*
X-10731991Y21725987D01*
X-10648839Y21870011D01*
X-10643493Y21882019D01*
X-10620180Y21953769D01*
X-10619777Y21967867D01*
X-10626149Y21971000D01*
X-11157885Y21971000D01*
X-11173124Y21966525D01*
X-11174329Y21965135D01*
X-11176000Y21957452D01*
X-11176000Y21424026D01*
X-11684000Y21424026D01*
X-11684000Y21952885D01*
X-11688475Y21968124D01*
X-11689865Y21969329D01*
X-11697548Y21971000D01*
X-12227304Y21971000D01*
X-12240835Y21967027D01*
X-12241845Y21960000D01*
X-13081000Y21960000D01*
X-13081000Y22482133D01*
X-12240223Y22482133D01*
X-12233851Y22479000D01*
X-11702115Y22479000D01*
X-11686876Y22483475D01*
X-11685671Y22484865D01*
X-11684000Y22492548D01*
X-11684000Y22497115D01*
X-11176000Y22497115D01*
X-11171525Y22481876D01*
X-11170135Y22480671D01*
X-11162452Y22479000D01*
X-10632696Y22479000D01*
X-10619165Y22482973D01*
X-10618155Y22490000D01*
X-10643493Y22567981D01*
X-10648839Y22579989D01*
X-10731991Y22724013D01*
X-10739713Y22734642D01*
X-10851000Y22858238D01*
X-10860754Y22867020D01*
X-10995306Y22964778D01*
X-11006678Y22971344D01*
X-11158612Y23038990D01*
X-11161873Y23040049D01*
X-11172341Y23039250D01*
X-11176000Y23029295D01*
X-11176000Y22497115D01*
X-11684000Y22497115D01*
X-11684000Y23025974D01*
X-11687973Y23039505D01*
X-11696173Y23040684D01*
X-11701388Y23038990D01*
X-11853322Y22971344D01*
X-11864694Y22964778D01*
X-11999246Y22867020D01*
X-12009000Y22858238D01*
X-12120287Y22734642D01*
X-12128009Y22724013D01*
X-12211161Y22579989D01*
X-12216507Y22567981D01*
X-12239820Y22496231D01*
X-12240223Y22482133D01*
X-13081000Y22482133D01*
X-13081000Y24765000D01*
X-12289207Y24765000D01*
X-12270431Y24586361D01*
X-12214925Y24415529D01*
X-12125113Y24259971D01*
X-12120695Y24255064D01*
X-12120694Y24255063D01*
X-12024370Y24148084D01*
X-12004922Y24126485D01*
X-11999580Y24122604D01*
X-11999578Y24122602D01*
X-11981440Y24109424D01*
X-11859604Y24020905D01*
X-11853576Y24018221D01*
X-11853574Y24018220D01*
X-11812716Y24000029D01*
X-11695510Y23947846D01*
X-11607661Y23929173D01*
X-11526269Y23911872D01*
X-11526264Y23911872D01*
X-11519812Y23910500D01*
X-11340188Y23910500D01*
X-11333736Y23911872D01*
X-11333731Y23911872D01*
X-11252339Y23929173D01*
X-11164490Y23947846D01*
X-11047284Y24000029D01*
X-11006426Y24018220D01*
X-11006424Y24018221D01*
X-11000396Y24020905D01*
X-10878560Y24109424D01*
X-10860422Y24122602D01*
X-10860420Y24122604D01*
X-10855078Y24126485D01*
X-10774614Y24215849D01*
X-10739308Y24255061D01*
X-10734887Y24259971D01*
X-10720712Y24284522D01*
X-10698785Y24322500D01*
X-10647402Y24371493D01*
X-10589666Y24385500D01*
X-10140882Y24385500D01*
X-10072761Y24365498D01*
X-10026268Y24311842D01*
X-10016164Y24241568D01*
X-10045658Y24176988D01*
X-10066820Y24157565D01*
X-10099922Y24133515D01*
X-10220113Y24000029D01*
X-10248691Y23950531D01*
X-10292410Y23874807D01*
X-10309925Y23844471D01*
X-10311966Y23838189D01*
X-10311967Y23838187D01*
X-10316022Y23825707D01*
X-10365431Y23673639D01*
X-10384207Y23495000D01*
X-10365431Y23316361D01*
X-10309925Y23145529D01*
X-10220113Y22989971D01*
X-10215695Y22985064D01*
X-10215694Y22985063D01*
X-10109408Y22867020D01*
X-10099922Y22856485D01*
X-10094580Y22852604D01*
X-10094578Y22852602D01*
X-9959946Y22754786D01*
X-9954604Y22750905D01*
X-9948576Y22748221D01*
X-9948574Y22748220D01*
X-9833273Y22696885D01*
X-9790510Y22677846D01*
X-9702661Y22659173D01*
X-9621269Y22641872D01*
X-9621264Y22641872D01*
X-9614812Y22640500D01*
X-9435188Y22640500D01*
X-9428736Y22641872D01*
X-9428731Y22641872D01*
X-9347339Y22659173D01*
X-9259490Y22677846D01*
X-9216727Y22696885D01*
X-9101426Y22748220D01*
X-9101424Y22748221D01*
X-9095396Y22750905D01*
X-9090054Y22754786D01*
X-8955422Y22852602D01*
X-8955420Y22852604D01*
X-8950078Y22856485D01*
X-8933917Y22874433D01*
X-8834308Y22985061D01*
X-8829887Y22989971D01*
X-8826583Y22995693D01*
X-8793785Y23052500D01*
X-8742402Y23101493D01*
X-8684666Y23115500D01*
X-8464384Y23115500D01*
X-8396263Y23095498D01*
X-8375289Y23078595D01*
X-8309751Y23013057D01*
X-8275725Y22950745D01*
X-8273924Y22907518D01*
X-8279271Y22866904D01*
X-8270579Y22788175D01*
X-8263495Y22724013D01*
X-8261887Y22709447D01*
X-8259277Y22702316D01*
X-8259277Y22702314D01*
X-8210118Y22567981D01*
X-8207447Y22560681D01*
X-8203211Y22554378D01*
X-8203211Y22554377D01*
X-8153682Y22480671D01*
X-8119092Y22429195D01*
X-8113473Y22424082D01*
X-8113472Y22424081D01*
X-8102097Y22413731D01*
X-8001924Y22322581D01*
X-7862707Y22246992D01*
X-7709478Y22206793D01*
X-7625523Y22205474D01*
X-7558681Y22204424D01*
X-7558678Y22204424D01*
X-7551084Y22204305D01*
X-7396668Y22239671D01*
X-7326258Y22275083D01*
X-7261928Y22307437D01*
X-7261925Y22307439D01*
X-7255145Y22310849D01*
X-7249374Y22315778D01*
X-7249371Y22315780D01*
X-7140464Y22408796D01*
X-7140464Y22408797D01*
X-7134686Y22413731D01*
X-7042245Y22542376D01*
X-6983158Y22689359D01*
X-6977035Y22732385D01*
X-6961419Y22842109D01*
X-6961419Y22842112D01*
X-6960838Y22846193D01*
X-6960693Y22860000D01*
X-6962439Y22874433D01*
X-6971674Y22950745D01*
X-6979724Y23017267D01*
X-7035720Y23165454D01*
X-7125447Y23296008D01*
X-7243725Y23401389D01*
X-7383726Y23475516D01*
X-7537367Y23514108D01*
X-7544966Y23514148D01*
X-7544967Y23514148D01*
X-7605374Y23514464D01*
X-7686665Y23514890D01*
X-7754679Y23535248D01*
X-7775099Y23551793D01*
X-7948522Y23725216D01*
X-7963664Y23743964D01*
X-7964779Y23745189D01*
X-7970429Y23753940D01*
X-7978607Y23760387D01*
X-7978609Y23760389D01*
X-7996800Y23774729D01*
X-8001241Y23778675D01*
X-8001303Y23778602D01*
X-8005267Y23781961D01*
X-8008944Y23785638D01*
X-8024692Y23796892D01*
X-8029362Y23800398D01*
X-8069647Y23832156D01*
X-8078281Y23835188D01*
X-8085734Y23840514D01*
X-8134850Y23855203D01*
X-8140492Y23857036D01*
X-8181367Y23871390D01*
X-8181368Y23871390D01*
X-8188851Y23874018D01*
X-8194416Y23874500D01*
X-8197124Y23874500D01*
X-8199758Y23874614D01*
X-8199856Y23874643D01*
X-8199849Y23874807D01*
X-8200553Y23874851D01*
X-8206778Y23876713D01*
X-8260635Y23874597D01*
X-8265582Y23874500D01*
X-8684666Y23874500D01*
X-8752787Y23894502D01*
X-8793785Y23937500D01*
X-8826583Y23994307D01*
X-8826586Y23994311D01*
X-8829887Y24000029D01*
X-8950078Y24133515D01*
X-8983179Y24157564D01*
X-9026533Y24213786D01*
X-9032609Y24284522D01*
X-8999477Y24347314D01*
X-8937657Y24382225D01*
X-8909118Y24385500D01*
X-7194384Y24385500D01*
X-7126263Y24365498D01*
X-7105289Y24348595D01*
X-5769751Y23013057D01*
X-5735725Y22950745D01*
X-5733924Y22907518D01*
X-5739271Y22866904D01*
X-5730579Y22788175D01*
X-5723495Y22724013D01*
X-5721887Y22709447D01*
X-5719277Y22702316D01*
X-5719277Y22702314D01*
X-5670118Y22567981D01*
X-5667447Y22560681D01*
X-5663211Y22554378D01*
X-5663211Y22554377D01*
X-5613682Y22480671D01*
X-5579092Y22429195D01*
X-5573473Y22424082D01*
X-5573472Y22424081D01*
X-5562097Y22413731D01*
X-5461924Y22322581D01*
X-5322707Y22246992D01*
X-5169478Y22206793D01*
X-5085523Y22205474D01*
X-5018681Y22204424D01*
X-5018678Y22204424D01*
X-5011084Y22204305D01*
X-4856668Y22239671D01*
X-4786258Y22275083D01*
X-4721928Y22307437D01*
X-4721925Y22307439D01*
X-4715145Y22310849D01*
X-4709374Y22315778D01*
X-4709371Y22315780D01*
X-4600464Y22408796D01*
X-4600464Y22408797D01*
X-4594686Y22413731D01*
X-4502245Y22542376D01*
X-4443158Y22689359D01*
X-4437035Y22732385D01*
X-4421419Y22842109D01*
X-4421419Y22842112D01*
X-4420838Y22846193D01*
X-4420693Y22860000D01*
X-4422439Y22874433D01*
X-4431674Y22950745D01*
X-4439724Y23017267D01*
X-4495720Y23165454D01*
X-4585447Y23296008D01*
X-4703725Y23401389D01*
X-4843726Y23475516D01*
X-4997367Y23514108D01*
X-5004966Y23514148D01*
X-5004967Y23514148D01*
X-5065374Y23514464D01*
X-5146665Y23514890D01*
X-5214679Y23535248D01*
X-5235099Y23551793D01*
X-6678522Y24995216D01*
X-6693664Y25013964D01*
X-6694779Y25015189D01*
X-6700429Y25023940D01*
X-6708607Y25030387D01*
X-6708609Y25030389D01*
X-6726800Y25044729D01*
X-6731241Y25048675D01*
X-6731303Y25048602D01*
X-6735267Y25051961D01*
X-6738944Y25055638D01*
X-6754692Y25066892D01*
X-6759362Y25070398D01*
X-6799647Y25102156D01*
X-6808281Y25105188D01*
X-6815734Y25110514D01*
X-6864850Y25125203D01*
X-6870492Y25127036D01*
X-6911367Y25141390D01*
X-6911368Y25141390D01*
X-6918851Y25144018D01*
X-6924416Y25144500D01*
X-6927124Y25144500D01*
X-6929758Y25144614D01*
X-6929856Y25144643D01*
X-6929849Y25144807D01*
X-6930553Y25144851D01*
X-6936778Y25146713D01*
X-6990635Y25144597D01*
X-6995582Y25144500D01*
X-8909118Y25144500D01*
X-8977239Y25164502D01*
X-9023732Y25218158D01*
X-9033836Y25288432D01*
X-9004342Y25353012D01*
X-8983181Y25372434D01*
X-8950078Y25396485D01*
X-8829887Y25529971D01*
X-8801309Y25579469D01*
X-8793785Y25592500D01*
X-8742402Y25641493D01*
X-8684666Y25655500D01*
X-5924384Y25655500D01*
X-5856263Y25635498D01*
X-5835289Y25618595D01*
X-5134751Y24918057D01*
X-5100725Y24855745D01*
X-5098924Y24812518D01*
X-5104271Y24771904D01*
X-5086887Y24614447D01*
X-5084277Y24607316D01*
X-5084277Y24607314D01*
X-5074311Y24580082D01*
X-5032447Y24465681D01*
X-5028211Y24459378D01*
X-5028211Y24459377D01*
X-4953768Y24348595D01*
X-4944092Y24334195D01*
X-4938473Y24329082D01*
X-4938472Y24329081D01*
X-4857127Y24255063D01*
X-4826924Y24227581D01*
X-4687707Y24151992D01*
X-4534478Y24111793D01*
X-4450523Y24110474D01*
X-4383681Y24109424D01*
X-4383678Y24109424D01*
X-4376084Y24109305D01*
X-4221668Y24144671D01*
X-4151258Y24180083D01*
X-4086928Y24212437D01*
X-4086925Y24212439D01*
X-4080145Y24215849D01*
X-4074374Y24220778D01*
X-4074371Y24220780D01*
X-3965464Y24313796D01*
X-3965464Y24313797D01*
X-3959686Y24318731D01*
X-3867245Y24447376D01*
X-3808158Y24594359D01*
X-3785838Y24751193D01*
X-3785693Y24765000D01*
X-3787439Y24779433D01*
X-3803812Y24914727D01*
X-3804724Y24922267D01*
X-3860720Y25070454D01*
X-3885462Y25106454D01*
X-3946145Y25194749D01*
X-3946146Y25194751D01*
X-3950447Y25201008D01*
X-3957733Y25207500D01*
X-3986740Y25233344D01*
X-4068725Y25306389D01*
X-4208726Y25380516D01*
X-4362367Y25419108D01*
X-4369966Y25419148D01*
X-4369967Y25419148D01*
X-4430374Y25419464D01*
X-4511665Y25419890D01*
X-4579679Y25440248D01*
X-4600099Y25456793D01*
X-5408522Y26265216D01*
X-5423664Y26283964D01*
X-5424779Y26285189D01*
X-5430429Y26293940D01*
X-5438607Y26300387D01*
X-5438609Y26300389D01*
X-5456800Y26314729D01*
X-5461241Y26318675D01*
X-5461303Y26318602D01*
X-5465267Y26321961D01*
X-5468944Y26325638D01*
X-5484692Y26336892D01*
X-5489362Y26340398D01*
X-5529647Y26372156D01*
X-5538281Y26375188D01*
X-5545734Y26380514D01*
X-5594850Y26395203D01*
X-5600492Y26397036D01*
X-5641367Y26411390D01*
X-5641368Y26411390D01*
X-5648851Y26414018D01*
X-5654416Y26414500D01*
X-5657124Y26414500D01*
X-5659758Y26414614D01*
X-5659856Y26414643D01*
X-5659849Y26414807D01*
X-5660553Y26414851D01*
X-5666778Y26416713D01*
X-5720635Y26414597D01*
X-5725582Y26414500D01*
X-8684666Y26414500D01*
X-8752787Y26434502D01*
X-8793785Y26477500D01*
X-8826583Y26534307D01*
X-8826586Y26534311D01*
X-8829887Y26540029D01*
X-8950078Y26673515D01*
X-9070088Y26760708D01*
X-9090054Y26775214D01*
X-9090055Y26775215D01*
X-9095396Y26779095D01*
X-9101424Y26781779D01*
X-9101426Y26781780D01*
X-9253459Y26849469D01*
X-9253460Y26849469D01*
X-9259490Y26852154D01*
X-9347339Y26870827D01*
X-9428731Y26888128D01*
X-9428736Y26888128D01*
X-9435188Y26889500D01*
X-9614812Y26889500D01*
X-9621264Y26888128D01*
X-9621269Y26888128D01*
X-9702661Y26870827D01*
X-9790510Y26852154D01*
X-9796540Y26849469D01*
X-9796541Y26849469D01*
X-9948573Y26781780D01*
X-9948575Y26781779D01*
X-9954603Y26779095D01*
X-9959944Y26775215D01*
X-9959945Y26775214D01*
X-10094578Y26677398D01*
X-10094580Y26677396D01*
X-10099922Y26673515D01*
X-10220113Y26540029D01*
X-10249026Y26489951D01*
X-10292410Y26414807D01*
X-10309925Y26384471D01*
X-10311966Y26378189D01*
X-10311967Y26378187D01*
X-10316022Y26365707D01*
X-10365431Y26213639D01*
X-10384207Y26035000D01*
X-10365431Y25856361D01*
X-10309925Y25685529D01*
X-10220113Y25529971D01*
X-10215695Y25525064D01*
X-10215694Y25525063D01*
X-10139326Y25440248D01*
X-10099922Y25396485D01*
X-10066821Y25372436D01*
X-10023467Y25316214D01*
X-10017391Y25245478D01*
X-10050523Y25182686D01*
X-10112343Y25147775D01*
X-10140882Y25144500D01*
X-10589666Y25144500D01*
X-10657787Y25164502D01*
X-10698785Y25207500D01*
X-10731583Y25264307D01*
X-10731586Y25264311D01*
X-10734887Y25270029D01*
X-10855078Y25403515D01*
X-10876539Y25419108D01*
X-10995054Y25505214D01*
X-10995055Y25505215D01*
X-11000396Y25509095D01*
X-11006424Y25511779D01*
X-11006426Y25511780D01*
X-11158459Y25579469D01*
X-11158460Y25579469D01*
X-11164490Y25582154D01*
X-11252339Y25600827D01*
X-11333731Y25618128D01*
X-11333736Y25618128D01*
X-11340188Y25619500D01*
X-11519812Y25619500D01*
X-11526264Y25618128D01*
X-11526269Y25618128D01*
X-11607661Y25600827D01*
X-11695510Y25582154D01*
X-11701540Y25579469D01*
X-11701541Y25579469D01*
X-11853573Y25511780D01*
X-11853575Y25511779D01*
X-11859603Y25509095D01*
X-11864944Y25505215D01*
X-11864945Y25505214D01*
X-11999578Y25407398D01*
X-11999580Y25407396D01*
X-12004922Y25403515D01*
X-12009343Y25398605D01*
X-12009344Y25398604D01*
X-12092374Y25306389D01*
X-12125113Y25270029D01*
X-12168576Y25194749D01*
X-12197410Y25144807D01*
X-12214925Y25114471D01*
X-12216966Y25108189D01*
X-12216967Y25108187D01*
X-12229227Y25070454D01*
X-12270431Y24943639D01*
X-12289207Y24765000D01*
X-13081000Y24765000D01*
X-13081000Y27040000D01*
X-12241845Y27040000D01*
X-12216507Y26962019D01*
X-12211161Y26950011D01*
X-12128009Y26805987D01*
X-12120287Y26795358D01*
X-12009000Y26671762D01*
X-11999246Y26662980D01*
X-11864694Y26565222D01*
X-11853322Y26558656D01*
X-11701388Y26491010D01*
X-11698127Y26489951D01*
X-11687659Y26490750D01*
X-11684000Y26500705D01*
X-11684000Y26504026D01*
X-11176000Y26504026D01*
X-11172027Y26490495D01*
X-11163827Y26489316D01*
X-11158612Y26491010D01*
X-11006678Y26558656D01*
X-10995306Y26565222D01*
X-10860754Y26662980D01*
X-10851000Y26671762D01*
X-10739713Y26795358D01*
X-10731991Y26805987D01*
X-10648839Y26950011D01*
X-10643493Y26962019D01*
X-10620180Y27033769D01*
X-10619777Y27047867D01*
X-10626149Y27051000D01*
X-11157885Y27051000D01*
X-11173124Y27046525D01*
X-11174329Y27045135D01*
X-11176000Y27037452D01*
X-11176000Y26504026D01*
X-11684000Y26504026D01*
X-11684000Y27032885D01*
X-11688475Y27048124D01*
X-11689865Y27049329D01*
X-11697548Y27051000D01*
X-12227304Y27051000D01*
X-12240835Y27047027D01*
X-12241845Y27040000D01*
X-13081000Y27040000D01*
X-13081000Y27562133D01*
X-12240223Y27562133D01*
X-12233851Y27559000D01*
X-11702115Y27559000D01*
X-11686876Y27563475D01*
X-11685671Y27564865D01*
X-11684000Y27572548D01*
X-11684000Y27577115D01*
X-11176000Y27577115D01*
X-11171525Y27561876D01*
X-11170135Y27560671D01*
X-11162452Y27559000D01*
X-10632696Y27559000D01*
X-10619165Y27562973D01*
X-10618155Y27570000D01*
X-10643493Y27647981D01*
X-10648839Y27659989D01*
X-10731991Y27804013D01*
X-10739713Y27814642D01*
X-10851000Y27938238D01*
X-10860754Y27947020D01*
X-10995306Y28044778D01*
X-11006678Y28051344D01*
X-11158612Y28118990D01*
X-11161873Y28120049D01*
X-11172341Y28119250D01*
X-11176000Y28109295D01*
X-11176000Y27577115D01*
X-11684000Y27577115D01*
X-11684000Y28105974D01*
X-11687973Y28119505D01*
X-11696173Y28120684D01*
X-11701388Y28118990D01*
X-11853322Y28051344D01*
X-11864694Y28044778D01*
X-11999246Y27947020D01*
X-12009000Y27938238D01*
X-12120287Y27814642D01*
X-12128009Y27804013D01*
X-12211161Y27659989D01*
X-12216507Y27647981D01*
X-12239820Y27576231D01*
X-12240223Y27562133D01*
X-13081000Y27562133D01*
X-13081000Y29845000D01*
X-12289207Y29845000D01*
X-12270431Y29666361D01*
X-12214925Y29495529D01*
X-12125113Y29339971D01*
X-12120695Y29335064D01*
X-12120694Y29335063D01*
X-12032905Y29237563D01*
X-12004922Y29206485D01*
X-11859604Y29100905D01*
X-11853576Y29098221D01*
X-11853574Y29098220D01*
X-11812716Y29080029D01*
X-11695510Y29027846D01*
X-11607661Y29009173D01*
X-11526269Y28991872D01*
X-11526264Y28991872D01*
X-11519812Y28990500D01*
X-11340188Y28990500D01*
X-11333736Y28991872D01*
X-11333731Y28991872D01*
X-11252339Y29009173D01*
X-11164490Y29027846D01*
X-11047284Y29080029D01*
X-11006426Y29098220D01*
X-11006424Y29098221D01*
X-11000396Y29100905D01*
X-10855078Y29206485D01*
X-10734887Y29339971D01*
X-10706522Y29389100D01*
X-10698785Y29402500D01*
X-10647402Y29451493D01*
X-10589666Y29465500D01*
X-10140882Y29465500D01*
X-10072761Y29445498D01*
X-10026268Y29391842D01*
X-10016164Y29321568D01*
X-10045658Y29256988D01*
X-10066820Y29237565D01*
X-10099922Y29213515D01*
X-10104343Y29208605D01*
X-10104344Y29208604D01*
X-10190511Y29112905D01*
X-10220113Y29080029D01*
X-10309925Y28924471D01*
X-10365431Y28753639D01*
X-10384207Y28575000D01*
X-10365431Y28396361D01*
X-10363391Y28390083D01*
X-10363391Y28390082D01*
X-10312416Y28233197D01*
X-10309925Y28225529D01*
X-10220113Y28069971D01*
X-10215695Y28065064D01*
X-10215694Y28065063D01*
X-10109408Y27947020D01*
X-10099922Y27936485D01*
X-10094580Y27932604D01*
X-10094578Y27932602D01*
X-9959946Y27834786D01*
X-9954604Y27830905D01*
X-9948576Y27828221D01*
X-9948574Y27828220D01*
X-9833273Y27776885D01*
X-9790510Y27757846D01*
X-9702661Y27739173D01*
X-9621269Y27721872D01*
X-9621264Y27721872D01*
X-9614812Y27720500D01*
X-9435188Y27720500D01*
X-9428736Y27721872D01*
X-9428731Y27721872D01*
X-9347339Y27739173D01*
X-9259490Y27757846D01*
X-9216727Y27776885D01*
X-9101426Y27828220D01*
X-9101424Y27828221D01*
X-9095396Y27830905D01*
X-9090054Y27834786D01*
X-8955422Y27932602D01*
X-8955420Y27932604D01*
X-8950078Y27936485D01*
X-8933917Y27954433D01*
X-8834308Y28065061D01*
X-8829887Y28069971D01*
X-8826583Y28075693D01*
X-8793785Y28132500D01*
X-8742402Y28181493D01*
X-8684666Y28195500D01*
X-8381443Y28195500D01*
X-8313322Y28175498D01*
X-8266829Y28121842D01*
X-8255922Y28058519D01*
X-8259292Y28020000D01*
X-8240161Y27801326D01*
X-8183347Y27589297D01*
X-8169219Y27559000D01*
X-8092905Y27395341D01*
X-8092902Y27395336D01*
X-8090579Y27390354D01*
X-8087423Y27385847D01*
X-8087422Y27385845D01*
X-8017510Y27286001D01*
X-7964674Y27210543D01*
X-7809457Y27055326D01*
X-7804949Y27052169D01*
X-7804946Y27052167D01*
X-7777408Y27032885D01*
X-7629646Y26929421D01*
X-7624664Y26927098D01*
X-7624659Y26927095D01*
X-7544035Y26889500D01*
X-7430703Y26836653D01*
X-7218674Y26779839D01*
X-7000000Y26760708D01*
X-6781326Y26779839D01*
X-6569297Y26836653D01*
X-6455965Y26889500D01*
X-6375341Y26927095D01*
X-6375336Y26927098D01*
X-6370354Y26929421D01*
X-6222592Y27032885D01*
X-6195054Y27052167D01*
X-6195051Y27052169D01*
X-6190543Y27055326D01*
X-6035326Y27210543D01*
X-5982489Y27286001D01*
X-5912578Y27385845D01*
X-5912577Y27385847D01*
X-5909421Y27390354D01*
X-5907098Y27395336D01*
X-5907095Y27395341D01*
X-5830781Y27559000D01*
X-5816653Y27589297D01*
X-5759839Y27801326D01*
X-5740708Y28020000D01*
X-5759839Y28238674D01*
X-5813632Y28439429D01*
X-5811942Y28510406D01*
X-5772148Y28569202D01*
X-5706884Y28597150D01*
X-5636870Y28585377D01*
X-5602830Y28561136D01*
X-5134751Y28093057D01*
X-5100725Y28030745D01*
X-5098924Y27987518D01*
X-5104271Y27946904D01*
X-5095579Y27868176D01*
X-5088198Y27801326D01*
X-5086887Y27789447D01*
X-5084277Y27782316D01*
X-5084277Y27782314D01*
X-5035118Y27647981D01*
X-5032447Y27640681D01*
X-5028211Y27634378D01*
X-5028211Y27634377D01*
X-4978682Y27560671D01*
X-4944092Y27509195D01*
X-4938473Y27504082D01*
X-4938472Y27504081D01*
X-4927097Y27493731D01*
X-4826924Y27402581D01*
X-4687707Y27326992D01*
X-4534478Y27286793D01*
X-4450523Y27285474D01*
X-4383681Y27284424D01*
X-4383678Y27284424D01*
X-4376084Y27284305D01*
X-4221668Y27319671D01*
X-4151258Y27355083D01*
X-4086928Y27387437D01*
X-4086925Y27387439D01*
X-4080145Y27390849D01*
X-4074374Y27395778D01*
X-4074371Y27395780D01*
X-3965464Y27488796D01*
X-3965464Y27488797D01*
X-3959686Y27493731D01*
X-3867245Y27622376D01*
X-3808158Y27769359D01*
X-3802035Y27812385D01*
X-3786419Y27922109D01*
X-3786419Y27922112D01*
X-3785838Y27926193D01*
X-3785693Y27940000D01*
X-3787439Y27954433D01*
X-3796036Y28025474D01*
X-3804724Y28097267D01*
X-3860720Y28245454D01*
X-3950447Y28376008D01*
X-4068725Y28481389D01*
X-4208726Y28555516D01*
X-4362367Y28594108D01*
X-4369966Y28594148D01*
X-4369967Y28594148D01*
X-4430374Y28594464D01*
X-4511665Y28594890D01*
X-4579679Y28615248D01*
X-4600099Y28631793D01*
X-6043522Y30075216D01*
X-6058664Y30093964D01*
X-6059779Y30095189D01*
X-6065429Y30103940D01*
X-6073607Y30110387D01*
X-6073609Y30110389D01*
X-6091800Y30124729D01*
X-6096241Y30128675D01*
X-6096303Y30128602D01*
X-6100267Y30131961D01*
X-6103944Y30135638D01*
X-6119692Y30146892D01*
X-6124362Y30150398D01*
X-6164647Y30182156D01*
X-6173281Y30185188D01*
X-6180734Y30190514D01*
X-6229850Y30205203D01*
X-6235492Y30207036D01*
X-6276367Y30221390D01*
X-6276368Y30221390D01*
X-6283851Y30224018D01*
X-6289416Y30224500D01*
X-6292124Y30224500D01*
X-6294758Y30224614D01*
X-6294856Y30224643D01*
X-6294849Y30224807D01*
X-6295553Y30224851D01*
X-6301778Y30226713D01*
X-6355635Y30224597D01*
X-6360582Y30224500D01*
X-8909118Y30224500D01*
X-8977239Y30244502D01*
X-9023732Y30298158D01*
X-9033836Y30368432D01*
X-9004342Y30433012D01*
X-8983181Y30452434D01*
X-8950078Y30476485D01*
X-8829887Y30609971D01*
X-8801309Y30659469D01*
X-8793785Y30672500D01*
X-8742402Y30721493D01*
X-8684666Y30735500D01*
X-6403920Y30735500D01*
X-6379972Y30732951D01*
X-6378307Y30732872D01*
X-6368124Y30730680D01*
X-6357783Y30731904D01*
X-6334777Y30734627D01*
X-6328846Y30734977D01*
X-6328854Y30735072D01*
X-6323676Y30735500D01*
X-6318476Y30735500D01*
X-6313347Y30736354D01*
X-6313344Y30736354D01*
X-6299435Y30738669D01*
X-6293557Y30739506D01*
X-6252999Y30744306D01*
X-6252998Y30744306D01*
X-6242659Y30745530D01*
X-6234407Y30749493D01*
X-6225374Y30750996D01*
X-6216205Y30755943D01*
X-6216203Y30755944D01*
X-6180268Y30775334D01*
X-6174975Y30778031D01*
X-6135918Y30796785D01*
X-6135914Y30796788D01*
X-6128768Y30800219D01*
X-6124492Y30803814D01*
X-6122569Y30805737D01*
X-6120637Y30807509D01*
X-6120558Y30807552D01*
X-6120445Y30807428D01*
X-6119905Y30807904D01*
X-6114186Y30810990D01*
X-6077583Y30850587D01*
X-6074154Y30854152D01*
X-4598822Y32329484D01*
X-4536510Y32363510D01*
X-4507748Y32366373D01*
X-4383682Y32364424D01*
X-4383679Y32364424D01*
X-4376084Y32364305D01*
X-4221668Y32399671D01*
X-4151258Y32435083D01*
X-4086928Y32467437D01*
X-4086925Y32467439D01*
X-4080145Y32470849D01*
X-4074374Y32475778D01*
X-4074371Y32475780D01*
X-3965464Y32568796D01*
X-3965464Y32568797D01*
X-3959686Y32573731D01*
X-3867245Y32702376D01*
X-3808158Y32849359D01*
X-3785838Y33006193D01*
X-3785693Y33020000D01*
X-3786355Y33025475D01*
X-3794699Y33094425D01*
X-3804724Y33177267D01*
X-3860720Y33325454D01*
X-3950447Y33456008D01*
X-4068725Y33561389D01*
X-4076111Y33565300D01*
X-4202012Y33631961D01*
X-4202011Y33631961D01*
X-4208726Y33635516D01*
X-4362367Y33674108D01*
X-4369966Y33674148D01*
X-4369967Y33674148D01*
X-4435819Y33674493D01*
X-4520779Y33674938D01*
X-4528159Y33673166D01*
X-4528161Y33673166D01*
X-4667437Y33639729D01*
X-4667440Y33639728D01*
X-4674816Y33637957D01*
X-4815586Y33565300D01*
X-4934961Y33461162D01*
X-5026050Y33331556D01*
X-5028810Y33324476D01*
X-5070570Y33217367D01*
X-5083594Y33183963D01*
X-5084586Y33176430D01*
X-5084586Y33176429D01*
X-5098343Y33071931D01*
X-5104271Y33026904D01*
X-5101456Y33001409D01*
X-5098037Y32970434D01*
X-5110443Y32900530D01*
X-5134181Y32867513D01*
X-5665615Y32336079D01*
X-5727927Y32302053D01*
X-5798742Y32307118D01*
X-5855578Y32349665D01*
X-5880389Y32416185D01*
X-5868905Y32478424D01*
X-5819447Y32584486D01*
X-5815701Y32594778D01*
X-5761758Y32796098D01*
X-5759855Y32806893D01*
X-5741689Y33014525D01*
X-5741689Y33025475D01*
X-5759855Y33233107D01*
X-5761758Y33243902D01*
X-5815701Y33445222D01*
X-5819447Y33455514D01*
X-5907531Y33644410D01*
X-5913011Y33653900D01*
X-5941283Y33694278D01*
X-5951758Y33702652D01*
X-5965207Y33695583D01*
X-7676305Y31984485D01*
X-7682735Y31972711D01*
X-7673439Y31960696D01*
X-7633900Y31933011D01*
X-7624410Y31927531D01*
X-7435514Y31839447D01*
X-7425222Y31835701D01*
X-7223902Y31781758D01*
X-7213107Y31779855D01*
X-7005475Y31761689D01*
X-6994525Y31761689D01*
X-6786893Y31779855D01*
X-6776098Y31781758D01*
X-6574778Y31835701D01*
X-6564486Y31839447D01*
X-6458424Y31888905D01*
X-6388233Y31899566D01*
X-6323420Y31870586D01*
X-6284563Y31811167D01*
X-6284000Y31740172D01*
X-6316079Y31685615D01*
X-6470289Y31531405D01*
X-6532601Y31497379D01*
X-6559384Y31494500D01*
X-8684666Y31494500D01*
X-8752787Y31514502D01*
X-8793785Y31557500D01*
X-8826583Y31614307D01*
X-8826586Y31614311D01*
X-8829887Y31620029D01*
X-8950078Y31753515D01*
X-8961328Y31761689D01*
X-9090054Y31855214D01*
X-9090055Y31855215D01*
X-9095396Y31859095D01*
X-9101424Y31861779D01*
X-9101426Y31861780D01*
X-9253459Y31929469D01*
X-9253460Y31929469D01*
X-9259490Y31932154D01*
X-9347339Y31950827D01*
X-9428731Y31968128D01*
X-9428736Y31968128D01*
X-9435188Y31969500D01*
X-9614812Y31969500D01*
X-9621264Y31968128D01*
X-9621269Y31968128D01*
X-9702661Y31950827D01*
X-9790510Y31932154D01*
X-9796540Y31929469D01*
X-9796541Y31929469D01*
X-9948573Y31861780D01*
X-9948575Y31861779D01*
X-9954603Y31859095D01*
X-9959944Y31855215D01*
X-9959945Y31855214D01*
X-10094578Y31757398D01*
X-10094580Y31757396D01*
X-10099922Y31753515D01*
X-10104343Y31748605D01*
X-10104344Y31748604D01*
X-10149848Y31698066D01*
X-10220113Y31620029D01*
X-10264404Y31543315D01*
X-10290925Y31497379D01*
X-10309925Y31464471D01*
X-10365431Y31293639D01*
X-10384207Y31115000D01*
X-10365431Y30936361D01*
X-10363391Y30930083D01*
X-10363391Y30930082D01*
X-10321196Y30800219D01*
X-10309925Y30765529D01*
X-10306622Y30759807D01*
X-10306621Y30759806D01*
X-10289805Y30730680D01*
X-10220113Y30609971D01*
X-10099922Y30476485D01*
X-10066821Y30452436D01*
X-10023467Y30396214D01*
X-10017391Y30325478D01*
X-10050523Y30262686D01*
X-10112343Y30227775D01*
X-10140882Y30224500D01*
X-10589666Y30224500D01*
X-10657787Y30244502D01*
X-10698785Y30287500D01*
X-10731583Y30344307D01*
X-10731586Y30344311D01*
X-10734887Y30350029D01*
X-10855078Y30483515D01*
X-11000396Y30589095D01*
X-11006424Y30591779D01*
X-11006426Y30591780D01*
X-11158459Y30659469D01*
X-11158460Y30659469D01*
X-11164490Y30662154D01*
X-11252339Y30680827D01*
X-11333731Y30698128D01*
X-11333736Y30698128D01*
X-11340188Y30699500D01*
X-11519812Y30699500D01*
X-11526264Y30698128D01*
X-11526269Y30698128D01*
X-11607661Y30680827D01*
X-11695510Y30662154D01*
X-11701540Y30659469D01*
X-11701541Y30659469D01*
X-11853573Y30591780D01*
X-11853575Y30591779D01*
X-11859603Y30589095D01*
X-11864944Y30585215D01*
X-11864945Y30585214D01*
X-11999578Y30487398D01*
X-11999580Y30487396D01*
X-12004922Y30483515D01*
X-12125113Y30350029D01*
X-12155061Y30298158D01*
X-12197410Y30224807D01*
X-12214925Y30194471D01*
X-12216966Y30188189D01*
X-12216967Y30188187D01*
X-12221022Y30175707D01*
X-12270431Y30023639D01*
X-12289207Y29845000D01*
X-13081000Y29845000D01*
X-13081000Y31766172D01*
X-12283999Y31766172D01*
X-12282791Y31753912D01*
X-12271685Y31698069D01*
X-12262367Y31675573D01*
X-12220017Y31612192D01*
X-12202808Y31594983D01*
X-12139425Y31552632D01*
X-12116934Y31543316D01*
X-12061085Y31532207D01*
X-12048830Y31531000D01*
X-11702115Y31531000D01*
X-11686876Y31535475D01*
X-11685671Y31536865D01*
X-11684000Y31544548D01*
X-11684000Y31549116D01*
X-11176000Y31549116D01*
X-11171525Y31533877D01*
X-11170135Y31532672D01*
X-11162452Y31531001D01*
X-10811172Y31531001D01*
X-10798912Y31532209D01*
X-10743069Y31543315D01*
X-10720573Y31552633D01*
X-10657192Y31594983D01*
X-10639983Y31612192D01*
X-10597632Y31675575D01*
X-10588316Y31698066D01*
X-10577207Y31753915D01*
X-10576000Y31766170D01*
X-10576000Y32112885D01*
X-10580475Y32128124D01*
X-10581865Y32129329D01*
X-10589548Y32131000D01*
X-11157885Y32131000D01*
X-11173124Y32126525D01*
X-11174329Y32125135D01*
X-11176000Y32117452D01*
X-11176000Y31549116D01*
X-11684000Y31549116D01*
X-11684000Y32112885D01*
X-11688475Y32128124D01*
X-11689865Y32129329D01*
X-11697548Y32131000D01*
X-12265884Y32131000D01*
X-12281123Y32126525D01*
X-12282328Y32125135D01*
X-12283999Y32117452D01*
X-12283999Y31766172D01*
X-13081000Y31766172D01*
X-13081000Y32657115D01*
X-12284000Y32657115D01*
X-12279525Y32641876D01*
X-12278135Y32640671D01*
X-12270452Y32639000D01*
X-11702115Y32639000D01*
X-11686876Y32643475D01*
X-11685671Y32644865D01*
X-11684000Y32652548D01*
X-11684000Y32657115D01*
X-11176000Y32657115D01*
X-11171525Y32641876D01*
X-11170135Y32640671D01*
X-11162452Y32639000D01*
X-10594116Y32639000D01*
X-10578877Y32643475D01*
X-10577672Y32644865D01*
X-10576001Y32652548D01*
X-10576001Y33003828D01*
X-10577055Y33014525D01*
X-8258311Y33014525D01*
X-8240145Y32806893D01*
X-8238242Y32796098D01*
X-8184299Y32594778D01*
X-8180553Y32584486D01*
X-8092469Y32395590D01*
X-8086989Y32386100D01*
X-8058717Y32345722D01*
X-8048242Y32337348D01*
X-8034793Y32344417D01*
X-7372022Y33007188D01*
X-7364408Y33021132D01*
X-7364539Y33022965D01*
X-7368790Y33029580D01*
X-8035515Y33696305D01*
X-8047289Y33702735D01*
X-8059304Y33693439D01*
X-8086989Y33653900D01*
X-8092469Y33644410D01*
X-8180553Y33455514D01*
X-8184299Y33445222D01*
X-8238242Y33243902D01*
X-8240145Y33233107D01*
X-8258311Y33025475D01*
X-8258311Y33014525D01*
X-10577055Y33014525D01*
X-10577209Y33016088D01*
X-10588315Y33071931D01*
X-10597633Y33094427D01*
X-10639983Y33157808D01*
X-10657192Y33175017D01*
X-10720575Y33217368D01*
X-10743066Y33226684D01*
X-10798915Y33237793D01*
X-10811170Y33239000D01*
X-11157885Y33239000D01*
X-11173124Y33234525D01*
X-11174329Y33233135D01*
X-11176000Y33225452D01*
X-11176000Y32657115D01*
X-11684000Y32657115D01*
X-11684000Y33220884D01*
X-11688475Y33236123D01*
X-11689865Y33237328D01*
X-11697548Y33238999D01*
X-12048828Y33238999D01*
X-12061088Y33237791D01*
X-12116931Y33226685D01*
X-12139427Y33217367D01*
X-12202808Y33175017D01*
X-12220017Y33157808D01*
X-12262368Y33094425D01*
X-12271684Y33071934D01*
X-12282793Y33016085D01*
X-12284000Y33003830D01*
X-12284000Y32657115D01*
X-13081000Y32657115D01*
X-13081000Y34068242D01*
X-7682652Y34068242D01*
X-7675583Y34054793D01*
X-7012812Y33392022D01*
X-6998868Y33384408D01*
X-6997035Y33384539D01*
X-6990420Y33388790D01*
X-6323695Y34055515D01*
X-6317265Y34067289D01*
X-6326561Y34079304D01*
X-6366100Y34106989D01*
X-6375590Y34112469D01*
X-6564486Y34200553D01*
X-6574778Y34204299D01*
X-6776098Y34258242D01*
X-6786893Y34260145D01*
X-6994525Y34278311D01*
X-7005475Y34278311D01*
X-7213107Y34260145D01*
X-7223902Y34258242D01*
X-7425222Y34204299D01*
X-7435514Y34200553D01*
X-7624410Y34112469D01*
X-7633900Y34106989D01*
X-7674278Y34078717D01*
X-7682652Y34068242D01*
X-13081000Y34068242D01*
X-13081000Y40260000D01*
X-13060998Y40328121D01*
X-13007342Y40374614D01*
X-12955000Y40386000D01*
X-3175000Y40386000D01*
X-3175000Y-40386000D01*
G37*
G04 #@! TD.AperFunction*
G04 #@! TA.AperFunction,Conductor*
G36*
X13023121Y40365998D02*
G01*
X13069614Y40312342D01*
X13081000Y40260000D01*
X13081000Y-40260000D01*
X13060998Y-40328121D01*
X13007342Y-40374614D01*
X12955000Y-40386000D01*
X3175000Y-40386000D01*
X3175000Y-32940000D01*
X6240708Y-32940000D01*
X6259839Y-33158674D01*
X6316653Y-33370703D01*
X6318978Y-33375688D01*
X6407095Y-33564659D01*
X6407098Y-33564664D01*
X6409421Y-33569646D01*
X6535326Y-33749457D01*
X6690543Y-33904674D01*
X6695051Y-33907831D01*
X6695054Y-33907833D01*
X6865845Y-34027422D01*
X6870354Y-34030579D01*
X6875336Y-34032902D01*
X6875341Y-34032905D01*
X6976116Y-34079896D01*
X7069297Y-34123347D01*
X7281326Y-34180161D01*
X7500000Y-34199292D01*
X7718674Y-34180161D01*
X7930703Y-34123347D01*
X8023884Y-34079896D01*
X8124659Y-34032905D01*
X8124664Y-34032902D01*
X8129646Y-34030579D01*
X8134155Y-34027422D01*
X8304946Y-33907833D01*
X8304949Y-33907831D01*
X8309457Y-33904674D01*
X8464674Y-33749457D01*
X8590579Y-33569646D01*
X8592902Y-33564664D01*
X8592905Y-33564659D01*
X8681022Y-33375688D01*
X8683347Y-33370703D01*
X8740161Y-33158674D01*
X8759292Y-32940000D01*
X8740161Y-32721326D01*
X8683347Y-32509297D01*
X8639896Y-32416116D01*
X8592905Y-32315341D01*
X8592902Y-32315336D01*
X8590579Y-32310354D01*
X8464674Y-32130543D01*
X8309457Y-31975326D01*
X8304949Y-31972169D01*
X8304946Y-31972167D01*
X8134155Y-31852578D01*
X8134153Y-31852577D01*
X8129646Y-31849421D01*
X8124664Y-31847098D01*
X8124659Y-31847095D01*
X8032067Y-31803919D01*
X7978782Y-31757002D01*
X7959321Y-31688724D01*
X7979863Y-31620764D01*
X8032067Y-31575529D01*
X8124410Y-31532469D01*
X8133900Y-31526989D01*
X8174278Y-31498717D01*
X8182652Y-31488242D01*
X8175583Y-31474793D01*
X7512812Y-30812022D01*
X7498868Y-30804408D01*
X7497035Y-30804539D01*
X7490420Y-30808790D01*
X6823695Y-31475515D01*
X6817265Y-31487289D01*
X6826561Y-31499304D01*
X6866100Y-31526989D01*
X6875590Y-31532469D01*
X6967933Y-31575529D01*
X7021218Y-31622446D01*
X7040679Y-31690724D01*
X7020137Y-31758684D01*
X6967933Y-31803919D01*
X6875341Y-31847095D01*
X6875336Y-31847098D01*
X6870354Y-31849421D01*
X6865847Y-31852577D01*
X6865845Y-31852578D01*
X6695054Y-31972167D01*
X6695051Y-31972169D01*
X6690543Y-31975326D01*
X6535326Y-32130543D01*
X6409421Y-32310354D01*
X6407098Y-32315336D01*
X6407095Y-32315341D01*
X6360104Y-32416116D01*
X6316653Y-32509297D01*
X6259839Y-32721326D01*
X6240708Y-32940000D01*
X3175000Y-32940000D01*
X3175000Y-30445475D01*
X6241689Y-30445475D01*
X6259855Y-30653107D01*
X6261758Y-30663902D01*
X6315701Y-30865222D01*
X6319447Y-30875514D01*
X6407531Y-31064410D01*
X6413011Y-31073900D01*
X6441283Y-31114278D01*
X6451758Y-31122652D01*
X6465207Y-31115583D01*
X7127978Y-30452812D01*
X7134356Y-30441132D01*
X7864408Y-30441132D01*
X7864539Y-30442965D01*
X7868790Y-30449580D01*
X8535515Y-31116305D01*
X8547289Y-31122735D01*
X8559304Y-31113439D01*
X8586989Y-31073900D01*
X8592469Y-31064410D01*
X8680553Y-30875514D01*
X8684299Y-30865222D01*
X8738242Y-30663902D01*
X8740145Y-30653107D01*
X8758311Y-30445475D01*
X8758311Y-30434525D01*
X8740145Y-30226893D01*
X8738242Y-30216098D01*
X8684299Y-30014778D01*
X8680553Y-30004486D01*
X8592469Y-29815590D01*
X8586989Y-29806100D01*
X8558717Y-29765722D01*
X8548242Y-29757348D01*
X8534793Y-29764417D01*
X7872022Y-30427188D01*
X7864408Y-30441132D01*
X7134356Y-30441132D01*
X7135592Y-30438868D01*
X7135461Y-30437035D01*
X7131210Y-30430420D01*
X6464485Y-29763695D01*
X6452711Y-29757265D01*
X6440696Y-29766561D01*
X6413011Y-29806100D01*
X6407531Y-29815590D01*
X6319447Y-30004486D01*
X6315701Y-30014778D01*
X6261758Y-30216098D01*
X6259855Y-30226893D01*
X6241689Y-30434525D01*
X6241689Y-30445475D01*
X3175000Y-30445475D01*
X3175000Y-26914933D01*
X6245500Y-26914933D01*
X6245501Y-28965066D01*
X6260266Y-29039301D01*
X6316516Y-29123484D01*
X6400699Y-29179734D01*
X6474933Y-29194500D01*
X6713001Y-29194500D01*
X6781122Y-29214502D01*
X6827615Y-29268158D01*
X6837719Y-29338432D01*
X6816438Y-29387588D01*
X6816227Y-29389625D01*
X6824417Y-29405207D01*
X7487188Y-30067978D01*
X7501132Y-30075592D01*
X7502965Y-30075461D01*
X7509580Y-30071210D01*
X8176305Y-29404485D01*
X8183825Y-29390715D01*
X8160654Y-29331480D01*
X8174644Y-29261875D01*
X8224044Y-29210883D01*
X8286175Y-29194499D01*
X8525066Y-29194499D01*
X8560818Y-29187388D01*
X8587126Y-29182156D01*
X8587128Y-29182155D01*
X8599301Y-29179734D01*
X8609621Y-29172839D01*
X8609622Y-29172838D01*
X8673168Y-29130377D01*
X8683484Y-29123484D01*
X8739734Y-29039301D01*
X8754500Y-28965067D01*
X8754499Y-26914934D01*
X8739734Y-26840699D01*
X8683484Y-26756516D01*
X8599301Y-26700266D01*
X8525067Y-26685500D01*
X7500166Y-26685500D01*
X6474934Y-26685501D01*
X6439182Y-26692612D01*
X6412874Y-26697844D01*
X6412872Y-26697845D01*
X6400699Y-26700266D01*
X6390379Y-26707161D01*
X6390378Y-26707162D01*
X6329985Y-26747516D01*
X6316516Y-26756516D01*
X6260266Y-26840699D01*
X6245500Y-26914933D01*
X3175000Y-26914933D01*
X3175000Y-21188828D01*
X6516001Y-21188828D01*
X6517209Y-21201088D01*
X6528315Y-21256931D01*
X6537633Y-21279427D01*
X6579983Y-21342808D01*
X6597192Y-21360017D01*
X6660575Y-21402368D01*
X6683066Y-21411684D01*
X6738915Y-21422793D01*
X6751170Y-21424000D01*
X7347885Y-21424000D01*
X7363124Y-21419525D01*
X7364329Y-21418135D01*
X7366000Y-21410452D01*
X7366000Y-21405884D01*
X7874000Y-21405884D01*
X7878475Y-21421123D01*
X7879865Y-21422328D01*
X7887548Y-21423999D01*
X8488828Y-21423999D01*
X8501088Y-21422791D01*
X8556931Y-21411685D01*
X8579427Y-21402367D01*
X8642808Y-21360017D01*
X8660017Y-21342808D01*
X8702368Y-21279425D01*
X8711684Y-21256934D01*
X8722793Y-21201085D01*
X8724000Y-21188830D01*
X8724000Y-20592115D01*
X8719525Y-20576876D01*
X8718135Y-20575671D01*
X8710452Y-20574000D01*
X7892115Y-20574000D01*
X7876876Y-20578475D01*
X7875671Y-20579865D01*
X7874000Y-20587548D01*
X7874000Y-21405884D01*
X7366000Y-21405884D01*
X7366000Y-20592115D01*
X7361525Y-20576876D01*
X7360135Y-20575671D01*
X7352452Y-20574000D01*
X6534116Y-20574000D01*
X6518877Y-20578475D01*
X6517672Y-20579865D01*
X6516001Y-20587548D01*
X6516001Y-21188828D01*
X3175000Y-21188828D01*
X3175000Y-20047885D01*
X6516000Y-20047885D01*
X6520475Y-20063124D01*
X6521865Y-20064329D01*
X6529548Y-20066000D01*
X7347885Y-20066000D01*
X7363124Y-20061525D01*
X7364329Y-20060135D01*
X7366000Y-20052452D01*
X7366000Y-20047885D01*
X7874000Y-20047885D01*
X7878475Y-20063124D01*
X7879865Y-20064329D01*
X7887548Y-20066000D01*
X8705884Y-20066000D01*
X8721123Y-20061525D01*
X8722328Y-20060135D01*
X8723999Y-20052452D01*
X8723999Y-19451172D01*
X8722791Y-19438912D01*
X8711685Y-19383069D01*
X8702367Y-19360573D01*
X8660017Y-19297192D01*
X8642808Y-19279983D01*
X8579425Y-19237632D01*
X8556934Y-19228316D01*
X8501085Y-19217207D01*
X8488830Y-19216000D01*
X7892115Y-19216000D01*
X7876876Y-19220475D01*
X7875671Y-19221865D01*
X7874000Y-19229548D01*
X7874000Y-20047885D01*
X7366000Y-20047885D01*
X7366000Y-19234116D01*
X7361525Y-19218877D01*
X7360135Y-19217672D01*
X7352452Y-19216001D01*
X6751172Y-19216001D01*
X6738912Y-19217209D01*
X6683069Y-19228315D01*
X6660573Y-19237633D01*
X6597192Y-19279983D01*
X6579983Y-19297192D01*
X6537632Y-19360575D01*
X6528316Y-19383066D01*
X6517207Y-19438915D01*
X6516000Y-19451170D01*
X6516000Y-20047885D01*
X3175000Y-20047885D01*
X3175000Y-12046876D01*
X4695680Y-12046876D01*
X4696904Y-12057217D01*
X4699627Y-12080223D01*
X4699977Y-12086154D01*
X4700072Y-12086146D01*
X4700500Y-12091324D01*
X4700500Y-12096524D01*
X4701354Y-12101653D01*
X4701354Y-12101656D01*
X4703669Y-12115565D01*
X4704506Y-12121443D01*
X4710530Y-12172341D01*
X4714493Y-12180593D01*
X4715996Y-12189626D01*
X4720943Y-12198795D01*
X4720944Y-12198797D01*
X4740334Y-12234732D01*
X4743031Y-12240025D01*
X4761785Y-12279082D01*
X4761788Y-12279086D01*
X4765219Y-12286232D01*
X4768814Y-12290508D01*
X4770737Y-12292431D01*
X4772509Y-12294363D01*
X4772552Y-12294442D01*
X4772428Y-12294555D01*
X4772904Y-12295095D01*
X4775990Y-12300814D01*
X4783635Y-12307881D01*
X4815586Y-12337416D01*
X4819152Y-12340846D01*
X5328522Y-12850216D01*
X5343664Y-12868964D01*
X5344779Y-12870189D01*
X5350429Y-12878940D01*
X5358607Y-12885387D01*
X5358609Y-12885389D01*
X5376800Y-12899729D01*
X5381242Y-12903676D01*
X5381304Y-12903603D01*
X5385267Y-12906961D01*
X5388944Y-12910638D01*
X5393173Y-12913660D01*
X5404646Y-12921859D01*
X5409392Y-12925422D01*
X5427851Y-12939973D01*
X5449647Y-12957156D01*
X5458283Y-12960189D01*
X5465735Y-12965514D01*
X5512400Y-12979470D01*
X5514855Y-12980204D01*
X5520502Y-12982039D01*
X5561370Y-12996391D01*
X5561372Y-12996391D01*
X5568851Y-12999018D01*
X5574416Y-12999500D01*
X5577123Y-12999500D01*
X5579755Y-12999614D01*
X5579856Y-12999644D01*
X5579849Y-12999807D01*
X5580549Y-12999851D01*
X5586778Y-13001714D01*
X5637559Y-12999718D01*
X5640650Y-12999597D01*
X5645598Y-12999500D01*
X6212505Y-12999500D01*
X6280626Y-13019502D01*
X6326700Y-13072250D01*
X6407095Y-13244659D01*
X6407098Y-13244664D01*
X6409421Y-13249646D01*
X6535326Y-13429457D01*
X6690543Y-13584674D01*
X6695051Y-13587831D01*
X6695054Y-13587833D01*
X6865845Y-13707422D01*
X6870354Y-13710579D01*
X6875336Y-13712902D01*
X6875341Y-13712905D01*
X6976116Y-13759896D01*
X7069297Y-13803347D01*
X7281326Y-13860161D01*
X7500000Y-13879292D01*
X7718674Y-13860161D01*
X7930703Y-13803347D01*
X8023884Y-13759896D01*
X8124659Y-13712905D01*
X8124664Y-13712902D01*
X8129646Y-13710579D01*
X8134155Y-13707422D01*
X8304946Y-13587833D01*
X8304949Y-13587831D01*
X8309457Y-13584674D01*
X8464674Y-13429457D01*
X8590579Y-13249646D01*
X8592902Y-13244664D01*
X8592905Y-13244659D01*
X8639896Y-13143884D01*
X8683347Y-13050703D01*
X8740161Y-12838674D01*
X8759292Y-12620000D01*
X8740161Y-12401326D01*
X8683347Y-12189297D01*
X8621758Y-12057217D01*
X8592905Y-11995341D01*
X8592902Y-11995336D01*
X8590579Y-11990354D01*
X8587422Y-11985845D01*
X8467833Y-11815054D01*
X8467831Y-11815051D01*
X8464674Y-11810543D01*
X8309457Y-11655326D01*
X8304949Y-11652169D01*
X8304946Y-11652167D01*
X8134155Y-11532578D01*
X8134153Y-11532577D01*
X8129646Y-11529421D01*
X8124664Y-11527098D01*
X8124659Y-11527095D01*
X8032067Y-11483919D01*
X7978782Y-11437002D01*
X7959321Y-11368724D01*
X7979863Y-11300764D01*
X8032067Y-11255529D01*
X8124410Y-11212469D01*
X8133900Y-11206989D01*
X8174278Y-11178717D01*
X8182652Y-11168242D01*
X8175583Y-11154793D01*
X7512812Y-10492022D01*
X7498868Y-10484408D01*
X7497035Y-10484539D01*
X7490420Y-10488790D01*
X6823695Y-11155515D01*
X6817265Y-11167289D01*
X6826561Y-11179304D01*
X6866100Y-11206989D01*
X6875590Y-11212469D01*
X6967933Y-11255529D01*
X7021218Y-11302446D01*
X7040679Y-11370724D01*
X7020137Y-11438684D01*
X6967933Y-11483919D01*
X6875341Y-11527095D01*
X6875336Y-11527098D01*
X6870354Y-11529421D01*
X6865847Y-11532577D01*
X6865845Y-11532578D01*
X6695054Y-11652167D01*
X6695051Y-11652169D01*
X6690543Y-11655326D01*
X6535326Y-11810543D01*
X6532169Y-11815051D01*
X6532167Y-11815054D01*
X6412578Y-11985845D01*
X6409421Y-11990354D01*
X6407098Y-11995336D01*
X6407095Y-11995341D01*
X6326700Y-12167750D01*
X6279783Y-12221035D01*
X6212505Y-12240500D01*
X5844384Y-12240500D01*
X5776263Y-12220498D01*
X5755289Y-12203595D01*
X5496405Y-11944711D01*
X5462379Y-11882399D01*
X5459500Y-11855616D01*
X5459500Y-10125475D01*
X6241689Y-10125475D01*
X6259855Y-10333107D01*
X6261758Y-10343902D01*
X6315701Y-10545222D01*
X6319447Y-10555514D01*
X6407531Y-10744410D01*
X6413011Y-10753900D01*
X6441283Y-10794278D01*
X6451758Y-10802652D01*
X6465207Y-10795583D01*
X7127978Y-10132812D01*
X7134356Y-10121132D01*
X7864408Y-10121132D01*
X7864539Y-10122965D01*
X7868790Y-10129580D01*
X8535515Y-10796305D01*
X8547289Y-10802735D01*
X8559304Y-10793439D01*
X8586989Y-10753900D01*
X8592469Y-10744410D01*
X8680553Y-10555514D01*
X8684299Y-10545222D01*
X8738242Y-10343902D01*
X8740145Y-10333107D01*
X8758311Y-10125475D01*
X8758311Y-10114525D01*
X8740145Y-9906893D01*
X8738242Y-9896098D01*
X8684299Y-9694778D01*
X8680553Y-9684486D01*
X8592469Y-9495590D01*
X8586989Y-9486100D01*
X8558717Y-9445722D01*
X8548242Y-9437348D01*
X8534793Y-9444417D01*
X7872022Y-10107188D01*
X7864408Y-10121132D01*
X7134356Y-10121132D01*
X7135592Y-10118868D01*
X7135461Y-10117035D01*
X7131210Y-10110420D01*
X6464485Y-9443695D01*
X6452711Y-9437265D01*
X6440696Y-9446561D01*
X6413011Y-9486100D01*
X6407531Y-9495590D01*
X6319447Y-9684486D01*
X6315701Y-9694778D01*
X6261758Y-9896098D01*
X6259855Y-9906893D01*
X6241689Y-10114525D01*
X6241689Y-10125475D01*
X5459500Y-10125475D01*
X5459500Y-6594933D01*
X6245500Y-6594933D01*
X6245501Y-8645066D01*
X6260266Y-8719301D01*
X6316516Y-8803484D01*
X6400699Y-8859734D01*
X6474933Y-8874500D01*
X6713001Y-8874500D01*
X6781122Y-8894502D01*
X6827615Y-8948158D01*
X6837719Y-9018432D01*
X6816438Y-9067588D01*
X6816227Y-9069625D01*
X6824417Y-9085207D01*
X7487188Y-9747978D01*
X7501132Y-9755592D01*
X7502965Y-9755461D01*
X7509580Y-9751210D01*
X8176305Y-9084485D01*
X8183825Y-9070715D01*
X8160654Y-9011480D01*
X8174644Y-8941875D01*
X8224044Y-8890883D01*
X8286175Y-8874499D01*
X8525066Y-8874499D01*
X8560818Y-8867388D01*
X8587126Y-8862156D01*
X8587128Y-8862155D01*
X8599301Y-8859734D01*
X8609621Y-8852839D01*
X8609622Y-8852838D01*
X8673168Y-8810377D01*
X8683484Y-8803484D01*
X8739734Y-8719301D01*
X8754500Y-8645067D01*
X8754499Y-6954385D01*
X8774501Y-6886264D01*
X8791404Y-6865290D01*
X11660216Y-3996478D01*
X11678964Y-3981336D01*
X11680189Y-3980221D01*
X11688940Y-3974571D01*
X11695387Y-3966393D01*
X11695389Y-3966391D01*
X11709729Y-3948200D01*
X11713678Y-3943756D01*
X11713604Y-3943694D01*
X11716957Y-3939737D01*
X11720638Y-3936056D01*
X11731865Y-3920346D01*
X11735421Y-3915609D01*
X11760708Y-3883532D01*
X11767156Y-3875353D01*
X11770189Y-3866716D01*
X11775513Y-3859266D01*
X11790202Y-3810151D01*
X11792034Y-3804514D01*
X11806390Y-3763633D01*
X11806390Y-3763632D01*
X11809018Y-3756149D01*
X11809500Y-3750584D01*
X11809500Y-3747876D01*
X11809614Y-3745242D01*
X11809643Y-3745144D01*
X11809807Y-3745151D01*
X11809851Y-3744447D01*
X11811713Y-3738222D01*
X11809597Y-3684365D01*
X11809500Y-3679418D01*
X11809500Y17726080D01*
X11812049Y17750028D01*
X11812128Y17751693D01*
X11814320Y17761876D01*
X11810373Y17795223D01*
X11810023Y17801154D01*
X11809928Y17801146D01*
X11809500Y17806324D01*
X11809500Y17811524D01*
X11808646Y17816656D01*
X11806331Y17830565D01*
X11805494Y17836443D01*
X11800694Y17877001D01*
X11800694Y17877002D01*
X11799470Y17887341D01*
X11795507Y17895593D01*
X11794004Y17904626D01*
X11769665Y17949734D01*
X11766969Y17955025D01*
X11748215Y17994082D01*
X11748212Y17994086D01*
X11744781Y18001232D01*
X11741186Y18005508D01*
X11739263Y18007431D01*
X11737491Y18009363D01*
X11737448Y18009442D01*
X11737572Y18009555D01*
X11737096Y18010095D01*
X11734010Y18015814D01*
X11694413Y18052417D01*
X11690848Y18055846D01*
X10215143Y19531551D01*
X10181117Y19593863D01*
X10179495Y19638399D01*
X10183581Y19667108D01*
X10183581Y19667114D01*
X10184162Y19671193D01*
X10184307Y19685000D01*
X10165276Y19842267D01*
X10109280Y19990454D01*
X10019553Y20121008D01*
X9901275Y20226389D01*
X9893889Y20230300D01*
X9855565Y20250591D01*
X9761274Y20300516D01*
X9607633Y20339108D01*
X9600034Y20339148D01*
X9600033Y20339148D01*
X9534181Y20339493D01*
X9449221Y20339938D01*
X9441841Y20338166D01*
X9441839Y20338166D01*
X9302563Y20304729D01*
X9302560Y20304728D01*
X9295184Y20302957D01*
X9154414Y20230300D01*
X9035039Y20126162D01*
X8943950Y19996556D01*
X8886406Y19848963D01*
X8865729Y19691904D01*
X8868016Y19671193D01*
X8878518Y19576070D01*
X8883113Y19534447D01*
X8937553Y19385681D01*
X9025908Y19254195D01*
X9143076Y19147581D01*
X9282293Y19071992D01*
X9435522Y19031793D01*
X9532138Y19030275D01*
X9593772Y19029307D01*
X9661570Y19008238D01*
X9680888Y18992418D01*
X11013595Y17659711D01*
X11047621Y17597399D01*
X11050500Y17570616D01*
X11050500Y-3480616D01*
X11030498Y-3548737D01*
X11013595Y-3569711D01*
X8254711Y-6328595D01*
X8192399Y-6362621D01*
X8165616Y-6365500D01*
X6659703Y-6365501D01*
X6474934Y-6365501D01*
X6439182Y-6372612D01*
X6412874Y-6377844D01*
X6412872Y-6377845D01*
X6400699Y-6380266D01*
X6390379Y-6387161D01*
X6390378Y-6387162D01*
X6329985Y-6427516D01*
X6316516Y-6436516D01*
X6260266Y-6520699D01*
X6245500Y-6594933D01*
X5459500Y-6594933D01*
X5459500Y-5289384D01*
X5479502Y-5221263D01*
X5496405Y-5200289D01*
X10390216Y-306478D01*
X10408964Y-291336D01*
X10410189Y-290221D01*
X10418940Y-284571D01*
X10425387Y-276393D01*
X10425389Y-276391D01*
X10439729Y-258200D01*
X10443675Y-253759D01*
X10443602Y-253697D01*
X10446961Y-249733D01*
X10450638Y-246056D01*
X10461892Y-230308D01*
X10465398Y-225638D01*
X10497156Y-185353D01*
X10500188Y-176719D01*
X10505514Y-169266D01*
X10520203Y-120150D01*
X10522036Y-114508D01*
X10536390Y-73633D01*
X10536390Y-73632D01*
X10539018Y-66149D01*
X10539500Y-60584D01*
X10539500Y-57876D01*
X10539614Y-55242D01*
X10539643Y-55144D01*
X10539807Y-55151D01*
X10539851Y-54447D01*
X10541713Y-48222D01*
X10539597Y5635D01*
X10539500Y10582D01*
X10539500Y17091075D01*
X10542050Y17115033D01*
X10542128Y17116692D01*
X10544321Y17126876D01*
X10543097Y17137218D01*
X10543097Y17137221D01*
X10540374Y17160221D01*
X10540024Y17166152D01*
X10539928Y17166144D01*
X10539500Y17171320D01*
X10539500Y17176524D01*
X10536327Y17195588D01*
X10535496Y17201434D01*
X10530694Y17241999D01*
X10529470Y17252341D01*
X10525507Y17260593D01*
X10524004Y17269626D01*
X10499665Y17314734D01*
X10496969Y17320025D01*
X10478215Y17359081D01*
X10478214Y17359082D01*
X10474781Y17366232D01*
X10471187Y17370507D01*
X10469262Y17372432D01*
X10467491Y17374362D01*
X10467445Y17374447D01*
X10467568Y17374559D01*
X10467096Y17375094D01*
X10464010Y17380814D01*
X10424413Y17417417D01*
X10420848Y17420846D01*
X10215143Y17626551D01*
X10181117Y17688863D01*
X10179495Y17733399D01*
X10183581Y17762108D01*
X10183581Y17762114D01*
X10184162Y17766193D01*
X10184307Y17780000D01*
X10165276Y17937267D01*
X10109280Y18085454D01*
X10019553Y18216008D01*
X9901275Y18321389D01*
X9893889Y18325300D01*
X9767988Y18391961D01*
X9767989Y18391961D01*
X9761274Y18395516D01*
X9607633Y18434108D01*
X9600034Y18434148D01*
X9600033Y18434148D01*
X9534181Y18434493D01*
X9449221Y18434938D01*
X9441841Y18433166D01*
X9441839Y18433166D01*
X9302563Y18399729D01*
X9302560Y18399728D01*
X9295184Y18397957D01*
X9154414Y18325300D01*
X9035039Y18221162D01*
X8943950Y18091556D01*
X8928690Y18052416D01*
X8889676Y17952349D01*
X8886406Y17943963D01*
X8885414Y17936430D01*
X8885414Y17936429D01*
X8869646Y17816656D01*
X8865729Y17786904D01*
X8870964Y17739489D01*
X8879772Y17659711D01*
X8883113Y17629447D01*
X8885723Y17622316D01*
X8885723Y17622314D01*
X8894841Y17597399D01*
X8937553Y17480681D01*
X8941789Y17474378D01*
X8941789Y17474377D01*
X9014460Y17366232D01*
X9025908Y17349195D01*
X9031527Y17344082D01*
X9031528Y17344081D01*
X9103275Y17278797D01*
X9143076Y17242581D01*
X9282293Y17166992D01*
X9435522Y17126793D01*
X9532138Y17125275D01*
X9593772Y17124307D01*
X9661570Y17103238D01*
X9680888Y17087418D01*
X9743595Y17024711D01*
X9777621Y16962399D01*
X9780500Y16935616D01*
X9780500Y209384D01*
X9760498Y141263D01*
X9743595Y120289D01*
X4849784Y-4773522D01*
X4831036Y-4788664D01*
X4829811Y-4789779D01*
X4821060Y-4795429D01*
X4814613Y-4803607D01*
X4814611Y-4803609D01*
X4800271Y-4821800D01*
X4796325Y-4826241D01*
X4796398Y-4826303D01*
X4793039Y-4830267D01*
X4789362Y-4833944D01*
X4778108Y-4849692D01*
X4774602Y-4854362D01*
X4742844Y-4894647D01*
X4739812Y-4903281D01*
X4734486Y-4910734D01*
X4731501Y-4920715D01*
X4719799Y-4959844D01*
X4717964Y-4965492D01*
X4700982Y-5013851D01*
X4700500Y-5019416D01*
X4700500Y-5022124D01*
X4700386Y-5024758D01*
X4700357Y-5024856D01*
X4700193Y-5024849D01*
X4700149Y-5025553D01*
X4698287Y-5031778D01*
X4698696Y-5042183D01*
X4700403Y-5085635D01*
X4700500Y-5090582D01*
X4700500Y-12011080D01*
X4697951Y-12035028D01*
X4697872Y-12036693D01*
X4695680Y-12046876D01*
X3175000Y-12046876D01*
X3175000Y20961904D01*
X4420729Y20961904D01*
X4438113Y20804447D01*
X4440723Y20797316D01*
X4440723Y20797314D01*
X4488704Y20666200D01*
X4492553Y20655681D01*
X4496789Y20649378D01*
X4496789Y20649377D01*
X4565355Y20547341D01*
X4580908Y20524195D01*
X4586527Y20519082D01*
X4586528Y20519081D01*
X4659299Y20452865D01*
X4696222Y20392225D01*
X4700500Y20359671D01*
X4700500Y8943920D01*
X4697951Y8919972D01*
X4697872Y8918307D01*
X4695680Y8908124D01*
X4696904Y8897783D01*
X4699627Y8874777D01*
X4699977Y8868846D01*
X4700072Y8868854D01*
X4700500Y8863676D01*
X4700500Y8858476D01*
X4701354Y8853347D01*
X4701354Y8853344D01*
X4703669Y8839435D01*
X4704506Y8833557D01*
X4710530Y8782659D01*
X4714493Y8774407D01*
X4715996Y8765374D01*
X4720943Y8756205D01*
X4720944Y8756203D01*
X4740334Y8720268D01*
X4743031Y8714975D01*
X4761785Y8675918D01*
X4761788Y8675914D01*
X4765219Y8668768D01*
X4768814Y8664492D01*
X4770737Y8662569D01*
X4772509Y8660637D01*
X4772552Y8660558D01*
X4772428Y8660445D01*
X4772904Y8659905D01*
X4775990Y8654186D01*
X4783635Y8647119D01*
X4815586Y8617584D01*
X4819152Y8614154D01*
X5963522Y7469784D01*
X5978664Y7451036D01*
X5979779Y7449811D01*
X5985429Y7441060D01*
X5993607Y7434613D01*
X5993609Y7434611D01*
X6011800Y7420271D01*
X6016244Y7416322D01*
X6016306Y7416396D01*
X6020263Y7413043D01*
X6023944Y7409362D01*
X6039654Y7398135D01*
X6044380Y7394587D01*
X6084647Y7362844D01*
X6093284Y7359811D01*
X6100734Y7354487D01*
X6110710Y7351503D01*
X6110711Y7351503D01*
X6126046Y7346917D01*
X6149849Y7339798D01*
X6155486Y7337966D01*
X6196367Y7323610D01*
X6203851Y7320982D01*
X6209416Y7320500D01*
X6212124Y7320500D01*
X6214758Y7320386D01*
X6214856Y7320357D01*
X6214849Y7320193D01*
X6215553Y7320149D01*
X6221778Y7318287D01*
X6229769Y7318601D01*
X6293552Y7290768D01*
X6326859Y7247410D01*
X6407095Y7075341D01*
X6407098Y7075336D01*
X6409421Y7070354D01*
X6535326Y6890543D01*
X6690543Y6735326D01*
X6695051Y6732169D01*
X6695054Y6732167D01*
X6865845Y6612578D01*
X6870354Y6609421D01*
X6875336Y6607098D01*
X6875341Y6607095D01*
X6976116Y6560104D01*
X7069297Y6516653D01*
X7281326Y6459839D01*
X7500000Y6440708D01*
X7718674Y6459839D01*
X7930703Y6516653D01*
X8023884Y6560104D01*
X8124659Y6607095D01*
X8124664Y6607098D01*
X8129646Y6609421D01*
X8134155Y6612578D01*
X8304946Y6732167D01*
X8304949Y6732169D01*
X8309457Y6735326D01*
X8464674Y6890543D01*
X8590579Y7070354D01*
X8592902Y7075336D01*
X8592905Y7075341D01*
X8681022Y7264312D01*
X8683347Y7269297D01*
X8740161Y7481326D01*
X8759292Y7700000D01*
X8740161Y7918674D01*
X8683347Y8130703D01*
X8639896Y8223884D01*
X8592905Y8324659D01*
X8592902Y8324664D01*
X8590579Y8329646D01*
X8464674Y8509457D01*
X8309457Y8664674D01*
X8304949Y8667831D01*
X8304946Y8667833D01*
X8134155Y8787422D01*
X8134153Y8787423D01*
X8129646Y8790579D01*
X8124664Y8792902D01*
X8124659Y8792905D01*
X8032067Y8836081D01*
X7978782Y8882998D01*
X7959321Y8951276D01*
X7979863Y9019236D01*
X8032067Y9064471D01*
X8124410Y9107531D01*
X8133900Y9113011D01*
X8174278Y9141283D01*
X8182652Y9151758D01*
X8175583Y9165207D01*
X7512812Y9827978D01*
X7498868Y9835592D01*
X7497035Y9835461D01*
X7490420Y9831210D01*
X6823695Y9164485D01*
X6817265Y9152711D01*
X6826561Y9140696D01*
X6866100Y9113011D01*
X6875590Y9107531D01*
X6967933Y9064471D01*
X7021218Y9017554D01*
X7040679Y8949276D01*
X7020137Y8881316D01*
X6967933Y8836081D01*
X6875341Y8792905D01*
X6875336Y8792902D01*
X6870354Y8790579D01*
X6865847Y8787423D01*
X6865845Y8787422D01*
X6695054Y8667833D01*
X6695051Y8667831D01*
X6690543Y8664674D01*
X6535326Y8509457D01*
X6409421Y8329646D01*
X6407098Y8324664D01*
X6406819Y8324181D01*
X6355436Y8275189D01*
X6285722Y8261754D01*
X6219811Y8288142D01*
X6208606Y8298088D01*
X5496405Y9010289D01*
X5462379Y9072601D01*
X5459500Y9099384D01*
X5459500Y10194525D01*
X6241689Y10194525D01*
X6259855Y9986893D01*
X6261758Y9976098D01*
X6315701Y9774778D01*
X6319447Y9764486D01*
X6407531Y9575590D01*
X6413011Y9566100D01*
X6441283Y9525722D01*
X6451758Y9517348D01*
X6465207Y9524417D01*
X7127978Y10187188D01*
X7134356Y10198868D01*
X7864408Y10198868D01*
X7864539Y10197035D01*
X7868790Y10190420D01*
X8535515Y9523695D01*
X8547289Y9517265D01*
X8559304Y9526561D01*
X8586989Y9566100D01*
X8592469Y9575590D01*
X8680553Y9764486D01*
X8684299Y9774778D01*
X8738242Y9976098D01*
X8740145Y9986893D01*
X8758311Y10194525D01*
X8758311Y10205475D01*
X8740145Y10413107D01*
X8738242Y10423902D01*
X8684299Y10625222D01*
X8680553Y10635514D01*
X8592469Y10824410D01*
X8586989Y10833900D01*
X8558717Y10874278D01*
X8548242Y10882652D01*
X8534793Y10875583D01*
X7872022Y10212812D01*
X7864408Y10198868D01*
X7134356Y10198868D01*
X7135592Y10201132D01*
X7135461Y10202965D01*
X7131210Y10209580D01*
X6464485Y10876305D01*
X6452711Y10882735D01*
X6440696Y10873439D01*
X6413011Y10833900D01*
X6407531Y10824410D01*
X6319447Y10635514D01*
X6315701Y10625222D01*
X6261758Y10423902D01*
X6259855Y10413107D01*
X6241689Y10205475D01*
X6241689Y10194525D01*
X5459500Y10194525D01*
X5459500Y20360270D01*
X5479502Y20428391D01*
X5503669Y20456081D01*
X5559536Y20503796D01*
X5565314Y20508731D01*
X5657755Y20637376D01*
X5716842Y20784359D01*
X5739162Y20941193D01*
X5739307Y20955000D01*
X5720276Y21112267D01*
X5664280Y21260454D01*
X5574553Y21391008D01*
X5456275Y21496389D01*
X5448889Y21500300D01*
X5322988Y21566961D01*
X5322989Y21566961D01*
X5316274Y21570516D01*
X5162633Y21609108D01*
X5155034Y21609148D01*
X5155033Y21609148D01*
X5089181Y21609493D01*
X5004221Y21609938D01*
X4996841Y21608166D01*
X4996839Y21608166D01*
X4857563Y21574729D01*
X4857560Y21574728D01*
X4850184Y21572957D01*
X4709414Y21500300D01*
X4590039Y21396162D01*
X4498950Y21266556D01*
X4441406Y21118963D01*
X4420729Y20961904D01*
X3175000Y20961904D01*
X3175000Y22866904D01*
X4420729Y22866904D01*
X4423016Y22846193D01*
X4433518Y22751070D01*
X4438113Y22709447D01*
X4492553Y22560681D01*
X4580908Y22429195D01*
X4698076Y22322581D01*
X4837293Y22246992D01*
X4990522Y22206793D01*
X5087138Y22205275D01*
X5148772Y22204307D01*
X5216570Y22183238D01*
X5235888Y22167418D01*
X7083595Y20319711D01*
X7117621Y20257399D01*
X7120500Y20230616D01*
X7120500Y14080499D01*
X7100498Y14012378D01*
X7046842Y13965885D01*
X6994500Y13954499D01*
X6474934Y13954499D01*
X6439182Y13947388D01*
X6412874Y13942156D01*
X6412872Y13942155D01*
X6400699Y13939734D01*
X6390379Y13932839D01*
X6390378Y13932838D01*
X6329985Y13892484D01*
X6316516Y13883484D01*
X6260266Y13799301D01*
X6245500Y13725067D01*
X6245501Y11674934D01*
X6260266Y11600699D01*
X6316516Y11516516D01*
X6400699Y11460266D01*
X6474933Y11445500D01*
X6713001Y11445500D01*
X6781122Y11425498D01*
X6827615Y11371842D01*
X6837719Y11301568D01*
X6816438Y11252412D01*
X6816227Y11250375D01*
X6824417Y11234793D01*
X7487188Y10572022D01*
X7501132Y10564408D01*
X7502965Y10564539D01*
X7509580Y10568790D01*
X8176305Y11235515D01*
X8183825Y11249285D01*
X8160654Y11308520D01*
X8174644Y11378125D01*
X8224044Y11429117D01*
X8286175Y11445501D01*
X8525066Y11445501D01*
X8560818Y11452612D01*
X8587126Y11457844D01*
X8587128Y11457845D01*
X8599301Y11460266D01*
X8609621Y11467161D01*
X8609622Y11467162D01*
X8673168Y11509623D01*
X8683484Y11516516D01*
X8739734Y11600699D01*
X8754500Y11674933D01*
X8754499Y13725066D01*
X8739734Y13799301D01*
X8683484Y13883484D01*
X8599301Y13939734D01*
X8525067Y13954500D01*
X8005500Y13954500D01*
X7937379Y13974502D01*
X7890886Y14028158D01*
X7879500Y14080500D01*
X7879500Y20386080D01*
X7882049Y20410028D01*
X7882128Y20411693D01*
X7884320Y20421876D01*
X7880373Y20455223D01*
X7880023Y20461154D01*
X7879928Y20461146D01*
X7879500Y20466324D01*
X7879500Y20471524D01*
X7878646Y20476656D01*
X7876331Y20490565D01*
X7875494Y20496443D01*
X7870694Y20537001D01*
X7870694Y20537002D01*
X7869470Y20547341D01*
X7865507Y20555593D01*
X7864004Y20564626D01*
X7839665Y20609734D01*
X7836969Y20615025D01*
X7818213Y20654087D01*
X7818209Y20654093D01*
X7814781Y20661232D01*
X7811187Y20665508D01*
X7809248Y20667447D01*
X7807492Y20669362D01*
X7807445Y20669448D01*
X7807567Y20669561D01*
X7807095Y20670096D01*
X7804010Y20675814D01*
X7764426Y20712405D01*
X7760861Y20715834D01*
X5770143Y22706551D01*
X5736118Y22768863D01*
X5734495Y22813399D01*
X5738581Y22842108D01*
X5738581Y22842114D01*
X5739162Y22846193D01*
X5739307Y22860000D01*
X5720276Y23017267D01*
X5664280Y23165454D01*
X5574553Y23296008D01*
X5456275Y23401389D01*
X5448889Y23405300D01*
X5322988Y23471961D01*
X5322989Y23471961D01*
X5316274Y23475516D01*
X5162633Y23514108D01*
X5155034Y23514148D01*
X5155033Y23514148D01*
X5089181Y23514493D01*
X5004221Y23514938D01*
X4996841Y23513166D01*
X4996839Y23513166D01*
X4857563Y23479729D01*
X4857560Y23479728D01*
X4850184Y23477957D01*
X4709414Y23405300D01*
X4590039Y23301162D01*
X4498950Y23171556D01*
X4441406Y23023963D01*
X4420729Y22866904D01*
X3175000Y22866904D01*
X3175000Y28020000D01*
X6240708Y28020000D01*
X6259839Y27801326D01*
X6316653Y27589297D01*
X6318978Y27584312D01*
X6407095Y27395341D01*
X6407098Y27395336D01*
X6409421Y27390354D01*
X6535326Y27210543D01*
X6690543Y27055326D01*
X6695051Y27052169D01*
X6695054Y27052167D01*
X6865845Y26932578D01*
X6870354Y26929421D01*
X6875336Y26927098D01*
X6875341Y26927095D01*
X6976116Y26880104D01*
X7069297Y26836653D01*
X7281326Y26779839D01*
X7500000Y26760708D01*
X7718674Y26779839D01*
X7930703Y26836653D01*
X8023884Y26880104D01*
X8124659Y26927095D01*
X8124664Y26927098D01*
X8129646Y26929421D01*
X8134155Y26932578D01*
X8304946Y27052167D01*
X8304949Y27052169D01*
X8309457Y27055326D01*
X8464674Y27210543D01*
X8590579Y27390354D01*
X8592902Y27395336D01*
X8592905Y27395341D01*
X8681022Y27584312D01*
X8683347Y27589297D01*
X8740161Y27801326D01*
X8759292Y28020000D01*
X8740161Y28238674D01*
X8683347Y28450703D01*
X8639896Y28543884D01*
X8592905Y28644659D01*
X8592902Y28644664D01*
X8590579Y28649646D01*
X8464674Y28829457D01*
X8309457Y28984674D01*
X8304949Y28987831D01*
X8304946Y28987833D01*
X8134155Y29107422D01*
X8134153Y29107423D01*
X8129646Y29110579D01*
X8124664Y29112902D01*
X8124659Y29112905D01*
X8032067Y29156081D01*
X7978782Y29202998D01*
X7959321Y29271276D01*
X7979863Y29339236D01*
X8032067Y29384471D01*
X8124410Y29427531D01*
X8133900Y29433011D01*
X8174278Y29461283D01*
X8182652Y29471758D01*
X8175583Y29485207D01*
X7512812Y30147978D01*
X7498868Y30155592D01*
X7497035Y30155461D01*
X7490420Y30151210D01*
X6823695Y29484485D01*
X6817265Y29472711D01*
X6826561Y29460696D01*
X6866100Y29433011D01*
X6875590Y29427531D01*
X6967933Y29384471D01*
X7021218Y29337554D01*
X7040679Y29269276D01*
X7020137Y29201316D01*
X6967933Y29156081D01*
X6875341Y29112905D01*
X6875336Y29112902D01*
X6870354Y29110579D01*
X6865847Y29107423D01*
X6865845Y29107422D01*
X6695054Y28987833D01*
X6695051Y28987831D01*
X6690543Y28984674D01*
X6535326Y28829457D01*
X6409421Y28649646D01*
X6407098Y28644664D01*
X6407095Y28644659D01*
X6360104Y28543884D01*
X6316653Y28450703D01*
X6259839Y28238674D01*
X6240708Y28020000D01*
X3175000Y28020000D01*
X3175000Y30514525D01*
X6241689Y30514525D01*
X6259855Y30306893D01*
X6261758Y30296098D01*
X6315701Y30094778D01*
X6319447Y30084486D01*
X6407531Y29895590D01*
X6413011Y29886100D01*
X6441283Y29845722D01*
X6451758Y29837348D01*
X6465207Y29844417D01*
X7127978Y30507188D01*
X7134356Y30518868D01*
X7864408Y30518868D01*
X7864539Y30517035D01*
X7868790Y30510420D01*
X8535515Y29843695D01*
X8547289Y29837265D01*
X8559304Y29846561D01*
X8586989Y29886100D01*
X8592469Y29895590D01*
X8680553Y30084486D01*
X8684299Y30094778D01*
X8738242Y30296098D01*
X8740145Y30306893D01*
X8758311Y30514525D01*
X8758311Y30525475D01*
X8740145Y30733107D01*
X8738242Y30743902D01*
X8684299Y30945222D01*
X8680553Y30955514D01*
X8592469Y31144410D01*
X8586989Y31153900D01*
X8558717Y31194278D01*
X8548242Y31202652D01*
X8534793Y31195583D01*
X7872022Y30532812D01*
X7864408Y30518868D01*
X7134356Y30518868D01*
X7135592Y30521132D01*
X7135461Y30522965D01*
X7131210Y30529580D01*
X6464485Y31196305D01*
X6452711Y31202735D01*
X6440696Y31193439D01*
X6413011Y31153900D01*
X6407531Y31144410D01*
X6319447Y30955514D01*
X6315701Y30945222D01*
X6261758Y30743902D01*
X6259855Y30733107D01*
X6241689Y30525475D01*
X6241689Y30514525D01*
X3175000Y30514525D01*
X3175000Y34045067D01*
X6245500Y34045067D01*
X6245501Y31994934D01*
X6260266Y31920699D01*
X6316516Y31836516D01*
X6400699Y31780266D01*
X6474933Y31765500D01*
X6713001Y31765500D01*
X6781122Y31745498D01*
X6827615Y31691842D01*
X6837719Y31621568D01*
X6816438Y31572412D01*
X6816227Y31570375D01*
X6824417Y31554793D01*
X7487188Y30892022D01*
X7501132Y30884408D01*
X7502965Y30884539D01*
X7509580Y30888790D01*
X8176305Y31555515D01*
X8183825Y31569285D01*
X8160654Y31628520D01*
X8174644Y31698125D01*
X8224044Y31749117D01*
X8286175Y31765501D01*
X8525066Y31765501D01*
X8560818Y31772612D01*
X8587126Y31777844D01*
X8587128Y31777845D01*
X8599301Y31780266D01*
X8609621Y31787161D01*
X8609622Y31787162D01*
X8673168Y31829623D01*
X8683484Y31836516D01*
X8739734Y31920699D01*
X8754500Y31994933D01*
X8754499Y34045066D01*
X8739734Y34119301D01*
X8683484Y34203484D01*
X8599301Y34259734D01*
X8525067Y34274500D01*
X7500166Y34274500D01*
X6474934Y34274499D01*
X6439182Y34267388D01*
X6412874Y34262156D01*
X6412872Y34262155D01*
X6400699Y34259734D01*
X6390379Y34252839D01*
X6390378Y34252838D01*
X6329985Y34212484D01*
X6316516Y34203484D01*
X6260266Y34119301D01*
X6245500Y34045067D01*
X3175000Y34045067D01*
X3175000Y40386000D01*
X12955000Y40386000D01*
X13023121Y40365998D01*
G37*
G04 #@! TD.AperFunction*
M02*
