%FSLAX45Y45*%
G04 Gerber Fmt 4.5, Leading zero omitted, Abs format (unit mm)*
G04 Created by KiCad (PCBNEW 6.0.1-79c1e3a40b~116~ubuntu20.04.1) date 2022-02-03 13:15:36*
%MOMM*%
%LPD*%
G01*
G04 APERTURE LIST*
%TA.AperFunction,Profile*%
%ADD10C,0.050000*%
%TD*%
%ADD11C,0.200000*%
%ADD12C,0.040000*%
%ADD13C,0.080000*%
%ADD14C,0.100000*%
%ADD15C,0.220000*%
G04 APERTURE END LIST*
D10*
X-1333500Y-4064000D02*
X-1333500Y4064000D01*
X1333500Y-4064000D02*
X-1333500Y-4064000D01*
X1333500Y4064000D02*
X1333500Y-4064000D01*
X-1333500Y4064000D02*
X1333500Y4064000D01*
D11*
D12*
X-1036000Y-2837500D02*
X-996000Y-2877500D01*
X-996000Y-2837500D02*
X-1036000Y-2877500D01*
X-782000Y2306000D02*
X-742000Y2266000D01*
X-742000Y2306000D02*
X-782000Y2266000D01*
X-655000Y1671000D02*
X-615000Y1631000D01*
X-615000Y1671000D02*
X-655000Y1631000D01*
X-528000Y2306000D02*
X-488000Y2266000D01*
X-488000Y2306000D02*
X-528000Y2266000D01*
X-528000Y2115500D02*
X-488000Y2075500D01*
X-488000Y2115500D02*
X-528000Y2075500D01*
X-464500Y3322000D02*
X-424500Y3282000D01*
X-424500Y3322000D02*
X-464500Y3282000D01*
X-464500Y2814000D02*
X-424500Y2774000D01*
X-424500Y2814000D02*
X-464500Y2774000D01*
X-464500Y2496500D02*
X-424500Y2456500D01*
X-424500Y2496500D02*
X-464500Y2456500D01*
X-464500Y1861500D02*
X-424500Y1821500D01*
X-424500Y1861500D02*
X-464500Y1821500D01*
X-464500Y-2583500D02*
X-424500Y-2623500D01*
X-424500Y-2583500D02*
X-464500Y-2623500D01*
X-464500Y-3028000D02*
X-424500Y-3068000D01*
X-424500Y-3028000D02*
X-464500Y-3068000D01*
X488000Y2306000D02*
X528000Y2266000D01*
X528000Y2306000D02*
X488000Y2266000D01*
X488000Y2115500D02*
X528000Y2075500D01*
X528000Y2115500D02*
X488000Y2075500D01*
X932500Y1988500D02*
X972500Y1948500D01*
X972500Y1988500D02*
X932500Y1948500D01*
X932500Y1798000D02*
X972500Y1758000D01*
X972500Y1798000D02*
X932500Y1758000D01*
D13*
X-1103000Y3238500D02*
G75*
G03*
X-1103000Y3238500I-40000J0D01*
G01*
X-1103000Y2984500D02*
G75*
G03*
X-1103000Y2984500I-40000J0D01*
G01*
X-1103000Y2730500D02*
G75*
G03*
X-1103000Y2730500I-40000J0D01*
G01*
X-1103000Y2476500D02*
G75*
G03*
X-1103000Y2476500I-40000J0D01*
G01*
X-1103000Y2222500D02*
G75*
G03*
X-1103000Y2222500I-40000J0D01*
G01*
X-1103000Y1968500D02*
G75*
G03*
X-1103000Y1968500I-40000J0D01*
G01*
X-1103000Y1714500D02*
G75*
G03*
X-1103000Y1714500I-40000J0D01*
G01*
X-1103000Y1460500D02*
G75*
G03*
X-1103000Y1460500I-40000J0D01*
G01*
X-912500Y3111500D02*
G75*
G03*
X-912500Y3111500I-40000J0D01*
G01*
X-912500Y2857500D02*
G75*
G03*
X-912500Y2857500I-40000J0D01*
G01*
X-912500Y2603500D02*
G75*
G03*
X-912500Y2603500I-40000J0D01*
G01*
X-912500Y2349500D02*
G75*
G03*
X-912500Y2349500I-40000J0D01*
G01*
X-912500Y2095500D02*
G75*
G03*
X-912500Y2095500I-40000J0D01*
G01*
X-912500Y1841500D02*
G75*
G03*
X-912500Y1841500I-40000J0D01*
G01*
X-912500Y1587500D02*
G75*
G03*
X-912500Y1587500I-40000J0D01*
G01*
X-912500Y1333500D02*
G75*
G03*
X-912500Y1333500I-40000J0D01*
G01*
D14*
X-700000Y3352000D02*
X-700000Y3252000D01*
X-750000Y3302000D02*
X-650000Y3302000D01*
X-700000Y2852000D02*
X-700000Y2752000D01*
X-750000Y2802000D02*
X-650000Y2802000D01*
X-700000Y1320000D02*
X-700000Y1220000D01*
X-750000Y1270000D02*
X-650000Y1270000D01*
X-700000Y820000D02*
X-700000Y720000D01*
X-750000Y770000D02*
X-650000Y770000D01*
X-700000Y-712000D02*
X-700000Y-812000D01*
X-750000Y-762000D02*
X-650000Y-762000D01*
X-700000Y-1212000D02*
X-700000Y-1312000D01*
X-750000Y-1262000D02*
X-650000Y-1262000D01*
X-700000Y-2744000D02*
X-700000Y-2844000D01*
X-750000Y-2794000D02*
X-650000Y-2794000D01*
X-700000Y-3244000D02*
X-700000Y-3344000D01*
X-750000Y-3294000D02*
X-650000Y-3294000D01*
X-698500Y-1982000D02*
X-698500Y-2082000D01*
X-748500Y-2032000D02*
X-648500Y-2032000D01*
X0Y-1982000D02*
X0Y-2082000D01*
X-50000Y-2032000D02*
X50000Y-2032000D01*
X750000Y3352000D02*
X750000Y3252000D01*
X700000Y3302000D02*
X800000Y3302000D01*
X750000Y3102000D02*
X750000Y3002000D01*
X700000Y3052000D02*
X800000Y3052000D01*
X750000Y2852000D02*
X750000Y2752000D01*
X700000Y2802000D02*
X800000Y2802000D01*
X750000Y1320000D02*
X750000Y1220000D01*
X700000Y1270000D02*
X800000Y1270000D01*
X750000Y1070000D02*
X750000Y970000D01*
X700000Y1020000D02*
X800000Y1020000D01*
X750000Y820000D02*
X750000Y720000D01*
X700000Y770000D02*
X800000Y770000D01*
X750000Y-712000D02*
X750000Y-812000D01*
X700000Y-762000D02*
X800000Y-762000D01*
X750000Y-962000D02*
X750000Y-1062000D01*
X700000Y-1012000D02*
X800000Y-1012000D01*
X750000Y-1212000D02*
X750000Y-1312000D01*
X700000Y-1262000D02*
X800000Y-1262000D01*
X750000Y-2744000D02*
X750000Y-2844000D01*
X700000Y-2794000D02*
X800000Y-2794000D01*
X750000Y-2994000D02*
X750000Y-3094000D01*
X700000Y-3044000D02*
X800000Y-3044000D01*
X750000Y-3244000D02*
X750000Y-3344000D01*
X700000Y-3294000D02*
X800000Y-3294000D01*
X762000Y-1982000D02*
X762000Y-2082000D01*
X712000Y-2032000D02*
X812000Y-2032000D01*
D15*
X77783Y3534217D02*
X77783Y3689782D01*
X-77783Y3689782D01*
X-77783Y3534217D01*
X77783Y3534217D01*
X77783Y2414218D02*
X77783Y2569783D01*
X-77783Y2569783D01*
X-77783Y2414218D01*
X77783Y2414218D01*
X77783Y1502217D02*
X77783Y1657782D01*
X-77783Y1657782D01*
X-77783Y1502217D01*
X77783Y1502217D01*
X77783Y382217D02*
X77783Y537783D01*
X-77783Y537783D01*
X-77783Y382217D01*
X77783Y382217D01*
X77783Y-529783D02*
X77783Y-374217D01*
X-77783Y-374217D01*
X-77783Y-529783D01*
X77783Y-529783D01*
X77783Y-1649782D02*
X77783Y-1494217D01*
X-77783Y-1494217D01*
X-77783Y-1649782D01*
X77783Y-1649782D01*
X77783Y-2561783D02*
X77783Y-2406218D01*
X-77783Y-2406218D01*
X-77783Y-2561783D01*
X77783Y-2561783D01*
X77783Y-3681782D02*
X77783Y-3526217D01*
X-77783Y-3526217D01*
X-77783Y-3681782D01*
X77783Y-3681782D01*
D11*
X-1078381Y-4376976D02*
X-1078381Y-4176976D01*
X-1030762Y-4176976D01*
X-1002190Y-4186500D01*
X-983143Y-4205548D01*
X-973619Y-4224595D01*
X-964095Y-4262690D01*
X-964095Y-4291262D01*
X-973619Y-4329357D01*
X-983143Y-4348405D01*
X-1002190Y-4367452D01*
X-1030762Y-4376976D01*
X-1078381Y-4376976D01*
X-878381Y-4376976D02*
X-878381Y-4243643D01*
X-878381Y-4281738D02*
X-868857Y-4262690D01*
X-859333Y-4253167D01*
X-840286Y-4243643D01*
X-821238Y-4243643D01*
X-754571Y-4376976D02*
X-754571Y-4243643D01*
X-754571Y-4176976D02*
X-764095Y-4186500D01*
X-754571Y-4196024D01*
X-745048Y-4186500D01*
X-754571Y-4176976D01*
X-754571Y-4196024D01*
X-630762Y-4376976D02*
X-649810Y-4367452D01*
X-659333Y-4348405D01*
X-659333Y-4176976D01*
X-526000Y-4376976D02*
X-545048Y-4367452D01*
X-554571Y-4348405D01*
X-554571Y-4176976D01*
X-297429Y-4376976D02*
X-297429Y-4176976D01*
X-230762Y-4319833D01*
X-164095Y-4176976D01*
X-164095Y-4376976D01*
X16857Y-4376976D02*
X16857Y-4272214D01*
X7333Y-4253167D01*
X-11714Y-4243643D01*
X-49809Y-4243643D01*
X-68857Y-4253167D01*
X16857Y-4367452D02*
X-2190Y-4376976D01*
X-49809Y-4376976D01*
X-68857Y-4367452D01*
X-78381Y-4348405D01*
X-78381Y-4329357D01*
X-68857Y-4310310D01*
X-49809Y-4300786D01*
X-2190Y-4300786D01*
X16857Y-4291262D01*
X112095Y-4243643D02*
X112095Y-4443643D01*
X112095Y-4253167D02*
X131143Y-4243643D01*
X169238Y-4243643D01*
X188286Y-4253167D01*
X197809Y-4262690D01*
X207333Y-4281738D01*
X207333Y-4338881D01*
X197809Y-4357929D01*
X188286Y-4367452D01*
X169238Y-4376976D01*
X131143Y-4376976D01*
X112095Y-4367452D01*
X293048Y-4357929D02*
X302571Y-4367452D01*
X293048Y-4376976D01*
X283524Y-4367452D01*
X293048Y-4357929D01*
X293048Y-4376976D01*
X293048Y-4253167D02*
X302571Y-4262690D01*
X293048Y-4272214D01*
X283524Y-4262690D01*
X293048Y-4253167D01*
X293048Y-4272214D01*
D12*
X-1376000Y-4686500D02*
X-1336000Y-4726500D01*
X-1336000Y-4686500D02*
X-1376000Y-4726500D01*
D11*
X-1040286Y-4596976D02*
X-1021238Y-4596976D01*
X-1002190Y-4606500D01*
X-992667Y-4616024D01*
X-983143Y-4635071D01*
X-973619Y-4673167D01*
X-973619Y-4720786D01*
X-983143Y-4758881D01*
X-992667Y-4777929D01*
X-1002190Y-4787452D01*
X-1021238Y-4796976D01*
X-1040286Y-4796976D01*
X-1059333Y-4787452D01*
X-1068857Y-4777929D01*
X-1078381Y-4758881D01*
X-1087905Y-4720786D01*
X-1087905Y-4673167D01*
X-1078381Y-4635071D01*
X-1068857Y-4616024D01*
X-1059333Y-4606500D01*
X-1040286Y-4596976D01*
X-887905Y-4777929D02*
X-878381Y-4787452D01*
X-887905Y-4796976D01*
X-897428Y-4787452D01*
X-887905Y-4777929D01*
X-887905Y-4796976D01*
X-706952Y-4663643D02*
X-706952Y-4796976D01*
X-754571Y-4587452D02*
X-802190Y-4730310D01*
X-678381Y-4730310D01*
X-564095Y-4596976D02*
X-545048Y-4596976D01*
X-526000Y-4606500D01*
X-516476Y-4616024D01*
X-506952Y-4635071D01*
X-497428Y-4673167D01*
X-497428Y-4720786D01*
X-506952Y-4758881D01*
X-516476Y-4777929D01*
X-526000Y-4787452D01*
X-545048Y-4796976D01*
X-564095Y-4796976D01*
X-583143Y-4787452D01*
X-592667Y-4777929D01*
X-602190Y-4758881D01*
X-611714Y-4720786D01*
X-611714Y-4673167D01*
X-602190Y-4635071D01*
X-592667Y-4616024D01*
X-583143Y-4606500D01*
X-564095Y-4596976D01*
X-373619Y-4596976D02*
X-354571Y-4596976D01*
X-335524Y-4606500D01*
X-326000Y-4616024D01*
X-316476Y-4635071D01*
X-306952Y-4673167D01*
X-306952Y-4720786D01*
X-316476Y-4758881D01*
X-326000Y-4777929D01*
X-335524Y-4787452D01*
X-354571Y-4796976D01*
X-373619Y-4796976D01*
X-392667Y-4787452D01*
X-402190Y-4777929D01*
X-411714Y-4758881D01*
X-421238Y-4720786D01*
X-421238Y-4673167D01*
X-411714Y-4635071D01*
X-402190Y-4616024D01*
X-392667Y-4606500D01*
X-373619Y-4596976D01*
X-221238Y-4796976D02*
X-221238Y-4663643D01*
X-221238Y-4682690D02*
X-211714Y-4673167D01*
X-192667Y-4663643D01*
X-164095Y-4663643D01*
X-145048Y-4673167D01*
X-135524Y-4692214D01*
X-135524Y-4796976D01*
X-135524Y-4692214D02*
X-126000Y-4673167D01*
X-106952Y-4663643D01*
X-78381Y-4663643D01*
X-59333Y-4673167D01*
X-49809Y-4692214D01*
X-49809Y-4796976D01*
X45428Y-4796976D02*
X45428Y-4663643D01*
X45428Y-4682690D02*
X54952Y-4673167D01*
X74000Y-4663643D01*
X102571Y-4663643D01*
X121619Y-4673167D01*
X131143Y-4692214D01*
X131143Y-4796976D01*
X131143Y-4692214D02*
X140667Y-4673167D01*
X159714Y-4663643D01*
X188286Y-4663643D01*
X207333Y-4673167D01*
X216857Y-4692214D01*
X216857Y-4796976D01*
X607333Y-4587452D02*
X435905Y-4844595D01*
X864476Y-4596976D02*
X883524Y-4596976D01*
X902571Y-4606500D01*
X912095Y-4616024D01*
X921619Y-4635071D01*
X931143Y-4673167D01*
X931143Y-4720786D01*
X921619Y-4758881D01*
X912095Y-4777929D01*
X902571Y-4787452D01*
X883524Y-4796976D01*
X864476Y-4796976D01*
X845428Y-4787452D01*
X835905Y-4777929D01*
X826381Y-4758881D01*
X816857Y-4720786D01*
X816857Y-4673167D01*
X826381Y-4635071D01*
X835905Y-4616024D01*
X845428Y-4606500D01*
X864476Y-4596976D01*
X1016857Y-4777929D02*
X1026381Y-4787452D01*
X1016857Y-4796976D01*
X1007333Y-4787452D01*
X1016857Y-4777929D01*
X1016857Y-4796976D01*
X1150190Y-4596976D02*
X1169238Y-4596976D01*
X1188286Y-4606500D01*
X1197810Y-4616024D01*
X1207333Y-4635071D01*
X1216857Y-4673167D01*
X1216857Y-4720786D01*
X1207333Y-4758881D01*
X1197810Y-4777929D01*
X1188286Y-4787452D01*
X1169238Y-4796976D01*
X1150190Y-4796976D01*
X1131143Y-4787452D01*
X1121619Y-4777929D01*
X1112095Y-4758881D01*
X1102571Y-4720786D01*
X1102571Y-4673167D01*
X1112095Y-4635071D01*
X1121619Y-4616024D01*
X1131143Y-4606500D01*
X1150190Y-4596976D01*
X1407333Y-4796976D02*
X1293048Y-4796976D01*
X1350190Y-4796976D02*
X1350190Y-4596976D01*
X1331143Y-4625548D01*
X1312095Y-4644595D01*
X1293048Y-4654119D01*
X1588286Y-4596976D02*
X1493048Y-4596976D01*
X1483524Y-4692214D01*
X1493048Y-4682690D01*
X1512095Y-4673167D01*
X1559714Y-4673167D01*
X1578762Y-4682690D01*
X1588286Y-4692214D01*
X1597809Y-4711262D01*
X1597809Y-4758881D01*
X1588286Y-4777929D01*
X1578762Y-4787452D01*
X1559714Y-4796976D01*
X1512095Y-4796976D01*
X1493048Y-4787452D01*
X1483524Y-4777929D01*
X1664476Y-4596976D02*
X1797809Y-4596976D01*
X1712095Y-4796976D01*
X1864476Y-4596976D02*
X1864476Y-4635071D01*
X1940667Y-4596976D02*
X1940667Y-4635071D01*
X2235905Y-4873167D02*
X2226381Y-4863643D01*
X2207333Y-4835071D01*
X2197810Y-4816024D01*
X2188286Y-4787452D01*
X2178762Y-4739833D01*
X2178762Y-4701738D01*
X2188286Y-4654119D01*
X2197810Y-4625548D01*
X2207333Y-4606500D01*
X2226381Y-4577929D01*
X2235905Y-4568405D01*
X2416857Y-4796976D02*
X2302571Y-4796976D01*
X2359714Y-4796976D02*
X2359714Y-4596976D01*
X2340667Y-4625548D01*
X2321619Y-4644595D01*
X2302571Y-4654119D01*
X2597810Y-4596976D02*
X2502571Y-4596976D01*
X2493048Y-4692214D01*
X2502571Y-4682690D01*
X2521619Y-4673167D01*
X2569238Y-4673167D01*
X2588286Y-4682690D01*
X2597810Y-4692214D01*
X2607333Y-4711262D01*
X2607333Y-4758881D01*
X2597810Y-4777929D01*
X2588286Y-4787452D01*
X2569238Y-4796976D01*
X2521619Y-4796976D01*
X2502571Y-4787452D01*
X2493048Y-4777929D01*
X2845428Y-4796976D02*
X2845428Y-4596976D01*
X2931143Y-4796976D02*
X2931143Y-4692214D01*
X2921619Y-4673167D01*
X2902571Y-4663643D01*
X2874000Y-4663643D01*
X2854952Y-4673167D01*
X2845428Y-4682690D01*
X3054952Y-4796976D02*
X3035905Y-4787452D01*
X3026381Y-4777929D01*
X3016857Y-4758881D01*
X3016857Y-4701738D01*
X3026381Y-4682690D01*
X3035905Y-4673167D01*
X3054952Y-4663643D01*
X3083524Y-4663643D01*
X3102571Y-4673167D01*
X3112095Y-4682690D01*
X3121619Y-4701738D01*
X3121619Y-4758881D01*
X3112095Y-4777929D01*
X3102571Y-4787452D01*
X3083524Y-4796976D01*
X3054952Y-4796976D01*
X3235905Y-4796976D02*
X3216857Y-4787452D01*
X3207333Y-4768405D01*
X3207333Y-4596976D01*
X3388286Y-4787452D02*
X3369238Y-4796976D01*
X3331143Y-4796976D01*
X3312095Y-4787452D01*
X3302571Y-4768405D01*
X3302571Y-4692214D01*
X3312095Y-4673167D01*
X3331143Y-4663643D01*
X3369238Y-4663643D01*
X3388286Y-4673167D01*
X3397809Y-4692214D01*
X3397809Y-4711262D01*
X3302571Y-4730310D01*
X3474000Y-4787452D02*
X3493048Y-4796976D01*
X3531143Y-4796976D01*
X3550190Y-4787452D01*
X3559714Y-4768405D01*
X3559714Y-4758881D01*
X3550190Y-4739833D01*
X3531143Y-4730310D01*
X3502571Y-4730310D01*
X3483524Y-4720786D01*
X3474000Y-4701738D01*
X3474000Y-4692214D01*
X3483524Y-4673167D01*
X3502571Y-4663643D01*
X3531143Y-4663643D01*
X3550190Y-4673167D01*
X3626381Y-4873167D02*
X3635905Y-4863643D01*
X3654952Y-4835071D01*
X3664476Y-4816024D01*
X3674000Y-4787452D01*
X3683524Y-4739833D01*
X3683524Y-4701738D01*
X3674000Y-4654119D01*
X3664476Y-4625548D01*
X3654952Y-4606500D01*
X3635905Y-4577929D01*
X3626381Y-4568405D01*
D13*
X-1336000Y-4970500D02*
G75*
G03*
X-1336000Y-4970500I-40000J0D01*
G01*
D11*
X-1040286Y-4860976D02*
X-1021238Y-4860976D01*
X-1002190Y-4870500D01*
X-992667Y-4880024D01*
X-983143Y-4899071D01*
X-973619Y-4937167D01*
X-973619Y-4984786D01*
X-983143Y-5022881D01*
X-992667Y-5041929D01*
X-1002190Y-5051452D01*
X-1021238Y-5060976D01*
X-1040286Y-5060976D01*
X-1059333Y-5051452D01*
X-1068857Y-5041929D01*
X-1078381Y-5022881D01*
X-1087905Y-4984786D01*
X-1087905Y-4937167D01*
X-1078381Y-4899071D01*
X-1068857Y-4880024D01*
X-1059333Y-4870500D01*
X-1040286Y-4860976D01*
X-887905Y-5041929D02*
X-878381Y-5051452D01*
X-887905Y-5060976D01*
X-897428Y-5051452D01*
X-887905Y-5041929D01*
X-887905Y-5060976D01*
X-764095Y-4946690D02*
X-783143Y-4937167D01*
X-792667Y-4927643D01*
X-802190Y-4908595D01*
X-802190Y-4899071D01*
X-792667Y-4880024D01*
X-783143Y-4870500D01*
X-764095Y-4860976D01*
X-726000Y-4860976D01*
X-706952Y-4870500D01*
X-697429Y-4880024D01*
X-687905Y-4899071D01*
X-687905Y-4908595D01*
X-697429Y-4927643D01*
X-706952Y-4937167D01*
X-726000Y-4946690D01*
X-764095Y-4946690D01*
X-783143Y-4956214D01*
X-792667Y-4965738D01*
X-802190Y-4984786D01*
X-802190Y-5022881D01*
X-792667Y-5041929D01*
X-783143Y-5051452D01*
X-764095Y-5060976D01*
X-726000Y-5060976D01*
X-706952Y-5051452D01*
X-697429Y-5041929D01*
X-687905Y-5022881D01*
X-687905Y-4984786D01*
X-697429Y-4965738D01*
X-706952Y-4956214D01*
X-726000Y-4946690D01*
X-564095Y-4860976D02*
X-545048Y-4860976D01*
X-526000Y-4870500D01*
X-516476Y-4880024D01*
X-506952Y-4899071D01*
X-497428Y-4937167D01*
X-497428Y-4984786D01*
X-506952Y-5022881D01*
X-516476Y-5041929D01*
X-526000Y-5051452D01*
X-545048Y-5060976D01*
X-564095Y-5060976D01*
X-583143Y-5051452D01*
X-592667Y-5041929D01*
X-602190Y-5022881D01*
X-611714Y-4984786D01*
X-611714Y-4937167D01*
X-602190Y-4899071D01*
X-592667Y-4880024D01*
X-583143Y-4870500D01*
X-564095Y-4860976D01*
X-373619Y-4860976D02*
X-354571Y-4860976D01*
X-335524Y-4870500D01*
X-326000Y-4880024D01*
X-316476Y-4899071D01*
X-306952Y-4937167D01*
X-306952Y-4984786D01*
X-316476Y-5022881D01*
X-326000Y-5041929D01*
X-335524Y-5051452D01*
X-354571Y-5060976D01*
X-373619Y-5060976D01*
X-392667Y-5051452D01*
X-402190Y-5041929D01*
X-411714Y-5022881D01*
X-421238Y-4984786D01*
X-421238Y-4937167D01*
X-411714Y-4899071D01*
X-402190Y-4880024D01*
X-392667Y-4870500D01*
X-373619Y-4860976D01*
X-221238Y-5060976D02*
X-221238Y-4927643D01*
X-221238Y-4946690D02*
X-211714Y-4937167D01*
X-192667Y-4927643D01*
X-164095Y-4927643D01*
X-145048Y-4937167D01*
X-135524Y-4956214D01*
X-135524Y-5060976D01*
X-135524Y-4956214D02*
X-126000Y-4937167D01*
X-106952Y-4927643D01*
X-78381Y-4927643D01*
X-59333Y-4937167D01*
X-49809Y-4956214D01*
X-49809Y-5060976D01*
X45428Y-5060976D02*
X45428Y-4927643D01*
X45428Y-4946690D02*
X54952Y-4937167D01*
X74000Y-4927643D01*
X102571Y-4927643D01*
X121619Y-4937167D01*
X131143Y-4956214D01*
X131143Y-5060976D01*
X131143Y-4956214D02*
X140667Y-4937167D01*
X159714Y-4927643D01*
X188286Y-4927643D01*
X207333Y-4937167D01*
X216857Y-4956214D01*
X216857Y-5060976D01*
X607333Y-4851452D02*
X435905Y-5108595D01*
X864476Y-4860976D02*
X883524Y-4860976D01*
X902571Y-4870500D01*
X912095Y-4880024D01*
X921619Y-4899071D01*
X931143Y-4937167D01*
X931143Y-4984786D01*
X921619Y-5022881D01*
X912095Y-5041929D01*
X902571Y-5051452D01*
X883524Y-5060976D01*
X864476Y-5060976D01*
X845428Y-5051452D01*
X835905Y-5041929D01*
X826381Y-5022881D01*
X816857Y-4984786D01*
X816857Y-4937167D01*
X826381Y-4899071D01*
X835905Y-4880024D01*
X845428Y-4870500D01*
X864476Y-4860976D01*
X1016857Y-5041929D02*
X1026381Y-5051452D01*
X1016857Y-5060976D01*
X1007333Y-5051452D01*
X1016857Y-5041929D01*
X1016857Y-5060976D01*
X1150190Y-4860976D02*
X1169238Y-4860976D01*
X1188286Y-4870500D01*
X1197810Y-4880024D01*
X1207333Y-4899071D01*
X1216857Y-4937167D01*
X1216857Y-4984786D01*
X1207333Y-5022881D01*
X1197810Y-5041929D01*
X1188286Y-5051452D01*
X1169238Y-5060976D01*
X1150190Y-5060976D01*
X1131143Y-5051452D01*
X1121619Y-5041929D01*
X1112095Y-5022881D01*
X1102571Y-4984786D01*
X1102571Y-4937167D01*
X1112095Y-4899071D01*
X1121619Y-4880024D01*
X1131143Y-4870500D01*
X1150190Y-4860976D01*
X1283524Y-4860976D02*
X1407333Y-4860976D01*
X1340667Y-4937167D01*
X1369238Y-4937167D01*
X1388286Y-4946690D01*
X1397810Y-4956214D01*
X1407333Y-4975262D01*
X1407333Y-5022881D01*
X1397810Y-5041929D01*
X1388286Y-5051452D01*
X1369238Y-5060976D01*
X1312095Y-5060976D01*
X1293048Y-5051452D01*
X1283524Y-5041929D01*
X1597809Y-5060976D02*
X1483524Y-5060976D01*
X1540667Y-5060976D02*
X1540667Y-4860976D01*
X1521619Y-4889548D01*
X1502571Y-4908595D01*
X1483524Y-4918119D01*
X1778762Y-4860976D02*
X1683524Y-4860976D01*
X1674000Y-4956214D01*
X1683524Y-4946690D01*
X1702571Y-4937167D01*
X1750190Y-4937167D01*
X1769238Y-4946690D01*
X1778762Y-4956214D01*
X1788286Y-4975262D01*
X1788286Y-5022881D01*
X1778762Y-5041929D01*
X1769238Y-5051452D01*
X1750190Y-5060976D01*
X1702571Y-5060976D01*
X1683524Y-5051452D01*
X1674000Y-5041929D01*
X1864476Y-4860976D02*
X1864476Y-4899071D01*
X1940667Y-4860976D02*
X1940667Y-4899071D01*
X2235905Y-5137167D02*
X2226381Y-5127643D01*
X2207333Y-5099071D01*
X2197810Y-5080024D01*
X2188286Y-5051452D01*
X2178762Y-5003833D01*
X2178762Y-4965738D01*
X2188286Y-4918119D01*
X2197810Y-4889548D01*
X2207333Y-4870500D01*
X2226381Y-4841929D01*
X2235905Y-4832405D01*
X2416857Y-5060976D02*
X2302571Y-5060976D01*
X2359714Y-5060976D02*
X2359714Y-4860976D01*
X2340667Y-4889548D01*
X2321619Y-4908595D01*
X2302571Y-4918119D01*
X2588286Y-4860976D02*
X2550190Y-4860976D01*
X2531143Y-4870500D01*
X2521619Y-4880024D01*
X2502571Y-4908595D01*
X2493048Y-4946690D01*
X2493048Y-5022881D01*
X2502571Y-5041929D01*
X2512095Y-5051452D01*
X2531143Y-5060976D01*
X2569238Y-5060976D01*
X2588286Y-5051452D01*
X2597810Y-5041929D01*
X2607333Y-5022881D01*
X2607333Y-4975262D01*
X2597810Y-4956214D01*
X2588286Y-4946690D01*
X2569238Y-4937167D01*
X2531143Y-4937167D01*
X2512095Y-4946690D01*
X2502571Y-4956214D01*
X2493048Y-4975262D01*
X2845428Y-5060976D02*
X2845428Y-4860976D01*
X2931143Y-5060976D02*
X2931143Y-4956214D01*
X2921619Y-4937167D01*
X2902571Y-4927643D01*
X2874000Y-4927643D01*
X2854952Y-4937167D01*
X2845428Y-4946690D01*
X3054952Y-5060976D02*
X3035905Y-5051452D01*
X3026381Y-5041929D01*
X3016857Y-5022881D01*
X3016857Y-4965738D01*
X3026381Y-4946690D01*
X3035905Y-4937167D01*
X3054952Y-4927643D01*
X3083524Y-4927643D01*
X3102571Y-4937167D01*
X3112095Y-4946690D01*
X3121619Y-4965738D01*
X3121619Y-5022881D01*
X3112095Y-5041929D01*
X3102571Y-5051452D01*
X3083524Y-5060976D01*
X3054952Y-5060976D01*
X3235905Y-5060976D02*
X3216857Y-5051452D01*
X3207333Y-5032405D01*
X3207333Y-4860976D01*
X3388286Y-5051452D02*
X3369238Y-5060976D01*
X3331143Y-5060976D01*
X3312095Y-5051452D01*
X3302571Y-5032405D01*
X3302571Y-4956214D01*
X3312095Y-4937167D01*
X3331143Y-4927643D01*
X3369238Y-4927643D01*
X3388286Y-4937167D01*
X3397809Y-4956214D01*
X3397809Y-4975262D01*
X3302571Y-4994310D01*
X3474000Y-5051452D02*
X3493048Y-5060976D01*
X3531143Y-5060976D01*
X3550190Y-5051452D01*
X3559714Y-5032405D01*
X3559714Y-5022881D01*
X3550190Y-5003833D01*
X3531143Y-4994310D01*
X3502571Y-4994310D01*
X3483524Y-4984786D01*
X3474000Y-4965738D01*
X3474000Y-4956214D01*
X3483524Y-4937167D01*
X3502571Y-4927643D01*
X3531143Y-4927643D01*
X3550190Y-4937167D01*
X3626381Y-5137167D02*
X3635905Y-5127643D01*
X3654952Y-5099071D01*
X3664476Y-5080024D01*
X3674000Y-5051452D01*
X3683524Y-5003833D01*
X3683524Y-4965738D01*
X3674000Y-4918119D01*
X3664476Y-4889548D01*
X3654952Y-4870500D01*
X3635905Y-4841929D01*
X3626381Y-4832405D01*
D14*
X-1386000Y-5184500D02*
X-1386000Y-5284500D01*
X-1436000Y-5234500D02*
X-1336000Y-5234500D01*
D11*
X-973619Y-5324976D02*
X-1087905Y-5324976D01*
X-1030762Y-5324976D02*
X-1030762Y-5124976D01*
X-1049810Y-5153548D01*
X-1068857Y-5172595D01*
X-1087905Y-5182119D01*
X-887905Y-5305929D02*
X-878381Y-5315452D01*
X-887905Y-5324976D01*
X-897428Y-5315452D01*
X-887905Y-5305929D01*
X-887905Y-5324976D01*
X-754571Y-5124976D02*
X-735524Y-5124976D01*
X-716476Y-5134500D01*
X-706952Y-5144024D01*
X-697429Y-5163071D01*
X-687905Y-5201167D01*
X-687905Y-5248786D01*
X-697429Y-5286881D01*
X-706952Y-5305929D01*
X-716476Y-5315452D01*
X-735524Y-5324976D01*
X-754571Y-5324976D01*
X-773619Y-5315452D01*
X-783143Y-5305929D01*
X-792667Y-5286881D01*
X-802190Y-5248786D01*
X-802190Y-5201167D01*
X-792667Y-5163071D01*
X-783143Y-5144024D01*
X-773619Y-5134500D01*
X-754571Y-5124976D01*
X-564095Y-5124976D02*
X-545048Y-5124976D01*
X-526000Y-5134500D01*
X-516476Y-5144024D01*
X-506952Y-5163071D01*
X-497428Y-5201167D01*
X-497428Y-5248786D01*
X-506952Y-5286881D01*
X-516476Y-5305929D01*
X-526000Y-5315452D01*
X-545048Y-5324976D01*
X-564095Y-5324976D01*
X-583143Y-5315452D01*
X-592667Y-5305929D01*
X-602190Y-5286881D01*
X-611714Y-5248786D01*
X-611714Y-5201167D01*
X-602190Y-5163071D01*
X-592667Y-5144024D01*
X-583143Y-5134500D01*
X-564095Y-5124976D01*
X-373619Y-5124976D02*
X-354571Y-5124976D01*
X-335524Y-5134500D01*
X-326000Y-5144024D01*
X-316476Y-5163071D01*
X-306952Y-5201167D01*
X-306952Y-5248786D01*
X-316476Y-5286881D01*
X-326000Y-5305929D01*
X-335524Y-5315452D01*
X-354571Y-5324976D01*
X-373619Y-5324976D01*
X-392667Y-5315452D01*
X-402190Y-5305929D01*
X-411714Y-5286881D01*
X-421238Y-5248786D01*
X-421238Y-5201167D01*
X-411714Y-5163071D01*
X-402190Y-5144024D01*
X-392667Y-5134500D01*
X-373619Y-5124976D01*
X-221238Y-5324976D02*
X-221238Y-5191643D01*
X-221238Y-5210690D02*
X-211714Y-5201167D01*
X-192667Y-5191643D01*
X-164095Y-5191643D01*
X-145048Y-5201167D01*
X-135524Y-5220214D01*
X-135524Y-5324976D01*
X-135524Y-5220214D02*
X-126000Y-5201167D01*
X-106952Y-5191643D01*
X-78381Y-5191643D01*
X-59333Y-5201167D01*
X-49809Y-5220214D01*
X-49809Y-5324976D01*
X45428Y-5324976D02*
X45428Y-5191643D01*
X45428Y-5210690D02*
X54952Y-5201167D01*
X74000Y-5191643D01*
X102571Y-5191643D01*
X121619Y-5201167D01*
X131143Y-5220214D01*
X131143Y-5324976D01*
X131143Y-5220214D02*
X140667Y-5201167D01*
X159714Y-5191643D01*
X188286Y-5191643D01*
X207333Y-5201167D01*
X216857Y-5220214D01*
X216857Y-5324976D01*
X607333Y-5115452D02*
X435905Y-5372595D01*
X864476Y-5124976D02*
X883524Y-5124976D01*
X902571Y-5134500D01*
X912095Y-5144024D01*
X921619Y-5163071D01*
X931143Y-5201167D01*
X931143Y-5248786D01*
X921619Y-5286881D01*
X912095Y-5305929D01*
X902571Y-5315452D01*
X883524Y-5324976D01*
X864476Y-5324976D01*
X845428Y-5315452D01*
X835905Y-5305929D01*
X826381Y-5286881D01*
X816857Y-5248786D01*
X816857Y-5201167D01*
X826381Y-5163071D01*
X835905Y-5144024D01*
X845428Y-5134500D01*
X864476Y-5124976D01*
X1016857Y-5305929D02*
X1026381Y-5315452D01*
X1016857Y-5324976D01*
X1007333Y-5315452D01*
X1016857Y-5305929D01*
X1016857Y-5324976D01*
X1150190Y-5124976D02*
X1169238Y-5124976D01*
X1188286Y-5134500D01*
X1197810Y-5144024D01*
X1207333Y-5163071D01*
X1216857Y-5201167D01*
X1216857Y-5248786D01*
X1207333Y-5286881D01*
X1197810Y-5305929D01*
X1188286Y-5315452D01*
X1169238Y-5324976D01*
X1150190Y-5324976D01*
X1131143Y-5315452D01*
X1121619Y-5305929D01*
X1112095Y-5286881D01*
X1102571Y-5248786D01*
X1102571Y-5201167D01*
X1112095Y-5163071D01*
X1121619Y-5144024D01*
X1131143Y-5134500D01*
X1150190Y-5124976D01*
X1283524Y-5124976D02*
X1407333Y-5124976D01*
X1340667Y-5201167D01*
X1369238Y-5201167D01*
X1388286Y-5210690D01*
X1397810Y-5220214D01*
X1407333Y-5239262D01*
X1407333Y-5286881D01*
X1397810Y-5305929D01*
X1388286Y-5315452D01*
X1369238Y-5324976D01*
X1312095Y-5324976D01*
X1293048Y-5315452D01*
X1283524Y-5305929D01*
X1502571Y-5324976D02*
X1540667Y-5324976D01*
X1559714Y-5315452D01*
X1569238Y-5305929D01*
X1588286Y-5277357D01*
X1597809Y-5239262D01*
X1597809Y-5163071D01*
X1588286Y-5144024D01*
X1578762Y-5134500D01*
X1559714Y-5124976D01*
X1521619Y-5124976D01*
X1502571Y-5134500D01*
X1493048Y-5144024D01*
X1483524Y-5163071D01*
X1483524Y-5210690D01*
X1493048Y-5229738D01*
X1502571Y-5239262D01*
X1521619Y-5248786D01*
X1559714Y-5248786D01*
X1578762Y-5239262D01*
X1588286Y-5229738D01*
X1597809Y-5210690D01*
X1769238Y-5191643D02*
X1769238Y-5324976D01*
X1721619Y-5115452D02*
X1674000Y-5258310D01*
X1797809Y-5258310D01*
X1864476Y-5124976D02*
X1864476Y-5163071D01*
X1940667Y-5124976D02*
X1940667Y-5163071D01*
X2235905Y-5401167D02*
X2226381Y-5391643D01*
X2207333Y-5363071D01*
X2197810Y-5344024D01*
X2188286Y-5315452D01*
X2178762Y-5267833D01*
X2178762Y-5229738D01*
X2188286Y-5182119D01*
X2197810Y-5153548D01*
X2207333Y-5134500D01*
X2226381Y-5105929D01*
X2235905Y-5096405D01*
X2302571Y-5144024D02*
X2312095Y-5134500D01*
X2331143Y-5124976D01*
X2378762Y-5124976D01*
X2397810Y-5134500D01*
X2407333Y-5144024D01*
X2416857Y-5163071D01*
X2416857Y-5182119D01*
X2407333Y-5210690D01*
X2293048Y-5324976D01*
X2416857Y-5324976D01*
X2483524Y-5124976D02*
X2607333Y-5124976D01*
X2540667Y-5201167D01*
X2569238Y-5201167D01*
X2588286Y-5210690D01*
X2597810Y-5220214D01*
X2607333Y-5239262D01*
X2607333Y-5286881D01*
X2597810Y-5305929D01*
X2588286Y-5315452D01*
X2569238Y-5324976D01*
X2512095Y-5324976D01*
X2493048Y-5315452D01*
X2483524Y-5305929D01*
X2845428Y-5324976D02*
X2845428Y-5124976D01*
X2931143Y-5324976D02*
X2931143Y-5220214D01*
X2921619Y-5201167D01*
X2902571Y-5191643D01*
X2874000Y-5191643D01*
X2854952Y-5201167D01*
X2845428Y-5210690D01*
X3054952Y-5324976D02*
X3035905Y-5315452D01*
X3026381Y-5305929D01*
X3016857Y-5286881D01*
X3016857Y-5229738D01*
X3026381Y-5210690D01*
X3035905Y-5201167D01*
X3054952Y-5191643D01*
X3083524Y-5191643D01*
X3102571Y-5201167D01*
X3112095Y-5210690D01*
X3121619Y-5229738D01*
X3121619Y-5286881D01*
X3112095Y-5305929D01*
X3102571Y-5315452D01*
X3083524Y-5324976D01*
X3054952Y-5324976D01*
X3235905Y-5324976D02*
X3216857Y-5315452D01*
X3207333Y-5296405D01*
X3207333Y-5124976D01*
X3388286Y-5315452D02*
X3369238Y-5324976D01*
X3331143Y-5324976D01*
X3312095Y-5315452D01*
X3302571Y-5296405D01*
X3302571Y-5220214D01*
X3312095Y-5201167D01*
X3331143Y-5191643D01*
X3369238Y-5191643D01*
X3388286Y-5201167D01*
X3397809Y-5220214D01*
X3397809Y-5239262D01*
X3302571Y-5258310D01*
X3474000Y-5315452D02*
X3493048Y-5324976D01*
X3531143Y-5324976D01*
X3550190Y-5315452D01*
X3559714Y-5296405D01*
X3559714Y-5286881D01*
X3550190Y-5267833D01*
X3531143Y-5258310D01*
X3502571Y-5258310D01*
X3483524Y-5248786D01*
X3474000Y-5229738D01*
X3474000Y-5220214D01*
X3483524Y-5201167D01*
X3502571Y-5191643D01*
X3531143Y-5191643D01*
X3550190Y-5201167D01*
X3626381Y-5401167D02*
X3635905Y-5391643D01*
X3654952Y-5363071D01*
X3664476Y-5344024D01*
X3674000Y-5315452D01*
X3683524Y-5267833D01*
X3683524Y-5229738D01*
X3674000Y-5182119D01*
X3664476Y-5153548D01*
X3654952Y-5134500D01*
X3635905Y-5105929D01*
X3626381Y-5096405D01*
X-1365289Y-5569211D02*
X-1365289Y-5427789D01*
X-1506711Y-5427789D01*
X-1506711Y-5569211D01*
X-1365289Y-5569211D01*
X-1087905Y-5408024D02*
X-1078381Y-5398500D01*
X-1059333Y-5388976D01*
X-1011714Y-5388976D01*
X-992667Y-5398500D01*
X-983143Y-5408024D01*
X-973619Y-5427071D01*
X-973619Y-5446119D01*
X-983143Y-5474690D01*
X-1097429Y-5588976D01*
X-973619Y-5588976D01*
X-887905Y-5569929D02*
X-878381Y-5579452D01*
X-887905Y-5588976D01*
X-897428Y-5579452D01*
X-887905Y-5569929D01*
X-887905Y-5588976D01*
X-802190Y-5408024D02*
X-792667Y-5398500D01*
X-773619Y-5388976D01*
X-726000Y-5388976D01*
X-706952Y-5398500D01*
X-697429Y-5408024D01*
X-687905Y-5427071D01*
X-687905Y-5446119D01*
X-697429Y-5474690D01*
X-811714Y-5588976D01*
X-687905Y-5588976D01*
X-564095Y-5388976D02*
X-545048Y-5388976D01*
X-526000Y-5398500D01*
X-516476Y-5408024D01*
X-506952Y-5427071D01*
X-497428Y-5465167D01*
X-497428Y-5512786D01*
X-506952Y-5550881D01*
X-516476Y-5569929D01*
X-526000Y-5579452D01*
X-545048Y-5588976D01*
X-564095Y-5588976D01*
X-583143Y-5579452D01*
X-592667Y-5569929D01*
X-602190Y-5550881D01*
X-611714Y-5512786D01*
X-611714Y-5465167D01*
X-602190Y-5427071D01*
X-592667Y-5408024D01*
X-583143Y-5398500D01*
X-564095Y-5388976D01*
X-373619Y-5388976D02*
X-354571Y-5388976D01*
X-335524Y-5398500D01*
X-326000Y-5408024D01*
X-316476Y-5427071D01*
X-306952Y-5465167D01*
X-306952Y-5512786D01*
X-316476Y-5550881D01*
X-326000Y-5569929D01*
X-335524Y-5579452D01*
X-354571Y-5588976D01*
X-373619Y-5588976D01*
X-392667Y-5579452D01*
X-402190Y-5569929D01*
X-411714Y-5550881D01*
X-421238Y-5512786D01*
X-421238Y-5465167D01*
X-411714Y-5427071D01*
X-402190Y-5408024D01*
X-392667Y-5398500D01*
X-373619Y-5388976D01*
X-221238Y-5588976D02*
X-221238Y-5455643D01*
X-221238Y-5474690D02*
X-211714Y-5465167D01*
X-192667Y-5455643D01*
X-164095Y-5455643D01*
X-145048Y-5465167D01*
X-135524Y-5484214D01*
X-135524Y-5588976D01*
X-135524Y-5484214D02*
X-126000Y-5465167D01*
X-106952Y-5455643D01*
X-78381Y-5455643D01*
X-59333Y-5465167D01*
X-49809Y-5484214D01*
X-49809Y-5588976D01*
X45428Y-5588976D02*
X45428Y-5455643D01*
X45428Y-5474690D02*
X54952Y-5465167D01*
X74000Y-5455643D01*
X102571Y-5455643D01*
X121619Y-5465167D01*
X131143Y-5484214D01*
X131143Y-5588976D01*
X131143Y-5484214D02*
X140667Y-5465167D01*
X159714Y-5455643D01*
X188286Y-5455643D01*
X207333Y-5465167D01*
X216857Y-5484214D01*
X216857Y-5588976D01*
X607333Y-5379452D02*
X435905Y-5636595D01*
X864476Y-5388976D02*
X883524Y-5388976D01*
X902571Y-5398500D01*
X912095Y-5408024D01*
X921619Y-5427071D01*
X931143Y-5465167D01*
X931143Y-5512786D01*
X921619Y-5550881D01*
X912095Y-5569929D01*
X902571Y-5579452D01*
X883524Y-5588976D01*
X864476Y-5588976D01*
X845428Y-5579452D01*
X835905Y-5569929D01*
X826381Y-5550881D01*
X816857Y-5512786D01*
X816857Y-5465167D01*
X826381Y-5427071D01*
X835905Y-5408024D01*
X845428Y-5398500D01*
X864476Y-5388976D01*
X1016857Y-5569929D02*
X1026381Y-5579452D01*
X1016857Y-5588976D01*
X1007333Y-5579452D01*
X1016857Y-5569929D01*
X1016857Y-5588976D01*
X1150190Y-5388976D02*
X1169238Y-5388976D01*
X1188286Y-5398500D01*
X1197810Y-5408024D01*
X1207333Y-5427071D01*
X1216857Y-5465167D01*
X1216857Y-5512786D01*
X1207333Y-5550881D01*
X1197810Y-5569929D01*
X1188286Y-5579452D01*
X1169238Y-5588976D01*
X1150190Y-5588976D01*
X1131143Y-5579452D01*
X1121619Y-5569929D01*
X1112095Y-5550881D01*
X1102571Y-5512786D01*
X1102571Y-5465167D01*
X1112095Y-5427071D01*
X1121619Y-5408024D01*
X1131143Y-5398500D01*
X1150190Y-5388976D01*
X1331143Y-5474690D02*
X1312095Y-5465167D01*
X1302571Y-5455643D01*
X1293048Y-5436595D01*
X1293048Y-5427071D01*
X1302571Y-5408024D01*
X1312095Y-5398500D01*
X1331143Y-5388976D01*
X1369238Y-5388976D01*
X1388286Y-5398500D01*
X1397810Y-5408024D01*
X1407333Y-5427071D01*
X1407333Y-5436595D01*
X1397810Y-5455643D01*
X1388286Y-5465167D01*
X1369238Y-5474690D01*
X1331143Y-5474690D01*
X1312095Y-5484214D01*
X1302571Y-5493738D01*
X1293048Y-5512786D01*
X1293048Y-5550881D01*
X1302571Y-5569929D01*
X1312095Y-5579452D01*
X1331143Y-5588976D01*
X1369238Y-5588976D01*
X1388286Y-5579452D01*
X1397810Y-5569929D01*
X1407333Y-5550881D01*
X1407333Y-5512786D01*
X1397810Y-5493738D01*
X1388286Y-5484214D01*
X1369238Y-5474690D01*
X1578762Y-5388976D02*
X1540667Y-5388976D01*
X1521619Y-5398500D01*
X1512095Y-5408024D01*
X1493048Y-5436595D01*
X1483524Y-5474690D01*
X1483524Y-5550881D01*
X1493048Y-5569929D01*
X1502571Y-5579452D01*
X1521619Y-5588976D01*
X1559714Y-5588976D01*
X1578762Y-5579452D01*
X1588286Y-5569929D01*
X1597809Y-5550881D01*
X1597809Y-5503262D01*
X1588286Y-5484214D01*
X1578762Y-5474690D01*
X1559714Y-5465167D01*
X1521619Y-5465167D01*
X1502571Y-5474690D01*
X1493048Y-5484214D01*
X1483524Y-5503262D01*
X1769238Y-5388976D02*
X1731143Y-5388976D01*
X1712095Y-5398500D01*
X1702571Y-5408024D01*
X1683524Y-5436595D01*
X1674000Y-5474690D01*
X1674000Y-5550881D01*
X1683524Y-5569929D01*
X1693048Y-5579452D01*
X1712095Y-5588976D01*
X1750190Y-5588976D01*
X1769238Y-5579452D01*
X1778762Y-5569929D01*
X1788286Y-5550881D01*
X1788286Y-5503262D01*
X1778762Y-5484214D01*
X1769238Y-5474690D01*
X1750190Y-5465167D01*
X1712095Y-5465167D01*
X1693048Y-5474690D01*
X1683524Y-5484214D01*
X1674000Y-5503262D01*
X1864476Y-5388976D02*
X1864476Y-5427071D01*
X1940667Y-5388976D02*
X1940667Y-5427071D01*
X2235905Y-5665167D02*
X2226381Y-5655643D01*
X2207333Y-5627071D01*
X2197810Y-5608024D01*
X2188286Y-5579452D01*
X2178762Y-5531833D01*
X2178762Y-5493738D01*
X2188286Y-5446119D01*
X2197810Y-5417548D01*
X2207333Y-5398500D01*
X2226381Y-5369929D01*
X2235905Y-5360405D01*
X2340667Y-5474690D02*
X2321619Y-5465167D01*
X2312095Y-5455643D01*
X2302571Y-5436595D01*
X2302571Y-5427071D01*
X2312095Y-5408024D01*
X2321619Y-5398500D01*
X2340667Y-5388976D01*
X2378762Y-5388976D01*
X2397810Y-5398500D01*
X2407333Y-5408024D01*
X2416857Y-5427071D01*
X2416857Y-5436595D01*
X2407333Y-5455643D01*
X2397810Y-5465167D01*
X2378762Y-5474690D01*
X2340667Y-5474690D01*
X2321619Y-5484214D01*
X2312095Y-5493738D01*
X2302571Y-5512786D01*
X2302571Y-5550881D01*
X2312095Y-5569929D01*
X2321619Y-5579452D01*
X2340667Y-5588976D01*
X2378762Y-5588976D01*
X2397810Y-5579452D01*
X2407333Y-5569929D01*
X2416857Y-5550881D01*
X2416857Y-5512786D01*
X2407333Y-5493738D01*
X2397810Y-5484214D01*
X2378762Y-5474690D01*
X2654952Y-5588976D02*
X2654952Y-5388976D01*
X2740667Y-5588976D02*
X2740667Y-5484214D01*
X2731143Y-5465167D01*
X2712095Y-5455643D01*
X2683524Y-5455643D01*
X2664476Y-5465167D01*
X2654952Y-5474690D01*
X2864476Y-5588976D02*
X2845428Y-5579452D01*
X2835905Y-5569929D01*
X2826381Y-5550881D01*
X2826381Y-5493738D01*
X2835905Y-5474690D01*
X2845428Y-5465167D01*
X2864476Y-5455643D01*
X2893048Y-5455643D01*
X2912095Y-5465167D01*
X2921619Y-5474690D01*
X2931143Y-5493738D01*
X2931143Y-5550881D01*
X2921619Y-5569929D01*
X2912095Y-5579452D01*
X2893048Y-5588976D01*
X2864476Y-5588976D01*
X3045428Y-5588976D02*
X3026381Y-5579452D01*
X3016857Y-5560405D01*
X3016857Y-5388976D01*
X3197809Y-5579452D02*
X3178762Y-5588976D01*
X3140667Y-5588976D01*
X3121619Y-5579452D01*
X3112095Y-5560405D01*
X3112095Y-5484214D01*
X3121619Y-5465167D01*
X3140667Y-5455643D01*
X3178762Y-5455643D01*
X3197809Y-5465167D01*
X3207333Y-5484214D01*
X3207333Y-5503262D01*
X3112095Y-5522310D01*
X3283524Y-5579452D02*
X3302571Y-5588976D01*
X3340667Y-5588976D01*
X3359714Y-5579452D01*
X3369238Y-5560405D01*
X3369238Y-5550881D01*
X3359714Y-5531833D01*
X3340667Y-5522310D01*
X3312095Y-5522310D01*
X3293048Y-5512786D01*
X3283524Y-5493738D01*
X3283524Y-5484214D01*
X3293048Y-5465167D01*
X3312095Y-5455643D01*
X3340667Y-5455643D01*
X3359714Y-5465167D01*
X3435905Y-5665167D02*
X3445428Y-5655643D01*
X3464476Y-5627071D01*
X3474000Y-5608024D01*
X3483524Y-5579452D01*
X3493048Y-5531833D01*
X3493048Y-5493738D01*
X3483524Y-5446119D01*
X3474000Y-5417548D01*
X3464476Y-5398500D01*
X3445428Y-5369929D01*
X3435905Y-5360405D01*
M02*
