G04 #@! TF.GenerationSoftware,KiCad,Pcbnew,6.0.1-79c1e3a40b~116~ubuntu20.04.1*
G04 #@! TF.CreationDate,2022-02-03T13:15:31-05:00*
G04 #@! TF.ProjectId,d-lev_encoders,642d6c65-765f-4656-9e63-6f646572732e,rev?*
G04 #@! TF.SameCoordinates,Original*
G04 #@! TF.FileFunction,Copper,L1,Top*
G04 #@! TF.FilePolarity,Positive*
%FSLAX46Y46*%
G04 Gerber Fmt 4.6, Leading zero omitted, Abs format (unit mm)*
G04 Created by KiCad (PCBNEW 6.0.1-79c1e3a40b~116~ubuntu20.04.1) date 2022-02-03 13:15:31*
%MOMM*%
%LPD*%
G01*
G04 APERTURE LIST*
G04 #@! TA.AperFunction,ComponentPad*
%ADD10R,1.700000X1.700000*%
G04 #@! TD*
G04 #@! TA.AperFunction,ComponentPad*
%ADD11R,1.200000X1.200000*%
G04 #@! TD*
G04 #@! TA.AperFunction,ComponentPad*
%ADD12O,1.200000X1.200000*%
G04 #@! TD*
G04 #@! TA.AperFunction,ComponentPad*
%ADD13R,2.000000X2.000000*%
G04 #@! TD*
G04 #@! TA.AperFunction,ComponentPad*
%ADD14C,2.000000*%
G04 #@! TD*
G04 #@! TA.AperFunction,ComponentPad*
%ADD15C,3.500000*%
G04 #@! TD*
G04 #@! TA.AperFunction,ViaPad*
%ADD16C,0.800000*%
G04 #@! TD*
G04 #@! TA.AperFunction,Conductor*
%ADD17C,0.250000*%
G04 #@! TD*
G04 APERTURE END LIST*
D10*
X7620000Y-20320000D03*
X0Y-20320000D03*
X-6985000Y-20320000D03*
D11*
X-11430000Y32385000D03*
D12*
X-9525000Y31115000D03*
X-11430000Y29845000D03*
X-9525000Y28575000D03*
X-11430000Y27305000D03*
X-9525000Y26035000D03*
X-11430000Y24765000D03*
X-9525000Y23495000D03*
X-11430000Y22225000D03*
X-9525000Y20955000D03*
X-11430000Y19685000D03*
X-9525000Y18415000D03*
X-11430000Y17145000D03*
X-9525000Y15875000D03*
X-11430000Y14605000D03*
X-9525000Y13335000D03*
D13*
X7500000Y33020000D03*
D14*
X7500000Y28020000D03*
X7500000Y30520000D03*
D15*
X0Y36120000D03*
X0Y24920000D03*
D14*
X-7000000Y28020000D03*
X-7000000Y33020000D03*
D13*
X7500000Y12700000D03*
D14*
X7500000Y7700000D03*
X7500000Y10200000D03*
D15*
X0Y15800000D03*
X0Y4600000D03*
D14*
X-7000000Y7700000D03*
X-7000000Y12700000D03*
D13*
X7500000Y-7620000D03*
D14*
X7500000Y-12620000D03*
X7500000Y-10120000D03*
D15*
X0Y-4520000D03*
X0Y-15720000D03*
D14*
X-7000000Y-12620000D03*
X-7000000Y-7620000D03*
D13*
X7500000Y-27940000D03*
D14*
X7500000Y-32940000D03*
X7500000Y-30440000D03*
D15*
X0Y-24840000D03*
X0Y-36040000D03*
D14*
X-7000000Y-32940000D03*
X-7000000Y-27940000D03*
D16*
X-4445000Y27940000D03*
X-4445000Y33020000D03*
X-4445000Y24765000D03*
X5080000Y22860000D03*
X-5080000Y22860000D03*
X5080000Y20955000D03*
X-6350000Y16510000D03*
X-7620000Y22860000D03*
X-5080000Y20955000D03*
X9525000Y19685000D03*
X-4445000Y18415000D03*
X9525000Y17780000D03*
X-4445000Y-26035000D03*
X-4445000Y-30480000D03*
X-10160000Y-28575000D03*
D17*
X-4445000Y27940000D02*
X7420000Y27940000D01*
X7420000Y27940000D02*
X7500000Y28020000D01*
X-4445000Y33020000D02*
X7500000Y33020000D01*
X4445000Y22225000D02*
X-1905000Y22225000D01*
X-1905000Y22225000D02*
X-4445000Y24765000D01*
X5080000Y22860000D02*
X4445000Y22225000D01*
X-3175000Y20955000D02*
X5080000Y20955000D01*
X-5080000Y22860000D02*
X-3175000Y20955000D01*
X-6985000Y22225000D02*
X-7620000Y22860000D01*
X-6985000Y17145000D02*
X-6985000Y22225000D01*
X-6350000Y16510000D02*
X-6985000Y17145000D01*
X-5080000Y20955000D02*
X-3810000Y19685000D01*
X-3810000Y19685000D02*
X9525000Y19685000D01*
X8890000Y18415000D02*
X9525000Y17780000D01*
X-4445000Y18415000D02*
X8890000Y18415000D01*
X-2540000Y-27940000D02*
X7500000Y-27940000D01*
X-4445000Y-26035000D02*
X-2540000Y-27940000D01*
X3175000Y-30480000D02*
X5635000Y-32940000D01*
X-4445000Y-30480000D02*
X3175000Y-30480000D01*
X5635000Y-32940000D02*
X7500000Y-32940000D01*
X-10160000Y-29780000D02*
X-7000000Y-32940000D01*
X-10160000Y-28575000D02*
X-10160000Y-29780000D01*
G04 #@! TA.AperFunction,Conductor*
G36*
X13023121Y40365998D02*
G01*
X13069614Y40312342D01*
X13081000Y40260000D01*
X13081000Y-40260000D01*
X13060998Y-40328121D01*
X13007342Y-40374614D01*
X12955000Y-40386000D01*
X-12955000Y-40386000D01*
X-13023121Y-40365998D01*
X-13069614Y-40312342D01*
X-13081000Y-40260000D01*
X-13081000Y-35976876D01*
X-2008628Y-35976876D01*
X-2006148Y-36040000D01*
X-2001065Y-36169367D01*
X-1997484Y-36260524D01*
X-1946484Y-36539772D01*
X-1856647Y-36809048D01*
X-1854654Y-36813036D01*
X-1771046Y-36980361D01*
X-1729764Y-37062980D01*
X-1568369Y-37296500D01*
X-1375680Y-37504950D01*
X-1372226Y-37507762D01*
X-1158999Y-37681356D01*
X-1158995Y-37681359D01*
X-1155542Y-37684170D01*
X-912348Y-37830585D01*
X-908253Y-37832319D01*
X-908251Y-37832320D01*
X-725180Y-37909840D01*
X-650951Y-37941272D01*
X-646658Y-37942410D01*
X-646653Y-37942412D01*
X-503102Y-37980473D01*
X-376565Y-38014024D01*
X-94666Y-38047389D01*
X189122Y-38040701D01*
X193517Y-38039969D01*
X193522Y-38039969D01*
X464734Y-37994827D01*
X464738Y-37994826D01*
X469136Y-37994094D01*
X646887Y-37937878D01*
X735544Y-37909840D01*
X735546Y-37909839D01*
X739790Y-37908497D01*
X743801Y-37906571D01*
X743806Y-37906569D01*
X991665Y-37787549D01*
X991666Y-37787548D01*
X995684Y-37785619D01*
X1151724Y-37681356D01*
X1228002Y-37630389D01*
X1228006Y-37630386D01*
X1231710Y-37627911D01*
X1235027Y-37624940D01*
X1235031Y-37624937D01*
X1439845Y-37441490D01*
X1443161Y-37438520D01*
X1625817Y-37221225D01*
X1628174Y-37217446D01*
X1773669Y-36984152D01*
X1773671Y-36984149D01*
X1776033Y-36980361D01*
X1890813Y-36720734D01*
X1967866Y-36447525D01*
X1992983Y-36260524D01*
X2005227Y-36169367D01*
X2005228Y-36169359D01*
X2005654Y-36166185D01*
X2009620Y-36040000D01*
X1989571Y-35756842D01*
X1929825Y-35479334D01*
X1831574Y-35213013D01*
X1696778Y-34963192D01*
X1528127Y-34734856D01*
X1328986Y-34532562D01*
X1255118Y-34476188D01*
X1106872Y-34363050D01*
X1106868Y-34363047D01*
X1103327Y-34360345D01*
X855655Y-34221641D01*
X851506Y-34220036D01*
X851502Y-34220034D01*
X691830Y-34158262D01*
X590909Y-34119219D01*
X586588Y-34118217D01*
X586580Y-34118215D01*
X404110Y-34075922D01*
X314374Y-34055122D01*
X31566Y-34030628D01*
X27131Y-34030872D01*
X27127Y-34030872D01*
X-79282Y-34036728D01*
X-251872Y-34046226D01*
X-256232Y-34047093D01*
X-256238Y-34047094D01*
X-392704Y-34074239D01*
X-530285Y-34101606D01*
X-534495Y-34103084D01*
X-534497Y-34103085D01*
X-592194Y-34123347D01*
X-798116Y-34195662D01*
X-802067Y-34197715D01*
X-802073Y-34197717D01*
X-1046074Y-34324465D01*
X-1050024Y-34326517D01*
X-1053639Y-34329100D01*
X-1053645Y-34329104D01*
X-1097362Y-34360345D01*
X-1280980Y-34491561D01*
X-1486377Y-34687501D01*
X-1489133Y-34690997D01*
X-1489134Y-34690998D01*
X-1523709Y-34734856D01*
X-1662118Y-34910426D01*
X-1664355Y-34914278D01*
X-1802460Y-35152042D01*
X-1802463Y-35152048D01*
X-1804694Y-35155889D01*
X-1806364Y-35160012D01*
X-1909589Y-35414861D01*
X-1909592Y-35414869D01*
X-1911262Y-35418993D01*
X-1979695Y-35694488D01*
X-2008628Y-35976876D01*
X-13081000Y-35976876D01*
X-13081000Y-28568096D01*
X-10819271Y-28568096D01*
X-10801887Y-28725553D01*
X-10747447Y-28874319D01*
X-10743211Y-28880622D01*
X-10743211Y-28880623D01*
X-10663460Y-28999304D01*
X-10659092Y-29005805D01*
X-10653473Y-29010918D01*
X-10653472Y-29010919D01*
X-10580701Y-29077135D01*
X-10543778Y-29137775D01*
X-10539500Y-29170329D01*
X-10539500Y-29726080D01*
X-10542049Y-29750028D01*
X-10542128Y-29751693D01*
X-10544320Y-29761876D01*
X-10543096Y-29772217D01*
X-10540373Y-29795223D01*
X-10540023Y-29801154D01*
X-10539928Y-29801146D01*
X-10539500Y-29806324D01*
X-10539500Y-29811524D01*
X-10538646Y-29816653D01*
X-10538646Y-29816656D01*
X-10536331Y-29830565D01*
X-10535494Y-29836443D01*
X-10531754Y-29868039D01*
X-10529470Y-29887341D01*
X-10525507Y-29895593D01*
X-10524004Y-29904626D01*
X-10519057Y-29913795D01*
X-10519056Y-29913797D01*
X-10499666Y-29949732D01*
X-10496969Y-29955025D01*
X-10478215Y-29994082D01*
X-10478212Y-29994086D01*
X-10474781Y-30001232D01*
X-10471186Y-30005508D01*
X-10469263Y-30007431D01*
X-10467491Y-30009363D01*
X-10467448Y-30009442D01*
X-10467572Y-30009555D01*
X-10467096Y-30010095D01*
X-10464010Y-30015814D01*
X-10456365Y-30022881D01*
X-10424414Y-30052416D01*
X-10420848Y-30055846D01*
X-8177057Y-32299637D01*
X-8143031Y-32361949D01*
X-8148096Y-32432764D01*
X-8151958Y-32441983D01*
X-8181021Y-32504307D01*
X-8181024Y-32504315D01*
X-8183347Y-32509297D01*
X-8240161Y-32721326D01*
X-8259292Y-32940000D01*
X-8240161Y-33158674D01*
X-8183347Y-33370703D01*
X-8139896Y-33463884D01*
X-8092905Y-33564659D01*
X-8092902Y-33564664D01*
X-8090579Y-33569646D01*
X-7964674Y-33749457D01*
X-7809457Y-33904674D01*
X-7804949Y-33907831D01*
X-7804946Y-33907833D01*
X-7634155Y-34027422D01*
X-7629646Y-34030579D01*
X-7624664Y-34032902D01*
X-7624659Y-34032905D01*
X-7574856Y-34056128D01*
X-7430703Y-34123347D01*
X-7218674Y-34180161D01*
X-7000000Y-34199292D01*
X-6781326Y-34180161D01*
X-6569297Y-34123347D01*
X-6425144Y-34056128D01*
X-6375341Y-34032905D01*
X-6375336Y-34032902D01*
X-6370354Y-34030579D01*
X-6365845Y-34027422D01*
X-6195054Y-33907833D01*
X-6195051Y-33907831D01*
X-6190543Y-33904674D01*
X-6035326Y-33749457D01*
X-5909421Y-33569646D01*
X-5907098Y-33564664D01*
X-5907095Y-33564659D01*
X-5860104Y-33463884D01*
X-5816653Y-33370703D01*
X-5759839Y-33158674D01*
X-5740708Y-32940000D01*
X-5759839Y-32721326D01*
X-5816653Y-32509297D01*
X-5885362Y-32361949D01*
X-5907095Y-32315341D01*
X-5907098Y-32315336D01*
X-5909421Y-32310354D01*
X-6035326Y-32130543D01*
X-6190543Y-31975326D01*
X-6195051Y-31972169D01*
X-6195054Y-31972167D01*
X-6365845Y-31852578D01*
X-6365847Y-31852577D01*
X-6370354Y-31849421D01*
X-6375336Y-31847098D01*
X-6375341Y-31847095D01*
X-6501983Y-31788042D01*
X-6569297Y-31756653D01*
X-6781326Y-31699839D01*
X-7000000Y-31680708D01*
X-7218674Y-31699839D01*
X-7430703Y-31756653D01*
X-7435685Y-31758976D01*
X-7435693Y-31758979D01*
X-7498017Y-31788042D01*
X-7568209Y-31798704D01*
X-7633022Y-31769725D01*
X-7640363Y-31762943D01*
X-8930210Y-30473096D01*
X-5104271Y-30473096D01*
X-5086887Y-30630553D01*
X-5032447Y-30779319D01*
X-5028211Y-30785622D01*
X-5028211Y-30785623D01*
X-4953768Y-30896405D01*
X-4944092Y-30910805D01*
X-4938473Y-30915918D01*
X-4938472Y-30915919D01*
X-4927097Y-30926269D01*
X-4826924Y-31017419D01*
X-4687707Y-31093008D01*
X-4534478Y-31133207D01*
X-4450523Y-31134526D01*
X-4383681Y-31135576D01*
X-4383678Y-31135576D01*
X-4376084Y-31135695D01*
X-4221668Y-31100329D01*
X-4150250Y-31064410D01*
X-4086928Y-31032563D01*
X-4086925Y-31032561D01*
X-4080145Y-31029151D01*
X-4074374Y-31024222D01*
X-4074371Y-31024220D01*
X-3965458Y-30931199D01*
X-3965457Y-30931198D01*
X-3959686Y-30926269D01*
X-3949414Y-30911974D01*
X-3893419Y-30868326D01*
X-3847091Y-30859500D01*
X2965616Y-30859500D01*
X3033737Y-30879502D01*
X3054711Y-30896405D01*
X5328522Y-33170216D01*
X5343664Y-33188964D01*
X5344779Y-33190189D01*
X5350429Y-33198940D01*
X5358607Y-33205387D01*
X5358609Y-33205389D01*
X5376800Y-33219729D01*
X5381244Y-33223678D01*
X5381306Y-33223604D01*
X5385263Y-33226957D01*
X5388944Y-33230638D01*
X5404654Y-33241865D01*
X5409380Y-33245413D01*
X5449647Y-33277156D01*
X5458284Y-33280189D01*
X5465734Y-33285513D01*
X5475710Y-33288497D01*
X5475711Y-33288497D01*
X5491046Y-33293083D01*
X5514849Y-33300202D01*
X5520486Y-33302034D01*
X5561367Y-33316390D01*
X5568851Y-33319018D01*
X5574416Y-33319500D01*
X5577124Y-33319500D01*
X5579758Y-33319614D01*
X5579856Y-33319643D01*
X5579849Y-33319807D01*
X5580553Y-33319851D01*
X5586778Y-33321713D01*
X5640635Y-33319597D01*
X5645582Y-33319500D01*
X6212505Y-33319500D01*
X6280626Y-33339502D01*
X6326700Y-33392250D01*
X6407095Y-33564659D01*
X6407098Y-33564664D01*
X6409421Y-33569646D01*
X6535326Y-33749457D01*
X6690543Y-33904674D01*
X6695051Y-33907831D01*
X6695054Y-33907833D01*
X6865845Y-34027422D01*
X6870354Y-34030579D01*
X6875336Y-34032902D01*
X6875341Y-34032905D01*
X6925144Y-34056128D01*
X7069297Y-34123347D01*
X7281326Y-34180161D01*
X7500000Y-34199292D01*
X7718674Y-34180161D01*
X7930703Y-34123347D01*
X8074856Y-34056128D01*
X8124659Y-34032905D01*
X8124664Y-34032902D01*
X8129646Y-34030579D01*
X8134155Y-34027422D01*
X8304946Y-33907833D01*
X8304949Y-33907831D01*
X8309457Y-33904674D01*
X8464674Y-33749457D01*
X8590579Y-33569646D01*
X8592902Y-33564664D01*
X8592905Y-33564659D01*
X8639896Y-33463884D01*
X8683347Y-33370703D01*
X8740161Y-33158674D01*
X8759292Y-32940000D01*
X8740161Y-32721326D01*
X8683347Y-32509297D01*
X8614638Y-32361949D01*
X8592905Y-32315341D01*
X8592902Y-32315336D01*
X8590579Y-32310354D01*
X8464674Y-32130543D01*
X8309457Y-31975326D01*
X8304949Y-31972169D01*
X8304946Y-31972167D01*
X8134155Y-31852578D01*
X8134153Y-31852577D01*
X8129646Y-31849421D01*
X8124664Y-31847098D01*
X8124659Y-31847095D01*
X8032067Y-31803919D01*
X7978782Y-31757002D01*
X7959321Y-31688724D01*
X7979863Y-31620764D01*
X8032067Y-31575529D01*
X8124410Y-31532469D01*
X8133900Y-31526989D01*
X8174278Y-31498717D01*
X8182652Y-31488242D01*
X8175583Y-31474793D01*
X7512812Y-30812022D01*
X7498868Y-30804408D01*
X7497035Y-30804539D01*
X7490420Y-30808790D01*
X6823695Y-31475515D01*
X6817265Y-31487289D01*
X6826561Y-31499304D01*
X6866100Y-31526989D01*
X6875590Y-31532469D01*
X6967933Y-31575529D01*
X7021218Y-31622446D01*
X7040679Y-31690724D01*
X7020137Y-31758684D01*
X6967933Y-31803919D01*
X6875341Y-31847095D01*
X6875336Y-31847098D01*
X6870354Y-31849421D01*
X6865847Y-31852577D01*
X6865845Y-31852578D01*
X6695054Y-31972167D01*
X6695051Y-31972169D01*
X6690543Y-31975326D01*
X6535326Y-32130543D01*
X6409421Y-32310354D01*
X6407098Y-32315336D01*
X6407095Y-32315341D01*
X6326700Y-32487750D01*
X6279783Y-32541035D01*
X6212505Y-32560500D01*
X5844384Y-32560500D01*
X5776263Y-32540498D01*
X5755289Y-32523595D01*
X3677169Y-30445475D01*
X6241689Y-30445475D01*
X6259855Y-30653107D01*
X6261758Y-30663902D01*
X6315701Y-30865222D01*
X6319447Y-30875514D01*
X6407531Y-31064410D01*
X6413011Y-31073900D01*
X6441283Y-31114278D01*
X6451758Y-31122652D01*
X6465207Y-31115583D01*
X7127978Y-30452812D01*
X7134356Y-30441132D01*
X7864408Y-30441132D01*
X7864539Y-30442965D01*
X7868790Y-30449580D01*
X8535515Y-31116305D01*
X8547289Y-31122735D01*
X8559304Y-31113439D01*
X8586989Y-31073900D01*
X8592469Y-31064410D01*
X8680553Y-30875514D01*
X8684299Y-30865222D01*
X8738242Y-30663902D01*
X8740145Y-30653107D01*
X8758311Y-30445475D01*
X8758311Y-30434525D01*
X8740145Y-30226893D01*
X8738242Y-30216098D01*
X8684299Y-30014778D01*
X8680553Y-30004486D01*
X8592469Y-29815590D01*
X8586989Y-29806100D01*
X8558717Y-29765722D01*
X8548242Y-29757348D01*
X8534793Y-29764417D01*
X7872022Y-30427188D01*
X7864408Y-30441132D01*
X7134356Y-30441132D01*
X7135592Y-30438868D01*
X7135461Y-30437035D01*
X7131210Y-30430420D01*
X6464485Y-29763695D01*
X6452711Y-29757265D01*
X6440696Y-29766561D01*
X6413011Y-29806100D01*
X6407531Y-29815590D01*
X6319447Y-30004486D01*
X6315701Y-30014778D01*
X6261758Y-30216098D01*
X6259855Y-30226893D01*
X6241689Y-30434525D01*
X6241689Y-30445475D01*
X3677169Y-30445475D01*
X3481478Y-30249784D01*
X3466336Y-30231036D01*
X3465221Y-30229811D01*
X3459571Y-30221060D01*
X3451393Y-30214613D01*
X3451391Y-30214611D01*
X3433200Y-30200271D01*
X3428759Y-30196325D01*
X3428697Y-30196398D01*
X3424733Y-30193039D01*
X3421056Y-30189362D01*
X3405308Y-30178108D01*
X3400638Y-30174602D01*
X3360353Y-30142844D01*
X3351719Y-30139812D01*
X3344266Y-30134486D01*
X3295150Y-30119797D01*
X3289508Y-30117964D01*
X3248633Y-30103610D01*
X3248632Y-30103610D01*
X3241149Y-30100982D01*
X3235584Y-30100500D01*
X3232876Y-30100500D01*
X3230242Y-30100386D01*
X3230144Y-30100357D01*
X3230151Y-30100193D01*
X3229447Y-30100149D01*
X3223222Y-30098287D01*
X3169365Y-30100403D01*
X3164418Y-30100500D01*
X-3845318Y-30100500D01*
X-3913439Y-30080498D01*
X-3939886Y-30054860D01*
X-3941122Y-30055949D01*
X-3946145Y-30050251D01*
X-3950447Y-30043992D01*
X-4068725Y-29938611D01*
X-4076111Y-29934700D01*
X-4132911Y-29904626D01*
X-4208726Y-29864484D01*
X-4362367Y-29825892D01*
X-4369966Y-29825852D01*
X-4369967Y-29825852D01*
X-4435819Y-29825507D01*
X-4520779Y-29825062D01*
X-4528159Y-29826834D01*
X-4528161Y-29826834D01*
X-4667437Y-29860271D01*
X-4667440Y-29860272D01*
X-4674816Y-29862043D01*
X-4815586Y-29934700D01*
X-4934961Y-30038838D01*
X-5026050Y-30168444D01*
X-5083594Y-30316037D01*
X-5084586Y-30323570D01*
X-5084586Y-30323571D01*
X-5101175Y-30449580D01*
X-5104271Y-30473096D01*
X-8930210Y-30473096D01*
X-9743595Y-29659711D01*
X-9777621Y-29597399D01*
X-9780500Y-29570616D01*
X-9780500Y-29169730D01*
X-9760498Y-29101609D01*
X-9736331Y-29073919D01*
X-9680464Y-29026204D01*
X-9674686Y-29021269D01*
X-9650269Y-28987289D01*
X-7682735Y-28987289D01*
X-7673439Y-28999304D01*
X-7633900Y-29026989D01*
X-7624410Y-29032469D01*
X-7435514Y-29120553D01*
X-7425222Y-29124299D01*
X-7223902Y-29178242D01*
X-7213107Y-29180145D01*
X-7005475Y-29198311D01*
X-6994525Y-29198311D01*
X-6786893Y-29180145D01*
X-6776098Y-29178242D01*
X-6574778Y-29124299D01*
X-6564486Y-29120553D01*
X-6375590Y-29032469D01*
X-6366100Y-29026989D01*
X-6325722Y-28998717D01*
X-6317348Y-28988242D01*
X-6324417Y-28974793D01*
X-6987188Y-28312022D01*
X-7001132Y-28304408D01*
X-7002965Y-28304539D01*
X-7009580Y-28308790D01*
X-7676305Y-28975515D01*
X-7682735Y-28987289D01*
X-9650269Y-28987289D01*
X-9582245Y-28892624D01*
X-9523158Y-28745641D01*
X-9504751Y-28616305D01*
X-9501419Y-28592891D01*
X-9501419Y-28592888D01*
X-9500838Y-28588807D01*
X-9500693Y-28575000D01*
X-9501974Y-28564410D01*
X-9518812Y-28425273D01*
X-9519724Y-28417733D01*
X-9575720Y-28269546D01*
X-9665447Y-28138992D01*
X-9783725Y-28033611D01*
X-9791111Y-28029700D01*
X-9917012Y-27963039D01*
X-9917011Y-27963039D01*
X-9923726Y-27959484D01*
X-9979498Y-27945475D01*
X-8258311Y-27945475D01*
X-8240145Y-28153107D01*
X-8238242Y-28163902D01*
X-8184299Y-28365222D01*
X-8180553Y-28375514D01*
X-8092469Y-28564410D01*
X-8086989Y-28573900D01*
X-8058717Y-28614278D01*
X-8048242Y-28622652D01*
X-8034793Y-28615583D01*
X-7372022Y-27952812D01*
X-7365644Y-27941132D01*
X-6635592Y-27941132D01*
X-6635461Y-27942965D01*
X-6631210Y-27949580D01*
X-5964485Y-28616305D01*
X-5952711Y-28622735D01*
X-5940696Y-28613439D01*
X-5913011Y-28573900D01*
X-5907531Y-28564410D01*
X-5819447Y-28375514D01*
X-5815701Y-28365222D01*
X-5761758Y-28163902D01*
X-5759855Y-28153107D01*
X-5741689Y-27945475D01*
X-5741689Y-27934525D01*
X-5759855Y-27726893D01*
X-5761758Y-27716098D01*
X-5815701Y-27514778D01*
X-5819447Y-27504486D01*
X-5907531Y-27315590D01*
X-5913011Y-27306100D01*
X-5941283Y-27265722D01*
X-5951758Y-27257348D01*
X-5965207Y-27264417D01*
X-6627978Y-27927188D01*
X-6635592Y-27941132D01*
X-7365644Y-27941132D01*
X-7364408Y-27938868D01*
X-7364539Y-27937035D01*
X-7368790Y-27930420D01*
X-8035515Y-27263695D01*
X-8047289Y-27257265D01*
X-8059304Y-27266561D01*
X-8086989Y-27306100D01*
X-8092469Y-27315590D01*
X-8180553Y-27504486D01*
X-8184299Y-27514778D01*
X-8238242Y-27716098D01*
X-8240145Y-27726893D01*
X-8258311Y-27934525D01*
X-8258311Y-27945475D01*
X-9979498Y-27945475D01*
X-10077367Y-27920892D01*
X-10084966Y-27920852D01*
X-10084967Y-27920852D01*
X-10150819Y-27920507D01*
X-10235779Y-27920062D01*
X-10243159Y-27921834D01*
X-10243161Y-27921834D01*
X-10382437Y-27955271D01*
X-10382440Y-27955272D01*
X-10389816Y-27957043D01*
X-10530586Y-28029700D01*
X-10649961Y-28133838D01*
X-10741050Y-28263444D01*
X-10762905Y-28319500D01*
X-10791623Y-28393158D01*
X-10798594Y-28411037D01*
X-10819271Y-28568096D01*
X-13081000Y-28568096D01*
X-13081000Y-26891758D01*
X-7682652Y-26891758D01*
X-7675583Y-26905207D01*
X-7012812Y-27567978D01*
X-6998868Y-27575592D01*
X-6997035Y-27575461D01*
X-6990420Y-27571210D01*
X-6323695Y-26904485D01*
X-6317265Y-26892711D01*
X-6326561Y-26880696D01*
X-6366100Y-26853011D01*
X-6375590Y-26847531D01*
X-6564486Y-26759447D01*
X-6574778Y-26755701D01*
X-6776098Y-26701758D01*
X-6786893Y-26699855D01*
X-6994525Y-26681689D01*
X-7005475Y-26681689D01*
X-7213107Y-26699855D01*
X-7223902Y-26701758D01*
X-7425222Y-26755701D01*
X-7435514Y-26759447D01*
X-7624410Y-26847531D01*
X-7633900Y-26853011D01*
X-7674278Y-26881283D01*
X-7682652Y-26891758D01*
X-13081000Y-26891758D01*
X-13081000Y-26028096D01*
X-5104271Y-26028096D01*
X-5101984Y-26048807D01*
X-5091482Y-26143930D01*
X-5086887Y-26185553D01*
X-5084277Y-26192684D01*
X-5084277Y-26192686D01*
X-5042165Y-26307762D01*
X-5032447Y-26334319D01*
X-4944092Y-26465805D01*
X-4826924Y-26572419D01*
X-4687707Y-26648008D01*
X-4534478Y-26688207D01*
X-4437862Y-26689725D01*
X-4376228Y-26690693D01*
X-4308430Y-26711762D01*
X-4289112Y-26727582D01*
X-2846478Y-28170216D01*
X-2831336Y-28188964D01*
X-2830221Y-28190189D01*
X-2824571Y-28198940D01*
X-2816393Y-28205387D01*
X-2816391Y-28205389D01*
X-2798200Y-28219729D01*
X-2793759Y-28223675D01*
X-2793697Y-28223602D01*
X-2789733Y-28226961D01*
X-2786056Y-28230638D01*
X-2770308Y-28241892D01*
X-2765638Y-28245398D01*
X-2725353Y-28277156D01*
X-2716719Y-28280188D01*
X-2709266Y-28285514D01*
X-2660150Y-28300203D01*
X-2654508Y-28302036D01*
X-2647753Y-28304408D01*
X-2606149Y-28319018D01*
X-2600584Y-28319500D01*
X-2597876Y-28319500D01*
X-2595242Y-28319614D01*
X-2595144Y-28319643D01*
X-2595151Y-28319807D01*
X-2594447Y-28319851D01*
X-2588222Y-28321713D01*
X-2534365Y-28319597D01*
X-2529418Y-28319500D01*
X6119501Y-28319500D01*
X6187622Y-28339502D01*
X6234115Y-28393158D01*
X6245501Y-28445500D01*
X6245501Y-28965066D01*
X6249921Y-28987289D01*
X6256680Y-29021269D01*
X6260266Y-29039301D01*
X6316516Y-29123484D01*
X6400699Y-29179734D01*
X6474933Y-29194500D01*
X6713001Y-29194500D01*
X6781122Y-29214502D01*
X6827615Y-29268158D01*
X6837719Y-29338432D01*
X6816438Y-29387588D01*
X6816227Y-29389625D01*
X6824417Y-29405207D01*
X7487188Y-30067978D01*
X7501132Y-30075592D01*
X7502965Y-30075461D01*
X7509580Y-30071210D01*
X8176305Y-29404485D01*
X8183825Y-29390715D01*
X8160654Y-29331480D01*
X8174644Y-29261875D01*
X8224044Y-29210883D01*
X8286175Y-29194499D01*
X8525066Y-29194499D01*
X8560818Y-29187388D01*
X8587126Y-29182156D01*
X8587128Y-29182155D01*
X8599301Y-29179734D01*
X8609621Y-29172839D01*
X8609622Y-29172838D01*
X8673168Y-29130377D01*
X8683484Y-29123484D01*
X8739734Y-29039301D01*
X8754500Y-28965067D01*
X8754499Y-26914934D01*
X8739734Y-26840699D01*
X8683484Y-26756516D01*
X8599301Y-26700266D01*
X8525067Y-26685500D01*
X7500166Y-26685500D01*
X6474934Y-26685501D01*
X6439182Y-26692612D01*
X6412874Y-26697844D01*
X6412872Y-26697845D01*
X6400699Y-26700266D01*
X6390379Y-26707161D01*
X6390378Y-26707162D01*
X6339330Y-26741272D01*
X6316516Y-26756516D01*
X6260266Y-26840699D01*
X6245500Y-26914933D01*
X6245500Y-27434500D01*
X6225498Y-27502621D01*
X6171842Y-27549114D01*
X6119500Y-27560500D01*
X-2330616Y-27560500D01*
X-2398737Y-27540498D01*
X-2419711Y-27523595D01*
X-3754857Y-26188449D01*
X-3788883Y-26126137D01*
X-3790505Y-26081601D01*
X-3786419Y-26052892D01*
X-3786419Y-26052886D01*
X-3785838Y-26048807D01*
X-3785693Y-26035000D01*
X-3804724Y-25877733D01*
X-3860720Y-25729546D01*
X-3940795Y-25613036D01*
X-3946145Y-25605251D01*
X-3946146Y-25605249D01*
X-3950447Y-25598992D01*
X-4068725Y-25493611D01*
X-4076111Y-25489700D01*
X-4202012Y-25423039D01*
X-4202011Y-25423039D01*
X-4208726Y-25419484D01*
X-4362367Y-25380892D01*
X-4369966Y-25380852D01*
X-4369967Y-25380852D01*
X-4435819Y-25380507D01*
X-4520779Y-25380062D01*
X-4528159Y-25381834D01*
X-4528161Y-25381834D01*
X-4667437Y-25415271D01*
X-4667440Y-25415272D01*
X-4674816Y-25417043D01*
X-4815586Y-25489700D01*
X-4934961Y-25593838D01*
X-5026050Y-25723444D01*
X-5083594Y-25871037D01*
X-5104271Y-26028096D01*
X-13081000Y-26028096D01*
X-13081000Y-24776876D01*
X-2008628Y-24776876D01*
X-2006148Y-24840000D01*
X-2001065Y-24969367D01*
X-1997484Y-25060524D01*
X-1946484Y-25339772D01*
X-1920507Y-25417634D01*
X-1861721Y-25593838D01*
X-1856647Y-25609048D01*
X-1854654Y-25613036D01*
X-1771046Y-25780361D01*
X-1729764Y-25862980D01*
X-1727235Y-25866639D01*
X-1604182Y-26044682D01*
X-1568369Y-26096500D01*
X-1375680Y-26304950D01*
X-1372226Y-26307762D01*
X-1158999Y-26481356D01*
X-1158995Y-26481359D01*
X-1155542Y-26484170D01*
X-912348Y-26630585D01*
X-908253Y-26632319D01*
X-908251Y-26632320D01*
X-720641Y-26711762D01*
X-650951Y-26741272D01*
X-646658Y-26742410D01*
X-646653Y-26742412D01*
X-582404Y-26759447D01*
X-376565Y-26814024D01*
X-94666Y-26847389D01*
X189122Y-26840701D01*
X193517Y-26839969D01*
X193522Y-26839969D01*
X464734Y-26794827D01*
X464738Y-26794826D01*
X469136Y-26794094D01*
X679444Y-26727582D01*
X735544Y-26709840D01*
X735546Y-26709839D01*
X739790Y-26708497D01*
X743801Y-26706571D01*
X743806Y-26706569D01*
X991665Y-26587549D01*
X991666Y-26587548D01*
X995684Y-26585619D01*
X1184434Y-26459500D01*
X1228002Y-26430389D01*
X1228006Y-26430386D01*
X1231710Y-26427911D01*
X1235027Y-26424940D01*
X1235031Y-26424937D01*
X1439845Y-26241490D01*
X1443161Y-26238520D01*
X1625817Y-26021225D01*
X1714784Y-25878571D01*
X1773669Y-25784152D01*
X1773671Y-25784149D01*
X1776033Y-25780361D01*
X1890813Y-25520734D01*
X1897038Y-25498664D01*
X1920557Y-25415271D01*
X1967866Y-25247525D01*
X1992983Y-25060524D01*
X2005227Y-24969367D01*
X2005228Y-24969359D01*
X2005654Y-24966185D01*
X2009620Y-24840000D01*
X1989571Y-24556842D01*
X1929825Y-24279334D01*
X1831574Y-24013013D01*
X1696778Y-23763192D01*
X1528127Y-23534856D01*
X1328986Y-23332562D01*
X1255118Y-23276188D01*
X1106872Y-23163050D01*
X1106868Y-23163047D01*
X1103327Y-23160345D01*
X855655Y-23021641D01*
X851506Y-23020036D01*
X851502Y-23020034D01*
X691830Y-22958262D01*
X590909Y-22919219D01*
X586588Y-22918217D01*
X586580Y-22918215D01*
X404110Y-22875922D01*
X314374Y-22855122D01*
X31566Y-22830628D01*
X27131Y-22830872D01*
X27127Y-22830872D01*
X-79282Y-22836728D01*
X-251872Y-22846226D01*
X-256232Y-22847093D01*
X-256238Y-22847094D01*
X-392704Y-22874239D01*
X-530285Y-22901606D01*
X-534495Y-22903084D01*
X-534497Y-22903085D01*
X-585004Y-22920822D01*
X-798116Y-22995662D01*
X-802067Y-22997715D01*
X-802073Y-22997717D01*
X-1046074Y-23124465D01*
X-1050024Y-23126517D01*
X-1053639Y-23129100D01*
X-1053645Y-23129104D01*
X-1097362Y-23160345D01*
X-1280980Y-23291561D01*
X-1486377Y-23487501D01*
X-1489133Y-23490997D01*
X-1489134Y-23490998D01*
X-1523709Y-23534856D01*
X-1662118Y-23710426D01*
X-1664355Y-23714278D01*
X-1802460Y-23952042D01*
X-1802463Y-23952048D01*
X-1804694Y-23955889D01*
X-1806364Y-23960012D01*
X-1909589Y-24214861D01*
X-1909592Y-24214869D01*
X-1911262Y-24218993D01*
X-1979695Y-24494488D01*
X-2008628Y-24776876D01*
X-13081000Y-24776876D01*
X-13081000Y-21188828D01*
X-8088999Y-21188828D01*
X-8087791Y-21201088D01*
X-8076685Y-21256931D01*
X-8067367Y-21279427D01*
X-8025017Y-21342808D01*
X-8007808Y-21360017D01*
X-7944425Y-21402368D01*
X-7921934Y-21411684D01*
X-7866085Y-21422793D01*
X-7853830Y-21424000D01*
X-7257115Y-21424000D01*
X-7241876Y-21419525D01*
X-7240671Y-21418135D01*
X-7239000Y-21410452D01*
X-7239000Y-21405884D01*
X-6731000Y-21405884D01*
X-6726525Y-21421123D01*
X-6725135Y-21422328D01*
X-6717452Y-21423999D01*
X-6116172Y-21423999D01*
X-6103912Y-21422791D01*
X-6048069Y-21411685D01*
X-6025573Y-21402367D01*
X-5962192Y-21360017D01*
X-5944983Y-21342808D01*
X-5902632Y-21279425D01*
X-5893316Y-21256934D01*
X-5882207Y-21201085D01*
X-5881000Y-21188830D01*
X-5881000Y-20592115D01*
X-5885475Y-20576876D01*
X-5886865Y-20575671D01*
X-5894548Y-20574000D01*
X-6712885Y-20574000D01*
X-6728124Y-20578475D01*
X-6729329Y-20579865D01*
X-6731000Y-20587548D01*
X-6731000Y-21405884D01*
X-7239000Y-21405884D01*
X-7239000Y-20592115D01*
X-7243475Y-20576876D01*
X-7244865Y-20575671D01*
X-7252548Y-20574000D01*
X-8070884Y-20574000D01*
X-8086123Y-20578475D01*
X-8087328Y-20579865D01*
X-8088999Y-20587548D01*
X-8088999Y-21188828D01*
X-13081000Y-21188828D01*
X-13081000Y-20047885D01*
X-8089000Y-20047885D01*
X-8084525Y-20063124D01*
X-8083135Y-20064329D01*
X-8075452Y-20066000D01*
X-7257115Y-20066000D01*
X-7241876Y-20061525D01*
X-7240671Y-20060135D01*
X-7239000Y-20052452D01*
X-7239000Y-20047885D01*
X-6731000Y-20047885D01*
X-6726525Y-20063124D01*
X-6725135Y-20064329D01*
X-6717452Y-20066000D01*
X-5899116Y-20066000D01*
X-5883877Y-20061525D01*
X-5882672Y-20060135D01*
X-5881001Y-20052452D01*
X-5881001Y-19451172D01*
X-5881616Y-19444933D01*
X-1104500Y-19444933D01*
X-1104499Y-21195066D01*
X-1097388Y-21230818D01*
X-1092194Y-21256931D01*
X-1089734Y-21269301D01*
X-1033484Y-21353484D01*
X-949301Y-21409734D01*
X-875067Y-21424500D01*
X-142Y-21424500D01*
X875066Y-21424499D01*
X910818Y-21417388D01*
X937126Y-21412156D01*
X937128Y-21412155D01*
X949301Y-21409734D01*
X959621Y-21402839D01*
X959622Y-21402838D01*
X1023168Y-21360377D01*
X1033484Y-21353484D01*
X1089734Y-21269301D01*
X1104500Y-21195067D01*
X1104500Y-21188828D01*
X6516001Y-21188828D01*
X6517209Y-21201088D01*
X6528315Y-21256931D01*
X6537633Y-21279427D01*
X6579983Y-21342808D01*
X6597192Y-21360017D01*
X6660575Y-21402368D01*
X6683066Y-21411684D01*
X6738915Y-21422793D01*
X6751170Y-21424000D01*
X7347885Y-21424000D01*
X7363124Y-21419525D01*
X7364329Y-21418135D01*
X7366000Y-21410452D01*
X7366000Y-21405884D01*
X7874000Y-21405884D01*
X7878475Y-21421123D01*
X7879865Y-21422328D01*
X7887548Y-21423999D01*
X8488828Y-21423999D01*
X8501088Y-21422791D01*
X8556931Y-21411685D01*
X8579427Y-21402367D01*
X8642808Y-21360017D01*
X8660017Y-21342808D01*
X8702368Y-21279425D01*
X8711684Y-21256934D01*
X8722793Y-21201085D01*
X8724000Y-21188830D01*
X8724000Y-20592115D01*
X8719525Y-20576876D01*
X8718135Y-20575671D01*
X8710452Y-20574000D01*
X7892115Y-20574000D01*
X7876876Y-20578475D01*
X7875671Y-20579865D01*
X7874000Y-20587548D01*
X7874000Y-21405884D01*
X7366000Y-21405884D01*
X7366000Y-20592115D01*
X7361525Y-20576876D01*
X7360135Y-20575671D01*
X7352452Y-20574000D01*
X6534116Y-20574000D01*
X6518877Y-20578475D01*
X6517672Y-20579865D01*
X6516001Y-20587548D01*
X6516001Y-21188828D01*
X1104500Y-21188828D01*
X1104499Y-20047885D01*
X6516000Y-20047885D01*
X6520475Y-20063124D01*
X6521865Y-20064329D01*
X6529548Y-20066000D01*
X7347885Y-20066000D01*
X7363124Y-20061525D01*
X7364329Y-20060135D01*
X7366000Y-20052452D01*
X7366000Y-20047885D01*
X7874000Y-20047885D01*
X7878475Y-20063124D01*
X7879865Y-20064329D01*
X7887548Y-20066000D01*
X8705884Y-20066000D01*
X8721123Y-20061525D01*
X8722328Y-20060135D01*
X8723999Y-20052452D01*
X8723999Y-19451172D01*
X8722791Y-19438912D01*
X8711685Y-19383069D01*
X8702367Y-19360573D01*
X8660017Y-19297192D01*
X8642808Y-19279983D01*
X8579425Y-19237632D01*
X8556934Y-19228316D01*
X8501085Y-19217207D01*
X8488830Y-19216000D01*
X7892115Y-19216000D01*
X7876876Y-19220475D01*
X7875671Y-19221865D01*
X7874000Y-19229548D01*
X7874000Y-20047885D01*
X7366000Y-20047885D01*
X7366000Y-19234116D01*
X7361525Y-19218877D01*
X7360135Y-19217672D01*
X7352452Y-19216001D01*
X6751172Y-19216001D01*
X6738912Y-19217209D01*
X6683069Y-19228315D01*
X6660573Y-19237633D01*
X6597192Y-19279983D01*
X6579983Y-19297192D01*
X6537632Y-19360575D01*
X6528316Y-19383066D01*
X6517207Y-19438915D01*
X6516000Y-19451170D01*
X6516000Y-20047885D01*
X1104499Y-20047885D01*
X1104499Y-19444934D01*
X1097388Y-19409182D01*
X1092156Y-19382874D01*
X1092155Y-19382872D01*
X1089734Y-19370699D01*
X1033484Y-19286516D01*
X949301Y-19230266D01*
X875067Y-19215500D01*
X142Y-19215500D01*
X-875066Y-19215501D01*
X-910818Y-19222612D01*
X-937126Y-19227844D01*
X-937128Y-19227845D01*
X-949301Y-19230266D01*
X-959621Y-19237161D01*
X-959622Y-19237162D01*
X-1020015Y-19277516D01*
X-1033484Y-19286516D01*
X-1089734Y-19370699D01*
X-1104500Y-19444933D01*
X-5881616Y-19444933D01*
X-5882209Y-19438912D01*
X-5893315Y-19383069D01*
X-5902633Y-19360573D01*
X-5944983Y-19297192D01*
X-5962192Y-19279983D01*
X-6025575Y-19237632D01*
X-6048066Y-19228316D01*
X-6103915Y-19217207D01*
X-6116170Y-19216000D01*
X-6712885Y-19216000D01*
X-6728124Y-19220475D01*
X-6729329Y-19221865D01*
X-6731000Y-19229548D01*
X-6731000Y-20047885D01*
X-7239000Y-20047885D01*
X-7239000Y-19234116D01*
X-7243475Y-19218877D01*
X-7244865Y-19217672D01*
X-7252548Y-19216001D01*
X-7853828Y-19216001D01*
X-7866088Y-19217209D01*
X-7921931Y-19228315D01*
X-7944427Y-19237633D01*
X-8007808Y-19279983D01*
X-8025017Y-19297192D01*
X-8067368Y-19360575D01*
X-8076684Y-19383066D01*
X-8087793Y-19438915D01*
X-8089000Y-19451170D01*
X-8089000Y-20047885D01*
X-13081000Y-20047885D01*
X-13081000Y-15656876D01*
X-2008628Y-15656876D01*
X-2006148Y-15720000D01*
X-2001065Y-15849367D01*
X-1997484Y-15940524D01*
X-1946484Y-16219772D01*
X-1856647Y-16489048D01*
X-1854654Y-16493036D01*
X-1771046Y-16660361D01*
X-1729764Y-16742980D01*
X-1568369Y-16976500D01*
X-1375680Y-17184950D01*
X-1372226Y-17187762D01*
X-1158999Y-17361356D01*
X-1158995Y-17361359D01*
X-1155542Y-17364170D01*
X-912348Y-17510585D01*
X-908253Y-17512319D01*
X-908251Y-17512320D01*
X-725180Y-17589840D01*
X-650951Y-17621272D01*
X-646658Y-17622410D01*
X-646653Y-17622412D01*
X-503102Y-17660473D01*
X-376565Y-17694024D01*
X-94666Y-17727389D01*
X189122Y-17720701D01*
X193517Y-17719969D01*
X193522Y-17719969D01*
X464734Y-17674827D01*
X464738Y-17674826D01*
X469136Y-17674094D01*
X646887Y-17617878D01*
X735544Y-17589840D01*
X735546Y-17589839D01*
X739790Y-17588497D01*
X743801Y-17586571D01*
X743806Y-17586569D01*
X991665Y-17467549D01*
X991666Y-17467548D01*
X995684Y-17465619D01*
X1151724Y-17361356D01*
X1228002Y-17310389D01*
X1228006Y-17310386D01*
X1231710Y-17307911D01*
X1235027Y-17304940D01*
X1235031Y-17304937D01*
X1439845Y-17121490D01*
X1443161Y-17118520D01*
X1625817Y-16901225D01*
X1628174Y-16897446D01*
X1773669Y-16664152D01*
X1773671Y-16664149D01*
X1776033Y-16660361D01*
X1890813Y-16400734D01*
X1967866Y-16127525D01*
X1992983Y-15940524D01*
X2005227Y-15849367D01*
X2005228Y-15849359D01*
X2005654Y-15846185D01*
X2009620Y-15720000D01*
X1989571Y-15436842D01*
X1929825Y-15159334D01*
X1831574Y-14893013D01*
X1696778Y-14643192D01*
X1528127Y-14414856D01*
X1328986Y-14212562D01*
X1255118Y-14156188D01*
X1106872Y-14043050D01*
X1106868Y-14043047D01*
X1103327Y-14040345D01*
X855655Y-13901641D01*
X851506Y-13900036D01*
X851502Y-13900034D01*
X691830Y-13838262D01*
X590909Y-13799219D01*
X586588Y-13798217D01*
X586580Y-13798215D01*
X404110Y-13755922D01*
X314374Y-13735122D01*
X31566Y-13710628D01*
X27131Y-13710872D01*
X27127Y-13710872D01*
X-79282Y-13716728D01*
X-251872Y-13726226D01*
X-256232Y-13727093D01*
X-256238Y-13727094D01*
X-392704Y-13754239D01*
X-530285Y-13781606D01*
X-534495Y-13783084D01*
X-534497Y-13783085D01*
X-592194Y-13803347D01*
X-798116Y-13875662D01*
X-802067Y-13877715D01*
X-802073Y-13877717D01*
X-1046074Y-14004465D01*
X-1050024Y-14006517D01*
X-1053639Y-14009100D01*
X-1053645Y-14009104D01*
X-1097362Y-14040345D01*
X-1280980Y-14171561D01*
X-1486377Y-14367501D01*
X-1489133Y-14370997D01*
X-1489134Y-14370998D01*
X-1523709Y-14414856D01*
X-1662118Y-14590426D01*
X-1664355Y-14594278D01*
X-1802460Y-14832042D01*
X-1802463Y-14832048D01*
X-1804694Y-14835889D01*
X-1806364Y-14840012D01*
X-1909589Y-15094861D01*
X-1909592Y-15094869D01*
X-1911262Y-15098993D01*
X-1979695Y-15374488D01*
X-2008628Y-15656876D01*
X-13081000Y-15656876D01*
X-13081000Y-12620000D01*
X-8259292Y-12620000D01*
X-8240161Y-12838674D01*
X-8183347Y-13050703D01*
X-8181022Y-13055688D01*
X-8092905Y-13244659D01*
X-8092902Y-13244664D01*
X-8090579Y-13249646D01*
X-7964674Y-13429457D01*
X-7809457Y-13584674D01*
X-7804949Y-13587831D01*
X-7804946Y-13587833D01*
X-7634155Y-13707422D01*
X-7629646Y-13710579D01*
X-7624664Y-13712902D01*
X-7624659Y-13712905D01*
X-7574856Y-13736128D01*
X-7430703Y-13803347D01*
X-7218674Y-13860161D01*
X-7000000Y-13879292D01*
X-6781326Y-13860161D01*
X-6569297Y-13803347D01*
X-6425144Y-13736128D01*
X-6375341Y-13712905D01*
X-6375336Y-13712902D01*
X-6370354Y-13710579D01*
X-6365845Y-13707422D01*
X-6195054Y-13587833D01*
X-6195051Y-13587831D01*
X-6190543Y-13584674D01*
X-6035326Y-13429457D01*
X-5909421Y-13249646D01*
X-5907098Y-13244664D01*
X-5907095Y-13244659D01*
X-5818978Y-13055688D01*
X-5816653Y-13050703D01*
X-5759839Y-12838674D01*
X-5740708Y-12620000D01*
X6240708Y-12620000D01*
X6259839Y-12838674D01*
X6316653Y-13050703D01*
X6318978Y-13055688D01*
X6407095Y-13244659D01*
X6407098Y-13244664D01*
X6409421Y-13249646D01*
X6535326Y-13429457D01*
X6690543Y-13584674D01*
X6695051Y-13587831D01*
X6695054Y-13587833D01*
X6865845Y-13707422D01*
X6870354Y-13710579D01*
X6875336Y-13712902D01*
X6875341Y-13712905D01*
X6925144Y-13736128D01*
X7069297Y-13803347D01*
X7281326Y-13860161D01*
X7500000Y-13879292D01*
X7718674Y-13860161D01*
X7930703Y-13803347D01*
X8074856Y-13736128D01*
X8124659Y-13712905D01*
X8124664Y-13712902D01*
X8129646Y-13710579D01*
X8134155Y-13707422D01*
X8304946Y-13587833D01*
X8304949Y-13587831D01*
X8309457Y-13584674D01*
X8464674Y-13429457D01*
X8590579Y-13249646D01*
X8592902Y-13244664D01*
X8592905Y-13244659D01*
X8681022Y-13055688D01*
X8683347Y-13050703D01*
X8740161Y-12838674D01*
X8759292Y-12620000D01*
X8740161Y-12401326D01*
X8683347Y-12189297D01*
X8639896Y-12096116D01*
X8592905Y-11995341D01*
X8592902Y-11995336D01*
X8590579Y-11990354D01*
X8464674Y-11810543D01*
X8309457Y-11655326D01*
X8304949Y-11652169D01*
X8304946Y-11652167D01*
X8134155Y-11532578D01*
X8134153Y-11532577D01*
X8129646Y-11529421D01*
X8124664Y-11527098D01*
X8124659Y-11527095D01*
X8032067Y-11483919D01*
X7978782Y-11437002D01*
X7959321Y-11368724D01*
X7979863Y-11300764D01*
X8032067Y-11255529D01*
X8124410Y-11212469D01*
X8133900Y-11206989D01*
X8174278Y-11178717D01*
X8182652Y-11168242D01*
X8175583Y-11154793D01*
X7512812Y-10492022D01*
X7498868Y-10484408D01*
X7497035Y-10484539D01*
X7490420Y-10488790D01*
X6823695Y-11155515D01*
X6817265Y-11167289D01*
X6826561Y-11179304D01*
X6866100Y-11206989D01*
X6875590Y-11212469D01*
X6967933Y-11255529D01*
X7021218Y-11302446D01*
X7040679Y-11370724D01*
X7020137Y-11438684D01*
X6967933Y-11483919D01*
X6875341Y-11527095D01*
X6875336Y-11527098D01*
X6870354Y-11529421D01*
X6865847Y-11532577D01*
X6865845Y-11532578D01*
X6695054Y-11652167D01*
X6695051Y-11652169D01*
X6690543Y-11655326D01*
X6535326Y-11810543D01*
X6409421Y-11990354D01*
X6407098Y-11995336D01*
X6407095Y-11995341D01*
X6360104Y-12096116D01*
X6316653Y-12189297D01*
X6259839Y-12401326D01*
X6240708Y-12620000D01*
X-5740708Y-12620000D01*
X-5759839Y-12401326D01*
X-5816653Y-12189297D01*
X-5860104Y-12096116D01*
X-5907095Y-11995341D01*
X-5907098Y-11995336D01*
X-5909421Y-11990354D01*
X-6035326Y-11810543D01*
X-6190543Y-11655326D01*
X-6195051Y-11652169D01*
X-6195054Y-11652167D01*
X-6365845Y-11532578D01*
X-6365847Y-11532577D01*
X-6370354Y-11529421D01*
X-6375336Y-11527098D01*
X-6375341Y-11527095D01*
X-6476116Y-11480104D01*
X-6569297Y-11436653D01*
X-6781326Y-11379839D01*
X-7000000Y-11360708D01*
X-7218674Y-11379839D01*
X-7430703Y-11436653D01*
X-7523884Y-11480104D01*
X-7624659Y-11527095D01*
X-7624664Y-11527098D01*
X-7629646Y-11529421D01*
X-7634153Y-11532577D01*
X-7634155Y-11532578D01*
X-7804946Y-11652167D01*
X-7804949Y-11652169D01*
X-7809457Y-11655326D01*
X-7964674Y-11810543D01*
X-8090579Y-11990354D01*
X-8092902Y-11995336D01*
X-8092905Y-11995341D01*
X-8139896Y-12096116D01*
X-8183347Y-12189297D01*
X-8240161Y-12401326D01*
X-8259292Y-12620000D01*
X-13081000Y-12620000D01*
X-13081000Y-10125475D01*
X6241689Y-10125475D01*
X6259855Y-10333107D01*
X6261758Y-10343902D01*
X6315701Y-10545222D01*
X6319447Y-10555514D01*
X6407531Y-10744410D01*
X6413011Y-10753900D01*
X6441283Y-10794278D01*
X6451758Y-10802652D01*
X6465207Y-10795583D01*
X7127978Y-10132812D01*
X7134356Y-10121132D01*
X7864408Y-10121132D01*
X7864539Y-10122965D01*
X7868790Y-10129580D01*
X8535515Y-10796305D01*
X8547289Y-10802735D01*
X8559304Y-10793439D01*
X8586989Y-10753900D01*
X8592469Y-10744410D01*
X8680553Y-10555514D01*
X8684299Y-10545222D01*
X8738242Y-10343902D01*
X8740145Y-10333107D01*
X8758311Y-10125475D01*
X8758311Y-10114525D01*
X8740145Y-9906893D01*
X8738242Y-9896098D01*
X8684299Y-9694778D01*
X8680553Y-9684486D01*
X8592469Y-9495590D01*
X8586989Y-9486100D01*
X8558717Y-9445722D01*
X8548242Y-9437348D01*
X8534793Y-9444417D01*
X7872022Y-10107188D01*
X7864408Y-10121132D01*
X7134356Y-10121132D01*
X7135592Y-10118868D01*
X7135461Y-10117035D01*
X7131210Y-10110420D01*
X6464485Y-9443695D01*
X6452711Y-9437265D01*
X6440696Y-9446561D01*
X6413011Y-9486100D01*
X6407531Y-9495590D01*
X6319447Y-9684486D01*
X6315701Y-9694778D01*
X6261758Y-9896098D01*
X6259855Y-9906893D01*
X6241689Y-10114525D01*
X6241689Y-10125475D01*
X-13081000Y-10125475D01*
X-13081000Y-8667289D01*
X-7682735Y-8667289D01*
X-7673439Y-8679304D01*
X-7633900Y-8706989D01*
X-7624410Y-8712469D01*
X-7435514Y-8800553D01*
X-7425222Y-8804299D01*
X-7223902Y-8858242D01*
X-7213107Y-8860145D01*
X-7005475Y-8878311D01*
X-6994525Y-8878311D01*
X-6786893Y-8860145D01*
X-6776098Y-8858242D01*
X-6574778Y-8804299D01*
X-6564486Y-8800553D01*
X-6375590Y-8712469D01*
X-6366100Y-8706989D01*
X-6325722Y-8678717D01*
X-6317348Y-8668242D01*
X-6324417Y-8654793D01*
X-6987188Y-7992022D01*
X-7001132Y-7984408D01*
X-7002965Y-7984539D01*
X-7009580Y-7988790D01*
X-7676305Y-8655515D01*
X-7682735Y-8667289D01*
X-13081000Y-8667289D01*
X-13081000Y-7625475D01*
X-8258311Y-7625475D01*
X-8240145Y-7833107D01*
X-8238242Y-7843902D01*
X-8184299Y-8045222D01*
X-8180553Y-8055514D01*
X-8092469Y-8244410D01*
X-8086989Y-8253900D01*
X-8058717Y-8294278D01*
X-8048242Y-8302652D01*
X-8034793Y-8295583D01*
X-7372022Y-7632812D01*
X-7365644Y-7621132D01*
X-6635592Y-7621132D01*
X-6635461Y-7622965D01*
X-6631210Y-7629580D01*
X-5964485Y-8296305D01*
X-5952711Y-8302735D01*
X-5940696Y-8293439D01*
X-5913011Y-8253900D01*
X-5907531Y-8244410D01*
X-5819447Y-8055514D01*
X-5815701Y-8045222D01*
X-5761758Y-7843902D01*
X-5759855Y-7833107D01*
X-5741689Y-7625475D01*
X-5741689Y-7614525D01*
X-5759855Y-7406893D01*
X-5761758Y-7396098D01*
X-5815701Y-7194778D01*
X-5819447Y-7184486D01*
X-5907531Y-6995590D01*
X-5913011Y-6986100D01*
X-5941283Y-6945722D01*
X-5951758Y-6937348D01*
X-5965207Y-6944417D01*
X-6627978Y-7607188D01*
X-6635592Y-7621132D01*
X-7365644Y-7621132D01*
X-7364408Y-7618868D01*
X-7364539Y-7617035D01*
X-7368790Y-7610420D01*
X-8035515Y-6943695D01*
X-8047289Y-6937265D01*
X-8059304Y-6946561D01*
X-8086989Y-6986100D01*
X-8092469Y-6995590D01*
X-8180553Y-7184486D01*
X-8184299Y-7194778D01*
X-8238242Y-7396098D01*
X-8240145Y-7406893D01*
X-8258311Y-7614525D01*
X-8258311Y-7625475D01*
X-13081000Y-7625475D01*
X-13081000Y-6571758D01*
X-7682652Y-6571758D01*
X-7675583Y-6585207D01*
X-7012812Y-7247978D01*
X-6998868Y-7255592D01*
X-6997035Y-7255461D01*
X-6990420Y-7251210D01*
X-6334143Y-6594933D01*
X6245500Y-6594933D01*
X6245501Y-8645066D01*
X6260266Y-8719301D01*
X6316516Y-8803484D01*
X6400699Y-8859734D01*
X6474933Y-8874500D01*
X6713001Y-8874500D01*
X6781122Y-8894502D01*
X6827615Y-8948158D01*
X6837719Y-9018432D01*
X6816438Y-9067588D01*
X6816227Y-9069625D01*
X6824417Y-9085207D01*
X7487188Y-9747978D01*
X7501132Y-9755592D01*
X7502965Y-9755461D01*
X7509580Y-9751210D01*
X8176305Y-9084485D01*
X8183825Y-9070715D01*
X8160654Y-9011480D01*
X8174644Y-8941875D01*
X8224044Y-8890883D01*
X8286175Y-8874499D01*
X8525066Y-8874499D01*
X8560818Y-8867388D01*
X8587126Y-8862156D01*
X8587128Y-8862155D01*
X8599301Y-8859734D01*
X8609621Y-8852839D01*
X8609622Y-8852838D01*
X8673168Y-8810377D01*
X8683484Y-8803484D01*
X8739734Y-8719301D01*
X8754500Y-8645067D01*
X8754499Y-6594934D01*
X8739734Y-6520699D01*
X8683484Y-6436516D01*
X8599301Y-6380266D01*
X8525067Y-6365500D01*
X7500166Y-6365500D01*
X6474934Y-6365501D01*
X6439182Y-6372612D01*
X6412874Y-6377844D01*
X6412872Y-6377845D01*
X6400699Y-6380266D01*
X6390379Y-6387161D01*
X6390378Y-6387162D01*
X6339330Y-6421272D01*
X6316516Y-6436516D01*
X6260266Y-6520699D01*
X6245500Y-6594933D01*
X-6334143Y-6594933D01*
X-6323695Y-6584485D01*
X-6317265Y-6572711D01*
X-6326561Y-6560696D01*
X-6366100Y-6533011D01*
X-6375590Y-6527531D01*
X-6564486Y-6439447D01*
X-6574778Y-6435701D01*
X-6776098Y-6381758D01*
X-6786893Y-6379855D01*
X-6994525Y-6361689D01*
X-7005475Y-6361689D01*
X-7213107Y-6379855D01*
X-7223902Y-6381758D01*
X-7425222Y-6435701D01*
X-7435514Y-6439447D01*
X-7624410Y-6527531D01*
X-7633900Y-6533011D01*
X-7674278Y-6561283D01*
X-7682652Y-6571758D01*
X-13081000Y-6571758D01*
X-13081000Y-4456876D01*
X-2008628Y-4456876D01*
X-2006148Y-4520000D01*
X-2001065Y-4649367D01*
X-1997484Y-4740524D01*
X-1946484Y-5019772D01*
X-1856647Y-5289048D01*
X-1854654Y-5293036D01*
X-1771046Y-5460361D01*
X-1729764Y-5542980D01*
X-1568369Y-5776500D01*
X-1375680Y-5984950D01*
X-1372226Y-5987762D01*
X-1158999Y-6161356D01*
X-1158995Y-6161359D01*
X-1155542Y-6164170D01*
X-912348Y-6310585D01*
X-908253Y-6312319D01*
X-908251Y-6312320D01*
X-725180Y-6389840D01*
X-650951Y-6421272D01*
X-646658Y-6422410D01*
X-646653Y-6422412D01*
X-582404Y-6439447D01*
X-376565Y-6494024D01*
X-94666Y-6527389D01*
X189122Y-6520701D01*
X193517Y-6519969D01*
X193522Y-6519969D01*
X464734Y-6474827D01*
X464738Y-6474826D01*
X469136Y-6474094D01*
X646887Y-6417878D01*
X735544Y-6389840D01*
X735546Y-6389839D01*
X739790Y-6388497D01*
X743801Y-6386571D01*
X743806Y-6386569D01*
X991665Y-6267549D01*
X991666Y-6267548D01*
X995684Y-6265619D01*
X1151724Y-6161356D01*
X1228002Y-6110389D01*
X1228006Y-6110386D01*
X1231710Y-6107911D01*
X1235027Y-6104940D01*
X1235031Y-6104937D01*
X1439845Y-5921490D01*
X1443161Y-5918520D01*
X1625817Y-5701225D01*
X1628174Y-5697446D01*
X1773669Y-5464152D01*
X1773671Y-5464149D01*
X1776033Y-5460361D01*
X1890813Y-5200734D01*
X1967866Y-4927525D01*
X1992983Y-4740524D01*
X2005227Y-4649367D01*
X2005228Y-4649359D01*
X2005654Y-4646185D01*
X2009620Y-4520000D01*
X1989571Y-4236842D01*
X1929825Y-3959334D01*
X1831574Y-3693013D01*
X1696778Y-3443192D01*
X1528127Y-3214856D01*
X1328986Y-3012562D01*
X1255118Y-2956188D01*
X1106872Y-2843050D01*
X1106868Y-2843047D01*
X1103327Y-2840345D01*
X855655Y-2701641D01*
X851506Y-2700036D01*
X851502Y-2700034D01*
X691830Y-2638262D01*
X590909Y-2599219D01*
X586588Y-2598217D01*
X586580Y-2598215D01*
X404110Y-2555922D01*
X314374Y-2535122D01*
X31566Y-2510628D01*
X27131Y-2510872D01*
X27127Y-2510872D01*
X-79282Y-2516728D01*
X-251872Y-2526226D01*
X-256232Y-2527093D01*
X-256238Y-2527094D01*
X-392704Y-2554239D01*
X-530285Y-2581606D01*
X-534495Y-2583084D01*
X-534497Y-2583085D01*
X-585004Y-2600822D01*
X-798116Y-2675662D01*
X-802067Y-2677715D01*
X-802073Y-2677717D01*
X-1046074Y-2804465D01*
X-1050024Y-2806517D01*
X-1053639Y-2809100D01*
X-1053645Y-2809104D01*
X-1097362Y-2840345D01*
X-1280980Y-2971561D01*
X-1486377Y-3167501D01*
X-1489133Y-3170997D01*
X-1489134Y-3170998D01*
X-1523709Y-3214856D01*
X-1662118Y-3390426D01*
X-1664355Y-3394278D01*
X-1802460Y-3632042D01*
X-1802463Y-3632048D01*
X-1804694Y-3635889D01*
X-1806364Y-3640012D01*
X-1909589Y-3894861D01*
X-1909592Y-3894869D01*
X-1911262Y-3898993D01*
X-1979695Y-4174488D01*
X-2008628Y-4456876D01*
X-13081000Y-4456876D01*
X-13081000Y4663124D01*
X-2008628Y4663124D01*
X-2006148Y4600000D01*
X-2001065Y4470633D01*
X-1997484Y4379476D01*
X-1946484Y4100228D01*
X-1856647Y3830952D01*
X-1854654Y3826964D01*
X-1771046Y3659639D01*
X-1729764Y3577020D01*
X-1568369Y3343500D01*
X-1375680Y3135050D01*
X-1372226Y3132238D01*
X-1158999Y2958644D01*
X-1158995Y2958641D01*
X-1155542Y2955830D01*
X-912348Y2809415D01*
X-908253Y2807681D01*
X-908251Y2807680D01*
X-725180Y2730160D01*
X-650951Y2698728D01*
X-646658Y2697590D01*
X-646653Y2697588D01*
X-503102Y2659527D01*
X-376565Y2625976D01*
X-94666Y2592611D01*
X189122Y2599299D01*
X193517Y2600031D01*
X193522Y2600031D01*
X464734Y2645173D01*
X464738Y2645174D01*
X469136Y2645906D01*
X646887Y2702122D01*
X735544Y2730160D01*
X735546Y2730161D01*
X739790Y2731503D01*
X743801Y2733429D01*
X743806Y2733431D01*
X991665Y2852451D01*
X991666Y2852452D01*
X995684Y2854381D01*
X1151724Y2958644D01*
X1228002Y3009611D01*
X1228006Y3009614D01*
X1231710Y3012089D01*
X1235027Y3015060D01*
X1235031Y3015063D01*
X1439845Y3198510D01*
X1443161Y3201480D01*
X1625817Y3418775D01*
X1628174Y3422554D01*
X1773669Y3655848D01*
X1773671Y3655851D01*
X1776033Y3659639D01*
X1890813Y3919266D01*
X1967866Y4192475D01*
X1992983Y4379476D01*
X2005227Y4470633D01*
X2005228Y4470641D01*
X2005654Y4473815D01*
X2009620Y4600000D01*
X1989571Y4883158D01*
X1929825Y5160666D01*
X1831574Y5426987D01*
X1696778Y5676808D01*
X1528127Y5905144D01*
X1328986Y6107438D01*
X1255118Y6163812D01*
X1106872Y6276950D01*
X1106868Y6276953D01*
X1103327Y6279655D01*
X855655Y6418359D01*
X851506Y6419964D01*
X851502Y6419966D01*
X691830Y6481738D01*
X590909Y6520781D01*
X586588Y6521783D01*
X586580Y6521785D01*
X404110Y6564078D01*
X314374Y6584878D01*
X31566Y6609372D01*
X27131Y6609128D01*
X27127Y6609128D01*
X-79282Y6603272D01*
X-251872Y6593774D01*
X-256232Y6592907D01*
X-256238Y6592906D01*
X-392704Y6565761D01*
X-530285Y6538394D01*
X-534495Y6536916D01*
X-534497Y6536915D01*
X-592194Y6516653D01*
X-798116Y6444338D01*
X-802067Y6442285D01*
X-802073Y6442283D01*
X-1046074Y6315535D01*
X-1050024Y6313483D01*
X-1053639Y6310900D01*
X-1053645Y6310896D01*
X-1097362Y6279655D01*
X-1280980Y6148439D01*
X-1486377Y5952499D01*
X-1489133Y5949003D01*
X-1489134Y5949002D01*
X-1523709Y5905144D01*
X-1662118Y5729574D01*
X-1664355Y5725722D01*
X-1802460Y5487958D01*
X-1802463Y5487952D01*
X-1804694Y5484111D01*
X-1806364Y5479988D01*
X-1909589Y5225139D01*
X-1909592Y5225131D01*
X-1911262Y5221007D01*
X-1979695Y4945512D01*
X-2008628Y4663124D01*
X-13081000Y4663124D01*
X-13081000Y7700000D01*
X-8259292Y7700000D01*
X-8240161Y7481326D01*
X-8183347Y7269297D01*
X-8181022Y7264312D01*
X-8092905Y7075341D01*
X-8092902Y7075336D01*
X-8090579Y7070354D01*
X-7964674Y6890543D01*
X-7809457Y6735326D01*
X-7804949Y6732169D01*
X-7804946Y6732167D01*
X-7634155Y6612578D01*
X-7629646Y6609421D01*
X-7624664Y6607098D01*
X-7624659Y6607095D01*
X-7574856Y6583872D01*
X-7430703Y6516653D01*
X-7218674Y6459839D01*
X-7000000Y6440708D01*
X-6781326Y6459839D01*
X-6569297Y6516653D01*
X-6425144Y6583872D01*
X-6375341Y6607095D01*
X-6375336Y6607098D01*
X-6370354Y6609421D01*
X-6365845Y6612578D01*
X-6195054Y6732167D01*
X-6195051Y6732169D01*
X-6190543Y6735326D01*
X-6035326Y6890543D01*
X-5909421Y7070354D01*
X-5907098Y7075336D01*
X-5907095Y7075341D01*
X-5818978Y7264312D01*
X-5816653Y7269297D01*
X-5759839Y7481326D01*
X-5740708Y7700000D01*
X6240708Y7700000D01*
X6259839Y7481326D01*
X6316653Y7269297D01*
X6318978Y7264312D01*
X6407095Y7075341D01*
X6407098Y7075336D01*
X6409421Y7070354D01*
X6535326Y6890543D01*
X6690543Y6735326D01*
X6695051Y6732169D01*
X6695054Y6732167D01*
X6865845Y6612578D01*
X6870354Y6609421D01*
X6875336Y6607098D01*
X6875341Y6607095D01*
X6925144Y6583872D01*
X7069297Y6516653D01*
X7281326Y6459839D01*
X7500000Y6440708D01*
X7718674Y6459839D01*
X7930703Y6516653D01*
X8074856Y6583872D01*
X8124659Y6607095D01*
X8124664Y6607098D01*
X8129646Y6609421D01*
X8134155Y6612578D01*
X8304946Y6732167D01*
X8304949Y6732169D01*
X8309457Y6735326D01*
X8464674Y6890543D01*
X8590579Y7070354D01*
X8592902Y7075336D01*
X8592905Y7075341D01*
X8681022Y7264312D01*
X8683347Y7269297D01*
X8740161Y7481326D01*
X8759292Y7700000D01*
X8740161Y7918674D01*
X8683347Y8130703D01*
X8639896Y8223884D01*
X8592905Y8324659D01*
X8592902Y8324664D01*
X8590579Y8329646D01*
X8464674Y8509457D01*
X8309457Y8664674D01*
X8304949Y8667831D01*
X8304946Y8667833D01*
X8134155Y8787422D01*
X8134153Y8787423D01*
X8129646Y8790579D01*
X8124664Y8792902D01*
X8124659Y8792905D01*
X8032067Y8836081D01*
X7978782Y8882998D01*
X7959321Y8951276D01*
X7979863Y9019236D01*
X8032067Y9064471D01*
X8124410Y9107531D01*
X8133900Y9113011D01*
X8174278Y9141283D01*
X8182652Y9151758D01*
X8175583Y9165207D01*
X7512812Y9827978D01*
X7498868Y9835592D01*
X7497035Y9835461D01*
X7490420Y9831210D01*
X6823695Y9164485D01*
X6817265Y9152711D01*
X6826561Y9140696D01*
X6866100Y9113011D01*
X6875590Y9107531D01*
X6967933Y9064471D01*
X7021218Y9017554D01*
X7040679Y8949276D01*
X7020137Y8881316D01*
X6967933Y8836081D01*
X6875341Y8792905D01*
X6875336Y8792902D01*
X6870354Y8790579D01*
X6865847Y8787423D01*
X6865845Y8787422D01*
X6695054Y8667833D01*
X6695051Y8667831D01*
X6690543Y8664674D01*
X6535326Y8509457D01*
X6409421Y8329646D01*
X6407098Y8324664D01*
X6407095Y8324659D01*
X6360104Y8223884D01*
X6316653Y8130703D01*
X6259839Y7918674D01*
X6240708Y7700000D01*
X-5740708Y7700000D01*
X-5759839Y7918674D01*
X-5816653Y8130703D01*
X-5860104Y8223884D01*
X-5907095Y8324659D01*
X-5907098Y8324664D01*
X-5909421Y8329646D01*
X-6035326Y8509457D01*
X-6190543Y8664674D01*
X-6195051Y8667831D01*
X-6195054Y8667833D01*
X-6365845Y8787422D01*
X-6365847Y8787423D01*
X-6370354Y8790579D01*
X-6375336Y8792902D01*
X-6375341Y8792905D01*
X-6476116Y8839896D01*
X-6569297Y8883347D01*
X-6781326Y8940161D01*
X-7000000Y8959292D01*
X-7218674Y8940161D01*
X-7430703Y8883347D01*
X-7523884Y8839896D01*
X-7624659Y8792905D01*
X-7624664Y8792902D01*
X-7629646Y8790579D01*
X-7634153Y8787423D01*
X-7634155Y8787422D01*
X-7804946Y8667833D01*
X-7804949Y8667831D01*
X-7809457Y8664674D01*
X-7964674Y8509457D01*
X-8090579Y8329646D01*
X-8092902Y8324664D01*
X-8092905Y8324659D01*
X-8139896Y8223884D01*
X-8183347Y8130703D01*
X-8240161Y7918674D01*
X-8259292Y7700000D01*
X-13081000Y7700000D01*
X-13081000Y10194525D01*
X6241689Y10194525D01*
X6259855Y9986893D01*
X6261758Y9976098D01*
X6315701Y9774778D01*
X6319447Y9764486D01*
X6407531Y9575590D01*
X6413011Y9566100D01*
X6441283Y9525722D01*
X6451758Y9517348D01*
X6465207Y9524417D01*
X7127978Y10187188D01*
X7134356Y10198868D01*
X7864408Y10198868D01*
X7864539Y10197035D01*
X7868790Y10190420D01*
X8535515Y9523695D01*
X8547289Y9517265D01*
X8559304Y9526561D01*
X8586989Y9566100D01*
X8592469Y9575590D01*
X8680553Y9764486D01*
X8684299Y9774778D01*
X8738242Y9976098D01*
X8740145Y9986893D01*
X8758311Y10194525D01*
X8758311Y10205475D01*
X8740145Y10413107D01*
X8738242Y10423902D01*
X8684299Y10625222D01*
X8680553Y10635514D01*
X8592469Y10824410D01*
X8586989Y10833900D01*
X8558717Y10874278D01*
X8548242Y10882652D01*
X8534793Y10875583D01*
X7872022Y10212812D01*
X7864408Y10198868D01*
X7134356Y10198868D01*
X7135592Y10201132D01*
X7135461Y10202965D01*
X7131210Y10209580D01*
X6464485Y10876305D01*
X6452711Y10882735D01*
X6440696Y10873439D01*
X6413011Y10833900D01*
X6407531Y10824410D01*
X6319447Y10635514D01*
X6315701Y10625222D01*
X6261758Y10423902D01*
X6259855Y10413107D01*
X6241689Y10205475D01*
X6241689Y10194525D01*
X-13081000Y10194525D01*
X-13081000Y11652711D01*
X-7682735Y11652711D01*
X-7673439Y11640696D01*
X-7633900Y11613011D01*
X-7624410Y11607531D01*
X-7435514Y11519447D01*
X-7425222Y11515701D01*
X-7223902Y11461758D01*
X-7213107Y11459855D01*
X-7005475Y11441689D01*
X-6994525Y11441689D01*
X-6786893Y11459855D01*
X-6776098Y11461758D01*
X-6574778Y11515701D01*
X-6564486Y11519447D01*
X-6375590Y11607531D01*
X-6366100Y11613011D01*
X-6325722Y11641283D01*
X-6317348Y11651758D01*
X-6324417Y11665207D01*
X-6987188Y12327978D01*
X-7001132Y12335592D01*
X-7002965Y12335461D01*
X-7009580Y12331210D01*
X-7676305Y11664485D01*
X-7682735Y11652711D01*
X-13081000Y11652711D01*
X-13081000Y13335000D01*
X-10384207Y13335000D01*
X-10365431Y13156361D01*
X-10363391Y13150083D01*
X-10363391Y13150082D01*
X-10355313Y13125222D01*
X-10309925Y12985529D01*
X-10220113Y12829971D01*
X-10099922Y12696485D01*
X-10094580Y12692604D01*
X-10094578Y12692602D01*
X-10087126Y12687188D01*
X-9954604Y12590905D01*
X-9948576Y12588221D01*
X-9948574Y12588220D01*
X-9796541Y12520531D01*
X-9790510Y12517846D01*
X-9702661Y12499173D01*
X-9621269Y12481872D01*
X-9621264Y12481872D01*
X-9614812Y12480500D01*
X-9435188Y12480500D01*
X-9428736Y12481872D01*
X-9428731Y12481872D01*
X-9347339Y12499173D01*
X-9259490Y12517846D01*
X-9253459Y12520531D01*
X-9101426Y12588220D01*
X-9101424Y12588221D01*
X-9095396Y12590905D01*
X-8962874Y12687188D01*
X-8955422Y12692602D01*
X-8955420Y12692604D01*
X-8952776Y12694525D01*
X-8258311Y12694525D01*
X-8240145Y12486893D01*
X-8238242Y12476098D01*
X-8184299Y12274778D01*
X-8180553Y12264486D01*
X-8092469Y12075590D01*
X-8086989Y12066100D01*
X-8058717Y12025722D01*
X-8048242Y12017348D01*
X-8034793Y12024417D01*
X-7372022Y12687188D01*
X-7365644Y12698868D01*
X-6635592Y12698868D01*
X-6635461Y12697035D01*
X-6631210Y12690420D01*
X-5964485Y12023695D01*
X-5952711Y12017265D01*
X-5940696Y12026561D01*
X-5913011Y12066100D01*
X-5907531Y12075590D01*
X-5819447Y12264486D01*
X-5815701Y12274778D01*
X-5761758Y12476098D01*
X-5759855Y12486893D01*
X-5741689Y12694525D01*
X-5741689Y12705475D01*
X-5759855Y12913107D01*
X-5761758Y12923902D01*
X-5815701Y13125222D01*
X-5819447Y13135514D01*
X-5907531Y13324410D01*
X-5913011Y13333900D01*
X-5941283Y13374278D01*
X-5951758Y13382652D01*
X-5965207Y13375583D01*
X-6627978Y12712812D01*
X-6635592Y12698868D01*
X-7365644Y12698868D01*
X-7364408Y12701132D01*
X-7364539Y12702965D01*
X-7368790Y12709580D01*
X-8035515Y13376305D01*
X-8047289Y13382735D01*
X-8059304Y13373439D01*
X-8086989Y13333900D01*
X-8092469Y13324410D01*
X-8180553Y13135514D01*
X-8184299Y13125222D01*
X-8238242Y12923902D01*
X-8240145Y12913107D01*
X-8258311Y12705475D01*
X-8258311Y12694525D01*
X-8952776Y12694525D01*
X-8950078Y12696485D01*
X-8829887Y12829971D01*
X-8740075Y12985529D01*
X-8694686Y13125222D01*
X-8686609Y13150082D01*
X-8686609Y13150083D01*
X-8684569Y13156361D01*
X-8665793Y13335000D01*
X-8669921Y13374278D01*
X-8683879Y13507075D01*
X-8683879Y13507076D01*
X-8684569Y13513639D01*
X-8740075Y13684471D01*
X-8776893Y13748242D01*
X-7682652Y13748242D01*
X-7675583Y13734793D01*
X-7012812Y13072022D01*
X-6998868Y13064408D01*
X-6997035Y13064539D01*
X-6990420Y13068790D01*
X-6334143Y13725067D01*
X6245500Y13725067D01*
X6245501Y11674934D01*
X6260266Y11600699D01*
X6316516Y11516516D01*
X6400699Y11460266D01*
X6474933Y11445500D01*
X6713001Y11445500D01*
X6781122Y11425498D01*
X6827615Y11371842D01*
X6837719Y11301568D01*
X6816438Y11252412D01*
X6816227Y11250375D01*
X6824417Y11234793D01*
X7487188Y10572022D01*
X7501132Y10564408D01*
X7502965Y10564539D01*
X7509580Y10568790D01*
X8176305Y11235515D01*
X8183825Y11249285D01*
X8160654Y11308520D01*
X8174644Y11378125D01*
X8224044Y11429117D01*
X8286175Y11445501D01*
X8525066Y11445501D01*
X8560818Y11452612D01*
X8587126Y11457844D01*
X8587128Y11457845D01*
X8599301Y11460266D01*
X8609621Y11467161D01*
X8609622Y11467162D01*
X8673168Y11509623D01*
X8683484Y11516516D01*
X8739734Y11600699D01*
X8754500Y11674933D01*
X8754499Y13725066D01*
X8747388Y13760818D01*
X8742156Y13787126D01*
X8742155Y13787128D01*
X8739734Y13799301D01*
X8683484Y13883484D01*
X8599301Y13939734D01*
X8525067Y13954500D01*
X7500166Y13954500D01*
X6474934Y13954499D01*
X6439182Y13947388D01*
X6412874Y13942156D01*
X6412872Y13942155D01*
X6400699Y13939734D01*
X6390379Y13932839D01*
X6390378Y13932838D01*
X6339330Y13898728D01*
X6316516Y13883484D01*
X6260266Y13799301D01*
X6245500Y13725067D01*
X-6334143Y13725067D01*
X-6323695Y13735515D01*
X-6317265Y13747289D01*
X-6326561Y13759304D01*
X-6366100Y13786989D01*
X-6375590Y13792469D01*
X-6564486Y13880553D01*
X-6574778Y13884299D01*
X-6776098Y13938242D01*
X-6786893Y13940145D01*
X-6994525Y13958311D01*
X-7005475Y13958311D01*
X-7213107Y13940145D01*
X-7223902Y13938242D01*
X-7425222Y13884299D01*
X-7435514Y13880553D01*
X-7624410Y13792469D01*
X-7633900Y13786989D01*
X-7674278Y13758717D01*
X-7682652Y13748242D01*
X-8776893Y13748242D01*
X-8829887Y13840029D01*
X-8834518Y13845173D01*
X-8945656Y13968604D01*
X-8945657Y13968605D01*
X-8950078Y13973515D01*
X-9002652Y14011713D01*
X-9090054Y14075214D01*
X-9090055Y14075215D01*
X-9095396Y14079095D01*
X-9101424Y14081779D01*
X-9101426Y14081780D01*
X-9253459Y14149469D01*
X-9253460Y14149469D01*
X-9259490Y14152154D01*
X-9347339Y14170827D01*
X-9428731Y14188128D01*
X-9428736Y14188128D01*
X-9435188Y14189500D01*
X-9614812Y14189500D01*
X-9621264Y14188128D01*
X-9621269Y14188128D01*
X-9702661Y14170827D01*
X-9790510Y14152154D01*
X-9796540Y14149469D01*
X-9796541Y14149469D01*
X-9948573Y14081780D01*
X-9948575Y14081779D01*
X-9954603Y14079095D01*
X-9959944Y14075215D01*
X-9959945Y14075214D01*
X-10094578Y13977398D01*
X-10094580Y13977396D01*
X-10099922Y13973515D01*
X-10104343Y13968605D01*
X-10104344Y13968604D01*
X-10215481Y13845173D01*
X-10220113Y13840029D01*
X-10309925Y13684471D01*
X-10365431Y13513639D01*
X-10366121Y13507076D01*
X-10366121Y13507075D01*
X-10380079Y13374278D01*
X-10384207Y13335000D01*
X-13081000Y13335000D01*
X-13081000Y14605000D01*
X-12289207Y14605000D01*
X-12270431Y14426361D01*
X-12268391Y14420083D01*
X-12268391Y14420082D01*
X-12263453Y14404886D01*
X-12214925Y14255529D01*
X-12125113Y14099971D01*
X-12120695Y14095064D01*
X-12120694Y14095063D01*
X-12043576Y14009415D01*
X-12004922Y13966485D01*
X-11999580Y13962604D01*
X-11999578Y13962602D01*
X-11886647Y13880553D01*
X-11859604Y13860905D01*
X-11853576Y13858221D01*
X-11853574Y13858220D01*
X-11701541Y13790531D01*
X-11695510Y13787846D01*
X-11607661Y13769173D01*
X-11526269Y13751872D01*
X-11526264Y13751872D01*
X-11519812Y13750500D01*
X-11340188Y13750500D01*
X-11333736Y13751872D01*
X-11333731Y13751872D01*
X-11252339Y13769173D01*
X-11164490Y13787846D01*
X-11158459Y13790531D01*
X-11006426Y13858220D01*
X-11006424Y13858221D01*
X-11000396Y13860905D01*
X-10973353Y13880553D01*
X-10860422Y13962602D01*
X-10860420Y13962604D01*
X-10855078Y13966485D01*
X-10816424Y14009415D01*
X-10739306Y14095063D01*
X-10739305Y14095064D01*
X-10734887Y14099971D01*
X-10645075Y14255529D01*
X-10596546Y14404886D01*
X-10591609Y14420082D01*
X-10591609Y14420083D01*
X-10589569Y14426361D01*
X-10570793Y14605000D01*
X-10589569Y14783639D01*
X-10613031Y14855848D01*
X-10643033Y14948187D01*
X-10643034Y14948189D01*
X-10645075Y14954471D01*
X-10734887Y15110029D01*
X-10739528Y15115184D01*
X-10850656Y15238604D01*
X-10850657Y15238605D01*
X-10855078Y15243515D01*
X-10933136Y15300228D01*
X-10995054Y15345214D01*
X-10995055Y15345215D01*
X-11000396Y15349095D01*
X-11006424Y15351779D01*
X-11006426Y15351780D01*
X-11158459Y15419469D01*
X-11158460Y15419469D01*
X-11164490Y15422154D01*
X-11252339Y15440827D01*
X-11333731Y15458128D01*
X-11333736Y15458128D01*
X-11340188Y15459500D01*
X-11519812Y15459500D01*
X-11526264Y15458128D01*
X-11526269Y15458128D01*
X-11607661Y15440827D01*
X-11695510Y15422154D01*
X-11701540Y15419469D01*
X-11701541Y15419469D01*
X-11853573Y15351780D01*
X-11853575Y15351779D01*
X-11859603Y15349095D01*
X-11864944Y15345215D01*
X-11864945Y15345214D01*
X-11999578Y15247398D01*
X-11999580Y15247396D01*
X-12004922Y15243515D01*
X-12009343Y15238605D01*
X-12009344Y15238604D01*
X-12120471Y15115184D01*
X-12125113Y15110029D01*
X-12214925Y14954471D01*
X-12216966Y14948189D01*
X-12216967Y14948187D01*
X-12246969Y14855848D01*
X-12270431Y14783639D01*
X-12289207Y14605000D01*
X-13081000Y14605000D01*
X-13081000Y15875000D01*
X-10384207Y15875000D01*
X-10383517Y15868435D01*
X-10383424Y15867555D01*
X-10365431Y15696361D01*
X-10363391Y15690083D01*
X-10363391Y15690082D01*
X-10326030Y15575097D01*
X-10309925Y15525529D01*
X-10220113Y15369971D01*
X-10099922Y15236485D01*
X-9954604Y15130905D01*
X-9948576Y15128221D01*
X-9948574Y15128220D01*
X-9907716Y15110029D01*
X-9790510Y15057846D01*
X-9702661Y15039173D01*
X-9621269Y15021872D01*
X-9621264Y15021872D01*
X-9614812Y15020500D01*
X-9435188Y15020500D01*
X-9428736Y15021872D01*
X-9428731Y15021872D01*
X-9347339Y15039173D01*
X-9259490Y15057846D01*
X-9142284Y15110029D01*
X-9101426Y15128220D01*
X-9101424Y15128221D01*
X-9095396Y15130905D01*
X-8950078Y15236485D01*
X-8829887Y15369971D01*
X-8740075Y15525529D01*
X-8723969Y15575097D01*
X-8686609Y15690082D01*
X-8686609Y15690083D01*
X-8684569Y15696361D01*
X-8666575Y15867555D01*
X-8666483Y15868435D01*
X-8665793Y15875000D01*
X-8674816Y15960849D01*
X-8683879Y16047075D01*
X-8683879Y16047076D01*
X-8684569Y16053639D01*
X-8692714Y16078706D01*
X-8738033Y16218187D01*
X-8738034Y16218189D01*
X-8740075Y16224471D01*
X-8829887Y16380029D01*
X-8866783Y16421007D01*
X-8945656Y16508604D01*
X-8945657Y16508605D01*
X-8950078Y16513515D01*
X-9010638Y16557515D01*
X-9090054Y16615214D01*
X-9090055Y16615215D01*
X-9095396Y16619095D01*
X-9101424Y16621779D01*
X-9101426Y16621780D01*
X-9253459Y16689469D01*
X-9253460Y16689469D01*
X-9259490Y16692154D01*
X-9347339Y16710827D01*
X-9428731Y16728128D01*
X-9428736Y16728128D01*
X-9435188Y16729500D01*
X-9614812Y16729500D01*
X-9621264Y16728128D01*
X-9621269Y16728128D01*
X-9702661Y16710827D01*
X-9790510Y16692154D01*
X-9796540Y16689469D01*
X-9796541Y16689469D01*
X-9948573Y16621780D01*
X-9948575Y16621779D01*
X-9954603Y16619095D01*
X-9959944Y16615215D01*
X-9959945Y16615214D01*
X-10094578Y16517398D01*
X-10094580Y16517396D01*
X-10099922Y16513515D01*
X-10104343Y16508605D01*
X-10104344Y16508604D01*
X-10183216Y16421007D01*
X-10220113Y16380029D01*
X-10309925Y16224471D01*
X-10311966Y16218189D01*
X-10311967Y16218187D01*
X-10357286Y16078706D01*
X-10365431Y16053639D01*
X-10366121Y16047076D01*
X-10366121Y16047075D01*
X-10375184Y15960849D01*
X-10384207Y15875000D01*
X-13081000Y15875000D01*
X-13081000Y16880000D01*
X-12241845Y16880000D01*
X-12216507Y16802019D01*
X-12211161Y16790011D01*
X-12128009Y16645987D01*
X-12120287Y16635358D01*
X-12009000Y16511762D01*
X-11999246Y16502980D01*
X-11864694Y16405222D01*
X-11853322Y16398656D01*
X-11701388Y16331010D01*
X-11698127Y16329951D01*
X-11687659Y16330750D01*
X-11684000Y16340705D01*
X-11684000Y16344026D01*
X-11176000Y16344026D01*
X-11172027Y16330495D01*
X-11163827Y16329316D01*
X-11158612Y16331010D01*
X-11006678Y16398656D01*
X-10995306Y16405222D01*
X-10860754Y16502980D01*
X-10851000Y16511762D01*
X-10739713Y16635358D01*
X-10731991Y16645987D01*
X-10648839Y16790011D01*
X-10643493Y16802019D01*
X-10620180Y16873769D01*
X-10619777Y16887867D01*
X-10626149Y16891000D01*
X-11157885Y16891000D01*
X-11173124Y16886525D01*
X-11174329Y16885135D01*
X-11176000Y16877452D01*
X-11176000Y16344026D01*
X-11684000Y16344026D01*
X-11684000Y16872885D01*
X-11688475Y16888124D01*
X-11689865Y16889329D01*
X-11697548Y16891000D01*
X-12227304Y16891000D01*
X-12240835Y16887027D01*
X-12241845Y16880000D01*
X-13081000Y16880000D01*
X-13081000Y17402133D01*
X-12240223Y17402133D01*
X-12233851Y17399000D01*
X-11702115Y17399000D01*
X-11686876Y17403475D01*
X-11685671Y17404865D01*
X-11684000Y17412548D01*
X-11684000Y17417115D01*
X-11176000Y17417115D01*
X-11171525Y17401876D01*
X-11170135Y17400671D01*
X-11162452Y17399000D01*
X-10632696Y17399000D01*
X-10619165Y17402973D01*
X-10618155Y17410000D01*
X-10643493Y17487981D01*
X-10648839Y17499989D01*
X-10731991Y17644013D01*
X-10739713Y17654642D01*
X-10851000Y17778238D01*
X-10860754Y17787020D01*
X-10995306Y17884778D01*
X-11006678Y17891344D01*
X-11158612Y17958990D01*
X-11161873Y17960049D01*
X-11172341Y17959250D01*
X-11176000Y17949295D01*
X-11176000Y17417115D01*
X-11684000Y17417115D01*
X-11684000Y17945974D01*
X-11687973Y17959505D01*
X-11696173Y17960684D01*
X-11701388Y17958990D01*
X-11853322Y17891344D01*
X-11864694Y17884778D01*
X-11999246Y17787020D01*
X-12009000Y17778238D01*
X-12120287Y17654642D01*
X-12128009Y17644013D01*
X-12211161Y17499989D01*
X-12216507Y17487981D01*
X-12239820Y17416231D01*
X-12240223Y17402133D01*
X-13081000Y17402133D01*
X-13081000Y18415000D01*
X-10384207Y18415000D01*
X-10365431Y18236361D01*
X-10309925Y18065529D01*
X-10220113Y17909971D01*
X-10215695Y17905064D01*
X-10215694Y17905063D01*
X-10115489Y17793774D01*
X-10099922Y17776485D01*
X-10094580Y17772604D01*
X-10094578Y17772602D01*
X-10021046Y17719178D01*
X-9954604Y17670905D01*
X-9948576Y17668221D01*
X-9948574Y17668220D01*
X-9816369Y17609359D01*
X-9790510Y17597846D01*
X-9702661Y17579173D01*
X-9621269Y17561872D01*
X-9621264Y17561872D01*
X-9614812Y17560500D01*
X-9435188Y17560500D01*
X-9428736Y17561872D01*
X-9428731Y17561872D01*
X-9347339Y17579173D01*
X-9259490Y17597846D01*
X-9233631Y17609359D01*
X-9101426Y17668220D01*
X-9101424Y17668221D01*
X-9095396Y17670905D01*
X-9028954Y17719178D01*
X-8955422Y17772602D01*
X-8955420Y17772604D01*
X-8950078Y17776485D01*
X-8934511Y17793774D01*
X-8834306Y17905063D01*
X-8834305Y17905064D01*
X-8829887Y17909971D01*
X-8740075Y18065529D01*
X-8684569Y18236361D01*
X-8665793Y18415000D01*
X-8684569Y18593639D01*
X-8733978Y18745707D01*
X-8738033Y18758187D01*
X-8738034Y18758189D01*
X-8740075Y18764471D01*
X-8757589Y18794807D01*
X-8783763Y18840140D01*
X-8829887Y18920029D01*
X-8862625Y18956389D01*
X-8945656Y19048604D01*
X-8945657Y19048605D01*
X-8950078Y19053515D01*
X-8963099Y19062976D01*
X-9090054Y19155214D01*
X-9090055Y19155215D01*
X-9095396Y19159095D01*
X-9101424Y19161779D01*
X-9101426Y19161780D01*
X-9253459Y19229469D01*
X-9253460Y19229469D01*
X-9259490Y19232154D01*
X-9363184Y19254195D01*
X-9428731Y19268128D01*
X-9428736Y19268128D01*
X-9435188Y19269500D01*
X-9614812Y19269500D01*
X-9621264Y19268128D01*
X-9621269Y19268128D01*
X-9686816Y19254195D01*
X-9790510Y19232154D01*
X-9796540Y19229469D01*
X-9796541Y19229469D01*
X-9948573Y19161780D01*
X-9948575Y19161779D01*
X-9954603Y19159095D01*
X-9959944Y19155215D01*
X-9959945Y19155214D01*
X-10094578Y19057398D01*
X-10094580Y19057396D01*
X-10099922Y19053515D01*
X-10104343Y19048605D01*
X-10104344Y19048604D01*
X-10187374Y18956389D01*
X-10220113Y18920029D01*
X-10266237Y18840140D01*
X-10292410Y18794807D01*
X-10309925Y18764471D01*
X-10311966Y18758189D01*
X-10311967Y18758187D01*
X-10316022Y18745707D01*
X-10365431Y18593639D01*
X-10384207Y18415000D01*
X-13081000Y18415000D01*
X-13081000Y19685000D01*
X-12289207Y19685000D01*
X-12270431Y19506361D01*
X-12268391Y19500083D01*
X-12268391Y19500082D01*
X-12218423Y19346296D01*
X-12214925Y19335529D01*
X-12211622Y19329807D01*
X-12211621Y19329806D01*
X-12197014Y19304506D01*
X-12125113Y19179971D01*
X-12120695Y19175064D01*
X-12120694Y19175063D01*
X-12026039Y19069938D01*
X-12004922Y19046485D01*
X-11999580Y19042604D01*
X-11999578Y19042602D01*
X-11880916Y18956389D01*
X-11859604Y18940905D01*
X-11853576Y18938221D01*
X-11853574Y18938220D01*
X-11812716Y18920029D01*
X-11695510Y18867846D01*
X-11616294Y18851008D01*
X-11526269Y18831872D01*
X-11526264Y18831872D01*
X-11519812Y18830500D01*
X-11340188Y18830500D01*
X-11333736Y18831872D01*
X-11333731Y18831872D01*
X-11243706Y18851008D01*
X-11164490Y18867846D01*
X-11047284Y18920029D01*
X-11006426Y18938220D01*
X-11006424Y18938221D01*
X-11000396Y18940905D01*
X-10979084Y18956389D01*
X-10860422Y19042602D01*
X-10860420Y19042604D01*
X-10855078Y19046485D01*
X-10833961Y19069938D01*
X-10739306Y19175063D01*
X-10739305Y19175064D01*
X-10734887Y19179971D01*
X-10662986Y19304506D01*
X-10648379Y19329806D01*
X-10648378Y19329807D01*
X-10645075Y19335529D01*
X-10641576Y19346296D01*
X-10591609Y19500082D01*
X-10591609Y19500083D01*
X-10589569Y19506361D01*
X-10570793Y19685000D01*
X-10589569Y19863639D01*
X-10630773Y19990454D01*
X-10643033Y20028187D01*
X-10643034Y20028189D01*
X-10645075Y20034471D01*
X-10667791Y20073817D01*
X-10694423Y20119943D01*
X-10734887Y20190029D01*
X-10767625Y20226389D01*
X-10850656Y20318604D01*
X-10850657Y20318605D01*
X-10855078Y20323515D01*
X-10868098Y20332975D01*
X-10995054Y20425214D01*
X-10995055Y20425215D01*
X-11000396Y20429095D01*
X-11006424Y20431779D01*
X-11006426Y20431780D01*
X-11158459Y20499469D01*
X-11158460Y20499469D01*
X-11164490Y20502154D01*
X-11268184Y20524195D01*
X-11333731Y20538128D01*
X-11333736Y20538128D01*
X-11340188Y20539500D01*
X-11519812Y20539500D01*
X-11526264Y20538128D01*
X-11526269Y20538128D01*
X-11591816Y20524195D01*
X-11695510Y20502154D01*
X-11701540Y20499469D01*
X-11701541Y20499469D01*
X-11853573Y20431780D01*
X-11853575Y20431779D01*
X-11859603Y20429095D01*
X-11864944Y20425215D01*
X-11864945Y20425214D01*
X-11999578Y20327398D01*
X-11999580Y20327396D01*
X-12004922Y20323515D01*
X-12009343Y20318605D01*
X-12009344Y20318604D01*
X-12092374Y20226389D01*
X-12125113Y20190029D01*
X-12165577Y20119943D01*
X-12192208Y20073817D01*
X-12214925Y20034471D01*
X-12216966Y20028189D01*
X-12216967Y20028187D01*
X-12229227Y19990454D01*
X-12270431Y19863639D01*
X-12289207Y19685000D01*
X-13081000Y19685000D01*
X-13081000Y20955000D01*
X-10384207Y20955000D01*
X-10365431Y20776361D01*
X-10363391Y20770083D01*
X-10363391Y20770082D01*
X-10313420Y20616287D01*
X-10309925Y20605529D01*
X-10306622Y20599807D01*
X-10306621Y20599806D01*
X-10292014Y20574506D01*
X-10220113Y20449971D01*
X-10215695Y20445064D01*
X-10215694Y20445063D01*
X-10121039Y20339938D01*
X-10099922Y20316485D01*
X-10094580Y20312604D01*
X-10094578Y20312602D01*
X-9975916Y20226389D01*
X-9954604Y20210905D01*
X-9948576Y20208221D01*
X-9948574Y20208220D01*
X-9907716Y20190029D01*
X-9790510Y20137846D01*
X-9702661Y20119173D01*
X-9621269Y20101872D01*
X-9621264Y20101872D01*
X-9614812Y20100500D01*
X-9435188Y20100500D01*
X-9428736Y20101872D01*
X-9428731Y20101872D01*
X-9347339Y20119173D01*
X-9259490Y20137846D01*
X-9142284Y20190029D01*
X-9101426Y20208220D01*
X-9101424Y20208221D01*
X-9095396Y20210905D01*
X-9074084Y20226389D01*
X-8955422Y20312602D01*
X-8955420Y20312604D01*
X-8950078Y20316485D01*
X-8928961Y20339938D01*
X-8834306Y20445063D01*
X-8834305Y20445064D01*
X-8829887Y20449971D01*
X-8757986Y20574506D01*
X-8743379Y20599806D01*
X-8743378Y20599807D01*
X-8740075Y20605529D01*
X-8736579Y20616287D01*
X-8686609Y20770082D01*
X-8686609Y20770083D01*
X-8684569Y20776361D01*
X-8665793Y20955000D01*
X-8684569Y21133639D01*
X-8727756Y21266556D01*
X-8738033Y21298187D01*
X-8738034Y21298189D01*
X-8740075Y21304471D01*
X-8762791Y21343817D01*
X-8789423Y21389943D01*
X-8829887Y21460029D01*
X-8862625Y21496389D01*
X-8945656Y21588604D01*
X-8945657Y21588605D01*
X-8950078Y21593515D01*
X-8971539Y21609108D01*
X-9090054Y21695214D01*
X-9090055Y21695215D01*
X-9095396Y21699095D01*
X-9101424Y21701779D01*
X-9101426Y21701780D01*
X-9253459Y21769469D01*
X-9253460Y21769469D01*
X-9259490Y21772154D01*
X-9347339Y21790827D01*
X-9428731Y21808128D01*
X-9428736Y21808128D01*
X-9435188Y21809500D01*
X-9614812Y21809500D01*
X-9621264Y21808128D01*
X-9621269Y21808128D01*
X-9702661Y21790827D01*
X-9790510Y21772154D01*
X-9796540Y21769469D01*
X-9796541Y21769469D01*
X-9948573Y21701780D01*
X-9948575Y21701779D01*
X-9954603Y21699095D01*
X-9959944Y21695215D01*
X-9959945Y21695214D01*
X-10094578Y21597398D01*
X-10094580Y21597396D01*
X-10099922Y21593515D01*
X-10104343Y21588605D01*
X-10104344Y21588604D01*
X-10187374Y21496389D01*
X-10220113Y21460029D01*
X-10260577Y21389943D01*
X-10287208Y21343817D01*
X-10309925Y21304471D01*
X-10311966Y21298189D01*
X-10311967Y21298187D01*
X-10322244Y21266556D01*
X-10365431Y21133639D01*
X-10384207Y20955000D01*
X-13081000Y20955000D01*
X-13081000Y21960000D01*
X-12241845Y21960000D01*
X-12216507Y21882019D01*
X-12211161Y21870011D01*
X-12128009Y21725987D01*
X-12120287Y21715358D01*
X-12009000Y21591762D01*
X-11999246Y21582980D01*
X-11864694Y21485222D01*
X-11853322Y21478656D01*
X-11701388Y21411010D01*
X-11698127Y21409951D01*
X-11687659Y21410750D01*
X-11684000Y21420705D01*
X-11684000Y21424026D01*
X-11176000Y21424026D01*
X-11172027Y21410495D01*
X-11163827Y21409316D01*
X-11158612Y21411010D01*
X-11006678Y21478656D01*
X-10995306Y21485222D01*
X-10860754Y21582980D01*
X-10851000Y21591762D01*
X-10739713Y21715358D01*
X-10731991Y21725987D01*
X-10648839Y21870011D01*
X-10643493Y21882019D01*
X-10620180Y21953769D01*
X-10619777Y21967867D01*
X-10626149Y21971000D01*
X-11157885Y21971000D01*
X-11173124Y21966525D01*
X-11174329Y21965135D01*
X-11176000Y21957452D01*
X-11176000Y21424026D01*
X-11684000Y21424026D01*
X-11684000Y21952885D01*
X-11688475Y21968124D01*
X-11689865Y21969329D01*
X-11697548Y21971000D01*
X-12227304Y21971000D01*
X-12240835Y21967027D01*
X-12241845Y21960000D01*
X-13081000Y21960000D01*
X-13081000Y22482133D01*
X-12240223Y22482133D01*
X-12233851Y22479000D01*
X-11702115Y22479000D01*
X-11686876Y22483475D01*
X-11685671Y22484865D01*
X-11684000Y22492548D01*
X-11684000Y22497115D01*
X-11176000Y22497115D01*
X-11171525Y22481876D01*
X-11170135Y22480671D01*
X-11162452Y22479000D01*
X-10632696Y22479000D01*
X-10619165Y22482973D01*
X-10618155Y22490000D01*
X-10643493Y22567981D01*
X-10648839Y22579989D01*
X-10731991Y22724013D01*
X-10739713Y22734642D01*
X-10851000Y22858238D01*
X-10860754Y22867020D01*
X-10995306Y22964778D01*
X-11006678Y22971344D01*
X-11158612Y23038990D01*
X-11161873Y23040049D01*
X-11172341Y23039250D01*
X-11176000Y23029295D01*
X-11176000Y22497115D01*
X-11684000Y22497115D01*
X-11684000Y23025974D01*
X-11687973Y23039505D01*
X-11696173Y23040684D01*
X-11701388Y23038990D01*
X-11853322Y22971344D01*
X-11864694Y22964778D01*
X-11999246Y22867020D01*
X-12009000Y22858238D01*
X-12120287Y22734642D01*
X-12128009Y22724013D01*
X-12211161Y22579989D01*
X-12216507Y22567981D01*
X-12239820Y22496231D01*
X-12240223Y22482133D01*
X-13081000Y22482133D01*
X-13081000Y23495000D01*
X-10384207Y23495000D01*
X-10365431Y23316361D01*
X-10363391Y23310083D01*
X-10363391Y23310082D01*
X-10318672Y23172451D01*
X-10309925Y23145529D01*
X-10220113Y22989971D01*
X-10215695Y22985064D01*
X-10215694Y22985063D01*
X-10150458Y22912611D01*
X-10099922Y22856485D01*
X-10094580Y22852604D01*
X-10094578Y22852602D01*
X-9979321Y22768863D01*
X-9954604Y22750905D01*
X-9948576Y22748221D01*
X-9948574Y22748220D01*
X-9833273Y22696885D01*
X-9790510Y22677846D01*
X-9702661Y22659173D01*
X-9621269Y22641872D01*
X-9621264Y22641872D01*
X-9614812Y22640500D01*
X-9435188Y22640500D01*
X-9428736Y22641872D01*
X-9428731Y22641872D01*
X-9347339Y22659173D01*
X-9259490Y22677846D01*
X-9216727Y22696885D01*
X-9101426Y22748220D01*
X-9101424Y22748221D01*
X-9095396Y22750905D01*
X-9070679Y22768863D01*
X-8955422Y22852602D01*
X-8955420Y22852604D01*
X-8950078Y22856485D01*
X-8940697Y22866904D01*
X-8279271Y22866904D01*
X-8276533Y22842108D01*
X-8263495Y22724013D01*
X-8261887Y22709447D01*
X-8259277Y22702316D01*
X-8259277Y22702314D01*
X-8210118Y22567981D01*
X-8207447Y22560681D01*
X-8203211Y22554378D01*
X-8203211Y22554377D01*
X-8130540Y22446232D01*
X-8119092Y22429195D01*
X-8113473Y22424082D01*
X-8113472Y22424081D01*
X-8041725Y22358797D01*
X-8001924Y22322581D01*
X-7862707Y22246992D01*
X-7709478Y22206793D01*
X-7612862Y22205275D01*
X-7551228Y22204307D01*
X-7483430Y22183238D01*
X-7464112Y22167418D01*
X-7401405Y22104711D01*
X-7367379Y22042399D01*
X-7364500Y22015616D01*
X-7364500Y17198920D01*
X-7367049Y17174972D01*
X-7367128Y17173307D01*
X-7369320Y17163124D01*
X-7365373Y17129777D01*
X-7365023Y17123846D01*
X-7364928Y17123854D01*
X-7364500Y17118676D01*
X-7364500Y17113476D01*
X-7363646Y17108347D01*
X-7363646Y17108344D01*
X-7361331Y17094435D01*
X-7360494Y17088557D01*
X-7354470Y17037659D01*
X-7350507Y17029407D01*
X-7349004Y17020374D01*
X-7344057Y17011205D01*
X-7344056Y17011203D01*
X-7324666Y16975268D01*
X-7321969Y16969975D01*
X-7303215Y16930918D01*
X-7303212Y16930914D01*
X-7299781Y16923768D01*
X-7296186Y16919492D01*
X-7294263Y16917569D01*
X-7292491Y16915637D01*
X-7292448Y16915558D01*
X-7292572Y16915445D01*
X-7292096Y16914905D01*
X-7289010Y16909186D01*
X-7281365Y16902119D01*
X-7249414Y16872584D01*
X-7245848Y16869154D01*
X-7039751Y16663057D01*
X-7005725Y16600745D01*
X-7003924Y16557518D01*
X-7009271Y16516904D01*
X-7000579Y16438175D01*
X-6994159Y16380029D01*
X-6991887Y16359447D01*
X-6989277Y16352316D01*
X-6989277Y16352314D01*
X-6942493Y16224471D01*
X-6937447Y16210681D01*
X-6933211Y16204378D01*
X-6933211Y16204377D01*
X-6854683Y16087516D01*
X-6849092Y16079195D01*
X-6843473Y16074082D01*
X-6843472Y16074081D01*
X-6737540Y15977691D01*
X-6731924Y15972581D01*
X-6592707Y15896992D01*
X-6439478Y15856793D01*
X-6355523Y15855474D01*
X-6288681Y15854424D01*
X-6288678Y15854424D01*
X-6281084Y15854305D01*
X-6126668Y15889671D01*
X-6056258Y15925083D01*
X-5991928Y15957437D01*
X-5991925Y15957439D01*
X-5985145Y15960849D01*
X-5979374Y15965778D01*
X-5979371Y15965780D01*
X-5870464Y16058796D01*
X-5870464Y16058797D01*
X-5864686Y16063731D01*
X-5772245Y16192376D01*
X-5713158Y16339359D01*
X-5690838Y16496193D01*
X-5690693Y16510000D01*
X-5692439Y16524433D01*
X-5704220Y16621780D01*
X-5709724Y16667267D01*
X-5765720Y16815454D01*
X-5813610Y16885135D01*
X-5851145Y16939749D01*
X-5851146Y16939751D01*
X-5855447Y16946008D01*
X-5973725Y17051389D01*
X-6113726Y17125516D01*
X-6267367Y17164108D01*
X-6274966Y17164148D01*
X-6274967Y17164148D01*
X-6335374Y17164464D01*
X-6416665Y17164890D01*
X-6484679Y17185248D01*
X-6505099Y17201793D01*
X-6568595Y17265289D01*
X-6602621Y17327601D01*
X-6605500Y17354384D01*
X-6605500Y18421904D01*
X-5104271Y18421904D01*
X-5086887Y18264447D01*
X-5084277Y18257316D01*
X-5084277Y18257314D01*
X-5071009Y18221059D01*
X-5032447Y18115681D01*
X-5028211Y18109378D01*
X-5028211Y18109377D01*
X-4953768Y17998595D01*
X-4944092Y17984195D01*
X-4938473Y17979082D01*
X-4938472Y17979081D01*
X-4832540Y17882691D01*
X-4826924Y17877581D01*
X-4687707Y17801992D01*
X-4534478Y17761793D01*
X-4450523Y17760474D01*
X-4383681Y17759424D01*
X-4383678Y17759424D01*
X-4376084Y17759305D01*
X-4221668Y17794671D01*
X-4151258Y17830083D01*
X-4086928Y17862437D01*
X-4086925Y17862439D01*
X-4080145Y17865849D01*
X-4074374Y17870778D01*
X-4074371Y17870780D01*
X-3965458Y17963801D01*
X-3965457Y17963802D01*
X-3959686Y17968731D01*
X-3949414Y17983026D01*
X-3893419Y18026674D01*
X-3847091Y18035500D01*
X-315933Y18035500D01*
X-247812Y18015498D01*
X-201319Y17961842D01*
X-191215Y17891568D01*
X-220709Y17826988D01*
X-280435Y17788604D01*
X-291349Y17785922D01*
X-295725Y17785051D01*
X-525912Y17739264D01*
X-525914Y17739263D01*
X-530285Y17738394D01*
X-534495Y17736916D01*
X-534497Y17736915D01*
X-585004Y17719178D01*
X-798116Y17644338D01*
X-802067Y17642285D01*
X-802073Y17642283D01*
X-890259Y17596474D01*
X-1050024Y17513483D01*
X-1053639Y17510900D01*
X-1053645Y17510896D01*
X-1130181Y17456202D01*
X-1280980Y17348439D01*
X-1486377Y17152499D01*
X-1489133Y17149003D01*
X-1489134Y17149002D01*
X-1649162Y16946008D01*
X-1662118Y16929574D01*
X-1724769Y16821712D01*
X-1802460Y16687958D01*
X-1802463Y16687952D01*
X-1804694Y16684111D01*
X-1806364Y16679988D01*
X-1909589Y16425139D01*
X-1909592Y16425131D01*
X-1911262Y16421007D01*
X-1979695Y16145512D01*
X-2008628Y15863124D01*
X-2006148Y15800000D01*
X-2001065Y15670633D01*
X-1997484Y15579476D01*
X-1946484Y15300228D01*
X-1945075Y15296005D01*
X-1865619Y15057846D01*
X-1856647Y15030952D01*
X-1792938Y14903450D01*
X-1733071Y14783639D01*
X-1729764Y14777020D01*
X-1568369Y14543500D01*
X-1375680Y14335050D01*
X-1372226Y14332238D01*
X-1158999Y14158644D01*
X-1158995Y14158641D01*
X-1155542Y14155830D01*
X-912348Y14009415D01*
X-908253Y14007681D01*
X-908251Y14007680D01*
X-725180Y13930160D01*
X-650951Y13898728D01*
X-646658Y13897590D01*
X-646653Y13897588D01*
X-582404Y13880553D01*
X-376565Y13825976D01*
X-94666Y13792611D01*
X189122Y13799299D01*
X193517Y13800031D01*
X193522Y13800031D01*
X464734Y13845173D01*
X464738Y13845174D01*
X469136Y13845906D01*
X646887Y13902122D01*
X735544Y13930160D01*
X735546Y13930161D01*
X739790Y13931503D01*
X743801Y13933429D01*
X743806Y13933431D01*
X991665Y14052451D01*
X991666Y14052452D01*
X995684Y14054381D01*
X1195850Y14188128D01*
X1228002Y14209611D01*
X1228006Y14209614D01*
X1231710Y14212089D01*
X1235027Y14215060D01*
X1235031Y14215063D01*
X1439845Y14398510D01*
X1443161Y14401480D01*
X1625817Y14618775D01*
X1628174Y14622554D01*
X1773669Y14855848D01*
X1773671Y14855851D01*
X1776033Y14859639D01*
X1890813Y15119266D01*
X1893339Y15128220D01*
X1926950Y15247398D01*
X1967866Y15392475D01*
X1976868Y15459500D01*
X2005227Y15670633D01*
X2005228Y15670641D01*
X2005654Y15673815D01*
X2009620Y15800000D01*
X1989571Y16083158D01*
X1964539Y16199429D01*
X1930761Y16356319D01*
X1930761Y16356321D01*
X1929825Y16360666D01*
X1831574Y16626987D01*
X1821322Y16645987D01*
X1698891Y16872892D01*
X1696778Y16876808D01*
X1528127Y17105144D01*
X1509717Y17123846D01*
X1332117Y17304257D01*
X1328986Y17307438D01*
X1205242Y17401876D01*
X1106872Y17476950D01*
X1106868Y17476953D01*
X1103327Y17479655D01*
X855655Y17618359D01*
X851506Y17619964D01*
X851502Y17619966D01*
X691830Y17681738D01*
X590909Y17720781D01*
X586588Y17721783D01*
X586580Y17721785D01*
X318711Y17783873D01*
X318708Y17783874D01*
X314374Y17784878D01*
X311024Y17785168D01*
X247117Y17815462D01*
X209589Y17875729D01*
X210601Y17946719D01*
X249833Y18005891D01*
X314828Y18034461D01*
X330979Y18035500D01*
X8680616Y18035500D01*
X8748737Y18015498D01*
X8769711Y17998595D01*
X8835249Y17933057D01*
X8869275Y17870745D01*
X8871076Y17827518D01*
X8869489Y17815462D01*
X8866752Y17794671D01*
X8865729Y17786904D01*
X8873029Y17720781D01*
X8881696Y17642283D01*
X8883113Y17629447D01*
X8885723Y17622316D01*
X8885723Y17622314D01*
X8934882Y17487981D01*
X8937553Y17480681D01*
X8941789Y17474378D01*
X8941789Y17474377D01*
X8991318Y17400671D01*
X9025908Y17349195D01*
X9031527Y17344082D01*
X9031528Y17344081D01*
X9077562Y17302194D01*
X9143076Y17242581D01*
X9282293Y17166992D01*
X9435522Y17126793D01*
X9519477Y17125474D01*
X9586319Y17124424D01*
X9586322Y17124424D01*
X9593916Y17124305D01*
X9748332Y17159671D01*
X9832083Y17201793D01*
X9883072Y17227437D01*
X9883075Y17227439D01*
X9889855Y17230849D01*
X9895626Y17235778D01*
X9895629Y17235780D01*
X10004536Y17328796D01*
X10004536Y17328797D01*
X10010314Y17333731D01*
X10102755Y17462376D01*
X10161842Y17609359D01*
X10167965Y17652385D01*
X10183581Y17762109D01*
X10183581Y17762112D01*
X10184162Y17766193D01*
X10184307Y17780000D01*
X10183591Y17785921D01*
X10173326Y17870745D01*
X10165276Y17937267D01*
X10109280Y18085454D01*
X10019553Y18216008D01*
X9901275Y18321389D01*
X9761274Y18395516D01*
X9607633Y18434108D01*
X9600034Y18434148D01*
X9600033Y18434148D01*
X9539626Y18434464D01*
X9458335Y18434890D01*
X9390321Y18455248D01*
X9369901Y18471793D01*
X9196478Y18645216D01*
X9181336Y18663964D01*
X9180221Y18665189D01*
X9174571Y18673940D01*
X9166393Y18680387D01*
X9166391Y18680389D01*
X9148200Y18694729D01*
X9143759Y18698675D01*
X9143697Y18698602D01*
X9139733Y18701961D01*
X9136056Y18705638D01*
X9120308Y18716892D01*
X9115638Y18720398D01*
X9075353Y18752156D01*
X9066719Y18755188D01*
X9059266Y18760514D01*
X9010150Y18775203D01*
X9004508Y18777036D01*
X8963633Y18791390D01*
X8963632Y18791390D01*
X8956149Y18794018D01*
X8950584Y18794500D01*
X8947876Y18794500D01*
X8945242Y18794614D01*
X8945144Y18794643D01*
X8945151Y18794807D01*
X8944447Y18794851D01*
X8938222Y18796713D01*
X8884365Y18794597D01*
X8879418Y18794500D01*
X-3845318Y18794500D01*
X-3913439Y18814502D01*
X-3939886Y18840140D01*
X-3941122Y18839051D01*
X-3946145Y18844749D01*
X-3950447Y18851008D01*
X-4068725Y18956389D01*
X-4076111Y18960300D01*
X-4202012Y19026961D01*
X-4202011Y19026961D01*
X-4208726Y19030516D01*
X-4362367Y19069108D01*
X-4369966Y19069148D01*
X-4369967Y19069148D01*
X-4435819Y19069493D01*
X-4520779Y19069938D01*
X-4528159Y19068166D01*
X-4528161Y19068166D01*
X-4667437Y19034729D01*
X-4667440Y19034728D01*
X-4674816Y19032957D01*
X-4815586Y18960300D01*
X-4934961Y18856162D01*
X-5026050Y18726556D01*
X-5054065Y18654700D01*
X-5080431Y18587075D01*
X-5083594Y18578963D01*
X-5084586Y18571430D01*
X-5084586Y18571429D01*
X-5102664Y18434108D01*
X-5104271Y18421904D01*
X-6605500Y18421904D01*
X-6605500Y20961904D01*
X-5739271Y20961904D01*
X-5736533Y20937108D01*
X-5726482Y20846070D01*
X-5721887Y20804447D01*
X-5719277Y20797316D01*
X-5719277Y20797314D01*
X-5679863Y20689611D01*
X-5667447Y20655681D01*
X-5663211Y20649378D01*
X-5663211Y20649377D01*
X-5612080Y20573287D01*
X-5579092Y20524195D01*
X-5573475Y20519084D01*
X-5573472Y20519081D01*
X-5492127Y20445063D01*
X-5461924Y20417581D01*
X-5322707Y20341992D01*
X-5169478Y20301793D01*
X-5072862Y20300275D01*
X-5011228Y20299307D01*
X-4943430Y20278238D01*
X-4924112Y20262418D01*
X-4116478Y19454784D01*
X-4101336Y19436036D01*
X-4100221Y19434811D01*
X-4094571Y19426060D01*
X-4086393Y19419613D01*
X-4086391Y19419611D01*
X-4068200Y19405271D01*
X-4063756Y19401322D01*
X-4063694Y19401396D01*
X-4059737Y19398043D01*
X-4056056Y19394362D01*
X-4040346Y19383135D01*
X-4035620Y19379587D01*
X-3995353Y19347844D01*
X-3986716Y19344811D01*
X-3979266Y19339487D01*
X-3969290Y19336503D01*
X-3969289Y19336503D01*
X-3966032Y19335529D01*
X-3930151Y19324798D01*
X-3924514Y19322966D01*
X-3883633Y19308610D01*
X-3876149Y19305982D01*
X-3870584Y19305500D01*
X-3867876Y19305500D01*
X-3865242Y19305386D01*
X-3865144Y19305357D01*
X-3865151Y19305193D01*
X-3864447Y19305149D01*
X-3858222Y19303287D01*
X-3804365Y19305403D01*
X-3799418Y19305500D01*
X8925141Y19305500D01*
X8993262Y19285498D01*
X9020522Y19261831D01*
X9021672Y19260499D01*
X9025908Y19254195D01*
X9143076Y19147581D01*
X9282293Y19071992D01*
X9435522Y19031793D01*
X9519477Y19030474D01*
X9586319Y19029424D01*
X9586322Y19029424D01*
X9593916Y19029305D01*
X9748332Y19064671D01*
X9818742Y19100083D01*
X9883072Y19132437D01*
X9883075Y19132439D01*
X9889855Y19135849D01*
X9895626Y19140778D01*
X9895629Y19140780D01*
X10004536Y19233796D01*
X10004536Y19233797D01*
X10010314Y19238731D01*
X10102755Y19367376D01*
X10161842Y19514359D01*
X10184162Y19671193D01*
X10184307Y19685000D01*
X10165276Y19842267D01*
X10109280Y19990454D01*
X10058390Y20064500D01*
X10023855Y20114749D01*
X10023854Y20114751D01*
X10019553Y20121008D01*
X9901275Y20226389D01*
X9893889Y20230300D01*
X9767988Y20296961D01*
X9767989Y20296961D01*
X9761274Y20300516D01*
X9607633Y20339108D01*
X9600034Y20339148D01*
X9600033Y20339148D01*
X9534181Y20339493D01*
X9449221Y20339938D01*
X9441841Y20338166D01*
X9441839Y20338166D01*
X9302563Y20304729D01*
X9302560Y20304728D01*
X9295184Y20302957D01*
X9154414Y20230300D01*
X9035039Y20126162D01*
X9030672Y20119949D01*
X9030667Y20119943D01*
X9029336Y20118049D01*
X9028013Y20116995D01*
X9025589Y20114303D01*
X9025140Y20114707D01*
X8973802Y20073817D01*
X8926250Y20064500D01*
X5238239Y20064500D01*
X5170118Y20084502D01*
X5123625Y20138158D01*
X5113521Y20208432D01*
X5143015Y20273012D01*
X5202741Y20311396D01*
X5210109Y20313320D01*
X5295929Y20332975D01*
X5295933Y20332976D01*
X5303332Y20334671D01*
X5373742Y20370083D01*
X5438072Y20402437D01*
X5438075Y20402439D01*
X5444855Y20405849D01*
X5450626Y20410778D01*
X5450629Y20410780D01*
X5559536Y20503796D01*
X5559536Y20503797D01*
X5565314Y20508731D01*
X5657755Y20637376D01*
X5716842Y20784359D01*
X5722965Y20827385D01*
X5738581Y20937109D01*
X5738581Y20937112D01*
X5739162Y20941193D01*
X5739307Y20955000D01*
X5720276Y21112267D01*
X5664280Y21260454D01*
X5613390Y21334500D01*
X5578855Y21384749D01*
X5578854Y21384751D01*
X5574553Y21391008D01*
X5456275Y21496389D01*
X5448889Y21500300D01*
X5322988Y21566961D01*
X5322989Y21566961D01*
X5316274Y21570516D01*
X5162633Y21609108D01*
X5155034Y21609148D01*
X5155033Y21609148D01*
X5089181Y21609493D01*
X5004221Y21609938D01*
X4996841Y21608166D01*
X4996839Y21608166D01*
X4857563Y21574729D01*
X4857560Y21574728D01*
X4850184Y21572957D01*
X4709414Y21500300D01*
X4590039Y21396162D01*
X4585672Y21389949D01*
X4585667Y21389943D01*
X4584336Y21388049D01*
X4583013Y21386995D01*
X4580589Y21384303D01*
X4580140Y21384707D01*
X4528802Y21343817D01*
X4481250Y21334500D01*
X-2965616Y21334500D01*
X-3033737Y21354502D01*
X-3054711Y21371405D01*
X-4389857Y22706551D01*
X-4423883Y22768863D01*
X-4425505Y22813399D01*
X-4421419Y22842108D01*
X-4421419Y22842114D01*
X-4420838Y22846193D01*
X-4420693Y22860000D01*
X-4439724Y23017267D01*
X-4495720Y23165454D01*
X-4504186Y23177772D01*
X-4581145Y23289749D01*
X-4581146Y23289751D01*
X-4585447Y23296008D01*
X-4703725Y23401389D01*
X-4711111Y23405300D01*
X-4837012Y23471961D01*
X-4837011Y23471961D01*
X-4843726Y23475516D01*
X-4997367Y23514108D01*
X-5004966Y23514148D01*
X-5004967Y23514148D01*
X-5070819Y23514493D01*
X-5155779Y23514938D01*
X-5163159Y23513166D01*
X-5163161Y23513166D01*
X-5302437Y23479729D01*
X-5302440Y23479728D01*
X-5309816Y23477957D01*
X-5450586Y23405300D01*
X-5569961Y23301162D01*
X-5661050Y23171556D01*
X-5689822Y23097760D01*
X-5712735Y23038990D01*
X-5718594Y23023963D01*
X-5719586Y23016430D01*
X-5719586Y23016429D01*
X-5726237Y22965906D01*
X-5739271Y22866904D01*
X-5736533Y22842108D01*
X-5723495Y22724013D01*
X-5721887Y22709447D01*
X-5719277Y22702316D01*
X-5719277Y22702314D01*
X-5670118Y22567981D01*
X-5667447Y22560681D01*
X-5663211Y22554378D01*
X-5663211Y22554377D01*
X-5590540Y22446232D01*
X-5579092Y22429195D01*
X-5573473Y22424082D01*
X-5573472Y22424081D01*
X-5501725Y22358797D01*
X-5461924Y22322581D01*
X-5322707Y22246992D01*
X-5169478Y22206793D01*
X-5072862Y22205275D01*
X-5011228Y22204307D01*
X-4943430Y22183238D01*
X-4924112Y22167418D01*
X-3481478Y20724784D01*
X-3466336Y20706036D01*
X-3465221Y20704811D01*
X-3459571Y20696060D01*
X-3451393Y20689613D01*
X-3451391Y20689611D01*
X-3433200Y20675271D01*
X-3428759Y20671325D01*
X-3428697Y20671398D01*
X-3424733Y20668039D01*
X-3421056Y20664362D01*
X-3405308Y20653108D01*
X-3400638Y20649602D01*
X-3360353Y20617844D01*
X-3351719Y20614812D01*
X-3344266Y20609486D01*
X-3295150Y20594797D01*
X-3289508Y20592964D01*
X-3248633Y20578610D01*
X-3241149Y20575982D01*
X-3235584Y20575500D01*
X-3232876Y20575500D01*
X-3230242Y20575386D01*
X-3230144Y20575357D01*
X-3230151Y20575193D01*
X-3229447Y20575149D01*
X-3223222Y20573287D01*
X-3169365Y20575403D01*
X-3164418Y20575500D01*
X4480141Y20575500D01*
X4548262Y20555498D01*
X4575522Y20531831D01*
X4576671Y20530500D01*
X4580908Y20524195D01*
X4698076Y20417581D01*
X4837293Y20341992D01*
X4930155Y20317630D01*
X4950182Y20312376D01*
X5010997Y20275742D01*
X5042352Y20212045D01*
X5034293Y20141507D01*
X4989377Y20086524D01*
X4918208Y20064500D01*
X-3600616Y20064500D01*
X-3668737Y20084502D01*
X-3689711Y20101405D01*
X-4389857Y20801551D01*
X-4423883Y20863863D01*
X-4425505Y20908399D01*
X-4421419Y20937108D01*
X-4421419Y20937114D01*
X-4420838Y20941193D01*
X-4420693Y20955000D01*
X-4439724Y21112267D01*
X-4495720Y21260454D01*
X-4546610Y21334500D01*
X-4581145Y21384749D01*
X-4581146Y21384751D01*
X-4585447Y21391008D01*
X-4703725Y21496389D01*
X-4711111Y21500300D01*
X-4837012Y21566961D01*
X-4837011Y21566961D01*
X-4843726Y21570516D01*
X-4997367Y21609108D01*
X-5004966Y21609148D01*
X-5004967Y21609148D01*
X-5070819Y21609493D01*
X-5155779Y21609938D01*
X-5163159Y21608166D01*
X-5163161Y21608166D01*
X-5302437Y21574729D01*
X-5302440Y21574728D01*
X-5309816Y21572957D01*
X-5450586Y21500300D01*
X-5569961Y21396162D01*
X-5661050Y21266556D01*
X-5663810Y21259476D01*
X-5715431Y21127075D01*
X-5718594Y21118963D01*
X-5739271Y20961904D01*
X-6605500Y20961904D01*
X-6605500Y22171075D01*
X-6602950Y22195033D01*
X-6602872Y22196692D01*
X-6600679Y22206876D01*
X-6601903Y22217218D01*
X-6601903Y22217221D01*
X-6604626Y22240221D01*
X-6604976Y22246152D01*
X-6605072Y22246144D01*
X-6605500Y22251320D01*
X-6605500Y22256524D01*
X-6608673Y22275588D01*
X-6609504Y22281434D01*
X-6614306Y22321999D01*
X-6615530Y22332341D01*
X-6619493Y22340593D01*
X-6620996Y22349626D01*
X-6645335Y22394734D01*
X-6648031Y22400025D01*
X-6666785Y22439081D01*
X-6666786Y22439082D01*
X-6670219Y22446232D01*
X-6673813Y22450507D01*
X-6675738Y22452432D01*
X-6677509Y22454362D01*
X-6677555Y22454447D01*
X-6677432Y22454559D01*
X-6677904Y22455094D01*
X-6680990Y22460814D01*
X-6720587Y22497417D01*
X-6724152Y22500846D01*
X-6929857Y22706551D01*
X-6963883Y22768863D01*
X-6965505Y22813399D01*
X-6961419Y22842108D01*
X-6961419Y22842114D01*
X-6960838Y22846193D01*
X-6960693Y22860000D01*
X-6979724Y23017267D01*
X-7035720Y23165454D01*
X-7044186Y23177772D01*
X-7121145Y23289749D01*
X-7121146Y23289751D01*
X-7125447Y23296008D01*
X-7243725Y23401389D01*
X-7251111Y23405300D01*
X-7377012Y23471961D01*
X-7377011Y23471961D01*
X-7383726Y23475516D01*
X-7537367Y23514108D01*
X-7544966Y23514148D01*
X-7544967Y23514148D01*
X-7610819Y23514493D01*
X-7695779Y23514938D01*
X-7703159Y23513166D01*
X-7703161Y23513166D01*
X-7842437Y23479729D01*
X-7842440Y23479728D01*
X-7849816Y23477957D01*
X-7990586Y23405300D01*
X-8109961Y23301162D01*
X-8201050Y23171556D01*
X-8229822Y23097759D01*
X-8252735Y23038990D01*
X-8258594Y23023963D01*
X-8259586Y23016430D01*
X-8259586Y23016429D01*
X-8266237Y22965906D01*
X-8279271Y22866904D01*
X-8940697Y22866904D01*
X-8899542Y22912611D01*
X-8834306Y22985063D01*
X-8834305Y22985064D01*
X-8829887Y22989971D01*
X-8740075Y23145529D01*
X-8731327Y23172451D01*
X-8686609Y23310082D01*
X-8686609Y23310083D01*
X-8684569Y23316361D01*
X-8665793Y23495000D01*
X-8684569Y23673639D01*
X-8705733Y23738775D01*
X-8738033Y23838187D01*
X-8738034Y23838189D01*
X-8740075Y23844471D01*
X-8829887Y24000029D01*
X-8909310Y24088238D01*
X-8945656Y24128604D01*
X-8945657Y24128605D01*
X-8950078Y24133515D01*
X-8968588Y24146964D01*
X-9090054Y24235214D01*
X-9090055Y24235215D01*
X-9095396Y24239095D01*
X-9101424Y24241779D01*
X-9101426Y24241780D01*
X-9253459Y24309469D01*
X-9253460Y24309469D01*
X-9259490Y24312154D01*
X-9363184Y24334195D01*
X-9428731Y24348128D01*
X-9428736Y24348128D01*
X-9435188Y24349500D01*
X-9614812Y24349500D01*
X-9621264Y24348128D01*
X-9621269Y24348128D01*
X-9686816Y24334195D01*
X-9790510Y24312154D01*
X-9796540Y24309469D01*
X-9796541Y24309469D01*
X-9948573Y24241780D01*
X-9948575Y24241779D01*
X-9954603Y24239095D01*
X-9959944Y24235215D01*
X-9959945Y24235214D01*
X-10094578Y24137398D01*
X-10094580Y24137396D01*
X-10099922Y24133515D01*
X-10104343Y24128605D01*
X-10104344Y24128604D01*
X-10140689Y24088238D01*
X-10220113Y24000029D01*
X-10309925Y23844471D01*
X-10311966Y23838189D01*
X-10311967Y23838187D01*
X-10344267Y23738775D01*
X-10365431Y23673639D01*
X-10384207Y23495000D01*
X-13081000Y23495000D01*
X-13081000Y24765000D01*
X-12289207Y24765000D01*
X-12270431Y24586361D01*
X-12214925Y24415529D01*
X-12125113Y24259971D01*
X-12120695Y24255064D01*
X-12120694Y24255063D01*
X-12023361Y24146964D01*
X-12004922Y24126485D01*
X-11999580Y24122604D01*
X-11999578Y24122602D01*
X-11864946Y24024786D01*
X-11859604Y24020905D01*
X-11853576Y24018221D01*
X-11853574Y24018220D01*
X-11766919Y23979639D01*
X-11695510Y23947846D01*
X-11607661Y23929173D01*
X-11526269Y23911872D01*
X-11526264Y23911872D01*
X-11519812Y23910500D01*
X-11340188Y23910500D01*
X-11333736Y23911872D01*
X-11333731Y23911872D01*
X-11252339Y23929173D01*
X-11164490Y23947846D01*
X-11093081Y23979639D01*
X-11006426Y24018220D01*
X-11006424Y24018221D01*
X-11000396Y24020905D01*
X-10995054Y24024786D01*
X-10860422Y24122602D01*
X-10860420Y24122604D01*
X-10855078Y24126485D01*
X-10836639Y24146964D01*
X-10739306Y24255063D01*
X-10739305Y24255064D01*
X-10734887Y24259971D01*
X-10645075Y24415529D01*
X-10589569Y24586361D01*
X-10570793Y24765000D01*
X-10571519Y24771904D01*
X-5104271Y24771904D01*
X-5101984Y24751193D01*
X-5091482Y24656070D01*
X-5086887Y24614447D01*
X-5084277Y24607316D01*
X-5084277Y24607314D01*
X-5074311Y24580082D01*
X-5032447Y24465681D01*
X-4944092Y24334195D01*
X-4938473Y24329082D01*
X-4938472Y24329081D01*
X-4857127Y24255063D01*
X-4826924Y24227581D01*
X-4687707Y24151992D01*
X-4534478Y24111793D01*
X-4439994Y24110309D01*
X-4376229Y24109307D01*
X-4308431Y24088238D01*
X-4289113Y24072418D01*
X-2211476Y21994781D01*
X-2196339Y21976039D01*
X-2195221Y21974810D01*
X-2189571Y21966060D01*
X-2181393Y21959613D01*
X-2163201Y21945272D01*
X-2158759Y21941324D01*
X-2158697Y21941397D01*
X-2154732Y21938037D01*
X-2151057Y21934362D01*
X-2146835Y21931345D01*
X-2146829Y21931340D01*
X-2135350Y21923138D01*
X-2130601Y21919572D01*
X-2090353Y21887844D01*
X-2081716Y21884811D01*
X-2074266Y21879487D01*
X-2064290Y21876503D01*
X-2064289Y21876503D01*
X-2048954Y21871917D01*
X-2025151Y21864798D01*
X-2019514Y21862966D01*
X-1978801Y21848669D01*
X-1971149Y21845982D01*
X-1965584Y21845500D01*
X-1962876Y21845500D01*
X-1960242Y21845386D01*
X-1960144Y21845357D01*
X-1960151Y21845193D01*
X-1959447Y21845149D01*
X-1953222Y21843287D01*
X-1899365Y21845403D01*
X-1894418Y21845500D01*
X4391080Y21845500D01*
X4415028Y21842951D01*
X4416693Y21842872D01*
X4426876Y21840680D01*
X4437217Y21841904D01*
X4460223Y21844627D01*
X4466154Y21844977D01*
X4466146Y21845072D01*
X4471324Y21845500D01*
X4476524Y21845500D01*
X4481653Y21846354D01*
X4481656Y21846354D01*
X4495565Y21848669D01*
X4501443Y21849506D01*
X4542001Y21854306D01*
X4542002Y21854306D01*
X4552341Y21855530D01*
X4560593Y21859493D01*
X4569626Y21860996D01*
X4578795Y21865943D01*
X4578797Y21865944D01*
X4614732Y21885334D01*
X4620025Y21888031D01*
X4659082Y21906785D01*
X4659086Y21906788D01*
X4666232Y21910219D01*
X4670508Y21913814D01*
X4672431Y21915737D01*
X4674363Y21917509D01*
X4674442Y21917552D01*
X4674555Y21917428D01*
X4675095Y21917904D01*
X4680814Y21920990D01*
X4699012Y21940676D01*
X4717416Y21960586D01*
X4720846Y21964152D01*
X4926178Y22169484D01*
X4988490Y22203510D01*
X5017252Y22206373D01*
X5141318Y22204424D01*
X5141321Y22204424D01*
X5148916Y22204305D01*
X5303332Y22239671D01*
X5386369Y22281434D01*
X5438072Y22307437D01*
X5438075Y22307439D01*
X5444855Y22310849D01*
X5450626Y22315778D01*
X5450629Y22315780D01*
X5559536Y22408796D01*
X5559536Y22408797D01*
X5565314Y22413731D01*
X5657755Y22542376D01*
X5716842Y22689359D01*
X5722965Y22732385D01*
X5738581Y22842109D01*
X5738581Y22842112D01*
X5739162Y22846193D01*
X5739307Y22860000D01*
X5720276Y23017267D01*
X5664280Y23165454D01*
X5655814Y23177772D01*
X5578855Y23289749D01*
X5578854Y23289751D01*
X5574553Y23296008D01*
X5456275Y23401389D01*
X5448889Y23405300D01*
X5322988Y23471961D01*
X5322989Y23471961D01*
X5316274Y23475516D01*
X5162633Y23514108D01*
X5155034Y23514148D01*
X5155033Y23514148D01*
X5089181Y23514493D01*
X5004221Y23514938D01*
X4996841Y23513166D01*
X4996839Y23513166D01*
X4857563Y23479729D01*
X4857560Y23479728D01*
X4850184Y23477957D01*
X4709414Y23405300D01*
X4590039Y23301162D01*
X4498950Y23171556D01*
X4470178Y23097760D01*
X4447265Y23038990D01*
X4441406Y23023963D01*
X4440414Y23016430D01*
X4440414Y23016429D01*
X4433763Y22965906D01*
X4420729Y22866904D01*
X4423467Y22842108D01*
X4426963Y22810434D01*
X4414557Y22740530D01*
X4390819Y22707513D01*
X4324711Y22641405D01*
X4262399Y22607379D01*
X4235616Y22604500D01*
X-1695616Y22604500D01*
X-1763737Y22624502D01*
X-1784711Y22641405D01*
X-3754857Y24611551D01*
X-3788883Y24673863D01*
X-3790505Y24718399D01*
X-3786419Y24747108D01*
X-3786419Y24747114D01*
X-3785838Y24751193D01*
X-3785693Y24765000D01*
X-3804724Y24922267D01*
X-3827720Y24983124D01*
X-2008628Y24983124D01*
X-2006237Y24922267D01*
X-1998227Y24718399D01*
X-1997484Y24699476D01*
X-1946484Y24420228D01*
X-1856647Y24150952D01*
X-1837080Y24111793D01*
X-1755160Y23947846D01*
X-1729764Y23897020D01*
X-1727235Y23893361D01*
X-1575376Y23673639D01*
X-1568369Y23663500D01*
X-1375680Y23455050D01*
X-1372226Y23452238D01*
X-1158999Y23278644D01*
X-1158995Y23278641D01*
X-1155542Y23275830D01*
X-912348Y23129415D01*
X-908253Y23127681D01*
X-908251Y23127680D01*
X-698801Y23038990D01*
X-650951Y23018728D01*
X-646658Y23017590D01*
X-646653Y23017588D01*
X-523983Y22985063D01*
X-376565Y22945976D01*
X-94666Y22912611D01*
X189122Y22919299D01*
X193517Y22920031D01*
X193522Y22920031D01*
X464734Y22965173D01*
X464738Y22965174D01*
X469136Y22965906D01*
X652710Y23023963D01*
X735544Y23050160D01*
X735546Y23050161D01*
X739790Y23051503D01*
X743801Y23053429D01*
X743806Y23053431D01*
X991665Y23172451D01*
X991666Y23172452D01*
X995684Y23174381D01*
X1177711Y23296008D01*
X1228002Y23329611D01*
X1228006Y23329614D01*
X1231710Y23332089D01*
X1235027Y23335060D01*
X1235031Y23335063D01*
X1439845Y23518510D01*
X1443161Y23521480D01*
X1625817Y23738775D01*
X1695304Y23850194D01*
X1773669Y23975848D01*
X1773671Y23975851D01*
X1776033Y23979639D01*
X1782520Y23994311D01*
X1844061Y24133515D01*
X1890813Y24239266D01*
X1896653Y24259971D01*
X1940524Y24415529D01*
X1967866Y24512475D01*
X1992983Y24699476D01*
X2005227Y24790633D01*
X2005228Y24790641D01*
X2005654Y24793815D01*
X2005755Y24797026D01*
X2009519Y24916778D01*
X2009519Y24916783D01*
X2009620Y24920000D01*
X1989571Y25203158D01*
X1974118Y25274937D01*
X1930761Y25476319D01*
X1930761Y25476321D01*
X1929825Y25480666D01*
X1831574Y25746987D01*
X1696778Y25996808D01*
X1528127Y26225144D01*
X1328986Y26427438D01*
X1246027Y26490750D01*
X1106872Y26596950D01*
X1106868Y26596953D01*
X1103327Y26599655D01*
X855655Y26738359D01*
X851506Y26739964D01*
X851502Y26739966D01*
X680846Y26805987D01*
X590909Y26840781D01*
X586588Y26841783D01*
X586580Y26841785D01*
X386639Y26888128D01*
X314374Y26904878D01*
X31566Y26929372D01*
X27131Y26929128D01*
X27127Y26929128D01*
X-79282Y26923272D01*
X-251872Y26913774D01*
X-256232Y26912907D01*
X-256238Y26912906D01*
X-373905Y26889500D01*
X-530285Y26858394D01*
X-534495Y26856916D01*
X-534497Y26856915D01*
X-592194Y26836653D01*
X-798116Y26764338D01*
X-802067Y26762285D01*
X-802073Y26762283D01*
X-982413Y26668604D01*
X-1050024Y26633483D01*
X-1053639Y26630900D01*
X-1053645Y26630896D01*
X-1097362Y26599655D01*
X-1280980Y26468439D01*
X-1486377Y26272499D01*
X-1489133Y26269003D01*
X-1489134Y26269002D01*
X-1659362Y26053070D01*
X-1662118Y26049574D01*
X-1664355Y26045722D01*
X-1802460Y25807958D01*
X-1802463Y25807952D01*
X-1804694Y25804111D01*
X-1806364Y25799988D01*
X-1909589Y25545139D01*
X-1909592Y25545131D01*
X-1911262Y25541007D01*
X-1979695Y25265512D01*
X-2008628Y24983124D01*
X-3827720Y24983124D01*
X-3860720Y25070454D01*
X-3950447Y25201008D01*
X-4068725Y25306389D01*
X-4076111Y25310300D01*
X-4202012Y25376961D01*
X-4202011Y25376961D01*
X-4208726Y25380516D01*
X-4362367Y25419108D01*
X-4369966Y25419148D01*
X-4369967Y25419148D01*
X-4435819Y25419493D01*
X-4520779Y25419938D01*
X-4528159Y25418166D01*
X-4528161Y25418166D01*
X-4667437Y25384729D01*
X-4667440Y25384728D01*
X-4674816Y25382957D01*
X-4815586Y25310300D01*
X-4934961Y25206162D01*
X-5026050Y25076556D01*
X-5028810Y25069476D01*
X-5080431Y24937075D01*
X-5083594Y24928963D01*
X-5084586Y24921430D01*
X-5084586Y24921429D01*
X-5101805Y24790633D01*
X-5104271Y24771904D01*
X-10571519Y24771904D01*
X-10589569Y24943639D01*
X-10632756Y25076556D01*
X-10643033Y25108187D01*
X-10643034Y25108189D01*
X-10645075Y25114471D01*
X-10734887Y25270029D01*
X-10767625Y25306389D01*
X-10850656Y25398604D01*
X-10850657Y25398605D01*
X-10855078Y25403515D01*
X-10876539Y25419108D01*
X-10995054Y25505214D01*
X-10995055Y25505215D01*
X-11000396Y25509095D01*
X-11006424Y25511779D01*
X-11006426Y25511780D01*
X-11158459Y25579469D01*
X-11158460Y25579469D01*
X-11164490Y25582154D01*
X-11252339Y25600827D01*
X-11333731Y25618128D01*
X-11333736Y25618128D01*
X-11340188Y25619500D01*
X-11519812Y25619500D01*
X-11526264Y25618128D01*
X-11526269Y25618128D01*
X-11607661Y25600827D01*
X-11695510Y25582154D01*
X-11701540Y25579469D01*
X-11701541Y25579469D01*
X-11853573Y25511780D01*
X-11853575Y25511779D01*
X-11859603Y25509095D01*
X-11864944Y25505215D01*
X-11864945Y25505214D01*
X-11999578Y25407398D01*
X-11999580Y25407396D01*
X-12004922Y25403515D01*
X-12009343Y25398605D01*
X-12009344Y25398604D01*
X-12092374Y25306389D01*
X-12125113Y25270029D01*
X-12214925Y25114471D01*
X-12216966Y25108189D01*
X-12216967Y25108187D01*
X-12227244Y25076556D01*
X-12270431Y24943639D01*
X-12289207Y24765000D01*
X-13081000Y24765000D01*
X-13081000Y26035000D01*
X-10384207Y26035000D01*
X-10365431Y25856361D01*
X-10363391Y25850083D01*
X-10363391Y25850082D01*
X-10328536Y25742810D01*
X-10309925Y25685529D01*
X-10220113Y25529971D01*
X-10099922Y25396485D01*
X-10094580Y25392604D01*
X-10094578Y25392602D01*
X-9975916Y25306389D01*
X-9954604Y25290905D01*
X-9948576Y25288221D01*
X-9948574Y25288220D01*
X-9796541Y25220531D01*
X-9790510Y25217846D01*
X-9711294Y25201008D01*
X-9621269Y25181872D01*
X-9621264Y25181872D01*
X-9614812Y25180500D01*
X-9435188Y25180500D01*
X-9428736Y25181872D01*
X-9428731Y25181872D01*
X-9338706Y25201008D01*
X-9259490Y25217846D01*
X-9253459Y25220531D01*
X-9101426Y25288220D01*
X-9101424Y25288221D01*
X-9095396Y25290905D01*
X-9074084Y25306389D01*
X-8955422Y25392602D01*
X-8955420Y25392604D01*
X-8950078Y25396485D01*
X-8829887Y25529971D01*
X-8740075Y25685529D01*
X-8721463Y25742810D01*
X-8686609Y25850082D01*
X-8686609Y25850083D01*
X-8684569Y25856361D01*
X-8665793Y26035000D01*
X-8684569Y26213639D01*
X-8702557Y26269002D01*
X-8738033Y26378187D01*
X-8738034Y26378189D01*
X-8740075Y26384471D01*
X-8829887Y26540029D01*
X-8950078Y26673515D01*
X-9041539Y26739966D01*
X-9090054Y26775214D01*
X-9090055Y26775215D01*
X-9095396Y26779095D01*
X-9101424Y26781779D01*
X-9101426Y26781780D01*
X-9253459Y26849469D01*
X-9253460Y26849469D01*
X-9259490Y26852154D01*
X-9347339Y26870827D01*
X-9428731Y26888128D01*
X-9428736Y26888128D01*
X-9435188Y26889500D01*
X-9614812Y26889500D01*
X-9621264Y26888128D01*
X-9621269Y26888128D01*
X-9702661Y26870827D01*
X-9790510Y26852154D01*
X-9796540Y26849469D01*
X-9796541Y26849469D01*
X-9948573Y26781780D01*
X-9948575Y26781779D01*
X-9954603Y26779095D01*
X-9959944Y26775215D01*
X-9959945Y26775214D01*
X-10094578Y26677398D01*
X-10094580Y26677396D01*
X-10099922Y26673515D01*
X-10220113Y26540029D01*
X-10309925Y26384471D01*
X-10311966Y26378189D01*
X-10311967Y26378187D01*
X-10347443Y26269002D01*
X-10365431Y26213639D01*
X-10384207Y26035000D01*
X-13081000Y26035000D01*
X-13081000Y27040000D01*
X-12241845Y27040000D01*
X-12216507Y26962019D01*
X-12211161Y26950011D01*
X-12128009Y26805987D01*
X-12120287Y26795358D01*
X-12009000Y26671762D01*
X-11999246Y26662980D01*
X-11864694Y26565222D01*
X-11853322Y26558656D01*
X-11701388Y26491010D01*
X-11698127Y26489951D01*
X-11687659Y26490750D01*
X-11684000Y26500705D01*
X-11684000Y26504026D01*
X-11176000Y26504026D01*
X-11172027Y26490495D01*
X-11163827Y26489316D01*
X-11158612Y26491010D01*
X-11006678Y26558656D01*
X-10995306Y26565222D01*
X-10860754Y26662980D01*
X-10851000Y26671762D01*
X-10739713Y26795358D01*
X-10731991Y26805987D01*
X-10648839Y26950011D01*
X-10643493Y26962019D01*
X-10620180Y27033769D01*
X-10619777Y27047867D01*
X-10626149Y27051000D01*
X-11157885Y27051000D01*
X-11173124Y27046525D01*
X-11174329Y27045135D01*
X-11176000Y27037452D01*
X-11176000Y26504026D01*
X-11684000Y26504026D01*
X-11684000Y27032885D01*
X-11688475Y27048124D01*
X-11689865Y27049329D01*
X-11697548Y27051000D01*
X-12227304Y27051000D01*
X-12240835Y27047027D01*
X-12241845Y27040000D01*
X-13081000Y27040000D01*
X-13081000Y27562133D01*
X-12240223Y27562133D01*
X-12233851Y27559000D01*
X-11702115Y27559000D01*
X-11686876Y27563475D01*
X-11685671Y27564865D01*
X-11684000Y27572548D01*
X-11684000Y27577115D01*
X-11176000Y27577115D01*
X-11171525Y27561876D01*
X-11170135Y27560671D01*
X-11162452Y27559000D01*
X-10632696Y27559000D01*
X-10619165Y27562973D01*
X-10618155Y27570000D01*
X-10643493Y27647981D01*
X-10648839Y27659989D01*
X-10731991Y27804013D01*
X-10739713Y27814642D01*
X-10851000Y27938238D01*
X-10860754Y27947020D01*
X-10995306Y28044778D01*
X-11006678Y28051344D01*
X-11158612Y28118990D01*
X-11161873Y28120049D01*
X-11172341Y28119250D01*
X-11176000Y28109295D01*
X-11176000Y27577115D01*
X-11684000Y27577115D01*
X-11684000Y28105974D01*
X-11687973Y28119505D01*
X-11696173Y28120684D01*
X-11701388Y28118990D01*
X-11853322Y28051344D01*
X-11864694Y28044778D01*
X-11999246Y27947020D01*
X-12009000Y27938238D01*
X-12120287Y27814642D01*
X-12128009Y27804013D01*
X-12211161Y27659989D01*
X-12216507Y27647981D01*
X-12239820Y27576231D01*
X-12240223Y27562133D01*
X-13081000Y27562133D01*
X-13081000Y28575000D01*
X-10384207Y28575000D01*
X-10383517Y28568435D01*
X-10370584Y28445392D01*
X-10365431Y28396361D01*
X-10363391Y28390083D01*
X-10363391Y28390082D01*
X-10312416Y28233197D01*
X-10309925Y28225529D01*
X-10220113Y28069971D01*
X-10099922Y27936485D01*
X-9954604Y27830905D01*
X-9948576Y27828221D01*
X-9948574Y27828220D01*
X-9796541Y27760531D01*
X-9790510Y27757846D01*
X-9702661Y27739173D01*
X-9621269Y27721872D01*
X-9621264Y27721872D01*
X-9614812Y27720500D01*
X-9435188Y27720500D01*
X-9428736Y27721872D01*
X-9428731Y27721872D01*
X-9347339Y27739173D01*
X-9259490Y27757846D01*
X-9253459Y27760531D01*
X-9101426Y27828220D01*
X-9101424Y27828221D01*
X-9095396Y27830905D01*
X-8950078Y27936485D01*
X-8874881Y28020000D01*
X-8259292Y28020000D01*
X-8240161Y27801326D01*
X-8183347Y27589297D01*
X-8169219Y27559000D01*
X-8092905Y27395341D01*
X-8092902Y27395336D01*
X-8090579Y27390354D01*
X-8087423Y27385847D01*
X-8087422Y27385845D01*
X-8017510Y27286001D01*
X-7964674Y27210543D01*
X-7809457Y27055326D01*
X-7804949Y27052169D01*
X-7804946Y27052167D01*
X-7777408Y27032885D01*
X-7629646Y26929421D01*
X-7624664Y26927098D01*
X-7624659Y26927095D01*
X-7574856Y26903872D01*
X-7430703Y26836653D01*
X-7218674Y26779839D01*
X-7000000Y26760708D01*
X-6781326Y26779839D01*
X-6569297Y26836653D01*
X-6425144Y26903872D01*
X-6375341Y26927095D01*
X-6375336Y26927098D01*
X-6370354Y26929421D01*
X-6222592Y27032885D01*
X-6195054Y27052167D01*
X-6195051Y27052169D01*
X-6190543Y27055326D01*
X-6035326Y27210543D01*
X-5982489Y27286001D01*
X-5912578Y27385845D01*
X-5912577Y27385847D01*
X-5909421Y27390354D01*
X-5907098Y27395336D01*
X-5907095Y27395341D01*
X-5830781Y27559000D01*
X-5816653Y27589297D01*
X-5759839Y27801326D01*
X-5747103Y27946904D01*
X-5104271Y27946904D01*
X-5102692Y27932602D01*
X-5088198Y27801326D01*
X-5086887Y27789447D01*
X-5084277Y27782316D01*
X-5084277Y27782314D01*
X-5035118Y27647981D01*
X-5032447Y27640681D01*
X-5028211Y27634378D01*
X-5028211Y27634377D01*
X-4978682Y27560671D01*
X-4944092Y27509195D01*
X-4938473Y27504082D01*
X-4938472Y27504081D01*
X-4927097Y27493731D01*
X-4826924Y27402581D01*
X-4687707Y27326992D01*
X-4534478Y27286793D01*
X-4450523Y27285474D01*
X-4383681Y27284424D01*
X-4383678Y27284424D01*
X-4376084Y27284305D01*
X-4221668Y27319671D01*
X-4151258Y27355083D01*
X-4086928Y27387437D01*
X-4086925Y27387439D01*
X-4080145Y27390849D01*
X-4074374Y27395778D01*
X-4074371Y27395780D01*
X-3965458Y27488801D01*
X-3965457Y27488802D01*
X-3959686Y27493731D01*
X-3949414Y27508026D01*
X-3893419Y27551674D01*
X-3847091Y27560500D01*
X6249810Y27560500D01*
X6317931Y27540498D01*
X6364005Y27487749D01*
X6407093Y27395345D01*
X6407096Y27395339D01*
X6409421Y27390354D01*
X6412577Y27385847D01*
X6412578Y27385845D01*
X6482490Y27286001D01*
X6535326Y27210543D01*
X6690543Y27055326D01*
X6695051Y27052169D01*
X6695054Y27052167D01*
X6722592Y27032885D01*
X6870354Y26929421D01*
X6875336Y26927098D01*
X6875341Y26927095D01*
X6925144Y26903872D01*
X7069297Y26836653D01*
X7281326Y26779839D01*
X7500000Y26760708D01*
X7718674Y26779839D01*
X7930703Y26836653D01*
X8074856Y26903872D01*
X8124659Y26927095D01*
X8124664Y26927098D01*
X8129646Y26929421D01*
X8277408Y27032885D01*
X8304946Y27052167D01*
X8304949Y27052169D01*
X8309457Y27055326D01*
X8464674Y27210543D01*
X8517511Y27286001D01*
X8587422Y27385845D01*
X8587423Y27385847D01*
X8590579Y27390354D01*
X8592902Y27395336D01*
X8592905Y27395341D01*
X8669219Y27559000D01*
X8683347Y27589297D01*
X8740161Y27801326D01*
X8759292Y28020000D01*
X8740161Y28238674D01*
X8683347Y28450703D01*
X8625387Y28575000D01*
X8592905Y28644659D01*
X8592902Y28644664D01*
X8590579Y28649646D01*
X8587422Y28654155D01*
X8467833Y28824946D01*
X8467831Y28824949D01*
X8464674Y28829457D01*
X8309457Y28984674D01*
X8304949Y28987831D01*
X8304946Y28987833D01*
X8134155Y29107422D01*
X8134153Y29107423D01*
X8129646Y29110579D01*
X8124664Y29112902D01*
X8124659Y29112905D01*
X8032067Y29156081D01*
X7978782Y29202998D01*
X7959321Y29271276D01*
X7979863Y29339236D01*
X8032067Y29384471D01*
X8124410Y29427531D01*
X8133900Y29433011D01*
X8174278Y29461283D01*
X8182652Y29471758D01*
X8175583Y29485207D01*
X7512812Y30147978D01*
X7498868Y30155592D01*
X7497035Y30155461D01*
X7490420Y30151210D01*
X6823695Y29484485D01*
X6817265Y29472711D01*
X6826561Y29460696D01*
X6866100Y29433011D01*
X6875590Y29427531D01*
X6967933Y29384471D01*
X7021218Y29337554D01*
X7040679Y29269276D01*
X7020137Y29201316D01*
X6967933Y29156081D01*
X6875341Y29112905D01*
X6875336Y29112902D01*
X6870354Y29110579D01*
X6865847Y29107423D01*
X6865845Y29107422D01*
X6695054Y28987833D01*
X6695051Y28987831D01*
X6690543Y28984674D01*
X6535326Y28829457D01*
X6532169Y28824949D01*
X6532167Y28824946D01*
X6412578Y28654155D01*
X6409421Y28649646D01*
X6407098Y28644664D01*
X6407095Y28644659D01*
X6318976Y28455685D01*
X6316653Y28450703D01*
X6315231Y28445395D01*
X6315230Y28445393D01*
X6306521Y28412889D01*
X6269570Y28352267D01*
X6205709Y28321245D01*
X6184814Y28319500D01*
X-3845318Y28319500D01*
X-3913439Y28339502D01*
X-3939886Y28365140D01*
X-3941122Y28364051D01*
X-3946145Y28369749D01*
X-3950447Y28376008D01*
X-4068725Y28481389D01*
X-4076111Y28485300D01*
X-4202012Y28551961D01*
X-4202011Y28551961D01*
X-4208726Y28555516D01*
X-4362367Y28594108D01*
X-4369966Y28594148D01*
X-4369967Y28594148D01*
X-4435819Y28594493D01*
X-4520779Y28594938D01*
X-4528159Y28593166D01*
X-4528161Y28593166D01*
X-4667437Y28559729D01*
X-4667440Y28559728D01*
X-4674816Y28557957D01*
X-4815586Y28485300D01*
X-4934961Y28381162D01*
X-5026050Y28251556D01*
X-5028810Y28244476D01*
X-5077735Y28118990D01*
X-5083594Y28103963D01*
X-5084586Y28096430D01*
X-5084586Y28096429D01*
X-5090521Y28051344D01*
X-5104271Y27946904D01*
X-5747103Y27946904D01*
X-5740708Y28020000D01*
X-5759839Y28238674D01*
X-5816653Y28450703D01*
X-5874613Y28575000D01*
X-5907095Y28644659D01*
X-5907098Y28644664D01*
X-5909421Y28649646D01*
X-5912578Y28654155D01*
X-6032167Y28824946D01*
X-6032169Y28824949D01*
X-6035326Y28829457D01*
X-6190543Y28984674D01*
X-6195051Y28987831D01*
X-6195054Y28987833D01*
X-6365845Y29107422D01*
X-6365847Y29107423D01*
X-6370354Y29110579D01*
X-6375336Y29112902D01*
X-6375341Y29112905D01*
X-6476116Y29159896D01*
X-6569297Y29203347D01*
X-6781326Y29260161D01*
X-7000000Y29279292D01*
X-7218674Y29260161D01*
X-7430703Y29203347D01*
X-7523884Y29159896D01*
X-7624659Y29112905D01*
X-7624664Y29112902D01*
X-7629646Y29110579D01*
X-7634153Y29107423D01*
X-7634155Y29107422D01*
X-7804946Y28987833D01*
X-7804949Y28987831D01*
X-7809457Y28984674D01*
X-7964674Y28829457D01*
X-7967831Y28824949D01*
X-7967833Y28824946D01*
X-8087422Y28654155D01*
X-8090579Y28649646D01*
X-8092902Y28644664D01*
X-8092905Y28644659D01*
X-8125387Y28575000D01*
X-8183347Y28450703D01*
X-8240161Y28238674D01*
X-8259292Y28020000D01*
X-8874881Y28020000D01*
X-8829887Y28069971D01*
X-8740075Y28225529D01*
X-8737583Y28233197D01*
X-8686609Y28390082D01*
X-8686609Y28390083D01*
X-8684569Y28396361D01*
X-8679415Y28445392D01*
X-8666483Y28568435D01*
X-8665793Y28575000D01*
X-8684569Y28753639D01*
X-8709203Y28829457D01*
X-8738033Y28918187D01*
X-8738034Y28918189D01*
X-8740075Y28924471D01*
X-8829887Y29080029D01*
X-8859488Y29112905D01*
X-8945656Y29208604D01*
X-8945657Y29208605D01*
X-8950078Y29213515D01*
X-9014280Y29260161D01*
X-9090054Y29315214D01*
X-9090055Y29315215D01*
X-9095396Y29319095D01*
X-9101424Y29321779D01*
X-9101426Y29321780D01*
X-9253459Y29389469D01*
X-9253460Y29389469D01*
X-9259490Y29392154D01*
X-9347339Y29410827D01*
X-9428731Y29428128D01*
X-9428736Y29428128D01*
X-9435188Y29429500D01*
X-9614812Y29429500D01*
X-9621264Y29428128D01*
X-9621269Y29428128D01*
X-9702661Y29410827D01*
X-9790510Y29392154D01*
X-9796540Y29389469D01*
X-9796541Y29389469D01*
X-9948573Y29321780D01*
X-9948575Y29321779D01*
X-9954603Y29319095D01*
X-9959944Y29315215D01*
X-9959945Y29315214D01*
X-10094578Y29217398D01*
X-10094580Y29217396D01*
X-10099922Y29213515D01*
X-10104343Y29208605D01*
X-10104344Y29208604D01*
X-10190511Y29112905D01*
X-10220113Y29080029D01*
X-10309925Y28924471D01*
X-10311966Y28918189D01*
X-10311967Y28918187D01*
X-10340797Y28829457D01*
X-10365431Y28753639D01*
X-10384207Y28575000D01*
X-13081000Y28575000D01*
X-13081000Y29845000D01*
X-12289207Y29845000D01*
X-12270431Y29666361D01*
X-12214925Y29495529D01*
X-12125113Y29339971D01*
X-12004922Y29206485D01*
X-11859604Y29100905D01*
X-11853576Y29098221D01*
X-11853574Y29098220D01*
X-11812716Y29080029D01*
X-11695510Y29027846D01*
X-11607661Y29009173D01*
X-11526269Y28991872D01*
X-11526264Y28991872D01*
X-11519812Y28990500D01*
X-11340188Y28990500D01*
X-11333736Y28991872D01*
X-11333731Y28991872D01*
X-11252339Y29009173D01*
X-11164490Y29027846D01*
X-11047284Y29080029D01*
X-11006426Y29098220D01*
X-11006424Y29098221D01*
X-11000396Y29100905D01*
X-10855078Y29206485D01*
X-10734887Y29339971D01*
X-10645075Y29495529D01*
X-10589569Y29666361D01*
X-10570793Y29845000D01*
X-10589569Y30023639D01*
X-10612683Y30094778D01*
X-10643033Y30188187D01*
X-10643034Y30188189D01*
X-10645075Y30194471D01*
X-10734887Y30350029D01*
X-10855078Y30483515D01*
X-10912830Y30525475D01*
X-10995054Y30585214D01*
X-10995055Y30585215D01*
X-11000396Y30589095D01*
X-11006424Y30591779D01*
X-11006426Y30591780D01*
X-11158459Y30659469D01*
X-11158460Y30659469D01*
X-11164490Y30662154D01*
X-11252339Y30680827D01*
X-11333731Y30698128D01*
X-11333736Y30698128D01*
X-11340188Y30699500D01*
X-11519812Y30699500D01*
X-11526264Y30698128D01*
X-11526269Y30698128D01*
X-11607661Y30680827D01*
X-11695510Y30662154D01*
X-11701540Y30659469D01*
X-11701541Y30659469D01*
X-11853573Y30591780D01*
X-11853575Y30591779D01*
X-11859603Y30589095D01*
X-11864944Y30585215D01*
X-11864945Y30585214D01*
X-11999578Y30487398D01*
X-11999580Y30487396D01*
X-12004922Y30483515D01*
X-12125113Y30350029D01*
X-12214925Y30194471D01*
X-12216966Y30188189D01*
X-12216967Y30188187D01*
X-12247317Y30094778D01*
X-12270431Y30023639D01*
X-12289207Y29845000D01*
X-13081000Y29845000D01*
X-13081000Y31115000D01*
X-10384207Y31115000D01*
X-10365431Y30936361D01*
X-10363391Y30930083D01*
X-10363391Y30930082D01*
X-10349974Y30888790D01*
X-10309925Y30765529D01*
X-10220113Y30609971D01*
X-10099922Y30476485D01*
X-9954604Y30370905D01*
X-9948576Y30368221D01*
X-9948574Y30368220D01*
X-9907716Y30350029D01*
X-9790510Y30297846D01*
X-9702661Y30279173D01*
X-9621269Y30261872D01*
X-9621264Y30261872D01*
X-9614812Y30260500D01*
X-9435188Y30260500D01*
X-9428736Y30261872D01*
X-9428731Y30261872D01*
X-9347339Y30279173D01*
X-9259490Y30297846D01*
X-9142284Y30350029D01*
X-9101426Y30368220D01*
X-9101424Y30368221D01*
X-9095396Y30370905D01*
X-8950078Y30476485D01*
X-8915827Y30514525D01*
X6241689Y30514525D01*
X6259855Y30306893D01*
X6261758Y30296098D01*
X6315701Y30094778D01*
X6319447Y30084486D01*
X6407531Y29895590D01*
X6413011Y29886100D01*
X6441283Y29845722D01*
X6451758Y29837348D01*
X6465207Y29844417D01*
X7127978Y30507188D01*
X7134356Y30518868D01*
X7864408Y30518868D01*
X7864539Y30517035D01*
X7868790Y30510420D01*
X8535515Y29843695D01*
X8547289Y29837265D01*
X8559304Y29846561D01*
X8586989Y29886100D01*
X8592469Y29895590D01*
X8680553Y30084486D01*
X8684299Y30094778D01*
X8738242Y30296098D01*
X8740145Y30306893D01*
X8758311Y30514525D01*
X8758311Y30525475D01*
X8740145Y30733107D01*
X8738242Y30743902D01*
X8684299Y30945222D01*
X8680553Y30955514D01*
X8592469Y31144410D01*
X8586989Y31153900D01*
X8558717Y31194278D01*
X8548242Y31202652D01*
X8534793Y31195583D01*
X7872022Y30532812D01*
X7864408Y30518868D01*
X7134356Y30518868D01*
X7135592Y30521132D01*
X7135461Y30522965D01*
X7131210Y30529580D01*
X6464485Y31196305D01*
X6452711Y31202735D01*
X6440696Y31193439D01*
X6413011Y31153900D01*
X6407531Y31144410D01*
X6319447Y30955514D01*
X6315701Y30945222D01*
X6261758Y30743902D01*
X6259855Y30733107D01*
X6241689Y30525475D01*
X6241689Y30514525D01*
X-8915827Y30514525D01*
X-8829887Y30609971D01*
X-8740075Y30765529D01*
X-8700025Y30888790D01*
X-8686609Y30930082D01*
X-8686609Y30930083D01*
X-8684569Y30936361D01*
X-8665793Y31115000D01*
X-8684569Y31293639D01*
X-8740075Y31464471D01*
X-8829887Y31620029D01*
X-8894547Y31691842D01*
X-8945656Y31748604D01*
X-8945657Y31748605D01*
X-8950078Y31753515D01*
X-8961328Y31761689D01*
X-9090054Y31855214D01*
X-9090055Y31855215D01*
X-9095396Y31859095D01*
X-9101424Y31861779D01*
X-9101426Y31861780D01*
X-9253459Y31929469D01*
X-9253460Y31929469D01*
X-9259490Y31932154D01*
X-9347339Y31950827D01*
X-9428731Y31968128D01*
X-9428736Y31968128D01*
X-9435188Y31969500D01*
X-9614812Y31969500D01*
X-9621264Y31968128D01*
X-9621269Y31968128D01*
X-9702661Y31950827D01*
X-9790510Y31932154D01*
X-9796540Y31929469D01*
X-9796541Y31929469D01*
X-9948573Y31861780D01*
X-9948575Y31861779D01*
X-9954603Y31859095D01*
X-9959944Y31855215D01*
X-9959945Y31855214D01*
X-10094578Y31757398D01*
X-10094580Y31757396D01*
X-10099922Y31753515D01*
X-10104343Y31748605D01*
X-10104344Y31748604D01*
X-10155452Y31691842D01*
X-10220113Y31620029D01*
X-10309925Y31464471D01*
X-10365431Y31293639D01*
X-10384207Y31115000D01*
X-13081000Y31115000D01*
X-13081000Y31766172D01*
X-12283999Y31766172D01*
X-12282791Y31753912D01*
X-12271685Y31698069D01*
X-12262367Y31675573D01*
X-12220017Y31612192D01*
X-12202808Y31594983D01*
X-12139425Y31552632D01*
X-12116934Y31543316D01*
X-12061085Y31532207D01*
X-12048830Y31531000D01*
X-11702115Y31531000D01*
X-11686876Y31535475D01*
X-11685671Y31536865D01*
X-11684000Y31544548D01*
X-11684000Y31549116D01*
X-11176000Y31549116D01*
X-11171525Y31533877D01*
X-11170135Y31532672D01*
X-11162452Y31531001D01*
X-10811172Y31531001D01*
X-10798912Y31532209D01*
X-10743069Y31543315D01*
X-10720573Y31552633D01*
X-10657192Y31594983D01*
X-10639983Y31612192D01*
X-10597632Y31675575D01*
X-10588316Y31698066D01*
X-10577207Y31753915D01*
X-10576000Y31766170D01*
X-10576000Y31972711D01*
X-7682735Y31972711D01*
X-7673439Y31960696D01*
X-7633900Y31933011D01*
X-7624410Y31927531D01*
X-7435514Y31839447D01*
X-7425222Y31835701D01*
X-7223902Y31781758D01*
X-7213107Y31779855D01*
X-7005475Y31761689D01*
X-6994525Y31761689D01*
X-6786893Y31779855D01*
X-6776098Y31781758D01*
X-6574778Y31835701D01*
X-6564486Y31839447D01*
X-6375590Y31927531D01*
X-6366100Y31933011D01*
X-6325722Y31961283D01*
X-6317348Y31971758D01*
X-6324417Y31985207D01*
X-6987188Y32647978D01*
X-7001132Y32655592D01*
X-7002965Y32655461D01*
X-7009580Y32651210D01*
X-7676305Y31984485D01*
X-7682735Y31972711D01*
X-10576000Y31972711D01*
X-10576000Y32112885D01*
X-10580475Y32128124D01*
X-10581865Y32129329D01*
X-10589548Y32131000D01*
X-11157885Y32131000D01*
X-11173124Y32126525D01*
X-11174329Y32125135D01*
X-11176000Y32117452D01*
X-11176000Y31549116D01*
X-11684000Y31549116D01*
X-11684000Y32112885D01*
X-11688475Y32128124D01*
X-11689865Y32129329D01*
X-11697548Y32131000D01*
X-12265884Y32131000D01*
X-12281123Y32126525D01*
X-12282328Y32125135D01*
X-12283999Y32117452D01*
X-12283999Y31766172D01*
X-13081000Y31766172D01*
X-13081000Y32657115D01*
X-12284000Y32657115D01*
X-12279525Y32641876D01*
X-12278135Y32640671D01*
X-12270452Y32639000D01*
X-11702115Y32639000D01*
X-11686876Y32643475D01*
X-11685671Y32644865D01*
X-11684000Y32652548D01*
X-11684000Y32657115D01*
X-11176000Y32657115D01*
X-11171525Y32641876D01*
X-11170135Y32640671D01*
X-11162452Y32639000D01*
X-10594116Y32639000D01*
X-10578877Y32643475D01*
X-10577672Y32644865D01*
X-10576001Y32652548D01*
X-10576001Y33003828D01*
X-10577055Y33014525D01*
X-8258311Y33014525D01*
X-8240145Y32806893D01*
X-8238242Y32796098D01*
X-8184299Y32594778D01*
X-8180553Y32584486D01*
X-8092469Y32395590D01*
X-8086989Y32386100D01*
X-8058717Y32345722D01*
X-8048242Y32337348D01*
X-8034793Y32344417D01*
X-7372022Y33007188D01*
X-7365644Y33018868D01*
X-6635592Y33018868D01*
X-6635461Y33017035D01*
X-6631210Y33010420D01*
X-5964485Y32343695D01*
X-5952711Y32337265D01*
X-5940696Y32346561D01*
X-5913011Y32386100D01*
X-5907531Y32395590D01*
X-5819447Y32584486D01*
X-5815701Y32594778D01*
X-5761758Y32796098D01*
X-5759855Y32806893D01*
X-5741689Y33014525D01*
X-5741689Y33025475D01*
X-5741814Y33026904D01*
X-5104271Y33026904D01*
X-5086887Y32869447D01*
X-5084277Y32862316D01*
X-5084277Y32862314D01*
X-5060045Y32796098D01*
X-5032447Y32720681D01*
X-5028211Y32714378D01*
X-5028211Y32714377D01*
X-4978682Y32640671D01*
X-4944092Y32589195D01*
X-4938473Y32584082D01*
X-4938472Y32584081D01*
X-4927097Y32573731D01*
X-4826924Y32482581D01*
X-4687707Y32406992D01*
X-4534478Y32366793D01*
X-4450523Y32365474D01*
X-4383681Y32364424D01*
X-4383678Y32364424D01*
X-4376084Y32364305D01*
X-4221668Y32399671D01*
X-4151258Y32435083D01*
X-4086928Y32467437D01*
X-4086925Y32467439D01*
X-4080145Y32470849D01*
X-4074374Y32475778D01*
X-4074371Y32475780D01*
X-3965458Y32568801D01*
X-3965457Y32568802D01*
X-3959686Y32573731D01*
X-3949414Y32588026D01*
X-3893419Y32631674D01*
X-3847091Y32640500D01*
X6119501Y32640500D01*
X6187622Y32620498D01*
X6234115Y32566842D01*
X6245501Y32514500D01*
X6245501Y31994934D01*
X6249921Y31972711D01*
X6257715Y31933526D01*
X6260266Y31920699D01*
X6316516Y31836516D01*
X6400699Y31780266D01*
X6474933Y31765500D01*
X6713001Y31765500D01*
X6781122Y31745498D01*
X6827615Y31691842D01*
X6837719Y31621568D01*
X6816438Y31572412D01*
X6816227Y31570375D01*
X6824417Y31554793D01*
X7487188Y30892022D01*
X7501132Y30884408D01*
X7502965Y30884539D01*
X7509580Y30888790D01*
X8176305Y31555515D01*
X8183825Y31569285D01*
X8160654Y31628520D01*
X8174644Y31698125D01*
X8224044Y31749117D01*
X8286175Y31765501D01*
X8525066Y31765501D01*
X8560818Y31772612D01*
X8587126Y31777844D01*
X8587128Y31777845D01*
X8599301Y31780266D01*
X8609621Y31787161D01*
X8609622Y31787162D01*
X8673168Y31829623D01*
X8683484Y31836516D01*
X8739734Y31920699D01*
X8754500Y31994933D01*
X8754499Y34045066D01*
X8739734Y34119301D01*
X8683484Y34203484D01*
X8599301Y34259734D01*
X8525067Y34274500D01*
X7500166Y34274500D01*
X6474934Y34274499D01*
X6439182Y34267388D01*
X6412874Y34262156D01*
X6412872Y34262155D01*
X6400699Y34259734D01*
X6390379Y34252839D01*
X6390378Y34252838D01*
X6339330Y34218728D01*
X6316516Y34203484D01*
X6260266Y34119301D01*
X6245500Y34045067D01*
X6245500Y33525500D01*
X6225498Y33457379D01*
X6171842Y33410886D01*
X6119500Y33399500D01*
X-3845318Y33399500D01*
X-3913439Y33419502D01*
X-3939886Y33445140D01*
X-3941122Y33444051D01*
X-3946145Y33449749D01*
X-3950447Y33456008D01*
X-4068725Y33561389D01*
X-4076111Y33565300D01*
X-4202012Y33631961D01*
X-4202011Y33631961D01*
X-4208726Y33635516D01*
X-4362367Y33674108D01*
X-4369966Y33674148D01*
X-4369967Y33674148D01*
X-4435819Y33674493D01*
X-4520779Y33674938D01*
X-4528159Y33673166D01*
X-4528161Y33673166D01*
X-4667437Y33639729D01*
X-4667440Y33639728D01*
X-4674816Y33637957D01*
X-4815586Y33565300D01*
X-4934961Y33461162D01*
X-5026050Y33331556D01*
X-5028810Y33324476D01*
X-5070570Y33217367D01*
X-5083594Y33183963D01*
X-5084586Y33176430D01*
X-5084586Y33176429D01*
X-5098343Y33071931D01*
X-5104271Y33026904D01*
X-5741814Y33026904D01*
X-5759855Y33233107D01*
X-5761758Y33243902D01*
X-5815701Y33445222D01*
X-5819447Y33455514D01*
X-5907531Y33644410D01*
X-5913011Y33653900D01*
X-5941283Y33694278D01*
X-5951758Y33702652D01*
X-5965207Y33695583D01*
X-6627978Y33032812D01*
X-6635592Y33018868D01*
X-7365644Y33018868D01*
X-7364408Y33021132D01*
X-7364539Y33022965D01*
X-7368790Y33029580D01*
X-8035515Y33696305D01*
X-8047289Y33702735D01*
X-8059304Y33693439D01*
X-8086989Y33653900D01*
X-8092469Y33644410D01*
X-8180553Y33455514D01*
X-8184299Y33445222D01*
X-8238242Y33243902D01*
X-8240145Y33233107D01*
X-8258311Y33025475D01*
X-8258311Y33014525D01*
X-10577055Y33014525D01*
X-10577209Y33016088D01*
X-10588315Y33071931D01*
X-10597633Y33094427D01*
X-10639983Y33157808D01*
X-10657192Y33175017D01*
X-10720575Y33217368D01*
X-10743066Y33226684D01*
X-10798915Y33237793D01*
X-10811170Y33239000D01*
X-11157885Y33239000D01*
X-11173124Y33234525D01*
X-11174329Y33233135D01*
X-11176000Y33225452D01*
X-11176000Y32657115D01*
X-11684000Y32657115D01*
X-11684000Y33220884D01*
X-11688475Y33236123D01*
X-11689865Y33237328D01*
X-11697548Y33238999D01*
X-12048828Y33238999D01*
X-12061088Y33237791D01*
X-12116931Y33226685D01*
X-12139427Y33217367D01*
X-12202808Y33175017D01*
X-12220017Y33157808D01*
X-12262368Y33094425D01*
X-12271684Y33071934D01*
X-12282793Y33016085D01*
X-12284000Y33003830D01*
X-12284000Y32657115D01*
X-13081000Y32657115D01*
X-13081000Y34068242D01*
X-7682652Y34068242D01*
X-7675583Y34054793D01*
X-7012812Y33392022D01*
X-6998868Y33384408D01*
X-6997035Y33384539D01*
X-6990420Y33388790D01*
X-6323695Y34055515D01*
X-6317265Y34067289D01*
X-6326561Y34079304D01*
X-6366100Y34106989D01*
X-6375590Y34112469D01*
X-6564486Y34200553D01*
X-6574778Y34204299D01*
X-6776098Y34258242D01*
X-6786893Y34260145D01*
X-6994525Y34278311D01*
X-7005475Y34278311D01*
X-7213107Y34260145D01*
X-7223902Y34258242D01*
X-7425222Y34204299D01*
X-7435514Y34200553D01*
X-7624410Y34112469D01*
X-7633900Y34106989D01*
X-7674278Y34078717D01*
X-7682652Y34068242D01*
X-13081000Y34068242D01*
X-13081000Y36183124D01*
X-2008628Y36183124D01*
X-2006148Y36120000D01*
X-2001065Y35990633D01*
X-1997484Y35899476D01*
X-1946484Y35620228D01*
X-1856647Y35350952D01*
X-1854654Y35346964D01*
X-1771046Y35179639D01*
X-1729764Y35097020D01*
X-1568369Y34863500D01*
X-1375680Y34655050D01*
X-1372226Y34652238D01*
X-1158999Y34478644D01*
X-1158995Y34478641D01*
X-1155542Y34475830D01*
X-912348Y34329415D01*
X-908253Y34327681D01*
X-908251Y34327680D01*
X-725180Y34250160D01*
X-650951Y34218728D01*
X-646658Y34217590D01*
X-646653Y34217588D01*
X-582404Y34200553D01*
X-376565Y34145976D01*
X-94666Y34112611D01*
X189122Y34119299D01*
X193517Y34120031D01*
X193522Y34120031D01*
X464734Y34165173D01*
X464738Y34165174D01*
X469136Y34165906D01*
X646887Y34222122D01*
X735544Y34250160D01*
X735546Y34250161D01*
X739790Y34251503D01*
X743801Y34253429D01*
X743806Y34253431D01*
X991665Y34372451D01*
X991666Y34372452D01*
X995684Y34374381D01*
X1151724Y34478644D01*
X1228002Y34529611D01*
X1228006Y34529614D01*
X1231710Y34532089D01*
X1235027Y34535060D01*
X1235031Y34535063D01*
X1439845Y34718510D01*
X1443161Y34721480D01*
X1625817Y34938775D01*
X1628174Y34942554D01*
X1773669Y35175848D01*
X1773671Y35175851D01*
X1776033Y35179639D01*
X1890813Y35439266D01*
X1967866Y35712475D01*
X1992983Y35899476D01*
X2005227Y35990633D01*
X2005228Y35990641D01*
X2005654Y35993815D01*
X2009620Y36120000D01*
X1989571Y36403158D01*
X1929825Y36680666D01*
X1831574Y36946987D01*
X1696778Y37196808D01*
X1528127Y37425144D01*
X1328986Y37627438D01*
X1255118Y37683812D01*
X1106872Y37796950D01*
X1106868Y37796953D01*
X1103327Y37799655D01*
X855655Y37938359D01*
X851506Y37939964D01*
X851502Y37939966D01*
X691830Y38001738D01*
X590909Y38040781D01*
X586588Y38041783D01*
X586580Y38041785D01*
X404110Y38084078D01*
X314374Y38104878D01*
X31566Y38129372D01*
X27131Y38129128D01*
X27127Y38129128D01*
X-79282Y38123272D01*
X-251872Y38113774D01*
X-256232Y38112907D01*
X-256238Y38112906D01*
X-392704Y38085761D01*
X-530285Y38058394D01*
X-534495Y38056916D01*
X-534497Y38056915D01*
X-585004Y38039178D01*
X-798116Y37964338D01*
X-802067Y37962285D01*
X-802073Y37962283D01*
X-1046074Y37835535D01*
X-1050024Y37833483D01*
X-1053639Y37830900D01*
X-1053645Y37830896D01*
X-1097362Y37799655D01*
X-1280980Y37668439D01*
X-1486377Y37472499D01*
X-1489133Y37469003D01*
X-1489134Y37469002D01*
X-1523709Y37425144D01*
X-1662118Y37249574D01*
X-1664355Y37245722D01*
X-1802460Y37007958D01*
X-1802463Y37007952D01*
X-1804694Y37004111D01*
X-1806364Y36999988D01*
X-1909589Y36745139D01*
X-1909592Y36745131D01*
X-1911262Y36741007D01*
X-1979695Y36465512D01*
X-2008628Y36183124D01*
X-13081000Y36183124D01*
X-13081000Y40260000D01*
X-13060998Y40328121D01*
X-13007342Y40374614D01*
X-12955000Y40386000D01*
X12955000Y40386000D01*
X13023121Y40365998D01*
G37*
G04 #@! TD.AperFunction*
M02*
